<svg id="レイヤー_1" data-name="レイヤー 1" xmlns="http://www.w3.org/2000/svg" xmlns:xlink="http://www.w3.org/1999/xlink" viewBox="0 0 631.47 214.67"><defs><style>.cls-1,.cls-10,.cls-19,.cls-6{fill:none;}.cls-2{fill:#f5dcbe;}.cls-12,.cls-16,.cls-18,.cls-2,.cls-3,.cls-4,.cls-5,.cls-6,.cls-8,.cls-9{stroke:#40220f;}.cls-12,.cls-16,.cls-18,.cls-2,.cls-3,.cls-4,.cls-5,.cls-6,.cls-9{stroke-linecap:round;stroke-linejoin:round;}.cls-15,.cls-3{fill:#40220f;}.cls-4{fill:#fff;}.cls-5{fill:#b062a3;}.cls-7{clip-path:url(#clip-path);}.cls-8{fill:#e60012;}.cls-10,.cls-19,.cls-8{stroke-miterlimit:10;}.cls-9{fill:#fff100;}.cls-10{stroke:#f39800;}.cls-10,.cls-19{stroke-width:6px;}.cls-11{fill:#f39800;}.cls-12{fill:#007bc7;}.cls-13,.cls-18{fill:#f3eab5;}.cls-14{fill:#c9bc9c;}.cls-16{fill:#956134;}.cls-17{fill:#eee6b3;}.cls-19{stroke:#8fb83b;}.cls-20{fill:#8fb83b;}</style><clipPath id="clip-path"><polygon class="cls-1" points="38.78 66.62 41.57 65.39 44.59 70.87 43.12 75.04 47.78 73.37 49.87 64.86 42.7 61.12 39.31 62.87 38.78 66.62"/></clipPath></defs><title>リアクション能力例</title><path class="cls-2" d="M52.78,185.12a4.22,4.22,0,0,1-1.1-.15A4,4,0,0,1,48.94,180c7.86-27.35.22-46.53.14-46.72a4,4,0,0,1,7.4-3c.37.88,8.76,22,.15,52A4,4,0,0,1,52.78,185.12Z"/><path class="cls-3" d="M48.78,188.45c5.86,1.26,15.5,1.67,19.84,0,.27-1.51-.1-4.8-1.84-6-2.46-1.69-6.65-.79-6.78,1.35-2.55-.18-2.38-1.18-3-2.75a5.18,5.18,0,0,1-8-1C48.23,182.12,47.45,185.62,48.78,188.45Z"/><path class="cls-2" d="M56.78,185.12a4.22,4.22,0,0,1-1.1-.15A4,4,0,0,1,52.94,180c7.86-27.35.22-46.53.14-46.72a4,4,0,0,1,7.4-3c.37.88,8.76,22,.15,52A4,4,0,0,1,56.78,185.12Z"/><path class="cls-2" d="M78.9,114A20.78,20.78,0,0,1,75,114C61,112.4,52.34,101.06,52,100.58a4,4,0,0,1,6.4-4.8c.08.1,7,9.07,17.55,10.26,4.5.5,11.74-1.91,19.35-6.47a4,4,0,0,1,4.12,6.86C94.78,109.2,86.56,113.46,78.9,114Z"/><path class="cls-4" d="M72.62,104.3c6.61,1.64,13.9-1.31,17.09-2.72,1.83,1,4.71,5.91,5.16,8.46-9.35,4.56-22.18,7.54-31.81,1.59C65.41,118.3,65.5,102.53,72.62,104.3Z"/><path class="cls-2" d="M79.22,114.73a20.27,20.27,0,0,1-3.85-.35c-13.91-2.65-21.64-14.61-22-15.12A4,4,0,1,1,60.15,95c.07.1,6.28,9.56,16.72,11.56,4.45.84,11.85-1,19.79-5a4,4,0,1,1,3.58,7.16C95.43,111.11,86.9,114.73,79.22,114.73Z"/><path class="cls-3" d="M52.78,188.45c5.86,1.26,15.5,1.67,19.84,0,.27-1.51-.1-4.8-1.84-6-2.46-1.69-6.65-.79-6.78,1.35-2.55-.18-2.38-1.18-3-2.75a5.18,5.18,0,0,1-8-1C52.23,182.12,51.45,185.62,52.78,188.45Z"/><path class="cls-5" d="M46.78,126.79s-5.16,14.66-9.5,19.33c7.17,5.67,33.17,4.83,38.67,0-5.33-3.33-9.83-19.33-9.83-19.33Z"/><path class="cls-4" d="M46.78,126.79c-.25-6.67-1.58-19.52,4.67-37.77,2.64-7.72,7.62-5.57,10.29,2.6,1.38,4.23,5,10.61,12,12.92,6.47,2.14,14-.26,17.25-1.42,1.75,1.17,4.25,6.25,4.5,8.83-9.67,3.84-22.68,5.84-31.83-.83a102.29,102.29,0,0,1,2.5,15.67S53.45,127.37,46.78,126.79Z"/><path class="cls-2" d="M70.22,43.16c-13.36-3.71-26.79,3.31-30.5,16.67s4,25,16.92,30.05c6.68,2.62,12.73,3.94,17.64,1.41a20.45,20.45,0,0,0,7.33-7.09A2.7,2.7,0,1,0,84,80.07a44,44,0,0,0,2.71-7.19C90.37,59.52,83.57,46.87,70.22,43.16Z"/><circle class="cls-3" cx="70.45" cy="73.79" r="0.92"/><path class="cls-3" d="M45.7,66.45c.38,1.44.92,3.1.58,3.84-.55,1.23-2.31,1-2.31,1s-9,18.5.87,31.16C29.45,97.12,29.28,88.32,29.45,81.62A16.73,16.73,0,0,1,34.7,70.29,24.65,24.65,0,0,1,42,65.53s-.66-1.68,0-2C42.85,63.13,45.13,64.27,45.7,66.45Z"/><path class="cls-3" d="M87.63,64.37c-11,6.67-21.93,5.46-33.18,4.25-2.58,4.67-2.92,11.75-1.67,19.47C47.53,85.62,43.54,84,40,76.2c-3.45-7.49-1.33-18.57,1.92-23.83A25,25,0,0,1,56.62,41.7c8.08-1.88,17.05.34,21,2.92C84.62,49.2,89.7,58,87.63,64.37Z"/><path class="cls-6" d="M69.53,85.7S68.37,89,71.37,92.33"/><path class="cls-2" d="M53.87,76.41a3.05,3.05,0,0,1-2.25.55c-1.91-.32-3.12-2.53-2.71-4.94s2.28-4.09,4.18-3.77a3.13,3.13,0,0,1,2.12,1.51"/><g class="cls-7"><path class="cls-8" d="M44.4,73.37c-1.7,0-3.53-1.48-4.5-3.81-1.17-2.83-.57-5.68,1.37-6.48a3.34,3.34,0,0,1,3.26.57,7.1,7.1,0,0,1,2.3,3h0c1.17,2.82.58,5.67-1.36,6.48A2.87,2.87,0,0,1,44.4,73.37Zm-2.06-8.5a.73.73,0,0,0-.3,0c-.77.32-1,2-.29,3.87s2.19,2.85,3,2.52,1-2,.28-3.86a5.08,5.08,0,0,0-1.62-2.18A1.77,1.77,0,0,0,42.34,64.87Z"/></g><line class="cls-9" x1="84.49" y1="183.96" x2="212.22" y2="128.29"/><path class="cls-9" d="M82.66,184.77h0a2,2,0,0,1,1-2.63l127.73-55.68a2,2,0,0,1,2.63,1v0a2,2,0,0,1-1,2.63L85.29,185.79A2,2,0,0,1,82.66,184.77Z"/><path class="cls-10" d="M111.12,104.15s25.91.5,40.63,21.15"/><polygon class="cls-11" points="142.38 127.48 157.76 136.74 158.09 118.79 142.38 127.48"/><path class="cls-2" d="M557.24,182.92a4.5,4.5,0,0,1-4.11-2.66c-4.32-9.64-10.88-19-13.56-19.34-2.87.91-6.32,7.25-7.26,14.73-.31,2.46-2.3,6.8-4.76,6.48s-3.57-3-3.26-5.45c.46-3.67,2.64-21.72,13.05-24.48s20.31,16.12,24,24.38a4.51,4.51,0,0,1-2.27,5.95A4.61,4.61,0,0,1,557.24,182.92Z"/><path class="cls-12" d="M545,152.55c-2.85,2.62-4.1,6.12-5.1,9.5,4.71,3.49,10.25,19.66,14.5,23.14s16.25,7.48,23,.61c-1.63-7.13-12.75-18.38-17.34-19.25C556,163,553.7,158.05,545,152.55Z"/><path class="cls-2" d="M529.6,172.82q-.55,0-1.11,0a4.5,4.5,0,0,1,.5-9c.21,0,.43,0,.64,0,12.61,0,29-20,34.39-27.81a4.5,4.5,0,0,1,7.44,5.08C569.2,144.38,549.21,172.82,529.6,172.82Z"/><path class="cls-13" d="M575.5,132.86c4.44,4.86,9.85,18.65,9.74,31.19-.1,11.78-5.36,22.44-11.84,24.41-1.59-12.35-4.16-17.41-13.37-21.91,6.71-1,7-10.5,9.46-19.63a41.6,41.6,0,0,1-6.62,7.25s-4.92-4.12-9.67-8.24c5.58-6,8.41-11.8,13-12.87,4.91-1.14,6-6.89,6-6.89Z"/><path class="cls-6" d="M575.5,132.86c4.44,4.86,9.85,18.65,9.74,31.19-.1,11.78-5.36,22.44-11.84,24.41-1.59-12.35-4.16-17.41-13.37-21.91,6.71-1,7-10.5,9.46-19.63a41.6,41.6,0,0,1-6.62,7.25s-4.92-4.12-9.67-8.24c5.58-6,8.41-11.8,13-12.87,4.91-1.14,6-6.89,6-6.89Z"/><path class="cls-14" d="M555,141.8c-.75-.35-4.28,3.91-3.68,4.37,3.15,1.71,10,7.26,11.87,10,.81,0,3.5-2.69,3.19-3.57C564.62,149,558.67,143.67,555,141.8Z"/><path class="cls-6" d="M555,141.8c-.75-.35-4.28,3.91-3.68,4.37,3.15,1.71,10,7.26,11.87,10,.81,0,3.5-2.69,3.19-3.57C564.62,149,558.67,143.67,555,141.8Z"/><path class="cls-3" d="M532.46,184.09c-5.86,1.26-15.5,1.67-19.83,0-.28-1.52.1-4.81,1.83-6,2.47-1.7,6.66-.79,6.79,1.35,2.55-.18,2.38-1.18,3-2.76a5.17,5.17,0,0,0,8-1C533,177.76,533.8,181.26,532.46,184.09Z"/><path class="cls-2" d="M598.76,106.07c-2.24-14.19-13.81-21.91-28-19.67s-21.25,14.15-19,28.34c.13.84.26,1.66.38,2.46a2.9,2.9,0,0,0-.79-.12,3,3,0,1,0,1.78,5.38,13.57,13.57,0,0,0,4.08,7.28c4.63,4.08,13.27,6.2,20.88,5C592.28,132.5,601,120.25,598.76,106.07Z"/><circle class="cls-15" cx="563.43" cy="114.9" r="1.25"/><path class="cls-16" d="M554.71,96.74c1.63-6.67,7.22-13.09,15.22-17.5a8.4,8.4,0,0,1,1.83,5.33c9.64-1,19.25,2.76,25,12.17s4.4,21.8-1.83,29.83c-4.34,5.58-12,10.17-12,10.17l.25-2.84-1.78,2.84V134.4s-1.62,1.31-3,2.34c5.58-12.42,4.19-18.42,3.58-21.25s-1.17-4.92-3.42-4.21-2.83,5.62-4.08,10c.11-3.8-.45-9.77-2.92-14-2-3.36-4.64-6.65-7.41-7.34a4.12,4.12,0,0,0-4.17,1.25l-.25-3.08-2.08,1.75V96.49l-3,2Z"/><path class="cls-2" d="M577.53,113.29a3.85,3.85,0,0,1,2.66-2c2.27-.4,4.5,1.49,5,4.2s-1,5.25-3.25,5.65a3.84,3.84,0,0,1-3.16-.93"/><path class="cls-2" d="M436,177.1a11.49,11.49,0,0,1-3.22-1.36c-2.45-1.32-13.61-7.55-13.61-16.49s15.89-15.31,22.72-17.62a4.5,4.5,0,0,1,2.89,8.53c-7.74,2.62-15.71,7.06-16.6,9.22.19,2.32,3.42,6.54,8,9,2.19,1.19,4.93,4.13,3.75,6.32A4.51,4.51,0,0,1,436,177.1Z"/><path class="cls-3" d="M443.46,172.82c-2.09,5.62-6.92,14-10.65,16.74-1.43-.58-4-2.67-4.08-4.77-.1-3,2.91-6,4.78-5,1.22-2.25.28-2.65-.69-4a5.18,5.18,0,0,0,3.43-7.32C438.41,169,441.78,170.18,443.46,172.82Z"/><line class="cls-2" x1="451.71" y1="145.9" x2="484.04" y2="172.6"/><path class="cls-2" d="M484,177.1c-1,0-.28,0-1.12-.73l-34.08-27a4.5,4.5,0,0,1,5.73-6.94l33.18,28.07c1.92,1.58,1.34,3.05-.24,5A4.48,4.48,0,0,1,484,177.1Z"/><path class="cls-2" d="M394.7,158.77a4.5,4.5,0,0,1-.76-8.94s4-1.06,12.29-17.71c4.51-9.08,7.9-18,7.94-18.1a4.5,4.5,0,1,1,8.41,3.19c-.14.39-3.63,9.56-8.39,19.11C405,154.87,399.34,158,395.48,158.7A5.14,5.14,0,0,1,394.7,158.77Z"/><path class="cls-2" d="M443.37,139.44a4.49,4.49,0,0,1-4-6.5c3.33-6.73,5.72-15.9,3.83-18.3-1.82-1.85-13.42-.45-23.4,2.84a4.5,4.5,0,1,1-2.81-8.55c7.91-2.61,27-7.82,33.27.13,6.44,8.16-1.23,24.66-2.84,27.89A4.48,4.48,0,0,1,443.37,139.44Z"/><path class="cls-3" d="M495,174.9c-3.92,7-8.67,10.49-17.65,9-1.43-.58-2.39-4.34-1.27-6.12,1.27-2,5.13,0,6.5,1.75,1.5-1.13,1.35-1.75.38-3.15,3-.84,5.62-2.38,4.83-5.87C489.91,171,493.28,172.25,495,174.9Z"/><path class="cls-12" d="M439,141.4s-10.45,3.62-16.16,9a36.83,36.83,0,0,0,6.66,8.87,76,76,0,0,1,19.5-5C459.79,153.07,439,141.4,439,141.4Z"/><path class="cls-12" d="M437,147.42s2.16-25.76,14.74-14.47a170.42,170.42,0,0,1,21.83,24.17l-7.83,7.25s-12.92-8-17.83-10.52A117.09,117.09,0,0,1,437,147.42Z"/><polygon class="cls-17" points="417.67 106.62 433.54 103.8 435.04 115.48 420.79 115.48 417.67 106.62"/><polygon class="cls-6" points="417.67 106.62 433.54 103.8 435.04 115.48 420.79 115.48 417.67 106.62"/><path class="cls-14" d="M435.37,102.49c-.3-.68-4.47.37-4.33,1a38.3,38.3,0,0,1,1.72,12.37c.54.5,3.9.45,4.2-.3C437.87,112.25,436.75,105.93,435.37,102.49Z"/><path class="cls-6" d="M435.37,102.49c-.3-.68-4.47.37-4.33,1a38.3,38.3,0,0,1,1.72,12.37c.54.5,3.9.45,4.2-.3C437.87,112.25,436.75,105.93,435.37,102.49Z"/><path class="cls-17" d="M438.32,149.49c7.22-3.59,12.93-9.62,15.39-15.81-10.25-6.06-25-18.58-34.5-25.45,0,0-2.32,0-4.82,2.89s-5.47,9-7.85,17.74c5,2.13,11,4.09,11,4.09a10.7,10.7,0,0,1,2.84-6C427.41,137,431,143,438.32,149.49Z"/><path class="cls-6" d="M438.32,149.49c7.22-3.59,12.93-9.62,15.39-15.81-10.25-6.06-25-18.58-34.5-25.45,0,0-2.32,0-4.82,2.89s-5.47,9-7.85,17.74c5,2.13,11,4.09,11,4.09a10.7,10.7,0,0,1,2.84-6C427.41,137,431,143,438.32,149.49Z"/><path class="cls-14" d="M406.61,126.44c-.75-.06-1.79,4.11-1.14,4.3a38.32,38.32,0,0,1,11.72,4.31c.7-.24,2.24-3.23,1.71-3.85C416.38,128.83,410.29,126.84,406.61,126.44Z"/><path class="cls-6" d="M406.61,126.44c-.75-.06-1.79,4.11-1.14,4.3a38.32,38.32,0,0,1,11.72,4.31c.7-.24,2.24-3.23,1.71-3.85C416.38,128.83,410.29,126.84,406.61,126.44Z"/><path class="cls-2" d="M420.43,78.78c-8.9-11.26-22.77-12.32-34-3.42s-11.59,22.75-2.69,34c.54.67,1.05,1.33,1.54,2a3,3,0,0,0-.74.28,3,3,0,0,0,2.93,5.21,3,3,0,0,0,1.26-1.39,13.54,13.54,0,0,0,7.12,4.34c6,1.29,14.6-1.1,20.65-5.88C427.74,105,429.34,90.05,420.43,78.78Z"/><circle class="cls-15" cx="393.96" cy="103.8" r="1.25"/><path class="cls-16" d="M377.46,92.25c-1.84-6.62-.12-15,4.69-22.72a8.41,8.41,0,0,1,4.21,3.75c7.91-5.6,18.13-7,27.76-1.65s14.52,16.85,13,26.9c-1,7-5.48,14.75-5.48,14.75l-1.17-2.6-.16,3.34-1.14-2s-.77,1.93-1.45,3.49c-1.22-13.56-5.37-18.11-7.29-20.28s-3.43-3.71-5-2,.29,6.29,1.32,10.68c-1.76-3.37-5.18-8.29-9.41-10.77-3.35-2-7.3-3.52-10.05-2.76a4.11,4.11,0,0,0-3,3.13l-1.73-2.56-1,2.55-1.63-2.91-1.61,3.2Z"/><path class="cls-2" d="M405.47,95.48a3.85,3.85,0,0,1,1.36-3c1.78-1.47,4.65-.92,6.4,1.22s1.72,5-.07,6.51A3.85,3.85,0,0,1,410,101"/><path class="cls-3" d="M361.34,141.94c5.34,2.71,13.08,8.47,15.4,12.5-.74,1.34-3.11,3.67-5.21,3.5-3-.24-5.66-3.58-4.41-5.32-2.1-1.47-2.6-.59-4.1.22a5.18,5.18,0,0,0-6.88-4.25C356.91,146.51,358.51,143.3,361.34,141.94Z"/><path class="cls-3" d="M269.31,189.56c-4.31-4.17-10-12-11-16.49,1.1-1.07,4-2.59,6-1.81,2.78,1.11,4.36,5.09,2.65,6.39,1.57,2,2.31,1.32,4,1a5.17,5.17,0,0,0,5.31,6.09C274.88,186.49,272.4,189.09,269.31,189.56Z"/><path class="cls-2" d="M343.48,165.42c-9.42,0-23.79-1.53-29.05-2.13a4.5,4.5,0,1,1,1-8.94c13.49,1.54,29.84,2.67,32.75,1.83,2.23-.68,5-2.91,7.94-7.59,1.31-2.11,8.18,2.14,6.88,4.25-1.85,3-5.65,9.94-12.17,11.94A29.3,29.3,0,0,1,343.48,165.42Z"/><path class="cls-2" d="M270.92,178.64a94.4,94.4,0,0,1,16.57-11.8c8.23-4.37,25.61-11.84,26.34-12.16a4.5,4.5,0,0,1,3.55,8.27c-.17.08-17.77,7.64-25.67,11.84a138.22,138.22,0,0,0-15.48,9.94C275.38,185.46,269,180.26,270.92,178.64Z"/><path class="cls-12" d="M317.19,149.94a132.09,132.09,0,0,0,25.92,5.79,13.34,13.34,0,0,1,0,10.42,253.34,253.34,0,0,1-28.5-.73Z"/><path class="cls-12" d="M312.19,146c8.67-.41,12.13,4.87,13.11,7.23s1.81,10.37-5.53,12.86l-28.58,9.66-4.58-9.25,21.16-10.33Z"/><path class="cls-2" d="M273,113.26c-8.9-11.27-22.77-12.33-34-3.43s-11.58,22.75-2.68,34c.54.67,1,1.33,1.54,2a3,3,0,0,0-.74.28A3,3,0,1,0,240,151.3a2.9,2.9,0,0,0,1.25-1.39,13.57,13.57,0,0,0,7.13,4.34c6,1.3,14.6-1.1,20.65-5.88C280.3,139.47,281.9,124.52,273,113.26Z"/><circle class="cls-15" cx="246.53" cy="138.28" r="1.25"/><path class="cls-16" d="M230,126.72c-1.84-6.62-.12-15,4.68-22.72a8.39,8.39,0,0,1,4.22,3.75c7.91-5.59,18.13-7,27.75-1.64S281.2,123,279.71,133c-1,7-5.48,14.75-5.48,14.75l-1.17-2.6-.16,3.35-1.14-2s-.77,1.93-1.45,3.49c-1.22-13.56-5.37-18.11-7.29-20.28s-3.43-3.7-5-2,.28,6.29,1.32,10.68c-1.77-3.36-5.18-8.29-9.41-10.77-3.35-2-7.3-3.51-10.06-2.76a4.15,4.15,0,0,0-3,3.14l-1.72-2.57-1,2.55L232.49,125l-1.6,3.2Z"/><path class="cls-2" d="M258,130a3.82,3.82,0,0,1,1.36-3c1.78-1.46,4.65-.92,6.4,1.22s1.72,5.05-.07,6.51a3.85,3.85,0,0,1-3.21.74"/><path class="cls-2" d="M271.06,152.73A153.32,153.32,0,0,1,227.15,169a4.09,4.09,0,0,1-.91.1,4.5,4.5,0,0,1-.9-8.91,144.83,144.83,0,0,0,41.84-15.6"/><path class="cls-18" d="M295.92,161.84c6.19-3,6.85-3.56,11.05-5.39,3.84-1.84,6-6.19,6.67-10.79-12.83.52-20.91-1.35-34.91-8.72-4.48.5-9.3,4.84-9.3,4.84a13.74,13.74,0,0,0,5.63,9.46A89,89,0,0,0,295.92,161.84Z"/><path class="cls-18" d="M276.06,151.24l-13,6.78a43.83,43.83,0,0,1-4.75-10.24c5-2.26,8.74-6,12.25-6"/><path class="cls-14" d="M261.67,159.66c.5.55,4.11-1.79,3.76-2.38a38.3,38.3,0,0,1-5.65-11.14c-.68-.29-3.84.85-3.87,1.66C256.13,151.25,259.25,156.86,261.67,159.66Z"/><path class="cls-6" d="M261.67,159.66c.5.55,4.11-1.79,3.76-2.38a38.3,38.3,0,0,1-5.65-11.14c-.68-.29-3.84.85-3.87,1.66C256.13,151.25,259.25,156.86,261.67,159.66Z"/><line class="cls-19" x1="533.19" y1="119.99" x2="486.46" y2="119.99"/><polygon class="cls-20" points="489.08 111.01 473.54 119.98 489.08 128.96 489.08 111.01"/><line class="cls-19" x1="359.93" y1="119.99" x2="313.2" y2="119.99"/><polygon class="cls-20" points="315.83 111.01 300.28 119.98 315.83 128.96 315.83 111.01"/></svg>