<svg id="レイヤー_1" data-name="レイヤー 1" xmlns="http://www.w3.org/2000/svg" viewBox="0 0 510 354.67"><defs><style>.cls-1{fill:#fff100;}.cls-1,.cls-10,.cls-11,.cls-12,.cls-14,.cls-15,.cls-16,.cls-17,.cls-18,.cls-19,.cls-2,.cls-20,.cls-21,.cls-22,.cls-23,.cls-3,.cls-4,.cls-5,.cls-6,.cls-7,.cls-8,.cls-9{stroke:#40220f;}.cls-1,.cls-10,.cls-11,.cls-12,.cls-14,.cls-15,.cls-16,.cls-17,.cls-18,.cls-19,.cls-20,.cls-21,.cls-22,.cls-23,.cls-3,.cls-4,.cls-5,.cls-8{stroke-linecap:round;stroke-linejoin:round;}.cls-12,.cls-2{fill:#f5dcbe;}.cls-2,.cls-6,.cls-7,.cls-9{stroke-miterlimit:10;}.cls-3,.cls-9{fill:#fff;}.cls-4,.cls-6{fill:#0068b2;}.cls-5,.cls-7{fill:none;}.cls-8{fill:#b3b3b3;}.cls-10{fill:#6a3906;}.cls-11{fill:#bce2ec;}.cls-13,.cls-20{fill:#40220f;}.cls-14{fill:#c60022;}.cls-15{fill:#b5b5b6;}.cls-16{fill:#604c3f;}.cls-17{fill:#e60012;}.cls-18{fill:#956134;}.cls-19{fill:#009e9d;}.cls-21{fill:#f8cbd9;}.cls-22{fill:#f39800;}.cls-23{fill:#a48b78;}</style></defs><title>ジャッジ能力例</title><path class="cls-1" d="M368.84,151.94h-.17c-.49-.06-49.57-5.74-115.83-20.7s-99.56-27.88-99.88-28a1.5,1.5,0,1,1,1.09-2.79c.33.13,33.42,13,99.45,27.88S368.52,148.89,369,149a1.5,1.5,0,0,1-.17,3Z"/><path class="cls-2" d="M81.45,133.33a5,5,0,0,1-4-2,4.49,4.49,0,0,1,3.12-7.17,63.55,63.55,0,0,0,6-8,4.5,4.5,0,0,1,7.55,4.9c-7.86,12.12-10.72,12.22-12.43,12.28Z"/><path class="cls-3" d="M122.25,161.48c2.38,1.19,3.38,4.06,3.07,7.12,2.12,3.19,2.31,9.25,1.06,13s-8.56,5.69-10.94,5.19-3.37-5.75-3.37-5.75l2-4.06-.25-13.75S119.5,160.1,122.25,161.48Z"/><path class="cls-4" d="M123.51,167.41c0,3.11-2.69,4.8-5.63,5.63-1.81.51-7.23,2.13-8.25,1-.67-.77,2.62-4,2.62-6.59a5.63,5.63,0,1,1,11.26,0Z"/><path class="cls-5" d="M113.32,179.67s2.18-4.25,9.75-2"/><path class="cls-6" d="M122.25,143.85c0,10-4.71,10.52-5,17.25l-1.75,42c-4.25,1.5-9.07.75-11.5-1.5v-27c-6.75-12.25-10.75-20.22-10.75-30.75C96.62,138.63,122.25,133.85,122.25,143.85Z"/><path class="cls-7" d="M104,174.6V157.35l-2.42-3.75"/><path class="cls-8" d="M132.75,109c-1.47-.67-4,1.75-6.11,6.48s-2.71,9.11-1.23,9.79,4.42-2.62,6.58-7.35S134.23,109.65,132.75,109Z"/><path class="cls-9" d="M109.93,214a11.45,11.45,0,0,0,5.95-4.89,2.25,2.25,0,0,0,2-2,9.13,9.13,0,0,0-3.38-5.5c-1.78-.68-8.37-1.65-10.5,0,1.28,3.35-3.62,5.5-3.62,5.5Z"/><path class="cls-10" d="M128.25,87.73s10.5-2.25,16.88,4.37,1.12,9.79,5,16,6.75,8.38,13.87,12.25c-11.5,0-23.75-4.5-30.25-12.37S128.25,87.73,128.25,87.73Z"/><path class="cls-2" d="M136.83,126.78c-7.57,0-16.48-9.36-20.24-13.75a4.5,4.5,0,0,1,6.83-5.86c4.73,5.51,11.12,10.62,13.25,10.63,2.34-1,8.42-9.14,12.88-17.34a4.5,4.5,0,1,1,7.91,4.29c-2.43,4.47-10.9,19.25-18,21.62A8.17,8.17,0,0,1,136.83,126.78Z"/><path class="cls-3" d="M112.4,212.74c-2.27,2.53-14,2.89-14-.91,0-1.9.11-4,1.35-5.23s3.63-1.65,5.53-1.65a6.89,6.89,0,0,1,6.13,3.76"/><path class="cls-11" d="M83.68,117.1c3.64,4.54,5.89,6.23,11.11,9.68s8-29.18,8-29.18A167.21,167.21,0,0,0,83.68,117.1Z"/><path class="cls-11" d="M126.64,115.46c2.15-4.73,4.64-7.15,6.11-6.48-7.55-4.48-11.58-9.1-15.87-12.75-2.17-1.85-3.43-4.42-7.25-4.63-11.38-.62-18.75,38.75-17.88,53,7.75,3.75,21.27,4.13,31.76.88,0-7.47-.63-21.76-.63-21.76L125.1,125C124,123.87,124.65,119.82,126.64,115.46Z"/><path class="cls-12" d="M111.83,99.48c-2.27,4.74-5.44,5.06-8.46,3.61s-4.75-4.12-2.48-8.85,6.56-7.39,9.58-5.94S114.1,94.75,111.83,99.48Z"/><path class="cls-11" d="M103.37,103.09s2.47,2.35,2.63,7.51a115.48,115.48,0,0,0,12.44-13s1.66-8.1-2.94-2.7S103.37,103.09,103.37,103.09Z"/><path class="cls-11" d="M103.37,103.09a11.78,11.78,0,0,1-3.24-5.49c-.63-3.07-2.25,4.43-2.25,4.43a19.89,19.89,0,0,0,3.43,8A16.18,16.18,0,0,1,103.37,103.09Z"/><path class="cls-12" d="M138.65,70.64a29.46,29.46,0,0,1-29.46,29.46c-9,0-18.78-2.48-24.19-8.87-4.34-5.13-5.26-13.34-5.26-20.59a29.46,29.46,0,0,1,58.91,0Z"/><path class="cls-12" d="M79.41,132.81a4.51,4.51,0,0,1-2.62-5.8c4.65-12.28,17-22,17.52-22.45a4.5,4.5,0,0,1,5.54,7.09c-.1.08-9.68,7.67-13.91,16.83"/><path class="cls-12" d="M95.63,76.36a3.38,3.38,0,1,1,0-4.77"/><circle class="cls-13" cx="83.68" cy="72.1" r="1.5"/><circle class="cls-13" cx="111.5" cy="74.14" r="1.5"/><path class="cls-14" d="M90.63,83.85c2.6,1.38,6.1,1.75,10,1.5,0,0-1.68,6.75-5.84,6.13S90.63,83.85,90.63,83.85Z"/><path class="cls-10" d="M79.88,67.72c8.62-2.37,18-12.37,18-12.37s8.46,10,24.37,15.29l6.92,2.46s.22,13.37-7.53,24.25c14.94-4.5,19.43-19,18.49-31.5-.88-11.62-10.25-19.75-18.75-23.5C104.11,34.73,77.58,46.58,79.88,67.72Z"/><path class="cls-5" d="M125.41,125.25c-1.48-.68-.93-5.06,1.23-9.79s4.64-7.15,6.11-6.48"/><path class="cls-12" d="M123.82,71.6a3.74,3.74,0,0,1,2.87-1.5c2.38,0,4.31,2.63,4.31,5.88s-1.93,5.87-4.31,5.87a4,4,0,0,1-3.31-2.11"/><path class="cls-3" d="M427.5,260.27c-4.41,1.67-4.87,8.75,1.17,10.33,4.48,1.18,7.87-.09,8.92-1.25,2.21-2.42,2.33-7.08,2.33-10.91,1.42-3,1.75-7.92-1.33-10.59s-9.09,1.34-9.09,1.34S430.92,259,427.5,260.27Z"/><path class="cls-5" d="M427.5,260.27s3.5-1.17,6,.83"/><path class="cls-2" d="M409.51,176.77h-.12c-33.92-.9-44.7-23.66-45.15-24.63a4.5,4.5,0,0,1,8.18-3.76c.39.81,9.17,18.65,37.2,19.39a4.5,4.5,0,0,1-.11,9Z"/><path class="cls-2" d="M444.08,186.87a14,14,0,0,0,1.13-3.24c-1.25-1.19-6.12-2.82-10.33-3.4a4.5,4.5,0,0,1,1.24-8.92c4.92.69,16.5,3.07,18,10.41"/><polyline class="cls-2" points="445.39 183.84 445.4 183.84 445.39 183.84"/><circle class="cls-12" cx="413.51" cy="271.89" r="5.16"/><path class="cls-4" d="M422.63,225.6l-6.46,13.62S427.75,253.1,431,257.1s6.87-3.38,4-8.66Z"/><path class="cls-4" d="M436.34,211.27c.83,7.67-1,16.17-5.34,22,0,0-8.37,24.71-10.85,32.77,0,15.73-16.48-.73-16.48-.73l11.83-26.09s-8.75-9.87-5.66-31.12C414,204.94,435.5,203.6,436.34,211.27Z"/><path class="cls-5" d="M415.5,239.22l6.34-14.78-2.53-2.12"/><path class="cls-3" d="M419.51,269.68A8.87,8.87,0,0,1,414,275c-.12-3.81-1.45-7.1-6-9.4-5.1-2.58-8.67.11-10.13,2.83s-.93,3.5-.93,3.5,11.13,10,16.59,9c0,0,4-.37,6.08-3A13.83,13.83,0,0,0,419.51,269.68Z"/><path class="cls-15" d="M413.51,281c-5.08-.16-6.6-.25-11-1.57s-7.14-5.92-4.72-10.08c1.62-2.78,6.43-.05,8.23,1.64s3.44,6.44,4.11,7.68S411.34,280.34,413.51,281Z"/><path class="cls-11" d="M400.13,165.48c8.37,1.62,21.71,1.62,21.71,1.62l-5.67,13.63s-8.79,1.15-16-1A15.59,15.59,0,0,1,400.13,165.48Z"/><path class="cls-11" d="M408.5,210.85c6.25,3.5,22.63,4.25,28.88,1.63-.85-14.25-2.75-28.64-2.75-28.64l7.52,2.86s.73-6.47,7-12.47a120.87,120.87,0,0,0-27.29-9.38C412.38,164,409,198.3,408.5,210.85Z"/><circle class="cls-12" cx="423.32" cy="166.77" r="5.5"/><path class="cls-11" d="M421.13,171.27a10.69,10.69,0,0,1,2.5,8.67A96.52,96.52,0,0,0,433,166.77s-1.37-.67-3-1.29C427.44,170.41,421.13,171.27,421.13,171.27Z"/><path class="cls-11" d="M417.82,178.35c.85-5.09,3.31-7.08,3.31-7.08l-4-5.79H414A37.39,37.39,0,0,0,417.82,178.35Z"/><path class="cls-12" d="M455,141.82c0,16.42-12.8,26.41-29.21,26.41-8.21,0-17.66-1.5-23.17-6s-7.06-12.15-7.06-20.36a29.72,29.72,0,1,1,59.44,0Z"/><path class="cls-16" d="M432.47,134.18c-7.84,6-25.51,6.79-30.89,5.27s-9.25-4.57-9.48-9.72c1.87,2.34,3.78,1.31,4.68-.46,10-19.66,30.76-20.64,41.42-15.57,9.83,4.68,17.9,14.4,18,26.47.12,11.34-5.38,23.73-15.34,24.76,2.7-6.18,1.65-19.52-3.5-19.4a29.51,29.51,0,0,1-3.51,7.6S435,139.56,432.47,134.18Z"/><path class="cls-12" d="M437.89,147.05a3.31,3.31,0,0,1,2.74-1.7c2,0,3.54,2.06,3.54,4.6s-1.58,4.59-3.54,4.59a3.1,3.1,0,0,1-2.25-1"/><path class="cls-12" d="M412.89,152.63a2.92,2.92,0,1,1,0-4.14"/><circle class="cls-13" cx="401.7" cy="147.05" r="1.76"/><circle class="cls-13" cx="428.43" cy="148.81" r="1.76"/><path class="cls-5" d="M410.82,160.86s2.23,2.34,4.68,2.34,5-2.34,5-2.34"/><path class="cls-2" d="M454.08,181.72c1.2,6-6.42,17.92-11.07,24.48a4.5,4.5,0,1,1-7.35-5.2,96.35,96.35,0,0,0,8.42-14.13"/><ellipse class="cls-7" cx="111.75" cy="214.33" rx="8.02" ry="3.12"/><path class="cls-14" d="M118.3,264.24c-1,1.91,1.34,5.11,6.41,5.15,1.29,0,1.65-1.85,3-2.95s6.94-3.42,8.06-6.46.73-5.08-1.33-6.46-5.83-1-8.1.93-5.34,8.87-5.34,8.87A1.9,1.9,0,0,0,118.3,264.24Z"/><path class="cls-12" d="M121.78,264.87c-1.93-.69-2.67-2.14-1.72-4.14,3.72-7.94,7.54-17.9,7.73-21.06a4,4,0,0,1,5.44-5.59c4.13,2.48,2.83,8.5-.82,18.06-2.31,6.06-5,11.76-5.1,12A6.31,6.31,0,0,1,121.78,264.87ZM129.1,241h0Z"/><path class="cls-12" d="M130.68,244.31c-1.29,4.23-3.9,12.08-11,18.12-1.1.94-2.12-3.56-3.47-3.56a4,4,0,0,1-3.43-6.08c.12-.21,3-5,6.44-9.7,4.46-6.14,9.22-11.89,14-9"/><path class="cls-12" d="M123.24,220.29a39.27,39.27,0,0,1,10.35,14.51,4.25,4.25,0,0,1-2.16,5.24c-1.72.71-4.6-.62-5.24-2.16a32.65,32.65,0,0,0-6.54-10"/><path class="cls-4" d="M98.78,268.05c5.23,1,11.73,1.64,16.53-.72,5.41-2.66,8.89-8.54,10.49-10.94,2.88-4.35,2.88-10.44-3.09-13.11C117.6,241,107.29,252,107.29,252S87.66,265.87,98.78,268.05Z"/><path class="cls-3" d="M103.73,214.33C93,220.78,79.45,246.84,85.91,259.09s25,11.36,29.4,3.12,7.57-34.52,4.45-47.88S114.42,207.87,103.73,214.33Z"/><path class="cls-3" d="M116.32,228.88l5.37,6.08a17.31,17.31,0,0,0,10.1-8.31,24.44,24.44,0,0,0-12-12.32"/><path class="cls-12" d="M142.29,194a2.68,2.68,0,0,0-1.83.84,26.5,26.5,0,0,0-52.78,4.83c1.3,14.58,14,23.32,28.57,22,7.25-.64,14.6-2.82,19-7.47,3.68-3.9,5.29-9.51,5.37-15.48a2.68,2.68,0,0,0,1.9.68,2.71,2.71,0,1,0-.23-5.42Z"/><circle class="cls-13" cx="127.24" cy="199.95" r="1.44"/><path class="cls-17" d="M133.86,207.35a9.81,9.81,0,0,0,4.58,2.33l-.68,1.25A5.9,5.9,0,0,1,133.86,207.35Z"/><path class="cls-18" d="M119.65,221.26c-9.45,1.43-19.54,0-25.87-5.75s-8.88-15.66-7.57-23.45c2.37-14.11,9.16-21.25,27-22.42,12.63-.83,20.92,6.83,25.21,14.4,0,4.45-5.21,7.42-5.21,7.42s2.75-5.75,1.69-10.52c-7.68,19-23.17,20.45-23.17,20.45A23.71,23.71,0,0,0,119.65,221.26Z"/><path class="cls-12" d="M114.69,207.05a3.17,3.17,0,0,1-2.52,1.46c-1.91.05-3.49-1.83-3.54-4.19S110.08,200,112,200a3.1,3.1,0,0,1,2.37,1.09"/><ellipse class="cls-7" cx="149.94" cy="228.31" rx="8.02" ry="3.12"/><path class="cls-19" d="M156.5,278.23c-1,1.91,1.34,5.11,6.41,5.15,1.29,0,1.65-1.85,3-2.95S172.87,277,174,274s.73-5.08-1.33-6.46-5.83-1-8.1.93-5.34,8.87-5.34,8.87A1.9,1.9,0,0,0,156.5,278.23Z"/><path class="cls-12" d="M160,278.85c-1.93-.68-2.67-2.13-1.73-4.13,3.73-7.94,7.55-17.9,7.73-21.06a4,4,0,0,1,5.45-5.59c4.13,2.47,2.83,8.5-.82,18.06-2.31,6.05-5,11.75-5.1,12A6.28,6.28,0,0,1,160,278.85Zm7.32-23.91h0Z"/><path class="cls-12" d="M168.87,258.3c-1.28,4.23-3.89,12.08-11,18.12-1.11.94-2.12-3.56-3.47-3.56a4,4,0,0,1-3.43-6.09c.12-.2,3-5,6.43-9.69,4.47-6.14,9.23-11.89,14-9"/><path class="cls-12" d="M161.44,234.28a39.27,39.27,0,0,1,10.35,14.51,4.26,4.26,0,0,1-2.16,5.24c-1.72.71-4.6-.62-5.24-2.16a32.85,32.85,0,0,0-6.54-10"/><path class="cls-4" d="M137,282c5.23,1,11.73,1.65,16.53-.71,5.41-2.66,8.89-8.54,10.49-10.95,2.88-4.34,2.88-10.43-3.09-13.1C155.79,255,145.49,266,145.49,266S125.86,279.85,137,282Z"/><path class="cls-3" d="M141.93,228.31c-10.69,6.46-24.28,32.52-17.82,44.77s24.94,11.36,29.4,3.12,7.57-34.52,4.45-47.89S152.62,221.86,141.93,228.31Z"/><path class="cls-3" d="M154.52,242.87l5.37,6.08a17.36,17.36,0,0,0,10.1-8.31,24.49,24.49,0,0,0-12-12.33"/><path class="cls-12" d="M177.4,202.14a26.5,26.5,0,0,0-49.77,18.22c5,13.75,19.5,18.94,33.26,13.95,6.84-2.49,13.39-6.48,16.45-12.1,2.55-4.71,2.67-10.55,1.21-16.34C179.16,206.17,177.73,201.55,177.4,202.14Z"/><path class="cls-20" d="M175,193c-7.32-8.25-20.95-11.64-31.94-7.65a27.72,27.72,0,0,0-16.6,35.51c5.23,14.38,20.4,19.81,34.79,14.59,7.15-2.6,14-6.78,17.19-12.66,0,0-10.35-4.56-11.38-11.75a12.73,12.73,0,0,1,.1-3.78l5.69,3.7-4.09-13.36,3.86-.3-2.22-3.41Z"/><circle class="cls-13" cx="174.72" cy="201.84" r="1.44"/><path class="cls-12" d="M173.23,213.78a3.18,3.18,0,0,1-.82,2.8c-1.35,1.34-3.79,1.07-5.45-.6s-1.92-4.12-.57-5.46a3.12,3.12,0,0,1,2.47-.84"/><ellipse class="cls-7" cx="192.75" cy="239.88" rx="8.02" ry="3.12"/><path class="cls-21" d="M199.3,289.79c-1,1.92,1.34,5.11,6.41,5.16,1.29,0,1.65-1.85,3-2.95s6.93-3.42,8-6.46.73-5.08-1.32-6.46-5.84-1-8.1.93-5.34,8.87-5.34,8.87A1.91,1.91,0,0,0,199.3,289.79Z"/><path class="cls-12" d="M202.79,290.42c-1.93-.68-2.67-2.13-1.73-4.14,3.73-7.93,7.55-17.89,7.73-21a4,4,0,0,1,5.44-5.6c4.13,2.48,2.83,8.5-.82,18.07-2.31,6.05-5,11.75-5.09,12A6.32,6.32,0,0,1,202.79,290.42Zm7.32-23.91Z"/><path class="cls-12" d="M211.68,269.87c-1.29,4.22-3.9,12.08-11,18.12-1.11.94-2.12-3.57-3.48-3.57a3.91,3.91,0,0,1-2.07-.58,4,4,0,0,1-1.36-5.5c.12-.2,3-5,6.44-9.69,4.46-6.14,9.22-11.89,14-9"/><path class="cls-12" d="M204.24,245.84a39.26,39.26,0,0,1,10.35,14.51,4.25,4.25,0,0,1-2.16,5.24c-1.71.72-4.6-.61-5.24-2.15a32.72,32.72,0,0,0-6.54-10"/><path class="cls-4" d="M179.78,293.6c5.23,1,11.73,1.65,16.53-.71,5.41-2.67,8.9-8.54,10.49-10.95,2.88-4.35,2.88-10.43-3.09-13.11-5.11-2.29-15.42,8.69-15.42,8.69S168.66,291.42,179.78,293.6Z"/><path class="cls-3" d="M184.73,239.88c-10.69,6.46-24.27,32.52-17.81,44.77s24.94,11.35,29.39,3.11,7.57-34.52,4.46-47.88S195.42,233.42,184.73,239.88Z"/><path class="cls-3" d="M197.32,254.43l5.38,6.09a17.35,17.35,0,0,0,10.09-8.32,24.45,24.45,0,0,0-12-12.32"/><path class="cls-12" d="M221.46,220.38a26.5,26.5,0,0,0-52.78,4.84c1.3,14.58,14,23.32,28.57,22,7.25-.65,14.61-2.83,19-7.48,3.68-3.89,5.29-9.5,5.37-15.48C222.13,224.73,221.93,219.9,221.46,220.38Z"/><path class="cls-20" d="M224.21,222.18a29,29,0,0,0-58,1.51c.15,6,.76,23.11,4,27.26,10.64,6.07,36.32,7.9,47.57,3,4.3-4,5.82-20.94,6.34-27.46C224.28,225.21,224,223.79,224.21,222.18Z"/><path class="cls-22" d="M240.4,303.9c-1,1.92,1.34,5.11,6.42,5.16,1.28,0,1.64-1.85,3-2.95s6.93-3.42,8-6.46.73-5.08-1.32-6.46-5.83-1-8.1.93-5.34,8.87-5.34,8.87A1.91,1.91,0,0,0,240.4,303.9Z"/><path class="cls-12" d="M243.89,304.53c-1.93-.68-2.67-2.13-1.73-4.14,3.73-7.93,7.55-17.89,7.73-21.05a4,4,0,0,1,5.44-5.6c4.14,2.48,2.83,8.5-.82,18.07-2.31,6.05-5,11.75-5.09,12A6.32,6.32,0,0,1,243.89,304.53Zm7.32-23.91Z"/><path class="cls-12" d="M252.78,284c-1.29,4.22-3.9,12.08-11,18.12-1.11.94-2.12-3.57-3.48-3.57a3.91,3.91,0,0,1-2.07-.58,4,4,0,0,1-1.36-5.5c.13-.2,3-5,6.44-9.69,4.46-6.14,9.22-11.89,14-9"/><path class="cls-12" d="M245.34,260a39.24,39.24,0,0,1,10.35,14.51,4.26,4.26,0,0,1-2.16,5.25c-1.71.71-4.6-.62-5.24-2.16a32.54,32.54,0,0,0-6.54-10"/><path class="cls-4" d="M220.88,307.71c5.23,1,11.73,1.65,16.53-.71,5.41-2.67,8.9-8.54,10.49-10.95,2.88-4.35,2.88-10.43-3.09-13.11-5.11-2.29-15.41,8.69-15.41,8.69S209.76,305.53,220.88,307.71Z"/><path class="cls-3" d="M225.83,254c-10.69,6.46-24.27,32.52-17.81,44.77s24.94,11.35,29.39,3.11S245,267.35,241.87,254,236.52,247.53,225.83,254Z"/><path class="cls-3" d="M238.42,268.54l5.38,6.09a17.35,17.35,0,0,0,10.09-8.32,24.45,24.45,0,0,0-12-12.32"/><path class="cls-12" d="M205.17,239c.9,15.07,13.71,24.46,28.79,23.57,7.49-.44,15.14-2.47,19.81-7.13s6.43-12.1,6-19.68A27.34,27.34,0,0,0,205.17,239Z"/><path class="cls-23" d="M218.88,259.68c8.84,4.45,24.64,3.87,33.39-2.92,2.34-5.91,1.94-14.06,1.94-14.06s-33.45,1.5-48.89-2A24.29,24.29,0,0,0,218.88,259.68Z"/><path class="cls-16" d="M204.23,246c-3.8-16.65,4.41-33.92,21.35-37s30.82,5.73,34.55,17.68c.45,1.45-5.76,5.31-5.76,5.31a109.8,109.8,0,0,0,2.06,15.58C242.35,251.87,216.72,252.51,204.23,246Z"/><path class="cls-12" d="M256.6,237.33a2.55,2.55,0,0,0-2.26-1.19c-1.55.18-2.58,2.29-2.29,4.7s1.78,4.23,3.33,4a2.37,2.37,0,0,0,1.77-1.39"/></svg>