<svg id="レイヤー_1" data-name="レイヤー 1" xmlns="http://www.w3.org/2000/svg" viewBox="0 0 138.96 152.26"><defs><style>.cls-1{fill:#40220f;}.cls-1,.cls-10,.cls-11,.cls-2,.cls-3,.cls-4,.cls-5,.cls-6,.cls-7,.cls-8,.cls-9{stroke:#40220f;}.cls-1,.cls-10,.cls-11,.cls-2,.cls-3,.cls-4,.cls-5,.cls-6,.cls-8,.cls-9{stroke-linecap:round;stroke-linejoin:round;}.cls-2{fill:#898989;}.cls-3{fill:#e60012;}.cls-4{fill:#f5dcbe;}.cls-5{fill:#f39800;}.cls-6{fill:none;}.cls-7{fill:#b5b5b6;stroke-miterlimit:10;}.cls-8{fill:#006934;}.cls-9{fill:#6a3906;}.cls-10{fill:#7a6a56;}.cls-11{fill:#727171;}.cls-12{fill:#f5e928;}</style></defs><title>とっさの反応が出来ない</title><path class="cls-1" d="M87.16,16.33a55,55,0,0,1-16.38,8.92,18.86,18.86,0,0,0,6-.2A26.43,26.43,0,0,0,65.88,35.69s4.58,6.83,11.76,8c.41,2.35-2.52,3.11-2.52,3.11,26.77,12.54,41.42-8.45,41.42-8.45Z"/><path class="cls-2" d="M77.76,108.25a4,4,0,0,1,1.1-7.58c4.75-.72,10-2.39,11.67-3.65-1-1.91-5-5.84-9-8.82a4,4,0,0,1,4.73-6.45c7,5.09,14.68,12.41,11.89,18.37-2.6,5.57-13.51,7.77-18.08,8.46A4,4,0,0,1,77.76,108.25Z"/><path class="cls-3" d="M81.11,100.88c-1.7,4.08,1.72,7.87,1.72,7.87a4.94,4.94,0,0,1,2.93,1.87c1.31,1.65,1.87,5.66-1.62,6.17s-7.22-3.17-8-6.5-.38-8.75-.38-8.75A4.32,4.32,0,0,1,81.11,100.88Z"/><path class="cls-2" d="M59.52,118.1a4,4,0,0,1-.31-7.07c15.41-9,12.37-25.24,12.23-25.93a4,4,0,0,1,7.84-1.62c1.61,7.75.33,24.93-16.05,34.46A4,4,0,0,1,59.52,118.1Z"/><path class="cls-4" d="M97.2,56c4.08,2.33,11.39,5.35,19.48,3.4a4,4,0,0,1,1.88,7.78,33.85,33.85,0,0,1-22.35-2.67"/><path class="cls-4" d="M103.28,50.63A4,4,0,0,1,105,43c.45,0,10-.09,19.36-8.8a4,4,0,1,1,5.47,5.85C118,51.08,105.45,51,104.92,51A3.91,3.91,0,0,1,103.28,50.63Z"/><path class="cls-5" d="M70,72.21s-2.53,5.4-.31,9.72c-.42,5.18-1.34,11.51-3.34,16.54,16.23,3.17,24,3,33.87-5.51C98,86.71,89.3,81.26,89.3,81.26A75.88,75.88,0,0,0,99.62,51.58c14.86-.15,22.86-2.71,27.23-7.07a3.93,3.93,0,0,0,1.05-2.73l-5-6.29a4.38,4.38,0,0,0-3.13.8c-10.43,6.94-14,4.86-23.49,6.84C82.86,45.92,70,72.21,70,72.21"/><path class="cls-5" d="M92.89,53.12s10,6.63,20.57,5c1.34-.21,2,1.54,2,1.54l1.33,7.89s-.24,1.82-1.94,1.76c-16.75-.65-25.4-8.81-25.4-8.81"/><path class="cls-4" d="M118.64,44.81c-2.19,4.68-5.21,8.71-9.25,10.16-5.23,1.88-11.91.12-18-2.72-10.75-5-16.75-14.93-11.71-25.69a21.5,21.5,0,0,1,38.94,18.25Z"/><path class="cls-6" d="M108.86,34.7s-.83,5.41-4.22,9c1-.13,1.66,1.89,1.12,3.4a3.38,3.38,0,0,1-2.85,1.5,2.48,2.48,0,0,1-1.66-1.31"/><path class="cls-3" d="M59.6,110.45c-1.7,4.08,1.72,7.87,1.72,7.87a4.94,4.94,0,0,1,2.93,1.87c1.3,1.65,1.87,5.66-1.62,6.17s-7.23-3.18-8.05-6.51-.38-8.74-.38-8.74A4.31,4.31,0,0,1,59.6,110.45Z"/><ellipse class="cls-3" cx="98.1" cy="50.78" rx="2.69" ry="1.26" transform="translate(10.5 118.07) rotate(-64.9)"/><path class="cls-1" d="M83,29.21s15.14,3.62,26.88,1.25c3,7.36,10.06,10.95,10.06,10.95s6.11-18-11.17-26.1c-18.66-8.68-29.8,7.47-31.41,14.74C80.06,31.34,83,29.21,83,29.21Z"/><path class="cls-4" d="M81,35.5a3.24,3.24,0,0,1-2.23-.17c-1.77-.83-2.43-3.2-1.45-5.28s3.21-3.09,5-2.26A3.31,3.31,0,0,1,84.05,30"/><path class="cls-4" d="M90.46,32.73A34.86,34.86,0,0,1,92.74,36c-.3-.17-3.7-.75-3.7-.75"/><polyline class="cls-4" points="112.89 43.24 109.1 43.2 111.67 45.84"/><path class="cls-7" d="M32.23,131.32a1,1,0,0,1-.3,0,1,1,0,0,1-.66-1.25l1.71-5.5a1,1,0,0,1,1-.7H46.8l2-4.88a1,1,0,1,1,1.85.75l-2.22,5.48a1.1,1.1,0,0,1-.15.26l-.12.14a1,1,0,0,1-.66.25H34.67l-1.49,4.79A1,1,0,0,1,32.23,131.32Z"/><rect class="cls-1" x="38.27" y="103.74" width="5.33" height="43.67" rx="2.67"/><path class="cls-7" d="M46.94,127a1,1,0,0,1-1-1V102.65h-10V126a1,1,0,1,1-2,0V101.65a1,1,0,0,1,1-1h12a1,1,0,0,1,1,1V126A1,1,0,0,1,46.94,127Z"/><rect class="cls-1" x="22.4" y="128.65" width="9.83" height="3.33"/><rect class="cls-1" x="49.7" y="117.65" width="9.83" height="3.33"/><path class="cls-8" d="M59.39,84.36A8.41,8.41,0,0,0,54,82a18.43,18.43,0,0,0,.16-2.35c0-6.83-26.89-10-26.51,0,0,.78.08,1.5.15,2.2-1.65,1.69-6.75,9.61-5.13,42a4,4,0,0,0,4,3.8h.21a4,4,0,0,0,3.79-4.2c-.89-17.91.18-26.45,1.35-31.16,2,1.35,5.07,1,8.89,1,3.43,0,11.49-1,12.68-2.27.55,2.91-.89,11.89-3.31,21.64a4,4,0,0,0,2.92,4.84,4.09,4.09,0,0,0,1,.12,4,4,0,0,0,3.88-3C64.44,89,60.77,85.62,59.39,84.36Z"/><path class="cls-9" d="M22.71,123.85a9.57,9.57,0,0,0,8-.4c1.53,2.12.74,5.2.74,5.2h-9S21.14,125.63,22.71,123.85Z"/><path class="cls-9" d="M50.55,112.85a9.57,9.57,0,0,0,8-.4c1.52,2.12.73,5.2.73,5.2h-9S49,114.63,50.55,112.85Z"/><path class="cls-10" d="M54.76,74.15c7-.51,11.24-2.15,12.77-4.89C69.79,65.19,66,60.83,62,57.09c-3-2.82-6.23-5.21-6.36-5.31-1.78-1.32-4-2.6-4-2.6h0c-1.86-6-4.62-10.37-8.52-10.37s-7,4.41-9.51,10.37h0A30.74,30.74,0,0,0,29,51.78c-.13.1-3.33,2.49-6.37,5.31-4,3.74-7.82,8.1-5.56,12.17,1.37,2.46,5,4,10.71,4.69a30.11,30.11,0,0,0-.13,5.7c.84,6.75,24.68,7.25,26.51,0a28.7,28.7,0,0,0,.56-5.5M25.63,65.46a46.65,46.65,0,0,1,4.25-4.08c-.35,1.55-.67,3.1-.94,4.59C27.69,65.83,26.54,65.66,25.63,65.46Zm28.91.63c-.12-1.74-.3-3.54-.53-5.35a50.69,50.69,0,0,1,5,4.73A39.69,39.69,0,0,1,54.54,66.09Z"/><path class="cls-6" d="M54.76,74.21c.06-2.35,0-5.15-.21-8.12"/><path class="cls-6" d="M28.94,66c-.53,2.92-.9,5.66-1.12,8"/><circle class="cls-4" cx="20.82" cy="32.4" r="4.33"/><circle class="cls-4" cx="63.82" cy="32.4" r="4.33"/><path class="cls-11" d="M58.09,17.82h0L48.7,7l-3,2L43.45,7,41,8.9,37.36,7.32l-8.42,8.25h0A21.44,21.44,0,0,0,20.82,32.4c0,4.08,1.13,9.43,3.11,12.25,3.77,5.39,10.6,6.5,18.39,6.5,7.32,0,13.78-.88,17.66-5.67,2.42-3,3.84-8.53,3.84-13.08A21.43,21.43,0,0,0,58.09,17.82Z"/><path class="cls-6" d="M34.86,12.73a32.26,32.26,0,0,1,15.34,0"/><rect class="cls-1" x="31.44" y="93.32" width="19" height="6.5" rx="3.08"/><path class="cls-12" d="M73.91,51.47c-4.42,10.76-15.11,14-20.3,6.18,5.19,7.84-.1,15.09-10,13.77,9.94,1.32,14,11.66,8.2,19.87,6.33-8,15.76-5.11,18.42,5.65-2.66-10.76,5-18.06,14.54-13.86-9.54-4.2-9.09-13.81.85-18.25C75.64,69.27,69.49,62.23,73.91,51.47Z"/><path class="cls-6" d="M73.91,51.47c-4.42,10.76-15.11,14-20.3,6.18,5.19,7.84-.1,15.09-10,13.77,9.94,1.32,14,11.66,8.2,19.87,6.33-8,15.76-5.11,18.42,5.65-2.66-10.76,5-18.06,14.54-13.86-9.54-4.2-9.09-13.81.85-18.25C75.64,69.27,69.49,62.23,73.91,51.47Z"/></svg>