<svg id="レイヤー_1" data-name="レイヤー 1" xmlns="http://www.w3.org/2000/svg" xmlns:xlink="http://www.w3.org/1999/xlink" viewBox="0 0 335.7 336.47"><defs><style>.cls-1,.cls-19,.cls-2,.cls-23,.cls-29,.cls-41,.cls-56,.cls-57{fill:none;}.cls-2{stroke:#825740;stroke-width:2.16px;}.cls-3{fill:#eda840;}.cls-4{fill:#dec481;}.cls-5{fill:#ebc06f;}.cls-6{fill:#d0a233;}.cls-7{fill:#efb36c;}.cls-8{fill:#efb81a;}.cls-9{fill:#ca8b11;}.cls-10{fill:#dfac38;}.cls-11{fill:#edaa56;}.cls-12{fill:#eeca87;}.cls-13{fill:#e0ae59;}.cls-14{fill:#dda114;}.cls-15{fill:#ea9532;}.cls-16{fill:#fae7b3;}.cls-17{fill:#f0d48b;}.cls-18{fill:#f8da8f;}.cls-19{stroke:#90b83c;stroke-width:0.5px;}.cls-20{fill:#007bc7;}.cls-21{fill:#0068b2;}.cls-22{fill:#fff051;}.cls-23,.cls-31,.cls-32,.cls-33,.cls-34,.cls-35,.cls-36,.cls-73{stroke:#40220f;}.cls-23,.cls-24,.cls-25,.cls-26,.cls-27,.cls-28,.cls-29,.cls-31,.cls-32,.cls-33,.cls-34,.cls-35,.cls-36,.cls-37,.cls-38,.cls-41,.cls-42,.cls-44,.cls-45,.cls-46,.cls-47,.cls-48,.cls-49,.cls-50,.cls-51,.cls-52,.cls-53,.cls-54,.cls-55,.cls-56,.cls-57,.cls-58,.cls-59,.cls-62,.cls-63,.cls-64,.cls-65,.cls-66,.cls-67,.cls-69,.cls-70,.cls-71,.cls-73,.cls-74,.cls-75,.cls-78,.cls-79{stroke-linecap:round;stroke-linejoin:round;}.cls-24,.cls-34,.cls-54,.cls-68{fill:#f2d9bd;}.cls-24,.cls-25,.cls-26,.cls-27,.cls-28,.cls-29,.cls-37,.cls-38,.cls-42,.cls-44,.cls-45,.cls-46,.cls-47,.cls-48,.cls-49,.cls-50,.cls-51,.cls-52,.cls-62,.cls-63,.cls-64,.cls-65,.cls-66,.cls-67,.cls-69,.cls-70,.cls-71,.cls-74,.cls-75,.cls-78,.cls-79{stroke:#41210d;}.cls-25{fill:url(#星と円_カラー_);}.cls-26{fill:#fff;}.cls-27,.cls-30{fill:#41210d;}.cls-28{fill:#c7da8d;}.cls-31,.cls-53{fill:#fbfdfd;}.cls-32{fill:#595857;}.cls-33{fill:#a75f9b;}.cls-35{fill:#6a3906;}.cls-36,.cls-52{fill:#d71718;}.cls-37{fill:#b4b3b3;}.cls-38{fill:#e6e6e5;}.cls-39{fill:#f9ded7;}.cls-40{fill:url(#_10_lpi_30_3);}.cls-41{stroke:#4c2e1a;}.cls-42{fill:#d96250;}.cls-43{fill:url(#_10_lpi_30_3-3);}.cls-44{fill:#987556;}.cls-45{fill:#e99413;}.cls-46{fill:#c5b098;}.cls-47{fill:#745133;}.cls-48{fill:#5f3819;}.cls-49,.cls-58,.cls-72,.cls-73{fill:#40220f;}.cls-50{fill:#099796;}.cls-51{fill:#534741;}.cls-53,.cls-54,.cls-55,.cls-57,.cls-58,.cls-59{stroke:#231815;}.cls-55{fill:#bb1b25;}.cls-56{stroke:#fff;stroke-width:2px;}.cls-59{fill:#231815;}.cls-60{fill:#e60012;}.cls-61{fill:#c60022;}.cls-62{fill:#e590a8;}.cls-63{fill:#d5143c;}.cls-64{fill:#0863a7;}.cls-65{fill:#7f8080;}.cls-66{fill:#b5ddee;}.cls-67{fill:#4e4d4d;}.cls-69{fill:#673a1b;}.cls-70{fill:#1074ba;}.cls-71{fill:#727171;}.cls-74{fill:#3e3a39;}.cls-75{fill:#f4e028;}.cls-76,.cls-78{fill:#f8eef2;}.cls-77{fill:url(#麻布_3);}.cls-79{fill:#cde9ec;}</style><pattern id="星と円_カラー_" data-name="星と円 (カラー)" width="78.3" height="78.3" patternTransform="translate(-150.59 -76.33)" patternUnits="userSpaceOnUse" viewBox="0 0 78.3 78.3"><rect class="cls-1" width="78.3" height="78.3"/><path class="cls-3" d="M13.05,13.05"/><path class="cls-4" d="M13.05,26.1a13,13,0,0,1,13.05-13,13,13,0,0,1-13-13A13,13,0,0,1,0,13.05,13,13,0,0,1,13.05,26.1Z"/><path class="cls-3" d="M39.15,13.05"/><path class="cls-5" d="M39.15,26.1a13,13,0,0,1,13.05-13A13,13,0,0,1,39.15,0a13,13,0,0,1-13,13.05A13,13,0,0,1,39.15,26.1Z"/><path class="cls-3" d="M65.25,13.05"/><path class="cls-6" d="M65.25,26.1a13,13,0,0,1,13-13,13,13,0,0,1-13-13,13,13,0,0,1-13,13.05A13,13,0,0,1,65.25,26.1Z"/><path class="cls-3" d="M13.05,39.15"/><path class="cls-3" d="M13.05,52.2A13,13,0,0,1,26.1,39.15a13,13,0,0,1-13-13,13,13,0,0,1-13,13A13,13,0,0,1,13.05,52.2Z"/><path class="cls-3" d="M39.15,39.15"/><path class="cls-7" d="M39.15,52.2A13,13,0,0,1,52.2,39.15a13,13,0,0,1-13.05-13,13,13,0,0,1-13,13A13,13,0,0,1,39.15,52.2Z"/><path class="cls-3" d="M26.1,26.1"/><path class="cls-8" d="M26.1,39.15a13,13,0,0,1,13-13,13,13,0,0,1-13-13,13,13,0,0,1-13,13.05A13,13,0,0,1,26.1,39.15Z"/><path class="cls-3" d="M65.25,39.15"/><path class="cls-9" d="M65.25,52.2a13,13,0,0,1,13-13.05,13,13,0,0,1-13-13,13,13,0,0,1-13,13A13,13,0,0,1,65.25,52.2Z"/><path class="cls-3" d="M52.2,26.1"/><path class="cls-10" d="M52.2,39.15a13,13,0,0,1,13-13,13,13,0,0,1-13-13A13,13,0,0,1,39.15,26.1,13,13,0,0,1,52.2,39.15Z"/><path class="cls-11" d="M78.3,39.15a13,13,0,0,1,13-13,13,13,0,0,1-13-13,13,13,0,0,1-13,13.05A13,13,0,0,1,78.3,39.15Z"/><path class="cls-3" d="M13.05,65.25"/><path class="cls-10" d="M13.05,78.3a13,13,0,0,1,13.05-13,13,13,0,0,1-13-13,13,13,0,0,1-13,13A13,13,0,0,1,13.05,78.3Z"/><path class="cls-3" d="M39.15,65.25"/><path class="cls-12" d="M39.15,78.3a13,13,0,0,1,13.05-13,13,13,0,0,1-13.05-13,13,13,0,0,1-13,13A13,13,0,0,1,39.15,78.3Z"/><path class="cls-3" d="M26.1,52.2"/><path class="cls-6" d="M26.1,65.25a13,13,0,0,1,13-13,13,13,0,0,1-13-13.05,13,13,0,0,1-13,13.05A13,13,0,0,1,26.1,65.25Z"/><path class="cls-3" d="M65.25,65.25"/><path class="cls-13" d="M65.25,78.3a13,13,0,0,1,13-13,13,13,0,0,1-13-13,13,13,0,0,1-13,13A13,13,0,0,1,65.25,78.3Z"/><path class="cls-3" d="M52.2,52.2"/><path class="cls-14" d="M52.2,65.25a13,13,0,0,1,13-13,13,13,0,0,1-13-13.05A13,13,0,0,1,39.15,52.2,13,13,0,0,1,52.2,65.25Z"/><path class="cls-11" d="M78.3,65.25a13,13,0,0,1,13-13,13,13,0,0,1-13-13.05,13,13,0,0,1-13,13.05A13,13,0,0,1,78.3,65.25Z"/><path class="cls-11" d="M26.1,91.35a13,13,0,0,1,13-13,13,13,0,0,1-13-13,13,13,0,0,1-13,13A13,13,0,0,1,26.1,91.35Z"/><path class="cls-11" d="M52.2,91.35a13,13,0,0,1,13-13,13,13,0,0,1-13-13,13,13,0,0,1-13.05,13A13,13,0,0,1,52.2,91.35Z"/><path class="cls-15" d="M78.3,91.35a13,13,0,0,1,13-13,13,13,0,0,1-13-13,13,13,0,0,1-13,13A13,13,0,0,1,78.3,91.35Z"/><path class="cls-16" d="M13.05,26.1a13,13,0,0,1,13.05-13A13,13,0,0,1,13.05,26.1Z"/><path class="cls-16" d="M0,13.05A13,13,0,0,1,13.05,26.1,13,13,0,0,1,0,13.05Z"/><path class="cls-16" d="M26.1,13.05a13,13,0,0,1-13-13A13,13,0,0,1,26.1,13.05Z"/><path class="cls-17" d="M0,13.05A13,13,0,0,0,13.05,0,13,13,0,0,0,0,13.05Z"/><path class="cls-16" d="M39.15,26.1a13,13,0,0,1,13.05-13A13,13,0,0,1,39.15,26.1Z"/><path class="cls-18" d="M26.1,13.05a13,13,0,0,1,13,13.05A13,13,0,0,1,26.1,13.05Z"/><path class="cls-18" d="M52.2,13.05A13,13,0,0,1,39.15,0,13,13,0,0,1,52.2,13.05Z"/><path class="cls-16" d="M26.1,13.05a13,13,0,0,0,13-13A13,13,0,0,0,26.1,13.05Z"/><path class="cls-16" d="M65.25,26.1a13,13,0,0,1,13-13A13,13,0,0,1,65.25,26.1Z"/><path class="cls-17" d="M52.2,13.05a13,13,0,0,1,13,13.05A13,13,0,0,1,52.2,13.05Z"/><path class="cls-17" d="M78.3,13.05a13,13,0,0,1-13-13A13,13,0,0,1,78.3,13.05Z"/><path class="cls-16" d="M52.2,13.05a13,13,0,0,0,13-13A13,13,0,0,0,52.2,13.05Z"/><path class="cls-16" d="M13.05,52.2A13,13,0,0,1,26.1,39.15,13,13,0,0,1,13.05,52.2Z"/><path class="cls-18" d="M0,39.15A13,13,0,0,1,13.05,52.2,13,13,0,0,1,0,39.15Z"/><path class="cls-18" d="M26.1,39.15a13,13,0,0,1-13-13A13,13,0,0,1,26.1,39.15Z"/><path class="cls-16" d="M0,39.15a13,13,0,0,0,13.05-13A13,13,0,0,0,0,39.15Z"/><path class="cls-17" d="M39.15,52.2A13,13,0,0,1,52.2,39.15,13,13,0,0,1,39.15,52.2Z"/><path class="cls-16" d="M26.1,39.15a13,13,0,0,1,13,13.05A13,13,0,0,1,26.1,39.15Z"/><path class="cls-16" d="M52.2,39.15a13,13,0,0,1-13.05-13A13,13,0,0,1,52.2,39.15Z"/><path class="cls-17" d="M26.1,39.15a13,13,0,0,0,13-13A13,13,0,0,0,26.1,39.15Z"/><path class="cls-16" d="M65.25,52.2a13,13,0,0,1,13-13.05A13,13,0,0,1,65.25,52.2Z"/><path class="cls-18" d="M52.2,39.15a13,13,0,0,1,13,13.05A13,13,0,0,1,52.2,39.15Z"/><path class="cls-18" d="M78.3,39.15a13,13,0,0,1-13-13A13,13,0,0,1,78.3,39.15Z"/><path class="cls-16" d="M52.2,39.15a13,13,0,0,0,13-13A13,13,0,0,0,52.2,39.15Z"/><path class="cls-16" d="M13.05,78.3a13,13,0,0,1,13.05-13A13,13,0,0,1,13.05,78.3Z"/><path class="cls-17" d="M0,65.25a13,13,0,0,1,13.05,13A13,13,0,0,1,0,65.25Z"/><path class="cls-17" d="M26.1,65.25a13,13,0,0,1-13-13A13,13,0,0,1,26.1,65.25Z"/><path class="cls-16" d="M0,65.25a13,13,0,0,0,13.05-13A13,13,0,0,0,0,65.25Z"/><path class="cls-16" d="M39.15,78.3a13,13,0,0,1,13.05-13A13,13,0,0,1,39.15,78.3Z"/><path class="cls-18" d="M26.1,65.25a13,13,0,0,1,13,13A13,13,0,0,1,26.1,65.25Z"/><path class="cls-18" d="M52.2,65.25a13,13,0,0,1-13.05-13A13,13,0,0,1,52.2,65.25Z"/><path class="cls-16" d="M26.1,65.25a13,13,0,0,0,13-13A13,13,0,0,0,26.1,65.25Z"/><path class="cls-16" d="M65.25,78.3a13,13,0,0,1,13-13A13,13,0,0,1,65.25,78.3Z"/><path class="cls-16" d="M52.2,65.25a13,13,0,0,1,13,13A13,13,0,0,1,52.2,65.25Z"/><path class="cls-16" d="M78.3,65.25a13,13,0,0,1-13-13A13,13,0,0,1,78.3,65.25Z"/><path class="cls-16" d="M52.2,65.25a13,13,0,0,0,13-13A13,13,0,0,0,52.2,65.25Z"/><path class="cls-11" d="M0,39.15a13,13,0,0,1,13.05-13,13,13,0,0,1-13-13A13,13,0,0,1-13,26.1,13,13,0,0,1,0,39.15Z"/><path class="cls-11" d="M0,65.25a13,13,0,0,1,13.05-13A13,13,0,0,1,0,39.15,13,13,0,0,1-13,52.2,13,13,0,0,1,0,65.25Z"/><path class="cls-15" d="M0,91.35a13,13,0,0,1,13.05-13,13,13,0,0,1-13-13,13,13,0,0,1-13,13A13,13,0,0,1,0,91.35Z"/><path class="cls-11" d="M26.1,13.05a13,13,0,0,1,13-13,13,13,0,0,1-13-13A13,13,0,0,1,13.05,0,13,13,0,0,1,26.1,13.05Z"/><path class="cls-11" d="M52.2,13.05a13,13,0,0,1,13-13,13,13,0,0,1-13-13A13,13,0,0,1,39.15,0,13,13,0,0,1,52.2,13.05Z"/><path class="cls-15" d="M78.3,13.05a13,13,0,0,1,13-13,13,13,0,0,1-13-13A13,13,0,0,1,65.25,0,13,13,0,0,1,78.3,13.05Z"/><path class="cls-15" d="M0,13.05A13,13,0,0,1,13.05,0,13,13,0,0,1,0-13,13,13,0,0,1-13,0,13,13,0,0,1,0,13.05Z"/></pattern><pattern id="_10_lpi_30_3" data-name="10 lpi 30% 3" width="72" height="72" patternTransform="translate(12.6 -38.62) scale(0.88)" patternUnits="userSpaceOnUse" viewBox="0 0 72 72"><rect class="cls-1" width="72" height="72"/><line class="cls-2" x1="71.75" y1="68.4" x2="144.25" y2="68.4"/><line class="cls-2" x1="71.75" y1="54" x2="144.25" y2="54"/><line class="cls-2" x1="71.75" y1="39.6" x2="144.25" y2="39.6"/><line class="cls-2" x1="71.75" y1="25.2" x2="144.25" y2="25.2"/><line class="cls-2" x1="71.75" y1="10.8" x2="144.25" y2="10.8"/><line class="cls-2" x1="71.75" y1="61.2" x2="144.25" y2="61.2"/><line class="cls-2" x1="71.75" y1="46.8" x2="144.25" y2="46.8"/><line class="cls-2" x1="71.75" y1="32.4" x2="144.25" y2="32.4"/><line class="cls-2" x1="71.75" y1="18" x2="144.25" y2="18"/><line class="cls-2" x1="71.75" y1="3.6" x2="144.25" y2="3.6"/><line class="cls-2" x1="-0.25" y1="68.4" x2="72.25" y2="68.4"/><line class="cls-2" x1="-0.25" y1="54" x2="72.25" y2="54"/><line class="cls-2" x1="-0.25" y1="39.6" x2="72.25" y2="39.6"/><line class="cls-2" x1="-0.25" y1="25.2" x2="72.25" y2="25.2"/><line class="cls-2" x1="-0.25" y1="10.8" x2="72.25" y2="10.8"/><line class="cls-2" x1="-0.25" y1="61.2" x2="72.25" y2="61.2"/><line class="cls-2" x1="-0.25" y1="46.8" x2="72.25" y2="46.8"/><line class="cls-2" x1="-0.25" y1="32.4" x2="72.25" y2="32.4"/><line class="cls-2" x1="-0.25" y1="18" x2="72.25" y2="18"/><line class="cls-2" x1="-0.25" y1="3.6" x2="72.25" y2="3.6"/><line class="cls-2" x1="-72.25" y1="68.4" x2="0.25" y2="68.4"/><line class="cls-2" x1="-72.25" y1="54" x2="0.25" y2="54"/><line class="cls-2" x1="-72.25" y1="39.6" x2="0.25" y2="39.6"/><line class="cls-2" x1="-72.25" y1="25.2" x2="0.25" y2="25.2"/><line class="cls-2" x1="-72.25" y1="10.8" x2="0.25" y2="10.8"/><line class="cls-2" x1="-72.25" y1="61.2" x2="0.25" y2="61.2"/><line class="cls-2" x1="-72.25" y1="46.8" x2="0.25" y2="46.8"/><line class="cls-2" x1="-72.25" y1="32.4" x2="0.25" y2="32.4"/><line class="cls-2" x1="-72.25" y1="18" x2="0.25" y2="18"/><line class="cls-2" x1="-72.25" y1="3.6" x2="0.25" y2="3.6"/></pattern><pattern id="_10_lpi_30_3-3" data-name="10 lpi 30% 3" width="72" height="72" patternTransform="translate(-41.45 -23.8) rotate(7.42) scale(0.88)" patternUnits="userSpaceOnUse" viewBox="0 0 72 72"><rect class="cls-1" width="72" height="72"/><line class="cls-2" x1="71.75" y1="68.4" x2="144.25" y2="68.4"/><line class="cls-2" x1="71.75" y1="54" x2="144.25" y2="54"/><line class="cls-2" x1="71.75" y1="39.6" x2="144.25" y2="39.6"/><line class="cls-2" x1="71.75" y1="25.2" x2="144.25" y2="25.2"/><line class="cls-2" x1="71.75" y1="10.8" x2="144.25" y2="10.8"/><line class="cls-2" x1="71.75" y1="61.2" x2="144.25" y2="61.2"/><line class="cls-2" x1="71.75" y1="46.8" x2="144.25" y2="46.8"/><line class="cls-2" x1="71.75" y1="32.4" x2="144.25" y2="32.4"/><line class="cls-2" x1="71.75" y1="18" x2="144.25" y2="18"/><line class="cls-2" x1="71.75" y1="3.6" x2="144.25" y2="3.6"/><line class="cls-2" x1="-0.25" y1="68.4" x2="72.25" y2="68.4"/><line class="cls-2" x1="-0.25" y1="54" x2="72.25" y2="54"/><line class="cls-2" x1="-0.25" y1="39.6" x2="72.25" y2="39.6"/><line class="cls-2" x1="-0.25" y1="25.2" x2="72.25" y2="25.2"/><line class="cls-2" x1="-0.25" y1="10.8" x2="72.25" y2="10.8"/><line class="cls-2" x1="-0.25" y1="61.2" x2="72.25" y2="61.2"/><line class="cls-2" x1="-0.25" y1="46.8" x2="72.25" y2="46.8"/><line class="cls-2" x1="-0.25" y1="32.4" x2="72.25" y2="32.4"/><line class="cls-2" x1="-0.25" y1="18" x2="72.25" y2="18"/><line class="cls-2" x1="-0.25" y1="3.6" x2="72.25" y2="3.6"/><line class="cls-2" x1="-72.25" y1="68.4" x2="0.25" y2="68.4"/><line class="cls-2" x1="-72.25" y1="54" x2="0.25" y2="54"/><line class="cls-2" x1="-72.25" y1="39.6" x2="0.25" y2="39.6"/><line class="cls-2" x1="-72.25" y1="25.2" x2="0.25" y2="25.2"/><line class="cls-2" x1="-72.25" y1="10.8" x2="0.25" y2="10.8"/><line class="cls-2" x1="-72.25" y1="61.2" x2="0.25" y2="61.2"/><line class="cls-2" x1="-72.25" y1="46.8" x2="0.25" y2="46.8"/><line class="cls-2" x1="-72.25" y1="32.4" x2="0.25" y2="32.4"/><line class="cls-2" x1="-72.25" y1="18" x2="0.25" y2="18"/><line class="cls-2" x1="-72.25" y1="3.6" x2="0.25" y2="3.6"/></pattern><pattern id="麻布_3" data-name="麻布 3" width="72" height="72" patternTransform="matrix(-0.5, 0.85, 0.85, 0.5, 172.14, 128.77)" patternUnits="userSpaceOnUse" viewBox="0 0 72 72"><rect class="cls-1" width="72" height="72"/><line class="cls-19" x1="70.33" y1="72.17" x2="85" y2="72.17"/><line class="cls-19" x1="-1.67" y1="72.17" x2="13" y2="72.17"/><line class="cls-19" x1="68.5" y1="7" x2="83.16" y2="7"/><line class="cls-19" x1="66.83" y1="13.67" x2="81.5" y2="13.67"/><line class="cls-19" x1="70.33" y1="0.17" x2="85" y2="0.17"/><line class="cls-19" x1="71.33" y1="31" x2="86" y2="31"/><line class="cls-19" x1="75.83" y1="2.83" x2="61.16" y2="2.83"/><line class="cls-19" x1="79.33" y1="8.33" x2="64.66" y2="8.33"/><line class="cls-19" x1="61.5" y1="16.51" x2="76.16" y2="16.51"/><line class="cls-19" x1="65.16" y1="65.51" x2="79.83" y2="65.51"/><line class="cls-19" x1="61.5" y1="70.18" x2="76.16" y2="70.18"/><line class="cls-19" x1="66.83" y1="68.18" x2="81.5" y2="68.18"/><line class="cls-19" x1="62.16" y1="63.18" x2="76.83" y2="63.18"/><line class="cls-19" x1="66.83" y1="54.51" x2="81.5" y2="54.51"/><line class="cls-19" x1="63.5" y1="58.84" x2="78.16" y2="58.84"/><line class="cls-19" x1="77" y1="23.33" x2="62.33" y2="23.33"/><line class="cls-19" x1="77.5" y1="26.83" x2="62.83" y2="26.83"/><line class="cls-19" x1="80.5" y1="28.83" x2="65.83" y2="28.83"/><line class="cls-19" x1="66.16" y1="18.67" x2="80.83" y2="18.67"/><line class="cls-19" x1="76.66" y1="32.84" x2="62" y2="32.84"/><line class="cls-19" x1="80.66" y1="34.84" x2="66" y2="34.84"/><line class="cls-19" x1="75" y1="37.17" x2="60.33" y2="37.17"/><line class="cls-19" x1="63.16" y1="51.51" x2="77.83" y2="51.51"/><line class="cls-19" x1="65.16" y1="47.17" x2="79.83" y2="47.17"/><line class="cls-19" x1="65.16" y1="41.84" x2="79.83" y2="41.84"/><line class="cls-19" x1="67.83" y1="44.51" x2="82.5" y2="44.51"/><line class="cls-19" x1="69.83" y1="39.51" x2="84.5" y2="39.51"/><line class="cls-19" x1="9.67" y1="5.67" x2="9.67" y2="20.33"/><line class="cls-19" x1="12.17" y1="8.67" x2="12.17" y2="23.34"/><line class="cls-19" x1="8.5" y1="18.33" x2="8.5" y2="33"/><line class="cls-19" x1="15.83" y1="18.67" x2="15.83" y2="33.34"/><line class="cls-19" x1="6.17" y1="11.67" x2="6.17" y2="26.34"/><line class="cls-19" x1="18.17" y1="8.67" x2="18.17" y2="23.34"/><line class="cls-19" x1="23.67" y1="8.67" x2="23.67" y2="23.34"/><line class="cls-19" x1="25" y1="12.33" x2="25" y2="27"/><line class="cls-19" x1="21.17" y1="3.17" x2="21.17" y2="17.83"/><line class="cls-19" x1="14.67" y1="5.17" x2="14.67" y2="19.83"/><line class="cls-19" x1="1.17" y1="11" x2="15.83" y2="11"/><line class="cls-19" x1="-3.5" y1="7" x2="11.17" y2="7"/><line class="cls-19" x1="-5.17" y1="13.67" x2="9.5" y2="13.67"/><line class="cls-19" x1="13.17" y1="7.33" x2="27.83" y2="7.33"/><line class="cls-19" x1="8" y1="9.17" x2="22.67" y2="9.17"/><line class="cls-19" x1="11.67" y1="17.34" x2="26.33" y2="17.34"/><line class="cls-19" x1="5" y1="14.83" x2="19.67" y2="14.83"/><line class="cls-19" x1="38.5" y1="10" x2="38.5" y2="24.67"/><line class="cls-19" x1="36" y1="13" x2="36" y2="27.67"/><line class="cls-19" x1="42" y1="16" x2="42" y2="30.67"/><line class="cls-19" x1="43.33" y1="23.34" x2="43.33" y2="38"/><line class="cls-19" x1="44.67" y1="16" x2="44.67" y2="30.67"/><line class="cls-19" x1="30" y1="13" x2="30" y2="27.67"/><line class="cls-19" x1="19.83" y1="16.33" x2="19.83" y2="31"/><line class="cls-19" x1="28.33" y1="6.5" x2="28.33" y2="21.17"/><line class="cls-19" x1="26.67" y1="3.17" x2="26.67" y2="17.83"/><line class="cls-19" x1="33.5" y1="8.17" x2="33.5" y2="22.84"/><line class="cls-19" x1="42" y1="14.67" x2="27.33" y2="14.67"/><line class="cls-19" x1="33.67" y1="12.67" x2="19" y2="12.67"/><line class="cls-19" x1="42.5" y1="18.17" x2="27.83" y2="18.17"/><line class="cls-19" x1="36.83" y1="22.01" x2="22.17" y2="22.01"/><line class="cls-19" x1="45.5" y1="20.17" x2="30.83" y2="20.17"/><line class="cls-19" x1="70.84" y1="1.17" x2="70.84" y2="15.83"/><line class="cls-19" x1="66.17" y1="1.17" x2="66.17" y2="15.83"/><line class="cls-19" x1="58.33" y1="1.17" x2="58.33" y2="15.83"/><line class="cls-19" x1="75.83" y1="2.83" x2="61.17" y2="2.83"/><line class="cls-19" x1="74.33" y1="5.33" x2="59.67" y2="5.33"/><line class="cls-19" x1="70.33" y1="9.84" x2="55.67" y2="9.84"/><line class="cls-19" x1="62.33" y1="8.51" x2="47.67" y2="8.51"/><line class="cls-19" x1="79.33" y1="8.33" x2="64.67" y2="8.33"/><line class="cls-19" x1="41.5" y1="2.5" x2="41.5" y2="17.17"/><line class="cls-19" x1="46" y1="5.5" x2="46" y2="20.17"/><line class="cls-19" x1="40" y1="8.5" x2="40" y2="23.17"/><line class="cls-19" x1="52.67" y1="4.84" x2="52.67" y2="19.5"/><line class="cls-19" x1="62.17" y1="8.83" x2="62.17" y2="23.5"/><line class="cls-19" x1="55" x2="55" y2="14.67"/><line class="cls-19" x1="50.16" y1="1" x2="50.16" y2="15.67"/><line class="cls-19" x1="39.83" y1="2.33" x2="54.5" y2="2.33"/><line class="cls-19" x1="47" y1="4.17" x2="61.67" y2="4.17"/><line class="cls-19" x1="38.67" y1="5.83" x2="53.33" y2="5.83"/><line class="cls-19" x1="39.5" y1="10.67" x2="54.17" y2="10.67"/><line class="cls-19" x1="45.17" y1="15.51" x2="59.83" y2="15.51"/><line class="cls-19" x1="48.83" y1="13.51" x2="63.5" y2="13.51"/><line class="cls-19" x1="36.5" y1="12.67" x2="51.17" y2="12.67"/><line class="cls-19" x1="31.5" y1="1.67" x2="31.5" y2="16.33"/><line class="cls-19" x1="29.83" y1="1" x2="29.83" y2="15.67"/><line class="cls-19" x1="23.83" y1="1.67" x2="23.83" y2="16.33"/><line class="cls-19" x1="2" y1="38.34" x2="2" y2="53"/><line class="cls-19" x1="1.5" y1="21.84" x2="1.5" y2="36.5"/><line class="cls-19" x1="2.67" y1="9.83" x2="2.67" y2="24.5"/><line class="cls-19" x1="0.67" y1="7.33" x2="0.67" y2="22"/><line class="cls-19" x1="-1.67" y1="0.17" x2="13" y2="0.17"/><line class="cls-19" x1="6.67" y1="1.83" x2="21.33" y2="1.83"/><line class="cls-19" x1="1.17" y1="4.33" x2="15.83" y2="4.33"/><line class="cls-19" x1="23.17" y1="5" x2="37.83" y2="5"/><line class="cls-19" x1="18.17" y1="3.67" x2="32.83" y2="3.67"/><line class="cls-19" x1="20.17" y1="1" x2="34.83" y2="1"/><line class="cls-19" x1="25.5" y1="9.33" x2="40.17" y2="9.33"/><line class="cls-19" x1="41.67" y1="24.17" x2="27" y2="24.17"/><line class="cls-19" x1="45.67" y1="26.17" x2="31" y2="26.17"/><line class="cls-19" x1="40" y1="28.51" x2="25.33" y2="28.51"/><line class="cls-19" x1="18.17" y1="34.34" x2="18.17" y2="49"/><line class="cls-19" x1="21.67" y1="40.34" x2="21.67" y2="55"/><line class="cls-19" x1="16" y1="36.67" x2="1.33" y2="36.67"/><line class="cls-19" x1="27" y1="40.67" x2="12.33" y2="40.67"/><line class="cls-19" x1="22.17" y1="42.5" x2="7.5" y2="42.5"/><line class="cls-19" x1="25.17" y1="44.5" x2="10.5" y2="44.5"/><line class="cls-19" x1="38" y1="25.5" x2="38" y2="40.17"/><line class="cls-19" x1="39.33" y1="31.34" x2="39.33" y2="46"/><line class="cls-19" x1="23.17" y1="26.84" x2="23.17" y2="41.5"/><line class="cls-19" x1="26.33" y1="21.5" x2="26.33" y2="36.17"/><line class="cls-19" x1="31.67" y1="29.84" x2="31.67" y2="44.5"/><line class="cls-19" x1="34.67" y1="24.34" x2="34.67" y2="39"/><line class="cls-19" x1="33" y1="24" x2="33" y2="38.67"/><line class="cls-19" x1="28.17" y1="26.34" x2="28.17" y2="41"/><line class="cls-19" x1="24.83" y1="39.84" x2="39.5" y2="39.84"/><line class="cls-19" x1="27.5" y1="41.17" x2="42.17" y2="41.17"/><line class="cls-19" x1="30.17" y1="38.51" x2="44.83" y2="38.51"/><line class="cls-19" x1="30.17" y1="33.17" x2="44.83" y2="33.17"/><line class="cls-19" x1="32.83" y1="35.84" x2="47.5" y2="35.84"/><line class="cls-19" x1="46.16" y1="33.17" x2="60.83" y2="33.17"/><line class="cls-19" x1="34.83" y1="30.84" x2="49.5" y2="30.84"/><line class="cls-19" x1="61.5" y1="16.51" x2="76.16" y2="16.51"/><line class="cls-19" x1="45.5" y1="23.51" x2="60.16" y2="23.51"/><line class="cls-19" x1="43.5" y1="21.17" x2="58.16" y2="21.17"/><line class="cls-19" x1="16.17" y1="37" x2="30.83" y2="37"/><line class="cls-19" x1="16.5" y1="35" x2="31.17" y2="35"/><line class="cls-19" x1="30.33" y1="45.84" x2="15.67" y2="45.84"/><line class="cls-19" x1="22" y1="20.84" x2="22" y2="35.5"/><line class="cls-19" x1="19.83" y1="17.33" x2="19.83" y2="32"/><line class="cls-19" x1="10.83" y1="26" x2="25.5" y2="26"/><line class="cls-19" x1="3.83" y1="24.67" x2="18.5" y2="24.67"/><line class="cls-19" x1="5.5" y1="22.67" x2="20.17" y2="22.67"/><line class="cls-19" x1="4.17" y1="20" x2="18.83" y2="20"/><line class="cls-19" x1="13.5" y1="20" x2="28.17" y2="20"/><line class="cls-19" x1="7" y1="43.67" x2="7" y2="58.34"/><line class="cls-19" x1="9.5" y1="46.67" x2="9.5" y2="61.34"/><line class="cls-19" x1="5.83" y1="56.34" x2="5.83" y2="71"/><line class="cls-19" x1="2.83" y1="54" x2="2.83" y2="68.67"/><line class="cls-19" x1="13.17" y1="56.67" x2="13.17" y2="71.34"/><line class="cls-19" x1="15.5" y1="46.67" x2="15.5" y2="61.34"/><line class="cls-19" x1="25" y1="38.33" x2="25" y2="53"/><line class="cls-19" x1="58.5" y1="60" x2="58.5" y2="74.67"/><line class="cls-19" x1="61.33" y1="47.34" x2="61.33" y2="62"/><line class="cls-19" x1="58" y1="64" x2="43.33" y2="64"/><line class="cls-19" x1="62.5" y1="68.17" x2="47.83" y2="68.17"/><line class="cls-19" x1="59.83" y1="70.17" x2="45.17" y2="70.17"/><line class="cls-19" x1="63.83" y1="66.5" x2="49.17" y2="66.5"/><line class="cls-19" x1="63.5" y1="52.5" x2="63.5" y2="67.17"/><line class="cls-19" x1="60" y1="58.5" x2="60" y2="73.17"/><line class="cls-19" x1="48.66" y1="47.84" x2="48.66" y2="62.5"/><line class="cls-19" x1="47" y1="50.5" x2="47" y2="65.17"/><line class="cls-19" x1="45" y1="56.34" x2="45" y2="71"/><line class="cls-19" x1="67.16" y1="54.33" x2="67.16" y2="69"/><line class="cls-19" x1="68.83" y1="48.33" x2="68.83" y2="63"/><line class="cls-19" x1="71.16" y1="46" x2="71.16" y2="60.67"/><line class="cls-19" x1="65.16" y1="65.51" x2="79.83" y2="65.51"/><line class="cls-19" x1="61.5" y1="70.18" x2="76.16" y2="70.18"/><line class="cls-19" x1="66.83" y1="68.18" x2="81.5" y2="68.18"/><line class="cls-19" x1="62.16" y1="63.18" x2="76.83" y2="63.18"/><line class="cls-19" x1="59.16" y1="56.51" x2="73.83" y2="56.51"/><line class="cls-19" x1="66.83" y1="54.51" x2="81.5" y2="54.51"/><line class="cls-19" x1="63.5" y1="58.84" x2="78.16" y2="58.84"/><line class="cls-19" x1="65.33" y1="64" x2="65.33" y2="78.67"/><line class="cls-19" x1="69.67" y1="61.33" x2="69.67" y2="76"/><line class="cls-19" x1="3.5" y1="48.34" x2="18.17" y2="48.34"/><line class="cls-19" x1="8.17" y1="67.67" x2="22.83" y2="67.67"/><line class="cls-19" x1="5" y1="50.84" x2="19.67" y2="50.84"/><line class="cls-19" x1="9" y1="55.34" x2="23.67" y2="55.34"/><line class="cls-19" x1="20" y1="52.34" x2="34.67" y2="52.34"/><line class="cls-19" x1="0.83" y1="52.5" x2="15.5" y2="52.5"/><line class="cls-19" x1="17.67" y1="52" x2="17.67" y2="66.67"/><line class="cls-19" x1="32.33" y1="49.67" x2="17.67" y2="49.67"/><line class="cls-19" x1="34.17" y1="60.01" x2="19.5" y2="60.01"/><line class="cls-19" x1="35.83" y1="61.68" x2="21.17" y2="61.68"/><line class="cls-19" x1="34.34" y1="56.68" x2="19.67" y2="56.68"/><line class="cls-19" x1="39" y1="54.01" x2="24.33" y2="54.01"/><line class="cls-19" x1="19.33" y1="58.84" x2="19.33" y2="73.5"/><line class="cls-19" x1="12.5" y1="38" x2="12.5" y2="52.67"/><line class="cls-19" x1="10.83" y1="32.67" x2="10.83" y2="47.34"/><line class="cls-19" x1="13.83" y1="29.67" x2="13.83" y2="44.34"/><line class="cls-19" x1="8.5" y1="31.34" x2="8.5" y2="46"/><line class="cls-19" x1="4.83" y1="32.34" x2="4.83" y2="47"/><line class="cls-19" x1="6.83" y1="27.67" x2="6.83" y2="42.34"/><line class="cls-19" x1="8.17" y1="64" x2="22.83" y2="64"/><line class="cls-19" x1="1" y1="62.34" x2="15.67" y2="62.34"/><line class="cls-19" x1="2.83" y1="60.67" x2="17.5" y2="60.67"/><line class="cls-19" x1="29.5" y1="50" x2="29.5" y2="64.67"/><line class="cls-19" x1="26.49" y1="43" x2="26.49" y2="57.67"/><line class="cls-19" x1="25.83" y1="59.67" x2="25.83" y2="74.34"/><line class="cls-19" x1="33.17" y1="60" x2="33.17" y2="74.67"/><line class="cls-19" x1="23.5" y1="53" x2="23.5" y2="67.67"/><line class="cls-19" x1="35.5" y1="50" x2="35.5" y2="64.67"/><line class="cls-19" x1="31" y1="58.84" x2="31" y2="73.5"/><line class="cls-19" x1="28" y1="54.84" x2="28" y2="69.5"/><line class="cls-19" x1="28.17" y1="71" x2="42.83" y2="71"/><line class="cls-19" x1="30.17" y1="68.67" x2="44.83" y2="68.67"/><line class="cls-19" x1="37.17" y1="57.67" x2="37.17" y2="72.34"/><line class="cls-19" x1="32.5" y1="45.34" x2="32.5" y2="60"/><line class="cls-19" x1="55" y1="57.67" x2="55" y2="72.34"/><line class="cls-19" x1="48" y1="65.67" x2="48" y2="80.34"/><line class="cls-19" x1="34.17" y1="40.67" x2="34.17" y2="55.34"/><line class="cls-19" x1="28.17" y1="67.34" x2="42.83" y2="67.34"/><line class="cls-19" x1="21.17" y1="66" x2="35.83" y2="66"/><line class="cls-19" x1="13.17" y1="69.34" x2="27.83" y2="69.34"/><line class="cls-19" x1="7.83" y1="70.67" x2="22.5" y2="70.67"/><line class="cls-19" x1="22.83" y1="64" x2="37.5" y2="64"/><line class="cls-19" x1="1.5" y1="58" x2="16.17" y2="58"/><line class="cls-19" x1="10.83" y1="58" x2="25.5" y2="58"/><line class="cls-19" x1="16.5" y1="30.84" x2="31.17" y2="30.84"/><line class="cls-19" x1="7.83" y1="28" x2="22.5" y2="28"/><line class="cls-19" x1="6.67" y1="33.34" x2="21.33" y2="33.34"/><line class="cls-19" x1="-0.67" y1="31" x2="14" y2="31"/><line class="cls-19" x1="47.17" y1="17.33" x2="47.17" y2="32"/><line class="cls-19" x1="50.83" y1="27.34" x2="50.83" y2="42"/><line class="cls-19" x1="52.82" y1="20" x2="52.82" y2="34.67"/><line class="cls-19" x1="58.67" y1="17.33" x2="58.67" y2="32"/><line class="cls-19" x1="60" y1="21" x2="60" y2="35.67"/><line class="cls-19" x1="56.17" y1="11.83" x2="56.17" y2="26.5"/><line class="cls-19" x1="48.67" y1="13.83" x2="48.67" y2="28.5"/><line class="cls-19" x1="46.67" y1="26.01" x2="61.33" y2="26.01"/><line class="cls-19" x1="40.33" y1="48.34" x2="40.33" y2="63"/><line class="cls-19" x1="41.67" y1="55.67" x2="41.67" y2="70.34"/><line class="cls-19" x1="38.34" y1="45.34" x2="38.34" y2="60"/><line class="cls-19" x1="43" y1="48.34" x2="43" y2="63"/><line class="cls-19" x1="65" y1="21.67" x2="65" y2="36.34"/><line class="cls-19" x1="54.83" y1="25" x2="54.83" y2="39.67"/><line class="cls-19" x1="63.33" y1="15.17" x2="63.33" y2="29.84"/><line class="cls-19" x1="67" y1="10.5" x2="67" y2="25.17"/><line class="cls-19" x1="68.51" y1="12.67" x2="68.51" y2="27.33"/><line class="cls-19" x1="70.5" y1="17.5" x2="70.5" y2="32.17"/><line class="cls-19" x1="77" y1="23.33" x2="62.33" y2="23.33"/><line class="cls-19" x1="70" y1="20.33" x2="55.33" y2="20.33"/><line class="cls-19" x1="64.33" y1="18" x2="49.67" y2="18"/><line class="cls-19" x1="68.67" y1="11.67" x2="54" y2="11.67"/><line class="cls-19" x1="77.5" y1="26.83" x2="62.83" y2="26.83"/><line class="cls-19" x1="71.83" y1="30.67" x2="57.17" y2="30.67"/><line class="cls-19" x1="80.5" y1="28.83" x2="65.83" y2="28.83"/><line class="cls-19" x1="41.83" y1="34.84" x2="41.83" y2="49.5"/><line class="cls-19" x1="44.33" y1="37.84" x2="44.33" y2="52.5"/><line class="cls-19" x1="59.67" y1="40.84" x2="59.67" y2="55.5"/><line class="cls-19" x1="46.83" y1="34.34" x2="46.83" y2="49"/><line class="cls-19" x1="37.83" y1="43" x2="52.5" y2="43"/><line class="cls-19" x1="43.5" y1="47.84" x2="58.17" y2="47.84"/><line class="cls-19" x1="66.17" y1="18.67" x2="80.83" y2="18.67"/><line class="cls-19" x1="76.67" y1="32.84" x2="62" y2="32.84"/><line class="cls-19" x1="80.67" y1="34.84" x2="66" y2="34.84"/><line class="cls-19" x1="75" y1="37.17" x2="60.33" y2="37.17"/><line class="cls-19" x1="53.17" y1="43" x2="53.17" y2="57.67"/><line class="cls-19" x1="56.67" y1="49" x2="56.67" y2="63.67"/><line class="cls-19" x1="52.67" y1="56.67" x2="52.67" y2="71.33"/><line class="cls-19" x1="50.33" y1="54.34" x2="50.33" y2="69"/><line class="cls-19" x1="60.17" y1="53.17" x2="45.5" y2="53.17"/><line class="cls-19" x1="52.17" y1="50.5" x2="37.5" y2="50.5"/><line class="cls-19" x1="41.83" y1="47.5" x2="27.17" y2="47.5"/><line class="cls-19" x1="52" y1="31.84" x2="52" y2="46.5"/><line class="cls-19" x1="39" y1="63.67" x2="39" y2="78.34"/><line class="cls-19" x1="65" y1="46.84" x2="65" y2="61.5"/><line class="cls-19" x1="58.16" y1="35.5" x2="58.16" y2="50.17"/><line class="cls-19" x1="61.33" y1="30.17" x2="61.33" y2="44.83"/><line class="cls-19" x1="54.66" y1="41.5" x2="54.66" y2="56.17"/><line class="cls-19" x1="66.66" y1="38.5" x2="66.66" y2="53.17"/><line class="cls-19" x1="69.66" y1="33" x2="69.66" y2="47.67"/><line class="cls-19" x1="68" y1="32.67" x2="68" y2="47.34"/><line class="cls-19" x1="63.16" y1="35" x2="63.16" y2="49.67"/><line class="cls-19" x1="59.83" y1="48.51" x2="74.5" y2="48.51"/><line class="cls-19" x1="63.17" y1="51.51" x2="77.83" y2="51.51"/><line class="cls-19" x1="65.16" y1="47.17" x2="79.83" y2="47.17"/><line class="cls-19" x1="65.16" y1="41.84" x2="79.83" y2="41.84"/><line class="cls-19" x1="67.83" y1="44.51" x2="82.5" y2="44.51"/><line class="cls-19" x1="69.83" y1="39.51" x2="84.5" y2="39.51"/><line class="cls-19" x1="38.17" y1="61.84" x2="52.83" y2="61.84"/><line class="cls-19" x1="42.5" y1="59.18" x2="57.16" y2="59.18"/><line class="cls-19" x1="41.83" y1="54.51" x2="56.5" y2="54.51"/><line class="cls-19" x1="26.17" y1="44.51" x2="40.83" y2="44.51"/><line class="cls-19" x1="51.16" y1="45.67" x2="65.83" y2="45.67"/><line class="cls-19" x1="51.5" y1="43.67" x2="66.16" y2="43.67"/><line class="cls-19" x1="57" y1="29.5" x2="57" y2="44.17"/><line class="cls-19" x1="54.83" y1="26" x2="54.83" y2="40.67"/><line class="cls-19" x1="48.5" y1="31.67" x2="48.5" y2="46.34"/><line class="cls-19" x1="45.83" y1="37.34" x2="60.5" y2="37.34"/><line class="cls-19" x1="48.5" y1="28.67" x2="63.17" y2="28.67"/><line class="cls-19" x1="51.5" y1="39.51" x2="66.17" y2="39.51"/><line class="cls-19" x1="68.5" y1="7" x2="83.17" y2="7"/><line class="cls-19" x1="66.83" y1="13.67" x2="81.5" y2="13.67"/><line class="cls-19" x1="3.83" y1="2.83" x2="-10.83" y2="2.83"/><line class="cls-19" x1="7.33" y1="8.33" x2="-7.33" y2="8.33"/><line class="cls-19" x1="-10.5" y1="16.51" x2="4.16" y2="16.51"/><line class="cls-19" x1="-6.83" y1="65.51" x2="7.83" y2="65.51"/><line class="cls-19" x1="-10.5" y1="70.18" x2="4.17" y2="70.18"/><line class="cls-19" x1="-5.17" y1="68.18" x2="9.5" y2="68.18"/><line class="cls-19" x1="-9.83" y1="63.18" x2="4.83" y2="63.18"/><line class="cls-19" x1="-5.17" y1="54.51" x2="9.5" y2="54.51"/><line class="cls-19" x1="-8.5" y1="58.84" x2="6.17" y2="58.84"/><line class="cls-19" x1="5" y1="23.33" x2="-9.67" y2="23.33"/><line class="cls-19" x1="5.5" y1="26.83" x2="-9.17" y2="26.83"/><line class="cls-19" x1="8.5" y1="28.83" x2="-6.17" y2="28.83"/><line class="cls-19" x1="-5.83" y1="18.67" x2="8.83" y2="18.67"/><line class="cls-19" x1="4.67" y1="32.84" x2="-10" y2="32.84"/><line class="cls-19" x1="8.67" y1="34.84" x2="-6" y2="34.84"/><line class="cls-19" x1="3" y1="37.17" x2="-11.67" y2="37.17"/><line class="cls-19" x1="-8.83" y1="51.51" x2="5.83" y2="51.51"/><line class="cls-19" x1="-6.83" y1="47.17" x2="7.83" y2="47.17"/><line class="cls-19" x1="-6.83" y1="41.84" x2="7.83" y2="41.84"/><line class="cls-19" x1="-4.17" y1="44.51" x2="10.5" y2="44.51"/><line class="cls-19" x1="-2.17" y1="39.51" x2="12.5" y2="39.51"/><line class="cls-19" x1="13" y1="64.84" x2="13" y2="79.5"/><line class="cls-19" x1="10.33" y1="62.5" x2="10.33" y2="77.17"/><line class="cls-19" x1="63.33" y1="68.34" x2="63.33" y2="83"/><line class="cls-19" x1="60.83" y1="67.67" x2="60.83" y2="82.34"/><line class="cls-19" x1="37.5" y1="68.34" x2="37.5" y2="83"/><line class="cls-19" x1="68.67" y1="68.34" x2="68.67" y2="83"/><line class="cls-19" x1="43.17" y1="66.5" x2="43.17" y2="81.17"/><line class="cls-19" x1="16.83" y1="67.67" x2="16.83" y2="82.34"/><line class="cls-19" x1="1.83" y1="67.5" x2="1.83" y2="82.17"/><line class="cls-19" x1="6.83" y1="65.5" x2="6.83" y2="80.17"/><line class="cls-19" x1="34.83" y1="68.34" x2="34.83" y2="83"/><line class="cls-19" x1="58.5" y1="60" x2="58.5" y2="74.67"/><line class="cls-19" x1="33.17" y1="60" x2="33.17" y2="74.67"/><line class="cls-19" x1="3.83" y1="2.83" x2="-10.83" y2="2.83"/><line class="cls-19" x1="2.33" y1="5.33" x2="-12.33" y2="5.33"/><line class="cls-19" x1="7.33" y1="8.33" x2="-7.33" y2="8.33"/><line class="cls-19" x1="-10.5" y1="16.51" x2="4.17" y2="16.51"/><line class="cls-19" x1="-6.83" y1="65.51" x2="7.83" y2="65.51"/><line class="cls-19" x1="-10.5" y1="70.18" x2="4.17" y2="70.18"/><line class="cls-19" x1="-5.17" y1="68.18" x2="9.5" y2="68.18"/><line class="cls-19" x1="-9.83" y1="63.18" x2="4.83" y2="63.18"/><line class="cls-19" x1="-12.83" y1="56.51" x2="1.83" y2="56.51"/><line class="cls-19" x1="-5.17" y1="54.51" x2="9.5" y2="54.51"/><line class="cls-19" x1="-8.5" y1="58.84" x2="6.17" y2="58.84"/><line class="cls-19" x1="5" y1="23.33" x2="-9.67" y2="23.33"/><line class="cls-19" x1="5.5" y1="26.83" x2="-9.17" y2="26.83"/><line class="cls-19" x1="8.5" y1="28.83" x2="-6.17" y2="28.83"/><line class="cls-19" x1="-5.83" y1="18.67" x2="8.83" y2="18.67"/><line class="cls-19" x1="4.67" y1="32.84" x2="-10" y2="32.84"/><line class="cls-19" x1="8.67" y1="34.84" x2="-6" y2="34.84"/><line class="cls-19" x1="3" y1="37.17" x2="-11.67" y2="37.17"/><line class="cls-19" x1="-12.17" y1="48.51" x2="2.5" y2="48.51"/><line class="cls-19" x1="-8.83" y1="51.51" x2="5.83" y2="51.51"/><line class="cls-19" x1="-6.83" y1="47.17" x2="7.83" y2="47.17"/><line class="cls-19" x1="-6.83" y1="41.84" x2="7.83" y2="41.84"/><line class="cls-19" x1="-4.17" y1="44.51" x2="10.5" y2="44.51"/><line class="cls-19" x1="-2.17" y1="39.51" x2="12.5" y2="39.51"/><line class="cls-19" x1="-3.5" y1="7" x2="11.17" y2="7"/><line class="cls-19" x1="-5.17" y1="13.67" x2="9.5" y2="13.67"/><line class="cls-19" x1="58.5" y1="-12" x2="58.5" y2="2.67"/><line class="cls-19" x1="60" y1="-13.5" x2="60" y2="1.17"/><line class="cls-19" x1="65.33" y1="-8" x2="65.33" y2="6.67"/><line class="cls-19" x1="69.67" y1="-10.67" x2="69.67" y2="4"/><line class="cls-19" x1="19.33" y1="-13.17" x2="19.33" y2="1.5"/><line class="cls-19" x1="25.83" y1="-12.33" x2="25.83" y2="2.33"/><line class="cls-19" x1="33.17" y1="-12" x2="33.17" y2="2.67"/><line class="cls-19" x1="31" y1="-13.17" x2="31" y2="1.5"/><line class="cls-19" x1="37.17" y1="-14.33" x2="37.17" y2="0.33"/><line class="cls-19" x1="55" y1="-14.33" x2="55" y2="0.33"/><line class="cls-19" x1="48" y1="-6.33" x2="48" y2="8.33"/><line class="cls-19" x1="39" y1="-8.33" x2="39" y2="6.33"/><line class="cls-19" x1="13" y1="-7.17" x2="13" y2="7.5"/><line class="cls-19" x1="10.33" y1="-9.5" x2="10.33" y2="5.17"/><line class="cls-19" x1="63.33" y1="-3.67" x2="63.33" y2="11"/><line class="cls-19" x1="60.83" y1="-4.33" x2="60.83" y2="10.33"/><line class="cls-19" x1="37.5" y1="-3.67" x2="37.5" y2="11"/><line class="cls-19" x1="68.67" y1="-3.67" x2="68.67" y2="11"/><line class="cls-19" x1="43.17" y1="-5.5" x2="43.17" y2="9.17"/><line class="cls-19" x1="16.83" y1="-4.33" x2="16.83" y2="10.33"/><line class="cls-19" x1="1.83" y1="-4.5" x2="1.83" y2="10.17"/><line class="cls-19" x1="6.83" y1="-6.5" x2="6.83" y2="8.17"/><line class="cls-19" x1="34.83" y1="-3.67" x2="34.83" y2="11"/><line class="cls-19" x1="58.5" y1="-12" x2="58.5" y2="2.67"/><line class="cls-19" x1="33.17" y1="-12" x2="33.17" y2="2.67"/></pattern></defs><title>コミュニケーション能力例</title><polygon class="cls-20" points="204.12 165.91 258.77 186 291.07 158.2 234.9 141.65 204.12 165.91"/><polygon class="cls-21" points="258.77 186 258.98 195.78 291.07 167.11 291.07 158.2 258.77 186"/><polygon class="cls-21" points="258.98 195.78 258.77 186 204.12 165.91 204.12 175.72 258.98 195.78"/><ellipse class="cls-22" cx="247.59" cy="162.17" rx="10.3" ry="23.47" transform="translate(54.07 386.1) rotate(-82.39)"/><polygon class="cls-23" points="234.9 141.65 204.12 165.91 204.12 175.72 258.98 195.78 291.07 167.11 291.07 158.2 234.9 141.65"/><path class="cls-24" d="M269,94.29c-.22-.51,0-1.54-.47-1.86-1.33-.84-1.65-2.43-2.49-1.11-.12.18-8.23,12.25-34.52,20a2.84,2.84,0,1,0,1.61,5.45c28.66-8.47,37.36-21.87,37.72-22.43C271.33,93.55,269.31,95.12,269,94.29Z"/><path class="cls-25" d="M265.77,99.26a38.22,38.22,0,0,1-9.62,9.91l-5.78-6.88,6.84-6.66"/><path class="cls-24" d="M262.18,126.76a2.84,2.84,0,0,1,5.63.79,29.1,29.1,0,0,0,3.78,17.22l-4.79,3.07A34.88,34.88,0,0,1,262.18,126.76Z"/><path class="cls-26" d="M277,155.05a2.86,2.86,0,0,1-1.6.89,2.8,2.8,0,0,1-2.42-.68,32.14,32.14,0,0,1-6.14-7.42l4.79-3.07a26.87,26.87,0,0,0,5.15,6.26A2.85,2.85,0,0,1,277,155.05Z"/><path class="cls-24" d="M274.6,120.42a2.85,2.85,0,0,1,2.5,3.16c-.42,3.64-.19,7.8.46,9.14a4.58,4.58,0,0,0,.9-.67l3.68,4.33c-1.89,1.62-4.14,2.65-6.5,1.85-5.19-1.76-4.66-11.29-4.19-15.31A2.84,2.84,0,0,1,274.6,120.42Z"/><path class="cls-26" d="M282.26,127.1a2.84,2.84,0,0,1,5,2.77,25.1,25.1,0,0,1-5.09,6.51l-3.68-4.33A21.36,21.36,0,0,0,282.26,127.1Z"/><path class="cls-27" d="M282.52,126.69a6.65,6.65,0,0,1,2.46-4.48l9.77,5.56s-1.5,2.78-4.08,2.94-3.08-1.39-3.08-1.39S286.37,125.25,282.52,126.69Z"/><path class="cls-27" d="M276.43,150.74c2.56.52,4,3.22,4,3.22l-7.19,8.63s-2.48-2-2.17-4.54,1.91-2.79,1.91-2.79S277.16,154.79,276.43,150.74Z"/><path class="cls-28" d="M276.78,120.21s1.82,7,4.19,10.94a54.93,54.93,0,0,1-19.15,3.29,47,47,0,0,1-2.33-12.59Z"/><path class="cls-25" d="M270.07,92.53,274.21,106a80.43,80.43,0,0,0,3.38,17.89c-6.48,1.24-17.9,1.36-17.9,1.36A172.47,172.47,0,0,1,258,100.55c.38-6.7,4.7-7.5,4.7-7.5Z"/><path class="cls-29" d="M266.9,127.06a26.91,26.91,0,0,0,1.33,7.18"/><path class="cls-24" d="M274.78,118.58a14,14,0,0,0,3-.93,5.86,5.86,0,0,0,3.49-4.19c1.15-5.46-5.3-13.07-7.3-15.28A2.85,2.85,0,0,0,269.8,102c3.82,4.21,6.45,9.2,5.93,10.32,0,0-.07,0-.21.12-4.4,1.94-10.06-.67-10.12-.7a2.84,2.84,0,0,0-2.45,5.13C263.23,117,268.89,119.67,274.78,118.58Z"/><path class="cls-25" d="M268.61,93.51a30.22,30.22,0,0,1,10.5,9.69A25,25,0,0,1,271,108l-3.93-5.9"/><ellipse class="cls-24" cx="262.05" cy="96.09" rx="4.6" ry="1.46" transform="translate(142.64 348.38) rotate(-84.81)"/><path class="cls-24" d="M250.81,96.32c4.7,1.39,8.88.89,14.36-1s10.44-4.38,12.65-8.58c1.75-3.34,1.48-8,0-12.33a18.69,18.69,0,0,0-23.69-11.74c-9.28,3.14-13.22,12.52-10.78,21.83.13.5.58,3-.65,3.17a5.49,5.49,0,0,0-1.56.54,2.37,2.37,0,0,0,1.92,4.31,2.38,2.38,0,0,0,1.28-1s.93,1.72.16,2.92c1.25.73,5.36,0,10.5-2.43C254.13,94,250.81,96.32,250.81,96.32Z"/><path class="cls-27" d="M254.22,62.91A16.84,16.84,0,0,0,242.35,79.6a22.4,22.4,0,0,0,.91,4.39,25.07,25.07,0,0,0,11.3-6.3A18.76,18.76,0,0,1,252,81.44c3.88-2,6.09-4.55,8.56-8.42,3.52,4.76,4.87,5.33,7.78,6.29A2.69,2.69,0,0,1,270,78.22c1.62-.29,3.23,1.09,3.59,3.09A3.64,3.64,0,0,1,272,85.2a20.75,20.75,0,0,1,1.83,6.22,13,13,0,0,0,4-4.43c1.76-3.35,1.49-8,0-12.34A18.69,18.69,0,0,0,254.22,62.91Z"/><ellipse class="cls-30" cx="255.65" cy="83.57" rx="1.6" ry="0.93" transform="translate(-1.58 4.99) rotate(-1.12)"/><path class="cls-27" d="M268.23,66c-1.14-4.11,2.58-9.65,12.16-6.25,5.47,1.94,6.69,6.36,9.22,7.5,1.81.81,6,3.12,8.8,1.09-2.92,4.44-7.27,5.41-12.05,5C279.88,72.92,269.37,70.15,268.23,66Z"/><ellipse class="cls-31" cx="258.01" cy="158.27" rx="6.4" ry="2.8" transform="translate(-44.51 148.16) rotate(-29.61)"/><ellipse class="cls-31" cx="238.15" cy="154.01" rx="6.4" ry="2.8" transform="translate(-45 137.79) rotate(-29.61)"/><path class="cls-32" d="M250.61,129c-.47,8.53,3,20.35,5.88,26.4,2.44,2.09,7.72,2.33,8.84,1.44-1.78-4.36-6.08-23.06-3.07-36.9-5.5.91-17.39-2.66-17.39-2.66s-9.47,23.2-8.76,33.58c2.95,3,4.27,3.22,7.31,2.14C246.27,137.61,246.57,134.57,250.61,129Z"/><line class="cls-23" x1="250.61" y1="128.96" x2="250.66" y2="125.95"/><path class="cls-33" d="M251.38,83.17a5,5,0,0,0-1.79.48A3.78,3.78,0,0,0,248,82.48a3.83,3.83,0,0,0-5,2.16s-1.73,3.93-7.78,7.69a43.74,43.74,0,0,1-8.81,3.83,3.85,3.85,0,0,0,1.85,7.46l.36-.09a51.82,51.82,0,0,0,10.66-4.67,37.79,37.79,0,0,0,4.16-3c-1.21,7.17-.92,15.81.62,21.53,4.5,3.87,11.23,4.19,18.79,2.78C263.65,105.8,259.89,82.64,251.38,83.17Z"/><path class="cls-33" d="M243.49,95.86a10.16,10.16,0,0,1,1.28-4.56"/><path class="cls-34" d="M259.82,105.78c-6.22,1.25-14.61-.84-17.65-1.71a3.07,3.07,0,0,1,1.68-5.91c6.53,1.85,15,2.62,16.83.76a3.08,3.08,0,1,1,4.43,4.27A9.84,9.84,0,0,1,259.82,105.78Z"/><path class="cls-33" d="M255.05,83.91a18.5,18.5,0,0,1,9,5.93c3.45,4.49,5.37,8.23,2.5,12.49a10.94,10.94,0,0,1-7,4.1c-4.33.82-9.92.16-14.93-1.13a9.87,9.87,0,0,1,1.85-7s12.12,2.8,14,.2S255.66,91,255.66,91"/><path class="cls-35" d="M234.19,71.65s-1.62,4.21-4.45,4.78a14.77,14.77,0,0,0,9.58,6.25Z"/><path class="cls-34" d="M267.85,75.11a17.06,17.06,0,0,0,.49-8.62c-.62-3.09-1.29-6.47-3.34-8.84-3.76-4.36-10.29-6.46-16.53-5.21-2.21.44-5.8,1.48-7.58,2.71-6,4.13-7.63,11.84-6.28,18.61.52,2.61,1.17,5.13,2.82,7.06,3.92,4.58,11,6.73,17.8,5.38a16.55,16.55,0,0,0,9.89-6"/><path class="cls-35" d="M247.49,65.21a16.94,16.94,0,0,1-14.13,2.28s.84-9.53,9-13.87A20.2,20.2,0,0,1,259,52.45c5.47,2,12.08,9.16,11.65,16.2s-.51,9.2-.49,12.24a9.2,9.2,0,0,0,1.5,5,33.12,33.12,0,0,1-15.18-.43,16,16,0,0,0,11.4-10.38S248.94,73,247.49,65.21Z"/><path class="cls-34" d="M243.35,79.78a2.21,2.21,0,1,1-.87-4.34,2.17,2.17,0,0,1,1.66.33"/><path class="cls-23" d="M239.76,73.15s.53-1.81-1.07-2.22a1.85,1.85,0,0,0-2.15,1.3"/><path class="cls-23" d="M257.36,77.35s.52-1.81-1.08-2.21a1.84,1.84,0,0,0-2.15,1.29"/><path class="cls-36" d="M242.74,81.18a17.68,17.68,0,0,0,7.67,1.11c-.86,1.78-2.43,3-4.43,2.68S242.74,81.18,242.74,81.18Z"/><path class="cls-34" d="M264.44,80.37a2.84,2.84,0,0,0,2,.32,2.92,2.92,0,0,0,2.29-3.43,2.88,2.88,0,0,0-1.55-2"/><ellipse class="cls-34" cx="224.94" cy="100.18" rx="3.28" ry="4.28" transform="translate(90.06 306.19) rotate(-80.79)"/><path class="cls-24" d="M237.19,124.69a3.15,3.15,0,0,1-1.81-.59l-6.14-4.5a3.07,3.07,0,1,1,3.63-4.95l6.14,4.49a3.07,3.07,0,0,1-1.82,5.55Z"/><path class="cls-24" d="M224.75,151.22c1.8-13.77-.67-20.08-.8-20.39a3.07,3.07,0,1,0-5.68,2.32c0,.06,2,5.35.39,17.3A7.36,7.36,0,0,0,224.75,151.22Z"/><path class="cls-24" d="M233.61,150.46a69,69,0,0,0-1-19.13,3.07,3.07,0,0,0-6,1.32,64.54,64.54,0,0,1,.89,17.38A11.28,11.28,0,0,0,233.61,150.46Z"/><path class="cls-37" d="M219.74,161.47a3.55,3.55,0,0,0,.64.06,3.07,3.07,0,0,0,3-2.43c.61-2.86,1.05-5.48,1.37-7.88a7.36,7.36,0,0,1-6.09-.77c-.3,2.23-.71,4.68-1.28,7.37A3.07,3.07,0,0,0,219.74,161.47Z"/><path class="cls-37" d="M228.76,160.14a3.42,3.42,0,0,0,.7.08,3.07,3.07,0,0,0,3-2.38,55,55,0,0,0,1.16-7.38,11.28,11.28,0,0,1-6.13-.43,48.83,48.83,0,0,1-1,6.42A3.07,3.07,0,0,0,228.76,160.14Z"/><path class="cls-38" d="M217,159.31a8.42,8.42,0,0,0-1.63,4.58,4.1,4.1,0,0,0,2,1.86,5.56,5.56,0,0,0,2.3,3.4c1,.58,3.9,1.31,5.76,0a3.19,3.19,0,0,0,1.12-2.92c-.11-1-1.7-1.33-2.16-1.63a3.33,3.33,0,0,0-2.13-.77,21.71,21.71,0,0,0,.58-3C220.39,162.35,218.37,161.55,217,159.31Z"/><path class="cls-26" d="M217.38,157.82a8.42,8.42,0,0,0-1.63,4.58,4.1,4.1,0,0,0,2,1.86,5.56,5.56,0,0,0,2.3,3.4c1,.58,3.9,1.31,5.76,0s-.11-3.95-1-4.55a3.33,3.33,0,0,0-2.13-.77,21.71,21.71,0,0,0,.58-3C220.75,160.86,218.72,160.05,217.38,157.82Z"/><path class="cls-29" d="M222.62,162.34a2.8,2.8,0,0,0-2.37,2"/><path class="cls-38" d="M226.35,156.78a4.31,4.31,0,0,0,6,1.39c-.67,2.09,0,2.55,0,2.55,1.18-.51,4-1,4.09.2a6.1,6.1,0,0,1-.62,2.82c-1.26,2-5.16,1.59-6.63-.44a4.72,4.72,0,0,1-3.84-2.58A11.29,11.29,0,0,1,226.35,156.78Z"/><path class="cls-26" d="M226.59,155.92c1.06,1.8,3.92,2.33,6,1.19-.43,1.57.11,2.2.11,2.2,1.88-.81,4.73,1,3.47,3s-5.16,1.58-6.64-.44a4.75,4.75,0,0,1-3.84-2.59A8.15,8.15,0,0,1,226.59,155.92Z"/><path class="cls-29" d="M232.69,159.31a3.39,3.39,0,0,0-1.62.91"/><path class="cls-39" d="M222.06,95.27a135.89,135.89,0,0,1-4.75,30.9s17.06,8.38,17.75-.52S235.08,101.14,222.06,95.27Z"/><path class="cls-40" d="M222.06,95.27a135.89,135.89,0,0,1-4.75,30.9s17.06,8.38,17.75-.52S235.08,101.14,222.06,95.27Z"/><path class="cls-41" d="M222.06,95.27a135.89,135.89,0,0,1-4.75,30.9s17.06,8.38,17.75-.52S235.08,101.14,222.06,95.27Z"/><path class="cls-42" d="M217.31,126.17a44.94,44.94,0,0,0-5.55,11.65,4.91,4.91,0,0,1,3.28,1,4.13,4.13,0,0,0,3.77.79,3.89,3.89,0,0,1,3.81.38c1.25.89,2.35,1.11,3.61,0a3.28,3.28,0,0,1,3.35-.26,2.66,2.66,0,0,0,3.11-.43,4.13,4.13,0,0,1,3.73-.71,2.35,2.35,0,0,0,2.92-.68,65.84,65.84,0,0,0-4.28-12.28C230.73,127.18,222.37,127.4,217.31,126.17Z"/><path class="cls-24" d="M219.73,111.51a96.64,96.64,0,0,0-2.82,9.86c-2,8.62-1.71,13.2-1.7,13.39a3.07,3.07,0,0,0,6.13-.39s-.19-4,1.56-11.63a87.78,87.78,0,0,1,2.52-8.87"/><path class="cls-39" d="M226.77,110.37a15.45,15.45,0,0,1-1.58,5.33,10.48,10.48,0,0,1-7.23-2.22s.54-1.26,1-2.8a15.78,15.78,0,0,1,1.46-3.86,6.77,6.77,0,0,1,3.38-2.73"/><path class="cls-43" d="M226.77,110.37a15.45,15.45,0,0,1-1.58,5.33,10.48,10.48,0,0,1-7.23-2.22s.54-1.26,1-2.8a15.78,15.78,0,0,1,1.46-3.86,6.77,6.77,0,0,1,3.38-2.73"/><path class="cls-41" d="M226.77,110.37a15.45,15.45,0,0,1-1.58,5.33,10.48,10.48,0,0,1-7.23-2.22s.54-1.26,1-2.8a15.78,15.78,0,0,1,1.46-3.86,6.77,6.77,0,0,1,3.38-2.73"/><path class="cls-24" d="M245.76,85.22a11,11,0,0,1-7.53-3.7,47.77,47.77,0,0,1-24.86,12l1.22,4.92-1.62.7,1.76,1.45-1.35.42c4.79,3.8,11.69,5.13,18.27,3.64a20.52,20.52,0,0,0,12.11-7.38C246.13,94.23,246.49,89.74,245.76,85.22Z"/><path class="cls-24" d="M232.7,94.35a2,2,0,0,1,1.43-.61,2,2,0,0,1,0,3.94,2,2,0,0,1-1.4-.57"/><path class="cls-29" d="M231.79,100s3.36,3.59,5.11-.73"/><circle class="cls-30" cx="225.06" cy="96.06" r="1.17"/><circle class="cls-30" cx="242.02" cy="91.4" r="1.17"/><path class="cls-27" d="M213,99.15l1.62-.7-1.22-4.92a47.77,47.77,0,0,0,24.86-12,11,11,0,0,0,7.53,3.7c-.1-.65-.23-1.3-.38-2a19.38,19.38,0,0,0-37.79,8.58,16.11,16.11,0,0,0,5.79,9.17l1.35-.42Z"/><circle class="cls-27" cx="217.05" cy="71.14" r="6.58"/><path class="cls-24" d="M215.73,97.76a2.43,2.43,0,0,1-2.17.3,2.94,2.94,0,0,1,1.95-5.51A2.47,2.47,0,0,1,217,94"/><path class="cls-44" d="M254.87,113.28c-2.23,3.59-.32,7.17,3.83,7.17l4.14-6.39Z"/><path class="cls-24" d="M255.12,121.3a3.35,3.35,0,0,1-1.85-6.14c10-6.64,23.26-6.8,23.82-6.8h0a3.35,3.35,0,0,1,0,6.7h0c-.12,0-11.82.16-20.17,5.68A3.31,3.31,0,0,1,255.12,121.3Z"/><path class="cls-45" d="M258.7,120.45c2.31-2.73.32-7.65-3.83-7.17,6.78-4.38,16.42-6.07,24.15-5.5,0,0,2,3.39-.46,8C271.61,114.83,263.48,116.55,258.7,120.45Z"/><path class="cls-24" d="M289.33,177a3.36,3.36,0,0,1-3.25-2.57c-3.86-16.18-4.37-35.28-4.39-36.08a3.35,3.35,0,1,1,6.69-.17c0,.19.52,19.21,4.21,34.69a3.34,3.34,0,0,1-2.48,4A3,3,0,0,1,289.33,177Z"/><path class="cls-24" d="M273.8,168.62a3.36,3.36,0,0,1-3.32-3c-2.25-19.51,5.41-33.26,5.74-33.83a3.35,3.35,0,1,1,5.82,3.3,53.63,53.63,0,0,0-4.91,29.76,3.34,3.34,0,0,1-2.94,3.71A2.56,2.56,0,0,1,273.8,168.62Z"/><path class="cls-46" d="M279.94,180.84a6.43,6.43,0,0,0,5.26.9c2.12-.58,2.52-2.12,3.66-2.69s3.34.06,5.07-2.7a6.07,6.07,0,0,0-1.44-4.07c-1.45,5.87-6.34,4.74-6.94,1.9a4.92,4.92,0,0,1-2.27,1.91c-1-.7-4.39.63-4.39.63S279.24,180.14,279.94,180.84Z"/><path class="cls-47" d="M279.84,179.2a6.42,6.42,0,0,0,5.26.9c2.12-.58,2.52-2.13,3.66-2.7s3.33.07,5.07-2.69a6.06,6.06,0,0,0-1.45-4.07c-1.44,5.87-6.33,4.74-6.94,1.9a4.87,4.87,0,0,1-2.26,1.91,2.94,2.94,0,0,0-4,1.05A3.31,3.31,0,0,0,279.84,179.2Z"/><path class="cls-46" d="M277.13,166.32a1.8,1.8,0,0,1,.41,2.21,4.55,4.55,0,0,1-2.39,2.15,15.28,15.28,0,0,0-3.43,1.51,23.83,23.83,0,0,1-2.71,2.32,4.15,4.15,0,0,1-4.22-.79,4.85,4.85,0,0,1-1-2.4,2.84,2.84,0,0,1,3.11-3.39c1.15-.89,2.23-1.61,2.23-1.61a2,2,0,0,0,1-1.29C270.07,169.83,275.21,169,277.13,166.32Z"/><path class="cls-47" d="M277.13,164.88a1.82,1.82,0,0,1,.41,2.22,4.59,4.59,0,0,1-2.39,2.15,14.84,14.84,0,0,0-3.43,1.51,23.83,23.83,0,0,1-2.71,2.32,4.17,4.17,0,0,1-4.22-.79,4.85,4.85,0,0,1-1-2.4,2.83,2.83,0,0,1,3.11-3.39c1.15-.89,2.23-1.62,2.23-1.62a2,2,0,0,0,1-1.29C270.07,168.4,275.21,167.53,277.13,164.88Z"/><path class="cls-26" d="M276.27,128.69a48.54,48.54,0,0,0,14.26,2c-1.52,14.82.6,33.22,2.15,40.31,0,3.8-6.17,4.48-7.88,2.36-3.06-13.3-3.15-31.81-4.35-31.81s-4.18,15.84-2.72,24.28c-2.42,2.65-7.66,2-8.88-1.43C268.85,154.67,271.35,138.41,276.27,128.69Z"/><path class="cls-24" d="M291.24,120.23c.73,6.3,1.11,14.61-.47,22a3.35,3.35,0,1,1-6.55-1.4,58.14,58.14,0,0,0,.72-16.14"/><path class="cls-45" d="M279.53,99.52c14,9.88,10.66,37.38,10.66,37.38s-12.11.55-16.65-2.87C277,125.82,277.38,113.37,279.53,99.52Z"/><path class="cls-45" d="M279.53,99.52s8.06,5.74,10.2,9.4,3.45,17.75,2.14,32c-2.62,2.08-6.09,1.54-8-2.15,1.26-7.33-.32-19.92-.32-19.92l-.21-3.6"/><path class="cls-24" d="M297.42,87c2.05,10.09-.45,18.89-10.37,21.69s-17.82-1.52-20.63-11.44-3.43-20,10.6-24C288.87,69.87,295.36,76.87,297.42,87Z"/><path class="cls-24" d="M271.16,102.71a1.88,1.88,0,0,1-1.21.82,1.91,1.91,0,1,1,.51-3.56"/><circle class="cls-30" cx="280.45" cy="98.45" r="1.07"/><path class="cls-29" d="M273.27,106.1s3.55,3.34,4.46-.48"/><path class="cls-48" d="M297.42,87c-2.06-10.1-8.55-17.1-20.4-13.75-6.63,1.88-10,5.13-11.39,9.08a12.36,12.36,0,0,1,4.44-.71c2.42.08,7.16.24,11.13,4s5.34,12.19,5.34,12.19l.95-.38s-.95-4.07,1.1-4.31c1.81-.21,1,1,1.39,2.63,1,4.08,0,11.74,0,11.74h.21C297.48,103.79,299.23,95.89,297.42,87Z"/><path class="cls-48" d="M265.63,79a9.71,9.71,0,0,1,5.16-6.66,12.48,12.48,0,0,0-.72,6,8.28,8.28,0,0,1,5.43,1.28,7.62,7.62,0,0,1-5.43,1.91,11,11,0,0,1,1.09,5.14,7.12,7.12,0,0,1-3.51-2.67,9.33,9.33,0,0,0-2,3.6,6.15,6.15,0,0,1-.18-4.81s-2.66-.7-3.21-2.83A4.42,4.42,0,0,1,265.63,79Z"/><path class="cls-24" d="M287.49,94.2a2.32,2.32,0,0,1,1.43-1.44,3.17,3.17,0,0,1,1.93,5.9,2.35,2.35,0,0,1-2.07-.36"/><path class="cls-27" d="M241.63,171a4.78,4.78,0,0,1,1.15,3.14l-13.72,3.3s-2-4.83,1.07-6.49,6.72.6,6.72.6S240.35,169.38,241.63,171Z"/><path class="cls-24" d="M234.26,136.94a3,3,0,0,0-2.6,3.34l3.18,23.08,5.54-.67-2.78-23.14A3,3,0,0,0,234.26,136.94Z"/><path class="cls-26" d="M236,171.58c-.62,1.27,1.29,2.39,2.93,2.23,1.88-.19,3.15-1.8,2.47-2.85l-1-8.27-5.54.67Z"/><path class="cls-27" d="M246.63,172.1a4.82,4.82,0,0,1,1.14,3.15l-13.72,3.29s-2-4.82,1.08-6.49,6.72.61,6.72.61S245.35,170.48,246.63,172.1Z"/><path class="cls-24" d="M239.26,138.05a3,3,0,0,0-2.6,3.33l3.17,23.08,5.55-.66-2.78-23.15A3,3,0,0,0,239.26,138.05Z"/><path class="cls-26" d="M241,172.69c-.61,1.26,1.29,2.38,2.94,2.22,1.88-.19,3.14-1.8,2.47-2.85l-1-8.26-5.55.66Z"/><path class="cls-49" d="M229.57,135.19,231.66,151l4.63-.61.23,1.28s6.31.39,11.38-1.69c-1.05-5.65.69-10.93-2.65-16.11Z"/><line class="cls-24" x1="236.29" y1="150.43" x2="235.45" y2="141.12"/><path class="cls-50" d="M221.17,109.77a20.81,20.81,0,0,0,9,10.15c6.74,3.77,6-5.89,6-5.89l-7.81-10Z"/><path class="cls-50" d="M229.72,108.17s-1.89,18.57-.82,28.05a57.87,57.87,0,0,0,17.25-1.41s-2.14-19.08-7-29Z"/><ellipse class="cls-24" cx="232.68" cy="112.17" rx="2.37" ry="3.01" transform="translate(-3.76 8.16) rotate(-1.99)"/><path class="cls-24" d="M253.58,98.45c-.62,4.74-2.52,9.22-5.7,11.54-4,2.92-9.86,3-15.8,2.21s-11.65-2.77-14.74-6.68c-2.43-3.06-2.31-7.18-1.68-11.87C217.07,83,226.12,75.13,236.8,76.54A19.51,19.51,0,0,1,253.58,98.45Z"/><path class="cls-51" d="M246.6,98.71a2.69,2.69,0,0,1,1.75-.11c1.65.46,2.52,2.49,2,4.53s-2.38,3.33-4,2.86a8.1,8.1,0,0,1-1.41,5.58,21.78,21.78,0,0,0,3-1.58c3.18-2.32,5.08-6.8,5.7-11.54A19.51,19.51,0,0,0,236.8,76.54C228,75.38,218.59,80.37,216.27,89l2.35,3.27,5.07-3.18,2.39,4.17,4.57-2.73,2.75,4.32,3.5-3,2.73,4.2,3.29-1.73Z"/><path class="cls-24" d="M222.63,93.46a12.28,12.28,0,0,0-1.36,5.23c-.93-1.15-4.21-.5-3.61,2.18.72,3.23,4.26,1.6,4.26,1.6"/><path class="cls-52" d="M227.39,105.55s-1,2.77-3.27,2.47-2.51-3.24-2.51-3.24Z"/><ellipse class="cls-30" cx="218.32" cy="94.59" rx="1.67" ry="0.97" transform="matrix(0.98, -0.17, 0.17, 0.98, -13.1, 39.3)"/><ellipse class="cls-30" cx="235.6" cy="97.94" rx="0.97" ry="1.67" transform="translate(47.01 269.79) rotate(-64.91)"/><path class="cls-24" d="M240.76,108.78a88.16,88.16,0,0,0,.12-33.84,3,3,0,0,1,5.86-1.37,92.67,92.67,0,0,1-.08,36.41C246.2,112.16,240.35,110.78,240.76,108.78Z"/><path class="cls-50" d="M236.41,112.91l3.52-11.73s4.27.16,9.26,3.9c-1.39,7.24-6.52,13.86-6.52,13.86"/><path class="cls-53" d="M263.73,175.59a2.65,2.65,0,0,1-.51,2.51c-1.18,1.05-3.78,1.6-6.09,1.93-2.65.39-7.24,1-9,.18v-2.75c0-2.16,4.36-3.25,8.22-3.81S263.49,174,263.73,175.59Z"/><path class="cls-53" d="M268.37,177.82a2.66,2.66,0,0,1-.57,2.5c-1.2,1-3.82,1.5-6.13,1.79-2.65.32-7.26.8-9.05,0,0,0,0-2.23.06-2.75,0-2.16,4.43-3.15,8.31-3.62S268.17,176.18,268.37,177.82Z"/><path class="cls-54" d="M238.75,141.08a2.87,2.87,0,0,1-2.28-4.63,113.25,113.25,0,0,0,10.05-16.35,2.88,2.88,0,0,1,5.14,2.59A118.54,118.54,0,0,1,241,140,2.84,2.84,0,0,1,238.75,141.08Z"/><path class="cls-55" d="M263,142.73c-1.42,15.28-2,22-3,37.83-3.12.7-6.26.17-7.49-1.5A4.38,4.38,0,0,1,248,178c-1-14.32-1.61-42.91-1.61-42.91Z"/><path class="cls-55" d="M249.09,115.64s-6.65,12.86-11.5,19a7.93,7.93,0,0,0,5,3.6,54.38,54.38,0,0,0,5-7.82C250.44,125.29,249.09,115.64,249.09,115.64Z"/><line class="cls-56" x1="257.54" y1="179.39" x2="259.67" y2="141.04"/><line class="cls-57" x1="252.45" y1="179.06" x2="251.79" y2="148.81"/><path class="cls-55" d="M254.66,103.69c-5.75-.63-7.7,22.74-8.29,31.37s13.47,9.22,16.59,7.67a92.23,92.23,0,0,0-2-31.13C259.75,106.5,256.44,103.88,254.66,103.69Z"/><path class="cls-54" d="M273.57,89.81c0,2,.36,4.68,2.28,5.16.11,2.53-1.94,6.26-3.24,7.91-3.32,4.24-10.07,5.09-15.88,5.09-5.37,0-11.1-1.38-14.2-5.09-2.69-3.22-4.32-8.41-4.32-13.07,0-10,8.49-18.16,18.52-18.16S273.57,79.78,273.57,89.81Z"/><path class="cls-54" d="M274.71,145.49a2.9,2.9,0,0,1-2.08-.89c-8.57-8.94-13.06-20.49-13.25-21a2.88,2.88,0,1,1,5.37-2.06h0c0,.11,4.29,11,12,19.06a2.88,2.88,0,0,1-2.08,4.87Z"/><path class="cls-55" d="M261.36,113.35c2.29,6.25,6.85,16.82,14,25.49a8.38,8.38,0,0,1-5,3.77c-9.71-12.4-12.77-22.47-12.77-22.47"/><path class="cls-58" d="M241.09,98.74c.51,3.72.67,8.91-1.53,12.23-3.25,4.91-9.81,7.22-13,6.74,3.06-2.52,2.7-6.93,5.75-11.42A22.23,22.23,0,0,1,241.09,98.74Z"/><path class="cls-56" d="M272.9,139.72S262,127.49,256.66,107.54"/><path class="cls-58" d="M261.23,102.7H263v-4l2.49-1.08L263.92,97a4.21,4.21,0,0,1-3.86-3.78c-.4-2.32.71-4.68,2.34-5.39,1-.42,2.46.25,3,.45A11.59,11.59,0,0,0,266.8,75a16.2,16.2,0,0,0-10.07-3.36c-10,0-18.52,8.13-18.52,18.16,0,4.66,1.63,9.85,4.32,13.07,3.1,3.71,8.83,5.09,14.2,5.09l1.72,0,3.05-2.28Z"/><path class="cls-57" d="M263.92,97a1.55,1.55,0,0,0,1.62-.63"/><circle class="cls-59" cx="269.89" cy="90.77" r="0.96"/><path class="cls-27" d="M192.37,112.92c-3.63-9.87-9.38-15.26-17.12-18.26,0,0-3.24-4-3.84-7.87A11.58,11.58,0,0,0,166.12,90a31.66,31.66,0,0,1-.67-5.13,15.24,15.24,0,0,0-6.83,4.25s-1.88-2.37-2-4.25c-2.37.62-11.78,7.51-18.13,15.88-5.5,7.25-6.75,10-7.75,20.37C135.49,122.66,195.93,122.6,192.37,112.92Z"/><path class="cls-24" d="M193.37,123.41c0,16.91-13,26.13-29.88,26.13s-31.37-9.22-31.37-26.13a30.63,30.63,0,0,1,61.25,0Z"/><path class="cls-24" d="M169.25,109a2.87,2.87,0,1,1,1.55,3.68"/><circle class="cls-30" cx="150.49" cy="110.66" r="1.31"/><circle class="cls-30" cx="182.99" cy="108.04" r="1.31"/><path class="cls-52" d="M169.25,122.66c-.87,0-1.31,1.14-2.13,2.5-1,1.69-2.24,3.74-1.38,4.5,1.57,1.38,5.49,1.5,6.93,0,.79-.82.28-2.1-.66-3.75C171.23,124.52,170.14,122.66,169.25,122.66Z"/><path class="cls-27" d="M137.38,115.63a5.92,5.92,0,0,1,3.11,2c1,1.5.63,7,.63,7s6.13-13.53,1.56-24.39c0,0-7.19,4.79-9.56,10.39a31.9,31.9,0,0,0-1,21c2.25,7.92,10.37,12.5,10.37,12.5A82.25,82.25,0,0,1,137.38,115.63Z"/><path class="cls-24" d="M138.68,125.71a4.3,4.3,0,0,1-3.14,1.45c-2.65,0-4.8-2.69-4.8-6s2.15-6,4.8-6a4.49,4.49,0,0,1,3.7,2.18"/><polygon class="cls-60" points="78.65 271.98 150.9 298.54 193.59 261.8 119.34 239.91 78.65 271.98"/><polygon class="cls-61" points="150.9 298.54 151.17 311.46 193.59 273.57 193.59 261.8 150.9 298.54"/><polygon class="cls-61" points="151.17 311.46 150.9 298.54 78.65 271.98 78.65 284.95 151.17 311.46"/><ellipse class="cls-22" cx="136.12" cy="267.04" rx="13.62" ry="31.03" transform="translate(-146.59 366.59) rotate(-82.39)"/><polygon class="cls-23" points="119.34 239.91 78.65 271.98 78.65 284.95 151.17 311.46 193.59 273.57 193.59 261.8 119.34 239.91"/><path class="cls-27" d="M230.17,150.58c.5,18,6.17,28.25,6.17,28.25S198.7,181,169.75,170.1C207,161.33,230.17,150.58,230.17,150.58Z"/><path class="cls-24" d="M218.25,208.08a4.5,4.5,0,0,0,3.4-7.44l-21.25-24.5a4.5,4.5,0,1,0-6.8,5.89l21.25,24.5A4.47,4.47,0,0,0,218.25,208.08Z"/><polygon class="cls-62" points="198.85 172.58 220.59 198 212.25 204.58 191.34 180.42 198.85 172.58"/><path class="cls-24" d="M177.44,273.17c3.81,0,3.9-7,3.46-11.16,10.64-10.63,9.26-37.44,9.06-40.47a4.5,4.5,0,0,0-9,.58c.62,9.85-.58,27.67-6.44,33.53-3.45,1.52-4.37,3.18-3.12,6.1C171.91,262.89,174.34,273.17,177.44,273.17Z"/><path class="cls-24" d="M151.5,195.83a4,4,0,0,0,.6,0,52.53,52.53,0,0,0,31.6-16.32,4.5,4.5,0,0,0-6.89-5.79,44.23,44.23,0,0,1-25.91,13.19,4.5,4.5,0,0,0,.6,9Z"/><path class="cls-24" d="M144.36,240l.61,0c17.07-.83,23.43-19.82,23.69-20.63a4.5,4.5,0,0,1,8.57,2.74c-.32,1-7.86,23.88-29.22,26.64-.14,4.16-1.72,7.45-3.65,7.45s-3.67-3.62-3.67-8.09S142.34,240,144.36,240Z"/><path class="cls-62" d="M193.42,163.67c11.75,3.16.92,40.66,0,50.16s-.92,14.34,0,21.92c-25.58,1.26-43.5-19.54-43.5-19.54s9.75-2,14.75-9.54c2-3,3.83-12.75,8.33-22.71C178.15,172.57,187.15,162,193.42,163.67Z"/><path class="cls-62" d="M184.75,180.87s-14,11.88-27.25,15a19.88,19.88,0,0,1-2-10.83c7.87-2,15.14-8.3,21.17-12.92a73.78,73.78,0,0,1,9.23-6"/><path class="cls-24" d="M165,143.89c-2.86,17.35,9.93,27.45,27.28,30.31,7.77,1.28,16.08,1.72,22.11-.66,7.42-2.93,11.87-9.71,13.45-19.29A31.84,31.84,0,1,0,165,143.89Z"/><path class="cls-29" d="M214.16,164.23a3.12,3.12,0,0,0,1.53,1.25,3.08,3.08,0,1,0,.3-5.86"/><path class="cls-63" d="M211.94,167.79c-2.67-.6-9.94,2.3-8.9,3.41s6.56,1.56,8.21,1.11S214.62,168.38,211.94,167.79Z"/><circle class="cls-30" cx="223.41" cy="158.01" r="1.51"/><circle class="cls-30" cx="194.41" cy="154.51" r="1.51"/><path class="cls-27" d="M230.24,152.33c-20.74,3.68-45.49-6.66-45.49-6.66s-.33,16.52,5.42,23.25a41,41,0,0,1-20.42,1.18,15.16,15.16,0,0,1-6.83-3c-1.75-1.4-1.08-23.83,4.33-33.66s17.75-20.25,34.42-17.17c7.36,1.36,15.77,5.62,20.75,11.42C228.72,135,230.64,144.66,230.24,152.33Z"/><path class="cls-24" d="M82.88,176.19c-1.39,0-2.79,0-4.18-.05a4.52,4.52,0,1,1,.21-9c24.06.56,49.49-4.38,49.74-4.43a4.52,4.52,0,1,1,1.75,8.86A277.61,277.61,0,0,1,82.88,176.19Z"/><path class="cls-64" d="M134.42,159.15c-6.31-.77-12.08,4.09-17.76,4.32a12.43,12.43,0,0,0,.44,12l13.5-3S140.73,159.91,134.42,159.15Z"/><path class="cls-24" d="M136.67,261a4.53,4.53,0,0,1-4.51-4.24l-2.74-44.52a4.52,4.52,0,0,1,9-.56l2.74,44.52A4.53,4.53,0,0,1,137,261Z"/><path class="cls-24" d="M123.29,254.39h-.2a4.52,4.52,0,0,1-4.32-4.7l1.61-37.91a4.52,4.52,0,0,1,9,.38l-1.61,37.91A4.52,4.52,0,0,1,123.29,254.39Z"/><path class="cls-65" d="M131.71,249.32l.17,2.9c4,2.32,9.05,0,9.05,0l-.18-2.9Z"/><path class="cls-65" d="M119.11,241.82l-.14,3.27a7,7,0,0,0,9,1.45l.14-3.32Z"/><path class="cls-38" d="M127.56,251.11c2.12,4.31,2.09,7.5,1,7.86-6.24,2-17.74,1.83-21.61-2.47-.91-1-1.1-3.89-.92-5.11.61-4,6.17-6.13,11.72-.28C121.11,255.46,124.87,255.52,127.56,251.11Z"/><path class="cls-66" d="M127.69,249.18c2.12,4.31,2.08,7.49,1,7.85-6.24,2.05-17.74,1.83-21.61-2.47s3.54-13,10.8-5.38C121.24,253.53,125,253.59,127.69,249.18Z"/><path class="cls-38" d="M141.05,258.15c2.11,4.31,2.08,7.49,1,7.86-6.24,2-17.75,1.83-21.62-2.48-.9-1-1.1-3.88-.91-5.11.6-4,6.16-6.12,11.72-.27C134.6,262.5,138.35,262.56,141.05,258.15Z"/><path class="cls-66" d="M141.18,256.21c2.11,4.31,2.08,7.5,1,7.86-6.24,2-17.75,1.83-21.62-2.47s3.55-13,10.81-5.39C134.73,260.56,138.48,260.62,141.18,256.21Z"/><path class="cls-67" d="M119.43,202.24s15.84-2.47,24.77,1.72c1,13.34-3.45,45.36-3.45,45.36a9.79,9.79,0,0,1-9,0s-1.62-7.52-2.3-14.5l-1.32,8.4c-2.28,2.57-6.94,1.94-9-1.4A258.91,258.91,0,0,1,119.43,202.24Z"/><path class="cls-29" d="M129.41,234.82l-3-15.66a25.25,25.25,0,0,1-4.06-5.09"/><path class="cls-26" d="M136,150.3c9.89,0,9.35,39.79,9.35,58.5-4.62,4.16-18.82,3.66-28.06-3C120.22,183.53,126.13,150.3,136,150.3Z"/><ellipse class="cls-24" cx="131.64" cy="162.54" rx="5.21" ry="2.15" transform="translate(-74.53 127.31) rotate(-41.3)"/><path class="cls-24" d="M163.26,148.13c-5.54,15.66-21.44,20.39-37.1,14.84-8.16-2.89-16.32-7.95-19.91-14.27-3.29-5.79-2.32-13.16.34-20.65a30.06,30.06,0,1,1,56.67,20.08Z"/><path class="cls-24" d="M113,137.91a2.74,2.74,0,1,1-.4-5,2.71,2.71,0,0,1,1.59,1.37"/><ellipse class="cls-52" cx="111.56" cy="147.16" rx="4.09" ry="1.96" transform="translate(-43.03 248.17) rotate(-85.99)"/><circle class="cls-30" cx="127.75" cy="143.74" r="2.1"/><ellipse class="cls-30" cx="108.05" cy="130.3" rx="2.26" ry="0.65" transform="translate(-47.78 196.42) rotate(-73.33)"/><path class="cls-27" d="M163.26,148.13A30.07,30.07,0,0,0,115.71,115a33.27,33.27,0,0,0,6.12,18.35,23.84,23.84,0,0,1,0-13.33c2.69,15.5,7.85,22,17.64,29a17,17,0,0,1-1.51-9.14,17,17,0,0,0,8.6,7.29,24.06,24.06,0,0,1-1.81,17.39A24.41,24.41,0,0,0,163.26,148.13Z"/><path class="cls-24" d="M141.73,144.23a4.34,4.34,0,0,1,3.34-1.67c2.61,0,4.72,2.55,4.72,5.7s-2.11,5.7-4.72,5.7a4.32,4.32,0,0,1-3.29-1.61"/><path class="cls-68" d="M90.27,183.53c-1.39,0-2.79,0-4.18-.05a4.52,4.52,0,0,1,.21-9c24.06.56,49.5-4.38,49.75-4.43a4.51,4.51,0,1,1,1.74,8.86A277.31,277.31,0,0,1,90.27,183.53Z"/><path class="cls-24" d="M90.27,183.53c-1.39,0-2.79,0-4.18-.05a4.52,4.52,0,0,1,.21-9c24.06.56,49.5-4.38,49.75-4.43a4.51,4.51,0,1,1,1.74,8.86A277.31,277.31,0,0,1,90.27,183.53Z"/><path class="cls-29" d="M90.27,183.53c-1.39,0-2.79,0-4.18-.05a4.52,4.52,0,0,1,.21-9c24.06.56,49.5-4.38,49.75-4.43a4.51,4.51,0,1,1,1.74,8.86A277.31,277.31,0,0,1,90.27,183.53Z"/><path class="cls-64" d="M140.36,167.36c-1.84,0-6.6,2.57-12.56,2.28a12.33,12.33,0,0,0,.59,12.44A36.58,36.58,0,0,0,138.72,180a6.85,6.85,0,0,0,4.21-4.82C144.12,171.19,142.19,167.36,140.36,167.36Z"/><path class="cls-24" d="M130.3,288.66a4.35,4.35,0,0,0,1.95-.17A4.27,4.27,0,0,0,135,283.1c-1.44-4.35-.7-7.2.59-11,1.14-3.41,10-26.17,14.54-37.73a4.27,4.27,0,1,0-7.94-3.12c-.54,1.38-13.19,33.68-14.69,38.13-1.6,4.77-2.85,9.62-.6,16.44A4.27,4.27,0,0,0,130.3,288.66Z"/><path class="cls-27" d="M135.31,273.68s1.86,8,1.53,10.23-1.65,6.74-4.93,7-6.16-1.71-7.59-7.92c-.73-3.15,1.91-9.44,1.91-9.44S127,281,130.64,281,135.31,273.68,135.31,273.68Z"/><path class="cls-69" d="M153.71,231.41a182,182,0,0,1-9.88,25.1,29.07,29.07,0,0,1-11.66-4.71l4.27-22.23Z"/><path class="cls-24" d="M214.87,214.49h.26A4.27,4.27,0,0,0,215,206c-.26,0-22.22.07-49.66-18.18a4.27,4.27,0,1,0-4.73,7.11C189.15,213.88,212.06,214.49,214.87,214.49Z"/><path class="cls-24" d="M119.31,194.43a77.51,77.51,0,0,0,21.78-3.15,4.26,4.26,0,0,0-2.6-8.12h0c-.31.1-31,9.59-48.07-7.77a4.27,4.27,0,0,0-6.08,6C94.54,191.74,108,194.43,119.31,194.43Z"/><path class="cls-24" d="M154.11,290.66a4.26,4.26,0,0,0,3.81-6.17c-2-4.1-1.72-7-1-11,.64-3.54,6.14-27.34,9-39.44a4.27,4.27,0,1,0-8.31-1.93c-.33,1.43-8.21,35.22-9,39.84-.89,5-1.43,9.94,1.77,16.35A4.27,4.27,0,0,0,154.11,290.66Z"/><path class="cls-27" d="M156.91,275.12s3,7.61,3,9.9-.66,6.91-3.86,7.67-6.35-.81-8.66-6.75c-1.17-3,.54-9.62.54-9.62s1.86,7.18,5.43,6.72S156.91,275.12,156.91,275.12Z"/><path class="cls-69" d="M151,230.64h18a182.35,182.35,0,0,1-6.16,26.26,29,29,0,0,1-12.22-3l.22-16"/><path class="cls-70" d="M169,200.09v30.55c-7,6.25-25.75,4.57-32.6-1.07l1.1-37.32a60.33,60.33,0,0,1-44.37-2.74l6.1-11a45.09,45.09,0,0,0,31.84,3.65l36.71,2.9s17.29,14.32,41,18.74l-4.11,12.34C181.68,212.14,169,200.09,169,200.09Z"/><ellipse class="cls-24" cx="152.89" cy="184.28" rx="7.31" ry="6.45"/><ellipse class="cls-24" cx="182.84" cy="171.61" rx="5.34" ry="4.4" transform="translate(-4.64 338.15) rotate(-84.8)"/><ellipse class="cls-24" cx="122.46" cy="171.61" rx="4.4" ry="5.34" transform="translate(-15.05 11.81) rotate(-5.2)"/><path class="cls-24" d="M126.88,171.32a56,56,0,0,1,1.59-8.86,21.25,21.25,0,0,0,2.6,8.86s.14-12.14,5.2-18c2.89,11.32,13.14,16.24,13.14,16.24a85.05,85.05,0,0,1-3.47-9.51,33.09,33.09,0,0,0,17.48,7.87,24.75,24.75,0,0,1-3.61-6.48c6.92,6.14,21.62,8.77,21.67,8.78-1.35,4.92-3.75,9.54-7.37,12.47-5.45,4.4-13.9,4.43-21.89,4.43-9.86,0-19.89-1.35-25.49-7.71-2.82-3.21-4.21-8.36-4.79-13.28A16.1,16.1,0,0,0,126.88,171.32Z"/><path class="cls-71" d="M152.22,131.29c16.91,0,30.62,14,30.62,28.87a38.42,38.42,0,0,1-1.36,10s-14.75-2.64-21.67-8.78a24.75,24.75,0,0,0,3.61,6.48A33.09,33.09,0,0,1,145.94,160a85.05,85.05,0,0,0,3.47,9.51s-10.25-4.92-13.14-16.24c-5.06,5.91-5.2,18-5.2,18a21.25,21.25,0,0,1-2.6-8.86,56,56,0,0,0-1.59,8.86,16.1,16.1,0,0,1-4.94-5.24,51.89,51.89,0,0,1-.34-5.92C121.6,145.3,135.31,131.29,152.22,131.29Z"/><path class="cls-24" d="M149.52,178.88a3.82,3.82,0,1,0,6.52,2.7,3.77,3.77,0,0,0-1-2.6"/><circle class="cls-72" cx="170.65" cy="176.96" r="1.44"/><circle class="cls-72" cx="134.68" cy="176.96" r="1.44"/><path class="cls-24" d="M95.28,270.52a5.26,5.26,0,0,0,5.16-4.33c3.75-21.17.08-36.28-.08-36.92a5.24,5.24,0,0,0-10.17,2.54c.06.25,3.25,13.8-.08,32.55a5.26,5.26,0,0,0,4.25,6.08A5.82,5.82,0,0,0,95.28,270.52Z"/><path class="cls-24" d="M66.11,267.89a5.22,5.22,0,0,0,3.87-1.7c11.21-12.26,15.43-27.4,15.61-28a5.24,5.24,0,0,0-10.11-2.77h0c0,.13-3.78,13.4-13.23,23.74a5.23,5.23,0,0,0,3.86,8.77Z"/><path class="cls-24" d="M44.5,213.17a5.24,5.24,0,0,0,4.06-1.92,209.39,209.39,0,0,1,30.7-30.05,5.24,5.24,0,0,0-6.63-8.12,216.23,216.23,0,0,0-32.19,31.53,5.25,5.25,0,0,0,.74,7.38A5.19,5.19,0,0,0,44.5,213.17Z"/><path class="cls-73" d="M90.11,264.36c4.18,3.53,10.33,1.83,10.33,1.83s4.11-2.28,7-.41c1.42.94,2.19,3.84,2.63,6.74-9.7,2.29-21.13-1-21.13-1A10.55,10.55,0,0,1,90.11,264.36Z"/><path class="cls-73" d="M62.07,259.27c2.48,4.88,8.8,5.68,8.8,5.68s4.68-.51,6.58,2.32c.94,1.41.53,4.39-.19,7.23-9.83-1.64-19.09-9.12-19.09-9.12A10.54,10.54,0,0,1,62.07,259.27Z"/><path class="cls-74" d="M99.37,214.33s4.78,17.69,3.77,31.61a32,32,0,0,1-17.37,2V242.5s-1.47,3.61-2.45,5.41c-9-.66-16.06-6.88-16.06-6.88a12.18,12.18,0,0,0,3.44-5.9c.82-3.6-5.08-10.48-3.44-25.88Z"/><path class="cls-23" d="M85.77,242.5s3.11-5.24,3-14.9"/><path class="cls-75" d="M101.28,174.83c-.31,6.92.22,20.33-1.78,39.5-12.11,4.91-25.71,3.27-32.1-5.08L68.22,193s-.49-.38-13.1,12.45a79.83,79.83,0,0,1-9.34-8.69c19-20.64,30.79-31.44,30.79-31.44l28.34-19"/><path class="cls-23" d="M68.08,193a98.45,98.45,0,0,1,11.14-9.66"/><ellipse class="cls-24" cx="88.73" cy="166.99" rx="8.84" ry="2.93" transform="translate(-82.79 87.37) rotate(-37.11)"/><path class="cls-24" d="M62.17,144.25a26.52,26.52,0,0,0,5.53,16.19C71,164.51,79.4,169.76,88,172.11c3.27.89,10.28,2.13,15.66.61,5.13-1.45,6.93-3.22,9.83-6.75,6.55-8,7.37-20.44,7.37-25,0-15.7-11.47-25.15-28.26-25.15S62.17,128.55,62.17,144.25Z"/><path class="cls-23" d="M104.92,164.65a3.09,3.09,0,1,0,2.53-4.87,3,3,0,0,0-1.2.24,18.16,18.16,0,0,0,3.51-8.18"/><circle class="cls-72" cx="113.45" cy="158.29" r="1.77"/><circle class="cls-72" cx="89.73" cy="150.07" r="1.77"/><path class="cls-73" d="M116.36,138.64s-7.21,4.64-15.66,4.29a15.34,15.34,0,0,0,4.22-4.29c-5.06,1.91-6.86,3.53-20.18,6.29a13.69,13.69,0,0,0-.77-4.45,29.44,29.44,0,0,0-6.6,10.74,61.05,61.05,0,0,1,0-11.82A4.47,4.47,0,0,0,75,136.89c-1.69-.54-4.34.36-5.72,2.67a8.68,8.68,0,0,0-1,4.8c-.1,1.66-.2,2.7.56,3.18a2.81,2.81,0,0,0,2.65.15A54.37,54.37,0,0,0,73,165.43c-13.45-8.49-10.7-23.88-10.7-23.88a35.39,35.39,0,0,0-1.83,3.69c-.49-1.93.89-12.77,7.37-20.12,6.18-7,17.25-10.55,25.7-10.74,6.5-.15,15.42,2,21,7.24,8,7.58,11.67,19.39,12.1,21.31-1.53-1.53-4.45-1.68-4.45-1.68a50.44,50.44,0,0,1-3.79,15.27A74.85,74.85,0,0,0,116.36,138.64Z"/><path class="cls-23" d="M99.15,165.85s1.58,0,1.23,1.27-1.61.71-2.86.27c.77.88,1.44,2.11.44,2.9s-2-.55-2-.55"/><path class="cls-24" d="M169.43,195a31.23,31.23,0,0,0,3.72-2.22,4.44,4.44,0,0,0-5.11-7.27c-.72.5-16.92,11.43-33.8-1a4.45,4.45,0,0,0-5.26,7.17C144.25,202.87,160.43,199.5,169.43,195Z"/><path class="cls-24" d="M148.52,239.57a11.75,11.75,0,0,0,3.36-4.07c1.12-2.34,1.82-6.14-1.18-11-7.16-11.54-20.45-7.77-26.48-4.17a4.45,4.45,0,0,0,4.55,7.64c1-.61,10.11-5.66,14.38,1.21.4.65,1,1.82.71,2.47-.83,1.73-5.62,3.47-9.41,4a4.44,4.44,0,0,0,1.09,8.82C137.18,244.23,144,243.2,148.52,239.57Z"/><path class="cls-24" d="M109.84,275.7a3.06,3.06,0,0,0,.51-.1,4.44,4.44,0,0,0,3.25-5.38c-4.75-19.21-1.45-32.06-1.42-32.19a4.45,4.45,0,0,0-8.58-2.33c-.16.61-4,15,1.37,36.66A4.45,4.45,0,0,0,109.84,275.7Z"/><path class="cls-27" d="M136.3,235.29c-1.93,2.22-3,4.55.2,9,.62,3.73-3.17,6.08-4.61,5.06-3.75-9.1-1.63-12.26-.34-13.81S134.51,234.24,136.3,235.29Z"/><path class="cls-27" d="M104.83,271.78c1.16,7.48,8.42,8.46,10.75,7.25s.55-6.78-2.39-10.55C112,271.94,109.15,273.47,104.83,271.78Z"/><circle class="cls-24" cx="171.23" cy="188.79" r="5.34"/><path class="cls-76" d="M124.72,176c7.11-1.54,8.88,9.16,8.88,9.16a50.49,50.49,0,0,0,10.21,2.8,15.43,15.43,0,0,1-2.44,10.55,32.93,32.93,0,0,1-7.26-1.59c.06,8.14-2.81,18.3-2.81,18.3A26.74,26.74,0,0,1,145,217.1c-17.55,20.55-25.47,25.26-42.32,30.23-5.94-13-5-16.56-3.66-24.72s6.48-20.7,11.09-29.71S117.61,177.58,124.72,176Z"/><path class="cls-77" d="M124.72,176c7.11-1.54,8.88,9.16,8.88,9.16a50.49,50.49,0,0,0,10.21,2.8,15.43,15.43,0,0,1-2.44,10.55,32.93,32.93,0,0,1-7.26-1.59c.06,8.14-2.81,18.3-2.81,18.3A26.74,26.74,0,0,1,145,217.1c-17.55,20.55-25.47,25.26-42.32,30.23-5.94-13-5-16.56-3.66-24.72s6.48-20.7,11.09-29.71S117.61,177.58,124.72,176Z"/><path class="cls-29" d="M124.72,176c7.11-1.54,8.88,9.16,8.88,9.16a50.49,50.49,0,0,0,10.21,2.8,15.43,15.43,0,0,1-2.44,10.55,32.93,32.93,0,0,1-7.26-1.59c.06,8.14-2.81,18.3-2.81,18.3A26.74,26.74,0,0,1,145,217.1c-17.55,20.55-25.47,25.26-42.32,30.23-5.94-13-5-16.56-3.66-24.72s6.48-20.7,11.09-29.71S117.61,177.58,124.72,176Z"/><path class="cls-78" d="M131.3,215.25s-3.32,0-8.43,3.12"/><ellipse class="cls-48" cx="86.13" cy="151.54" rx="9.13" ry="8.76" transform="translate(-86.46 175.96) rotate(-68.44)"/><path class="cls-24" d="M89.52,171.22a31.28,31.28,0,0,1,23.15-37.69c16.8-4,29.67,5.88,33.68,22.68a36.46,36.46,0,0,1,.86,5.08,3.73,3.73,0,1,1-.13,6.8c-1.54,9.89-9.15,16.28-21.55,19.24C108.73,191.35,93.54,188,89.52,171.22Z"/><circle class="cls-30" cx="129.39" cy="162.14" r="1.85"/><path class="cls-48" d="M119.22,188.49c-21.18,7.36-38-12.09-30.35-34.64s29-25.89,38.9-20c-.71.5,0,4.58,0,4.58l-6.27,1.48.69,5.79-7.47,2.57,1.72,5.14-4.92,2,2.43,4.11s-4.33,1.53-4.47,2.28a28.39,28.39,0,0,0-.43,4.08,20.84,20.84,0,0,0,.51,5.22c.32,1.44,6.72,4.59,6.72,4.59l-3.09,4.42,5.41,1.81-2.7,2.15,5,2.11Z"/><path class="cls-79" d="M126.55,171s4,6.28,1.5,7.74-3.28-4.12-3.28-4.12"/><path class="cls-24" d="M111.39,162.39a3.6,3.6,0,0,0-2.69-.52c-2.14.45-3.44,2.87-2.9,5.41s2.71,4.22,4.85,3.76a3.66,3.66,0,0,0,2.46-1.92"/></svg>