<svg id="レイヤー_1" data-name="レイヤー 1" xmlns="http://www.w3.org/2000/svg" xmlns:xlink="http://www.w3.org/1999/xlink" viewBox="0 0 218 218"><defs><style>.cls-1,.cls-16{fill:none;}.cls-2{clip-path:url(#clip-path);}.cls-3{clip-path:url(#clip-path-2);}.cls-4{clip-path:url(#clip-path-3);}.cls-5{fill:#9b7656;}.cls-6{fill:#f1d8bc;}.cls-10,.cls-15,.cls-16,.cls-18,.cls-19,.cls-20,.cls-6,.cls-9{stroke:#40210d;}.cls-10,.cls-11,.cls-12,.cls-13,.cls-14,.cls-15,.cls-16,.cls-18,.cls-19,.cls-20,.cls-6,.cls-9{stroke-linecap:round;stroke-linejoin:round;stroke-width:2px;}.cls-7{clip-path:url(#clip-path-4);}.cls-8{fill:#fff1e1;}.cls-9{fill:#7f4f21;}.cls-10,.cls-12{fill:#fff;}.cls-11{fill:#f5dcbe;}.cls-11,.cls-12,.cls-13,.cls-14{stroke:#42210b;}.cls-13{fill:#e6e6e6;}.cls-14{fill:#534741;}.cls-15{fill:#273288;}.cls-17{fill:#40210d;}.cls-18{fill:#6a3906;}.cls-19{fill:#e50012;}.cls-20{fill:#42210b;}.cls-21{clip-path:url(#clip-path-5);}.cls-22{fill:#fff000;}.cls-23{fill:#40220f;}.cls-24{fill:#8dc21f;}.cls-25{fill:#036eb7;}.cls-26{fill:#f29600;}</style><clipPath id="clip-path"><rect id="SVGID" class="cls-1" x="-228" y="-232" width="200" height="200" rx="10"/></clipPath><clipPath id="clip-path-2"><rect id="SVGID-2" data-name="SVGID" class="cls-1" x="246" y="-230" width="200" height="200" rx="10"/></clipPath><clipPath id="clip-path-3"><rect id="SVGID-3" data-name="SVGID" class="cls-1" x="-55.76" y="-298" width="568.77" height="326.6"/></clipPath><clipPath id="clip-path-4"><rect id="SVGID-4" data-name="SVGID" class="cls-1" x="-229" y="9" width="200" height="200" rx="10"/></clipPath><clipPath id="clip-path-5"><rect id="SVGID-5" data-name="SVGID" class="cls-1" x="248.06" y="10.44" width="200" height="200" rx="10"/></clipPath></defs><title>17-2 体の動きを高める</title><g class="cls-3"><g class="cls-4"><path class="cls-5" d="M395.61-86l-.5-1.12-1.65.75L201-119.27l-.27,0-380.4,66-2.12.37L-18.46,294.32l.85,1.81L479.12-71.68ZM279-102.61l46.95,8-455,145.94L-150.59,5.62,279.05-102.21ZM-152,2.6-165.95-27,235.8-110l36.14,6.18Zm484.92-96,55.2,9.44L-91,132.28l-36.64-77.92ZM200.75-116l26.18,4.48L-167.39-30.1-177-50.46ZM-89.63,135.25,393.9-82.94,471-69.74-16.34,291.11Z"/></g></g><path class="cls-6" d="M58.52,207.93a27.79,27.79,0,0,1-7.86-1.2,5,5,0,1,1,3-9.53c1.89.59,5.43,1.08,7.34.39,2.82-2.85,11-18.9,17.08-32.53a5,5,0,0,1,9.13,4.1c-15.42,34.36-20,36.58-21.56,37.31A16.49,16.49,0,0,1,58.52,207.93Z"/><g class="cls-7"><ellipse class="cls-8" cx="-122.96" cy="112.02" rx="173.57" ry="160.5"/></g><path class="cls-9" d="M150.21,109.53c-.81,6.65-3,8.87-5.51,8.6s-4-4.58-3.47-9.6,2.69-7.6,5.17-7.32S150.83,104.4,150.21,109.53Z"/><path class="cls-6" d="M134,110.49c-8.58,5.94-16.84,11.4-17,11.47-1.84,1.26-1.9,5.27-.72,7.35a3.94,3.94,0,0,0,3.77,2.1c.59-.06,2,.94,2.57.57s7.81-6.89,16.2-14.56C139.29,112.31,136.32,110.86,134,110.49Z"/><path class="cls-10" d="M147.72,104.73c-1.42-1.88-4-1.12-4-1.12-3,2.17-6.38,4.56-9.73,6.88,2.33.37,5.3,1.82,4.87,6.93,2.86-2.61,5.83-5.35,8.69-8C147.55,109.41,149.15,106.61,147.72,104.73Z"/><path class="cls-11" d="M153.36,147c-3,.77-5.93.65-8.34-1.21-5.65-4.35-6.59-15.58-6.75-18.92a4.67,4.67,0,0,1,9.34-.43c.22,4.74,1.55,10.11,2.83,11.67a8.2,8.2,0,0,0,2.39-.82C153.8,140,154.74,144,153.36,147Z"/><path class="cls-12" d="M167.31,132.56a4.66,4.66,0,0,1-.5,6.59c-2.77,2.38-8.17,6.53-13.45,7.89,1.38-3,.44-7-.53-9.71a39.66,39.66,0,0,0,7.89-5.27A4.67,4.67,0,0,1,167.31,132.56Z"/><path class="cls-13" d="M162.59,131.91c1.14-1.26,5.28-3.69,5.28-3.69l1.87-.14a10.7,10.7,0,0,1,1.68,9.53c3.41,4.21,2.66,10.56-.66,13.1a7.3,7.3,0,0,0-1.86.14s-.78-9-4-8.88C169,138.16,166.49,132.51,162.59,131.91Z"/><path class="cls-14" d="M160.72,132.06a11.88,11.88,0,0,1,7.15-3.84,10.68,10.68,0,0,1,1.68,9.54c3.41,4.2,2.67,10.56-.65,13.09-2.16-.41-1.51-8.89-5.87-8.73C167.11,138.31,164.62,132.65,160.72,132.06Z"/><path class="cls-14" d="M166.48,142.28a4.37,4.37,0,1,0,.68,8.71l1.74-.14a4.83,4.83,0,0,0,1-.94"/><path class="cls-11" d="M157.52,123.94a4.66,4.66,0,0,1,2.31,6.19l-11.55,25.33a13.68,13.68,0,0,1-8.17-4.6l11.22-24.61A4.67,4.67,0,0,1,157.52,123.94Z"/><path class="cls-12" d="M141,171.36a4.67,4.67,0,0,1-6.19,2.31,4.55,4.55,0,0,1-1.78-1.42,4.66,4.66,0,0,1-.54-4.77l7.58-16.62a13.68,13.68,0,0,0,8.17,4.6Z"/><path class="cls-10" d="M145.85,87.24s-8.67-1.81-13.11-4.95a67.94,67.94,0,0,1,8.41-16.06Z"/><path class="cls-15" d="M135.14,112.3s-2.35,9.65,2,18.41a14.11,14.11,0,0,0,7.94.26c7.6,2.11,18,.57,18,.57s4.09-7.09,1.58-20.61C154.89,108.25,135.14,112.3,135.14,112.3Z"/><line class="cls-16" x1="145.11" y1="130.97" x2="147.58" y2="124.1"/><path class="cls-10" d="M147.9,52.5c9.36,2.25,17.95,45.05,18.87,63.94-9.51,3.56-23.49,3.26-32.73-.11,1.24-17,3.93-38.25,7.64-51.28C143.94,57.11,144.35,51.65,147.9,52.5Z"/><path class="cls-9" d="M172.19,116.4c.69,7.87-1.32,11-4.26,11.27s-5.77-4.3-6.35-10.24,1.25-9.43,4.18-9.71S171.66,110.32,172.19,116.4Z"/><path class="cls-6" d="M149.79,118.31c-10.9,6.84-21.39,13.14-21.52,13.22-2.34,1.46-2.47,6-1,8.36a5,5,0,0,0,4.74,2.33c.74-.07,2.56,1,3.23.62s9.94-7.91,20.62-16.73C156.46,120.3,152.73,118.69,149.79,118.31Z"/><path class="cls-10" d="M167.19,111.6c-1.78-2.12-5-1.23-5-1.23-3.79,2.5-8.11,5.26-12.37,7.94,2.94.38,6.67,2,6.06,7.8,3.64-3,7.42-6.14,11.07-9.2C166.92,116.91,169,113.71,167.19,111.6Z"/><path class="cls-6" d="M165.2,80.91l6.15,33.6A4.23,4.23,0,0,1,163,116l-5.95-32.5"/><path class="cls-10" d="M153.15,80.87s-.11,4.33,1.51,6.46a35.06,35.06,0,0,0,13.5-3A25.65,25.65,0,0,0,164.25,71c-3-4.3-6.23-4.81-6.23-4.81"/><ellipse class="cls-6" cx="148.41" cy="69.28" rx="3.3" ry="4.76"/><path class="cls-6" d="M127.88,40.23a4.65,4.65,0,0,0-3.75-1.78c-2.69.12-4.77,2.75-4.64,5.88s2.42,5.59,5.11,5.47a4.53,4.53,0,0,0,3.27-1.66"/><path class="cls-6" d="M185,40.82c0,16.63-13.48,27.93-30.12,27.93-7.69,0-17.92-1.59-23.24-6.34-6.18-5.51-6.87-12.66-6.87-21.59a30.12,30.12,0,1,1,60.23,0Z"/><path class="cls-17" d="M135.3,18.69l8.33-2.64,10.17,3.56L152,27.91s-9.11-2-15.94-.54C131.08,24.77,135.3,18.69,135.3,18.69Z"/><path class="cls-18" d="M185,40.82a30.12,30.12,0,1,0-60.23,0v.69C127.27,29,138,26.75,138,26.75V18.43l3.43,7.39L144,18.43,145.08,26l4.36-6.86v8.32s27.26,2.71,20.37,37.91C179,60.49,185,52.07,185,40.82Z"/><path class="cls-6" d="M167.85,46.89A4.6,4.6,0,0,1,171,44.25c2.64-.56,5.3,1.48,5.94,4.55s-1,6-3.6,6.57a4.55,4.55,0,0,1-3.57-.81"/><path class="cls-6" d="M142.86,52.62a4,4,0,1,1-2.82-6.8A4,4,0,0,1,142.86,47"/><path class="cls-19" d="M139.8,58.69a18.51,18.51,0,0,0,9.77,0s-2.62,6-5.35,5.54S139.8,58.69,139.8,58.69Z"/><circle class="cls-17" cx="131.08" cy="45.11" r="1.85"/><circle class="cls-17" cx="159.47" cy="46.96" r="1.85"/><path class="cls-14" d="M138.14,175.32s4.33-3,4.57-7.64c-7.5,1.49-8.62-4.84-8.62-4.84l-6.67,6.82Z"/><path class="cls-14" d="M138,178c-1.74,3.29-13.66-3-11.92-6.31A6.74,6.74,0,1,1,138,178Z"/><path class="cls-14" d="M139.33,176c-1.74,3.3-13.66-3-11.92-6.3a6.74,6.74,0,1,1,11.92,6.3Z"/><path class="cls-15" d="M128.83,150.91c7-2.44,13.34-8.58,15.34-12.94a15.55,15.55,0,0,0-8.34-14.2c-2.5-1.3-3.5,1.55-3.5,1.55-.83-5.85-5.83-10.68-11.66-9.18-3.17,3.5-13.17,11.64-13.17,11.64S121.83,153.35,128.83,150.91Z"/><path class="cls-16" d="M132.33,125.32a15,15,0,0,1-4.66,3.2"/><path class="cls-10" d="M91.5,128.52s12.33-1.64,19-4.75c5.66.88,15.21,6.79,19.5,16.2,3.29,7.21,2.27,17.69,1.33,22.14-7.5-3.76-17.5-6-31.5-7C87,144.74,91.5,128.52,91.5,128.52Z"/><path class="cls-6" d="M103.33,205.13h0a5,5,0,0,1-5-5c0-.73.07-7.2,2.41-11.66,1.14-2.17,3.54-4,6.87-6.51s10.06-7.61,10.06-10.5c0-3.65-6.18-11.6-11.89-16.89a5,5,0,1,1,6.77-7.35c2.53,2.33,15.12,14.42,15.12,24.24,0,7.86-8.11,14-14,18.48a44.32,44.32,0,0,0-4.13,3.34,20.15,20.15,0,0,0-1.18,6.86A5,5,0,0,1,103.33,205.13Z"/><path class="cls-10" d="M100.5,153a41.66,41.66,0,0,1,9,10.33c6.17-2.16,10.48-5.26,13-9.16a36.45,36.45,0,0,0-11-11.2"/><path class="cls-16" d="M109.38,141.18a32.46,32.46,0,0,0-.56-3.3l.94,11.29A55,55,0,0,0,109.38,141.18Z"/><path class="cls-16" d="M109.79,149.47l0-.3v.3Z"/><path class="cls-20" d="M105.67,150.14s5.83,6.21,5,13.16-3.17,7-7,10.67-4.29,10.33-4.29,10.33-4-10.49-2.5-19.83A23,23,0,0,1,105.67,150.14Z"/><path class="cls-20" d="M62.33,158.35c-10.16,8.76-16.5,21.24-13.66,35.12-7.17-5.33-9.84-18.76-5.34-26.25S56.17,155.36,62.33,158.35Z"/><path class="cls-6" d="M107.63,141.28c1,8.67.28,17.79-5,23.07-4.9,4.87-14,6.21-22,7.14s-16.86,1.35-22.75-2.26c-6.38-3.92-9.48-12.27-10.49-20.93a30.33,30.33,0,1,1,60.26-7Z"/><path class="cls-6" d="M82.56,170a2.94,2.94,0,0,1-1.48,5.22,2.94,2.94,0,0,1-2.65-4.74"/><circle class="cls-17" cx="62.9" cy="167.11" r="1.62"/><circle class="cls-17" cx="92.35" cy="161.35" r="1.62"/><path class="cls-20" d="M68.5,148.8c17.89,4.26,40.58.78,41.26.67v-.3l-.94-11.29A32.08,32.08,0,0,0,45.65,148.6c.79,6.84,2.82,13.49,6.6,18.14A83.84,83.84,0,0,0,68.5,148.8Z"/><g class="cls-21"><path class="cls-22" d="M185.28,226.72a4.5,4.5,0,0,1-4.42-5.36,4.41,4.41,0,0,1,1.9-2.87l105.06-71a4.49,4.49,0,0,1,3.41-.68L424.1,173.91a4.5,4.5,0,0,1-.89,8.91,4.6,4.6,0,0,1-.91-.09L291.29,156,187.79,226A4.48,4.48,0,0,1,185.28,226.72Z"/><path class="cls-23" d="M290.34,147.74a3.39,3.39,0,0,1,.7.07L423.9,174.89a3.5,3.5,0,0,1-.69,6.93,3.42,3.42,0,0,1-.71-.07L291.08,155,187.23,225.12a3.5,3.5,0,1,1-3.91-5.8l105.06-71a3.43,3.43,0,0,1,2-.6m0-2a5.43,5.43,0,0,0-3.08.94l-105.06,71a5.5,5.5,0,1,0,6.15,9.12L291.5,157.09l130.6,26.62a5.22,5.22,0,0,0,1.11.11,5.5,5.5,0,0,0,1.09-10.89L291.43,145.85a5.76,5.76,0,0,0-1.09-.11Z"/><path class="cls-23" d="M225.79,110h.06a3.49,3.49,0,0,1,3.42,3.58l-3,131.53a3.49,3.49,0,0,1-3.49,3.42h-.08a3.49,3.49,0,0,1-3.42-3.58l3-131.53a3.51,3.51,0,0,1,3.52-3.42m0-2h0a5.48,5.48,0,0,0-5.52,5.37l-3,131.54a5.5,5.5,0,0,0,5.37,5.62h.13a5.52,5.52,0,0,0,5.49-5.37l3-131.54A5.5,5.5,0,0,0,225.9,108Z"/><path class="cls-22" d="M182.63,228.51a4.5,4.5,0,0,1-2.53-8.22l2.65-1.8a4.5,4.5,0,0,1,5.05,7.45l-2.65,1.8A4.45,4.45,0,0,1,182.63,228.51Z"/><path class="cls-23" d="M185.27,218.72a3.5,3.5,0,0,1,2,6.39l-2.65,1.8a3.5,3.5,0,1,1-3.93-5.79l2.65-1.8a3.47,3.47,0,0,1,2-.6m0-2h0a5.45,5.45,0,0,0-3.08.94l-2.65,1.8a5.5,5.5,0,0,0,6.17,9.11l2.65-1.8a5.5,5.5,0,0,0-3.09-10.05Z"/><path class="cls-22" d="M183.71,180.19a4.5,4.5,0,0,1-2.21-8.42L291.16,110a4.53,4.53,0,0,1,2.21-.58,4.22,4.22,0,0,1,.79.07l134.29,23.86a4.51,4.51,0,0,1,3.65,5.21,4.5,4.5,0,0,1-4.44,3.72,5.14,5.14,0,0,1-.78-.07L294.17,118.65l-108.26,61A4.46,4.46,0,0,1,183.71,180.19Z"/><path class="cls-23" d="M293.37,110.44a4.18,4.18,0,0,1,.61,0l134.3,23.86a3.5,3.5,0,0,1-.62,7,3.23,3.23,0,0,1-.61-.06L294,117.61,185.42,178.74a3.5,3.5,0,0,1-3.43-6.1l109.66-61.75a3.48,3.48,0,0,1,1.72-.45m0-2a5.55,5.55,0,0,0-2.7.71L181,170.9a5.5,5.5,0,0,0-2.1,7.49,5.53,5.53,0,0,0,4.8,2.8,5.58,5.58,0,0,0,2.7-.71L294.35,119.7,426.7,143.21a5.2,5.2,0,0,0,1,.09,5.5,5.5,0,0,0,1-10.92l-134.3-23.85a5.12,5.12,0,0,0-1-.09Z"/><path class="cls-22" d="M180.71,181.88a4.5,4.5,0,0,1-2.21-8.42l3-1.69a4.5,4.5,0,1,1,4.42,7.84l-3,1.69A4.5,4.5,0,0,1,180.71,181.88Z"/><path class="cls-23" d="M183.7,172.19a3.5,3.5,0,0,1,1.72,6.55l-3,1.69a3.53,3.53,0,0,1-1.72.45,3.5,3.5,0,0,1-1.72-6.55l3-1.69a3.42,3.42,0,0,1,1.71-.45m0-2h0a5.41,5.41,0,0,0-2.69.71l-3,1.68a5.5,5.5,0,1,0,5.4,9.59l3-1.69a5.5,5.5,0,0,0-2.71-10.29Z"/><path class="cls-24" d="M184.76,133.65a4.5,4.5,0,0,1-2-8.54L294.62,70.34a4.5,4.5,0,0,1,4,8.08L186.73,133.19A4.38,4.38,0,0,1,184.76,133.65Z"/><path class="cls-23" d="M296.59,70.88a3.5,3.5,0,0,1,1.55,6.65L186.29,132.29a3.37,3.37,0,0,1-1.53.36,3.5,3.5,0,0,1-1.55-6.64L295.06,71.24a3.5,3.5,0,0,1,1.53-.36m0-2h0a5.46,5.46,0,0,0-2.41.56L182.33,124.21a5.5,5.5,0,0,0,4.84,9.88L299,79.32a5.5,5.5,0,0,0-2.42-10.44Z"/><path class="cls-25" d="M346.68,219a4,4,0,0,1-1-.11l-163-36.42a4.5,4.5,0,0,1-3.41-5.37,4.45,4.45,0,0,1,4.38-3.52,4.12,4.12,0,0,1,1,.11l163,36.42a4.5,4.5,0,0,1-1,8.89Z"/><path class="cls-23" d="M183.65,174.54a3.36,3.36,0,0,1,.77.08l163,36.43a3.5,3.5,0,0,1-.76,6.91,3.33,3.33,0,0,1-.76-.08l-163-36.43a3.5,3.5,0,0,1,.75-6.91m0-2h0a5.5,5.5,0,0,0-1.19,10.87l163,36.42a5.44,5.44,0,0,0,1.2.13,5.5,5.5,0,0,0,1.2-10.87l-163-36.42a5.47,5.47,0,0,0-1.21-.13Z"/><path class="cls-26" d="M344.16,325.87a4.51,4.51,0,0,1-4.39-4.6l3.48-154.37L189.13,134.66,186,274.82a4.49,4.49,0,0,1-4.43,4.4h-.19a4.51,4.51,0,0,1-4.38-4.6l3.27-145.57a4.48,4.48,0,0,1,1.7-3.42,4.54,4.54,0,0,1,2.8-1,4.7,4.7,0,0,1,.92.09l163.08,34.12a4.51,4.51,0,0,1,3.58,4.51l-3.56,158.1a4.52,4.52,0,0,1-4.49,4.4Z"/><path class="cls-23" d="M184.75,125.65a3.51,3.51,0,0,1,.72.07l163.08,34.12a3.5,3.5,0,0,1,2.78,3.51l-3.56,158.1a3.5,3.5,0,0,1-3.49,3.42h-.09a3.51,3.51,0,0,1-3.42-3.58l3.5-155.19L188.16,133.44,185,274.8a3.47,3.47,0,0,1-3.43,3.42h-.15a3.5,3.5,0,0,1-3.42-3.58l3.27-145.57a3.51,3.51,0,0,1,1.33-2.66,3.46,3.46,0,0,1,2.17-.76m0-2h0a5.5,5.5,0,0,0-5.5,5.38L176,274.6a5.52,5.52,0,0,0,5.38,5.62h.19a5.5,5.5,0,0,0,5.43-5.37l3.12-139,152.13,31.82-3.46,153.53a5.52,5.52,0,0,0,5.38,5.63h.13a5.52,5.52,0,0,0,5.49-5.38l3.56-158.1a5.51,5.51,0,0,0-4.37-5.51L185.88,123.77a5.35,5.35,0,0,0-1.13-.12Z"/><path class="cls-22" d="M185.28,225.72a3.5,3.5,0,0,1-2-6.4l105.06-71a3.47,3.47,0,0,1,2.66-.53L423.9,174.89a3.5,3.5,0,1,1-1.4,6.86L291.08,155,187.23,225.12A3.52,3.52,0,0,1,185.28,225.72Z"/><path class="cls-22" d="M183.71,179.19a3.5,3.5,0,0,1-1.72-6.55l109.66-61.75a3.51,3.51,0,0,1,2.33-.4l134.3,23.86a3.5,3.5,0,1,1-1.23,6.89L294,117.61,185.42,178.74A3.53,3.53,0,0,1,183.71,179.19Z"/><path class="cls-22" d="M180.71,180.88a3.5,3.5,0,0,1-1.72-6.55l3-1.69a3.5,3.5,0,1,1,3.43,6.1l-3,1.69A3.53,3.53,0,0,1,180.71,180.88Z"/><path class="cls-24" d="M184.76,132.65a3.5,3.5,0,0,1-1.55-6.64L295.06,71.24a3.5,3.5,0,0,1,3.08,6.29L186.29,132.29A3.37,3.37,0,0,1,184.76,132.65Z"/><path class="cls-25" d="M346.68,218a3.33,3.33,0,0,1-.76-.08l-163-36.43a3.5,3.5,0,1,1,1.52-6.83l163,36.43a3.5,3.5,0,0,1-.76,6.91Z"/><path class="cls-26" d="M344.28,324.87h-.09a3.51,3.51,0,0,1-3.42-3.58l3.5-155.19L188.16,133.44,185,274.8a3.5,3.5,0,1,1-7-.16l3.27-145.57a3.52,3.52,0,0,1,4.22-3.35l163.08,34.12a3.5,3.5,0,0,1,2.78,3.51l-3.56,158.1A3.5,3.5,0,0,1,344.28,324.87Z"/></g></svg>