<svg id="レイヤー_1" data-name="レイヤー 1" xmlns="http://www.w3.org/2000/svg" xmlns:xlink="http://www.w3.org/1999/xlink" viewBox="0 0 218 218"><defs><style>.cls-1,.cls-10{fill:none;}.cls-2{clip-path:url(#clip-path);}.cls-3{fill:#9fa0a0;}.cls-10,.cls-3,.cls-4,.cls-5,.cls-6,.cls-7,.cls-8,.cls-9{stroke:#42210b;stroke-linecap:round;stroke-linejoin:round;stroke-width:2px;}.cls-4{fill:#0068b2;}.cls-11,.cls-5{fill:#42210b;}.cls-6{fill:#f5dcbe;}.cls-7{fill:#2c3493;}.cls-13,.cls-8{fill:#fff;}.cls-9{fill:#534741;}.cls-12{fill:#40220f;}</style><clipPath id="clip-path"><rect id="SVGID" class="cls-1" x="9" y="9" width="200" height="200" rx="11.11"/></clipPath></defs><title>25-2-2 トランポリン</title><g class="cls-2"><path class="cls-3" d="M143.05,139.37a2.23,2.23,0,0,1-2.23-2.23V115.39c0-1.23.26-1.39,1.49-1.39s3-2.15,3-.93v24.07A2.23,2.23,0,0,1,143.05,139.37Z"/><path class="cls-3" d="M172.87,169.63a2.23,2.23,0,0,1-2.22-2.22V142.86a2.22,2.22,0,1,1,4.44,0v24.55A2.22,2.22,0,0,1,172.87,169.63Z"/><path class="cls-3" d="M135,155.86a2.22,2.22,0,0,1-2.23-2.22V129.87a2.23,2.23,0,0,1,4.45,0v23.77A2.22,2.22,0,0,1,135,155.86Z"/><path class="cls-4" d="M225.84,137.24c-15.75,7.8-51.13,7.8-76.12,0-23.21-7.25-26.47-18-9.75-24,15.67-5.67,44.8-5.67,67.18,0C231,119.28,240.48,130,225.84,137.24Z"/><path class="cls-5" d="M213.05,133.14c-10.89,5.13-34.61,5.13-51.66,0-16.22-4.87-19.2-12.29-7.84-16.59,10.85-4.11,31.59-4.11,47.38,0C217.46,120.85,223.41,128.27,213.05,133.14Z"/></g><path class="cls-6" d="M82.83,125.29c5.08.88,13.26-9.83,13.26-9.83s.12,6.38,2.85,5.88,4-12,1.35-13-4.42,1.46-4.42,1.46L84.13,115S77.76,124.41,82.83,125.29Z"/><path class="cls-6" d="M87.26,123.82a5.45,5.45,0,0,1-3.75,1.51c-.22,0-.45,0-.68,0a5.46,5.46,0,0,1-4.74-6.09c.07-.63,2-15.66,12.93-26.32a5.46,5.46,0,0,1,7.63,7.81c-5.21,5.09-7.75,11.84-8.89,16"/><path class="cls-6" d="M116,125.33a5.46,5.46,0,0,1-5.1-3.51L102.1,98.73a5.46,5.46,0,0,1,10.2-3.89l8.81,23.08a5.45,5.45,0,0,1-3.15,7A5.54,5.54,0,0,1,116,125.33Z"/><path class="cls-7" d="M79.09,111.55a33.81,33.81,0,0,0,13.1,2.21s2.74-7,8-6.73,5.18,6.47,5.18,6.47c9.87.38,14.77-2.46,14.77-2.46a95.51,95.51,0,0,0-5.68-14.29L114,93.39H87l-.45,3.86A73.94,73.94,0,0,0,79.09,111.55Z"/><path class="cls-8" d="M87,73.66l-.79,22.25a46.44,46.44,0,0,1,28.34.84c.57-9.45.57-22,.57-22L119.14,77s5-6,6-12.54a36,36,0,0,0-12.42-6.09l-24.13-.21S78.81,60,73.77,63.59a23,23,0,0,0,6.67,11.55Z"/><circle class="cls-6" cx="100.28" cy="61.96" r="3.8"/><ellipse class="cls-6" cx="75.16" cy="49.66" rx="4.12" ry="5.09" transform="translate(-8.64 16.61) rotate(-11.93)"/><ellipse class="cls-6" cx="125.18" cy="49.66" rx="5.09" ry="4.12" transform="translate(50.71 161.87) rotate(-78.07)"/><path class="cls-6" d="M126.15,40.91c0,6.12-1.7,12.11-5.49,15.6C115.91,60.87,108.23,62,100.28,62S84.49,60.4,79.75,56c-3.72-3.48-5.34-9-5.34-15.06C74.41,27.14,86,16,100.28,16S126.15,27.14,126.15,40.91Z"/><path class="cls-9" d="M126.15,40.91c0,.7-.2,3.58-.2,3.58l-6.79-8.25-4,4.88-4.26-5.21L106,42.1l-5.36-5.49-5.42,5.6-3.85-6L84,42l-2.67-5.79-6.61,9.11s-.32-4.19-.32-4.44C74.41,27.14,86,16,100.28,16S126.15,27.14,126.15,40.91Z"/><line class="cls-10" x1="100.28" y1="45.43" x2="100.28" y2="50.3"/><path class="cls-10" d="M96.72,55.32a5.49,5.49,0,0,0,4.43,1.84,3.62,3.62,0,0,0,3.74-2.44"/><ellipse class="cls-11" cx="113.95" cy="45.16" rx="1.35" ry="2.22" transform="translate(33.27 137.44) rotate(-70.45)"/><ellipse class="cls-11" cx="86.16" cy="45.16" rx="2.22" ry="1.35" transform="translate(-10.15 31.43) rotate(-19.55)"/><path class="cls-8" d="M126.15,40.91c-.08.7-.11,2.16-.11,2.16l-6.88-6.83-18.88-5.58L81.34,36.24l-6.93,6.83s0-1.91,0-2.16C74.33,25.28,81,13.53,100.28,13.53,117.86,13.53,127.82,25.62,126.15,40.91Z"/><path class="cls-8" d="M74.41,43.07s6.51-9.51,25.42-9,26.21,9,26.21,9,3-17.79-25.81-17.79S74.41,43.07,74.41,43.07Z"/><path class="cls-6" d="M67.86,79.33A5.45,5.45,0,0,1,65.44,69l12.39-6.09a5.45,5.45,0,0,1,4.81,9.79L70.26,78.77A5.47,5.47,0,0,1,67.86,79.33Z"/><path class="cls-6" d="M125.18,80.59a5.44,5.44,0,0,1-3.7-1.45l-9.08-8.4a5.45,5.45,0,1,1,7.4-8l9.09,8.39a5.46,5.46,0,0,1-3.71,9.47Z"/><circle class="cls-6" cx="80.44" cy="67.16" r="6.51"/><circle class="cls-6" cx="115.07" cy="67.16" r="6.51"/><path class="cls-12" d="M181.14,125.08a1.62,1.62,0,0,1-1.58-1.31c-.06-.32-6.59-32.7-24-39.85a18.5,18.5,0,0,0-7.1-1.4c-5.21,0-10.89,2.09-16.89,6.2a1.56,1.56,0,0,1-.91.29,1.61,1.61,0,0,1-.91-2.94c6.55-4.5,12.84-6.78,18.69-6.78a21.93,21.93,0,0,1,8.35,1.65c12.14,5,19.22,20.2,22.76,30.6V87.39a1.61,1.61,0,0,1,3.22,0v36.08a1.6,1.6,0,0,1-1.45,1.6Z"/><path class="cls-13" d="M148.42,79.79a21.39,21.39,0,0,1,8.16,1.61c13.06,5.36,20.2,22.69,23.45,33.31V87.4a1.11,1.11,0,1,1,2.22,0v36.07a1.1,1.1,0,0,1-1,1.1h-.11a1.12,1.12,0,0,1-1.09-.9c-.06-.33-6.56-32.94-24.32-40.22A19,19,0,0,0,148.44,82c-5.32,0-11.06,2.1-17.17,6.29A1.11,1.11,0,1,1,130,86.48c6.49-4.45,12.66-6.69,18.41-6.69m0-1c-5.95,0-12.33,2.31-19,6.86a2.11,2.11,0,0,0,1.19,3.86,2.09,2.09,0,0,0,1.19-.37c5.92-4.06,11.51-6.12,16.61-6.12a18.11,18.11,0,0,1,6.91,1.36c17.23,7.07,23.66,39.16,23.72,39.49a2.11,2.11,0,0,0,2.07,1.71h.2a2.11,2.11,0,0,0,1.91-2.1V87.4a2.11,2.11,0,1,0-4.22,0v21.25C175.2,98.39,168.25,85.11,157,80.48a22.35,22.35,0,0,0-8.54-1.69Z"/></svg>