<svg id="レイヤー_1" data-name="レイヤー 1" xmlns="http://www.w3.org/2000/svg" viewBox="0 0 161.81 150.28"><defs><style>.cls-1{fill:#f2d9bd;}.cls-1,.cls-10,.cls-11,.cls-12,.cls-14,.cls-15,.cls-16,.cls-17,.cls-2,.cls-3,.cls-4,.cls-5,.cls-6,.cls-7,.cls-8,.cls-9{stroke:#41210d;stroke-linecap:round;}.cls-1,.cls-10,.cls-11,.cls-12,.cls-14,.cls-15,.cls-17,.cls-2,.cls-3,.cls-4,.cls-5,.cls-6,.cls-7,.cls-8,.cls-9{stroke-linejoin:round;}.cls-2{fill:#dcdddd;}.cls-3{fill:#d71618;}.cls-4{fill:#f2c41c;}.cls-5{fill:#0e9149;}.cls-6{fill:#3f220e;}.cls-7{fill:#0363a6;}.cls-8{fill:#98c67f;}.cls-9{fill:#1c96d4;}.cls-10,.cls-13{fill:#41210d;}.cls-11{fill:#099795;}.cls-12{fill:#f5e928;}.cls-14,.cls-16{fill:none;}.cls-15{fill:#6a3906;}.cls-16{stroke-miterlimit:10;}.cls-17{fill:#604c3f;}</style></defs><title>一緒に遊べない</title><path class="cls-1" d="M133.92,83.87a4.12,4.12,0,0,1-1.63-.35c-18.07-8.09-24.57-17-24.84-17.32a4,4,0,0,1,6.48-4.69c.12.16,5.85,7.64,21.63,14.7a4,4,0,0,1-1.64,7.66Z"/><path class="cls-2" d="M120.57,81a1.25,1.25,0,0,0,1.62-.51c3.86-6.82,10.05-5,10.31-4.91a1.27,1.27,0,0,0,1.57-.83,1.25,1.25,0,0,0-.83-1.56c-.08,0-8.39-2.48-13.23,6.07a1.25,1.25,0,0,0,.48,1.7Z"/><path class="cls-3" d="M131.76,73.82a2,2,0,0,0,.67,2.67c.87.4,2.68-3.45,1.81-3.86A2,2,0,0,0,131.76,73.82Z"/><polygon class="cls-2" points="128.61 98.11 124.93 96.38 120.31 99.39 123.99 101.11 128.61 98.11"/><rect class="cls-2" x="120.94" y="98.99" width="1.7" height="4.06" transform="translate(-21.39 168.38) rotate(-64.87)"/><polygon class="cls-2" points="123.27 102.66 123.99 101.11 128.61 98.11 127.87 99.68 123.27 102.66"/><polygon class="cls-2" points="132.74 100.05 129.06 98.32 124.45 101.33 128.13 103.05 132.74 100.05"/><rect class="cls-2" x="125.07" y="100.93" width="1.7" height="4.06" transform="translate(-20.77 173.24) rotate(-64.87)"/><polygon class="cls-2" points="127.4 104.59 128.13 103.05 132.74 100.05 132 101.62 127.4 104.59"/><polyline class="cls-2" points="123.28 98.38 128.88 86.44 130.63 87.26 125.03 99.2"/><polyline class="cls-2" points="127.39 100.31 133 88.37 134.75 89.19 129.15 101.14"/><rect class="cls-2" x="129.42" y="72.92" width="10.55" height="11.61" transform="translate(46.18 -49.75) rotate(25.13)"/><polygon class="cls-2" points="130.63 87.26 131.97 86.69 126.56 98.21 125.03 99.2 130.63 87.26"/><polygon class="cls-2" points="134.75 89.19 136.09 88.62 130.68 100.14 129.15 101.14 134.75 89.19"/><rect class="cls-3" x="125.66" y="83.69" width="10.55" height="6.1" transform="translate(49.23 -47.39) rotate(25.13)"/><polygon class="cls-3" points="134.41 91.74 138.6 90.33 140.88 85.47 137 86.22 134.41 91.74"/><polygon class="cls-2" points="140.88 85.47 146.06 74.43 141.93 75.71 137 86.22 140.88 85.47"/><rect class="cls-2" x="130.33" y="60.89" width="19.06" height="13.16" transform="translate(41.89 -53.01) rotate(25.13)"/><polygon class="cls-2" points="145.7 77.47 149.81 77.37 154.89 66.53 151.29 65.56 145.7 77.47"/><polygon class="cls-2" points="154.89 66.53 139.44 59.15 134.03 57.46 151.29 65.56 154.89 66.53"/><circle class="cls-4" cx="136.31" cy="63.88" r="1.74"/><circle class="cls-4" cx="144.49" cy="67.71" r="1.74"/><circle class="cls-4" cx="128.89" cy="85.78" r="1.23"/><circle class="cls-4" cx="132.96" cy="87.69" r="1.23"/><path class="cls-5" d="M135.77,80.48s-1.54-4.9.13-5.28.93,2.57.93,2.57,1.31-3,2.67-.89S135.77,80.48,135.77,80.48Z"/><rect class="cls-6" x="133.33" y="69.75" width="10.15" height="1.65" transform="translate(43.08 -52.1) rotate(25.13)"/><rect class="cls-6" x="145.17" y="52.14" width="1.63" height="9.77" transform="translate(38.04 -56.6) rotate(25.13)"/><circle class="cls-3" cx="148.06" cy="52.6" r="1.74"/><path class="cls-2" d="M145.78,92.79a1.25,1.25,0,0,1-.63-1.58c2.77-7.32-2.59-10.91-2.82-11.06a1.25,1.25,0,1,1,1.36-2.1c.08,0,7.28,4.87,3.79,14a1.25,1.25,0,0,1-1.61.73Z"/><path class="cls-3" d="M144.13,79.62a2,2,0,0,1-2.48,1.19c-.87-.41.93-4.26,1.8-3.86A2,2,0,0,1,144.13,79.62Z"/><path class="cls-7" d="M96.64,137c0,3.2-11.62,3.2-11.62,0a5.81,5.81,0,0,1,11.62,0Z"/><path class="cls-7" d="M117.22,137c0,3.2-11.61,3.2-11.61,0a5.81,5.81,0,1,1,11.61,0Z"/><path class="cls-8" d="M110.49,54.94c3.15,2.09,6.22,6.57,10.38,10.15-2.2,5.49-7.62,8.58-7.62,8.58S107.73,59,110.49,54.94Z"/><path class="cls-8" d="M106.18,45.25c-4-.61-8.39,4.17-11.22,10.56C89.88,67.26,87.8,83.87,87.8,83.87h25.45S112.05,46.15,106.18,45.25Z"/><path class="cls-9" d="M97.67,76.94c-1.65.91-7.1-.53-9.87-.91C84.6,94.75,85,134.28,85,134.28a20.41,20.41,0,0,0,12.74,0c1.17-1.35-.19-24.19,2.76-24.09s2.57,19.22,2.57,23c2.13,2.31,13.55,1.81,14.61-.1-1.3-30.16-1.35-35-4.45-66.59-3.49-.56-12.16,0-12.16,0a2.08,2.08,0,0,0-2,1.76S99.31,76,97.67,76.94Z"/><circle class="cls-1" cx="105.71" cy="55.33" r="2.73"/><path class="cls-1" d="M119.21,88.77A4,4,0,0,1,117,88.1,70,70,0,0,1,97.7,68.94c-1.78-2.67,5.08-6.88,6.28-5a61.94,61.94,0,0,0,17.45,17.54,4,4,0,0,1-2.22,7.33Z"/><path class="cls-9" d="M101.73,69.64a2,2,0,0,1-2-2.41c.47-2.2,1.21-8.52-.88-11.36a3.17,3.17,0,0,0-2.45-1.35,2,2,0,1,1,.39-4,7.21,7.21,0,0,1,5.29,3c3.51,4.78,1.78,13.56,1.57,14.54A2,2,0,0,1,101.73,69.64Z"/><path class="cls-9" d="M111.55,70.09h-.16a2,2,0,0,1-1.84-2.15,48.55,48.55,0,0,0-2.39-13.35A2,2,0,0,1,111,53.4a50.82,50.82,0,0,1,2.56,14.85A2,2,0,0,1,111.55,70.09Z"/><path class="cls-8" d="M94.57,67.47s2.51,4.88,4.65,7c5.33-.76,9.67-5.86,9.67-5.86S102.59,57,98.1,56.51"/><path class="cls-1" d="M19.93,138.51a4,4,0,0,1-3.63-3.8,96.57,96.57,0,0,1,3.41-30.9,4,4,0,1,1,7.62,2.42,90.52,90.52,0,0,0-3,28.11,4,4,0,0,1-3.81,4.19A5,5,0,0,1,19.93,138.51Z"/><path class="cls-1" d="M38.87,139.61a4,4,0,0,1-4-4V109.54a4,4,0,0,1,8,0v26.07A4,4,0,0,1,38.87,139.61Z"/><path class="cls-1" d="M65.72,77.55h0a135.6,135.6,0,0,1-25.6-2.64c-2.41-.53-3.87-2.65-3.25-4.73a4.59,4.59,0,0,1,5.47-2.81h0a127,127,0,0,0,23.44,2.4c2.48,0,4.48,1.77,4.47,3.92S68.19,77.55,65.72,77.55Z"/><path class="cls-10" d="M27.66,140.23c0,3.21-11.06,3.16-11.61,0a9.66,9.66,0,0,1,.25-5.52c1.85.38,4.09-.29,5.56-.29A5.8,5.8,0,0,1,27.66,140.23Z"/><path class="cls-10" d="M34.8,133.05c-1.4,2.47-1.65,4.81-.8,5.57A5.51,5.51,0,0,0,37.77,140,10.24,10.24,0,0,0,43.1,143a7.77,7.77,0,0,0,6.09-1.1,2.71,2.71,0,0,0-.86-4.95c-3.86-.7-4.73-1.95-4.73-1.95A8.25,8.25,0,0,1,34.8,133.05Z"/><path class="cls-11" d="M17.7,99.65c-1.65,5.89-3,11.67-2.71,18.86a24.05,24.05,0,0,0,13.55,4.06c.2-2.84,1.62-7.16,3.29-7s1.36,4.25,1,7c6.07,1.21,8.72.77,13.72,0a120.23,120.23,0,0,0-1.14-19.91C38.87,99.87,19.46,93.42,17.7,99.65Z"/><polyline class="cls-12" points="35.7 75.98 45.63 78.49 48.48 66.16 35.7 63.54"/><path class="cls-12" d="M16.35,101.59c7.74,4,20.66,5,29.28,3-.25-12.41-.25-35.34-6.76-50.45C33.85,56,27.69,61,24.09,68.08,18.37,79.42,16.53,94.89,16.35,101.59Z"/><circle class="cls-1" cx="38.87" cy="65" r="2.73"/><path class="cls-1" d="M58.8,86.69a4.62,4.62,0,0,1-.82-.07,87,87,0,0,1-23.65-7.39c-1.7-.83.12-9.12,2.19-7.93A75.29,75.29,0,0,0,59.61,79c2.44.39,4.06,2.42,3.61,4.53A4.37,4.37,0,0,1,58.8,86.69Z"/><path class="cls-12" d="M31,66.16l11.1,6.9s-3,7.42-7.62,9.57c-5-2.15-9.41-4.57-9.41-4.57"/><path class="cls-1" d="M61.1,40.87c0,7.61-1.26,15.75-6.43,20.54-4.68,4.33-12.09,4-19,4-14.48,0-27.06-10.06-27.06-24.55a26.23,26.23,0,0,1,52.46,0Z"/><path class="cls-1" d="M43.87,43.84A3.09,3.09,0,1,1,44,48.12"/><circle class="cls-13" cx="27.66" cy="44.57" r="1.8"/><circle class="cls-13" cx="54.26" cy="44.57" r="1.8"/><line class="cls-14" x1="24.09" y1="39.15" x2="29.45" y2="36.83"/><line class="cls-14" x1="51.57" y1="35.86" x2="55.25" y2="37.99"/><path class="cls-3" d="M46.52,60.6c0,2.51-10.34,2.17-9.07,0a7.84,7.84,0,0,1,6.42-4.12C46.38,56.48,46.52,58.1,46.52,60.6Z"/><path class="cls-15" d="M43.87,31.41c1.32-4.06,5.82-6.24,8.59-5.22,5.35,1.95,6.75,8.08,8.64,14.68,1.09-2.81-.37-11.67-5.85-18-3.42-3.94-11.32-6.65-12.15-7-4.29-1.72-5.3-6.6-5.76-8.7-.62,1.16-2.47,7.42-6.7,7.77-8,.64-18.67,7.71-22,17.78-3.9,11.8,2.29,27.35,16.52,30.77-6.1-7.06-9.43-15.58-8.35-21.87s5.93-17.23,15.6-17.61C37.34,23.86,41.22,27,43.87,31.41Z"/><path class="cls-1" d="M19.06,48.94a2.85,2.85,0,0,1-2.25,1.25c-1.75,0-3.17-1.91-3.17-4.26s1.42-4.26,3.17-4.26A2.79,2.79,0,0,1,19,42.83"/><path class="cls-1" d="M130,33.87c-1,7.54-3.35,15.44-9.12,19.5-5.21,3.67-12.51,2.36-19.33,1.44C87.14,52.88,76,41.24,78,26.88a26.23,26.23,0,0,1,52,7Z"/><path class="cls-1" d="M112.47,34.51A3.1,3.1,0,1,1,114,40a3.14,3.14,0,0,1-2.05-1.2"/><circle class="cls-13" cx="96.31" cy="33.08" r="1.8"/><circle class="cls-13" cx="122.67" cy="36.62" r="1.8"/><path class="cls-16" d="M104,48.74s3.5-3.12,6.29-2.51c1.74.38,1.74,3.48,1.74,3.48"/><path class="cls-17" d="M83.93,33.79A80.17,80.17,0,0,0,87.6,50.86c-1.74-2.22-3.4-4.71-3.4-4.71l-.37,2.49a29.69,29.69,0,0,1-6.1-20.9C79,15.35,86.25,3.35,104,3.35s27.55,14.13,27.55,27.19L130,33.87l-2.57-5.13-4.71,1.9-2.82-4.26-3.7,4.9-2.32-5.87-4.53,5.15-2.15-5.92s-5.43,5.17-5.43,4.81a50.56,50.56,0,0,0-3.08-4.52l-3.55,5.41-2.84-5.12s-2.84,13.43-2.9,13.27c-.2-.5-.49-9.75-2.62-9.75S83.93,33.79,83.93,33.79Z"/><line class="cls-14" x1="120.87" y1="32.98" x2="125.03" y2="31.9"/><path class="cls-1" d="M87.2,36.26a2.84,2.84,0,0,1-2.39.94c-1.74-.24-2.89-2.32-2.58-4.65s2-4,3.71-3.79a2.81,2.81,0,0,1,2,1.43"/></svg>