<svg id="レイヤー_1" data-name="レイヤー 1" xmlns="http://www.w3.org/2000/svg" xmlns:xlink="http://www.w3.org/1999/xlink" viewBox="0 0 563.1 248"><defs><style>.cls-1,.cls-17,.cls-26{fill:none;}.cls-2{fill:#f3cb20;}.cls-3{fill:#fff;}.cls-4{fill:#149baf;}.cls-5{fill:#a3c53c;}.cls-6{fill:#f2e634;}.cls-18,.cls-19,.cls-20,.cls-21,.cls-23,.cls-24,.cls-25,.cls-26,.cls-28,.cls-29,.cls-6,.cls-7,.cls-8{stroke:#41210d;}.cls-13,.cls-15,.cls-17,.cls-18,.cls-19,.cls-20,.cls-21,.cls-23,.cls-24,.cls-25,.cls-26,.cls-28,.cls-29,.cls-6,.cls-7,.cls-8,.cls-9{stroke-linecap:round;stroke-linejoin:round;}.cls-7{fill:#de5511;}.cls-8{fill:#943423;}.cls-16,.cls-9{fill:#1b96ce;}.cls-11,.cls-13,.cls-14,.cls-15,.cls-17,.cls-9{stroke:#40220f;}.cls-10{fill:#1074ba;}.cls-11{fill:#a41f24;}.cls-11,.cls-14{stroke-miterlimit:10;}.cls-12{fill:#1d2a75;}.cls-13{fill:#d71718;}.cls-14{fill:#e37e22;}.cls-15,.cls-20{fill:#f1c41e;}.cls-18,.cls-22{fill:#f2d9bd;}.cls-19{fill:url(#Unnamed_Pattern);}.cls-21{fill:#988575;}.cls-23{fill:#e6e6e5;}.cls-24{fill:#9f84b6;}.cls-25{fill:url(#Unnamed_Pattern-5);}.cls-27{fill:#41210d;}.cls-28{fill:#736357;}.cls-29{fill:#e7211a;}</style><pattern id="Unnamed_Pattern" data-name="Unnamed Pattern" width="30.61" height="40.82" patternTransform="matrix(1.04, 0, 0, -1.04, -162.08, 16680.02)" patternUnits="userSpaceOnUse" viewBox="0 0 30.61 40.82"><rect class="cls-1" width="30.61" height="40.82"/><rect class="cls-2" x="28.06" y="17.86" width="2.55" height="2.55"/><rect class="cls-3" x="28.06" y="15.31" width="2.55" height="2.55"/><rect class="cls-2" x="28.06" y="12.76" width="2.55" height="2.55"/><rect class="cls-3" x="28.06" y="10.2" width="2.55" height="2.55"/><rect class="cls-3" x="28.06" y="7.65" width="2.55" height="2.55"/><rect class="cls-2" x="28.06" y="20.41" width="2.55" height="2.55"/><rect class="cls-2" x="28.06" y="22.96" width="2.55" height="2.55"/><rect class="cls-3" x="28.06" y="25.51" width="2.55" height="2.55"/><rect class="cls-2" x="28.06" y="28.06" width="2.55" height="2.55"/><rect class="cls-3" x="28.06" y="30.61" width="2.55" height="2.55"/><rect class="cls-4" x="2.55" y="17.86" width="2.55" height="2.55"/><rect class="cls-3" x="2.55" y="15.31" width="2.55" height="2.55"/><rect class="cls-2" x="2.55" y="12.76" width="2.55" height="2.55"/><rect class="cls-3" x="2.55" y="10.2" width="2.55" height="2.55"/><rect class="cls-3" x="2.55" y="7.65" width="2.55" height="2.55"/><rect class="cls-2" x="5.1" y="17.86" width="2.55" height="2.55"/><rect class="cls-3" x="5.1" y="15.31" width="2.55" height="2.55"/><rect class="cls-2" x="5.1" y="12.76" width="2.55" height="2.55"/><rect class="cls-3" x="5.1" y="10.2" width="2.55" height="2.55"/><rect class="cls-3" x="5.1" y="7.65" width="2.55" height="2.55"/><rect class="cls-2" x="7.65" y="17.86" width="2.55" height="2.55"/><rect class="cls-3" x="7.65" y="15.31" width="2.55" height="2.55"/><rect class="cls-2" x="7.65" y="12.76" width="2.55" height="2.55"/><rect class="cls-3" x="7.65" y="10.2" width="2.55" height="2.55"/><rect class="cls-3" x="7.65" y="7.65" width="2.55" height="2.55"/><rect class="cls-2" x="10.2" y="17.86" width="2.55" height="2.55"/><rect class="cls-3" x="10.2" y="15.31" width="2.55" height="2.55"/><rect class="cls-2" x="10.2" y="12.76" width="2.55" height="2.55"/><rect class="cls-3" x="10.2" y="10.2" width="2.55" height="2.55"/><rect class="cls-5" x="10.2" y="7.65" width="2.55" height="2.55"/><rect class="cls-2" x="12.76" y="17.86" width="2.55" height="2.55"/><rect class="cls-3" x="12.76" y="15.31" width="2.55" height="2.55"/><rect class="cls-2" x="12.76" y="12.76" width="2.55" height="2.55"/><rect class="cls-3" x="12.76" y="10.2" width="2.55" height="2.55"/><rect class="cls-3" x="12.76" y="7.65" width="2.55" height="2.55"/><rect class="cls-2" x="15.31" y="28.06" width="2.55" height="2.55"/><rect class="cls-3" x="15.31" y="25.51" width="2.55" height="2.55"/><rect class="cls-2" x="15.31" y="22.96" width="2.55" height="2.55"/><rect class="cls-4" x="15.31" y="20.41" width="2.55" height="2.55"/><rect class="cls-2" x="17.86" y="28.06" width="2.55" height="2.55"/><rect class="cls-3" x="17.86" y="25.51" width="2.55" height="2.55"/><rect class="cls-4" x="17.86" y="22.96" width="2.55" height="2.55"/><rect class="cls-2" x="17.86" y="20.41" width="2.55" height="2.55"/><rect class="cls-2" x="20.41" y="28.06" width="2.55" height="2.55"/><rect class="cls-3" x="20.41" y="25.51" width="2.55" height="2.55"/><rect class="cls-2" x="20.41" y="22.96" width="2.55" height="2.55"/><rect class="cls-4" x="20.41" y="20.41" width="2.55" height="2.55"/><rect class="cls-2" y="28.06" width="2.55" height="2.55"/><rect class="cls-3" y="25.51" width="2.55" height="2.55"/><rect class="cls-2" y="22.96" width="2.55" height="2.55"/><rect class="cls-4" y="20.41" width="2.55" height="2.55"/><rect class="cls-3" x="15.31" y="30.61" width="2.55" height="2.55"/><rect class="cls-3" x="17.86" y="30.61" width="2.55" height="2.55"/><rect class="cls-3" x="20.41" y="30.61" width="2.55" height="2.55"/><rect class="cls-3" y="30.61" width="2.55" height="2.55"/><rect class="cls-2" x="20.41" y="17.86" width="2.55" height="2.55"/><rect class="cls-4" x="17.86" y="17.86" width="2.55" height="2.55"/><rect class="cls-2" x="15.31" y="17.86" width="2.55" height="2.55"/><rect class="cls-3" x="20.41" y="15.31" width="2.55" height="2.55"/><rect class="cls-3" x="17.86" y="15.31" width="2.55" height="2.55"/><rect class="cls-3" x="15.31" y="15.31" width="2.55" height="2.55"/><rect class="cls-2" x="20.41" y="12.76" width="2.55" height="2.55"/><rect class="cls-2" x="17.86" y="12.76" width="2.55" height="2.55"/><rect class="cls-2" x="15.31" y="12.76" width="2.55" height="2.55"/><rect class="cls-3" x="20.41" y="10.2" width="2.55" height="2.55"/><rect class="cls-3" x="17.86" y="10.2" width="2.55" height="2.55"/><rect class="cls-3" x="15.31" y="10.2" width="2.55" height="2.55"/><rect class="cls-5" x="20.41" y="7.65" width="2.55" height="2.55"/><rect class="cls-3" x="17.86" y="7.65" width="2.55" height="2.55"/><rect class="cls-3" x="15.31" y="7.65" width="2.55" height="2.55"/><rect class="cls-2" y="17.86" width="2.55" height="2.55"/><rect class="cls-3" y="15.31" width="2.55" height="2.55"/><rect class="cls-2" y="12.76" width="2.55" height="2.55"/><rect class="cls-3" y="10.2" width="2.55" height="2.55"/><rect class="cls-5" y="7.65" width="2.55" height="2.55"/><rect class="cls-3" x="28.06" y="5.1" width="2.55" height="2.55"/><rect class="cls-3" x="2.55" y="5.1" width="2.55" height="2.55"/><rect class="cls-3" x="5.1" y="5.1" width="2.55" height="2.55"/><rect class="cls-3" x="7.65" y="5.1" width="2.55" height="2.55"/><rect class="cls-3" x="10.2" y="5.1" width="2.55" height="2.55"/><rect class="cls-3" x="12.76" y="5.1" width="2.55" height="2.55"/><rect class="cls-3" x="20.41" y="5.1" width="2.55" height="2.55"/><rect class="cls-3" x="17.86" y="5.1" width="2.55" height="2.55"/><rect class="cls-3" x="15.31" y="5.1" width="2.55" height="2.55"/><rect class="cls-3" y="5.1" width="2.55" height="2.55"/><rect class="cls-3" x="28.06" y="2.55" width="2.55" height="2.55"/><rect class="cls-3" x="2.55" y="2.55" width="2.55" height="2.55"/><rect class="cls-3" x="5.1" y="2.55" width="2.55" height="2.55"/><rect class="cls-3" x="7.65" y="2.55" width="2.55" height="2.55"/><rect class="cls-3" x="10.2" y="2.55" width="2.55" height="2.55"/><rect class="cls-3" x="12.76" y="2.55" width="2.55" height="2.55"/><rect class="cls-3" x="20.41" y="2.55" width="2.55" height="2.55"/><rect class="cls-3" x="17.86" y="2.55" width="2.55" height="2.55"/><rect class="cls-3" x="15.31" y="2.55" width="2.55" height="2.55"/><rect class="cls-3" y="2.55" width="2.55" height="2.55"/><rect class="cls-5" x="28.06" y="5.1" width="2.55" height="2.55"/><rect class="cls-5" x="2.55" y="5.1" width="2.55" height="2.55"/><rect class="cls-3" x="5.1" y="5.1" width="2.55" height="2.55"/><rect class="cls-5" x="7.65" y="5.1" width="2.55" height="2.55"/><rect class="cls-3" x="10.2" y="5.1" width="2.55" height="2.55"/><rect class="cls-5" x="12.76" y="5.1" width="2.55" height="2.55"/><rect class="cls-3" x="20.41" y="5.1" width="2.55" height="2.55"/><rect class="cls-5" x="17.86" y="5.1" width="2.55" height="2.55"/><rect class="cls-3" x="15.31" y="5.1" width="2.55" height="2.55"/><rect class="cls-3" y="5.1" width="2.55" height="2.55"/><rect class="cls-3" x="28.06" y="2.55" width="2.55" height="2.55"/><rect class="cls-3" x="2.55" y="2.55" width="2.55" height="2.55"/><rect class="cls-5" x="5.1" y="2.55" width="2.55" height="2.55"/><rect class="cls-3" x="7.65" y="2.55" width="2.55" height="2.55"/><rect class="cls-3" x="10.2" y="2.55" width="2.55" height="2.55"/><rect class="cls-3" x="12.76" y="2.55" width="2.55" height="2.55"/><rect class="cls-3" x="20.41" y="2.55" width="2.55" height="2.55"/><rect class="cls-3" x="17.86" y="2.55" width="2.55" height="2.55"/><rect class="cls-5" x="15.31" y="2.55" width="2.55" height="2.55"/><rect class="cls-3" y="2.55" width="2.55" height="2.55"/><rect class="cls-3" x="28.06" width="2.55" height="2.55"/><rect class="cls-3" x="2.55" width="2.55" height="2.55"/><rect class="cls-3" x="5.1" width="2.55" height="2.55"/><rect class="cls-3" x="7.65" width="2.55" height="2.55"/><rect class="cls-3" x="10.2" width="2.55" height="2.55"/><rect class="cls-3" x="12.76" width="2.55" height="2.55"/><rect class="cls-3" x="20.41" width="2.55" height="2.55"/><rect class="cls-3" x="17.86" width="2.55" height="2.55"/><rect class="cls-3" x="15.31" width="2.55" height="2.55"/><rect class="cls-3" width="2.55" height="2.55"/><rect class="cls-4" x="5.1" y="20.41" width="2.55" height="2.55"/><rect class="cls-2" x="7.65" y="20.41" width="2.55" height="2.55"/><rect class="cls-4" x="10.2" y="20.41" width="2.55" height="2.55"/><rect class="cls-2" x="12.76" y="20.41" width="2.55" height="2.55"/><rect class="cls-2" x="5.1" y="22.96" width="2.55" height="2.55"/><rect class="cls-2" x="7.65" y="22.96" width="2.55" height="2.55"/><rect class="cls-2" x="10.2" y="22.96" width="2.55" height="2.55"/><rect class="cls-2" x="12.76" y="22.96" width="2.55" height="2.55"/><rect class="cls-3" x="5.1" y="25.51" width="2.55" height="2.55"/><rect class="cls-3" x="7.65" y="25.51" width="2.55" height="2.55"/><rect class="cls-3" x="10.2" y="25.51" width="2.55" height="2.55"/><rect class="cls-3" x="12.76" y="25.51" width="2.55" height="2.55"/><rect class="cls-2" x="5.1" y="28.06" width="2.55" height="2.55"/><rect class="cls-2" x="7.65" y="28.06" width="2.55" height="2.55"/><rect class="cls-2" x="10.2" y="28.06" width="2.55" height="2.55"/><rect class="cls-2" x="12.76" y="28.06" width="2.55" height="2.55"/><rect class="cls-3" x="5.1" y="30.61" width="2.55" height="2.55"/><rect class="cls-3" x="7.65" y="30.61" width="2.55" height="2.55"/><rect class="cls-3" x="10.2" y="30.61" width="2.55" height="2.55"/><rect class="cls-3" x="12.76" y="30.61" width="2.55" height="2.55"/><rect class="cls-2" x="2.55" y="20.41" width="2.55" height="2.55"/><rect class="cls-4" x="2.55" y="22.96" width="2.55" height="2.55"/><rect class="cls-3" x="2.55" y="25.51" width="2.55" height="2.55"/><rect class="cls-2" x="2.55" y="28.06" width="2.55" height="2.55"/><rect class="cls-3" x="2.55" y="30.61" width="2.55" height="2.55"/><rect class="cls-3" x="28.06" y="33.17" width="2.55" height="2.55"/><rect class="cls-4" x="15.31" y="33.17" width="2.55" height="2.55"/><rect class="cls-3" x="17.86" y="33.17" width="2.55" height="2.55"/><rect class="cls-3" x="20.41" y="33.17" width="2.55" height="2.55"/><rect class="cls-3" y="33.17" width="2.55" height="2.55"/><rect class="cls-4" x="5.1" y="33.17" width="2.55" height="2.55"/><rect class="cls-3" x="7.65" y="33.17" width="2.55" height="2.55"/><rect class="cls-3" x="10.2" y="33.17" width="2.55" height="2.55"/><rect class="cls-4" x="12.76" y="33.17" width="2.55" height="2.55"/><rect class="cls-4" x="2.55" y="33.17" width="2.55" height="2.55"/><rect class="cls-4" x="28.06" y="35.72" width="2.55" height="2.55"/><rect class="cls-4" x="15.31" y="35.72" width="2.55" height="2.55"/><rect class="cls-4" x="17.86" y="35.72" width="2.55" height="2.55"/><rect class="cls-4" x="20.41" y="35.72" width="2.55" height="2.55"/><rect class="cls-4" y="35.72" width="2.55" height="2.55"/><rect class="cls-4" x="5.1" y="35.72" width="2.55" height="2.55"/><rect class="cls-4" x="7.65" y="35.72" width="2.55" height="2.55"/><rect class="cls-4" x="10.2" y="35.72" width="2.55" height="2.55"/><rect class="cls-4" x="12.76" y="35.72" width="2.55" height="2.55"/><rect class="cls-4" x="2.55" y="35.72" width="2.55" height="2.55"/><rect class="cls-4" x="28.06" y="38.27" width="2.55" height="2.55"/><rect class="cls-3" x="15.31" y="38.27" width="2.55" height="2.55"/><rect class="cls-4" x="17.86" y="38.27" width="2.55" height="2.55"/><rect class="cls-4" x="20.41" y="38.27" width="2.55" height="2.55"/><rect class="cls-2" x="22.96" y="28.06" width="2.55" height="2.55"/><rect class="cls-3" x="22.96" y="25.51" width="2.55" height="2.55"/><rect class="cls-2" x="22.96" y="22.96" width="2.55" height="2.55"/><rect class="cls-2" x="22.96" y="20.41" width="2.55" height="2.55"/><rect class="cls-2" x="25.51" y="28.06" width="2.55" height="2.55"/><rect class="cls-3" x="25.51" y="25.51" width="2.55" height="2.55"/><rect class="cls-2" x="25.51" y="22.96" width="2.55" height="2.55"/><rect class="cls-4" x="25.51" y="20.41" width="2.55" height="2.55"/><rect class="cls-3" x="22.96" y="30.61" width="2.55" height="2.55"/><rect class="cls-3" x="25.51" y="30.61" width="2.55" height="2.55"/><rect class="cls-2" x="25.51" y="17.86" width="2.55" height="2.55"/><rect class="cls-2" x="22.96" y="17.86" width="2.55" height="2.55"/><rect class="cls-3" x="25.51" y="15.31" width="2.55" height="2.55"/><rect class="cls-3" x="22.96" y="15.31" width="2.55" height="2.55"/><rect class="cls-2" x="25.51" y="12.76" width="2.55" height="2.55"/><rect class="cls-2" x="22.96" y="12.76" width="2.55" height="2.55"/><rect class="cls-3" x="25.51" y="10.2" width="2.55" height="2.55"/><rect class="cls-3" x="22.96" y="10.2" width="2.55" height="2.55"/><rect class="cls-3" x="25.51" y="7.65" width="2.55" height="2.55"/><rect class="cls-3" x="22.96" y="7.65" width="2.55" height="2.55"/><rect class="cls-3" x="25.51" y="5.1" width="2.55" height="2.55"/><rect class="cls-3" x="22.96" y="5.1" width="2.55" height="2.55"/><rect class="cls-3" x="25.51" y="2.55" width="2.55" height="2.55"/><rect class="cls-3" x="22.96" y="2.55" width="2.55" height="2.55"/><rect class="cls-3" x="25.51" y="5.1" width="2.55" height="2.55"/><rect class="cls-5" x="22.96" y="5.1" width="2.55" height="2.55"/><rect class="cls-5" x="25.51" y="2.55" width="2.55" height="2.55"/><rect class="cls-3" x="22.96" y="2.55" width="2.55" height="2.55"/><rect class="cls-3" x="25.51" width="2.55" height="2.55"/><rect class="cls-3" x="22.96" width="2.55" height="2.55"/><rect class="cls-4" x="22.96" y="33.17" width="2.55" height="2.55"/><rect class="cls-4" x="25.51" y="33.17" width="2.55" height="2.55"/><rect class="cls-4" x="22.96" y="35.72" width="2.55" height="2.55"/><rect class="cls-4" x="25.51" y="35.72" width="2.55" height="2.55"/><rect class="cls-3" x="22.96" y="38.27" width="2.55" height="2.55"/><rect class="cls-3" x="25.51" y="38.27" width="2.55" height="2.55"/><rect class="cls-4" y="38.27" width="2.55" height="2.55"/><rect class="cls-3" x="5.1" y="38.27" width="2.55" height="2.55"/><rect class="cls-4" x="7.65" y="38.27" width="2.55" height="2.55"/><rect class="cls-4" x="10.2" y="38.27" width="2.55" height="2.55"/><rect class="cls-3" x="12.76" y="38.27" width="2.55" height="2.55"/><rect class="cls-3" x="2.55" y="38.27" width="2.55" height="2.55"/></pattern><pattern id="Unnamed_Pattern-5" data-name="Unnamed Pattern" width="30.61" height="40.82" patternTransform="matrix(0.3, 0, 0, -0.3, 8.6, 5339.34)" patternUnits="userSpaceOnUse" viewBox="0 0 30.61 40.82"><rect class="cls-1" width="30.61" height="40.82"/><rect class="cls-2" x="28.06" y="17.86" width="2.55" height="2.55"/><rect class="cls-3" x="28.06" y="15.31" width="2.55" height="2.55"/><rect class="cls-2" x="28.06" y="12.76" width="2.55" height="2.55"/><rect class="cls-3" x="28.06" y="10.2" width="2.55" height="2.55"/><rect class="cls-3" x="28.06" y="7.65" width="2.55" height="2.55"/><rect class="cls-2" x="28.06" y="20.41" width="2.55" height="2.55"/><rect class="cls-2" x="28.06" y="22.96" width="2.55" height="2.55"/><rect class="cls-3" x="28.06" y="25.51" width="2.55" height="2.55"/><rect class="cls-2" x="28.06" y="28.06" width="2.55" height="2.55"/><rect class="cls-3" x="28.06" y="30.61" width="2.55" height="2.55"/><rect class="cls-4" x="2.55" y="17.86" width="2.55" height="2.55"/><rect class="cls-3" x="2.55" y="15.31" width="2.55" height="2.55"/><rect class="cls-2" x="2.55" y="12.76" width="2.55" height="2.55"/><rect class="cls-3" x="2.55" y="10.2" width="2.55" height="2.55"/><rect class="cls-3" x="2.55" y="7.65" width="2.55" height="2.55"/><rect class="cls-2" x="5.1" y="17.86" width="2.55" height="2.55"/><rect class="cls-3" x="5.1" y="15.31" width="2.55" height="2.55"/><rect class="cls-2" x="5.1" y="12.76" width="2.55" height="2.55"/><rect class="cls-3" x="5.1" y="10.2" width="2.55" height="2.55"/><rect class="cls-3" x="5.1" y="7.65" width="2.55" height="2.55"/><rect class="cls-2" x="7.65" y="17.86" width="2.55" height="2.55"/><rect class="cls-3" x="7.65" y="15.31" width="2.55" height="2.55"/><rect class="cls-2" x="7.65" y="12.76" width="2.55" height="2.55"/><rect class="cls-3" x="7.65" y="10.2" width="2.55" height="2.55"/><rect class="cls-3" x="7.65" y="7.65" width="2.55" height="2.55"/><rect class="cls-2" x="10.2" y="17.86" width="2.55" height="2.55"/><rect class="cls-3" x="10.2" y="15.31" width="2.55" height="2.55"/><rect class="cls-2" x="10.2" y="12.76" width="2.55" height="2.55"/><rect class="cls-3" x="10.2" y="10.2" width="2.55" height="2.55"/><rect class="cls-5" x="10.2" y="7.65" width="2.55" height="2.55"/><rect class="cls-2" x="12.76" y="17.86" width="2.55" height="2.55"/><rect class="cls-3" x="12.76" y="15.31" width="2.55" height="2.55"/><rect class="cls-2" x="12.76" y="12.76" width="2.55" height="2.55"/><rect class="cls-3" x="12.76" y="10.2" width="2.55" height="2.55"/><rect class="cls-3" x="12.76" y="7.65" width="2.55" height="2.55"/><rect class="cls-2" x="15.31" y="28.06" width="2.55" height="2.55"/><rect class="cls-3" x="15.31" y="25.51" width="2.55" height="2.55"/><rect class="cls-2" x="15.31" y="22.96" width="2.55" height="2.55"/><rect class="cls-4" x="15.31" y="20.41" width="2.55" height="2.55"/><rect class="cls-2" x="17.86" y="28.06" width="2.55" height="2.55"/><rect class="cls-3" x="17.86" y="25.51" width="2.55" height="2.55"/><rect class="cls-4" x="17.86" y="22.96" width="2.55" height="2.55"/><rect class="cls-2" x="17.86" y="20.41" width="2.55" height="2.55"/><rect class="cls-2" x="20.41" y="28.06" width="2.55" height="2.55"/><rect class="cls-3" x="20.41" y="25.51" width="2.55" height="2.55"/><rect class="cls-2" x="20.41" y="22.96" width="2.55" height="2.55"/><rect class="cls-4" x="20.41" y="20.41" width="2.55" height="2.55"/><rect class="cls-2" y="28.06" width="2.55" height="2.55"/><rect class="cls-3" y="25.51" width="2.55" height="2.55"/><rect class="cls-2" y="22.96" width="2.55" height="2.55"/><rect class="cls-4" y="20.41" width="2.55" height="2.55"/><rect class="cls-3" x="15.31" y="30.61" width="2.55" height="2.55"/><rect class="cls-3" x="17.86" y="30.61" width="2.55" height="2.55"/><rect class="cls-3" x="20.41" y="30.61" width="2.55" height="2.55"/><rect class="cls-3" y="30.61" width="2.55" height="2.55"/><rect class="cls-2" x="20.41" y="17.86" width="2.55" height="2.55"/><rect class="cls-4" x="17.86" y="17.86" width="2.55" height="2.55"/><rect class="cls-2" x="15.31" y="17.86" width="2.55" height="2.55"/><rect class="cls-3" x="20.41" y="15.31" width="2.55" height="2.55"/><rect class="cls-3" x="17.86" y="15.31" width="2.55" height="2.55"/><rect class="cls-3" x="15.31" y="15.31" width="2.55" height="2.55"/><rect class="cls-2" x="20.41" y="12.76" width="2.55" height="2.55"/><rect class="cls-2" x="17.86" y="12.76" width="2.55" height="2.55"/><rect class="cls-2" x="15.31" y="12.76" width="2.55" height="2.55"/><rect class="cls-3" x="20.41" y="10.2" width="2.55" height="2.55"/><rect class="cls-3" x="17.86" y="10.2" width="2.55" height="2.55"/><rect class="cls-3" x="15.31" y="10.2" width="2.55" height="2.55"/><rect class="cls-5" x="20.41" y="7.65" width="2.55" height="2.55"/><rect class="cls-3" x="17.86" y="7.65" width="2.55" height="2.55"/><rect class="cls-3" x="15.31" y="7.65" width="2.55" height="2.55"/><rect class="cls-2" y="17.86" width="2.55" height="2.55"/><rect class="cls-3" y="15.31" width="2.55" height="2.55"/><rect class="cls-2" y="12.76" width="2.55" height="2.55"/><rect class="cls-3" y="10.2" width="2.55" height="2.55"/><rect class="cls-5" y="7.65" width="2.55" height="2.55"/><rect class="cls-3" x="28.06" y="5.1" width="2.55" height="2.55"/><rect class="cls-3" x="2.55" y="5.1" width="2.55" height="2.55"/><rect class="cls-3" x="5.1" y="5.1" width="2.55" height="2.55"/><rect class="cls-3" x="7.65" y="5.1" width="2.55" height="2.55"/><rect class="cls-3" x="10.2" y="5.1" width="2.55" height="2.55"/><rect class="cls-3" x="12.76" y="5.1" width="2.55" height="2.55"/><rect class="cls-3" x="20.41" y="5.1" width="2.55" height="2.55"/><rect class="cls-3" x="17.86" y="5.1" width="2.55" height="2.55"/><rect class="cls-3" x="15.31" y="5.1" width="2.55" height="2.55"/><rect class="cls-3" y="5.1" width="2.55" height="2.55"/><rect class="cls-3" x="28.06" y="2.55" width="2.55" height="2.55"/><rect class="cls-3" x="2.55" y="2.55" width="2.55" height="2.55"/><rect class="cls-3" x="5.1" y="2.55" width="2.55" height="2.55"/><rect class="cls-3" x="7.65" y="2.55" width="2.55" height="2.55"/><rect class="cls-3" x="10.2" y="2.55" width="2.55" height="2.55"/><rect class="cls-3" x="12.76" y="2.55" width="2.55" height="2.55"/><rect class="cls-3" x="20.41" y="2.55" width="2.55" height="2.55"/><rect class="cls-3" x="17.86" y="2.55" width="2.55" height="2.55"/><rect class="cls-3" x="15.31" y="2.55" width="2.55" height="2.55"/><rect class="cls-3" y="2.55" width="2.55" height="2.55"/><rect class="cls-5" x="28.06" y="5.1" width="2.55" height="2.55"/><rect class="cls-5" x="2.55" y="5.1" width="2.55" height="2.55"/><rect class="cls-3" x="5.1" y="5.1" width="2.55" height="2.55"/><rect class="cls-5" x="7.65" y="5.1" width="2.55" height="2.55"/><rect class="cls-3" x="10.2" y="5.1" width="2.55" height="2.55"/><rect class="cls-5" x="12.76" y="5.1" width="2.55" height="2.55"/><rect class="cls-3" x="20.41" y="5.1" width="2.55" height="2.55"/><rect class="cls-5" x="17.86" y="5.1" width="2.55" height="2.55"/><rect class="cls-3" x="15.31" y="5.1" width="2.55" height="2.55"/><rect class="cls-3" y="5.1" width="2.55" height="2.55"/><rect class="cls-3" x="28.06" y="2.55" width="2.55" height="2.55"/><rect class="cls-3" x="2.55" y="2.55" width="2.55" height="2.55"/><rect class="cls-5" x="5.1" y="2.55" width="2.55" height="2.55"/><rect class="cls-3" x="7.65" y="2.55" width="2.55" height="2.55"/><rect class="cls-3" x="10.2" y="2.55" width="2.55" height="2.55"/><rect class="cls-3" x="12.76" y="2.55" width="2.55" height="2.55"/><rect class="cls-3" x="20.41" y="2.55" width="2.55" height="2.55"/><rect class="cls-3" x="17.86" y="2.55" width="2.55" height="2.55"/><rect class="cls-5" x="15.31" y="2.55" width="2.55" height="2.55"/><rect class="cls-3" y="2.55" width="2.55" height="2.55"/><rect class="cls-3" x="28.06" width="2.55" height="2.55"/><rect class="cls-3" x="2.55" width="2.55" height="2.55"/><rect class="cls-3" x="5.1" width="2.55" height="2.55"/><rect class="cls-3" x="7.65" width="2.55" height="2.55"/><rect class="cls-3" x="10.2" width="2.55" height="2.55"/><rect class="cls-3" x="12.76" width="2.55" height="2.55"/><rect class="cls-3" x="20.41" width="2.55" height="2.55"/><rect class="cls-3" x="17.86" width="2.55" height="2.55"/><rect class="cls-3" x="15.31" width="2.55" height="2.55"/><rect class="cls-3" width="2.55" height="2.55"/><rect class="cls-4" x="5.1" y="20.41" width="2.55" height="2.55"/><rect class="cls-2" x="7.65" y="20.41" width="2.55" height="2.55"/><rect class="cls-4" x="10.2" y="20.41" width="2.55" height="2.55"/><rect class="cls-2" x="12.76" y="20.41" width="2.55" height="2.55"/><rect class="cls-2" x="5.1" y="22.96" width="2.55" height="2.55"/><rect class="cls-2" x="7.65" y="22.96" width="2.55" height="2.55"/><rect class="cls-2" x="10.2" y="22.96" width="2.55" height="2.55"/><rect class="cls-2" x="12.76" y="22.96" width="2.55" height="2.55"/><rect class="cls-3" x="5.1" y="25.51" width="2.55" height="2.55"/><rect class="cls-3" x="7.65" y="25.51" width="2.55" height="2.55"/><rect class="cls-3" x="10.2" y="25.51" width="2.55" height="2.55"/><rect class="cls-3" x="12.76" y="25.51" width="2.55" height="2.55"/><rect class="cls-2" x="5.1" y="28.06" width="2.55" height="2.55"/><rect class="cls-2" x="7.65" y="28.06" width="2.55" height="2.55"/><rect class="cls-2" x="10.2" y="28.06" width="2.55" height="2.55"/><rect class="cls-2" x="12.76" y="28.06" width="2.55" height="2.55"/><rect class="cls-3" x="5.1" y="30.61" width="2.55" height="2.55"/><rect class="cls-3" x="7.65" y="30.61" width="2.55" height="2.55"/><rect class="cls-3" x="10.2" y="30.61" width="2.55" height="2.55"/><rect class="cls-3" x="12.76" y="30.61" width="2.55" height="2.55"/><rect class="cls-2" x="2.55" y="20.41" width="2.55" height="2.55"/><rect class="cls-4" x="2.55" y="22.96" width="2.55" height="2.55"/><rect class="cls-3" x="2.55" y="25.51" width="2.55" height="2.55"/><rect class="cls-2" x="2.55" y="28.06" width="2.55" height="2.55"/><rect class="cls-3" x="2.55" y="30.61" width="2.55" height="2.55"/><rect class="cls-3" x="28.06" y="33.17" width="2.55" height="2.55"/><rect class="cls-4" x="15.31" y="33.17" width="2.55" height="2.55"/><rect class="cls-3" x="17.86" y="33.17" width="2.55" height="2.55"/><rect class="cls-3" x="20.41" y="33.17" width="2.55" height="2.55"/><rect class="cls-3" y="33.17" width="2.55" height="2.55"/><rect class="cls-4" x="5.1" y="33.17" width="2.55" height="2.55"/><rect class="cls-3" x="7.65" y="33.17" width="2.55" height="2.55"/><rect class="cls-3" x="10.2" y="33.17" width="2.55" height="2.55"/><rect class="cls-4" x="12.76" y="33.17" width="2.55" height="2.55"/><rect class="cls-4" x="2.55" y="33.17" width="2.55" height="2.55"/><rect class="cls-4" x="28.06" y="35.72" width="2.55" height="2.55"/><rect class="cls-4" x="15.31" y="35.72" width="2.55" height="2.55"/><rect class="cls-4" x="17.86" y="35.72" width="2.55" height="2.55"/><rect class="cls-4" x="20.41" y="35.72" width="2.55" height="2.55"/><rect class="cls-4" y="35.72" width="2.55" height="2.55"/><rect class="cls-4" x="5.1" y="35.72" width="2.55" height="2.55"/><rect class="cls-4" x="7.65" y="35.72" width="2.55" height="2.55"/><rect class="cls-4" x="10.2" y="35.72" width="2.55" height="2.55"/><rect class="cls-4" x="12.76" y="35.72" width="2.55" height="2.55"/><rect class="cls-4" x="2.55" y="35.72" width="2.55" height="2.55"/><rect class="cls-4" x="28.06" y="38.27" width="2.55" height="2.55"/><rect class="cls-3" x="15.31" y="38.27" width="2.55" height="2.55"/><rect class="cls-4" x="17.86" y="38.27" width="2.55" height="2.55"/><rect class="cls-4" x="20.41" y="38.27" width="2.55" height="2.55"/><rect class="cls-2" x="22.96" y="28.06" width="2.55" height="2.55"/><rect class="cls-3" x="22.96" y="25.51" width="2.55" height="2.55"/><rect class="cls-2" x="22.96" y="22.96" width="2.55" height="2.55"/><rect class="cls-2" x="22.96" y="20.41" width="2.55" height="2.55"/><rect class="cls-2" x="25.51" y="28.06" width="2.55" height="2.55"/><rect class="cls-3" x="25.51" y="25.51" width="2.55" height="2.55"/><rect class="cls-2" x="25.51" y="22.96" width="2.55" height="2.55"/><rect class="cls-4" x="25.51" y="20.41" width="2.55" height="2.55"/><rect class="cls-3" x="22.96" y="30.61" width="2.55" height="2.55"/><rect class="cls-3" x="25.51" y="30.61" width="2.55" height="2.55"/><rect class="cls-2" x="25.51" y="17.86" width="2.55" height="2.55"/><rect class="cls-2" x="22.96" y="17.86" width="2.55" height="2.55"/><rect class="cls-3" x="25.51" y="15.31" width="2.55" height="2.55"/><rect class="cls-3" x="22.96" y="15.31" width="2.55" height="2.55"/><rect class="cls-2" x="25.51" y="12.76" width="2.55" height="2.55"/><rect class="cls-2" x="22.96" y="12.76" width="2.55" height="2.55"/><rect class="cls-3" x="25.51" y="10.2" width="2.55" height="2.55"/><rect class="cls-3" x="22.96" y="10.2" width="2.55" height="2.55"/><rect class="cls-3" x="25.51" y="7.65" width="2.55" height="2.55"/><rect class="cls-3" x="22.96" y="7.65" width="2.55" height="2.55"/><rect class="cls-3" x="25.51" y="5.1" width="2.55" height="2.55"/><rect class="cls-3" x="22.96" y="5.1" width="2.55" height="2.55"/><rect class="cls-3" x="25.51" y="2.55" width="2.55" height="2.55"/><rect class="cls-3" x="22.96" y="2.55" width="2.55" height="2.55"/><rect class="cls-3" x="25.51" y="5.1" width="2.55" height="2.55"/><rect class="cls-5" x="22.96" y="5.1" width="2.55" height="2.55"/><rect class="cls-5" x="25.51" y="2.55" width="2.55" height="2.55"/><rect class="cls-3" x="22.96" y="2.55" width="2.55" height="2.55"/><rect class="cls-3" x="25.51" width="2.55" height="2.55"/><rect class="cls-3" x="22.96" width="2.55" height="2.55"/><rect class="cls-4" x="22.96" y="33.17" width="2.55" height="2.55"/><rect class="cls-4" x="25.51" y="33.17" width="2.55" height="2.55"/><rect class="cls-4" x="22.96" y="35.72" width="2.55" height="2.55"/><rect class="cls-4" x="25.51" y="35.72" width="2.55" height="2.55"/><rect class="cls-3" x="22.96" y="38.27" width="2.55" height="2.55"/><rect class="cls-3" x="25.51" y="38.27" width="2.55" height="2.55"/><rect class="cls-4" y="38.27" width="2.55" height="2.55"/><rect class="cls-3" x="5.1" y="38.27" width="2.55" height="2.55"/><rect class="cls-4" x="7.65" y="38.27" width="2.55" height="2.55"/><rect class="cls-4" x="10.2" y="38.27" width="2.55" height="2.55"/><rect class="cls-3" x="12.76" y="38.27" width="2.55" height="2.55"/><rect class="cls-3" x="2.55" y="38.27" width="2.55" height="2.55"/></pattern></defs><title>バランス</title><polygon class="cls-6" points="27.3 229.47 13.09 229.12 78.26 167.8 93.22 167.46 27.3 229.47"/><path class="cls-7" d="M549.22,204.72l-31-3.1a14.89,14.89,0,0,0-10.7,3.1l-9.4,7.33a2.68,2.68,0,0,0,1.38,4.78l31,3.1a15,15,0,0,0,10.71-3.1l9.39-7.33A2.68,2.68,0,0,0,549.22,204.72Z"/><path class="cls-7" d="M540.69,209.94,527,145.89a2.69,2.69,0,0,0-5.27,0L508,209.94a2.41,2.41,0,0,0-.17.83c0,3.32,7.38,6,16.5,6s16.5-2.68,16.5-6A2.43,2.43,0,0,0,540.69,209.94Z"/><circle class="cls-8" cx="519.09" cy="203.49" r="2.54"/><circle class="cls-8" cx="520.57" cy="184.99" r="2.54"/><circle class="cls-8" cx="522.04" cy="166.49" r="2.54"/><path class="cls-9" d="M301.84,176.57a10.4,10.4,0,0,0-3,3.21l.28.22-.56.32a6.29,6.29,0,0,0-.29.79l3.27-2.11Z"/><path class="cls-10" d="M299.11,180l-.28-.22c-.1.18-.2.36-.28.54Z"/><path class="cls-11" d="M294.39,191.2c0,7.92,11.69,14.34,26.11,14.34s26.1-6.42,26.1-14.34a8,8,0,0,0-.3-2.18c-1.91-6.88-12.73-12.15-25.8-12.15C306.08,176.87,294.39,183.28,294.39,191.2Z"/><path class="cls-11" d="M298,182.65c0,6.13,10.45,11.17,22.71,11.17s22.19-5,22.19-11.1-9.94-11.09-22.19-11.09S298,176.52,298,182.65Z"/><ellipse class="cls-11" cx="320.08" cy="173.92" rx="17.87" ry="8.73"/><path class="cls-12" d="M293.09,195.28l-1.75,5.48A9.86,9.86,0,0,1,293.09,195.28Z"/><path class="cls-13" d="M293.09,195.28l1.3-4.08a8,8,0,0,0,.29,2.12c1.86,6.91,12.71,12.22,25.82,12.22s24-5.31,25.82-12.22a8.39,8.39,0,0,0,.28-2.12,8,8,0,0,0-.3-2.18l1.79,6.57,1.55,5.64c-.47,8.63-13.33,15.54-29.14,15.54-14.6,0-26.69-5.89-28.82-13.59l-.34-2.42Z"/><path class="cls-13" d="M320.5,205.54c-12,0-22.09-4.46-25.14-10.52l2.77-13.39h0a5.87,5.87,0,0,0-.1,1c0,6.13,10.45,11.17,22.71,11.17s22.19-5,22.19-11.1l1.92,13.61C341.09,201.71,331.62,205.54,320.5,205.54Z"/><path class="cls-13" d="M320.53,193.78c-8.64,0-16.37-2.73-20.11-6.38l1.78-13.51c0,4.77,7.91,8.63,17.68,8.63s17.68-3.86,17.68-8.63l3.07,13.72C337.22,191.46,329.51,193.78,320.53,193.78Z"/><ellipse class="cls-13" cx="320.45" cy="170.64" rx="15.06" ry="6.69"/><path class="cls-13" d="M319.88,182.52c-6.57,0-12.29-1.75-15.34-4.35l1.09-7.53c0,3.66,6.67,6.63,14.9,6.63s14.9-3,14.9-6.63l1.1,6.13C334.1,180.12,327.57,182.52,319.88,182.52Z"/><path class="cls-9" d="M218.8,176.57a10.32,10.32,0,0,0-3,3.21l.29.22-.56.32a5,5,0,0,0-.29.79l3.26-2.11Z"/><path class="cls-10" d="M216.07,180l-.29-.22q-.15.27-.27.54Z"/><path class="cls-11" d="M211.35,191.2c0,7.92,11.69,14.34,26.11,14.34s26.1-6.42,26.1-14.34a8,8,0,0,0-.3-2.18c-1.91-6.88-12.74-12.15-25.8-12.15C223,176.87,211.35,183.28,211.35,191.2Z"/><path class="cls-11" d="M215,182.65c0,6.13,10.45,11.17,22.7,11.17s22.2-5,22.2-11.1-9.94-11.09-22.2-11.09S215,176.52,215,182.65Z"/><ellipse class="cls-11" cx="237.04" cy="173.92" rx="17.87" ry="8.73"/><path class="cls-12" d="M210.05,195.28l-1.75,5.48A9.86,9.86,0,0,1,210.05,195.28Z"/><path class="cls-13" d="M210.05,195.28l1.3-4.08a8,8,0,0,0,.29,2.12c1.86,6.91,12.71,12.22,25.82,12.22s24-5.31,25.81-12.22a8,8,0,0,0,0-4.3l1.79,6.57,1.54,5.64c-.46,8.63-13.32,15.54-29.13,15.54-14.61,0-26.7-5.89-28.83-13.59l-.33-2.42Z"/><path class="cls-13" d="M237.46,205.54c-12,0-22.09-4.46-25.14-10.52l2.77-13.39h0a5.87,5.87,0,0,0-.1,1c0,6.13,10.45,11.17,22.7,11.17s22.2-5,22.2-11.1l1.92,13.61C258.05,201.71,248.57,205.54,237.46,205.54Z"/><path class="cls-13" d="M237.49,193.78c-8.65,0-16.38-2.73-20.11-6.38l1.77-13.51c0,4.77,7.92,8.63,17.68,8.63s17.69-3.86,17.69-8.63l3.06,13.72C254.18,191.46,246.46,193.78,237.49,193.78Z"/><ellipse class="cls-13" cx="237.41" cy="170.64" rx="15.06" ry="6.69"/><path class="cls-13" d="M236.83,182.52c-6.57,0-12.29-1.75-15.33-4.35l1.08-7.53c0,3.66,6.68,6.63,14.91,6.63s14.9-3,14.9-6.63l1.1,6.13C251.05,180.12,244.53,182.52,236.83,182.52Z"/><ellipse class="cls-14" cx="405.57" cy="195.91" rx="17.53" ry="8.56" transform="translate(-3.1 6.56) rotate(-0.92)"/><path class="cls-15" d="M406.33,215.39c-8.48.13-16.11-2.42-19.83-5.94L388,196.16c.07,4.68,7.9,8.35,17.48,8.2s17.29-4.08,17.21-8.76L426,209C422.67,212.85,415.14,215.24,406.33,215.39Z"/><ellipse class="cls-15" cx="405.89" cy="192.69" rx="14.77" ry="6.57" transform="translate(-3.05 6.57) rotate(-0.92)"/><path class="cls-15" d="M405.51,204.36c-6.44.1-12.09-1.53-15.12-4l.95-7.41c.06,3.59,6.65,6.4,14.73,6.27s14.57-3.15,14.51-6.74l1.18,6C419.42,201.77,413.06,204.24,405.51,204.36Z"/><ellipse class="cls-14" cx="159.46" cy="195.91" rx="17.53" ry="8.56" transform="translate(-3.14 2.6) rotate(-0.92)"/><path class="cls-15" d="M160.22,215.39c-8.48.13-16.11-2.42-19.83-5.94l1.53-13.29c.07,4.68,7.9,8.35,17.48,8.2s17.29-4.08,17.21-8.76L179.84,209C176.56,212.85,169,215.24,160.22,215.39Z"/><ellipse class="cls-15" cx="159.77" cy="192.69" rx="14.77" ry="6.57" transform="translate(-3.08 2.6) rotate(-0.92)"/><path class="cls-15" d="M159.4,204.36c-6.45.1-12.09-1.53-15.12-4l.95-7.41c.06,3.59,6.65,6.4,14.72,6.27s14.58-3.15,14.52-6.74l1.18,6C173.31,201.77,167,204.24,159.4,204.36Z"/><path class="cls-16" d="M174.3,195.61l48.84-21.56s-1.64-2.19-1.64-3.94a4.15,4.15,0,0,1,1.64-3L173.62,189a8.31,8.31,0,0,1,1.58,2.92C175.65,193.59,174.3,195.61,174.3,195.61Z"/><polygon class="cls-10" points="174.3 198.24 222.75 176.87 223.14 174.05 174.3 195.61 174.3 198.24"/><path class="cls-17" d="M223.14,167.16,173.62,189a8.31,8.31,0,0,1,1.58,2.92c.45,1.65-.9,3.67-.9,3.67v2.63l48.45-21.37.39-2.82s-1.64-2.19-1.64-3.94A4.15,4.15,0,0,1,223.14,167.16Z"/><path class="cls-16" d="M391.15,194.28l-52.93-6.93a3.62,3.62,0,0,0,1.91-3,4.5,4.5,0,0,0-1.07-3.4l55.3,7.25a5.75,5.75,0,0,0-4,2.52C389.37,192.55,391.15,194.28,391.15,194.28Z"/><polygon class="cls-10" points="390.86 196.54 338.52 189.6 338.22 187.35 391.15 194.28 390.86 196.54"/><path class="cls-17" d="M394.36,188.21,339.06,181a4.5,4.5,0,0,1,1.07,3.4,3.62,3.62,0,0,1-1.91,3l.3,2.25,52.34,6.94.29-2.26s-1.78-1.73-.76-3.55A5.75,5.75,0,0,1,394.36,188.21Z"/><path class="cls-16" d="M252.11,173.36H305.5a5.31,5.31,0,0,1,0-6.09H252.11a10.53,10.53,0,0,1,1.19,3C253.49,171.63,252.11,173.36,252.11,173.36Z"/><polygon class="cls-10" points="252.41 175.98 305.3 175.98 305.5 173.35 252.12 173.35 252.41 175.98"/><path class="cls-17" d="M305.5,167.27H252.11a10.53,10.53,0,0,1,1.19,3c.19,1.32-1.19,3.05-1.19,3.05l.3,2.62H305.3l.2-2.62a5.31,5.31,0,0,1,0-6.09Z"/><path class="cls-18" d="M286.16,161.39a5,5,0,0,1-3.81-8.23s5-6,8.57-16.85c3.56-10.66,3.26-16.53,3.26-16.58a5,5,0,0,1,10-.72c.06.76.46,7.87-3.74,20.46-4.26,12.77-10.18,19.85-10.43,20.15A5,5,0,0,1,286.16,161.39Z"/><path class="cls-19" d="M290.17,136.39a26.64,26.64,0,0,0,14,2l2-15-14-2Z"/><path class="cls-18" d="M305.16,81.39a5,5,0,0,1-.16-10l30-1c2.75-.1,4.07,1.24,4.17,4s-2.24,3.91-5,4l-28.84,3Z"/><path class="cls-20" d="M302.17,82.39l16-1s6-5,0-12h-17Z"/><path class="cls-21" d="M280.17,73.39c-5,7,1,13,1,13l6-7Z"/><line class="cls-22" x1="301.17" y1="120.39" x2="316.17" y2="158.39"/><path class="cls-18" d="M316.17,163.39a5,5,0,0,1-4.65-3.16l-15-38a5,5,0,1,1,9.3-3.68l15,38c1,2.57,5.91,8.83,3.35,9.84C323.56,166.63,316.78,163.39,316.17,163.39Z"/><path class="cls-18" d="M257.16,87.39c-2.53,0-6-1-6-5,0-5,2.25-6.71,5-7l38.47-2a5,5,0,1,1,1.05,9.94l-38,4A4.71,4.71,0,0,1,257.16,87.39Z"/><path class="cls-23" d="M297.41,167l-1.69,2.26c-1.07,1.45-4.54-.18-6.93-2.3a7.43,7.43,0,0,0-3.26-2.93c-3.59-1.49-7.44-4.79-7.56-5.61-.19-1.32,2.25-3,2.25-3Z"/><path class="cls-24" d="M282.46,152.39c1.9,3.76,6.44,7.13,8.94,6.44a5.64,5.64,0,0,1,5.44,8.94c-1.07,1.45-4.54-.18-6.93-2.3l-10.82-8.55A9.92,9.92,0,0,1,282.46,152.39Z"/><path class="cls-19" d="M298.17,139.39s10,0,16-5l-4-9s3-5,4-15c0-11-22-1-27,1C288.17,127.39,298.17,139.39,298.17,139.39Z"/><path class="cls-25" d="M290.17,136.39a26.64,26.64,0,0,0,14,2l2-15-14-2Z"/><path class="cls-25" d="M298.17,139.39s10,0,16-5l-4-9s3-5,4-15c0-11-22-1-27,1C288.17,127.39,298.17,139.39,298.17,139.39Z"/><path class="cls-20" d="M298.17,57.39c-7.32,0-6.68,18.21-8,34-1,12.26-5,14-4,24,9,4,28,0,28,0s1.76-8.53,0-22C311.93,76.3,305.44,57.39,298.17,57.39Z"/><path class="cls-20" d="M295.17,84.39l-14,2c4-8-1-13-1-13l14-1"/><path class="cls-23" d="M309.62,157.41s10.55,8,12.55,7-.73-5.68,2-3c2.05,2,4.7,2.71,6,5,1.72,3.05.45,6.27-1,7-2.05,1-4.45.36-7-1-3.37-1.8-4-4-8.29-5.62-3.71-2.38-4.71-4.38-4.71-4.38Z"/><path class="cls-24" d="M309.62,155.41s10.55,8,12.55,7-1-5-1-5,.27.32,3,3c2.05,2,4.7,1.71,6,4,1.72,3.05.45,6.27-1,7-2.05,1-4.45.36-7-1-3.37-1.8-4-4-8.29-5.62-3.71-2.38-4.71-4.38-4.71-4.38Z"/><path class="cls-18" d="M329.23,47.37a30,30,0,0,0-52-19.4c-5.2,5.61-7.1,14.17-7.1,22.42,0,6,6,14,10,17a30.31,30.31,0,0,0,19.93,6h.08c0,.07,0,.14,0,.22,0,2.65,1.34,4.8,3,4.8s3-2.15,3-4.8c0-.22,0-.42,0-.63,7.38-.8,13.87-2.8,18-7.57C327.79,61.23,329.46,54.12,329.23,47.37Z"/><path class="cls-18" d="M319.75,52a2,2,0,1,1,1.42,3.42,2,2,0,0,1-1.34-.51"/><line class="cls-26" x1="322.17" y1="61.39" x2="310.17" y2="63.39"/><circle class="cls-27" cx="306.59" cy="52.7" r="1.69"/><ellipse class="cls-27" cx="324.8" cy="50.58" rx="1.13" ry="1.69"/><path class="cls-28" d="M298.24,18.4a28.68,28.68,0,0,0-28.07,32,23.69,23.69,0,0,0,10,17,29.22,29.22,0,0,0,10,4.9,55.22,55.22,0,0,1,0-19.9s1-3,3,0,2,9,2,9a57.49,57.49,0,0,0,6-21c5,3,12,8,12,8l-1-10s3,1,8,8a35.69,35.69,0,0,0-5-13s5,4,11,14a35.93,35.93,0,0,0-5-14s6,4,9,15c0-9-2.95-16.08-9-22S308.17,18.39,298.24,18.4Z"/><path class="cls-18" d="M292.85,62.59a5.65,5.65,0,0,1-4.08,1.8c-3.37,0-6.1-3.13-6.1-7s2.73-7,6.1-7a5.67,5.67,0,0,1,4,1.69"/><ellipse class="cls-29" cx="299.6" cy="16.48" rx="9.33" ry="7"/></svg>