<svg id="レイヤー_1" data-name="レイヤー 1" xmlns="http://www.w3.org/2000/svg" xmlns:xlink="http://www.w3.org/1999/xlink" viewBox="0 0 218 218"><defs><style>.cls-1,.cls-12,.cls-3{fill:none;}.cls-2{clip-path:url(#clip-path);}.cls-3{stroke:#9b7656;}.cls-10,.cls-11,.cls-12,.cls-14,.cls-3,.cls-5,.cls-6,.cls-8,.cls-9{stroke-linecap:round;stroke-linejoin:round;stroke-width:2px;}.cls-4{clip-path:url(#clip-path-2);}.cls-5{fill:#f1d8bc;}.cls-10,.cls-11,.cls-12,.cls-5,.cls-6,.cls-8,.cls-9{stroke:#40210d;}.cls-6{fill:#273288;}.cls-7{fill:#40210d;}.cls-8{fill:#e50012;}.cls-9{fill:#40210f;}.cls-10{fill:#717071;}.cls-11{fill:#6a3906;}.cls-13,.cls-15{fill:#00a0df;}.cls-14{fill:#fff100;stroke:#40220f;}.cls-15{opacity:0.3;}.cls-16{clip-path:url(#clip-path-3);}.cls-17{fill:#fff1e1;}</style><clipPath id="clip-path"><rect id="SVGID" class="cls-1" x="248" y="-232" width="200" height="200" rx="10"/></clipPath><clipPath id="clip-path-2"><rect id="SVGID-2" data-name="SVGID" class="cls-1" x="8.67" y="9" width="200" height="200" rx="10"/></clipPath><clipPath id="clip-path-3"><rect id="SVGID-3" data-name="SVGID" class="cls-1" x="247" y="9" width="200" height="200" rx="10"/></clipPath></defs><title>4-1 水の中を移動する</title><g class="cls-2"><ellipse class="cls-3" cx="221.67" cy="12.92" rx="15.41" ry="11.32" transform="translate(23.24 112.57) rotate(-30)"/><ellipse class="cls-3" cx="172.5" cy="12.92" rx="15.41" ry="11.32" transform="translate(16.65 87.98) rotate(-30)"/><ellipse class="cls-3" cx="197.96" cy="55.93" rx="15.41" ry="11.32" transform="translate(-1.44 106.47) rotate(-30)"/></g><g class="cls-4"><path class="cls-5" d="M182.94,202.51a4.47,4.47,0,0,1-.85-4.63l1-2.71c-8.4-4.38-13.38-10.07-14.81-16.95-2.51-12.06,7.31-22.58,7.72-23a4.47,4.47,0,0,1,6.5,6.14c-.13.14-7,7.66-5.47,15.1,1,4.84,5.56,9,13.48,12.36a4.46,4.46,0,0,1,2.42,5.73l-2.57,6.59a4.47,4.47,0,0,1-5.78,2.55A4.52,4.52,0,0,1,182.94,202.51Z"/><polygon class="cls-6" points="174.74 147.94 167.46 165.49 179.08 171.35 188.3 156.04 174.74 147.94"/><path class="cls-5" d="M128.43,199.56A4.46,4.46,0,0,1,124,195.5a5.61,5.61,0,0,1,3.05-4.88c-7.07-2.78-17.89-5.49-17.89-13.59,0-10.59,16.83-20.51,22-23.29a4.47,4.47,0,1,1,4.25,7.86h0c-8.18,4.43-17.3,11.86-17.3,15.43,0,2.86,8.75,6.2,12.48,7.63,4.24,1.62,6.8,2.6,8.12,4.69a5.5,5.5,0,0,1,.35,5.47c-1.3,2.63-4.72,4.22-10.19,4.72Z"/><path class="cls-5" d="M127,190.62a9.48,9.48,0,0,1,4.56-.46"/><path class="cls-5" d="M145.08,198.48a4.47,4.47,0,0,1-5.57-2.3,5.58,5.58,0,0,1,1.2-5.62c-7.59-.2-18.69,1-21.47-6.64-3.62-10,8.79-25,12.68-29.42a4.47,4.47,0,0,1,6.69,5.93h0c-6.17,7-12.19,17.07-11,20.42,1,2.69,10.34,2.83,14.34,2.9,4.53.07,7.27.11,9.23,1.63a5.5,5.5,0,0,1,2.2,5c-.32,2.91-3,5.57-7.95,7.92Z"/><path class="cls-5" d="M140.71,190.56a9.55,9.55,0,0,1,4.12-2"/><path class="cls-5" d="M126.29,189.2a4.46,4.46,0,0,1-4-2.47l-1.3-2.6c-8.9,3.29-16.45,3.16-22.51-.4-10.63-6.24-11.83-20.58-11.88-21.18a4.47,4.47,0,0,1,8.91-.69c0,.19,1,10.36,7.53,14.19,4.27,2.48,10.39,1.91,18.2-1.7a4.47,4.47,0,0,1,5.87,2.06l3.17,6.33a4.46,4.46,0,0,1-4,6.46Z"/><path class="cls-5" d="M202.76,201.45a4.46,4.46,0,0,1-2.76-3.8l-.22-2.9c-9.47-.33-16.42-3.32-20.67-8.91-7.47-9.81-3.14-23.53-3-24.11a4.47,4.47,0,0,1,8.5,2.74c0,.18-3,9.95,1.58,16,3,3.93,8.89,5.72,17.49,5.35a4.46,4.46,0,0,1,4.65,4.13l.53,7a4.47,4.47,0,0,1-4.13,4.79A4.28,4.28,0,0,1,202.76,201.45Z"/><path class="cls-5" d="M73.74,203.8a4.4,4.4,0,0,1-1.54-.28,4.46,4.46,0,0,1-2.66-5.73l1-2.75c-5-4.76-14.62-15.36-11.45-24.37,3.54-10.09,24.27-17,28.39-18.28a4.47,4.47,0,0,1,2.66,8.53c-9.85,3.07-21.29,8.91-22.62,12.71-1.26,3.59,5.79,12.16,11.15,16.71a4.48,4.48,0,0,1,1.3,4.94l-2,5.59A4.46,4.46,0,0,1,73.74,203.8Z"/><path class="cls-6" d="M72.19,157.88,77,169.33a82.8,82.8,0,0,0,17.4-5.73c7.64-3.77-12.51-15.66-12.51-15.66A33.85,33.85,0,0,1,72.19,157.88Z"/><path class="cls-5" d="M69.23,187.08a4.48,4.48,0,0,1-4-2.47l-1.3-2.6c-8.89,3.29-16.44,3.16-22.5-.4C30.8,175.37,29.59,161,29.55,160.43a4.47,4.47,0,0,1,8.91-.69c0,.19,1,10.36,7.52,14.19,4.28,2.48,10.4,1.91,18.21-1.7a4.47,4.47,0,0,1,5.87,2.06l3.17,6.33a4.46,4.46,0,0,1-4,6.46Z"/><path class="cls-5" d="M16.69,201.68a4.63,4.63,0,0,1-1.54-.27,4.47,4.47,0,0,1-2.66-5.74l1-2.75c-5-4.76-14.62-15.36-11.46-24.37,3.55-10.09,24.28-17,28.4-18.28a4.47,4.47,0,0,1,2.66,8.53c-9.85,3.07-21.29,8.91-22.62,12.71-1.27,3.59,5.79,12.16,11.14,16.71a4.47,4.47,0,0,1,1.31,4.94l-2.05,5.59A4.46,4.46,0,0,1,16.69,201.68Z"/><path class="cls-5" d="M80.61,108.39c-11,.54-26-1.44-44.73-5.94a4.47,4.47,0,1,0-2.09,8.69c22.75,5.46,40.18,7.34,52.78,5.66"/><path class="cls-6" d="M15.14,155.76,20,167.21a82.8,82.8,0,0,0,17.41-5.73c7.64-3.77-12.51-15.66-12.51-15.66A33.85,33.85,0,0,1,15.14,155.76Z"/><path class="cls-5" d="M135.87,117.45a.49.49,0,0,1,.14-.06c-.1,0-10.86,3.56-41.51-9.07a4.47,4.47,0,0,0-3.4,8.27q5.22,2.14,9.8,3.75c18,6.36,28.6,6.84,34,6.29"/><path class="cls-5" d="M166.67,133.73a15.74,15.74,0,0,1-1.65-.14c-14-2.05-17.73-19.15-17.89-19.88a4.47,4.47,0,0,1,8.75-1.85h0c0,.11,2.64,11.74,10.43,12.88,5.92.86,10.8-9.42,12.77-12.17,1.68-2.37,5.3-9,7.68-8.31s.37,6.22-.3,8.6C184.15,121,177.48,134,166.67,133.73Z"/><path class="cls-6" d="M22.13,143.7c0,10.06,6.7,18.86,7.4,26.4a45.61,45.61,0,0,0,14.52-1.4l-.84-5.31c2.38-2.09,4.8-10,3.17-21.08C43.21,140.77,28.57,143.43,22.13,143.7Z"/><path class="cls-5" d="M22.13,143.7c11.11,2.66,18.15,2.1,24.43,0-5.3-22.2-4.74-67.91-12.21-67S19.06,129.46,22.13,143.7Z"/><path class="cls-5" d="M35.05,44.36A27.65,27.65,0,0,0,7.4,72c0,.8,0,1.62,0,2.45a3.81,3.81,0,1,0,.42,5.87c.61,5,2,9.79,5.06,13,5,5.25,14.29,6.36,22.14,6.36a27.65,27.65,0,0,0,0-55.3Z"/><circle class="cls-7" cx="24.78" cy="74.52" r="1.89"/><path class="cls-5" d="M40,73.88a4.15,4.15,0,0,1,3.14-1.52c2.46,0,4.45,2.33,4.45,5.21s-2,5.21-4.45,5.21A4.14,4.14,0,0,1,40,81.29"/><path class="cls-8" d="M11.23,91.13l9.5.63s-3.61-2.51-6-2.51A4.18,4.18,0,0,0,11.23,91.13Z"/><path class="cls-6" d="M80.76,147.37s2.72,10,6,21.5c7.4.84,15.57-1.82,15.57-1.82s-1.42-4.05.23-5.86,5.06-7.19,1.89-19.2C95.52,141.71,80.76,147.37,80.76,147.37Z"/><path class="cls-5" d="M87.19,89.14C75,99.61,76,130.41,80.76,147.37,92,149,99.05,145.78,104.46,142c-2.24-8.5-5.69-13.22-9.31-26.46C91.26,101.31,90.48,86.3,87.19,89.14Z"/><path class="cls-5" d="M93.62,54.65a26.53,26.53,0,0,0-33.35,17.2s0,.06,0,.08a2.93,2.93,0,1,0-2.66,4.15,3.06,3.06,0,0,0,1.09-.21,64.92,64.92,0,0,1-4,7.52c2.27,2,4.84,4.54,15.73,9.24-5.34-1.25-8.84-3.84-13.22-7.14a49.94,49.94,0,0,0,2.6,8c3.18,5.64,11.06,9.54,17.72,11.67A26.53,26.53,0,0,0,93.62,54.65Z"/><circle class="cls-7" cx="72.1" cy="77.38" r="1.73"/><path class="cls-9" d="M68.2,56.47c-2.52,2-5.59,7.12-5.59,7.12L73.5,60l-3.07,6.21,6.43-2.51.58,10.75,5.93-3.84v9.28l4-2.37,2.51,8.6-3.58,20.31s15.79,1,22.5-10.43,6.91-25.32-2.16-34.68c-2.94-8-16.32-10.94-23.23-11S70.71,54.45,68.2,56.47Z"/><path class="cls-6" d="M172.61,151.07c-.43,4.45,0,18.66,0,18.66s13.31,1.47,17.51,1.63a84.14,84.14,0,0,0,6.67-19S178.38,151.59,172.61,151.07Z"/><path class="cls-5" d="M190.68,90.51c-3.31-.35-6.94,10.85-10.94,26-3.72,14.1-7.13,34.57-7.13,34.57s15.63,1.66,24.18,1.29C198.05,137.28,197.07,91.2,190.68,90.51Z"/><path class="cls-5" d="M191.83,112.61c-1.05,8.34-4.67,17.89-13.72,19.41-13.93,2.34-22.75-12.79-23.12-13.43a4.47,4.47,0,0,1,7.75-4.45c.12.2,6.15,10.36,13.89,9.07,3.58-.61,5.28-5.5,6.05-10"/><path class="cls-5" d="M216.08,79.7a27.78,27.78,0,0,1-27.78,27.78c-7.56,0-17.26-2.37-22.27-7.26-5.17-5-5.52-12.73-5.52-20.52a27.79,27.79,0,1,1,55.57,0Z"/><path class="cls-5" d="M171.37,85.93a2.37,2.37,0,1,1-.06-3.73"/><circle class="cls-8" cx="172.25" cy="96.24" r="1.54"/><circle class="cls-7" cx="164.85" cy="79.06" r="1.19"/><circle class="cls-7" cx="186.07" cy="83.39" r="1.19"/><path class="cls-10" d="M216.08,79.7a27.78,27.78,0,0,0-52.89-11.91c.55-.51,1.12-1,1.66-1.43,3.14-2.52,10.14-1,11,3.45,2.37-3.66,12.84-3.31,18.15,1.78s5.16,8.24,4.75,13.79-.28,10.93-2.87,16.72a25.57,25.57,0,0,0,5.38,2.16A27.76,27.76,0,0,0,216.08,79.7Z"/><path class="cls-5" d="M87.28,81.55a4,4,0,0,1,3.41-.24c2.21.91,3.11,3.82,2,6.49s-3.79,4.1-6,3.18a4.07,4.07,0,0,1-2.34-2.93"/><path class="cls-5" d="M-8.84,132.9a4.45,4.45,0,0,1-2.13-.55,4.46,4.46,0,0,1-1.8-6c.82-1.51,3.85-6.51,8.34-7.14,23.43-3.25,34.64-17.49,34.75-17.64A4.47,4.47,0,0,1,37.4,107c-.54.71-13.49,17.17-40.29,21a10,10,0,0,0-2,2.59A4.48,4.48,0,0,1-8.84,132.9Z"/><path class="cls-5" d="M80.61,106.15c-11,.54-26-1.44-44.73-5.93a4.47,4.47,0,1,0-2.09,8.69c22.75,5.45,40.18,7.34,52.78,5.66"/><path class="cls-6" d="M144.11,100.16c-9.46-1.82-22.18,38.4-22.18,53.06s13.29,13.95,18.41,13.12,7.54-5.48,7.54-10.14-4.06-14.47-3.77-26.3C144.45,115.66,147,100.72,144.11,100.16Z"/><polygon class="cls-11" points="115.94 106.48 128.85 115.81 133.26 103.43 117.06 79.67 115.94 106.48"/><path class="cls-5" d="M161.75,98.08a24.49,24.49,0,0,1-31.64,14.07c-6.08-2.34-13.6-6.62-16.21-12.08-2.79-5.85-.37-13,2.14-19.55a24.48,24.48,0,1,1,45.71,17.56Z"/><path class="cls-5" d="M123.24,91.77A2.8,2.8,0,1,1,125,88"/><circle class="cls-7" cx="136.27" cy="92.73" r="1.35"/><circle class="cls-7" cx="117.29" cy="84.14" r="1.35"/><ellipse class="cls-5" cx="136.59" cy="121.83" rx="8.83" ry="4.13" transform="translate(-14.28 225.45) rotate(-76.21)"/><path class="cls-5" d="M135.87,115.21l.14-.06c-.1,0-10.86,3.56-41.51-9.06a4.47,4.47,0,0,0-3.4,8.26c3.48,1.44,6.75,2.68,9.8,3.76,18,6.36,28.6,6.83,34,6.28"/><path class="cls-5" d="M197.17,82.59a2.62,2.62,0,0,1,2-.94c1.63,0,3,1.67,3,3.73s-1.32,3.74-3,3.74a2.63,2.63,0,0,1-2-1"/><path class="cls-9" d="M116.67,82s-9.52,13.32-.73,24.47c-10.18-9-1.88-29.67,8.92-38.28,7.36-5.86,17.64-5.39,25-2.56S165.65,76.74,166,88c.27,8.6-11.79,18.31-14.34,25.79-2.48,7.26,3.83,8.29,3.83,8.29s-19.49,4.72-24-5.34c14.25-9.58,15.55-22.6,15.55-22.6S144.58,93.31,141,92l-15-13c2.71-4.75,4.66-7.88,4.66-7.88l-6.46,7.37Z"/><path class="cls-5" d="M143.44,93.65a3.36,3.36,0,0,1,2.86-.74c2,.45,3.14,2.81,2.58,5.28s-2.63,4.1-4.61,3.64A3.35,3.35,0,0,1,142,100"/><path class="cls-12" d="M115.94,94.92s3.81-.63,8.43,5.18"/><path class="cls-12" d="M124.37,103.3s-1.15-3.75,3.88-3.64"/><circle class="cls-13" cx="67.2" cy="32.09" r="3.15"/><circle class="cls-13" cx="123.1" cy="40.12" r="3.08"/><circle class="cls-13" cx="159.63" cy="12.23" r="5.51"/><circle class="cls-13" cx="162.06" cy="23.42" r="3.08"/><circle class="cls-13" cx="125.53" cy="28.93" r="5.51"/><path class="cls-14" d="M51.62,94.92,12.51,56c0-4.17,8.3-11.25,18.74-12.79,8.92-1.31,19.62,1.89,25.66,9.39C66.46,64.46,63.52,85.41,51.62,94.92Z"/><path class="cls-14" d="M205.62,102.08s-.72-11.45-10.87-23-28.18-18.51-28.18-18.51c0-2.21,8.71-9.06,20.05-10.23,8.83-.91,19.88,2.3,25.62,9.43C221.79,71.62,218.75,96.75,205.62,102.08Z"/><path class="cls-14" d="M94.5,106.09a221.5,221.5,0,0,0-7.93-21.51C81.26,72,65.29,59.65,65.29,59.65c3.71-11.37,30.38-17,44.21.2C119.58,72.38,117.29,104.21,94.5,106.09Z"/><path class="cls-14" d="M151.67,113.79s-1.72-8.14-8.23-20.14c-6.85-12.62-24.3-20.26-24.3-20.26,3.7-11.36,30.37-17,44.21.2C173.43,86.12,174.46,111.91,151.67,113.79Z"/><path class="cls-9" d="M125.82,77.84c1.39-1,2.94-2.2,4.59-3.4A127.91,127.91,0,0,1,140.7,91"/></g><rect class="cls-15" x="8.67" y="9" width="200" height="200" rx="10"/><g class="cls-16"><ellipse class="cls-17" cx="353.04" cy="112.02" rx="173.57" ry="160.5"/></g></svg>