<svg id="レイヤー_1" data-name="レイヤー 1" xmlns="http://www.w3.org/2000/svg" viewBox="0 0 218 218"><defs><style>.cls-1{fill:#ed811b;}.cls-1,.cls-11,.cls-5,.cls-8,.cls-9{stroke:#42210b;}.cls-1,.cls-11,.cls-5,.cls-6,.cls-7,.cls-8,.cls-9{stroke-linecap:round;stroke-linejoin:round;stroke-width:2px;}.cls-2,.cls-9{fill:#fff;}.cls-3{fill:#efefef;}.cls-4{fill:#c9caca;}.cls-5{fill:none;}.cls-6{fill:#f1d8bc;stroke:#40210d;}.cls-11,.cls-7{fill:#40220f;}.cls-7{stroke:#40210f;}.cls-8{fill:#2c3493;}.cls-10{fill:#42210b;}</style></defs><title>2-4-4 支える</title><polygon class="cls-1" points="99.84 194.15 34.15 162.65 39.82 130.4 105.52 159.3 99.84 194.15"/><polygon class="cls-1" points="100.03 194.15 157.47 174.52 149.73 145.44 105.52 159.3 100.03 194.15"/><polygon class="cls-2" points="83.89 102.81 150.32 128.23 105.78 141.52 40.41 114.14 83.89 102.81"/><path class="cls-3" d="M105.78,159.15,40.41,130.39c-2.07-7.49,2.33-15,2.33-15l53.63,22.22a15.32,15.32,0,0,1,9.41,14.14Z"/><path class="cls-4" d="M106.11,159.3l44.21-13.86L148,128.92l-31.25,9.32a14.92,14.92,0,0,0-10.65,14.3Z"/><path class="cls-2" d="M83.3,102.81l66.43,25.42L108,140.68a8.25,8.25,0,0,1-5.52-.29L39.82,114.14Z"/><path class="cls-5" d="M72.93,105.52l-22.71,5.91a13.89,13.89,0,0,0-10.4,13.45v5.51l65.37,28.76.33.15,44.21-13.86v-8.53a12.6,12.6,0,0,0-8.11-11.78L93.3,106.64A33.39,33.39,0,0,0,72.93,105.52Z"/><path class="cls-6" d="M128.24,129a5.5,5.5,0,0,1-1-.09c-4.59-.92-7.55-4.7-8.09-5.44a5,5,0,0,1-1-2.75l-1.55-37.93a5,5,0,0,1,10-.41l1.48,36.08a3.11,3.11,0,0,0,1.08.64,5,5,0,0,1-1,9.9Z"/><path class="cls-7" d="M71.05,75.94c-2.22,0-4.06-.8-5.59-.94a5.29,5.29,0,0,0-3,.61c-.72.41-3.55,4.93-3.55,4.93a17.45,17.45,0,0,0-5.2,8.15c-1.52,5.21,2,8.72,4.9,10.63s5.09.77,7.24-1.54c1.07-1.16,1.06-4.2,1.54-6.28a14.67,14.67,0,0,1,1.53-3.79C65.4,87.64,63,78.85,71.05,75.94Z"/><path class="cls-6" d="M49,83.2a10,10,0,0,1-4.24-1C38.88,79.53,36,71.66,35.44,70.12c-.89-2.62,5.45-8.82,6.34-6.21,1,3.07,6.32,9,7.27,9.29l.11,0c2.55-1.38,5.33-15.08,7.21-27.1.64-4.13,8.25-1.35,10.88-.5a5,5,0,0,1,3.24,6.28C67.88,60,61,79.21,52.87,82.44A10.17,10.17,0,0,1,49,83.2Z"/><path class="cls-6" d="M65.73,90.21A5,5,0,0,1,62,88.58c-1.86-2-1.11-4.71.33-7.07,3.54-5.81,7.07-19.62,8.36-24.22.75-2.66,5.89-2.08,8.55-1.33a5,5,0,0,1,3.46,6.16c-.55,2-5.65,19.5-13.64,26.78A5,5,0,0,1,65.73,90.21Z"/><path class="cls-6" d="M102.59,138.26a4.59,4.59,0,0,1-1.22-.16c-1.07-.26-6.5-1.83-8.3-6.54a4.61,4.61,0,0,1-.2-.63c-8-33.5-.23-58.18.1-59.21a5,5,0,1,1,9.52,3.06c-.11.37-7,22.9-.09,53a5.84,5.84,0,0,0,1.43.63,5,5,0,0,1-1.24,9.85Z"/><path class="cls-8" d="M53.05,52.94c0-16,6-31.35,31.59-25.42s.5,39.06.5,39.06S80.55,68.8,79,75.7c0-7.06-3.36-12.69-9.86-13.89C66.3,55.33,58.05,51.86,53.05,52.94Z"/><path class="cls-9" d="M60.92,28.72c3.19,2.72,2.87,5.71,6,8.84,3.45,3.51,8.19,6.24,10.89,10,4.43,6.27,7.38,12.77,7.38,19,8.79-1.81,23.45,12.22,23.45,12.22S122,68,116.66,56.77C113,49.08,105,37.41,96,31.16,84.4,23.15,71.15,22.27,60.92,28.72Z"/><path class="cls-9" d="M94.3,66.58s-4.49,5.23-8.2,17.25a34.57,34.57,0,0,1,13.75,8l8.74-16.17"/><path class="cls-6" d="M139.69,55.27c-16.31-6.43-32,.83-38.4,17.14-3.14,8-4.07,20.59-.81,27.37,3.39,7,8.45,9,16.71,12.22a3.26,3.26,0,1,0,5.65,2.22s0-.07,0-.1c6.68,2.34,14.06,4.17,19.5,2.38C150,114,154.23,105,157.59,96.44A31.75,31.75,0,0,0,139.69,55.27Z"/><circle class="cls-10" cx="108.59" cy="104.71" r="1.45"/><circle class="cls-10" cx="135.79" cy="113.8" r="1.45"/><path class="cls-11" d="M116.24,97.74s4.76,8.9,12.88,13.74a25.14,25.14,0,0,1-4.36-9.29s10.32,9.61,22.68,11.34c6.75-3.1,14.19-17,14.48-29.79.27-12.43-6.35-23.72-17-28.58-10.84-4.94-28.09-5-37.75,4.45s-11.7,28.45-8.7,39.68A36.85,36.85,0,0,1,116.24,97.74Z"/><path class="cls-11" d="M155.34,74.32A20.31,20.31,0,0,1,165.72,61c6.56-3.42,24.65-1.08,32-10.67-.19,9.74-7.74,18.39-17.61,23S155.34,74.32,155.34,74.32Z"/><path class="cls-11" d="M107.14,66.58s-.58-14.13,7.36-23.42,22.25-11,34.84-12c-10.07,5-14.31,6.35-17,10.84S130,51.8,125,57.29,107.14,66.58,107.14,66.58Z"/><path class="cls-7" d="M42.63,64.81a9.49,9.49,0,0,0-4.24-3.22,5.88,5.88,0,0,0-3.33-.29c-.88.21-5.27,4.09-5.27,4.09a19.09,19.09,0,0,0-8,7c-3.21,5-.65,9.79,1.86,12.71s5.11,2.4,8.09.63c1.49-.89,2.42-4.09,3.58-6.13a16.14,16.14,0,0,1,2.79-3.51C34.41,74.87,33.27,65.38,42.63,64.81Z"/><line class="cls-7" x1="69.09" y1="61.81" x2="71.92" y2="50.51"/></svg>