<svg id="レイヤー_1" data-name="レイヤー 1" xmlns="http://www.w3.org/2000/svg" xmlns:xlink="http://www.w3.org/1999/xlink" viewBox="0 0 218 218"><defs><style>.cls-1{fill:none;}.cls-2{clip-path:url(#clip-path);}.cls-3{fill:#fff1e1;}.cls-4,.cls-6{fill:#fff;}.cls-10,.cls-4,.cls-9{stroke:#40220f;}.cls-10,.cls-11,.cls-12,.cls-13,.cls-14,.cls-16,.cls-19,.cls-4,.cls-6,.cls-7,.cls-8,.cls-9{stroke-linecap:round;stroke-linejoin:round;stroke-width:2px;}.cls-5{clip-path:url(#clip-path-2);}.cls-12,.cls-13,.cls-14,.cls-16,.cls-19,.cls-6,.cls-7,.cls-8{stroke:#42210b;}.cls-7{fill:#00a148;}.cls-8{fill:#fffbc4;}.cls-9{fill:#f5dcbe;}.cls-10{fill:#998675;}.cls-11{fill:#40210d;stroke:#40210d;}.cls-12{fill:#2c3493;}.cls-13,.cls-15,.cls-17{fill:#42210b;}.cls-14{fill:#e60012;}.cls-16{fill:#6a3906;}.cls-17{opacity:0.5;}.cls-18{clip-path:url(#clip-path-3);}.cls-19{fill:#fffef0;}</style><clipPath id="clip-path"><rect id="SVGID" class="cls-1" x="-229" y="9" width="200" height="200" rx="10"/></clipPath><clipPath id="clip-path-2"><rect id="SVGID-2" data-name="SVGID" class="cls-1" x="9" y="11.04" width="200" height="200" rx="10"/></clipPath><clipPath id="clip-path-3"><rect id="SVGID-3" data-name="SVGID" class="cls-1" x="248" y="9" width="200" height="200" rx="10"/></clipPath></defs><title>11-4-2 高跳びの着地</title><g class="cls-2"><polygon class="cls-3" points="-241.61 166.01 86.27 154.81 114.65 226.65 -248.96 201.35 -241.61 166.01"/><polygon class="cls-4" points="-72.77 211 -83.78 210.3 19.96 158.51 33.97 157.71 -72.77 211"/></g><g class="cls-5"><line class="cls-6" x1="-17.8" y1="46.38" x2="188.73" y2="164.44"/><path class="cls-6" d="M188.72,167.44a3,3,0,0,1-1.48-.39L-19.29,49a3,3,0,0,1-1.12-4.1,3,3,0,0,1,4.1-1.11L190.22,161.84a3,3,0,0,1-1.5,5.6Z"/><polygon class="cls-7" points="181.85 279.5 181.85 233.17 -17.8 103.28 -13.23 225.75 181.85 279.5"/><line class="cls-8" x1="188.73" y1="-11.15" x2="188.73" y2="279.5"/><rect class="cls-8" x="182.73" y="-11.15" width="12" height="290.65"/><rect class="cls-8" x="176.82" y="-11.15" width="6" height="290.65"/><path class="cls-9" d="M100.27,183.11a4.72,4.72,0,0,1-4.72-4.55l-1.77-49.2a4.72,4.72,0,0,1,9.44-.34l1.77,49.2a4.71,4.71,0,0,1-4.55,4.89Z"/><path class="cls-10" d="M85.14,65.8l-6.48-1.9c-4.77,4.19-4.47,10.42-1.57,15.74l7,1.89Z"/><path class="cls-9" d="M94.25,82.06a4.61,4.61,0,0,1-1.77-.35L69.42,72.4A4.72,4.72,0,0,1,73,63.64L96,73a4.73,4.73,0,0,1-1.77,9.11Z"/><path class="cls-9" d="M142.84,95.29a4.71,4.71,0,0,1-4.31-2.79c-3.6-8-20-8.71-25.5-8.31a4.72,4.72,0,1,1-.69-9.42c2.84-.21,27.89-1.57,34.81,13.86a4.72,4.72,0,0,1-2.38,6.24A4.57,4.57,0,0,1,142.84,95.29Z"/><path class="cls-9" d="M130.15,91.3H130c-12.46,0-20.92,12.58-21.28,13.12a4.73,4.73,0,1,0,7.89,5.21c.06-.09,6.07-8.88,13.39-8.88h.07a9.39,9.39,0,0,1,2.83.48l3.16-8.93A19.07,19.07,0,0,0,130.15,91.3Z"/><path class="cls-6" d="M144.18,111.79a4.73,4.73,0,1,0,8-5.1c-4.88-7.61-10.26-12.43-16.06-14.39l-3.16,8.93C136.67,102.43,140.45,106,144.18,111.79Z"/><path class="cls-11" d="M142.33,108.61c.06,3.82,1.35,6.79,2.86,7a23.9,23.9,0,0,0,5-.46s2.16,3.39,6.55.81c1.94-1.15,5.22-3.21,6.3-5.43,1.37-2.81-1.17-6.31-4.36-5.13-4.94,1.82-6.81,1-6.81,1S149.36,113.35,142.33,108.61Z"/><path class="cls-9" d="M73.24,66.25c0,3.55-2.88,5.91-6.43,5.91s-6.42-2.36-6.42-5.91,2.87-5.54,6.42-5.54S73.24,62.7,73.24,66.25Z"/><path class="cls-9" d="M149.53,95.6c-2.48,2.53-6.19,2.21-8.73-.28s-2.93-6.18-.45-8.72,5.94-1.94,8.47.54S152,93.06,149.53,95.6Z"/><path class="cls-12" d="M89.63,140.94a54.94,54.94,0,0,0,18.33,0c0-13.63,7.39-26.71,18.47-34.47-3.32-7.54-12-12-12-12s-4,9.13-10.91,14.3-19.72-3.49-18.06,8.12S89.63,140.94,89.63,140.94Z"/><path class="cls-6" d="M120.78,87A22.22,22.22,0,0,0,123,75a121.11,121.11,0,0,1-20-4.23S86.3,66.21,78.66,63.9c6.61,4.19,3.29,12.64-1.57,15.74,4.23,1.67,6.94,1.84,10.55,2.42-5.55,13.77-3.73,28-2.37,40.37,6,2,15.89-.33,19.73-7.54,1.56-2.93,1.59-11.3,8.2-18-4-3.33-2.29-11.88-2.29-11.88S120.45,87.48,120.78,87Z"/><ellipse class="cls-9" cx="103.48" cy="70.94" rx="2.37" ry="5.6"/><polygon class="cls-6" points="94.69 158.68 104.43 158.68 104.99 178.22 95.55 178.56 94.69 158.68"/><path class="cls-13" d="M95.43,175.2c1.89,3.25,7.7,3.71,9.57.33,1,6.41,1.53,9.74.83,12.67-.37,1.57-2.47,4.23-5.13,4.22-2.28,0-5.15-2.49-5.57-3.54C94.22,186.6,94.91,182.29,95.43,175.2Z"/><path class="cls-9" d="M129.45,53.37c-2,14.85-12,21.7-26.83,19.69S76,61.43,78,46.58c1.09-8,4.25-15.34,10.53-19.5,5.3-3.52,13.2-4.67,20-3.75C123.36,25.34,131.45,38.52,129.45,53.37Z"/><path class="cls-9" d="M89.87,56.36a3,3,0,0,1-2.54.45,3.69,3.69,0,0,1,2-7,3,3,0,0,1,1.86,1.66"/><path class="cls-9" d="M110.28,59.47A2.59,2.59,0,1,1,110,63.4"/><ellipse class="cls-14" cx="107.62" cy="68.95" rx="2.99" ry="1.68" transform="translate(-5.9 127.68) rotate(-60)"/><circle class="cls-15" cx="99.38" cy="57.78" r="1.77"/><circle class="cls-15" cx="121.33" cy="59.55" r="1.77"/><path class="cls-16" d="M103.69,24.18a10.87,10.87,0,0,1-20.26,7.87c-2.17-5.6.82-11.34,6.41-13.51S101.52,18.59,103.69,24.18Z"/><path class="cls-16" d="M82.06,62.46l3.08-.89L83.6,57.78,89,59l-.78-5.68L93,49.68l1.22-4.43L99,47.69l3.07-4.32,4.32,3.1,2-3.1,3.33,3,4.1-3.77,3.77,3.66,2.66-2.44,2.66,3.66,3.55-2.1,1.32,5.09s1.35-10.28-4.87-18.29-21.12-16.4-36.69-6.54C72,35.88,76.82,57.63,82.06,62.46Z"/><ellipse class="cls-17" cx="100.62" cy="204.85" rx="15.14" ry="4.15"/></g><g class="cls-18"><rect class="cls-19" x="205.9" y="-12.31" width="77.02" height="243.8"/></g></svg>