<svg xmlns="http://www.w3.org/2000/svg" viewBox="0 0 143.48 178.06"><defs><style>.cls-1{isolation:isolate;}.cls-2{fill:#7ccded;}.cls-3{fill:#40220f;}.cls-4{fill:#b9dde7;}.cls-10,.cls-11,.cls-12,.cls-13,.cls-4,.cls-5,.cls-6,.cls-7,.cls-8,.cls-9{stroke:#40220f;stroke-linecap:round;stroke-linejoin:round;}.cls-5{fill:#f0cda4;}.cls-6{fill:#0068b2;}.cls-7{fill:#fff;}.cls-8{fill:#fccb00;}.cls-9{fill:#dcdddd;}.cls-10{fill:#fff100;}.cls-11{fill:#d71618;}.cls-12{fill:none;}.cls-13{fill:#6a3906;}.cls-14{fill:#889ca5;}.cls-15,.cls-17{fill:#b3b3b8;}.cls-16,.cls-17{opacity:0.42;mix-blend-mode:multiply;}</style></defs><title>移動中に止まれない。避けられない</title><g class="cls-1"><g id="レイヤー_1" data-name="レイヤー 1"><path class="cls-2" d="M49,160.65a52.49,52.49,0,0,1-17-2.92,35,35,0,0,1-12.4-7.49c-4.75-4.41-7-8.44-7-12.66,0-6,2.44-14.59,9.3-18.94,6.29-4,16.92-6.55,27.07-6.55A58.75,58.75,0,0,1,64.82,114c3.65,1.06,6,4.4,8,7.35a23.44,23.44,0,0,0,3.51,4.31c.76.66,1.54,1.28,2.3,1.89,3.62,2.92,7,5.67,7,10,0,.51,0,1.07,0,1.64.07,3.79.15,8.5-2.2,11.34s-6.73,3.83-11.39,4.92c-2.07.49-4.22,1-6.15,1.66C61.09,158.84,55.34,160.65,49,160.65Z"/><path class="cls-3" d="M49,112.59a59.2,59.2,0,0,1,15.71,1.89c5.46,1.6,7.83,8.53,11.37,11.56,4.35,3.74,9.15,6.54,9.15,11.54,0,3.77.53,9.53-2.07,12.66-3.26,3.92-11.18,4.3-17.31,6.43-5.07,1.76-10.66,3.48-16.85,3.48a52.06,52.06,0,0,1-16.84-2.9,34,34,0,0,1-12.22-7.38c-3.89-3.61-6.81-7.59-6.81-12.29,0-6.22,2.63-14.44,9.07-18.51s17-6.48,26.8-6.48m0-1c-10.4,0-20.87,2.54-27.33,6.63-7,4.46-9.54,13.21-9.54,19.36,0,4.37,2.27,8.51,7.13,13a35.33,35.33,0,0,0,12.58,7.59,52.94,52.94,0,0,0,17.16,3c6.44,0,12.24-1.82,17.17-3.54A62,62,0,0,1,72.25,156c4.74-1.11,9.22-2.16,11.65-5.09s2.39-7.8,2.32-11.66c0-.58,0-1.13,0-1.64,0-4.6-3.5-7.43-7.22-10.42-.75-.6-1.53-1.23-2.28-1.88a23,23,0,0,1-3.43-4.22c-2.11-3-4.49-6.43-8.31-7.54a59.43,59.43,0,0,0-16-1.93Z"/><path class="cls-4" d="M63.75,132.74c2.19-3.13,3.35-6.66,0-8.09s-1.94,7.32-5.42,6.67c-1.68-.31-4.26-2.45-4-10.13a12.34,12.34,0,0,0-1.44-6.51,6,6,0,0,0-6.29-2.84c-8,1.93-7.24,13.65-4,19.35-1.16-.51-2.2-3.58-4.78-2.58s-1.29,5.68,5.42,8.65C48.33,133.35,53.75,131.52,63.75,132.74Z"/><path class="cls-5" d="M65.82,142.7a3.67,3.67,0,0,1-.66,0,4.5,4.5,0,0,1-3.8-5.1c3.28-22.26,13.29-32.13,13.72-32.54a4.5,4.5,0,0,1,6.27,6.46c-.19.18-8.3,8.54-11.09,27.39A4.49,4.49,0,0,1,65.82,142.7Z"/><path class="cls-5" d="M96.78,140.21a4.51,4.51,0,0,1-4.5-4.5V109.28a4.5,4.5,0,0,1,9,0v26.43A4.5,4.5,0,0,1,96.78,140.21Z"/><path class="cls-5" d="M50.33,92.69A4.5,4.5,0,0,1,49,83.89c15.57-4.83,29.29-18,29.43-18.09a4.5,4.5,0,0,1,6.25,6.48c-.62.6-15.42,14.75-33,20.21A4.71,4.71,0,0,1,50.33,92.69Z"/><path class="cls-6" d="M76.36,98c-4.35,4.83-7.09,10.66-10.42,16.83,1.71,4.28,8.61,6.11,11.47,5.57,3.11-3,6.1-7.08,8.65-6.34s3.87,4,5,8.4c2.58,3.15,10.07,2.6,11.62,0,.68-7.66,1.43-14.91,0-23.17C98.07,98,82.7,95.11,76.36,98Z"/><path class="cls-7" d="M80.78,62.7A102.79,102.79,0,0,1,52,82.45c-.89,4,1.48,7.51,4.31,9.59C67.88,86.77,75.75,82,84.74,74,94.1,65.7,90.17,53.72,80.78,62.7Z"/><path class="cls-7" d="M86.06,49.57c-8-2.61-7.23,5.2-7.63,16.23-.44,12-1.69,27.7-3.31,33.69,5,4.7,23.61,4.42,27.93,2C104.56,82.75,103.54,63.13,86.06,49.57Z"/><path class="cls-6" d="M90.72,130.68c2.84,1.93,8.64,2,11.74,0l-.13,10.11H90.72Z"/><path class="cls-6" d="M103.94,142c0,4-3.2,4.67-7.16,4.67S89.62,146,89.62,142a7.16,7.16,0,0,1,14.32,0Z"/><path class="cls-6" d="M60.88,132.15c2.45,2.4,8.15,3.51,11.56,2.06l-1.9,9.93-11.44-2Z"/><path class="cls-6" d="M70.54,144.14C70.18,146,66.49,146.4,66,147c-1.43,1.47-3.93,1.41-6.74.91-3.9-.7-6.93-2-6.23-5.86a7.16,7.16,0,0,1,13.52-1.81"/><path class="cls-4" d="M74.59,148.2c1.34-2.72,6.15-6.15,10.15-5.37s6.31-2,4.59-3.51c-1.87-1.62-6.23,2.18-7.52-.51a6.55,6.55,0,0,1,1.29-6.66,52.92,52.92,0,0,1,8.41-6.41,3.61,3.61,0,0,0,.77-5.26c-2.32-2.65-5.38,2.73-8.4,6.6-1.78,2.26-3.86,3.6-4.91,3.6-1.23,0-.79-2.69,1.17-4.78,2.51-2.67,5.92-4,2.56-6.19-1.21-.79-3.62.18-5,1.55-4.64,4.56-2.06,16.89-7.87,15.87-1.94-.34,5.57-10.89,3.36-13.9-1.16-1.59-2.45-.12-3.61,1.33-3.9,4.83-2.36,16-9.17,18.41-2.91,1-5.34-2.33-7.51-4.82-2.92-3.33-6.24-4.32-8.82-2.42-4.52,3.33,6.16,4.44,4.85,6.43-.35.53-2.1.72-4,0-2.18-.83-4.66-2.66-7.1-3.23-3.38-.77-6.11.2-5.67,2.46,1,5.31,13.42,1.54,17.93,7.35S72,153.43,74.59,148.2Z"/><path class="cls-4" d="M31.23,132.15c1.55-2.89-4.51-7.5-6.84-3.54C22.46,131.9,29.81,128.57,31.23,132.15Z"/><circle class="cls-4" cx="45.83" cy="104.78" r="1.77"/><path class="cls-8" d="M121,116.58a1,1,0,0,1-.8-.4l-5.29-7.1a1,1,0,1,1,1.6-1.19l5.29,7.09a1,1,0,0,1-.2,1.4A1,1,0,0,1,121,116.58Z"/><path class="cls-9" d="M115.75,109.48a1,1,0,0,1-.8-.4L89.49,74.76a1,1,0,0,1,1.61-1.2l25.45,34.33a1,1,0,0,1-.21,1.4A1,1,0,0,1,115.75,109.48Z"/><path class="cls-10" d="M117.7,112.78l-27.4-26,6.29,2-1.74-4.16s5.28,4.81,5.35,3.9a58.18,58.18,0,0,0-1-5.93l3.71,5,.6-6.71,15.72,30.64A1.72,1.72,0,0,1,117.7,112.78Z"/><path class="cls-8" d="M94.33,79.71c-.91.63-2,.82-2.59-.08l-5.53-7.91a2.39,2.39,0,1,0-3.91,2.74A2,2,0,0,1,79,76.75a6.39,6.39,0,1,1,10.47-7.32L95,77.33C95.65,78.24,95.23,79.08,94.33,79.71Z"/><path class="cls-5" d="M103.92,90.89c-5.07,0-10.92-2.73-13.62-4.16a4.5,4.5,0,1,1,4.19-8,30.81,30.81,0,0,0,8.78,3.11,20.59,20.59,0,0,0-4.14-5.09c-1.48-1.43-1.82-12.86.22-11.45,3.56,2.48,15,11.21,12.89,19.71A7.4,7.4,0,0,1,108,90.11,10.09,10.09,0,0,1,103.92,90.89Z"/><path class="cls-7" d="M96.69,75.9c2.76,2.12,6.81,5.37,6.58,6-.33.93-7.52-3.27-7.52-3.27s-1.28,7.08-3.47,10.25c7,3.18,16.34,5.35,20.23-.67s-3-20.49-15.73-26.61"/><path class="cls-5" d="M114.25,37.46c2.2,14.72-6.45,25-21.17,27.22-8,1.18-15.88,2.09-21.47-1.86-4.75-3.37-7.68-10.94-8.69-17.71A26.94,26.94,0,0,1,85.6,14.48C100.32,12.28,112.06,22.73,114.25,37.46Z"/><path class="cls-5" d="M79.7,52.46a2.22,2.22,0,0,1-1.47.91,2.25,2.25,0,1,1-.73-4.45,2.22,2.22,0,0,1,1.64.36"/><path class="cls-11" d="M77.87,56.2c3.36-1.33,10-1.87,12.23,0a4,4,0,0,1,.62,5.35c-.62.77-4.12,2-8.91,2C81.81,61.4,79.7,57.77,77.87,56.2Z"/><polyline class="cls-12" points="68.01 46.09 70.96 49.16 68.01 49.79"/><polyline class="cls-12" points="97.42 44.49 94.06 47.7 97.67 48.58"/><path class="cls-13" d="M73.3,34c5.8,6,10.71,8.06,16,9.09-3.24-3.74-3.87-4.77-4.56-7.16,10.58,4.74,17.85,5.5,23.35,4.77,3.36,7.27,2.38,12.53-1.55,18.54,9.6-2.73,13.28-18.69,7-31.09S87.73,10.61,77.87,15.32s-18,18.28-15,29.79C69.49,42.16,71,38.93,73.3,34Z"/><path class="cls-5" d="M106.54,41.85a2.28,2.28,0,0,1,1.55-1.18c1.45-.26,2.92,1.15,3.28,3.15s-.53,3.83-2,4.09a2.41,2.41,0,0,1-2.1-.78"/><path class="cls-14" d="M107.26,163.59c-2.32,0-5.13-.81-6.05-3.06a.58.58,0,0,1,0-.19,4.45,4.45,0,0,1,.8-2.53c2.16-3.07,5.38-3.75,8.78-4.48l.11,0a15.77,15.77,0,0,1,3.29-.36,12.36,12.36,0,0,1,4.14.68.37.37,0,0,1,.14.07,7.34,7.34,0,0,1,2.88,4.45.59.59,0,0,1,.25.27.5.5,0,0,1,0,.13,2.5,2.5,0,0,1-1.54,2.63,16.18,16.18,0,0,1-5.36,1.3,28.27,28.27,0,0,0-3.11.49h-.17a.49.49,0,0,1-.34.14h-.25a5.08,5.08,0,0,0-1.23.2l-.66.14a10.39,10.39,0,0,1-1.68.14Z"/><path class="cls-3" d="M114.15,153.45a12.16,12.16,0,0,1,4,.65,6.82,6.82,0,0,1,2.71,4.28c.07.13.2.13.27.26a2,2,0,0,1-1.28,2.09c-2.56,1.28-5.45,1.08-8.35,1.75a.79.79,0,0,0-.26-.06c-.09,0-.18.05-.14.2h-.24a11.37,11.37,0,0,0-2,.35,10.16,10.16,0,0,1-1.59.12c-2.31,0-4.79-.78-5.59-2.73a4,4,0,0,1,.71-2.26c2.07-2.93,5.23-3.58,8.58-4.29a15.42,15.42,0,0,1,3.19-.35m0-1a16.13,16.13,0,0,0-3.39.37l-.12,0c-3.34.71-6.8,1.45-9.08,4.68a5,5,0,0,0-.89,2.82,1,1,0,0,0,.08.38c1,2.48,4,3.36,6.51,3.36a10.2,10.2,0,0,0,1.76-.14c.24,0,.47-.09.7-.15a5.41,5.41,0,0,1,1.12-.18h.24a1,1,0,0,0,.51-.14l.12,0a28.89,28.89,0,0,1,3.05-.49,16.29,16.29,0,0,0,5.52-1.34,3,3,0,0,0,1.81-3.18.73.73,0,0,0-.08-.25,1.45,1.45,0,0,0-.26-.35,7.75,7.75,0,0,0-3-4.55,1.22,1.22,0,0,0-.27-.15,13.16,13.16,0,0,0-4.31-.7Z"/><path class="cls-14" d="M110.57,166.65c-2.93,0-5.58-.69-7.09-1.8a5.75,5.75,0,0,1-2.31-4.51.52.52,0,0,1,.41-.49h.09a.5.5,0,0,1,.47.32c.73,1.79,3.12,2.43,5.12,2.43a9.42,9.42,0,0,0,1.51-.13c.2,0,.4-.08.6-.13a7,7,0,0,1,1.38-.22.65.65,0,0,1,.47-.19.93.93,0,0,1,.29.05,28.27,28.27,0,0,1,3.07-.48,15.2,15.2,0,0,0,5-1.2c.19-.1,1.1-.6,1-1.43a.43.43,0,0,1-.24-.26.69.69,0,0,1-.05-.13,6.33,6.33,0,0,0-2.52-4,.5.5,0,0,1-.14-.64.51.51,0,0,1,.44-.26.45.45,0,0,1,.16,0,12.41,12.41,0,0,1,3.82,2.15,5.13,5.13,0,0,1,1.45,5.31c-.53,2.25-2.29,3.08-4.2,3.79a30.87,30.87,0,0,1-4.75,1.4,14.07,14.07,0,0,1-2,.18,9.29,9.29,0,0,0-1.86.17l-.12,0Z"/><path class="cls-3" d="M118.13,154.1a12,12,0,0,1,3.67,2.06,4.71,4.71,0,0,1,1.27,4.81c-.47,2-2,2.76-3.89,3.44a30.37,30.37,0,0,1-4.67,1.38c-1.29.25-2.82.08-3.93.36-2.36,0-5.17-.5-6.8-1.7a5.24,5.24,0,0,1-2.11-4.1c.8,2,3.28,2.73,5.59,2.73a10.16,10.16,0,0,0,1.59-.12,11.37,11.37,0,0,1,2-.35h.24c0-.15,0-.2.14-.2a.79.79,0,0,1,.26.06c2.9-.67,5.79-.47,8.35-1.75a2,2,0,0,0,1.28-2.09c-.07-.13-.2-.13-.27-.26a6.82,6.82,0,0,0-2.71-4.28m0-1a1,1,0,0,0-.89.53,1,1,0,0,0,.29,1.27,5.87,5.87,0,0,1,2.33,3.66,1.3,1.3,0,0,0,.26.53c-.1.42-.66.71-.74.75a14.73,14.73,0,0,1-4.87,1.15c-1,.12-2,.24-3,.46a2.58,2.58,0,0,0-.29,0,1.17,1.17,0,0,0-.66.2,8.38,8.38,0,0,0-1.3.22c-.2,0-.39.1-.59.13a8,8,0,0,1-1.41.11c-1.84,0-4-.55-4.66-2.11a1,1,0,0,0-.92-.63l-.2,0a1,1,0,0,0-.81,1,6.22,6.22,0,0,0,2.52,4.91c2.35,1.74,6.24,1.89,7.38,1.9h0l.24,0a8.88,8.88,0,0,1,1.76-.16,13.8,13.8,0,0,0,2.12-.19,31.21,31.21,0,0,0,4.83-1.42c1.55-.58,3.88-1.45,4.51-4.15a5.61,5.61,0,0,0-1.61-5.81,13.19,13.19,0,0,0-4-2.24,1.26,1.26,0,0,0-.33-.05Z"/><path class="cls-14" d="M111.28,166.63a.5.5,0,0,1,0-1l1.07-.08a.5.5,0,0,1,0,1c-.33,0-.69.06-1.07.07Z"/><path class="cls-3" d="M112.31,166.06h0m0,0c-.33,0-.67.06-1,.07l1-.07m0-1h-.08l-1,.08a1,1,0,0,0,.07,2h0c.38,0,.75,0,1.1-.07a1,1,0,0,0-.09-2Zm0,2Z"/><path class="cls-14" d="M110.38,166.7a.5.5,0,0,1-.14-1l.22-.06h.82a.5.5,0,0,1,0,1Z"/><path class="cls-3" d="M111.28,166.13h0m0,0-.9.07.2,0h.07l.63,0m0-1h-.7a1,1,0,0,0-.24,0l-.25.06a1,1,0,0,0,.29,2h.08l.88-.07a1,1,0,0,0,.94-1,1,1,0,0,0-1-1Zm0,2Z"/><path class="cls-15" d="M131.27,164.06a.41.41,0,0,1-.16,0,4.92,4.92,0,0,0-.58-.14,3,3,0,0,1-1.41-.56,4.8,4.8,0,0,0-.93-.61.51.51,0,0,1,.1-.92,8.3,8.3,0,0,1,1-.22A7.63,7.63,0,0,1,132,161c1.81,0,3,.74,3.48,2.09a.5.5,0,0,1-.31.62,3.39,3.39,0,0,1-1.15.18c-.3,0-.61,0-.93-.06s-.58-.05-.88-.05l-.49,0h-.07a.65.65,0,0,1-.18.15A.59.59,0,0,1,131.27,164.06Z"/><path class="cls-3" d="M132,161.54c1.36,0,2.6.48,3,1.74a2.72,2.72,0,0,1-1,.15c-.58,0-1.19-.11-1.81-.11a3.6,3.6,0,0,0-.56,0c-.07,0-.33,0-.4.2a5.08,5.08,0,0,1-1.82-.61,5.26,5.26,0,0,0-1-.67,7.47,7.47,0,0,1,.91-.21,7.61,7.61,0,0,1,2.68-.53m0-1a8.56,8.56,0,0,0-3,.56,8.82,8.82,0,0,0-.92.22,1,1,0,0,0-.71.85,1,1,0,0,0,.51,1,4,4,0,0,1,.83.54,3.44,3.44,0,0,0,1.65.68,4.37,4.37,0,0,1,.52.13,1.13,1.13,0,0,0,.32.05,1.06,1.06,0,0,0,.45-.11l.18-.11.33,0c.27,0,.54,0,.84.05s.64.06,1,.06a4.11,4.11,0,0,0,1.32-.2A1,1,0,0,0,136,163c-.49-1.55-1.93-2.44-3.95-2.44Z"/><path class="cls-15" d="M129.16,165.13a3.77,3.77,0,0,1-3.09-1.13.49.49,0,0,1-.11-.4c.17-1,1.36-1.51,2.33-1.8l.15,0a.53.53,0,0,1,.24.06,5.89,5.89,0,0,1,1.1.74,2.25,2.25,0,0,0,.95.33c.13,0,.26.05.38.09a1.1,1.1,0,0,1,.56-.14,3,3,0,0,1,.56,0c.33,0,.65,0,1,.06s.57.05.84.05a2.39,2.39,0,0,0,.81-.12.51.51,0,0,1,.17,0,.43.43,0,0,1,.22.06.5.5,0,0,1,.26.29c0,.14.08.29.11.45a.5.5,0,0,1-.1.38.49.49,0,0,1-.34.2c-.44.05-1,.18-1.75.34A21.14,21.14,0,0,1,129.16,165.13Z"/><path class="cls-3" d="M128.43,162.28a5.26,5.26,0,0,1,1,.67,5.08,5.08,0,0,0,1.82.61c.07-.2.33-.2.4-.2a3.6,3.6,0,0,1,.56,0c.62,0,1.23.11,1.81.11a2.72,2.72,0,0,0,1-.15,2.34,2.34,0,0,1,.09.38c-1.31.15-3.86,1-6,1a3.38,3.38,0,0,1-2.71-.95c.12-.62,1-1.1,2-1.4m0-1a1.35,1.35,0,0,0-.28,0c-1.58.47-2.51,1.23-2.68,2.19a1,1,0,0,0,.22.81,4.26,4.26,0,0,0,3.47,1.31,21.61,21.61,0,0,0,4.36-.64,16.36,16.36,0,0,1,1.7-.33,1,1,0,0,0,.69-.39,1,1,0,0,0,.19-.77A3,3,0,0,0,136,163a1,1,0,0,0-.5-.59,1,1,0,0,0-.45-.11.92.92,0,0,0-.33.06,2,2,0,0,1-.65.09,7.61,7.61,0,0,1-.79-.05c-.33,0-.66-.06-1-.06a4.49,4.49,0,0,0-.64,0,1.66,1.66,0,0,0-.53.11l-.23-.05a2.24,2.24,0,0,1-.73-.23,6.12,6.12,0,0,0-1.18-.78,1,1,0,0,0-.49-.13Z"/><g class="cls-16"><path class="cls-14" d="M110.57,166.65c-2.93,0-5.58-.69-7.09-1.8a5.75,5.75,0,0,1-2.31-4.51.52.52,0,0,1,.41-.49h.09a.5.5,0,0,1,.47.32c.73,1.79,3.12,2.43,5.12,2.43a9.42,9.42,0,0,0,1.51-.13c.2,0,.4-.08.6-.13a7,7,0,0,1,1.38-.22.65.65,0,0,1,.47-.19.93.93,0,0,1,.29.05,28.27,28.27,0,0,1,3.07-.48,15.2,15.2,0,0,0,5-1.2c.19-.1,1.1-.6,1-1.43a.43.43,0,0,1-.24-.26.69.69,0,0,1-.05-.13,6.33,6.33,0,0,0-2.52-4,.5.5,0,0,1-.14-.64.51.51,0,0,1,.44-.26.45.45,0,0,1,.16,0,12.41,12.41,0,0,1,3.82,2.15,5.13,5.13,0,0,1,1.45,5.31c-.53,2.25-2.29,3.08-4.2,3.79a30.87,30.87,0,0,1-4.75,1.4,14.07,14.07,0,0,1-2,.18,9.29,9.29,0,0,0-1.86.17l-.12,0Z"/><path class="cls-3" d="M118.13,154.1a12,12,0,0,1,3.67,2.06,4.71,4.71,0,0,1,1.27,4.81c-.47,2-2,2.76-3.89,3.44a30.37,30.37,0,0,1-4.67,1.38c-1.29.25-2.82.08-3.93.36-2.36,0-5.17-.5-6.8-1.7a5.24,5.24,0,0,1-2.11-4.1c.8,2,3.28,2.73,5.59,2.73a10.16,10.16,0,0,0,1.59-.12,11.37,11.37,0,0,1,2-.35h.24c0-.15,0-.2.14-.2a.79.79,0,0,1,.26.06c2.9-.67,5.79-.47,8.35-1.75a2,2,0,0,0,1.28-2.09c-.07-.13-.2-.13-.27-.26a6.82,6.82,0,0,0-2.71-4.28m0-1a1,1,0,0,0-.89.53,1,1,0,0,0,.29,1.27,5.87,5.87,0,0,1,2.33,3.66,1.3,1.3,0,0,0,.26.53c-.1.42-.66.71-.74.75a14.73,14.73,0,0,1-4.87,1.15c-1,.12-2,.24-3,.46a2.58,2.58,0,0,0-.29,0,1.17,1.17,0,0,0-.66.2,8.38,8.38,0,0,0-1.3.22c-.2,0-.39.1-.59.13a8,8,0,0,1-1.41.11c-1.84,0-4-.55-4.66-2.11a1,1,0,0,0-.92-.63l-.2,0a1,1,0,0,0-.81,1,6.22,6.22,0,0,0,2.52,4.91c2.35,1.74,6.24,1.89,7.38,1.9h0l.24,0a8.88,8.88,0,0,1,1.76-.16,13.8,13.8,0,0,0,2.12-.19,31.21,31.21,0,0,0,4.83-1.42c1.55-.58,3.88-1.45,4.51-4.15a5.61,5.61,0,0,0-1.61-5.81,13.19,13.19,0,0,0-4-2.24,1.26,1.26,0,0,0-.33-.05Z"/><path class="cls-14" d="M111.28,166.63a.5.5,0,0,1,0-1l1.07-.08a.5.5,0,0,1,0,1c-.33,0-.69.06-1.07.07Z"/><path class="cls-3" d="M112.31,166.06h0m0,0c-.33,0-.67.06-1,.07l1-.07m0-1h-.08l-1,.08a1,1,0,0,0,.07,2h0c.38,0,.75,0,1.1-.07a1,1,0,0,0-.09-2Zm0,2Z"/><path class="cls-14" d="M110.38,166.7a.5.5,0,0,1-.14-1l.22-.06h.82a.5.5,0,0,1,0,1Z"/><path class="cls-3" d="M111.28,166.13h0m0,0-.9.07.2,0h.07l.63,0m0-1h-.7a1,1,0,0,0-.24,0l-.25.06a1,1,0,0,0,.29,2h.08l.88-.07a1,1,0,0,0,.94-1,1,1,0,0,0-1-1Zm0,2Z"/></g><g class="cls-16"><path class="cls-15" d="M129.16,165.13a3.77,3.77,0,0,1-3.09-1.13.49.49,0,0,1-.11-.4c.17-1,1.36-1.51,2.33-1.8l.15,0a.53.53,0,0,1,.24.06,5.89,5.89,0,0,1,1.1.74,2.25,2.25,0,0,0,.95.33c.13,0,.26.05.38.09a1.1,1.1,0,0,1,.56-.14,3,3,0,0,1,.56,0c.33,0,.65,0,1,.06s.57.05.84.05a2.39,2.39,0,0,0,.81-.12.51.51,0,0,1,.17,0,.43.43,0,0,1,.22.06.5.5,0,0,1,.26.29c0,.14.08.29.11.45a.5.5,0,0,1-.1.38.49.49,0,0,1-.34.2c-.44.05-1,.18-1.75.34A21.14,21.14,0,0,1,129.16,165.13Z"/><path class="cls-3" d="M128.43,162.28a5.26,5.26,0,0,1,1,.67,5.08,5.08,0,0,0,1.82.61c.07-.2.33-.2.4-.2a3.6,3.6,0,0,1,.56,0c.62,0,1.23.11,1.81.11a2.72,2.72,0,0,0,1-.15,2.34,2.34,0,0,1,.09.38c-1.31.15-3.86,1-6,1a3.38,3.38,0,0,1-2.71-.95c.12-.62,1-1.1,2-1.4m0-1a1.35,1.35,0,0,0-.28,0c-1.58.47-2.51,1.23-2.68,2.19a1,1,0,0,0,.22.81,4.26,4.26,0,0,0,3.47,1.31,21.61,21.61,0,0,0,4.36-.64,16.36,16.36,0,0,1,1.7-.33,1,1,0,0,0,.69-.39,1,1,0,0,0,.19-.77A3,3,0,0,0,136,163a1,1,0,0,0-.5-.59,1,1,0,0,0-.45-.11.92.92,0,0,0-.33.06,2,2,0,0,1-.65.09,7.61,7.61,0,0,1-.79-.05c-.33,0-.66-.06-1-.06a4.49,4.49,0,0,0-.64,0,1.66,1.66,0,0,0-.53.11l-.23-.05a2.24,2.24,0,0,1-.73-.23,6.12,6.12,0,0,0-1.18-.78,1,1,0,0,0-.49-.13Z"/></g><path class="cls-14" d="M108.85,163a8.15,8.15,0,0,1,2.23-.34c-.07-.34.4-.14.4-.14,2.9-.67,5.79-.47,8.35-1.75a2,2,0,0,0,1.28-2.09c-.07-.13-.2-.13-.27-.26a6.82,6.82,0,0,0-2.71-4.28,13.15,13.15,0,0,0-7.17-.3c-3.35.71-6.51,1.36-8.58,4.29a3.94,3.94,0,0,0-.71,2.25C102.66,162.76,106.23,163.39,108.85,163Z"/><path class="cls-14" d="M121.8,156.16a12,12,0,0,0-3.67-2.06,6.82,6.82,0,0,1,2.71,4.28c.07.13.2.13.27.26a2,2,0,0,1-1.28,2.09c-2.56,1.28-5.45,1.08-8.35,1.75,0,0-.47-.2-.4.14a8.15,8.15,0,0,0-2.23.34c-2.62.43-6.19-.2-7.18-2.62a5.24,5.24,0,0,0,2.11,4.11c1.63,1.2,4.44,1.69,6.8,1.7,1.11-.28,2.64-.11,3.93-.36a30.37,30.37,0,0,0,4.67-1.38c1.84-.68,3.42-1.41,3.89-3.44A4.71,4.71,0,0,0,121.8,156.16Z"/><path class="cls-14" d="M111.28,166.13c.36,0,.7,0,1-.07Z"/><path class="cls-14" d="M111.28,166.13l-.7,0-.2,0Z"/><path class="cls-15" d="M131.27,163.56c.07-.2.33-.2.4-.2,1.15-.17,2.31.29,3.35-.08-.67-2.1-3.62-2-5.68-1.21a7.47,7.47,0,0,0-.91.21,5.26,5.26,0,0,1,1,.67A5.08,5.08,0,0,0,131.27,163.56Z"/><path class="cls-15" d="M131.67,163.36c-.07,0-.33,0-.4.2a5.08,5.08,0,0,1-1.82-.61,5.26,5.26,0,0,0-1-.67c-1,.3-1.86.78-2,1.4,1.68,2,6.65.21,8.66,0a2.34,2.34,0,0,0-.09-.38C134,163.65,132.82,163.19,131.67,163.36Z"/><g class="cls-16"><path class="cls-14" d="M121.8,156.16a12,12,0,0,0-3.67-2.06,6.82,6.82,0,0,1,2.71,4.28c.07.13.2.13.27.26a2,2,0,0,1-1.28,2.09c-2.56,1.28-5.45,1.08-8.35,1.75,0,0-.47-.2-.4.14a8.15,8.15,0,0,0-2.23.34c-2.62.43-6.19-.2-7.18-2.62a5.24,5.24,0,0,0,2.11,4.11c1.63,1.2,4.44,1.69,6.8,1.7,1.11-.28,2.64-.11,3.93-.36a30.37,30.37,0,0,0,4.67-1.38c1.84-.68,3.42-1.41,3.89-3.44A4.71,4.71,0,0,0,121.8,156.16Z"/><path class="cls-14" d="M111.28,166.13c.36,0,.7,0,1-.07Z"/><path class="cls-14" d="M111.28,166.13l-.7,0-.2,0Z"/></g><path class="cls-17" d="M131.67,163.36c-.07,0-.33,0-.4.2a5.08,5.08,0,0,1-1.82-.61,5.26,5.26,0,0,0-1-.67c-1,.3-1.86.78-2,1.4,1.68,2,6.65.21,8.66,0a2.34,2.34,0,0,0-.09-.38C134,163.65,132.82,163.19,131.67,163.36Z"/></g></g></svg>