<svg id="レイヤー_1" data-name="レイヤー 1" xmlns="http://www.w3.org/2000/svg" xmlns:xlink="http://www.w3.org/1999/xlink" viewBox="0 0 376.93 218"><defs><style>.cls-1,.cls-11,.cls-17,.cls-2,.cls-6{fill:none;}.cls-2{stroke:#ec8bb6;stroke-width:2.88px;}.cls-3{fill:#2089cb;}.cls-4{fill:#e72b39;}.cls-5{fill:#d71718;}.cls-6{stroke:#fff;stroke-width:4px;}.cls-6,.cls-9{stroke-miterlimit:10;}.cls-7{fill:#1074ba;}.cls-8{fill:#40220f;}.cls-12,.cls-9{fill:#f5dcbe;}.cls-10,.cls-11,.cls-12,.cls-13,.cls-16,.cls-9{stroke:#40220f;}.cls-10{fill:#0068b2;}.cls-10,.cls-11,.cls-12,.cls-13,.cls-16,.cls-17{stroke-linecap:round;stroke-linejoin:round;}.cls-13{fill:#00a0df;}.cls-14{fill:#fff;}.cls-15{fill:url(#_10_lpi_40_2);}.cls-16{fill:#6a3906;}.cls-17{stroke:#41210d;}</style><pattern id="_10_lpi_40_2" data-name="10 lpi 40% 2" width="72" height="72" patternTransform="translate(-35.43 5.82)" patternUnits="userSpaceOnUse" viewBox="0 0 72 72"><rect class="cls-1" width="72" height="72"/><line class="cls-2" x1="71.75" y1="68.4" x2="144.25" y2="68.4"/><line class="cls-2" x1="71.75" y1="54" x2="144.25" y2="54"/><line class="cls-2" x1="71.75" y1="39.6" x2="144.25" y2="39.6"/><line class="cls-2" x1="71.75" y1="25.2" x2="144.25" y2="25.2"/><line class="cls-2" x1="71.75" y1="10.8" x2="144.25" y2="10.8"/><line class="cls-2" x1="71.75" y1="61.2" x2="144.25" y2="61.2"/><line class="cls-2" x1="71.75" y1="46.8" x2="144.25" y2="46.8"/><line class="cls-2" x1="71.75" y1="32.4" x2="144.25" y2="32.4"/><line class="cls-2" x1="71.75" y1="18" x2="144.25" y2="18"/><line class="cls-2" x1="71.75" y1="3.6" x2="144.25" y2="3.6"/><line class="cls-2" x1="-0.25" y1="68.4" x2="72.25" y2="68.4"/><line class="cls-2" x1="-0.25" y1="54" x2="72.25" y2="54"/><line class="cls-2" x1="-0.25" y1="39.6" x2="72.25" y2="39.6"/><line class="cls-2" x1="-0.25" y1="25.2" x2="72.25" y2="25.2"/><line class="cls-2" x1="-0.25" y1="10.8" x2="72.25" y2="10.8"/><line class="cls-2" x1="-0.25" y1="61.2" x2="72.25" y2="61.2"/><line class="cls-2" x1="-0.25" y1="46.8" x2="72.25" y2="46.8"/><line class="cls-2" x1="-0.25" y1="32.4" x2="72.25" y2="32.4"/><line class="cls-2" x1="-0.25" y1="18" x2="72.25" y2="18"/><line class="cls-2" x1="-0.25" y1="3.6" x2="72.25" y2="3.6"/><line class="cls-2" x1="-72.25" y1="68.4" x2="0.25" y2="68.4"/><line class="cls-2" x1="-72.25" y1="54" x2="0.25" y2="54"/><line class="cls-2" x1="-72.25" y1="39.6" x2="0.25" y2="39.6"/><line class="cls-2" x1="-72.25" y1="25.2" x2="0.25" y2="25.2"/><line class="cls-2" x1="-72.25" y1="10.8" x2="0.25" y2="10.8"/><line class="cls-2" x1="-72.25" y1="61.2" x2="0.25" y2="61.2"/><line class="cls-2" x1="-72.25" y1="46.8" x2="0.25" y2="46.8"/><line class="cls-2" x1="-72.25" y1="32.4" x2="0.25" y2="32.4"/><line class="cls-2" x1="-72.25" y1="18" x2="0.25" y2="18"/><line class="cls-2" x1="-72.25" y1="3.6" x2="0.25" y2="3.6"/></pattern></defs><title>リンク</title><polygon class="cls-3" points="359.27 188.63 185.81 188.63 185.81 179.38 359.27 179.88 359.27 188.63"/><polygon class="cls-4" points="185.84 188.63 13.35 188.63 13.35 179.22 185.84 179.38 185.84 188.63"/><polygon class="cls-5" points="185.84 179.55 13.35 179.22 68.99 139.9 185.81 140.05 185.84 179.55"/><path class="cls-6" d="M90.5,155.84c-6.78,7-22.53,13.45-34.26,13.43s-12.52-6.49-3.09-13.48c8.26-6.13,21.69-10.55,30.9-10.54S96.43,149.71,90.5,155.84Z"/><path class="cls-6" d="M134.94,155.91c-3.62,7-16.47,13.47-28.21,13.45s-15.47-6.5-9.19-13.51c5.5-6.13,16.94-10.56,26.16-10.55S138.11,149.77,134.94,155.91Z"/><path class="cls-6" d="M179.45,156c-.45,7-10.4,13.49-22.16,13.46s-18.41-6.5-15.3-13.52c2.73-6.14,12.19-10.58,21.42-10.56S179.84,149.83,179.45,156Z"/><polygon class="cls-7" points="359.27 179.88 185.84 179.55 185.81 140.05 303.06 140.2 359.27 179.88"/><path class="cls-6" d="M230.21,156.06c3.17,7-3.46,13.51-15.24,13.49S193.19,163,192.69,156c-.43-6.15,6.75-10.59,16-10.58S227.43,149.9,230.21,156.06Z"/><path class="cls-6" d="M274.84,156.13c6.36,7,2.66,13.52-9.14,13.5s-24.74-6.52-28.42-13.56c-3.22-6.16,2-10.61,11.21-10.6S269.28,150,274.84,156.13Z"/><path class="cls-6" d="M319.54,156.19c9.56,7.06,8.79,13.55-3,13.53s-27.72-6.53-34.58-13.58c-6-6.17-2.85-10.62,6.42-10.61S311.18,150,319.54,156.19Z"/><path class="cls-8" d="M69,139.9l116.82.15,117.25.15,56.21,39.68v8.75H13.35v-9.41L69,139.9m0-1a1,1,0,0,0-.58.18L12.77,178.4a1,1,0,0,0-.42.82v9.41a1,1,0,0,0,1,1H359.27a1,1,0,0,0,1-1v-8.75a1,1,0,0,0-.43-.82l-56.21-39.68a.94.94,0,0,0-.57-.18l-117.25-.15L69,138.9Z"/><path class="cls-9" d="M252,135.65l-4.82-1.33-4.85-1.24c.3-1.14,9.3-31.13,60.53-22.18a5,5,0,0,1,4.07,5.78c-.48,2.72-4.46,6.24-7.18,5.76C258.3,115.2,252.23,134.87,252,135.65Z"/><path class="cls-10" d="M243.65,129.83c-3.15,2.62-5.15,7.87-5.77,9.87s-.75,4,0,5,8,2.37,9.87,1.75a6.06,6.06,0,0,0,3.38-2.88c.87-1.25,2.16-5.92,2.43-11-2.31,2.14-4.55,2.07-7.34,1.52S243.38,132.45,243.65,129.83Z"/><path class="cls-11" d="M239.38,140.57s5.12-1.5,8.75,1.63"/><path class="cls-12" d="M279.58,92a5,5,0,0,0-6.15,3.49l-14.25,51.75c-1.33,3-5.62,3-5.62,6.33a6,6,0,0,0,6,6c3.31,0,6.91-2.6,8.7-8.39,0,0,0,0,0,0a4.85,4.85,0,0,0,.55-1.25l14.25-51.75A5,5,0,0,0,279.58,92Z"/><path class="cls-12" d="M269.17,94.53A5,5,0,0,0,263,97.9l-10.75,36.25a4.42,4.42,0,0,0-.1.5c-.1.25-.21.5-.32.76-1.34,3-5.63,3-5.63,6.32a6,6,0,0,0,6,6c3.32,0,6.91-2.6,8.71-8.39a2.25,2.25,0,0,0,.07-.7,5.19,5.19,0,0,0,.86-1.65l10.75-36.25A5,5,0,0,0,269.17,94.53Z"/><path class="cls-13" d="M287.13,108.07c3.12,4.38,4.12,9.88,3,16.63a75.27,75.27,0,0,0,26,2.75V111.82A179.35,179.35,0,0,0,287.13,108.07Z"/><path class="cls-14" d="M284.93,104.62c6.87,1.25,18.07,8.93,20.95,15.95s20-1.25,20-1.25l7-6a3.66,3.66,0,0,0,2.5-1.12c-6.88-15.63-33.38-28.38-50.63-30s-22.37-1.63-22.37-1.63l-1.43,18s-3.7,6.75-3.7,12.5a93.75,93.75,0,0,1,11.09,2.25l1.18-2.39a121.25,121.25,0,0,1,13.73,1.27C284.38,108.07,283.68,107.62,284.93,104.62Z"/><path class="cls-15" d="M284.93,104.62c6.87,1.25,18.07,8.93,20.95,15.95s20-1.25,20-1.25l7-6a3.66,3.66,0,0,0,2.5-1.12c-6.88-15.63-33.38-28.38-50.63-30s-22.37-1.63-22.37-1.63l-1.43,18s-3.7,6.75-3.7,12.5a93.75,93.75,0,0,1,11.09,2.25l1.18-2.39a121.25,121.25,0,0,1,13.73,1.27C284.38,108.07,283.68,107.62,284.93,104.62Z"/><path class="cls-11" d="M284.93,104.62c6.87,1.25,18.07,8.93,20.95,15.95s20-1.25,20-1.25l7-6a3.66,3.66,0,0,0,2.5-1.12c-6.88-15.63-33.38-28.38-50.63-30s-22.37-1.63-22.37-1.63l-1.43,18s-3.7,6.75-3.7,12.5a93.75,93.75,0,0,1,11.09,2.25l1.18-2.39a121.25,121.25,0,0,1,13.73,1.27C284.38,108.07,283.68,107.62,284.93,104.62Z"/><path class="cls-16" d="M265.38,34.82c0-10.75,13.75-15.52,23.32-11.15,15.63,7.12,7.93,19.73,12.93,26.65s9.37,7,16.87,9.63c-6.87,4-16.31,4-22.19,1-9.92-5.08-9.25-10-15.38-15S265.38,45.57,265.38,34.82Z"/><path class="cls-12" d="M286.75,56.78c6.36,16.9-3.5,31.79-19.37,40.54-7.22,4-15.92,8-23.07,5.34C235.78,99.46,229,89,225.55,79.8a32.69,32.69,0,1,1,61.2-23Z"/><path class="cls-16" d="M289,55.07a26.27,26.27,0,0,1-5.15,27.66l-2.36-1.41,1.32-2.61L280,78.07l1.69-3.7-3.06-1.55L280,68s-10-18.79-33.79-32.39C261,30,282.36,37.41,289,55.07Z"/><path class="cls-12" d="M272.75,59.83a4.32,4.32,0,0,1,1.91-3.4c2.27-1.4,5.63-.06,7.51,3s1.56,6.65-.71,8a4.3,4.3,0,0,1-3.9.17"/><path class="cls-12" d="M246.16,88a3.25,3.25,0,1,1-2.93-3.56"/><circle class="cls-8" cx="256.07" cy="78.07" r="1.18"/><ellipse class="cls-8" cx="235.38" cy="87.95" rx="0.88" ry="1.18" transform="translate(-12.44 129.47) rotate(-30)"/><path class="cls-11" d="M250.38,98.7a1.91,1.91,0,0,1,.75-1.75c.87-.5,3.77,0,3.77,0"/><path class="cls-16" d="M246.25,35.59c-19.87,6-29.62,24.11-24.37,48,14.87-.84,21.37-5.36,24.37-9.25S251,67.2,253.56,56.7c1.34,9.87,1.39,12,.69,15.25,11.13.12,17.85-5.13,17.85-5.13s1.53,4.38,2,13C277.25,60.45,266.13,29.57,246.25,35.59Z"/><path class="cls-11" d="M268.94,110.93a51.94,51.94,0,0,1,5.71-18.39"/><path class="cls-9" d="M271.5,167.17a5,5,0,0,1-5-4.78c-.09-1.92-.6-24.21,6.88-32s29-14,49.53-11.25a5,5,0,0,1,4.29,5.62c-.37,2.74-1.47,8.45-4.21,8.08-17.87-2.42-37.62-.52-42.39,4.46-3.25,3.4-4.36,18.64-4.11,24.69a5,5,0,0,1-4.79,5.2Z"/><path class="cls-13" d="M332.88,113.32a17.53,17.53,0,0,1-3,20.1c-3.64,3.64-17.88,3.4-32.38,1.93.79-7.66,0-10.28-3.75-15.64,10.63-2.26,19.7-3.06,29.13-1.86A35.29,35.29,0,0,0,332.88,113.32Z"/><path class="cls-10" d="M276.88,160.08c2.24,4.34,2.81,5.57,2.05,7.15s-6.95,8.08-11.29,8.08S258.37,173,257.49,170c-.56-1.92-.27-3.63,1.32-4.27a6,6,0,0,1,5.44,1.09c1.72-.53,2.08-3.79,2.08-6.7C269.25,163.84,273.79,164.42,276.88,160.08Z"/><path class="cls-11" d="M264,166.57a9.65,9.65,0,0,1,2.38,2.12"/><path class="cls-17" d="M231,131.31A29,29,0,0,0,212.34,125"/><path class="cls-17" d="M220,120.79a11.38,11.38,0,0,0-.54-5.11,4.9,4.9,0,0,0-4.32-2.72c-3.31,0-4.43,2.63-2.81,5.23-2.25-1.21-8.66.43-8.66,6.77s3.66,4.81,6.66,4.73c-2.75,1.62-5.12,4.12-1,6.41A5.8,5.8,0,0,0,216,135a8.53,8.53,0,0,0,2-3.71"/></svg>