<svg id="レイヤー_1" data-name="レイヤー 1" xmlns="http://www.w3.org/2000/svg" viewBox="0 0 218 218"><defs><style>.cls-1{fill:#f4dbbd;}.cls-1,.cls-2,.cls-3,.cls-5,.cls-7,.cls-8{stroke:#40210f;}.cls-1,.cls-2,.cls-3,.cls-4,.cls-5,.cls-7,.cls-8{stroke-linecap:round;stroke-linejoin:round;stroke-width:2px;}.cls-2{fill:#40220f;}.cls-3{fill:#804f21;}.cls-4{fill:#2c3493;stroke:#42210b;}.cls-5{fill:#fff;}.cls-6{fill:#40210f;}.cls-7{fill:#e50012;}.cls-8{fill:none;}.cls-9{fill:#ed809a;}.cls-10{fill:#a9a8d3;}</style></defs><title>14-2-1 リズムダンス</title><path class="cls-1" d="M53.8,126.79h-.74a4.7,4.7,0,1,1,.22-9.4c3.27.08,9.54-.44,12.41-2.1L97.41,96.87l4.72,8.13L70.41,123.41C65,126.53,56.51,126.79,53.8,126.79Z"/><path class="cls-1" d="M127.19,99.76a4.7,4.7,0,0,1-2.47-8.7c10.52-6.47,35.48-21.64,40-22.86,5.3-1.43,11.33-.2,12,0a4.7,4.7,0,0,1-2,9.18,19.56,19.56,0,0,0-7.58,0c-2.78.92-21.28,11.8-37.53,21.79A4.69,4.69,0,0,1,127.19,99.76Z"/><path class="cls-1" d="M89.53,177.62a4.7,4.7,0,0,1-1.13-8.73c3.59-1.9,13.81-8,18-13.31,3.38-4.3,4.48-14.59,4.37-20.07a4.7,4.7,0,0,1,9.4-.19c0,1.79.18,17.73-6.39,26.08-6.26,7.95-20.37,15.48-21,15.8A4.7,4.7,0,0,1,89.53,177.62Z"/><path class="cls-2" d="M90,167.6c-1.41,1.07-3,1.41-4,2a4.2,4.2,0,0,0-1.62,1.81c-.27.6.05,4.84.05,4.84a13.8,13.8,0,0,0,.52,7.67c1.49,4.06,5.38,4.67,8.16,4.5s3.63-1.91,3.91-4.41c.14-1.25-1.31-3.19-2-4.75a11.58,11.58,0,0,1-.81-3.15C91.91,177.77,86.23,173.26,90,167.6Z"/><circle class="cls-1" cx="77.06" cy="70.39" r="6.46"/><circle class="cls-1" cx="142.84" cy="70.39" r="6.46"/><path class="cls-3" d="M43.06,26.88c-.2,15.57,18.72,22.87,40.46,20.76S110.5,40,115,35c-1.71-8.45-13.87-15.62-26.13-13.88C78.41,22.64,68.39,32.43,59.06,33.46,50.75,34.38,44.13,29.25,43.06,26.88Z"/><path class="cls-1" d="M117.25,188.48l-7.81,1-.52-5.31-.08.15s1.4-3.38-.33-10.59a35.83,35.83,0,0,0-3.86-9.42,46.46,46.46,0,0,1-4.05-11c-2.35-9.25,0-14.83,0-15.12a4.7,4.7,0,1,1,9.27,1.54,46.74,46.74,0,0,0,0,12.3c.4,3,1.56,5.11,3,7.83a44.91,44.91,0,0,1,4.72,11.68C120.19,182.08,117.76,187.5,117.25,188.48Z"/><path class="cls-2" d="M118.55,179.85c.34,1.85,1.32,3.24,1.69,4.48a4.45,4.45,0,0,1,0,2.57c-.22.66-3.51,3.75-3.51,3.75a14.64,14.64,0,0,1-5.89,5.63c-4.07,2.1-7.54-.2-9.6-2.33s-1.47-4.09.1-6.24c.78-1.08,3.3-1.56,4.94-2.3a12.22,12.22,0,0,0,2.89-1.89C109.79,186.44,117.45,187,118.55,179.85Z"/><path class="cls-4" d="M98.59,126.79a97.94,97.94,0,0,0-3.43,27.44c2.55.75,14.75-2.24,14.75-2.24l.41,1.06s11.08,1.95,15.15,1.18c1.2-12-3-28.43-3-28.43Z"/><path class="cls-5" d="M140.5,94.64c-1.8-6.19-6.79-11.44-6.79-11.44l-14.6,10.69c-1.9-6-4.63-10.25-8.56-10.25-3.12,0-6.57,6.89-8.42,11l-15.87,7.1L91,114.25l7.49-4.2A189.37,189.37,0,0,0,97,129h26.45a181.85,181.85,0,0,0-2-24.94C124.06,103.56,130.35,101.7,140.5,94.64Z"/><ellipse class="cls-1" cx="110.54" cy="95.65" rx="3.52" ry="5.87"/><path class="cls-1" d="M142.39,68c0,6.77-1.18,13.67-4.44,17.88-5.51,7.12-15.71,9.2-27.14,9.2-11,0-22.09-1.83-28.47-8.42C78.17,82.33,76.49,75.18,76.49,68a32.95,32.95,0,1,1,65.9,0Z"/><path class="cls-1" d="M108.79,72.5A3.19,3.19,0,1,1,111.05,78a3.22,3.22,0,0,1-2-.69"/><circle class="cls-6" cx="90.57" cy="69.8" r="1.76"/><circle class="cls-6" cx="128.16" cy="69.8" r="1.76"/><path class="cls-7" d="M105.25,82.73a12,12,0,0,0,10.77,0s-1.42,8.81-5.21,8.81S106.07,88.8,105.25,82.73Z"/><path class="cls-3" d="M76.49,65.56c12.69-4.7,24.28-18.41,24.28-18.41a347.05,347.05,0,0,0,42.72,17.34c-3-14.41-10.71-30.27-32.95-31C83.53,32.6,74.16,56.35,76.49,65.56Z"/><path class="cls-3" d="M94.16,47.29C90,48.61,87.85,59.19,75.3,65.69c11-.92,22.46-9.41,26.2-17.66,9,13.21,26.88,15.53,42.74,17-14.6-10.42-17.48-26.72-29.23-27.6s-14.91,8.81-14.91,8.81S98.34,46,94.16,47.29Z"/><path class="cls-8" d="M124.56,183.27s4.11,4.12,0,9.7"/><path class="cls-8" d="M129,183.27s4.11,4.12,0,9.7"/><path class="cls-8" d="M160.49,89.77s.59,9.31-7.44,14.4"/><path class="cls-8" d="M170.47,86.16a24.43,24.43,0,0,1-12.53,24.47"/><path class="cls-9" d="M40.73,71.66a4.21,4.21,0,0,0-.5-.09L39,79.06a3.64,3.64,0,0,0-2.08-.65,3.7,3.7,0,1,0,2.44.93l.7-4.27c1.88.78,2.5,1.94,1.77,3.14.82-.23,2.19-.63,2.61-1.91S44,72.72,40.73,71.66Z"/><path class="cls-10" d="M180.17,39.22l2.88-5.53,1.73-3.31-.36-.18-9.24-4.82-.35-.19L173.1,28.5l-2.75,5.28a3.19,3.19,0,0,0-1.29-1.23,3.25,3.25,0,1,0,1.38,4.39,3.21,3.21,0,0,0,.13-2.72l2.89-5.53,9.24,4.82L180,38.78a3.23,3.23,0,1,0,.22.44Z"/><polyline class="cls-8" points="109.91 151.99 114.06 150.47 111.98 145.05 111.51 142.47"/></svg>