<svg id="レイヤー_1" data-name="レイヤー 1" xmlns="http://www.w3.org/2000/svg" xmlns:xlink="http://www.w3.org/1999/xlink" viewBox="0 0 218 218"><defs><style>.cls-1,.cls-9{fill:none;}.cls-2{clip-path:url(#clip-path);}.cls-3{fill:#fff1e1;}.cls-4{fill:#b5b5b6;}.cls-10,.cls-11,.cls-12,.cls-14,.cls-4,.cls-5,.cls-6,.cls-7,.cls-8,.cls-9{stroke:#42210b;stroke-linecap:round;stroke-linejoin:round;stroke-width:2px;}.cls-5{fill:#fff;}.cls-13,.cls-6{fill:#42210b;}.cls-7{fill:#f5dcbe;}.cls-8{fill:#603813;}.cls-10{fill:#c5de8f;}.cls-11{fill:#ccc;}.cls-12{fill:#2c3493;}.cls-14{fill:#e60012;}.cls-15{clip-path:url(#clip-path-2);}</style><clipPath id="clip-path"><rect id="SVGID" class="cls-1" x="9" y="9" width="200" height="200" rx="10"/></clipPath><clipPath id="clip-path-2"><rect id="SVGID-2" data-name="SVGID" class="cls-1" x="-226.49" y="-227.9" width="200" height="200" rx="10"/></clipPath></defs><title>19-2-1 インターバル</title><g class="cls-2"><polygon class="cls-3" points="-3.61 166.01 324.27 154.81 352.65 226.65 -10.96 201.35 -3.61 166.01"/><path class="cls-4" d="M133.57,218.27a3.54,3.54,0,0,1-3.54-3.54V165.47a3.54,3.54,0,0,1,7.08,0v49.26A3.54,3.54,0,0,1,133.57,218.27Z"/><path class="cls-4" d="M216.74,182.48a3.55,3.55,0,0,1-3.54-3.54V129.68a3.54,3.54,0,1,1,7.08,0v49.26A3.54,3.54,0,0,1,216.74,182.48Z"/><polygon class="cls-5" points="226.55 125.9 124.61 173.53 124.61 147.21 226.55 104.48 226.55 125.9"/><polygon class="cls-6" points="164.87 152.74 146.32 161.94 146.32 140.22 165.13 132.09 164.87 152.74"/><polygon class="cls-6" points="215.71 128.74 198.53 137.51 198.53 117.29 215.45 110.41 215.71 128.74"/><path class="cls-7" d="M93.14,126.75a5,5,0,0,1-4.81-3.66c-2.93-10.57-1.9-18.79,3.07-24.42,7.86-8.9,22.27-6.89,22.88-6.8a5,5,0,0,1-1.44,9.9c-2.69-.38-10.44-.47-14,3.54-3.2,3.66-2.27,10.23-.92,15.11a5,5,0,0,1-3.48,6.15A5.09,5.09,0,0,1,93.14,126.75Z"/><path class="cls-5" d="M100.71,105.52,96.23,92.59a57.69,57.69,0,0,1,22.32-5.13"/><path class="cls-8" d="M133.6,106.36c-23.55-7.65-44.44-24.23-44.44-24.23l70.73-23.95S158.25,91.14,133.6,106.36Z"/><path class="cls-9" d="M97.94,173.21c-2.17,2.4-4.81,4.63-3.81,6.07,2.69,3.86,10.9,5,14.21,3.84s6-1.63,5-2.92S102.86,181.38,97.94,173.21Z"/><path class="cls-9" d="M72.45,136.1a3.71,3.71,0,0,1,.2,3.14s-6.26,7.17-9.48,4-8.81-10.37-6.48-12.73c1.23-1.26,1.83.71,6.39,2.2C67.13,134,72,135.35,72.45,136.1Z"/><path class="cls-9" d="M56.69,130.51c-.33.63,3.09,2.81,6.4,4.54a15.47,15.47,0,0,0,4.56,2c3.26.69,4.9-.52,4.8-1s-3.78-1.93-6.52-3.08C61.5,131.16,57.16,129.58,56.69,130.51Z"/><path class="cls-7" d="M110.62,164.53c2.94-18.4-1.81-32-2.06-32.7a5.15,5.15,0,0,0-9.7,3.46c0,.14,3.92,11.46,1.7,26.8A15.41,15.41,0,0,0,110.62,164.53Z"/><path class="cls-5" d="M100.24,181l.38.15a5.15,5.15,0,0,0,6.57-3.14,75.78,75.78,0,0,0,3.43-13.45,15.41,15.41,0,0,1-10.06-2.44,64.86,64.86,0,0,1-3.07,12.45A5.15,5.15,0,0,0,100.24,181Z"/><path class="cls-7" d="M92.13,129.84a5.15,5.15,0,0,0-10.29.32c.23,7.38-1.1,15.61-2.75,17.34a4.82,4.82,0,0,1-2.26-1.66c-1.74.88-4.2,3.14-5.54,8.86a14.92,14.92,0,0,0,3.38,2.13,10.73,10.73,0,0,0,7.09.65C91.83,155,92.37,137.32,92.13,129.84Z"/><path class="cls-5" d="M76.83,145.84a24.5,24.5,0,0,1-4.18-6.6,5.14,5.14,0,1,0-9.48,4c.46,1.1,3.32,7.52,8.12,11.46C72.63,149,75.09,146.72,76.83,145.84Z"/><path class="cls-5" d="M97.16,175s4.45,7.09,9.25,4.77a62.89,62.89,0,0,0,8.84,1.42,15.43,15.43,0,0,1-.78,3c-.46,1-3.61,2.71-8,2.35-1.4-.11-4.63-2.11-6.38-2.27-3.76-.35-7.1-2.66-6.94-4.27C93.39,177.57,97.16,175,97.16,175Z"/><path class="cls-10" d="M97.94,173.21s4.45,7.09,9.25,4.77c3.69,1,3-1.47,6.21-.06,1.37.61,2.21,2.55,1.75,3.6s-3.51,3.55-7.9,3.19c-1.39-.11-4.63-2.11-6.38-2.28-3.76-.35-7.1-2.66-6.93-4.27C94.17,175.8,97.94,173.21,97.94,173.21Z"/><path class="cls-10" d="M73.27,140.56s1.57-3,.45-5.45S57.44,127,55,127.67s-2.93,2.48-2.47,4,4.86,7.21,8.78,10.61C66.33,136.35,73.27,140.56,73.27,140.56Z"/><path class="cls-5" d="M73.66,135.08c-.07-.11-.12-.22-.19-.34-.46-.74-6.94-4-11.91-5.41l-7.34-2.45-.56,1.41c-2.64,2.26,20,10.31,20.43,9.37l.6-1.48Z"/><path class="cls-11" d="M54.22,126.88c-2.65,2.26,20.06,10.23,20.47,9.3s.06-1.84-.62-2.93S56.86,124.62,54.22,126.88Z"/><path class="cls-12" d="M95.73,141.76c-1.85-.1-2.58,2.29-4.11,4.51-4,.23-9.5-2.43-11.42-6.46a67.27,67.27,0,0,1,.71-11.45c.86-6.9,4.13-9.55,4.13-9.55s21.6-4.13,24.82,7.28c1.18,4.21,2,11.74,2.46,19.45.15,2.74-12.56,3.39-13.28,1C98.2,143.68,97,141.82,95.73,141.76Z"/><path class="cls-5" d="M127.68,81c-9.34-5-40.55,30-45.56,41.25,12.43,7.56,24.28,10.32,28.38,6.66C109.28,114.45,137,85.94,127.68,81Z"/><path class="cls-7" d="M160.27,78.94c-2.44,7.1-5.84,12.21-11.57,15.23-7.36,3.88-17.81,4.31-26.95,1.17C105.5,89.76,95.86,75,101.44,58.72a31.1,31.1,0,0,1,58.83,20.22Z"/><path class="cls-7" d="M141.61,81.58a3.1,3.1,0,1,1,.12,5.61,3.08,3.08,0,0,1-1.73-2"/><circle class="cls-13" cx="154.23" cy="77.56" r="1.66"/><circle class="cls-13" cx="128.92" cy="76.96" r="1.66"/><path class="cls-9" d="M131.1,88.88s2.69,9.88,10.32,3.77"/><path class="cls-6" d="M150,60.12a88.9,88.9,0,0,0-12.17,16.54c4.32-12.63,7.08-17.51,7.08-17.51a101.13,101.13,0,0,0-23.24,13.73c9.24-10.12,15.75-14.83,15.75-14.83l-16.06,6.2s-6.16,12.09-11.17,32.34C91.39,87.31,77.54,73.25,72.05,61.16c8.33,1.8,21.88.65,30.44-5.08,6.73-4.5,8.89-13.27,13.16-15.91,9.72-6,23.43-3.86,31.64.92s15.82,15.37,14.5,27c-2-4.37-5.07-5.48-5.07-5.48s2.74,4.38,1.45,7.8A35.42,35.42,0,0,0,150,60.12Z"/><path class="cls-14" d="M102.49,56.08c15.66,10.47,43.29,16.42,59.45,14,2.63-3,3.48-17.26-3.91-25.77-11-12.59-25.27-13.62-34.73-12.41C104.64,34.26,103.54,46.89,102.49,56.08Z"/><path class="cls-7" d="M113.69,110.52c-.93,3.61-1.42,8-.16,11.9s4.14,7,8.8,9.21A5.15,5.15,0,0,1,118,141l-.13,0c-7.29-3.47-12.07-8.67-14.2-15.45-2-6.35-1.21-12.93.19-18.11"/><path class="cls-14" d="M108.86,59.78C137.43,75.3,149.34,77,159.89,77s3.32-8.59,3.32-8.59S136,67.32,108.86,59.78Z"/><path class="cls-5" d="M117.16,104.1a30.36,30.36,0,0,0-2.47,7.25c-3.77,1.36-10,.37-12.2-2.66a44.58,44.58,0,0,1,3.4-9.6"/></g><g class="cls-15"><ellipse class="cls-3" cx="-105.35" cy="-124.88" rx="173.57" ry="160.5"/></g></svg>