<svg id="レイヤー_1" data-name="レイヤー 1" xmlns="http://www.w3.org/2000/svg" xmlns:xlink="http://www.w3.org/1999/xlink" viewBox="0 0 218 218"><defs><style>.cls-1,.cls-11,.cls-12{fill:none;}.cls-2{clip-path:url(#clip-path);}.cls-3{fill:#fff100;}.cls-4{fill:#40220f;}.cls-5{clip-path:url(#clip-path-2);}.cls-15,.cls-6{fill:#f4dbbd;}.cls-10,.cls-11,.cls-14,.cls-16,.cls-17,.cls-18,.cls-19,.cls-6,.cls-7,.cls-8,.cls-9{stroke:#40210d;}.cls-10,.cls-11,.cls-12,.cls-14,.cls-16,.cls-17,.cls-18,.cls-19,.cls-6,.cls-7,.cls-8,.cls-9{stroke-linecap:round;stroke-linejoin:round;stroke-width:2px;}.cls-7{fill:#0068b1;}.cls-8{fill:#fff;}.cls-9{fill:#666;}.cls-10,.cls-13{fill:#40210d;}.cls-12{stroke:#fff;}.cls-14{fill:#e61f19;}.cls-16{fill:#886138;}.cls-17{fill:#e50012;}.cls-18{fill:#978474;}.cls-19{fill:#5e3819;}.cls-20{clip-path:url(#clip-path-3);}.cls-21{fill:#9b7656;}</style><clipPath id="clip-path"><rect id="SVGID" class="cls-1" x="-229" y="9" width="200" height="200" rx="10"/></clipPath><clipPath id="clip-path-2"><rect id="SVGID-2" data-name="SVGID" class="cls-1" x="8" y="10" width="200" height="200" rx="10"/></clipPath><clipPath id="clip-path-3"><rect id="SVGID-3" data-name="SVGID" class="cls-1" x="-293.76" y="-58" width="568.77" height="326.6"/></clipPath></defs><title>3-1 走</title><g class="cls-2"><path class="cls-3" d="M-272,106.5a3.52,3.52,0,0,1-3.35-2.49,3.43,3.43,0,0,1,.27-2.66,3.44,3.44,0,0,1,2.07-1.7l47.4-14.34L-265.89,69.9l-12.76,5.33a3.5,3.5,0,0,1-1.35.27,3.49,3.49,0,0,1-3.23-2.15,3.51,3.51,0,0,1,1.88-4.58L-172,23.15a3.59,3.59,0,0,1,1.44-.6L-3.35-47.23A3.5,3.5,0,0,1-2-47.5a3.49,3.49,0,0,1,3.23,2.15A3.51,3.51,0,0,1-.65-40.77l-39.07,16.3,25.27,45.89L41,4.65A3.49,3.49,0,0,1,45.35,7,3.51,3.51,0,0,1,43,11.35l-254.4,77A3.51,3.51,0,0,1-214,89.5a3.37,3.37,0,0,1-.9-.12l-56.09,17A3.48,3.48,0,0,1-272,106.5ZM-214.67,82l31.93-9.66L-222,51.58-256.52,66Zm41.46-12.54,37.49-11.35-34.77-28-43.11,18Zm45.6-13.8,46.34-14L-111.49,5.48-163.14,27ZM-74,39.44-21.3,23.5-46.22-21.76-104.73,2.66Z"/><path class="cls-4" d="M-2-46.5A2.5,2.5,0,0,1,.31-45,2.5,2.5,0,0,1-1-41.69L-41.13-25l26.19,47.58,56.22-17A2.25,2.25,0,0,1,42,5.5a2.5,2.5,0,0,1,.72,4.89L-212,87.45a2.5,2.5,0,0,1-2,1,2.31,2.31,0,0,1-.89-.17h0l-56.39,17.06a2.25,2.25,0,0,1-.72.11,2.5,2.5,0,0,1-2.39-1.78,2.49,2.49,0,0,1,1.67-3.11l50.2-15.19L-265.9,68.83-279,74.31a2.49,2.49,0,0,1-1,.19A2.5,2.5,0,0,1-282.31,73,2.5,2.5,0,0,1-281,69.69L-171.53,24a2.54,2.54,0,0,1,1.21-.51L-3-46.31a2.49,2.49,0,0,1,1-.19M-74.34,40.59-19.83,24.1-45.77-23-106.36,2.26l32,38.33m-53.49,16.18,48.29-14.61L-110.92,4.6a3.39,3.39,0,0,1-.23-.34l-53.93,22.5,37.25,30m-45.49,13.76,39.7-12L-170.33,29l-45.61,19,42.62,22.55M-214.7,83.05l34.58-10.46-41.79-22.12L-259.21,66l44.51,17M-2-48.5h0a4.46,4.46,0,0,0-1.73.35L-170.88,21.59a4.59,4.59,0,0,0-1.63.68L-281.73,67.85a4.49,4.49,0,0,0-2.42,5.88A4.49,4.49,0,0,0-280,76.5a4.46,4.46,0,0,0,1.73-.35l12.4-5.17L-228.7,85.2l-44.6,13.49a4.51,4.51,0,0,0-2.67,2.19,4.48,4.48,0,0,0-.34,3.42,4.47,4.47,0,0,0,4.31,3.2,4.4,4.4,0,0,0,1.3-.19l55.83-16.89a4.94,4.94,0,0,0,.87.08,4.53,4.53,0,0,0,3.16-1.3L43.3,12.31A4.5,4.5,0,0,0,42,3.5a4.4,4.4,0,0,0-1.3.19L-14,20.23-38.3-24l38-15.88a4.49,4.49,0,0,0,2.42-5.88A4.49,4.49,0,0,0-2-48.5ZM-103.09,3.06l56.43-23.55L-22.78,22.9-73.65,38.29-103.09,3.06Zm-58.12,24.25,49.43-20.62L-83,41.12-127.4,54.55l-33.81-27.24Zm-50,20.88,40.6-16.94,32.83,26.45-35.28,10.68-38.15-20.19ZM-253.82,66-222,52.68l36.66,19.4-29.28,8.86-39.19-15Z"/></g><g class="cls-5"><path class="cls-6" d="M-4.43,121.29A3.29,3.29,0,0,1-7.6,118.9c-4-14.27,4.39-26.42,4.75-26.93a3.29,3.29,0,0,1,4.59-.79,3.29,3.29,0,0,1,.79,4.58h0c-.07.1-7,10.16-3.79,21.34a3.3,3.3,0,0,1-2.27,4.07A3.48,3.48,0,0,1-4.43,121.29Z"/><path class="cls-6" d="M24,113.25a3.29,3.29,0,0,1-2.5-1.16L6,93.93a3.29,3.29,0,0,1,5-4.27l15.48,18.16A3.3,3.3,0,0,1,24,113.25Z"/><path class="cls-6" d="M25.55,74.48A3.26,3.26,0,0,1,23.79,74l-18-11.46A3.29,3.29,0,0,1,9.3,57l18,11.46a3.29,3.29,0,0,1-1.77,6.06Z"/><polygon class="cls-7" points="7.53 99.47 16.23 92.89 9.1 82.89 -0.77 89.84 7.53 99.47"/><path class="cls-7" d="M2.52,99.47a29.29,29.29,0,0,1-9.81-4.14s3.1-2.68,3.47-4.76-1-6.09-1-6.09,10-5.36,18.41-6.58C16.63,87.28,9.34,96.06,2.52,99.47Z"/><path class="cls-8" d="M-7.29,50.1c-8.23,3.36-1.84,27.8,1.82,37.18A78,78,0,0,0,15,78.51S.93,46.75-7.29,50.1Z"/><path class="cls-8" d="M-3.71,50.5s14.34,5.21,21.13,10.09a16.64,16.64,0,0,1-5.88,8L5.4,64.49"/><path class="cls-6" d="M10.81,42.24c0,11.46-9.3,16.28-20.76,16.28-6.33,0-12.74-.74-16.55-4-3.08-2.63-4.2-7.16-4.2-12.29A20.75,20.75,0,0,1-9.95,21.49,20.76,20.76,0,0,1,10.81,42.24Z"/><path class="cls-9" d="M4.83,37.54S7.36,44,5.2,54.33c6.52-4.47,5.54-13.65,5.54-13.65Z"/><path class="cls-8" d="M5.4,39.74c-15.35.92-43.47,2.32-47.62-2.31s14.36-5.68,14.36-5.68S-10.13,37.91,5.4,39.74Z"/><path class="cls-8" d="M-29.81,36.22c15.38,3,34.64,3.52,34.64,3.52s3.3,1.83,5.91.94c.55-5.93.8-16.3-15.29-19.83S-29.3,26.21-29.81,36.22Z"/><path class="cls-6" d="M4.83,40.23a3,3,0,0,1,2.19-1c1.77,0,3.21,1.71,3.21,3.81S8.79,46.85,7,46.85a2.94,2.94,0,0,1-2.17-1"/><path class="cls-10" d="M24,116.19c-.14.82-.8,1.25-1.41,1.74a2.93,2.93,0,0,1-2.38.95A3.29,3.29,0,1,1,24,116.19Z"/><path class="cls-10" d="M-3.71,122.71s3.86-2.4,3.45-4l-.91-3.62a7.34,7.34,0,0,1-7.52,1.64l-.43,2.47Z"/><path class="cls-10" d="M24,116.6s5.42-4.08,4.84-6.74-2-2.56-4-3.93c.38,4.85-4.52,4.85-4.52,4.85l-1.86,2.47Z"/><path class="cls-6" d="M22.71,88.51c-4.76,0-10-4.17-11-5.06a3.45,3.45,0,0,1,4.44-5.28h0c2.1,1.76,5.39,3.6,6.65,3.44s5.71-3.9,9.1-7.62A3.45,3.45,0,1,1,37,78.63c-2.51,2.76-8.82,9.24-13.33,9.82A7.73,7.73,0,0,1,22.71,88.51Z"/><path class="cls-6" d="M53.12,91a3.43,3.43,0,0,1-3.34-4.34c.34-1.3.84-5.18-.91-7.21S43,76.76,41.68,76.74a3.45,3.45,0,0,1,0-6.9h0c.81,0,8.11.19,12.37,5.13,4.41,5.13,2.57,12.65,2.35,13.49A3.45,3.45,0,0,1,53.12,91Z"/><path class="cls-6" d="M38.27,125a3.42,3.42,0,0,1-2.6-1.19c-.48-.55-4.68-5.55-4.68-11.56,0-6.28,5.46-11.17,6.08-11.71a3.45,3.45,0,0,1,4.52,5.21c-1,.85-3.7,3.85-3.7,6.5,0,2.91,2.16,6.07,3,7.05a3.46,3.46,0,0,1-2.62,5.7Z"/><path class="cls-6" d="M62.16,121.19c-2.94,0-7.34-.52-10-3.26C48.5,114.27,48,104.5,47.9,101.6a3.45,3.45,0,0,1,6.9-.18h0C54.93,106.48,56,112,57,113.08s4.84,1.37,7.1,1.11A3.45,3.45,0,0,1,65,121,22.47,22.47,0,0,1,62.16,121.19Z"/><path class="cls-10" d="M35,129.38c-.36,2-7.73.72-7.36-1.31A3.74,3.74,0,1,1,35,129.38Z"/><path class="cls-10" d="M39.3,116.91c-1.41,4.73-5.5,4.28-5.5,4.28S33.07,125,31,125s-.35,7.24,4,5.15,7.75-7.64,7.75-8.9S42.21,118.19,39.3,116.91Z"/><path class="cls-10" d="M66.54,126.51c0,2.07-7.43,2.25-7.48.19a3.74,3.74,0,1,1,7.48-.19Z"/><path class="cls-10" d="M63.63,113.9c1,4.82-2,7.17-2,7.17s1.2,3.7-.62,4.69,5.15,1.06,5.47,1c2.91-3.9,3.65-8.91,3.05-10A6.34,6.34,0,0,0,63.63,113.9Z"/><path class="cls-7" d="M57.94,88.51s-19.28,3-18,6.29c.22.57.47,1.47-.12,1.87-3.33,2.25-7,7-7,7l7.77,6,3.17-2.46-.48,2.46a24.65,24.65,0,0,0,13.12-2.85C56.84,106.51,60.45,95.83,57.94,88.51Z"/><line class="cls-11" x1="43.74" y1="107.17" x2="44.62" y2="98.44"/><path class="cls-8" d="M38.94,95.19s12.53.31,19.4-5.26C52.57,75.45,35.22,62.82,30.72,66.25,24.18,71.23,39.61,82.06,38.94,95.19Z"/><path class="cls-8" d="M39.33,77.84A23.52,23.52,0,0,1,32,86a16.5,16.5,0,0,1-7.15-6.81L34.19,70"/><path class="cls-12" d="M32,125a3.71,3.71,0,0,1,2.83,2.35"/><path class="cls-12" d="M62.71,122.86A3.75,3.75,0,0,1,66,124.6"/><path class="cls-6" d="M52.57,51.13c1.59,11.91-7.39,18.2-19.3,19.79C26.68,71.8,21,71,16.63,68.1c-3.57-2.31-5.37-6.1-6.08-11.42C9,44.77,16.22,34,28.13,32.45A21.75,21.75,0,0,1,52.57,51.13Z"/><path class="cls-10" d="M36.84,49.86s2.1,6.68,1.34,11.72a16.66,16.66,0,0,0,3.42-9.15L45,52.1a34,34,0,0,1-6.2,17.66,30.41,30.41,0,0,0,8.8-4.56v2.58c4.43-6.2,4.87-11.1,4.87-11.1a6,6,0,0,1,2.92,2.67,35.38,35.38,0,0,0-2.86-8.22Z"/><path class="cls-6" d="M21.35,60.74A2.75,2.75,0,1,1,19,56.11a2.78,2.78,0,0,1,2,.49"/><circle class="cls-13" cx="13.73" cy="56.48" r="0.96"/><circle class="cls-13" cx="31.84" cy="56.68" r="0.96"/><path class="cls-14" d="M45,52.48c-15.82,3.08-43.28,5.25-48.23,1s14.13-7.88,14.13-7.88S28.65,52.74,45,52.48Z"/><path class="cls-14" d="M9.53,50.51C22.56,53.9,42.12,53,42.12,53s7.86-.6,10.45-1.89C52.32,44.89,50.85,32.48,33.65,31S8.68,40.05,9.53,50.51Z"/><path class="cls-14" d="M21.92,64.27a11.85,11.85,0,0,0,6.9,1.25c.38,3-.39,4.24-2.56,4.24S21.92,64.27,21.92,64.27Z"/><path class="cls-6" d="M41.6,53.48a3.09,3.09,0,0,1,2.13-1.35c1.85-.25,3.58,1.32,3.87,3.51s-1,4.16-2.81,4.41a3.05,3.05,0,0,1-2.39-.74"/><line class="cls-15" x1="78.14" y1="111.16" x2="80.55" y2="128"/><path class="cls-6" d="M80.55,131.74a3.73,3.73,0,0,1-3.7-3.21l-2.41-16.84a3.74,3.74,0,0,1,7.4-1.06l2.41,16.84a3.73,3.73,0,0,1-3.17,4.23A3.23,3.23,0,0,1,80.55,131.74Z"/><line class="cls-15" x1="100.23" y1="108.59" x2="106.87" y2="123.2"/><path class="cls-6" d="M106.87,127a3.75,3.75,0,0,1-3.41-2.2l-6.63-14.61a3.74,3.74,0,1,1,6.81-3.09l6.64,14.61a3.75,3.75,0,0,1-3.41,5.29Z"/><line class="cls-1" x1="68.52" y1="92.45" x2="69.69" y2="81.35"/><path class="cls-10" d="M83.81,124.36C79.91,128,76,126.21,76,126.21c-3.27,4.08-6.08,8.57,0,10.56,2.59.84,5.42.5,7.25-1.64C85.73,132.23,86.51,126.85,83.81,124.36Z"/><path class="cls-12" d="M75.42,130.78s4-2.43,7.13,1"/><path class="cls-10" d="M108.38,117.48s2,.47,3,3.39,1.06,13.44-3,14.38-8.15-1.26-9.12-3.51c-.39-.89.47-3.28,1-5.27.76-3,1.43-5.69,1.43-5.69S106.15,123.8,108.38,117.48Z"/><path class="cls-12" d="M101.73,128.58s3.27-1.85,6.54,1.35"/><path class="cls-7" d="M74.88,109.32s5.7-1.73,7.55,5.43c4.21-4.64,6.69-8.15,8.59-8.15s3.55,4.22,4.51,6.76a19.24,19.24,0,0,0,11.34-3.13s1-9.12-3.32-15.44l-21,1.49Z"/><path class="cls-8" d="M65,82.74l9.81,3.17L80,69.77C71.6,71.06,65,82.74,65,82.74Z"/><path class="cls-8" d="M76.47,64.4c-8,0,2.08,30.11,4.08,35.28,12.37,3.06,20.24.76,27-3.48C96.49,73.16,84.42,64.4,76.47,64.4Z"/><path class="cls-6" d="M96.09,102.74a3.74,3.74,0,0,1-2.86-6.16,10.38,10.38,0,0,0,2.29-5.68c0-1.51-2.62-4.72-5-6.66a3.74,3.74,0,0,1,4.74-5.79c1.29,1.06,7.71,6.6,7.71,12.45,0,5.57-3.64,10-4.06,10.52A3.73,3.73,0,0,1,96.09,102.74Z"/><path class="cls-8" d="M82.55,79.13l7.37,6.78a21.56,21.56,0,0,0,9.24-6.32c-4.65-7-15.92-13.41-15.92-13.41"/><path class="cls-6" d="M74.75,80.31a4.64,4.64,0,1,0-9.13-1.64,4.57,4.57,0,0,0,.73,3.42L63.7,91.2a3.74,3.74,0,0,0,2.55,4.63,2.74,2.74,0,0,0,.39.09,3.73,3.73,0,0,0,4.25-2.64L74,82.56a2.88,2.88,0,0,0,.12-.64A4.63,4.63,0,0,0,74.75,80.31Z"/><path class="cls-16" d="M55.08,63.93s2.1,9.35,0,14.38C63.14,77.57,69.73,72,69.73,72Z"/><path class="cls-6" d="M99.72,48.56c2.85,13.09-6.55,20.89-19.64,23.75-7.23,1.58-14.72,2.33-19.88-.43-4.17-2.23-6.58-7.12-7.86-13A24.25,24.25,0,0,1,99.72,48.56Z"/><path class="cls-16" d="M89.18,44.75A19.93,19.93,0,0,1,91,52.35c.42,5.08-1.84,17-4.49,22.5C95.3,72,101.39,68.59,102.19,64.4S99,44.75,99,44.75Z"/><path class="cls-6" d="M87.53,49.18a3.46,3.46,0,0,1,2.24-1.7c2-.45,4.1,1.14,4.62,3.55s-.69,4.71-2.72,5.15a3.41,3.41,0,0,1-2.72-.6"/><path class="cls-6" d="M64.25,62a3.15,3.15,0,0,1-1.73,1,2.9,2.9,0,1,1-1.24-5.66,3.16,3.16,0,0,1,2.22.32"/><circle class="cls-13" cx="56.15" cy="57.28" r="1.07"/><circle class="cls-13" cx="77.07" cy="55.56" r="1.07"/><path class="cls-8" d="M92.92,47.06c-17.29,4.87-49,13.48-54.92,9.22S53,46.23,53,46.23,74.75,48.84,92.92,47.06Z"/><path class="cls-8" d="M51.86,51.81c18.31-.4,40.42-4.61,40.42-4.61s4.21,1.27,7-.4C98.41,39.89,96.1,28,76.86,28S50,40.26,51.86,51.81Z"/><path class="cls-6" d="M64.94,67.75s4.28,3.27,9.58-1.09"/><path class="cls-6" d="M133.13,141.83a4.36,4.36,0,0,1-1.32-.2,4.52,4.52,0,0,1-3-5.64,51,51,0,0,1,14.56-23.27,4.52,4.52,0,0,1,5.74,7,43,43,0,0,0-11.66,18.93A4.51,4.51,0,0,1,133.13,141.83Z"/><path class="cls-6" d="M173.1,145.35a4.58,4.58,0,0,1-1.57-.29c-7-2.61-11.76-6.64-14.11-12a19.68,19.68,0,0,1-.3-14.56,4.52,4.52,0,0,1,8.38,3.39,10.85,10.85,0,0,0,.25,7.63c1.34,3,4.34,5.34,8.93,7.05a4.52,4.52,0,0,1-1.58,8.76Z"/><path class="cls-6" d="M122.06,100.08c-3.87,0-8.41-.77-9.76-4.77-1.59-4.75,3.22-9,7.54-11.78a4.52,4.52,0,0,1,5.23,7.35h.2a4.52,4.52,0,1,1,.74,9C124.94,100,123.55,100.08,122.06,100.08Z"/><line class="cls-11" x1="125.07" y1="90.88" x2="119.74" y2="90.88"/><path class="cls-7" d="M148.49,103a117.73,117.73,0,0,1-8.81,9.92c11.55,10.92,27.9,12,27.9,12s10.09-15.07,8-24.92C166.74,96.35,148.49,103,148.49,103Z"/><line class="cls-11" x1="152.78" y1="121.24" x2="158.44" y2="109.31"/><path class="cls-8" d="M133.13,69c-3.93,1.63-3.38,6.13-.94,11.34h0c-8.53-1.21-14.94,5-14.94,5l10.53,8.89,10.86-3.36h0A152.07,152.07,0,0,0,148.49,103l-1.94,2.39c6,1.78,19.18,3.18,29,1.2l.3-4.85C175.84,90.88,149,74.69,133.13,69Z"/><circle class="cls-6" cx="126.65" cy="94.24" r="5.4"/><ellipse class="cls-6" cx="139.13" cy="78.73" rx="3.58" ry="2.84" transform="translate(17.36 182.3) rotate(-69.89)"/><path class="cls-10" d="M172.89,135.85c3.93-.55,7.12-.1,8.25,2.41s-2.59,12.23-5.25,13-8.19,1.75-10.7,0,1.2-5.62,3.77-5.9a6.48,6.48,0,0,1,4.19.84l-4.36-2.27S174.52,142.43,172.89,135.85Z"/><path class="cls-10" d="M129,134.28s2.93,5.05,9.1,2.37c1,3.92.84,5.87-.92,7.28s-18,1.82-19.94.91-1.34-6.62,2.49-7.53a6.17,6.17,0,0,1,6,1.57Z"/><path class="cls-6" d="M188.16,89.29l-26-2.55s-5.68-9.64-3.19-9.39l30.08,3a4.52,4.52,0,1,1-.88,9Z"/><path class="cls-8" d="M158.44,87.15l6.75.83a20.56,20.56,0,0,0-.62-11.44,72.07,72.07,0,0,0-21-1.93"/><path class="cls-6" d="M159.07,51.72c4,13.68-5.36,22.71-19,26.75-7.57,2.23-15.48,3.61-21.17,1.07-4.61-2.05-7.55-7.06-9.36-13.18a25.84,25.84,0,1,1,49.57-14.64Z"/><path class="cls-9" d="M147.4,57.05a29.48,29.48,0,0,1,4.33,15.88c8.29-5.7,9.29-14.31,6.71-23.05s-8.52-4.72-8.52-4.72Z"/><path class="cls-6" d="M143.57,54.47a3.68,3.68,0,0,1,2.25-2c2.12-.62,4.44.91,5.18,3.42s-.37,5.06-2.49,5.69a3.66,3.66,0,0,1-2.95-.43"/><path class="cls-6" d="M123.74,65.85a3.26,3.26,0,1,1-3.6-5,3.32,3.32,0,0,1,2.39.21"/><circle class="cls-13" cx="113.42" cy="64.33" r="1.14"/><circle class="cls-13" cx="137.99" cy="58.85" r="1.14"/><path class="cls-17" d="M151.73,50.64c-18,6.51-51.09,18.1-57.67,14S109.2,52.83,109.2,52.83,132.54,53.93,151.73,50.64Z"/><path class="cls-17" d="M108.44,58.85c19.44-1.84,42.62-8,42.62-8s4.57,1,7.38-1c-1.43-7.29-4.79-19.74-25.25-18.29S105.53,46.72,108.44,58.85Z"/><ellipse class="cls-14" cx="131.33" cy="73.11" rx="2.68" ry="3.68" transform="translate(-2.82 140.9) rotate(-55.91)"/><path class="cls-6" d="M200.44,83.23a4.54,4.54,0,0,1,.93.83,4.78,4.78,0,0,1-.47,6.75c-1.4,1.24-5,5.3-4.55,9,.46,4,4.59,7.64,6.14,8.72a4.79,4.79,0,0,1-5.4,7.91h0c-.93-.64-9.18-6.52-10.23-15.51-1.09-9.33,6.87-16.54,7.78-17.33A4.79,4.79,0,0,1,200.44,83.23Z"/><path class="cls-6" d="M212.48,156.51a4.76,4.76,0,0,1-3.74-1.81c-11.94-15-13.55-33.89-13.61-34.69a4.79,4.79,0,0,1,9.54-.76h0c0,.17,1.48,16.86,11.55,29.49a4.79,4.79,0,0,1-3.74,7.77Z"/><path class="cls-18" d="M220.46,127.44c-3.19,5.67-12.33,6.43-17.55,1C205.66,122.1,213.37,121.23,220.46,127.44Z"/><path class="cls-6" d="M212.48,156.51a4.79,4.79,0,0,1-4.76-4.28l-2.66-24.82a4.79,4.79,0,0,1,9.52-1l2.66,24.82a4.79,4.79,0,0,1-4.25,5.27A4.36,4.36,0,0,1,212.48,156.51Z"/><path class="cls-10" d="M206.91,147.47a9,9,0,0,0,11,0,32.91,32.91,0,0,0,1.94,5.8c1.14,2.32,1.82,4,.48,5.48-4,4.27-11.12,3.81-15.1,0a49.78,49.78,0,0,1,.64-5.48C206.56,150.15,206.91,147.47,206.91,147.47Z"/><path class="cls-12" d="M208,155.57s5.09-3.18,9.89,0"/><path class="cls-7" d="M202.91,128.41c2-5.85,10.81-7.18,17.55-1,6.38-8.83,2.2-20,2.2-20l-30.74-1.07s0,15.6,3.19,24.29c4.79,1.77,10.55,0,10.55,0Z"/><path class="cls-11" d="M202.91,128.41s.85-4.87,2.13-10.72"/><path class="cls-8" d="M207.44,74c-13.57,0-22.11,19.53-23,25.44a9.87,9.87,0,0,0,6.76,1.94s-.18,4.91.71,7.44c15.52,4.26,31.37.78,31.37.78S221,74,207.44,74Z"/><ellipse class="cls-6" cx="203.97" cy="78.34" rx="3.19" ry="5.14"/><path class="cls-11" d="M191.21,101.38A55.69,55.69,0,0,1,192.81,90"/><path class="cls-6" d="M205.81,32.08c-14.67,0-24.53,12.41-24.53,27.08a26.4,26.4,0,0,0,.38,4.5c-.13,0-.25,0-.38,0a3.37,3.37,0,1,0,2.27,5.85c.78,1.48-.85,3.37-.85,3.37a31.64,31.64,0,0,0,17.39-1.17,13.86,13.86,0,0,1-7.82,6.84c3.27,1,9.38.89,13.54.89,14.67,0,25.46-5.57,25.46-20.24S220.48,32.08,205.81,32.08Z"/><circle class="cls-13" cx="197.24" cy="60.08" r="1.6"/><path class="cls-11" d="M181.64,54.4a38.53,38.53,0,0,1-23.4-5.13"/><path class="cls-19" d="M214,55.74s3.3,12.46-1.89,23c21.3-3,18.74-19.21,18.78-24.34C226,49.27,214,55.74,214,55.74Z"/><path class="cls-8" d="M181.64,54.4c24.61,4.08,49.24,0,49.24,0,2-7.62-4.93-24.22-23.18-24.22C185.36,30.18,180.75,40.91,181.64,54.4Z"/><path class="cls-6" d="M210,56.38a3.68,3.68,0,0,1,2.56-1.93c2.17-.38,4.3,1.46,4.77,4.12s-.91,5.13-3.09,5.51a3.6,3.6,0,0,1-2.73-.69"/><path class="cls-6" d="M227.58,95.08,221.7,82.94a5.84,5.84,0,1,0-6.79,2.45l6,12.45a3.68,3.68,0,0,0,3.33,2,3.92,3.92,0,0,0,1.49-.3A3.27,3.27,0,0,0,227.58,95.08Z"/><g class="cls-20"><path class="cls-21" d="M157.61,154l-.5-1.12-1.65.75L-37,120.73l-.27,0-380.4,66-2.12.37,163.31,347.28.85,1.81L241.12,168.32ZM41,137.39l47,8-455,145.94-21.51-45.75L41.05,137.79ZM-390,242.6-403.95,213-2.2,130l36.14,6.18Zm484.92-96,55.2,9.44L-329,372.28l-36.64-77.92ZM-37.25,124l26.18,4.48L-405.39,209.9-415,189.54ZM-327.63,375.25,155.9,157.06,233,170.26-254.34,531.11Z"/></g></g></svg>