<svg id="レイヤー_1" data-name="レイヤー 1" xmlns="http://www.w3.org/2000/svg" viewBox="0 0 231.85 204.52"><defs><style>.cls-1{fill:#daeffb;}.cls-2{fill:#a17328;}.cls-3{fill:#40220f;}.cls-4{fill:#d0af75;}.cls-5{fill:#8f6025;}.cls-6{fill:#7d4321;}.cls-7{fill:#e2cc9c;}.cls-8{fill:#cba354;}.cls-9{font-size:21.08px;fill:#0363a6;font-family:YuGothic-Bold, YuGothic Bold;font-weight:700;letter-spacing:0.03em;}.cls-10{letter-spacing:-0.1em;}</style></defs><title>モルック説明2-1</title><circle class="cls-1" cx="63.37" cy="48.6" r="36.97"/><path class="cls-2" d="M148.9,176.2a6.93,6.93,0,0,1-6.11-3,.47.47,0,0,1-.07-.25V143.09a.48.48,0,0,1,.17-.37.51.51,0,0,1,.33-.13h.07l11.36,1.54a.51.51,0,0,1,.43.5v28.3a.57.57,0,0,1-.06.25A6.94,6.94,0,0,1,148.9,176.2Z"/><path class="cls-3" d="M143.22,143.09l11.36,1.55v28.3a7.22,7.22,0,0,1-11.36,0V143.09m0-1a1,1,0,0,0-1,1v29.85a1.05,1.05,0,0,0,.13.49,8.2,8.2,0,0,0,13.1,0,1,1,0,0,0,.13-.49v-28.3a1,1,0,0,0-.86-1l-11.36-1.55Z"/><path class="cls-4" d="M148.22,152.74a5.85,5.85,0,0,1-.59,0,5,5,0,0,1-3.26-2,10.87,10.87,0,0,1-1.64-7.91c.66-4.73,3.61-8.3,6.86-8.3a3.77,3.77,0,0,1,.58,0,4.91,4.91,0,0,1,3.26,2,10.87,10.87,0,0,1,1.65,7.91C154.41,149.17,151.47,152.74,148.22,152.74Z"/><path class="cls-3" d="M149.59,135a3.12,3.12,0,0,1,.52,0c3.13.42,5.14,4.62,4.47,9.38-.63,4.49-3.41,7.87-6.36,7.87a3,3,0,0,1-.52,0c-3.14-.42-5.14-4.63-4.48-9.38.63-4.49,3.42-7.87,6.37-7.87m0-1h0c-3.5,0-6.66,3.75-7.36,8.73A11.4,11.4,0,0,0,144,151a5.46,5.46,0,0,0,3.59,2.23,4.89,4.89,0,0,0,.66.05c3.49,0,6.66-3.76,7.35-8.73a11.44,11.44,0,0,0-1.74-8.29,5.41,5.41,0,0,0-3.59-2.23,4.82,4.82,0,0,0-.65,0Z"/><path class="cls-5" d="M212.53,179.48a6.93,6.93,0,0,1-6.11-3,.55.55,0,0,1-.07-.25V146.38a.49.49,0,0,1,.5-.5h.07l11.36,1.55a.49.49,0,0,1,.43.49v28.3a.54.54,0,0,1-.06.25A6.94,6.94,0,0,1,212.53,179.48Z"/><path class="cls-3" d="M206.85,146.38l11.36,1.54v28.3a7.22,7.22,0,0,1-11.36,0V146.38m0-1a1,1,0,0,0-.66.24,1,1,0,0,0-.34.76v29.84a1.09,1.09,0,0,0,.13.5,8.21,8.21,0,0,0,13.1,0,1,1,0,0,0,.13-.5v-28.3a1,1,0,0,0-.86-1L207,145.38Z"/><path class="cls-4" d="M211.85,156a3.9,3.9,0,0,1-.59,0,4.91,4.91,0,0,1-3.26-2,10.87,10.87,0,0,1-1.64-7.91c.66-4.73,3.61-8.3,6.86-8.3.19,0,.39,0,.59,0a4.93,4.93,0,0,1,3.25,2,10.87,10.87,0,0,1,1.65,7.91C218.05,152.45,215.1,156,211.85,156Z"/><path class="cls-3" d="M213.22,138.23a3.12,3.12,0,0,1,.52,0c3.14.42,5.14,4.63,4.47,9.38-.62,4.49-3.41,7.87-6.36,7.87a4.53,4.53,0,0,1-.52,0c-3.14-.43-5.14-4.63-4.48-9.39.63-4.49,3.42-7.87,6.37-7.87m0-1h0c-3.5,0-6.66,3.76-7.36,8.73a11.39,11.39,0,0,0,1.75,8.29,5.41,5.41,0,0,0,3.58,2.23,4.87,4.87,0,0,0,.66,0c3.5,0,6.66-3.75,7.35-8.73a11.35,11.35,0,0,0-1.74-8.28,5.41,5.41,0,0,0-3.59-2.23,4.62,4.62,0,0,0-.65-.05Z"/><path class="cls-6" d="M212.59,150.88a2.61,2.61,0,0,1-2.3-1.23,5.46,5.46,0,0,1-.68-3c0-4,1.73-4.8,3.18-4.8a2.47,2.47,0,0,1,2.47,1.57.48.48,0,0,1,0,.39.49.49,0,0,1-.28.27l-1.24.46a.57.57,0,0,1-.18,0,.53.53,0,0,1-.24-.06.51.51,0,0,1-.24-.33c-.08-.37-.22-.37-.32-.37-.42,0-.65.44-.78,1a2.49,2.49,0,0,1,1-.18,2.3,2.3,0,0,1,1.93,1,3.38,3.38,0,0,1,.59,2,3.27,3.27,0,0,1-.9,2.43A2.67,2.67,0,0,1,212.59,150.88Zm-.72-3.65c0,1.11.26,1.67.72,1.67.17,0,.59,0,.59-1.2s-.37-1.07-.55-1.07S212.2,146.63,211.87,147.23Z"/><path class="cls-3" d="M212.79,142.37a2,2,0,0,1,2,1.26l-1.23.46c-.11-.5-.38-.76-.81-.76-.89,0-1.36.91-1.4,2.74a1.71,1.71,0,0,1,1.58-.91,1.8,1.8,0,0,1,1.53.75,3,3,0,0,1,.48,1.75,2.8,2.8,0,0,1-.74,2.08,2.19,2.19,0,0,1-1.61.64,2.1,2.1,0,0,1-1.89-1,5.06,5.06,0,0,1-.6-2.71q0-4.3,2.68-4.3m-.2,7c.72,0,1.09-.56,1.09-1.7s-.35-1.57-1.05-1.57a1.44,1.44,0,0,0-1.26,1c0,1.53.4,2.29,1.22,2.29m.2-8c-1.37,0-3.68.69-3.68,5.3a5.94,5.94,0,0,0,.76,3.25,3.08,3.08,0,0,0,2.73,1.46,3.21,3.21,0,0,0,2.32-.94,3.76,3.76,0,0,0,1-2.78,3.84,3.84,0,0,0-.68-2.34,3.09,3.09,0,0,0-.56-.58l.44-.17a1,1,0,0,0,.57-.54,1,1,0,0,0,0-.78,3,3,0,0,0-2.93-1.88Zm-.42,6c.07-.1.16-.21.24-.22a1.58,1.58,0,0,1,.07.56,1.61,1.61,0,0,1-.1.7h0a2.47,2.47,0,0,1-.19-1Z"/><path class="cls-2" d="M163.66,178.46a6.93,6.93,0,0,1-6.11-3,.45.45,0,0,1-.07-.25V145.35a.48.48,0,0,1,.17-.37.51.51,0,0,1,.33-.13h.07l11.36,1.54a.51.51,0,0,1,.43.5v28.3a.54.54,0,0,1-.06.25A6.94,6.94,0,0,1,163.66,178.46Z"/><path class="cls-3" d="M158,145.35l11.36,1.55v28.3a7.22,7.22,0,0,1-11.36,0V145.35m0-1a1,1,0,0,0-1,1V175.2a1.05,1.05,0,0,0,.13.49,8.2,8.2,0,0,0,13.1,0,1,1,0,0,0,.13-.49V146.9a1,1,0,0,0-.86-1l-11.36-1.55Z"/><path class="cls-7" d="M163,155a5.85,5.85,0,0,1-.59,0,5,5,0,0,1-3.26-2,10.87,10.87,0,0,1-1.64-7.91c.66-4.73,3.61-8.3,6.86-8.3a3.77,3.77,0,0,1,.58,0,4.89,4.89,0,0,1,3.26,2,10.87,10.87,0,0,1,1.65,7.91C169.18,151.43,166.23,155,163,155Z"/><path class="cls-3" d="M164.35,137.21a3.12,3.12,0,0,1,.52,0c3.13.42,5.14,4.62,4.47,9.38-.63,4.49-3.41,7.87-6.36,7.87a3,3,0,0,1-.52,0c-3.14-.42-5.14-4.62-4.48-9.38.63-4.49,3.42-7.87,6.37-7.87m0-1h0c-3.5,0-6.66,3.75-7.36,8.73a11.35,11.35,0,0,0,1.75,8.28,5.41,5.41,0,0,0,3.58,2.23,4.89,4.89,0,0,0,.66.05c3.49,0,6.66-3.76,7.35-8.73a11.39,11.39,0,0,0-1.74-8.29,5.41,5.41,0,0,0-3.59-2.23,4.63,4.63,0,0,0-.65,0Z"/><path class="cls-8" d="M154.8,188.88c-4.32,0-6-2.5-6.1-2.61a.5.5,0,0,1-.08-.27V160.19a.5.5,0,0,1,.17-.37.51.51,0,0,1,.33-.13L160.54,161a.49.49,0,0,1,.44.49V186a.5.5,0,0,1-.08.27C160.83,186.38,159.12,188.88,154.8,188.88Z"/><path class="cls-3" d="M149.12,160.19l11.36,1.34V186s-1.58,2.38-5.68,2.38-5.68-2.38-5.68-2.38V160.19m0-1a1,1,0,0,0-.67.26,1,1,0,0,0-.33.74V186a1,1,0,0,0,.16.55c.08.12,1.93,2.83,6.52,2.83s6.44-2.71,6.51-2.83a1,1,0,0,0,.17-.55V161.53a1,1,0,0,0-.88-1l-11.36-1.34Z"/><path class="cls-7" d="M154.11,169.84a3.77,3.77,0,0,1-.58,0,4.91,4.91,0,0,1-3.26-2,10.86,10.86,0,0,1-1.65-7.91c.67-4.73,3.62-8.3,6.86-8.3a3.81,3.81,0,0,1,.59,0,5,5,0,0,1,3.26,2,10.87,10.87,0,0,1,1.64,7.91C160.31,166.27,157.36,169.84,154.11,169.84Z"/><path class="cls-3" d="M155.48,152.05a3,3,0,0,1,.52,0c3.14.42,5.15,4.62,4.48,9.38-.63,4.49-3.41,7.87-6.37,7.87a3.12,3.12,0,0,1-.52,0c-3.13-.42-5.14-4.62-4.47-9.38.63-4.49,3.41-7.87,6.36-7.87m0-1h0c-3.49,0-6.66,3.76-7.35,8.73a11.44,11.44,0,0,0,1.74,8.29,5.41,5.41,0,0,0,3.59,2.23c.22,0,.44,0,.65,0,3.5,0,6.66-3.75,7.36-8.73a11.4,11.4,0,0,0-1.74-8.28,5.42,5.42,0,0,0-3.59-2.23,4.89,4.89,0,0,0-.66,0Z"/><path class="cls-2" d="M87.58,117.14l-.13,0-23-6.07a.49.49,0,0,1-.33-.67l4.39-10.59a.51.51,0,0,1,.46-.31.27.27,0,0,1,.13,0l21.49,5.67a.45.45,0,0,1,.23.13,7.71,7.71,0,0,1-3.13,11.82Z"/><path class="cls-3" d="M69,100l21.49,5.67a7.23,7.23,0,0,1-2.89,11l-23-6.07L69,100m0-1a1,1,0,0,0-.92.62l-4.39,10.59a1,1,0,0,0,0,.82,1.05,1.05,0,0,0,.64.53l23,6.06a.75.75,0,0,0,.26,0,.73.73,0,0,0,.25,0,8.2,8.2,0,0,0,3.35-12.66,1.13,1.13,0,0,0-.45-.26L69.24,99A1.15,1.15,0,0,0,69,99Z"/><path class="cls-4" d="M69.22,112.05a12.5,12.5,0,0,1-4.82-1c-4.68-2-7.41-6.13-6.09-9.31.84-2,3.1-3.22,6-3.22a12.59,12.59,0,0,1,4.83,1c4.67,2,7.4,6.13,6.09,9.31C74.43,110.84,72.17,112.05,69.22,112.05Z"/><path class="cls-3" d="M64.35,99A12.08,12.08,0,0,1,69,100c4.43,1.86,7,5.73,5.82,8.66-.78,1.88-3,2.91-5.58,2.91a12.12,12.12,0,0,1-4.63-1c-4.43-1.86-7-5.73-5.82-8.66C59.55,100,61.72,99,64.35,99m0-1h0c-3.15,0-5.59,1.32-6.5,3.53-1.45,3.49,1.34,7.86,6.35,10a13.2,13.2,0,0,0,5,1.06c3.16,0,5.59-1.32,6.51-3.53,1.44-3.49-1.35-7.86-6.36-10a13.16,13.16,0,0,0-5-1.06Z"/><path class="cls-6" d="M70.26,107.82a.51.51,0,0,1-.17,0,14.65,14.65,0,0,1-3.61-1.86,16.13,16.13,0,0,1-1.85-1.56L64,106.88a.51.51,0,0,1-.49.37l-.13,0-1-.26a.57.57,0,0,1-.3-.23.47.47,0,0,1,0-.38l1.2-4.55a.5.5,0,0,1,.48-.37.3.3,0,0,1,.13,0l.87.22a.72.72,0,0,1,.24.14,13,13,0,0,0,2.78,2.26,15.74,15.74,0,0,0,3.08,1.39.5.5,0,0,1,.33.6l-.37,1.38a.48.48,0,0,1-.25.31A.46.46,0,0,1,70.26,107.82Z"/><path class="cls-3" d="M63.68,101.94l.87.23a13.68,13.68,0,0,0,2.89,2.34,16.18,16.18,0,0,0,3.18,1.43l-.36,1.38a14.21,14.21,0,0,1-3.49-1.8,16.4,16.4,0,0,1-2.4-2.13l-.89,3.36-1-.27,1.2-4.54m0-1a1,1,0,0,0-.5.13,1.06,1.06,0,0,0-.47.61l-1.19,4.55a1,1,0,0,0,.1.76,1,1,0,0,0,.61.46l1,.26a.73.73,0,0,0,.25,0,1,1,0,0,0,1-.75l.45-1.7a14.53,14.53,0,0,0,1.29,1,14.69,14.69,0,0,0,3.74,1.93.92.92,0,0,0,.33.06,1,1,0,0,0,.47-.12,1.06,1.06,0,0,0,.5-.63l.36-1.37a1,1,0,0,0-.65-1.21,14.74,14.74,0,0,1-3-1.34,12.28,12.28,0,0,1-2.68-2.17,1.08,1.08,0,0,0-.47-.28l-.87-.23a1.15,1.15,0,0,0-.26,0Z"/><path class="cls-8" d="M131,104h-.38a.56.56,0,0,1-.24-.1l-19-14.23a.49.49,0,0,1-.2-.36.5.5,0,0,1,.14-.39l8-8.18a.55.55,0,0,1,.36-.15.57.57,0,0,1,.3.1l17.8,13.31a.45.45,0,0,1,.16.2,6.92,6.92,0,0,1-1.25,6.7A7.12,7.12,0,0,1,131,104Z"/><path class="cls-3" d="M119.65,81l17.8,13.31a6.46,6.46,0,0,1-1.19,6.2,6.64,6.64,0,0,1-5.29,2.91h-.32l-19-14.23,8-8.18m0-1a1,1,0,0,0-.71.3l-8,8.18A1,1,0,0,0,111,90l19,14.23a1.06,1.06,0,0,0,.48.19,3.94,3.94,0,0,0,.44,0,7.6,7.6,0,0,0,6.09-3.31,7.44,7.44,0,0,0,1.31-7.2,1,1,0,0,0-.32-.4l-17.8-13.31a1,1,0,0,0-.6-.2Z"/><path class="cls-7" d="M118.54,93a11,11,0,0,1-7.28-3.41c-3.6-3.57-4.57-8.47-2.16-10.92a4.93,4.93,0,0,1,3.62-1.39A10.92,10.92,0,0,1,120,80.68c3.6,3.57,4.57,8.46,2.16,10.91A4.93,4.93,0,0,1,118.54,93Z"/><path class="cls-3" d="M112.72,77.76A10.39,10.39,0,0,1,119.65,81c3.41,3.38,4.37,8,2.15,10.21a4.43,4.43,0,0,1-3.26,1.24,10.39,10.39,0,0,1-6.93-3.27c-3.41-3.38-4.38-7.95-2.16-10.21a4.51,4.51,0,0,1,3.27-1.24m0-1h0a5.46,5.46,0,0,0-4,1.54c-2.64,2.69-1.69,7.8,2.17,11.62a11.41,11.41,0,0,0,7.63,3.56,5.42,5.42,0,0,0,4-1.54c2.64-2.69,1.69-7.79-2.17-11.62a11.41,11.41,0,0,0-7.63-3.56Z"/><path class="cls-6" d="M117.18,89a2.56,2.56,0,0,1-.71-.11.48.48,0,0,1-.3-.24.5.5,0,0,1,0-.38l.38-1.28a.47.47,0,0,1,.25-.3.44.44,0,0,1,.22,0,.58.58,0,0,1,.19,0,.93.93,0,0,0,.29.07.23.23,0,0,0,.2-.11.62.62,0,0,0,0-.74,2.66,2.66,0,0,0-.36-.5,2.66,2.66,0,0,1-.43.88,2.34,2.34,0,0,1-1.93,1,3.77,3.77,0,0,1-3.42-2.86,2.61,2.61,0,0,1,.55-2.05,2.59,2.59,0,0,1,2.16-1.14h.23a5.42,5.42,0,0,1,2.78,1.23,6.25,6.25,0,0,1,2.47,3,2.68,2.68,0,0,1-.5,2.44A2.55,2.55,0,0,1,117.18,89Zm-3.11-5.71a.4.4,0,0,0-.37.19c-.11.14-.36.47.6,1.19a1.46,1.46,0,0,0,.83.36.42.42,0,0,0,.35-.18c.07-.1.27-.35,0-.93A2.63,2.63,0,0,0,114.07,83.33Z"/><path class="cls-3" d="M114.25,81.74h.19A5,5,0,0,1,117,82.88a5.89,5.89,0,0,1,2.29,2.7,2.17,2.17,0,0,1-.42,2,2.07,2.07,0,0,1-1.65,1,1.93,1.93,0,0,1-.57-.09l.37-1.27a1.58,1.58,0,0,0,.48.1.72.72,0,0,0,.6-.31,1.11,1.11,0,0,0,.07-1.27,5.4,5.4,0,0,0-1.44-1.51,1.67,1.67,0,0,1-.2,1.82,1.88,1.88,0,0,1-1.54.78h0a2.74,2.74,0,0,1-1.67-.63A2.81,2.81,0,0,1,112,84.35a2.15,2.15,0,0,1,.46-1.67,2.11,2.11,0,0,1,1.76-.94m.88,3.83h0a.9.9,0,0,0,.73-.38,1.34,1.34,0,0,0,0-1.56,3.32,3.32,0,0,0-1.77-.8.91.91,0,0,0-.77.39c-.44.58-.21,1.22.7,1.89a1.91,1.91,0,0,0,1.13.46m-.88-4.83a3.1,3.1,0,0,0-2.56,1.34,3.16,3.16,0,0,0-.65,2.43A3.81,3.81,0,0,0,112.66,87a3.76,3.76,0,0,0,2.27.83,3.44,3.44,0,0,0,.87-.13l-.15.51a1,1,0,0,0,.09.76.94.94,0,0,0,.59.48,2.83,2.83,0,0,0,.85.13,3,3,0,0,0,2.45-1.37,3.18,3.18,0,0,0,.58-2.88,6.69,6.69,0,0,0-2.65-3.21,5.93,5.93,0,0,0-3-1.33Zm.85,3.82a1,1,0,0,1-.5-.25,1.73,1.73,0,0,1-.49-.48,2.55,2.55,0,0,1,1,.47.39.39,0,0,1,0,.26Z"/><path class="cls-2" d="M174.55,114.53a6.92,6.92,0,0,1-6.12-3,.51.51,0,0,1-.06-.25V87.5a.48.48,0,0,1,.17-.37.51.51,0,0,1,.33-.13h.07l11.36,1.54a.51.51,0,0,1,.43.5v22.22a.43.43,0,0,1-.07.25A6.91,6.91,0,0,1,174.55,114.53Z"/><path class="cls-3" d="M168.87,87.5l11.36,1.55v22.22a7.22,7.22,0,0,1-11.36,0V87.5m0-1a1,1,0,0,0-.66.25,1,1,0,0,0-.34.75v23.77a1,1,0,0,0,.13.5,8.21,8.21,0,0,0,13.1,0,1.06,1.06,0,0,0,.13-.5V89.05a1,1,0,0,0-.86-1L169,86.51Z"/><path class="cls-4" d="M173.87,97.42a3.81,3.81,0,0,1-.59,0,4.91,4.91,0,0,1-3.26-2,10.86,10.86,0,0,1-1.65-7.91c.67-4.73,3.62-8.3,6.86-8.3a3.81,3.81,0,0,1,.59,0,5,5,0,0,1,3.26,2,10.87,10.87,0,0,1,1.64,7.91C180.06,93.85,177.11,97.42,173.87,97.42Z"/><path class="cls-3" d="M175.23,79.63a3,3,0,0,1,.52,0c3.14.42,5.15,4.62,4.48,9.38-.63,4.49-3.41,7.87-6.37,7.87a3.12,3.12,0,0,1-.52,0c-3.13-.42-5.14-4.62-4.47-9.38.63-4.49,3.41-7.87,6.36-7.87m0-1h0c-3.49,0-6.65,3.76-7.35,8.73a11.44,11.44,0,0,0,1.74,8.29,5.41,5.41,0,0,0,3.59,2.23c.22,0,.44,0,.65,0,3.5,0,6.66-3.75,7.36-8.73a11.4,11.4,0,0,0-1.74-8.28,5.42,5.42,0,0,0-3.59-2.23,4.89,4.89,0,0,0-.66-.05Z"/><path class="cls-6" d="M174.34,92.78a3.21,3.21,0,0,1-2.26-.77,2.47,2.47,0,0,1-.75-1.84,2.19,2.19,0,0,1,.54-1.5,3,3,0,0,1,.52-.46,2.49,2.49,0,0,1-.55-.63,2.62,2.62,0,0,1-.32-1.31,2.3,2.3,0,0,1,.9-1.88,3.27,3.27,0,0,1,4,.14,2.25,2.25,0,0,1,.73,1.7,2.15,2.15,0,0,1-.87,1.76,2.45,2.45,0,0,1,1,2.14,2.43,2.43,0,0,1-1,2A3.22,3.22,0,0,1,174.34,92.78Zm-.21-3.58a1.44,1.44,0,0,0-.45.39.89.89,0,0,0-.14.5.73.73,0,0,0,.22.58,1,1,0,0,0,1.2,0,.62.62,0,0,0,.16-.47.63.63,0,0,0-.16-.46,2.78,2.78,0,0,0-.78-.49Zm.2-3.5a.63.63,0,0,0-.49.17.54.54,0,0,0-.13.39.52.52,0,0,0,.13.37,2.06,2.06,0,0,0,.64.41l0,0a1.06,1.06,0,0,0,.34-.32,1,1,0,0,0,.1-.46.52.52,0,0,0-.18-.44A.71.71,0,0,0,174.33,85.7Z"/><path class="cls-3" d="M174.33,84.27a2.46,2.46,0,0,1,1.75.62,1.77,1.77,0,0,1,.58,1.34A1.87,1.87,0,0,1,175.3,88a2.87,2.87,0,0,1,1.23,1,2.15,2.15,0,0,1,.3,1.18,2,2,0,0,1-.77,1.63,2.77,2.77,0,0,1-1.72.52,2.69,2.69,0,0,1-1.91-.64,1.91,1.91,0,0,1-.6-1.47,1.76,1.76,0,0,1,.41-1.17,3.73,3.73,0,0,1,1.09-.76,2.56,2.56,0,0,1-1.06-.91,2.1,2.1,0,0,1-.25-1.06,1.81,1.81,0,0,1,.71-1.49,2.49,2.49,0,0,1,1.6-.51m.22,3.35a1.81,1.81,0,0,0,.74-.62,1.47,1.47,0,0,0,.17-.72,1,1,0,0,0-.37-.83,1.2,1.2,0,0,0-.76-.25,1.11,1.11,0,0,0-.84.32,1,1,0,0,0-.28.74,1,1,0,0,0,.27.71,2.44,2.44,0,0,0,.79.52l.28.13m-.22,3.73a1.32,1.32,0,0,0,1-.36,1.13,1.13,0,0,0,.3-.82,1.16,1.16,0,0,0-.3-.81,3.56,3.56,0,0,0-.92-.59l-.3-.14a2.28,2.28,0,0,0-.83.68,1.35,1.35,0,0,0-.23.78,1.21,1.21,0,0,0,.39,1,1.28,1.28,0,0,0,.9.31m0-8.08a3.47,3.47,0,0,0-2.22.73A2.8,2.8,0,0,0,171,86.27a3.06,3.06,0,0,0,.39,1.56,3.64,3.64,0,0,0,.24.35,1.29,1.29,0,0,0-.16.17,2.65,2.65,0,0,0-.66,1.82,3,3,0,0,0,.91,2.2,3.68,3.68,0,0,0,2.6.91,3.72,3.72,0,0,0,2.33-.73,2.93,2.93,0,0,0,1.16-2.42,3.09,3.09,0,0,0-.46-1.72A2.79,2.79,0,0,0,177,88a2.72,2.72,0,0,0,.63-1.75,2.78,2.78,0,0,0-.89-2.07,3.44,3.44,0,0,0-2.44-.89Zm-.11,2.92h0Zm0,0h.1a.23.23,0,0,1,.13,0v0a.62.62,0,0,1,0,.18.87.87,0,0,1-.22-.16.24.24,0,0,1,0-.09Zm.1,4.14a.35.35,0,0,1-.23-.06s-.06-.05-.06-.2a.36.36,0,0,1,.05-.21l.09-.1a1.59,1.59,0,0,1,.42.28s0,0,0,.11,0,.1,0,.12a.43.43,0,0,1-.27.06Z"/><path class="cls-8" d="M201,114.53a6.91,6.91,0,0,1-6.11-3,.52.52,0,0,1-.07-.25V87.5a.52.52,0,0,1,.17-.37.53.53,0,0,1,.33-.13h.07l11.36,1.54a.51.51,0,0,1,.43.5v22.22a.51.51,0,0,1-.06.25A6.92,6.92,0,0,1,201,114.53Z"/><path class="cls-3" d="M195.36,87.5l11.36,1.55v22.22a7.22,7.22,0,0,1-11.36,0V87.5m0-1a1,1,0,0,0-.65.25,1,1,0,0,0-.35.75v23.77a1,1,0,0,0,.14.5,8.2,8.2,0,0,0,13.09,0,1,1,0,0,0,.13-.5V89.05a1,1,0,0,0-.86-1L195.5,86.51Z"/><path class="cls-7" d="M200.36,97.42a3.9,3.9,0,0,1-.59,0,4.89,4.89,0,0,1-3.25-2,10.82,10.82,0,0,1-1.65-7.91c.66-4.73,3.61-8.3,6.86-8.3a4,4,0,0,1,.59,0,4.93,4.93,0,0,1,3.25,2,10.87,10.87,0,0,1,1.65,7.91C206.56,93.85,203.61,97.42,200.36,97.42Z"/><path class="cls-3" d="M201.73,79.63a3,3,0,0,1,.52,0c3.14.42,5.14,4.62,4.47,9.38-.62,4.49-3.41,7.87-6.36,7.87a3,3,0,0,1-.52,0c-3.14-.42-5.14-4.62-4.48-9.38.63-4.49,3.42-7.87,6.37-7.87m0-1h0c-3.5,0-6.66,3.76-7.36,8.73a11.39,11.39,0,0,0,1.75,8.29,5.41,5.41,0,0,0,3.58,2.23c.22,0,.44,0,.66,0,3.5,0,6.66-3.75,7.36-8.73A11.35,11.35,0,0,0,206,80.91a5.37,5.37,0,0,0-3.59-2.23,4.62,4.62,0,0,0-.65-.05Z"/><path class="cls-6" d="M196.49,93a.5.5,0,0,1-.5-.5v-1a.5.5,0,0,1,.5-.5h1V86.85a6,6,0,0,1-.78.31.39.39,0,0,1-.15,0,.48.48,0,0,1-.49-.4l-.2-1.07a.49.49,0,0,1,.35-.57,5.18,5.18,0,0,0,1.64-.83.47.47,0,0,1,.3-.1h1a.5.5,0,0,1,.5.5V91h.94a.5.5,0,0,1,.5.5v1a.5.5,0,0,1-.5.5Z"/><path class="cls-3" d="M199.22,84.71v6.8h1.44v1h-4.17v-1H198V86a5.56,5.56,0,0,1-1.43.68l-.2-1.06a5.88,5.88,0,0,0,1.8-.91h1m0-1h-1a1,1,0,0,0-.6.2,4.93,4.93,0,0,1-1.48.75,1,1,0,0,0-.71,1.15l.21,1.06a1,1,0,0,0,.47.68,1,1,0,0,0,.51.13,1.1,1.1,0,0,0,.31,0l.12,0v2.91h-.52a1,1,0,0,0-1,1v1a1,1,0,0,0,1,1h4.17a1,1,0,0,0,1-1v-1a1,1,0,0,0-1-1h-.44v-5.8a1,1,0,0,0-1-1Z"/><path class="cls-6" d="M200.84,93a.5.5,0,0,1-.5-.5v-.9a.49.49,0,0,1,0-.21,11.17,11.17,0,0,1,2.32-3,4.94,4.94,0,0,0,.94-1.08,1.09,1.09,0,0,0,.14-.58c0-.31-.11-.42-.15-.45a.46.46,0,0,0-.36-.12c-.19,0-.54,0-.6.93a.49.49,0,0,1-.2.37.45.45,0,0,1-.3.1h-.1l-1.27-.26a.5.5,0,0,1-.39-.55,2.85,2.85,0,0,1,1.05-2,3.21,3.21,0,0,1,3.93.17,2.46,2.46,0,0,1,.71,1.82,2.93,2.93,0,0,1-.46,1.57,7.71,7.71,0,0,1-1.26,1.42A12.76,12.76,0,0,0,203.1,91h2.53a.5.5,0,0,1,.5.5v1a.5.5,0,0,1-.5.5Z"/><path class="cls-3" d="M203.29,84.63a2.42,2.42,0,0,1,1.75.61,2,2,0,0,1,.56,1.47,2.39,2.39,0,0,1-.39,1.31A7.3,7.3,0,0,1,204,89.33a8.46,8.46,0,0,0-1.89,2.15h3.48v1h-4.79v-.9a10.2,10.2,0,0,1,2.21-2.87,5.62,5.62,0,0,0,1-1.19,1.62,1.62,0,0,0,.2-.83,1.06,1.06,0,0,0-.31-.82,1,1,0,0,0-.7-.25c-.67,0-1,.47-1.1,1.4l-1.26-.26a2.26,2.26,0,0,1,2.38-2.14m0-1a3.26,3.26,0,0,0-3.38,3,1,1,0,0,0,.79,1.11L202,88l.2,0h.17a11.48,11.48,0,0,0-2.41,3.14,1.07,1.07,0,0,0-.09.43v.9a1,1,0,0,0,1,1h4.79a1,1,0,0,0,1-1v-1a1,1,0,0,0-1-1h-1.36l.43-.4a8.14,8.14,0,0,0,1.36-1.53,3.35,3.35,0,0,0,.54-1.84,3,3,0,0,0-.86-2.18,3.33,3.33,0,0,0-2.45-.9Zm0,3h0v.07a.69.69,0,0,1-.07.34l0,.06h0a1.4,1.4,0,0,1,.09-.47Z"/><path class="cls-5" d="M22.71,150.48a.47.47,0,0,1-.37-.18.48.48,0,0,1-.12-.4L24,138.58a.49.49,0,0,1,.49-.42l22.23.5a.45.45,0,0,1,.25.07A7.72,7.72,0,0,1,46.72,151a.46.46,0,0,1-.23.06Z"/><path class="cls-3" d="M24.52,138.66l22.22.5a7.23,7.23,0,0,1-.25,11.36L22.72,150l1.8-11.32m0-1a1,1,0,0,0-1,.84l-1.8,11.33a1,1,0,0,0,.22.79,1,1,0,0,0,.75.36l23.76.54h0a1.09,1.09,0,0,0,.47-.12,8.21,8.21,0,0,0,.3-13.1,1,1,0,0,0-.5-.14l-22.22-.5Z"/><path class="cls-4" d="M24.81,150.65a14.42,14.42,0,0,1-2.17-.17c-5-.82-8.63-4.24-8.09-7.64C15,140,18.24,138,22.43,138a13.33,13.33,0,0,1,2.17.18c5,.81,8.63,4.23,8.09,7.63C32.24,148.66,29,150.65,24.81,150.65Z"/><path class="cls-3" d="M22.43,138.49a12.53,12.53,0,0,1,2.09.17c4.74.77,8.18,3.93,7.68,7.06-.42,2.66-3.55,4.43-7.39,4.43a12.53,12.53,0,0,1-2.09-.17c-4.74-.77-8.18-3.93-7.68-7.06.42-2.65,3.55-4.43,7.39-4.43m0-1c-4.44,0-7.88,2.17-8.38,5.28-.59,3.72,3.15,7.33,8.51,8.2a14.31,14.31,0,0,0,2.25.18c4.44,0,7.88-2.17,8.38-5.27.59-3.73-3.15-7.33-8.51-8.21a14.31,14.31,0,0,0-2.25-.18Z"/><path class="cls-6" d="M26.4,149.77a.49.49,0,0,1-.48-.51l0-1-4.15-.09a6,6,0,0,1,.28.78.46.46,0,0,1-.05.41.54.54,0,0,1-.34.23l-1.07.18h-.08a.5.5,0,0,1-.49-.37,5,5,0,0,0-.79-1.66.53.53,0,0,1-.09-.3l0-1a.51.51,0,0,1,.5-.49L26,146l0-.94a.53.53,0,0,1,.15-.35.56.56,0,0,1,.35-.13l1,0a.49.49,0,0,1,.48.51l-.09,4.16a.49.49,0,0,1-.15.35.52.52,0,0,1-.35.14Z"/><path class="cls-3" d="M26.51,145.11l1,0-.09,4.16-1,0,0-1.52-5.51-.12a6,6,0,0,1,.66,1.44l-1.07.18a6,6,0,0,0-.87-1.82l0-1,6.8.16,0-1.44m0-1a1,1,0,0,0-.69.27,1,1,0,0,0-.31.7v.44l-5.8-.13h0a1,1,0,0,0-1,1l0,1a1,1,0,0,0,.18.6,4.69,4.69,0,0,1,.72,1.5,1,1,0,0,0,1,.74h.16l1.07-.18a1,1,0,0,0,.68-.46.93.93,0,0,0,.11-.81l0-.13,2.91.07v.52a1,1,0,0,0,.27.71,1,1,0,0,0,.7.31l1,0h0a1,1,0,0,0,1-1l.09-4.17a1,1,0,0,0-1-1l-1,0Z"/><path class="cls-6" d="M26.51,145a.52.52,0,0,1-.49-.51l0-1-4.16-.1a6.14,6.14,0,0,1,.29.79.51.51,0,0,1-.05.4.47.47,0,0,1-.34.23l-1.07.18h-.09a.5.5,0,0,1-.48-.37,5.24,5.24,0,0,0-.79-1.66.49.49,0,0,1-.1-.3l0-1a.5.5,0,0,1,.5-.49l6.31.14,0-.94a.51.51,0,0,1,.15-.35.52.52,0,0,1,.35-.14l1,0a.5.5,0,0,1,.49.52L28,144.51a.51.51,0,0,1-.5.49Z"/><path class="cls-3" d="M26.62,140.31l1,0-.09,4.17-1,0,0-1.52-5.51-.13a5.81,5.81,0,0,1,.65,1.45l-1.07.18a5.69,5.69,0,0,0-.86-1.82l0-1,6.8.15,0-1.44m0-1a1,1,0,0,0-1,1v.44l-5.8-.13h0a1,1,0,0,0-1,1l0,1a.9.9,0,0,0,.18.59,5,5,0,0,1,.72,1.5,1,1,0,0,0,1,.75h.17l1.07-.18a1,1,0,0,0,.79-1.28.56.56,0,0,0,0-.12l2.92.07,0,.51a1,1,0,0,0,.28.72,1,1,0,0,0,.7.31l1,0h0a1,1,0,0,0,1-1l.09-4.16a1,1,0,0,0-.28-.72,1,1,0,0,0-.7-.31l-1,0Z"/><path class="cls-8" d="M195.36,131.73a6.91,6.91,0,0,1-6.11-3,.51.51,0,0,1-.07-.24V104.7a.52.52,0,0,1,.17-.37.53.53,0,0,1,.33-.13h.07l11.36,1.55a.49.49,0,0,1,.43.49v22.23a.5.5,0,0,1-.06.24A6.92,6.92,0,0,1,195.36,131.73Z"/><path class="cls-3" d="M189.68,104.7,201,106.25v22.23a7.24,7.24,0,0,1-11.36,0V104.7m0-1a1,1,0,0,0-.65.25,1,1,0,0,0-.35.75v23.78a1.05,1.05,0,0,0,.13.49,8.21,8.21,0,0,0,13.1,0,1,1,0,0,0,.13-.49V106.25a1,1,0,0,0-.86-1l-11.36-1.55Z"/><path class="cls-7" d="M194.68,114.62a3.9,3.9,0,0,1-.59,0,4.91,4.91,0,0,1-3.25-2,10.85,10.85,0,0,1-1.65-7.92c.66-4.73,3.61-8.3,6.86-8.3a4,4,0,0,1,.59,0,4.93,4.93,0,0,1,3.25,2,10.87,10.87,0,0,1,1.65,7.91C200.88,111.05,197.93,114.62,194.68,114.62Z"/><path class="cls-3" d="M196.05,96.83a3.12,3.12,0,0,1,.52,0c3.14.42,5.14,4.63,4.47,9.38-.62,4.49-3.41,7.87-6.36,7.87a4.53,4.53,0,0,1-.52,0c-3.14-.43-5.14-4.63-4.48-9.39.63-4.49,3.42-7.87,6.37-7.87m0-1h0c-3.5,0-6.66,3.76-7.36,8.73a11.39,11.39,0,0,0,1.75,8.29,5.41,5.41,0,0,0,3.58,2.23,4.87,4.87,0,0,0,.66,0c3.5,0,6.66-3.75,7.35-8.73a11.31,11.31,0,0,0-1.74-8.28,5.41,5.41,0,0,0-3.59-2.23,4.62,4.62,0,0,0-.65,0Z"/><path class="cls-6" d="M195.22,109.76a3.09,3.09,0,0,1-1.92-.58,2.53,2.53,0,0,1-.92-1.49.5.5,0,0,1,.34-.59l1.24-.38.14,0a.44.44,0,0,1,.26.07.52.52,0,0,1,.24.34c.11.61.37.66.61.66a.51.51,0,0,0,.48-.27,1.74,1.74,0,0,0,.2-.93,1.4,1.4,0,0,0-.22-.89.45.45,0,0,0-.4-.18c-.28,0-.49.09-.62.52a.5.5,0,0,1-.48.35h-.07l-1-.15a.51.51,0,0,1-.43-.52l.15-4.34a.5.5,0,0,1,.5-.48h4.09a.5.5,0,0,1,.5.5v1a.5.5,0,0,1-.5.5h-2.57l0,.74a2.27,2.27,0,0,1,.75-.12,2.46,2.46,0,0,1,2,1,3.27,3.27,0,0,1,.64,2.06,3.23,3.23,0,0,1-.93,2.42A2.85,2.85,0,0,1,195.22,109.76Z"/><path class="cls-3" d="M197.36,101.38v1h-3.05l-.07,1.55a7.15,7.15,0,0,1-.06.74,1.5,1.5,0,0,1,1.33-.67,2,2,0,0,1,1.65.78,2.82,2.82,0,0,1,.53,1.75,2.74,2.74,0,0,1-.78,2.06,2.33,2.33,0,0,1-1.69.65,2.53,2.53,0,0,1-1.61-.48,2,2,0,0,1-.74-1.2l1.23-.38c.14.72.51,1.07,1.11,1.07a1,1,0,0,0,.9-.51,2.16,2.16,0,0,0,.28-1.19,1.9,1.9,0,0,0-.33-1.21,1,1,0,0,0-.79-.36,1.09,1.09,0,0,0-1.1.87l-1-.15.15-4.34h4.09m0-1h-4.09a1,1,0,0,0-1,1l-.15,4.33a1,1,0,0,0,.52.92l-.06,0a1,1,0,0,0-.68,1.19,3,3,0,0,0,1.1,1.77,3.54,3.54,0,0,0,2.22.68,3.32,3.32,0,0,0,2.39-.93,3.72,3.72,0,0,0,1.08-2.78,3.78,3.78,0,0,0-.74-2.36,2.87,2.87,0,0,0-.92-.79h.33a1,1,0,0,0,1-1v-1a1,1,0,0,0-1-1ZM195.2,106h.07c.07,0,.12.24.12.57a1.27,1.27,0,0,1-.12.66l0,0h-.07a1.53,1.53,0,0,1-.07-.26,1,1,0,0,0-.2-.43,1.06,1.06,0,0,0,.24-.41.49.49,0,0,1,.07-.16Z"/><path class="cls-5" d="M62.57,159.24a.47.47,0,0,1-.37-.19.51.51,0,0,1-.1-.4l2.1-11.27a.51.51,0,0,1,.49-.41L93,148.36a.52.52,0,0,1,.25.07,7.72,7.72,0,0,1-.6,12.22.59.59,0,0,1-.22,0Z"/><path class="cls-3" d="M64.69,147.47,93,148.85a7.22,7.22,0,0,1-.56,11.35l-29.81-1.46,2.1-11.27m0-1a1,1,0,0,0-1,.82l-2.1,11.27a1,1,0,0,0,.94,1.18l29.81,1.46h0a.92.92,0,0,0,.46-.11A8.2,8.2,0,0,0,93.5,148a1,1,0,0,0-.49-.15l-28.27-1.39Z"/><path class="cls-4" d="M64.73,159.46a13.39,13.39,0,0,1-2.5-.24c-5-.94-8.52-4.46-7.89-7.84.51-2.74,3.67-4.65,7.67-4.65a13.41,13.41,0,0,1,2.51.24c5,.94,8.51,4.46,7.88,7.84C71.89,157.55,68.74,159.46,64.73,159.46Z"/><path class="cls-3" d="M62,147.23a12.59,12.59,0,0,1,2.41.23c4.72.9,8.07,4.15,7.49,7.26-.48,2.57-3.49,4.24-7.18,4.24a12.67,12.67,0,0,1-2.41-.23c-4.71-.9-8.07-4.15-7.49-7.26.48-2.57,3.49-4.24,7.18-4.24m0-1h0c-4.31,0-7.6,2-8.16,5.06-.69,3.71,2.95,7.41,8.29,8.42a13.44,13.44,0,0,0,2.59.25c4.32,0,7.6-2,8.17-5.06.69-3.71-3-7.41-8.29-8.42a13.55,13.55,0,0,0-2.6-.25Z"/><path class="cls-6" d="M65.52,156.25a.49.49,0,0,1-.48-.38l-.31-1.26a.54.54,0,0,1,.07-.39.57.57,0,0,1,.33-.22,1.13,1.13,0,0,0,.61-.25.71.71,0,0,0,.13-.43.59.59,0,0,0-.18-.53.9.9,0,0,0-.59-.2h0c-.57,0-.9.17-.94,1l0,.58a.5.5,0,0,1-.5.48l-1-.05a.51.51,0,0,1-.35-.17.5.5,0,0,1-.13-.36l0-.53c0-.85-.31-.94-.67-.95h0c-.34,0-.43.1-.46.13a.54.54,0,0,0-.14.4.51.51,0,0,0,.12.39.9.9,0,0,0,.48.22.53.53,0,0,1,.34.24.52.52,0,0,1,0,.42l-.44,1.23a.5.5,0,0,1-.47.33.4.4,0,0,1-.15,0,2.57,2.57,0,0,1-1.53-1.21,3.05,3.05,0,0,1-.37-1.7,2.89,2.89,0,0,1,.87-2.08,2.24,2.24,0,0,1,1.58-.63h.13a2.19,2.19,0,0,1,1.52.65,1.27,1.27,0,0,1,.21.25,2,2,0,0,1,.5-.47,2.39,2.39,0,0,1,1.38-.41h.15a2.65,2.65,0,0,1,2.08,1,3.06,3.06,0,0,1,.57,2.05,2.78,2.78,0,0,1-2.21,2.84Z"/><path class="cls-3" d="M61.31,150.76h.1a1.67,1.67,0,0,1,1.19.5,1.72,1.72,0,0,1,.48,1.06h.07a2,2,0,0,1,.8-1.22,1.92,1.92,0,0,1,1.1-.32h.13a2.13,2.13,0,0,1,1.7.85,2.6,2.6,0,0,1,.48,1.73,2.28,2.28,0,0,1-1.84,2.37l-.3-1.25a1.55,1.55,0,0,0,.89-.42,1.12,1.12,0,0,0,.26-.74,1.06,1.06,0,0,0-.35-.92,1.4,1.4,0,0,0-.9-.33H65c-.85,0-1.3.48-1.35,1.43l0,.59-1-.05,0-.54c0-.94-.34-1.43-1.15-1.47h-.09a1,1,0,0,0-.77.28,1.07,1.07,0,0,0-.27.73,1,1,0,0,0,.26.75,1.33,1.33,0,0,0,.75.37l-.44,1.23a2.11,2.11,0,0,1-1.25-1,2.6,2.6,0,0,1-.3-1.44,2.44,2.44,0,0,1,.71-1.73,1.73,1.73,0,0,1,1.24-.5m0-1a2.76,2.76,0,0,0-1.93.77,3.4,3.4,0,0,0-1,2.41,3.6,3.6,0,0,0,.43,2,3.09,3.09,0,0,0,1.81,1.44,1.12,1.12,0,0,0,.31,0,1,1,0,0,0,.94-.67l.29-.79a1.08,1.08,0,0,0,.4.11l1,.05h0a1,1,0,0,0,.66-.25l.27,1.13a1,1,0,0,0,1,.76l.23,0a3.26,3.26,0,0,0,2.6-3.3,3.53,3.53,0,0,0-.67-2.38,3.15,3.15,0,0,0-2.45-1.25h-.18a2.92,2.92,0,0,0-1.66.49l-.21.16a2.72,2.72,0,0,0-1.72-.67Zm0,3.29h0a.43.43,0,0,1,.21,0,1.13,1.13,0,0,1,0,.14l-.08,0c-.16,0-.2-.08-.2-.08s0-.05,0-.07Zm3.31.63v-.11c0-.48.1-.48.35-.48h.08a.49.49,0,0,1,.27.07s0,0,0,.13a.33.33,0,0,1,0,.14h0a2.44,2.44,0,0,1-.3.08,1,1,0,0,0-.4.17Z"/><path class="cls-6" d="M144.57,148a.5.5,0,0,1-.5-.5v-1a.5.5,0,0,1,.5-.5h1v-4.16a6,6,0,0,1-.78.31l-.15,0a.59.59,0,0,1-.26-.07.5.5,0,0,1-.23-.34l-.21-1.06a.51.51,0,0,1,.36-.58,5.18,5.18,0,0,0,1.64-.83.54.54,0,0,1,.3-.1h1a.51.51,0,0,1,.5.5V146h.93a.5.5,0,0,1,.5.5v1a.5.5,0,0,1-.5.5Z"/><path class="cls-3" d="M147.3,139.7v6.8h1.43v1h-4.16v-1h1.52V141a5.93,5.93,0,0,1-1.43.69l-.2-1.07a5.88,5.88,0,0,0,1.8-.91h1m0-1h-1a1,1,0,0,0-.6.2,4.7,4.7,0,0,1-1.48.75,1,1,0,0,0-.71,1.15l.21,1.06a1,1,0,0,0,.47.68,1,1,0,0,0,.51.14,1.12,1.12,0,0,0,.31-.05l.12,0v2.91h-.52a1,1,0,0,0-1,1v1a1,1,0,0,0,1,1h4.16a1,1,0,0,0,1-1v-1a1,1,0,0,0-1-1h-.43v-5.8a1,1,0,0,0-1-1Z"/><path class="cls-6" d="M151.33,148.13A2.48,2.48,0,0,1,149,146.8a6.6,6.6,0,0,1-.6-3.19,5.87,5.87,0,0,1,.82-3.49,2.5,2.5,0,0,1,2.12-1,2.53,2.53,0,0,1,2.32,1.3,6.55,6.55,0,0,1,.61,3.17,6,6,0,0,1-.81,3.52A2.53,2.53,0,0,1,151.33,148.13Zm0-7c-.15,0-.3,0-.42.39a6.76,6.76,0,0,0-.21,2.09,6,6,0,0,0,.25,2.25c.1.23.2.27.36.27s.31,0,.45-.41a7.42,7.42,0,0,0,.2-2.11,5.75,5.75,0,0,0-.26-2.22A.35.35,0,0,0,151.35,141.12Z"/><path class="cls-3" d="M151.35,139.62a2,2,0,0,1,1.88,1,6.07,6.07,0,0,1,.55,2.93,5.6,5.6,0,0,1-.71,3.21,2.23,2.23,0,0,1-3.63-.25,6.41,6.41,0,0,1-.53-2.95,5.46,5.46,0,0,1,.72-3.19,2,2,0,0,1,1.72-.8m0,7a.94.94,0,0,0,.92-.75,8.06,8.06,0,0,0,.23-2.27,6.57,6.57,0,0,0-.3-2.43.85.85,0,0,0-.83-.55.92.92,0,0,0-.9.73,7.5,7.5,0,0,0-.23,2.25,6.82,6.82,0,0,0,.29,2.46.84.84,0,0,0,.82.56m0-8a3,3,0,0,0-2.52,1.2,6.28,6.28,0,0,0-.92,3.79,7.1,7.1,0,0,0,.66,3.43,3,3,0,0,0,2.76,1.59,3,3,0,0,0,2.54-1.23,6.39,6.39,0,0,0,.91-3.8,6.9,6.9,0,0,0-.68-3.42,3,3,0,0,0-2.75-1.56Zm0,6.75a8.38,8.38,0,0,1-.13-1.77,7.75,7.75,0,0,1,.13-1.74,11.91,11.91,0,0,1,0,3.51Z"/><path class="cls-6" d="M164.07,149.74a.5.5,0,0,1-.5-.5V148h-2.45a.5.5,0,0,1-.5-.5v-.89a.54.54,0,0,1,0-.22l2.52-5.14a.49.49,0,0,1,.44-.28h1.61a.5.5,0,0,1,.5.5V146h.46a.5.5,0,0,1,.5.5v1a.5.5,0,0,1-.5.5h-.46v1.25a.5.5,0,0,1-.5.5Zm-.5-3.7v-1.31L163,146Z"/><path class="cls-3" d="M165.24,141.46v5.08h1v1h-1v1.75h-1.17v-1.75h-2.95v-.89l2.52-5.14h1.6m-1.11,1H164c-.23.6-.52,1.28-.86,2l-.95,2h1.89v-1.7c0-.54,0-1.34.06-2.37m1.11-2h-1.6a1,1,0,0,0-.9.56l-2.52,5.14a1.09,1.09,0,0,0-.1.44v.89a1,1,0,0,0,1,1h1.95v.75a1,1,0,0,0,1,1h1.17a1,1,0,0,0,1-1v-.75a1,1,0,0,0,1-1v-1a1,1,0,0,0-1-1v-4.08a1,1,0,0,0-1-1Z"/><path class="cls-8" d="M133.52,188.88c-4.34,0-6-2.67-6.11-2.78a.48.48,0,0,1-.07-.26V158.26a.48.48,0,0,1,.17-.37.51.51,0,0,1,.33-.13h.06l11.36,1.43a.5.5,0,0,1,.44.49v26.15a.5.5,0,0,1-.08.26C139.55,186.21,137.85,188.88,133.52,188.88Z"/><path class="cls-3" d="M127.84,158.26l11.36,1.43v26.15s-1.58,2.54-5.68,2.54-5.68-2.54-5.68-2.54V158.26m0-1a1,1,0,0,0-.66.25,1,1,0,0,0-.34.75v27.58a1,1,0,0,0,.15.52c.07.13,1.92,3,6.53,3s6.45-2.89,6.53-3a1,1,0,0,0,.15-.52V159.69a1,1,0,0,0-.88-1L128,157.27Z"/><path class="cls-7" d="M132.83,167.91a3.77,3.77,0,0,1-.58,0,4.92,4.92,0,0,1-3.26-2,10.87,10.87,0,0,1-1.65-7.91c.66-4.73,3.61-8.3,6.86-8.3a3.9,3.9,0,0,1,.59,0,4.91,4.91,0,0,1,3.26,2,10.87,10.87,0,0,1,1.64,7.91C139,164.34,136.08,167.91,132.83,167.91Z"/><path class="cls-3" d="M134.2,150.12a3,3,0,0,1,.52,0c3.14.42,5.14,4.62,4.48,9.38-.63,4.49-3.42,7.87-6.37,7.87a3.12,3.12,0,0,1-.52,0c-3.13-.42-5.14-4.62-4.47-9.38.63-4.49,3.41-7.87,6.36-7.87m0-1h0c-3.49,0-6.66,3.75-7.35,8.73a11.35,11.35,0,0,0,1.74,8.28,5.37,5.37,0,0,0,3.59,2.23,4.62,4.62,0,0,0,.65,0c3.5,0,6.66-3.76,7.36-8.73a11.44,11.44,0,0,0-1.74-8.29,5.46,5.46,0,0,0-3.59-2.23c-.22,0-.44,0-.66,0Z"/><path class="cls-6" d="M131.51,163a.51.51,0,0,1-.5-.5v-1a.51.51,0,0,1,.5-.5h1v-4.15a5.87,5.87,0,0,1-.77.3.41.41,0,0,1-.16,0,.45.45,0,0,1-.25-.07.53.53,0,0,1-.24-.34l-.2-1.06a.51.51,0,0,1,.35-.58,5.34,5.34,0,0,0,1.65-.83.48.48,0,0,1,.29-.09h1a.5.5,0,0,1,.5.5V161h.94a.5.5,0,0,1,.5.5v1a.5.5,0,0,1-.5.5Z"/><path class="cls-3" d="M134.24,154.71v6.8h1.44v1h-4.17v-1H133V156a5.43,5.43,0,0,1-1.43.69l-.2-1.06a5.7,5.7,0,0,0,1.8-.92h1m0-1h-1a1,1,0,0,0-.59.2,4.45,4.45,0,0,1-1.49.75,1,1,0,0,0-.7,1.15l.2,1.07a1,1,0,0,0,.47.67,1,1,0,0,0,.82.09l.12,0v2.91h-.52a1,1,0,0,0-1,1v1a1,1,0,0,0,1,1h4.17a1,1,0,0,0,1-1v-1a1,1,0,0,0-1-1h-.44v-5.8a1,1,0,0,0-1-1Z"/><path class="cls-6" d="M152.47,164.63a.51.51,0,0,1-.5-.5v-.91A.54.54,0,0,1,152,163a11,11,0,0,1,2.32-3,5.27,5.27,0,0,0,.94-1.07,1.11,1.11,0,0,0,.14-.58c0-.32-.11-.43-.15-.46a.48.48,0,0,0-.36-.12c-.19,0-.54,0-.6.94a.49.49,0,0,1-.2.36.47.47,0,0,1-.3.1h-.1l-1.27-.26a.5.5,0,0,1-.39-.55,3,3,0,0,1,5-1.82,2.46,2.46,0,0,1,.71,1.83,2.91,2.91,0,0,1-.47,1.57,7.65,7.65,0,0,1-1.26,1.41,13.66,13.66,0,0,0-1.27,1.28h2.53a.5.5,0,0,1,.5.5v1a.51.51,0,0,1-.5.5Z"/><path class="cls-3" d="M154.93,156.26a2.38,2.38,0,0,1,1.75.62,2,2,0,0,1,.56,1.47,2.38,2.38,0,0,1-.39,1.3,7.3,7.3,0,0,1-1.17,1.31,8.46,8.46,0,0,0-1.89,2.15h3.48v1h-4.8v-.91a10.28,10.28,0,0,1,2.22-2.86,6.21,6.21,0,0,0,1-1.2,1.72,1.72,0,0,0,.2-.82,1.06,1.06,0,0,0-.31-.83,1,1,0,0,0-.7-.25c-.67,0-1,.47-1.1,1.4l-1.27-.26a2.28,2.28,0,0,1,2.39-2.14m0-1a3.28,3.28,0,0,0-3.38,3,1,1,0,0,0,.79,1.1l1.27.26a.65.65,0,0,0,.2,0H154a11.48,11.48,0,0,0-2.41,3.14,1.12,1.12,0,0,0-.1.43v.91a1,1,0,0,0,1,1h4.8a1,1,0,0,0,1-1v-1a1,1,0,0,0-1-1h-1.36l.43-.4a8.14,8.14,0,0,0,1.36-1.53,3.34,3.34,0,0,0,.54-1.83,3,3,0,0,0-.86-2.19,3.37,3.37,0,0,0-2.45-.9Zm0,3h0v.07a.67.67,0,0,1-.07.33.61.61,0,0,1,0,.06h0a1.25,1.25,0,0,1,.09-.46Z"/><path class="cls-2" d="M143.22,143.09v29.85a7.22,7.22,0,0,0,11.36,0v-28.3Z"/><ellipse class="cls-4" cx="148.9" cy="143.59" rx="8.69" ry="5.73" transform="translate(-14.31 270.68) rotate(-81.87)"/><path class="cls-5" d="M206.85,146.38v29.84a7.22,7.22,0,0,0,11.36,0v-28.3Z"/><ellipse class="cls-4" cx="212.53" cy="146.88" rx="8.69" ry="5.73" transform="translate(37.07 336.49) rotate(-81.87)"/><path class="cls-6" d="M214.8,143.63l-1.24.46c-.1-.5-.37-.76-.8-.76-.89,0-1.36.91-1.4,2.74a1.71,1.71,0,0,1,1.58-.91,1.8,1.8,0,0,1,1.53.75,3,3,0,0,1,.48,1.75,2.8,2.8,0,0,1-.74,2.08,2.19,2.19,0,0,1-1.61.64,2.1,2.1,0,0,1-1.89-1,5.06,5.06,0,0,1-.6-2.71q0-4.3,2.68-4.3A2,2,0,0,1,214.8,143.63Zm-3.43,3.48c0,1.53.4,2.29,1.22,2.29s1.09-.56,1.09-1.7-.35-1.57-1.05-1.57A1.44,1.44,0,0,0,211.37,147.11Z"/><path class="cls-2" d="M158,145.35V175.2a7.22,7.22,0,0,0,11.36,0V146.9Z"/><ellipse class="cls-7" cx="163.66" cy="145.85" rx="8.69" ry="5.73" transform="translate(-3.88 287.24) rotate(-81.87)"/><path class="cls-8" d="M149.12,160.19V186s1.57,2.38,5.68,2.38,5.68-2.38,5.68-2.38V161.53Z"/><ellipse class="cls-7" cx="154.8" cy="160.7" rx="8.69" ry="5.73" transform="translate(-26.18 291.2) rotate(-81.87)"/><path class="cls-2" d="M64.59,110.57l23,6.07a7.23,7.23,0,0,0,2.89-11L69,100Z"/><ellipse class="cls-4" cx="66.79" cy="105.28" rx="5.73" ry="8.69" transform="translate(-56.19 125.8) rotate(-67.08)"/><path class="cls-6" d="M63.68,101.94l.87.23a13.68,13.68,0,0,0,2.89,2.34,16.18,16.18,0,0,0,3.18,1.43l-.36,1.38a14.21,14.21,0,0,1-3.49-1.8,16.4,16.4,0,0,1-2.4-2.13l-.89,3.36-1-.27Z"/><path class="cls-8" d="M111.61,89.21l19,14.23a7.23,7.23,0,0,0,6.8-9.1L119.65,81Z"/><ellipse class="cls-7" cx="115.63" cy="85.12" rx="5.73" ry="8.69" transform="translate(-26.29 106.95) rotate(-45.1)"/><path class="cls-6" d="M117,87.18a.85.85,0,0,0,1.08-.21,1.11,1.11,0,0,0,.07-1.27,5.4,5.4,0,0,0-1.44-1.51,1.67,1.67,0,0,1-.2,1.82,1.88,1.88,0,0,1-1.54.78A3.29,3.29,0,0,1,112,84.35a2.15,2.15,0,0,1,.46-1.67,2.12,2.12,0,0,1,2-.93A5,5,0,0,1,117,82.88a5.89,5.89,0,0,1,2.29,2.7,2.17,2.17,0,0,1-.42,2,2,2,0,0,1-2.22.88Zm-1.14-3.55c-1.23-.91-2.07-1-2.54-.41s-.21,1.22.7,1.89a1.91,1.91,0,0,0,1.15.46.9.9,0,0,0,.73-.38A1.34,1.34,0,0,0,115.84,83.63Z"/><path class="cls-2" d="M168.87,87.5v23.77a7.22,7.22,0,0,0,11.36,0V89.05Z"/><ellipse class="cls-4" cx="174.55" cy="88.28" rx="8.69" ry="5.73" transform="translate(62.47 248.58) rotate(-81.87)"/><path class="cls-6" d="M175.3,88a2.87,2.87,0,0,1,1.23,1,2.15,2.15,0,0,1,.3,1.18,2,2,0,0,1-.77,1.63,2.77,2.77,0,0,1-1.72.52,2.69,2.69,0,0,1-1.91-.64,1.91,1.91,0,0,1-.6-1.47,1.76,1.76,0,0,1,.41-1.17,3.73,3.73,0,0,1,1.09-.76,2.56,2.56,0,0,1-1.06-.91,2.1,2.1,0,0,1-.25-1.06,1.81,1.81,0,0,1,.71-1.49,2.49,2.49,0,0,1,1.6-.51,2.46,2.46,0,0,1,1.75.62,1.77,1.77,0,0,1,.58,1.34A1.87,1.87,0,0,1,175.3,88Zm-1.2.64a2.28,2.28,0,0,0-.83.68,1.35,1.35,0,0,0-.23.78,1.21,1.21,0,0,0,.39,1,1.28,1.28,0,0,0,.9.31,1.32,1.32,0,0,0,1-.36,1.13,1.13,0,0,0,.3-.82,1.16,1.16,0,0,0-.3-.81,3.56,3.56,0,0,0-.92-.59Zm.45-1a1.81,1.81,0,0,0,.74-.62,1.47,1.47,0,0,0,.17-.72,1,1,0,0,0-.37-.83,1.2,1.2,0,0,0-.76-.25,1.11,1.11,0,0,0-.84.32,1,1,0,0,0-.28.74,1,1,0,0,0,.27.71,2.44,2.44,0,0,0,.79.52Z"/><path class="cls-8" d="M195.36,87.5v23.77a7.22,7.22,0,0,0,11.36,0V89.05Z"/><ellipse class="cls-7" cx="201.04" cy="88.28" rx="8.69" ry="5.73" transform="matrix(0.14, -0.99, 0.99, 0.14, 85.22, 274.81)"/><path class="cls-6" d="M199.22,84.71v6.8h1.44v1h-4.17v-1H198V86a5.56,5.56,0,0,1-1.43.68l-.2-1.06a5.88,5.88,0,0,0,1.8-.91Z"/><path class="cls-6" d="M200.91,86.77a2.26,2.26,0,0,1,2.38-2.14,2.42,2.42,0,0,1,1.75.61,2,2,0,0,1,.56,1.47,2.39,2.39,0,0,1-.39,1.31A7.3,7.3,0,0,1,204,89.33a8.46,8.46,0,0,0-1.89,2.15h3.48v1h-4.79v-.9a10.2,10.2,0,0,1,2.21-2.87,5.62,5.62,0,0,0,1-1.19,1.62,1.62,0,0,0,.2-.83,1.06,1.06,0,0,0-.31-.82,1,1,0,0,0-.7-.25c-.67,0-1,.47-1.1,1.4Z"/><path class="cls-5" d="M22.72,150l23.77.54a7.23,7.23,0,0,0,.25-11.36l-22.22-.5Z"/><ellipse class="cls-4" cx="23.62" cy="144.32" rx="5.73" ry="8.69" transform="translate(-122.62 144.01) rotate(-80.58)"/><path class="cls-6" d="M19.68,146.39l6.8.16,0-1.44,1,0-.09,4.16-1,0,0-1.52-5.51-.12a6,6,0,0,1,.66,1.44l-1.07.18a6,6,0,0,0-.87-1.82Z"/><path class="cls-6" d="M19.79,141.6l6.8.15,0-1.44,1,0-.09,4.17-1,0,0-1.52-5.51-.13a5.81,5.81,0,0,1,.65,1.45l-1.07.18a5.69,5.69,0,0,0-.86-1.82Z"/><path class="cls-8" d="M189.68,104.7v23.78a7.24,7.24,0,0,0,11.36,0V106.25Z"/><ellipse class="cls-7" cx="195.36" cy="105.48" rx="8.69" ry="5.73" transform="translate(63.31 283.95) rotate(-81.87)"/><path class="cls-6" d="M197.36,101.38v1h-3.05l-.07,1.55a7.15,7.15,0,0,1-.06.74,1.5,1.5,0,0,1,1.33-.67,2,2,0,0,1,1.65.78,2.82,2.82,0,0,1,.53,1.75,2.74,2.74,0,0,1-.78,2.06,2.33,2.33,0,0,1-1.69.65,2.53,2.53,0,0,1-1.61-.48,2,2,0,0,1-.74-1.2l1.23-.38c.14.72.51,1.07,1.11,1.07a1,1,0,0,0,.9-.51,2.16,2.16,0,0,0,.28-1.19,1.9,1.9,0,0,0-.33-1.21,1,1,0,0,0-.79-.36,1.09,1.09,0,0,0-1.1.87l-1-.15.15-4.34Z"/><path class="cls-5" d="M62.59,158.74,92.4,160.2A7.22,7.22,0,0,0,93,148.85l-28.27-1.38Z"/><ellipse class="cls-4" cx="63.37" cy="153.09" rx="5.73" ry="8.69" transform="matrix(0.19, -0.98, 0.98, 0.19, -98.96, 186.28)"/><path class="cls-6" d="M60.91,155.41a2.11,2.11,0,0,1-1.25-1,2.6,2.6,0,0,1-.3-1.44,2.44,2.44,0,0,1,.71-1.73,1.7,1.7,0,0,1,1.34-.49,1.67,1.67,0,0,1,1.19.5,1.72,1.72,0,0,1,.48,1.06h.07a2,2,0,0,1,.8-1.22,1.92,1.92,0,0,1,1.23-.31,2.13,2.13,0,0,1,1.7.85,2.6,2.6,0,0,1,.48,1.73,2.28,2.28,0,0,1-1.84,2.37l-.3-1.25a1.55,1.55,0,0,0,.89-.42,1.12,1.12,0,0,0,.26-.74,1.06,1.06,0,0,0-.35-.92,1.4,1.4,0,0,0-.9-.33c-.93,0-1.42.43-1.47,1.43l0,.59-1-.05,0-.53c0-.95-.34-1.44-1.15-1.48a1.05,1.05,0,0,0-.86.28,1.07,1.07,0,0,0-.27.73,1,1,0,0,0,.26.75,1.33,1.33,0,0,0,.75.37Z"/><path class="cls-6" d="M147.3,139.7v6.8h1.44v1h-4.17v-1h1.52V141a5.93,5.93,0,0,1-1.43.69l-.2-1.07a5.88,5.88,0,0,0,1.8-.91Z"/><path class="cls-6" d="M151.35,139.62a2,2,0,0,1,1.88,1,6.07,6.07,0,0,1,.55,2.93,5.6,5.6,0,0,1-.71,3.21,2.23,2.23,0,0,1-3.63-.25,6.41,6.41,0,0,1-.53-2.95,5.46,5.46,0,0,1,.72-3.19A2,2,0,0,1,151.35,139.62Zm0,1a.92.92,0,0,0-.9.73,7.5,7.5,0,0,0-.23,2.25,6.82,6.82,0,0,0,.29,2.46.84.84,0,0,0,.82.56.94.94,0,0,0,.92-.75,8.06,8.06,0,0,0,.23-2.27,6.57,6.57,0,0,0-.3-2.43A.85.85,0,0,0,151.35,140.62Z"/><path class="cls-6" d="M165.24,141.46v5.08h1v1h-1v1.75h-1.17v-1.75h-2.95v-.89l2.52-5.14Zm-1.17,5.08v-1.7c0-.54,0-1.34.06-2.37H164c-.23.6-.52,1.28-.86,2l-.95,2Z"/><path class="cls-8" d="M127.84,158.26v27.58s1.57,2.54,5.68,2.54,5.68-2.54,5.68-2.54V159.69Z"/><ellipse class="cls-7" cx="133.52" cy="158.76" rx="8.69" ry="5.73" transform="translate(-42.54 268.48) rotate(-81.87)"/><path class="cls-6" d="M134.24,154.71v6.8h1.44v1h-4.17v-1H133V156a5.43,5.43,0,0,1-1.43.69l-.2-1.06a5.7,5.7,0,0,0,1.8-.92Z"/><path class="cls-6" d="M152.54,158.4a2.51,2.51,0,0,1,4.14-1.52,2,2,0,0,1,.56,1.47,2.38,2.38,0,0,1-.39,1.3,7.3,7.3,0,0,1-1.17,1.31,8.46,8.46,0,0,0-1.89,2.15h3.48v1h-4.8v-.91a10.28,10.28,0,0,1,2.22-2.86,6.21,6.21,0,0,0,1-1.2,1.72,1.72,0,0,0,.2-.82,1.06,1.06,0,0,0-.31-.83,1,1,0,0,0-.7-.25c-.67,0-1,.47-1.1,1.4Z"/><text class="cls-9" transform="translate(46.91 56.63) scale(1.11 1)">4<tspan class="cls-10" x="12.25" y="0">点</tspan></text><polygon class="cls-1" points="89.7 68.49 96.8 92.24 80.03 78.32 89.7 68.49"/></svg>