<svg id="レイヤー_1" data-name="レイヤー 1" xmlns="http://www.w3.org/2000/svg" xmlns:xlink="http://www.w3.org/1999/xlink" viewBox="0 0 153.81 152.26"><defs><style>.cls-1,.cls-6{fill:none;}.cls-2{fill:#b9dde7;}.cls-3{clip-path:url(#clip-path);}.cls-4{fill:#f5dcbe;}.cls-10,.cls-11,.cls-12,.cls-13,.cls-14,.cls-15,.cls-16,.cls-17,.cls-4,.cls-5,.cls-6,.cls-8,.cls-9{stroke:#40220f;stroke-linecap:round;stroke-linejoin:round;}.cls-5{fill:#e3732e;}.cls-7,.cls-8{fill:#40220f;}.cls-9{fill:#e590a8;}.cls-10{fill:#3e3a39;}.cls-11{fill:#3f220e;}.cls-12{fill:#fff;}.cls-13{fill:#e60012;}.cls-14{fill:#d71618;}.cls-15{fill:#c9caca;}.cls-16{fill:#7f4f21;}.cls-17{fill:#099795;}</style><clipPath id="clip-path"><circle class="cls-1" cx="76.74" cy="76.13" r="71.44"/></clipPath></defs><title>作戦会議</title><circle class="cls-2" cx="76.72" cy="76.13" r="71.44"/><g class="cls-3"><path class="cls-4" d="M121.07,52.39c0,.12.06.2.07.24a3.14,3.14,0,0,1-6,1.8c0-.18-3.88-12.55-12.54-19.44a3.14,3.14,0,0,1,3.91-4.92C116.14,37.74,120.45,50.43,121.07,52.39Z"/><path class="cls-4" d="M128.08,74.49a1.71,1.71,0,0,0-.08-.23,3.14,3.14,0,1,0-6,2c.07.17,4.06,12.49,1,23.11a3.14,3.14,0,1,0,6,1.77C132.49,89.3,128.7,76.45,128.08,74.49Z"/><path class="cls-5" d="M112.37,49.09a50.25,50.25,0,0,1,2.92,17.81s6.43,9.58,7.61,16.46c4-.81,8.39-2.19,8.39-2.19a32.27,32.27,0,0,0-2.41-9.35c9.64-2.5,20.23-4.27,20.23-4.27l-6.79-23.42s-12.79,4.38-19.68,9a13.32,13.32,0,0,0-2-6.68A16.38,16.38,0,0,0,112.37,49.09Z"/><circle class="cls-4" cx="118.09" cy="66.24" r="3.37"/><path class="cls-4" d="M95.67,53.57c5.25-1.66,10.66-2.1,14.48.24s6.11,7.53,7.79,12.83c2,6.39,3.13,11.44.18,16.2-1.93,3.1-6.67,6.06-10.83,7.38-10.55,3.35-20.84-2-24.18-12.54S85.12,56.92,95.67,53.57Z"/><path class="cls-6" d="M108.17,80.18a1.56,1.56,0,0,1-.25,2.86,1.56,1.56,0,0,1-1.85-2.19"/><circle class="cls-7" cx="108.63" cy="86.21" r="0.91"/><circle class="cls-7" cx="102.72" cy="69.65" r="0.91"/><path class="cls-6" d="M111,71.94s2.1-.11,3,2.72-.88,3.94-.88,3.94"/><path class="cls-8" d="M91.28,72.32a33.47,33.47,0,0,1,8.77,7.56,19.61,19.61,0,0,0-6.51-4,64.68,64.68,0,0,1,12.81,14.67c-5.1,1.62-13.14.93-18.5-3.89s-8-13.78-6.37-19.06,3.41-11.36,14.76-15c9.82-3.11,15.53.47,18.64,6.54C107,57.81,99.12,61,99.12,61l-1.05.57s.48,3.19,4.48,2.55C96,66.49,91.28,72.32,91.28,72.32Z"/><path class="cls-4" d="M99.63,62.93a2.2,2.2,0,0,1-1.56-1.41,2.95,2.95,0,0,1,5.5-1.75,2.25,2.25,0,0,1-.55,2.17"/><path class="cls-4" d="M61.12,131.17l-.21-.14a3.14,3.14,0,0,1,3.48-5.23c.14.12,11,7.18,22.07,6.94a3.14,3.14,0,0,1,.13,6.28C74.27,139.28,62.85,132.28,61.12,131.17Z"/><path class="cls-4" d="M41.6,118.65l.21.13a3.14,3.14,0,0,0,3.31-5.34c-.16-.08-11.11-7-15.51-17.16a3.14,3.14,0,1,0-5.76,2.5C28.75,110.08,39.87,117.54,41.6,118.65Z"/><path class="cls-9" d="M69.92,128.15a50.28,50.28,0,0,1-13.63-11.84s-11.07-3.25-16.36-7.79c-2.6,3.21-5.06,7-5.06,7a31.87,31.87,0,0,0,7.83,5.65c-6,7.9-12.84,16.22-12.84,16.22L50.05,151.1s5-10.6,9.37-19.52a13.43,13.43,0,0,0,5.84,3.83A16.22,16.22,0,0,0,69.92,128.15Z"/><circle class="cls-4" cx="54.56" cy="118.61" r="3.37"/><path class="cls-4" d="M79.29,116.13l-.22-.1c.21-.3.41-.6.61-.91,6-9.32,3.57-20.59-5.75-26.57S53.29,85,47.31,94.36c-.2.32-.4.66-.6,1a1.73,1.73,0,0,0-.44-.41,3,3,0,0,0-3.11,4.86,2,2,0,0,0,1.48.25,16,16,0,0,0-.93,6.9c.76,5.55,4.84,8.73,10.49,12.35,4.68,3,9.72,5.54,14.19,4.89a13.34,13.34,0,0,0,7.14-3.91,1.89,1.89,0,0,0,.65.7,2.95,2.95,0,0,0,3.11-4.86Z"/><path class="cls-4" d="M60.93,107.67a1.53,1.53,0,0,1-1.17-.21,1.55,1.55,0,1,1,2.35-1.64"/><circle class="cls-7" cx="53.38" cy="99.69" r="0.91"/><circle class="cls-7" cx="71.49" cy="111.31" r="0.91"/><path class="cls-6" d="M53.3,108.53s1.42,5.84,10.48,6.72"/><line class="cls-6" x1="63.51" y1="113.99" x2="64.31" y2="116.68"/><line class="cls-6" x1="54.69" y1="107.49" x2="52.15" y2="108.39"/><path class="cls-10" d="M79.07,116a10.18,10.18,0,0,1-3.17,1.79,33.09,33.09,0,0,0,5-8.94l-3-.5-1.07-3.58-3.91-.1-.91-3.83-4.64,1.23-1.56-4.37-3.11,1.14-1.29-4.8L57.22,95.4,56,92l-2.62,1.45-1.83-2A58.13,58.13,0,0,0,46,100l.69-4.65s2.83-6.21,8.14-8a12.58,12.58,0,0,1,.74-4.91c3,0,4.14.56,6.65,1.74a7.06,7.06,0,0,1-.85-4.4C71.69,84.74,75.15,87,79,91.81s6.08,12.93,7,20.27A27.27,27.27,0,0,1,79.07,116Z"/><circle class="cls-11" cx="92.41" cy="125.43" r="1.96"/><circle class="cls-11" cx="117.96" cy="101.63" r="1.96"/><circle class="cls-11" cx="123.29" cy="101.94" r="1.96"/><circle class="cls-11" cx="129.02" cy="102.27" r="1.96"/><circle class="cls-11" cx="93.24" cy="130.92" r="1.96"/><circle class="cls-11" cx="93.18" cy="136.22" r="1.96"/><polygon class="cls-11" points="93.5 140.81 92.1 145.48 97.3 143.78 93.5 140.81"/><polygon class="cls-11" points="132.35 103.08 135.31 104.94 135.34 100.41 132.35 103.08"/><path class="cls-4" d="M115.46,115.54l-.18.16a3.14,3.14,0,1,1-4.1-4.75c.14-.11,9.87-8.67,12.63-19.38a3.14,3.14,0,1,1,6.08,1.56C126.82,105.06,117,114.17,115.46,115.54Z"/><path class="cls-4" d="M101.86,125.83c-1.51.87-1.5,2-1.16,4.29.44,3,2.83,5.62,3.4,7.55a61.73,61.73,0,0,1-10.62-5.33,8.16,8.16,0,0,1-1-.78,3.71,3.71,0,0,0-4.18-1c-.17.07-3.08-5.22-4.71-3.51s3.82,4,3.64,4.18a3.72,3.72,0,0,0,3,6.46c14.79,9.07,17.73,6.46,18.84,5.47,2.79-2.49,1.8-7.94-2.94-16.2A3.14,3.14,0,0,0,101.86,125.83Z"/><path class="cls-12" d="M115.43,104.92a21.52,21.52,0,0,1,6.71,5.55,22,22,0,0,1-4.69,4.86,148.26,148.26,0,0,1,15.26,14.47c-2,4.19-15,14.48-15,14.48a120.63,120.63,0,0,1-10.33-12.22,13.34,13.34,0,0,1-6.12,1.51c-2.27-5.53-2.42-13.1,1.4-16.8S112.16,109.05,115.43,104.92Z"/><path class="cls-6" d="M107.3,132a20.15,20.15,0,0,1-2.94-4.23"/><circle class="cls-4" cx="105.58" cy="115.42" r="3.37"/><path class="cls-4" d="M91.13,132.53a1,1,0,0,1-1.82.73,1,1,0,0,1,.08-1.48,1.07,1.07,0,0,1,.62-.26"/><path class="cls-13" d="M111.53,137.4s3.85,10.62,8.31,17.08c11.26-5.83,11-11.69,24.54-21.85-8.94-5.32-17.41-9.36-17.41-9.36Z"/><path class="cls-13" d="M117.74,136.73a2.36,2.36,0,0,1-3.17,0l-15-13.94c-1-.89,1.9-4.69,2.85-3.81l15.4,14.3a2.36,2.36,0,0,1,.12,3.33Z"/><path class="cls-13" d="M125.56,129.76a.52.52,0,0,1-.11.1,2.37,2.37,0,0,1-3.31-.4L108,111.39a2.35,2.35,0,0,1,3.7-2.91l14.2,18.07A2.36,2.36,0,0,1,125.56,129.76Z"/><path class="cls-4" d="M109.87,90.77c-.06,0-.1.12-.16.18-.23-.28-.46-.55-.71-.82-7.36-8.27-18.86-9-27.13-1.63s-8.94,18.93-1.58,27.2c.25.28.52.56.8.84a1.82,1.82,0,0,0-.51.32,3,3,0,0,0,3.83,4.31,2,2,0,0,0,.65-1.36,16.31,16.31,0,0,0,6.39,2.76c5.55.75,9.71-2.32,14.72-6.78,4.15-3.7,8-7.87,8.53-12.35a13.25,13.25,0,0,0-1.83-7.92,2.06,2.06,0,0,0,.84-.44,2.95,2.95,0,0,0-3.84-4.31Z"/><path class="cls-4" d="M96.78,106.17a1.52,1.52,0,0,1-.52,1.07,1.55,1.55,0,1,1-2.06-2.31,1.52,1.52,0,0,1,1.11-.39"/><circle class="cls-7" cx="87.06" cy="111.29" r="0.91"/><circle class="cls-7" cx="103.13" cy="96.98" r="0.91"/><circle class="cls-14" cx="100.82" cy="111.33" r="2.2"/><path class="cls-11" d="M79.74,111.43c12.61-9.61,25.82-23,25.82-23l8.73,10.49c.19-3.32-4.53-12-12.1-15-6.82-2.72-16.26-.13-21,4.12-4.41,3.92-7.42,10.6-6.3,16.86,1.43,8.05,8.53,15.59,15.88,17.59Z"/><path class="cls-4" d="M25.56,75.54c0-.12.06-.2.07-.24a3.14,3.14,0,0,1,6,1.92c-.07.17-3.89,12.54-.65,23.12a3.14,3.14,0,1,1-6,1.84C21.35,90.41,25,77.51,25.56,75.54Z"/><path class="cls-4" d="M32.28,53.35c0,.12-.06.2-.07.24a3.14,3.14,0,0,0,6,1.72c0-.18,3.71-12.6,12.28-19.61a3.14,3.14,0,0,0-4-4.86C37,38.64,32.87,51.38,32.28,53.35Z"/><path class="cls-15" d="M30.87,83.18a50.13,50.13,0,0,1,7.67-16.34s.11-11.53,3-17.87C37.77,47.35,33.41,46,33.41,46a32,32,0,0,0-3.3,9.07C20.88,51.51,3.36,43.86,3.36,43.86L-4.49,69.14S14.92,72.24,24.7,74a13.46,13.46,0,0,0-2.09,6.67A16.26,16.26,0,0,0,30.87,83.18Z"/><circle class="cls-4" cx="35.85" cy="65.8" r="3.37"/><polygon class="cls-15" points="32.62 64.83 30.83 61.81 39.39 56.98 38.87 61.16 32.62 64.83"/><polygon class="cls-15" points="32.62 64.83 29.46 66.35 34.21 74.13 35.91 70.92 32.62 64.83"/><path class="cls-4" d="M45.49,89.94a2,2,0,0,0,0-.24c.34.12.69.23,1,.33,10.6,3.21,20.79-2.18,24-12.78s-2.26-20.81-12.86-24c-.36-.11-.74-.21-1.12-.3a1.85,1.85,0,0,0,.28-.54,3,3,0,0,0-5.53-1.67,2,2,0,0,0,.16,1.49,16.31,16.31,0,0,0-6.89,1c-5.13,2.25-7.07,7-9,13.46-1.61,5.33-2.67,10.87-.82,15a13.21,13.21,0,0,0,5.7,5.8,1.86,1.86,0,0,0-.49.82,2.65,2.65,0,0,0,2.08,3.08A2.66,2.66,0,0,0,45.49,89.94Z"/><path class="cls-4" d="M48.61,70a1.56,1.56,0,1,1,2.11.63"/><circle class="cls-7" cx="54.24" cy="60.52" r="0.91"/><circle class="cls-7" cx="48" cy="81.12" r="0.91"/><path class="cls-14" d="M45.29,61.52a43.41,43.41,0,0,0-4.2,13.86,9.21,9.21,0,0,1-1.66-8.53A7.35,7.35,0,0,1,45.29,61.52Z"/><path class="cls-10" d="M45.53,89.7a5.88,5.88,0,0,1-3.44-2.52l8.47,2.06,9.86-32.56a48.74,48.74,0,0,0-7.27-3.26l3.43-.49s8,1.51,11.93,6.73,3.73,13.89,2.57,17.72c-1.28,4.21-5.62,10.81-11.87,13C54,92.22,46.67,90.05,45.53,89.7Z"/><path class="cls-16" d="M95.92,44.94s0-8.51,1.3-14.19a173.23,173.23,0,0,0-40.9,0c1.92,4.85,1.52,14.19,1.52,14.19Z"/><path class="cls-4" d="M69.26,24.31h.24a3.14,3.14,0,0,1-.1,6.28c-.18,0-13.13-.1-22.32,6.07a3.14,3.14,0,0,1-3.5-5.21C53.81,24.58,67.2,24.31,69.26,24.31Z"/><path class="cls-4" d="M84.61,26.46c1.66.47,2.83-1.39,4-2.66a29.81,29.81,0,0,1,3-4.25,3.28,3.28,0,0,1,4.08-.36c1,.57,3.94,2.38,5.72,8.13l.1.27c-.51.25-1,.57-1.2.65-.82.27-1.62.39-1.62,1.26a1.57,1.57,0,0,0,1.57,1.57,6.67,6.67,0,0,0,2.79-1.23c2.76,3.3,5.49,3.85,5.92,3.91a3.14,3.14,0,1,0,.83-6.22,8.57,8.57,0,0,1-4.69-1.9c-1.88-5.82-3.11-10.15-6.41-11.95a10.57,10.57,0,0,0-5.08-1.27,7.45,7.45,0,0,0-5.5,2.13,27.53,27.53,0,0,0-5.31,8.05C82.34,24.26,82.94,26,84.61,26.46Z"/><path class="cls-17" d="M62.22,32.26a21.31,21.31,0,0,1-1.32-8.61,22,22,0,0,1,6.73-.5,148.6,148.6,0,0,1-1.77-21c4.25-1.83,20.86-.81,20.86-.81a120.92,120.92,0,0,1-.41,16,13.25,13.25,0,0,1,5.57,2.94C89.9,26,85,31.71,79.66,31.93S67.4,31.35,62.22,32.26Z"/><path class="cls-6" d="M86.31,17.37a20.23,20.23,0,0,1-.6,5.12"/><circle class="cls-4" cx="76.29" cy="30.97" r="3.37"/><path class="cls-4" d="M57,47.19l.24,0c0,.36,0,.73,0,1.09,0,11.07,8.11,19.26,19.18,19.26s19.27-8.19,19.27-19.26c0-.38,0-.77,0-1.16a2,2,0,0,0,.6.1,2.64,2.64,0,0,0,2.31-2.88,2.64,2.64,0,0,0-2.31-2.89,2,2,0,0,0-1.39.59,16.08,16.08,0,0,0-2.94-6.31C88.28,31.44,83.13,31,76.42,31c-5.56,0-11.17.59-14.58,3.55a13.3,13.3,0,0,0-3.9,7.14,1.94,1.94,0,0,0-.92-.24,2.66,2.66,0,0,0-2.35,2.89A2.65,2.65,0,0,0,57,47.19Z"/><path class="cls-4" d="M77,44.4a1.54,1.54,0,1,1,0,2.2"/><circle class="cls-7" cx="87.7" cy="47.04" r="0.91"/><circle class="cls-7" cx="66.19" cy="47.04" r="0.91"/><path class="cls-14" d="M81,38.76H74s.44-4.06,3.4-4.06S81,38.76,81,38.76Z"/><path class="cls-16" d="M86.79,59.5c.91-2.23,3.45-8.4,8.86-12.41,1.47,8.25-3,20.08-17.28,21S55.91,57.66,56.72,47.82C69.18,49.87,77.45,52.21,86.79,59.5Z"/></g></svg>