<svg id="レイヤー_1" data-name="レイヤー 1" xmlns="http://www.w3.org/2000/svg" xmlns:xlink="http://www.w3.org/1999/xlink" viewBox="0 0 218 218"><defs><style>.cls-1,.cls-10,.cls-8{fill:none;}.cls-2{clip-path:url(#clip-path);}.cls-3{fill:#00a0e9;}.cls-14,.cls-3,.cls-7,.cls-9{stroke:#42210b;}.cls-10,.cls-11,.cls-13,.cls-14,.cls-3,.cls-5,.cls-6,.cls-7,.cls-8,.cls-9{stroke-linecap:round;stroke-linejoin:round;stroke-width:2px;}.cls-4{clip-path:url(#clip-path-2);}.cls-5{fill:#f5dcbe;}.cls-10,.cls-11,.cls-13,.cls-5,.cls-6{stroke:#40220f;}.cls-6{fill:#7a6a56;}.cls-7{fill:#42210b;}.cls-8{stroke:#fff;}.cls-9{fill:#2c3493;}.cls-11{fill:#fff;}.cls-12{fill:#40220f;}.cls-13{fill:#333;}.cls-14{fill:#999;}</style><clipPath id="clip-path"><rect id="SVGID" class="cls-1" x="9" y="-242.08" width="200" height="200" rx="10"/></clipPath><clipPath id="clip-path-2"><rect id="SVGID-2" data-name="SVGID" class="cls-1" x="9" y="9" width="200" height="200" rx="10"/></clipPath></defs><title>2-3-3 跳び下りる</title><g class="cls-2"><path class="cls-3" d="M25.8,88.36a5.5,5.5,0,0,1-5.5-5.5l-.14-228.33a5.51,5.51,0,0,1,5.5-5.51h0a5.5,5.5,0,0,1,5.5,5.5L31.3,82.85a5.51,5.51,0,0,1-5.5,5.51Z"/><path class="cls-3" d="M163.29,120.59a5.5,5.5,0,0,1-5.5-5.5l-.14-228.33a5.51,5.51,0,0,1,5.5-5.51h0a5.5,5.5,0,0,1,5.5,5.5l.14,228.33a5.51,5.51,0,0,1-5.5,5.51Z"/></g><g class="cls-4"><path class="cls-5" d="M72.74,110.8a4,4,0,0,1-1-.12,4.08,4.08,0,0,1-3-4.91c.25-1,6.39-25.33,38.3-34.62A4.09,4.09,0,0,1,109.35,79c-27.16,7.9-32.42,27.83-32.63,28.68A4.12,4.12,0,0,1,72.74,110.8Z"/><path class="cls-6" d="M141.06,136.31c-.54,5.4-15.55,5.88-19.36,0-1.5,6.49-17.69,1-15-4.09a53.08,53.08,0,0,1,5.6-7.5l30.26,3.82S141.67,130.29,141.06,136.31Z"/><path class="cls-5" d="M138.57,133.35a4.09,4.09,0,0,0-8.18,0v18.17l8.18.26Z"/><path class="cls-5" d="M118.36,133.24a4.09,4.09,0,1,0-7-4.15c-5.19,8.8-5.75,16.48-4.11,22.7l7.68-3.12C114.11,144.58,114.71,139.45,118.36,133.24Z"/><path class="cls-7" d="M136.25,168.53a9.85,9.85,0,0,0-7.5,4.23c-1.64,2.59-1.64,4.09-1,5.59a4.13,4.13,0,0,0-.36,6.63c2.95,2.09,9.76,2.91,12.76.73s1.58-5.59,1.23-8.86c.52-2,.75-4.35-.68-5.85S138.64,168.53,136.25,168.53Z"/><path class="cls-7" d="M112.66,180.26c3.74,2.18,6,1.36,8.59,0a8.69,8.69,0,0,0,4.35-5.87c2.2-2.73,3.15-3.82,4-5.86s-1.54-6.14-3.63-6.82-3.87-1.23-6,0-2.74,4.06-3.49,6.82c-2.51.68-5,1-6.6,3.14S108.92,178.07,112.66,180.26Z"/><path class="cls-8" d="M112.66,171.29s5.44-2.76,7.64,2.42"/><path class="cls-9" d="M148.83,114.22c-.29,9.31-2.18,16.23-7.77,22.09-1.36-7-17.74-7-19.36,0-1.5-7-6.76-8.59-15-4.09,7.43-8.69,10-21.42,10-21.42S143.65,110.13,148.83,114.22Z"/><path class="cls-10" d="M121.7,136.31a103.19,103.19,0,0,0,3.54-12.78"/><path class="cls-11" d="M118.29,72.35c19.77-3.95,34.63,20.87,30.3,45.81-10.26,2.47-24.11,2.33-34.46-3.26C123.32,99.35,110.38,73.94,118.29,72.35Z"/><path class="cls-5" d="M142.3,55.85c0,16.57-13.43,27.41-30,27.41-6.15,0-13.09-.82-17.33-3.54-7.18-4.62-9.68-13.45-9.68-23.87,0-16.56,10.44-30,27-30A30,30,0,0,1,142.3,55.85Z"/><path class="cls-5" d="M135.23,95.81C132.92,103.31,126,121,110.41,131a4.13,4.13,0,0,1-2.2.64,4.09,4.09,0,0,1-2.21-7.53c13.31-8.52,19.41-24.36,21.41-30.78"/><path class="cls-5" d="M103.62,77.85a2.56,2.56,0,0,1-2,.91,2.59,2.59,0,1,1,1.74-4.51"/><circle class="cls-12" cx="118.56" cy="75.08" r="1.09"/><circle class="cls-12" cx="94.83" cy="72.08" r="1.09"/><path class="cls-13" d="M130.15,59c-.68,6.68-.68,17.18-.68,17.18l-5-11L121.7,71l-7.91-4.36L125.24,55s15.49-13.29,16.57-4.56.75,19.15-7.95,25C133.63,69.08,134,63.85,130.15,59Z"/><path class="cls-5" d="M131,63.22a2.81,2.81,0,0,1,2.32-1.38c1.69,0,3,1.77,3,4s-1.36,4-3,4a2.73,2.73,0,0,1-2.11-1.1"/><path class="cls-11" d="M133,59.93c-7.77,7.79-17.67,10.77-28.47,12s-27.16-4-31.12-10.1,5.49-9.41,10.45-9.41C90.47,59.4,122.19,58.13,133,59.93Z"/><path class="cls-11" d="M141.81,50.48c-4.7,8.1-10.3,11.37-19.16,13.28s-30.41-1.42-38.86-6.64c-.68-16.4,8.81-29.63,22.61-31.95,6.74-1.13,16.78.24,23.75,4.64A25.21,25.21,0,0,1,141.81,50.48Z"/><path class="cls-11" d="M134.48,176.85a4.09,4.09,0,0,0,4.09-4.09v-21l-8.18-.26v21.24A4.09,4.09,0,0,0,134.48,176.85Z"/><path class="cls-11" d="M138.67,87.36s.53,7.49-1.56,12.61c-3.48,1.63-9.34.57-13.79-2,1.92-4.26,1.92-10.56,1.92-10.56"/><path class="cls-8" d="M137.2,178.89s-2.45-2.18-5.86,0"/><path class="cls-11" d="M119.37,169.42a4.06,4.06,0,0,0,2.13.61,4.09,4.09,0,0,0,2.18-7.56c-1-.62-7.39-6.59-8.79-13.8l-7.68,3.12C109.22,159.38,115.19,166.84,119.37,169.42Z"/><path class="cls-14" d="M126.22,103.56-9.29,69.27a2.76,2.76,0,0,1-2-3.35,2.77,2.77,0,0,1,3.36-2L126.22,97.86Z"/><path class="cls-3" d="M126.29,326.67a5.5,5.5,0,0,1-5.5-5.5l-.14-228.33a5.5,5.5,0,0,1,5.5-5.5h0a5.5,5.5,0,0,1,5.5,5.49l.14,228.34a5.5,5.5,0,0,1-5.5,5.5Z"/><path class="cls-10" d="M152.5,174s12-12,30-14.66"/><path class="cls-10" d="M185.83,164c9.42,13.71,20.17-2,7.34-5.33,12,2.54,11.54-14.26-1.24-8.67,2.92-3.13,5.69-9.41,1.07-12.41-3.22-2.09-10-3.63-13,7.5"/><path class="cls-10" d="M13.5,17S49.5,3.62,70,32.62"/><path class="cls-10" d="M15,25.88S47.87,13.19,68.37,42.19"/><path class="cls-10" d="M15.89,35S45.58,22,66.08,51"/></g></svg>