<svg id="レイヤー_1" data-name="レイヤー 1" xmlns="http://www.w3.org/2000/svg" viewBox="0 0 218 218"><defs><style>.cls-1{fill:#fff;stroke:#40220f;}.cls-1,.cls-2,.cls-3,.cls-4,.cls-6,.cls-7,.cls-8,.cls-9{stroke-linecap:round;stroke-linejoin:round;stroke-width:2px;}.cls-2{fill:#40210d;}.cls-2,.cls-8{stroke:#40210d;}.cls-3{fill:#f5dcbe;}.cls-3,.cls-4,.cls-6,.cls-7,.cls-9{stroke:#42210b;}.cls-4{fill:#2c3493;}.cls-5{fill:#42210b;}.cls-6{fill:#603813;}.cls-7,.cls-8{fill:none;}.cls-9{fill:#ffe200;}</style></defs><title>11-2-1 小型ハードル走</title><path class="cls-1" d="M149.46,167.2a5,5,0,1,0,9-4.38,58.54,58.54,0,0,0-12.51-17.4l-7.29,6.94A48,48,0,0,1,149.46,167.2Z"/><path class="cls-1" d="M66.45,172.54a5,5,0,0,0,.11,10h.08c6.29-.09,17-3.71,24.88-14.87l-8.4-5.36C76.07,172,67.05,172.52,66.45,172.54Z"/><path class="cls-2" d="M67.92,172.82s-4.54-2.2-8.13-1c-.77,8.39,3.94,18.72,5.29,21.83,3.42-.32,7-2.44,7.15-7,.08-3.5-4.15-5-4.15-5S64.5,176.68,67.92,172.82Z"/><path class="cls-2" d="M150.17,168s-.73,5,1.47,8.08c8.22-1.74,16.66-9.28,19.23-11.49-1.33-3.18-4.45-6-8.79-4.79-3.36,1-3.55,5.45-3.55,5.45S154.88,170.11,150.17,168Z"/><path class="cls-3" d="M61.53,109a4.71,4.71,0,0,1-.53,0,5,5,0,0,1-4.45-5.43c.84-8.52,8.62-24.15,32.08-22.31a5,5,0,0,1-.78,10c-19.06-1.48-21.17,11.83-21.35,13.36A5,5,0,0,1,61.53,109Z"/><path class="cls-3" d="M115.43,133.12a5,5,0,0,0,.72,10c.15,0,11.58-.66,22.5,9.26l7.29-6.94C131.83,132.17,116.28,133.06,115.43,133.12Z"/><path class="cls-3" d="M96.08,140.16a5,5,0,0,0-5.81,4c-1.48,8.17-4.14,14-7.15,18.12l8.4,5.36c3.78-5.35,6.91-12.43,8.59-21.7A5,5,0,0,0,96.08,140.16Z"/><path class="cls-1" d="M75.28,80.94c1.66,8.77,2.76,11.72,3.28,14.12,6.45-2.6,18.58-2.6,18.58-2.6l3.94-12.68S86.57,78.1,75.28,80.94Z"/><path class="cls-4" d="M88.18,122c-3.24,8.62-4.31,15.9-5.06,26.84a55,55,0,0,0,19.26,3.54,8.55,8.55,0,0,1,6.72-6.94c3.53-.73,7.65,2,10.69,3.66,6.06-4.34,12.19-8.26,15.29-14.45a56.43,56.43,0,0,0-17.29-8l-2-4.65S93.24,121.46,88.18,122Z"/><path class="cls-1" d="M85,125.85c11.87,4.91,23.88,4.1,34.78,0,0-14.43-6.51-60.13-17.39-58.84S85,110.88,85,125.85Z"/><path class="cls-3" d="M127.2,112.54a25,25,0,0,1-3.23-.21c-12-1.56-19.35-11.51-19.65-11.93-1.62-2.24,6.46-8.11,8.08-5.89.12.16,5.27,7,12.93,7.92,4.77.59,9.76-1.21,14.84-5.35a5,5,0,1,1,6.33,7.74C140.21,110,133.73,112.54,127.2,112.54Z"/><polyline class="cls-1" points="109.1 85.59 119.8 96.95 109.1 108.05 101.08 99.79"/><path class="cls-3" d="M135,55.29a2.84,2.84,0,0,0-.93.17c0-.77.06-1.54.06-2.3a30.45,30.45,0,0,0-30.47-30.42C86.85,22.75,75,36.39,75,53.21S86.9,81.73,103.71,81.72c8.94,0,17.92-1,23.49-6.63,3.44-3.49,5.47-9,6.38-14.72a2.72,2.72,0,0,0,1.44.41,2.75,2.75,0,0,0,0-5.49Z"/><circle class="cls-5" cx="117.79" cy="58.05" r="2"/><path class="cls-6" d="M98.57,57.19c3.38-7.66,14-22,28.66-23.42L125,30.37l-.55-2.89s-8.69-8.58-24.45-6.3A31.71,31.71,0,0,0,72.55,52.86c0,16.32,9.1,25.56,23.87,28.08C95.2,69.16,95.19,64.85,98.57,57.19Z"/><path class="cls-7" d="M119.8,72s2.35,2.08,7,1"/><path class="cls-3" d="M101.87,62.17a3.57,3.57,0,0,1-2.54,1.11c-2.29,0-4.14-2.33-4.14-5.21s1.85-5.23,4.13-5.23A3.62,3.62,0,0,1,102,54"/><path class="cls-1" d="M70.56,50.87c13.42,3.54,48.78.48,64.52-5.28C131.72,25,117.83,18.11,95.19,20.79S69.94,47.92,70.56,50.87Z"/><path class="cls-8" d="M135.08,45.59s14.19-2.32,16.51-14.45"/><path class="cls-9" d="M115.46,197.76a86.88,86.88,0,0,1-9-.52,3.57,3.57,0,0,1,.74-7.11c7.32.77,15.27.42,17.23-.72,1.07-6-11.92-11.29-15.54-12.41a3.57,3.57,0,0,1,2.1-6.83c2.49.77,24.14,7.88,20.21,21.61C129.85,196.41,123,197.76,115.46,197.76Z"/></svg>