<svg id="レイヤー_1" data-name="レイヤー 1" xmlns="http://www.w3.org/2000/svg" xmlns:xlink="http://www.w3.org/1999/xlink" viewBox="0 0 218 218"><defs><style>.cls-1,.cls-3{fill:none;}.cls-2{clip-path:url(#clip-path);}.cls-3,.cls-4,.cls-6,.cls-7{stroke:#40220f;}.cls-3,.cls-4,.cls-5,.cls-6,.cls-7,.cls-9{stroke-linecap:round;stroke-linejoin:round;stroke-width:2px;}.cls-4{fill:#ffe800;}.cls-5{fill:#2c3493;}.cls-5,.cls-9{stroke:#42210b;}.cls-6{fill:#f5dcbe;}.cls-7{fill:#534741;}.cls-8{fill:#40220f;}.cls-9{fill:#fffef0;}.cls-10{fill:url(#名称未設定グラデーション_63);}</style><clipPath id="clip-path"><rect id="SVGID" class="cls-1" x="9" y="9" width="200" height="200" rx="10"/></clipPath><linearGradient id="名称未設定グラデーション_63" x1="108.7" y1="228.07" x2="108.7" y2="49.97" gradientUnits="userSpaceOnUse"><stop offset="0" stop-color="#84c8f0"/><stop offset="0.14" stop-color="#82c7f0" stop-opacity="0.98"/><stop offset="0.29" stop-color="#7cc4f1" stop-opacity="0.92"/><stop offset="0.46" stop-color="#72c0f1" stop-opacity="0.82"/><stop offset="0.64" stop-color="#65baf2" stop-opacity="0.69"/><stop offset="0.82" stop-color="#54b2f4" stop-opacity="0.51"/><stop offset="1" stop-color="#3fa9f5" stop-opacity="0.3"/></linearGradient></defs><title>12-1-1 けのび</title><g class="cls-2"><line class="cls-3" x1="53.1" y1="118.37" x2="53.1" y2="113.3"/><path class="cls-4" d="M177,96.38a29.81,29.81,0,0,0-6.32-19.2c-4.93-5.94-12.34-9-20.67-9.17a24.58,24.58,0,0,0-2.86.08l4.49,53.05c6.27-.5,12.56-2.29,17-5.84C174.11,111,176.78,103.89,177,96.38Z"/><path class="cls-5" d="M133.88,85.59c-10.88,0-22.58,1.89-35.35-.56-7.42-1.42-9.72-2.63-14.13-2.29-12,.91-18.9,8.36-18.9,17.51s7.59,16,21.19,15.58S132.45,110.12,133.88,85.59Z"/><path class="cls-6" d="M149,89.71l-24.25.68a33.75,33.75,0,0,0-.44,4.67c-.36,14.25,6.06,24.39,19.32,26a2.64,2.64,0,0,0-.91,2,2.67,2.67,0,1,0,4.65-1.78c1.41,0,2.85,0,4.29-.14Z"/><path class="cls-7" d="M147.12,68.09c-8.88.71-19,7.56-23.68,13.23,0,0,3.08,2.37,2.64,3.59-.16.46-3.88,2.07-3.88,2.07s2.57,3,2.5,3.41L149,89.71Z"/><path class="cls-6" d="M122,95.25a4.56,4.56,0,0,1-.2-9.12l55.11-2.47c2.5-.1,10.52,1,10.63,3.49S178.42,90.93,175.9,91l-53.67,4.21Z"/><circle class="cls-8" cx="145.34" cy="104.82" r="1.78"/><path class="cls-6" d="M83.69,104.82a7.6,7.6,0,1,0-13.21,5.1c-1.15,5-2.68,9.4-3.91,11.15-2.42-1.9-6.88-8.91-10-15.9A4.55,4.55,0,0,0,50.23,103C43.35,106.73,43.83,117,44,119a4.57,4.57,0,0,0,9.11-.6c3.78,6.33,8.68,12.21,13.81,12.21,6.43,0,9.49-7.93,11.23-13.89C78.65,114.94,83.69,107.82,83.69,104.82Z"/><rect class="cls-9" x="-33.1" y="-12.31" width="77.02" height="243.8"/><path class="cls-10" d="M-20.63,79.8S18.26,57,47.53,57,86.71,77.53,112,77.53,141.7,50,166.37,50s31,18.76,50.66,18.76,21-3.85,21-3.85l-1.66,163.19L-3.3,225.37Z"/></g></svg>