<svg id="レイヤー_1" data-name="レイヤー 1" xmlns="http://www.w3.org/2000/svg" xmlns:xlink="http://www.w3.org/1999/xlink" viewBox="0 0 218 218"><defs><style>.cls-1,.cls-14,.cls-8{fill:none;}.cls-2{clip-path:url(#clip-path);}.cls-3{clip-path:url(#clip-path-2);}.cls-4{fill:#9b7656;}.cls-5{clip-path:url(#clip-path-3);}.cls-6{fill:#ed811b;stroke-miterlimit:10;}.cls-11,.cls-14,.cls-16,.cls-6{stroke:#40220f;}.cls-10,.cls-11,.cls-12,.cls-13,.cls-14,.cls-16,.cls-17,.cls-6,.cls-8,.cls-9{stroke-width:2px;}.cls-7{clip-path:url(#clip-path-4);}.cls-10,.cls-12,.cls-13,.cls-17,.cls-8,.cls-9{stroke:#42210b;}.cls-10,.cls-11,.cls-12,.cls-13,.cls-14,.cls-16,.cls-17,.cls-8,.cls-9{stroke-linecap:round;stroke-linejoin:round;}.cls-9{fill:#00a0e9;}.cls-10{fill:#42210b;}.cls-11{fill:#f5dcbe;}.cls-12{fill:#fff;}.cls-13{fill:#2c3493;}.cls-15{fill:#40220f;}.cls-16{fill:#333;}.cls-17{fill:#999;}</style><clipPath id="clip-path"><rect id="SVGID" class="cls-1" x="-231" y="-469" width="200" height="200" rx="10"/></clipPath><clipPath id="clip-path-2"><rect id="SVGID-2" data-name="SVGID" class="cls-1" x="-532.76" y="-537" width="568.77" height="326.6"/></clipPath><clipPath id="clip-path-3"><rect id="SVGID-3" data-name="SVGID" class="cls-1" x="11.39" y="-230" width="200" height="200" rx="10"/></clipPath><clipPath id="clip-path-4"><rect id="SVGID-4" data-name="SVGID" class="cls-1" x="9" y="8.4" width="200" height="200" rx="10"/></clipPath></defs><title>2-3-2 跳びあがる</title><g class="cls-2"><g class="cls-3"><path class="cls-4" d="M-81.39-325l-.5-1.12-1.65.75L-276-358.27l-.27-.05-380.4,66-2.12.37L-495.46,55.32l.85,1.81L2.12-310.68ZM-198-341.61l47,8-455,145.94-21.51-45.75,429.64-107.83ZM-629-236.4-642.95-266-241.2-349l36.14,6.18Zm484.92-96,55.2,9.44L-568-106.72l-36.64-77.92ZM-276.25-355l26.18,4.48L-644.39-269.1-654-289.46ZM-566.63-103.75-83.1-321.94-6-308.74-493.34,52.11Z"/></g></g><g class="cls-5"><line class="cls-6" x1="102.63" y1="-257.97" x2="106.3" y2="28.37"/><path class="cls-6" d="M106.3,33.37a5,5,0,0,1-5-4.94L97.63-257.9a5,5,0,0,1,4.94-5.07h.06a5,5,0,0,1,5,4.94L111.3,28.3a5,5,0,0,1-4.94,5.07Z"/></g><g class="cls-7"><path class="cls-8" d="M128,95s58,18.38,62.5,95.72"/><path class="cls-8" d="M123.84,108.4S175,124.62,179,192.87"/><path class="cls-9" d="M25.8,338.84a5.49,5.49,0,0,1-5.5-5.49L20.16,105a5.5,5.5,0,0,1,5.5-5.5h0a5.5,5.5,0,0,1,5.5,5.5l.14,228.33a5.5,5.5,0,0,1-5.5,5.5Z"/><path class="cls-10" d="M118,174.46c-3-1.39-5.11,1.4-5.11,1.4s-1.59,7.33-2.32,11.21-.07,7.1,4,7.48,5.35-2.58,5.75-6.67-2-6.11-2.25-7.69S119.27,177.27,118,174.46Z"/><path class="cls-10" d="M109.6,174.6c-3-1.39-5.12,1.4-5.12,1.4s-1.58,7.33-2.31,11.21-.07,7.1,4,7.48,5.35-2.59,5.75-6.68-2-6.1-2.25-7.68S110.87,177.41,109.6,174.6Z"/><path class="cls-11" d="M104.56,160.23a.75.75,0,0,1,.13-.06c-3.59-12.28-5.64-21.64-5.67-21.77a3.55,3.55,0,1,0-6.93,1.51c0,.13,2.07,9.46,5.65,21.77A8.49,8.49,0,0,0,104.56,160.23Z"/><path class="cls-12" d="M106.2,180.16a3.67,3.67,0,0,0,1.17-.19,3.54,3.54,0,0,0,2.18-4.52c-1.83-5.28-3.46-10.5-4.86-15.28a.75.75,0,0,0-.13.06,8.49,8.49,0,0,1-6.82,1.45c1.46,5,3.17,10.52,5.11,16.1A3.54,3.54,0,0,0,106.2,180.16Z"/><path class="cls-11" d="M111.61,160.23h0c-3.6-12.31-5.66-21.7-5.68-21.83A3.55,3.55,0,0,0,99,139.91c0,.13,2.07,9.43,5.64,21.72C104.63,161.63,107.76,162.76,111.61,160.23Z"/><path class="cls-12" d="M109.75,177.78a3.54,3.54,0,0,0,3.35,2.38,3.67,3.67,0,0,0,1.17-.19,3.56,3.56,0,0,0,2.19-4.52c-1.83-5.26-3.46-10.46-4.85-15.22h0c-3.85,2.53-7,1.4-7,1.4v0l2.42,8C107.9,172.31,108.8,175,109.75,177.78Z"/><path class="cls-11" d="M74.07,123H74a3.54,3.54,0,0,1-3.49-3.6c.41-25.07,8.78-40.1,9.14-40.73a3.54,3.54,0,1,1,6.17,3.49h0c-.07.14-7.84,14.22-8.21,37.35A3.55,3.55,0,0,1,74.07,123Z"/><path class="cls-13" d="M86.29,139.42c7.29,6.84,19,5.4,27.62.93a29.31,29.31,0,0,1,0-17.36l-31-1.12A61.46,61.46,0,0,0,86.29,139.42Z"/><path class="cls-12" d="M81.3,121.87c6.31,6.25,24,5.2,32.61,1.12-7.9-29.57-9.66-53.26-19.65-53.75-13.41-.66-15.66,7-19.4,15.61,2.08,2.66,5.2,3.58,8,4.22C81.61,105.55,82.09,117.72,81.3,121.87Z"/><path class="cls-11" d="M109.36,130.48a3.31,3.31,0,0,1-.62,0,3.55,3.55,0,0,1-2.88-4.11c3.32-18.81-3.19-41.13-3.26-41.35a3.55,3.55,0,0,1,6.81-2c.29,1,7,24.16,3.44,44.6A3.54,3.54,0,0,1,109.36,130.48Z"/><path class="cls-12" d="M100.49,83.69l2,7.89s7.13-.53,11.45-2.89c-1-5.72-4.58-17-15.54-19"/><path class="cls-14" d="M98.4,144.11a74.61,74.61,0,0,1-1.87-8.5"/><path class="cls-11" d="M122.26,45.07a28.91,28.91,0,1,0-57.82-1c-.13,7.52,1.2,13.6,5.73,18s12.24,7.19,20,7.73c-.1.37,0,.74-.11,1.13-.69,3.78.48,7.16,2.61,7.55s4.44-2.35,5.13-6.12a12.24,12.24,0,0,0,.58-2.67C111.83,68,122,59.16,122.26,45.07Z"/><path class="cls-14" d="M78.41,58.2a9.69,9.69,0,0,0,9.72,0"/><path class="cls-11" d="M78.85,48.89a2.42,2.42,0,0,1-1.5.5A2.5,2.5,0,1,1,79,45"/><circle class="cls-15" cx="69.99" cy="44.4" r="1.12"/><circle class="cls-15" cx="96.21" cy="44.4" r="1.12"/><path class="cls-16" d="M66.84,33l2,6.25L78.41,33l3.94,7.7,8.15-6.57,5.71,6.57,3.23-5.26v16.3l5.65-10.12s2.63,15.72-5.39,28.23c11.66-2,18.54-8.43,21-16.34,1.86-6,.69-13-.1-18.68C111.75,26.5,71.11,17.59,66.84,33Z"/><path class="cls-12" d="M66.84,33s41.28,5.06,55.27,14.46c1.28-6.25.93-14-2.83-20.17s-11-10.83-17.74-12.75c-5.12-1.45-15.37-1.08-21.16,2.37C71,22.53,66.84,33,66.84,33Z"/><path class="cls-14" d="M66.84,33A22.27,22.27,0,0,1,50,27.57"/><path class="cls-12" d="M82.88,89.07a33.09,33.09,0,0,1,1.24-6.89"/><path class="cls-11" d="M102.57,52.78a3.11,3.11,0,0,0,2,1.36c2,.39,4-1.43,4.54-4s-.72-5.07-2.72-5.45a3.25,3.25,0,0,0-2.67.76"/><path class="cls-11" d="M104.63,161.63v0Z"/><path class="cls-17" d="M163.22,148,27.71,113.68a2.76,2.76,0,0,1,1.36-5.36l134.15,34Z"/><path class="cls-11" d="M111.62,130.64c-.64,2.51-3,3.34-5.54,2.7s-4.2-2.52-3.56-5,3-3.42,5.56-2.78S112.27,128.13,111.62,130.64Z"/><path class="cls-11" d="M76.8,121.37c-.64,2.52-3,3.35-5.54,2.7s-4.2-2.51-3.56-5,3-3.41,5.56-2.77S77.45,118.86,76.8,121.37Z"/><path class="cls-9" d="M163.29,371.07a5.49,5.49,0,0,1-5.5-5.49l-.14-228.34a5.5,5.5,0,0,1,5.5-5.5h0a5.5,5.5,0,0,1,5.5,5.5l.14,228.33a5.5,5.5,0,0,1-5.5,5.5Z"/></g></svg>