<svg id="レイヤー_1" data-name="レイヤー 1" xmlns="http://www.w3.org/2000/svg" xmlns:xlink="http://www.w3.org/1999/xlink" viewBox="0 0 218 218"><defs><style>.cls-1,.cls-37,.cls-43{fill:none;}.cls-2{fill:#f5dcbe;}.cls-2,.cls-3,.cls-36,.cls-37,.cls-38,.cls-39,.cls-40,.cls-41{stroke:#42210b;stroke-width:2px;}.cls-2,.cls-3,.cls-36,.cls-37,.cls-38,.cls-39,.cls-40,.cls-41,.cls-43{stroke-linecap:round;stroke-linejoin:round;}.cls-3{fill:#fff;}.cls-4{fill:#f39800;}.cls-36,.cls-5{fill:#42210b;}.cls-6{fill:url(#名称未設定グラデーション_9);}.cls-7{fill:url(#名称未設定グラデーション_9-2);}.cls-8{fill:url(#名称未設定グラデーション_9-3);}.cls-9{fill:url(#名称未設定グラデーション_9-4);}.cls-10{fill:url(#名称未設定グラデーション_9-5);}.cls-11{fill:url(#名称未設定グラデーション_9-6);}.cls-12{fill:url(#名称未設定グラデーション_9-7);}.cls-13{fill:url(#名称未設定グラデーション_9-8);}.cls-14{fill:url(#名称未設定グラデーション_9-9);}.cls-15{fill:url(#名称未設定グラデーション_9-10);}.cls-16{fill:url(#名称未設定グラデーション_9-11);}.cls-17{fill:url(#名称未設定グラデーション_9-12);}.cls-18{fill:url(#名称未設定グラデーション_9-13);}.cls-19{fill:url(#名称未設定グラデーション_9-14);}.cls-20{fill:url(#名称未設定グラデーション_9-15);}.cls-21{fill:url(#名称未設定グラデーション_9-16);}.cls-22{fill:url(#名称未設定グラデーション_9-17);}.cls-23{fill:url(#名称未設定グラデーション_9-18);}.cls-24{fill:url(#名称未設定グラデーション_9-19);}.cls-25{fill:url(#名称未設定グラデーション_9-20);}.cls-26{fill:url(#名称未設定グラデーション_9-21);}.cls-27{fill:url(#名称未設定グラデーション_9-22);}.cls-28{fill:url(#名称未設定グラデーション_9-23);}.cls-29{fill:url(#名称未設定グラデーション_9-24);}.cls-30{fill:url(#名称未設定グラデーション_9-25);}.cls-31{fill:url(#名称未設定グラデーション_9-26);}.cls-32{fill:url(#名称未設定グラデーション_9-27);}.cls-33{fill:url(#名称未設定グラデーション_9-28);}.cls-34{fill:url(#名称未設定グラデーション_9-29);}.cls-35{fill:url(#名称未設定グラデーション_9-30);}.cls-38{fill:#40220f;}.cls-39{fill:#e60012;}.cls-40{fill:#2c3493;}.cls-41{fill:#534741;}.cls-42{clip-path:url(#clip-path);}.cls-43{stroke:#40210d;}.cls-44{fill:#ed801b;}</style><linearGradient id="名称未設定グラデーション_9" x1="67.27" y1="123.78" x2="71.91" y2="123.78" gradientUnits="userSpaceOnUse"><stop offset="0" stop-color="#f39800"/><stop offset="1" stop-color="#f8b62d"/></linearGradient><linearGradient id="名称未設定グラデーション_9-2" x1="67.2" y1="121.28" x2="72.09" y2="121.28" xlink:href="#名称未設定グラデーション_9"/><linearGradient id="名称未設定グラデーション_9-3" x1="64.79" y1="124.56" x2="68.61" y2="124.56" xlink:href="#名称未設定グラデーション_9"/><linearGradient id="名称未設定グラデーション_9-4" x1="70.88" y1="119.94" x2="75.19" y2="119.94" xlink:href="#名称未設定グラデーション_9"/><linearGradient id="名称未設定グラデーション_9-5" x1="74.05" y1="119.35" x2="79.69" y2="119.35" xlink:href="#名称未設定グラデーション_9"/><linearGradient id="名称未設定グラデーション_9-6" x1="77.06" y1="119.25" x2="84.19" y2="119.25" xlink:href="#名称未設定グラデーション_9"/><linearGradient id="名称未設定グラデーション_9-7" x1="81.56" y1="119.25" x2="88.69" y2="119.25" xlink:href="#名称未設定グラデーション_9"/><linearGradient id="名称未設定グラデーション_9-8" x1="86.06" y1="119.25" x2="93.19" y2="119.25" xlink:href="#名称未設定グラデーション_9"/><linearGradient id="名称未設定グラデーション_9-9" x1="90.56" y1="119.25" x2="97.69" y2="119.25" xlink:href="#名称未設定グラデーション_9"/><linearGradient id="名称未設定グラデーション_9-10" x1="95.06" y1="119.25" x2="102.19" y2="119.25" xlink:href="#名称未設定グラデーション_9"/><linearGradient id="名称未設定グラデーション_9-11" x1="99.56" y1="119.25" x2="106.68" y2="119.25" xlink:href="#名称未設定グラデーション_9"/><linearGradient id="名称未設定グラデーション_9-12" x1="104.06" y1="119.25" x2="111.18" y2="119.25" xlink:href="#名称未設定グラデーション_9"/><linearGradient id="名称未設定グラデーション_9-13" x1="108.55" y1="119.25" x2="115.68" y2="119.25" xlink:href="#名称未設定グラデーション_9"/><linearGradient id="名称未設定グラデーション_9-14" x1="113.05" y1="119.25" x2="120.18" y2="119.25" xlink:href="#名称未設定グラデーション_9"/><linearGradient id="名称未設定グラデーション_9-15" x1="117.55" y1="119.25" x2="124.68" y2="119.25" xlink:href="#名称未設定グラデーション_9"/><linearGradient id="名称未設定グラデーション_9-16" x1="122.05" y1="119.25" x2="129.18" y2="119.25" xlink:href="#名称未設定グラデーション_9"/><linearGradient id="名称未設定グラデーション_9-17" x1="126.55" y1="119.25" x2="133.68" y2="119.25" xlink:href="#名称未設定グラデーション_9"/><linearGradient id="名称未設定グラデーション_9-18" x1="131.05" y1="119.25" x2="138.18" y2="119.25" xlink:href="#名称未設定グラデーション_9"/><linearGradient id="名称未設定グラデーション_9-19" x1="135.55" y1="119.25" x2="142.68" y2="119.25" xlink:href="#名称未設定グラデーション_9"/><linearGradient id="名称未設定グラデーション_9-20" x1="140.05" y1="119.25" x2="147.18" y2="119.25" xlink:href="#名称未設定グラデーション_9"/><linearGradient id="名称未設定グラデーション_9-21" x1="144.55" y1="119.25" x2="151.68" y2="119.25" xlink:href="#名称未設定グラデーション_9"/><linearGradient id="名称未設定グラデーション_9-22" x1="149.05" y1="119.25" x2="156.18" y2="119.25" xlink:href="#名称未設定グラデーション_9"/><linearGradient id="名称未設定グラデーション_9-23" x1="153.55" y1="119.25" x2="160.68" y2="119.25" xlink:href="#名称未設定グラデーション_9"/><linearGradient id="名称未設定グラデーション_9-24" x1="158.05" y1="119.51" x2="161.5" y2="119.51" xlink:href="#名称未設定グラデーション_9"/><linearGradient id="名称未設定グラデーション_9-25" x1="161.81" y1="120.6" x2="166.28" y2="120.6" xlink:href="#名称未設定グラデーション_9"/><linearGradient id="名称未設定グラデーション_9-26" x1="162.02" y1="122.62" x2="167.34" y2="122.62" xlink:href="#名称未設定グラデーション_9"/><linearGradient id="名称未設定グラデーション_9-27" x1="163.08" y1="124.58" x2="167.71" y2="124.58" xlink:href="#名称未設定グラデーション_9"/><linearGradient id="名称未設定グラデーション_9-28" x1="165.47" y1="125.85" x2="168.96" y2="125.85" xlink:href="#名称未設定グラデーション_9"/><linearGradient id="名称未設定グラデーション_9-29" x1="163.86" y1="125.87" x2="167.73" y2="125.87" xlink:href="#名称未設定グラデーション_9"/><linearGradient id="名称未設定グラデーション_9-30" x1="165.22" y1="127.5" x2="169.43" y2="127.5" xlink:href="#名称未設定グラデーション_9"/><clipPath id="clip-path"><rect id="SVGID" class="cls-1" x="247" y="9" width="200" height="200" rx="10"/></clipPath></defs><title>25-4-2 ロープ引き</title><path class="cls-2" d="M147.39,117.81a2.89,2.89,0,0,1-3.18-1.82,3.24,3.24,0,0,1,1.15-4.19L180.3,93.3a2.77,2.77,0,0,1,3.75,1.6,3.24,3.24,0,0,1-1.15,4.19L148,117.59A2.49,2.49,0,0,1,147.39,117.81Z"/><polygon class="cls-3" points="162.38 100.28 168.37 107.75 181.02 102.22 174.7 93.44 162.38 100.28"/><path class="cls-4" d="M69.55,126.32a3.52,3.52,0,0,1-1.06-.17,1,1,0,0,1-.43-.31,9.9,9.9,0,0,1-1.73-3.26,1,1,0,0,1,.28-1.08,1,1,0,0,1,.66-.25,1,1,0,0,1,.44.1A13.67,13.67,0,0,0,72,122.47a1,1,0,0,1,.88,1.24,3.89,3.89,0,0,1-1.51,2,3.14,3.14,0,0,1-1.82.57Z"/><path class="cls-5" d="M67.27,122.25a15.08,15.08,0,0,0,4.64,1.22,2.89,2.89,0,0,1-1.12,1.46,2.09,2.09,0,0,1-1.24.39,2.3,2.3,0,0,1-.72-.11,8.88,8.88,0,0,1-1.56-3m0-2a2,2,0,0,0-1.89,2.65,10.78,10.78,0,0,0,1.9,3.57,2,2,0,0,0,.86.61,4.2,4.2,0,0,0,3.81-.52,4.9,4.9,0,0,0,1.9-2.6,2,2,0,0,0-1.77-2.48,13.25,13.25,0,0,1-3.94-1,1.91,1.91,0,0,0-.87-.2Z"/><path class="cls-4" d="M72,124.08a11.36,11.36,0,0,1-1.31-.16,22.77,22.77,0,0,1-3.91-1.24,1,1,0,0,1-.55-1.26A5.11,5.11,0,0,1,68,119.18a3.64,3.64,0,0,1,2.13-.7,2.39,2.39,0,0,1,.6.06,1,1,0,0,1,.7.61s.44,1.14.78,1.91.69,1.4.77,1.54a1,1,0,0,1,0,1,1,1,0,0,1-.84.46Z"/><path class="cls-5" d="M70.12,119.48a2,2,0,0,1,.37,0s.45,1.16.79,2,.68,1.38.81,1.61a9.29,9.29,0,0,1-1.2-.15,21.87,21.87,0,0,1-3.69-1.18A4.15,4.15,0,0,1,68.57,120a2.67,2.67,0,0,1,1.55-.51m0-2a4.6,4.6,0,0,0-2.71.89,6,6,0,0,0-2.09,2.71,2,2,0,0,0,1.1,2.52,23.39,23.39,0,0,0,4.13,1.3,13.28,13.28,0,0,0,1.41.18h.13a2,2,0,0,0,1.75-3c-.1-.19-.47-.87-.72-1.46s-.76-1.86-.77-1.87A2,2,0,0,0,71,117.57a3.29,3.29,0,0,0-.84-.09Z"/><path class="cls-4" d="M66.91,128a1.25,1.25,0,0,1-.32,0,1,1,0,0,1-.58-.53l-.15-.31a.92.92,0,0,1-.19-.28,2.35,2.35,0,0,1-.32-.48,1.09,1.09,0,0,1-.07-.24c0-.08-.3-.51-.34-.6a1.11,1.11,0,0,1-.07-.16l0-.06c-.08-.15-.23-.38-.31-.5l0-.06,0,0a1.37,1.37,0,0,1-.15-.21.89.89,0,0,1-.19-.31h0a1,1,0,0,1-.29-.73,1,1,0,0,1,.32-.72,6.67,6.67,0,0,1,2.36-1.51.91.91,0,0,1,.35-.07,1,1,0,0,1,.94.65s.44,1.14.77,1.92a5.59,5.59,0,0,0,.82,1.16A1,1,0,0,1,69.5,126a4.63,4.63,0,0,1-2.12,1.91A1,1,0,0,1,66.91,128Z"/><path class="cls-5" d="M66.82,122.12s.45,1.17.79,2a6.56,6.56,0,0,0,1,1.45,3.82,3.82,0,0,1-1.7,1.47l-.21-.45.41-.32-.53.19c-.07-.15-.23-.3-.32-.49l.32-.44-.35.29c-.09-.18-.31-.55-.41-.73l.28-.33-.4.07c-.09-.16-.25-.41-.35-.55l.27-.41-.42.2c-.06-.07-.11-.17-.17-.23l.44-.27-.52.07-.16-.16a5.69,5.69,0,0,1,2-1.32m0-2a1.93,1.93,0,0,0-.7.13A7.77,7.77,0,0,0,63.44,122a2,2,0,0,0-.65,1.43,2,2,0,0,0,.47,1.34,2.46,2.46,0,0,0,.22.34l.19.26h0a4.73,4.73,0,0,1,.28.44,1.86,1.86,0,0,0,.1.2c0,.09.12.22.2.36a1,1,0,0,0,.08.14,1.45,1.45,0,0,0,.11.29,3.18,3.18,0,0,0,.39.64,2.2,2.2,0,0,0,.17.25l.09.19a2,2,0,0,0,1.18,1.05,1.93,1.93,0,0,0,.63.1,2,2,0,0,0,.94-.23,5.63,5.63,0,0,0,2.55-2.36,2,2,0,0,0-.31-2.22,5.1,5.1,0,0,1-.64-.9c-.32-.75-.75-1.87-.76-1.88a2,2,0,0,0-1.87-1.29Z"/><path class="cls-4" d="M72.45,123.92a1,1,0,0,1-.89-.55s-.42-.83-.84-1.77-.77-2-.79-2.06a1,1,0,0,1,.23-1,4.24,4.24,0,0,1,.36-.58A6.56,6.56,0,0,1,73,116.08a1,1,0,0,1,.49-.12h.13c.34,0,.7.1,1,.17l.5.12a2.14,2.14,0,0,1,.47.2,1.05,1.05,0,0,1,.5,1.15,1,1,0,0,1-.11.28l0,0a3.46,3.46,0,0,1-.38.52l-.08.08a5.34,5.34,0,0,0-.63.65c0,.17-.08.34-.11.51a19.51,19.51,0,0,1-.68,3.09.94.94,0,0,1-.54.61,2.23,2.23,0,0,1-.91.52Z"/><path class="cls-5" d="M73.46,117c.32,0,.65.09,1,.16l.48.11a2.43,2.43,0,0,1,.28.14,2.65,2.65,0,0,1-.29.4,5.4,5.4,0,0,0-.87,1,7.74,7.74,0,0,0-.18.77,20.22,20.22,0,0,1-.65,3l0-.06a1.59,1.59,0,0,1-.71.51s-.41-.81-.81-1.72-.76-2-.76-2l0,.06a3,3,0,0,1,.4-.73A5.46,5.46,0,0,1,73.46,117m0-2a2,2,0,0,0-1,.25,7.34,7.34,0,0,0-2.72,2.08l0,.07a5,5,0,0,0-.39.6,2,2,0,0,0-.35,1.89c0,.05.39,1.17.83,2.16s.84,1.78.86,1.81a2,2,0,0,0,1.78,1.1,1.77,1.77,0,0,0,.5-.07,3.14,3.14,0,0,0,1.22-.64,2,2,0,0,0,.94-1.16,21.4,21.4,0,0,0,.72-3.27l0-.16a4.36,4.36,0,0,1,.37-.36l.17-.17a4.16,4.16,0,0,0,.45-.6,1.89,1.89,0,0,0,.28-.65,2,2,0,0,0-1-2.25,2.44,2.44,0,0,0-.6-.26l-.13,0-.21-.05-.27-.06,0,0c-.36-.07-.74-.14-1.12-.19Z"/><path class="cls-4" d="M74.06,122.85a1,1,0,0,1-.73-.31,1,1,0,0,1-.25-.9l.15-.71,0-.1a.76.76,0,0,0,0-.33,3.67,3.67,0,0,1,.11-1,1.08,1.08,0,0,1,.08-.19,3.38,3.38,0,0,1,.45-.69,10.55,10.55,0,0,0,1.21-1.72,1,1,0,0,1,.29-.33,4.12,4.12,0,0,1,2.39-.72,4.85,4.85,0,0,1,2.38.65,1.07,1.07,0,0,1,.47.63,1,1,0,0,1-.12.78,20.9,20.9,0,0,1-1.52,2,19.69,19.69,0,0,1-2.4,2.18l-.21.13a5.48,5.48,0,0,1-1,.31,1.07,1.07,0,0,1-.48.12h0l-.06,0a3.61,3.61,0,0,1-.66.17Z"/><path class="cls-5" d="M77.81,116.84a3.8,3.8,0,0,1,1.88.53,16.51,16.51,0,0,1-1.42,1.87A18.87,18.87,0,0,1,76,121.29a4.26,4.26,0,0,1-1,.29c-.11,0-.11,0-.1,0v0h0a.11.11,0,0,0,0,0s0,0,0,0a1.2,1.2,0,0,0-.17.06l-.23.09a3.24,3.24,0,0,1-.47.13s.06-.29.16-.71,0-.82.15-1.39a3.31,3.31,0,0,1,.34-.52A10.72,10.72,0,0,0,76,117.37a3.23,3.23,0,0,1,1.8-.53M75,121.64h0m2.85-6.8a5.26,5.26,0,0,0-3,.92,2,2,0,0,0-.57.67,9.45,9.45,0,0,1-1,1.47l-.09.1a5.09,5.09,0,0,0-.55.85,1.32,1.32,0,0,0-.15.39,4.5,4.5,0,0,0-.15,1.27v.09s0,.08,0,.11l-.16.71a2,2,0,0,0,2,2.44,1.73,1.73,0,0,0,.32,0,4.47,4.47,0,0,0,.75-.19l.31,0a2,2,0,0,0,.34-.12,5.63,5.63,0,0,0,1-.35,2,2,0,0,0,.4-.24,19.71,19.71,0,0,0,2.55-2.32,16.72,16.72,0,0,0,1.61-2.12,2,2,0,0,0,.25-1.55,2,2,0,0,0-.95-1.25,5.69,5.69,0,0,0-2.87-.8Z"/><path class="cls-4" d="M78.8,122.65a5.31,5.31,0,0,1-2.18-.46,1,1,0,0,1-.55-.77,1,1,0,0,1,.33-.88s1.34-1.18,2.06-2a10.68,10.68,0,0,0,1.17-1.67,1,1,0,0,1,.28-.33,4.21,4.21,0,0,1,2.4-.72,4.85,4.85,0,0,1,2.38.65,1.07,1.07,0,0,1,.47.63,1,1,0,0,1-.13.78,18.14,18.14,0,0,1-1.51,2,19.69,19.69,0,0,1-2.4,2.18,1.13,1.13,0,0,1-.21.12,5.06,5.06,0,0,1-2.11.45Z"/><path class="cls-5" d="M82.31,116.84a3.8,3.8,0,0,1,1.88.53,16.51,16.51,0,0,1-1.42,1.87,18.87,18.87,0,0,1-2.26,2.05,4.17,4.17,0,0,1-1.71.36,4.24,4.24,0,0,1-1.74-.36s1.38-1.2,2.14-2.05a10.72,10.72,0,0,0,1.31-1.87,3.23,3.23,0,0,1,1.8-.53m0-2a5.26,5.26,0,0,0-3,.92,2.07,2.07,0,0,0-.58.67,8.09,8.09,0,0,1-1,1.47c-.56.62-1.61,1.57-2,1.88a2,2,0,0,0-.66,1.77,2,2,0,0,0,1.1,1.53,6.07,6.07,0,0,0,2.62.57,6.14,6.14,0,0,0,2.51-.53,1.84,1.84,0,0,0,.41-.24,19.71,19.71,0,0,0,2.55-2.32,19.34,19.34,0,0,0,1.61-2.12,2,2,0,0,0-.7-2.8,5.69,5.69,0,0,0-2.87-.8Z"/><path class="cls-4" d="M83.3,122.65a5.31,5.31,0,0,1-2.18-.46,1,1,0,0,1-.55-.77,1,1,0,0,1,.33-.88s1.34-1.18,2.06-2a10.68,10.68,0,0,0,1.17-1.67,1,1,0,0,1,.28-.33,4.21,4.21,0,0,1,2.4-.72,4.78,4.78,0,0,1,2.37.65,1,1,0,0,1,.48.63,1,1,0,0,1-.13.78,18.14,18.14,0,0,1-1.51,2,20.51,20.51,0,0,1-2.4,2.18,1.13,1.13,0,0,1-.21.12,5.06,5.06,0,0,1-2.11.45Z"/><path class="cls-5" d="M86.81,116.84a3.8,3.8,0,0,1,1.88.53,16.51,16.51,0,0,1-1.42,1.87A18.87,18.87,0,0,1,85,121.29a4.31,4.31,0,0,1-3.45,0s1.38-1.2,2.14-2.05A10.72,10.72,0,0,0,85,117.37a3.23,3.23,0,0,1,1.8-.53m0-2a5.26,5.26,0,0,0-3,.92,2.07,2.07,0,0,0-.58.67,8.72,8.72,0,0,1-1,1.47c-.56.62-1.61,1.57-2,1.88a2,2,0,0,0-.66,1.77,2,2,0,0,0,1.1,1.53,6.07,6.07,0,0,0,2.62.57,6.14,6.14,0,0,0,2.51-.53,1.84,1.84,0,0,0,.41-.24,19.71,19.71,0,0,0,2.55-2.32,19.34,19.34,0,0,0,1.61-2.12,2,2,0,0,0-.7-2.8,5.69,5.69,0,0,0-2.87-.8Z"/><path class="cls-4" d="M87.8,122.65a5.31,5.31,0,0,1-2.18-.46,1,1,0,0,1-.55-.77,1,1,0,0,1,.33-.88s1.34-1.18,2.06-2a10.68,10.68,0,0,0,1.17-1.67,1,1,0,0,1,.28-.33,4.21,4.21,0,0,1,2.4-.72,4.78,4.78,0,0,1,2.37.65,1,1,0,0,1,.48.63,1,1,0,0,1-.13.78,17.11,17.11,0,0,1-1.51,2,19.69,19.69,0,0,1-2.4,2.18,1.13,1.13,0,0,1-.21.12,5.06,5.06,0,0,1-2.11.45Z"/><path class="cls-5" d="M91.31,116.84a3.8,3.8,0,0,1,1.88.53,16.51,16.51,0,0,1-1.42,1.87,18.87,18.87,0,0,1-2.26,2.05,4.31,4.31,0,0,1-3.45,0s1.37-1.2,2.14-2.05a10.72,10.72,0,0,0,1.31-1.87,3.23,3.23,0,0,1,1.8-.53m0-2a5.26,5.26,0,0,0-3,.92,2.07,2.07,0,0,0-.58.67,8.72,8.72,0,0,1-1,1.47c-.56.62-1.61,1.57-2,1.88a2,2,0,0,0-.66,1.77,2,2,0,0,0,1.09,1.53,6.28,6.28,0,0,0,5.14,0,1.84,1.84,0,0,0,.41-.24,19.71,19.71,0,0,0,2.55-2.32,19.34,19.34,0,0,0,1.61-2.12,2,2,0,0,0-.7-2.8,5.69,5.69,0,0,0-2.87-.8Z"/><path class="cls-4" d="M92.3,122.65a5.31,5.31,0,0,1-2.18-.46,1,1,0,0,1-.55-.77,1,1,0,0,1,.33-.88s1.34-1.18,2.06-2a9.58,9.58,0,0,0,1.16-1.67,1.15,1.15,0,0,1,.29-.33,4.21,4.21,0,0,1,2.4-.72,4.78,4.78,0,0,1,2.37.65,1,1,0,0,1,.48.63,1,1,0,0,1-.13.78,17.11,17.11,0,0,1-1.51,2,19.46,19.46,0,0,1-2.41,2.18.82.82,0,0,1-.2.12,5.1,5.1,0,0,1-2.11.45Z"/><path class="cls-5" d="M95.81,116.84a3.83,3.83,0,0,1,1.88.53,16.51,16.51,0,0,1-1.42,1.87A19.74,19.74,0,0,1,94,121.29a4.31,4.31,0,0,1-3.45,0s1.37-1.2,2.14-2.05A10.72,10.72,0,0,0,94,117.37a3.23,3.23,0,0,1,1.8-.53m0-2a5.2,5.2,0,0,0-3,.92,2.07,2.07,0,0,0-.58.67,8.72,8.72,0,0,1-1,1.47c-.56.62-1.61,1.57-2,1.88a2,2,0,0,0-.67,1.77,2,2,0,0,0,1.1,1.53,6.28,6.28,0,0,0,5.14,0,2.1,2.1,0,0,0,.41-.24,20.42,20.42,0,0,0,2.55-2.32,19.34,19.34,0,0,0,1.61-2.12,2,2,0,0,0,.25-1.55,2,2,0,0,0-.95-1.25,5.69,5.69,0,0,0-2.87-.8Z"/><path class="cls-4" d="M96.8,122.65a5.44,5.44,0,0,1-2.19-.46,1,1,0,0,1-.54-.77,1,1,0,0,1,.33-.88s1.34-1.18,2-2a9.31,9.31,0,0,0,1.17-1.67,1,1,0,0,1,.29-.33,4.21,4.21,0,0,1,2.4-.72,4.78,4.78,0,0,1,2.37.65,1,1,0,0,1,.48.63,1,1,0,0,1-.13.78,18.14,18.14,0,0,1-1.51,2,19.46,19.46,0,0,1-2.41,2.18.82.82,0,0,1-.2.12,5.13,5.13,0,0,1-2.11.45Z"/><path class="cls-5" d="M100.31,116.84a3.86,3.86,0,0,1,1.88.53,17.44,17.44,0,0,1-1.43,1.87,19.13,19.13,0,0,1-2.25,2.05,4.31,4.31,0,0,1-3.45,0s1.37-1.2,2.14-2.05a10.72,10.72,0,0,0,1.31-1.87,3.23,3.23,0,0,1,1.8-.53m0-2a5.2,5.2,0,0,0-3,.92,2.07,2.07,0,0,0-.58.67,8.72,8.72,0,0,1-1,1.47c-.56.62-1.61,1.57-2,1.88a2,2,0,0,0-.67,1.77,2,2,0,0,0,1.1,1.53,6.28,6.28,0,0,0,5.14,0,2.1,2.1,0,0,0,.41-.24,20.42,20.42,0,0,0,2.55-2.32,19.34,19.34,0,0,0,1.61-2.12,2,2,0,0,0,.25-1.55,2,2,0,0,0-.95-1.25,5.69,5.69,0,0,0-2.87-.8Z"/><path class="cls-4" d="M101.3,122.65a5.44,5.44,0,0,1-2.19-.46,1,1,0,0,1-.54-.77,1,1,0,0,1,.33-.88s1.34-1.18,2-2a9.31,9.31,0,0,0,1.17-1.67,1,1,0,0,1,.29-.33,4.21,4.21,0,0,1,2.4-.72,4.78,4.78,0,0,1,2.37.65,1,1,0,0,1,.48.63,1,1,0,0,1-.13.78,17.54,17.54,0,0,1-1.52,2,18.93,18.93,0,0,1-2.4,2.18.82.82,0,0,1-.2.12,5.13,5.13,0,0,1-2.11.45Z"/><path class="cls-5" d="M104.81,116.84a3.8,3.8,0,0,1,1.87.53,16.51,16.51,0,0,1-1.42,1.87,19.13,19.13,0,0,1-2.25,2.05,4.31,4.31,0,0,1-3.45,0s1.37-1.2,2.14-2.05a10.72,10.72,0,0,0,1.31-1.87,3.23,3.23,0,0,1,1.8-.53m0-2a5.2,5.2,0,0,0-3,.92,2.07,2.07,0,0,0-.58.67,8.72,8.72,0,0,1-1,1.47c-.56.62-1.61,1.57-2,1.88a2,2,0,0,0-.67,1.77,2,2,0,0,0,1.1,1.53,6.09,6.09,0,0,0,2.63.57,6.18,6.18,0,0,0,2.51-.53,2.1,2.1,0,0,0,.41-.24,20.42,20.42,0,0,0,2.55-2.32,19.34,19.34,0,0,0,1.61-2.12,2,2,0,0,0,.25-1.55,2,2,0,0,0-.95-1.25,5.71,5.71,0,0,0-2.87-.8Z"/><path class="cls-4" d="M105.8,122.65a5.44,5.44,0,0,1-2.19-.46,1,1,0,0,1-.55-.77,1,1,0,0,1,.34-.88s1.34-1.18,2-2a9.31,9.31,0,0,0,1.17-1.67,1,1,0,0,1,.29-.33,4.21,4.21,0,0,1,2.4-.72,4.78,4.78,0,0,1,2.37.65,1,1,0,0,1,.48.63,1,1,0,0,1-.13.78,16.58,16.58,0,0,1-1.52,2,18.93,18.93,0,0,1-2.4,2.18.82.82,0,0,1-.2.12,5.13,5.13,0,0,1-2.11.45Z"/><path class="cls-5" d="M109.31,116.84a3.8,3.8,0,0,1,1.87.53,16.51,16.51,0,0,1-1.42,1.87,18.87,18.87,0,0,1-2.26,2.05,4.13,4.13,0,0,1-1.7.36,4.24,4.24,0,0,1-1.74-.36s1.37-1.2,2.13-2.05a10.11,10.11,0,0,0,1.31-1.87,3.28,3.28,0,0,1,1.81-.53m0-2a5.28,5.28,0,0,0-3,.92,2.17,2.17,0,0,0-.57.67,8.72,8.72,0,0,1-1,1.47c-.56.62-1.61,1.57-2,1.88a2,2,0,0,0-.67,1.77,2,2,0,0,0,1.1,1.53,6.09,6.09,0,0,0,2.63.57,6.18,6.18,0,0,0,2.51-.53,2.1,2.1,0,0,0,.41-.24,20.42,20.42,0,0,0,2.55-2.32,19.34,19.34,0,0,0,1.61-2.12,2,2,0,0,0,.24-1.55,2,2,0,0,0-.94-1.25,5.71,5.71,0,0,0-2.87-.8Z"/><path class="cls-4" d="M110.3,122.65a5.44,5.44,0,0,1-2.19-.46,1,1,0,0,1-.55-.77,1,1,0,0,1,.34-.88s1.34-1.18,2-2a9.31,9.31,0,0,0,1.17-1.67,1,1,0,0,1,.29-.33,4.21,4.21,0,0,1,2.4-.72,4.78,4.78,0,0,1,2.37.65,1,1,0,0,1,.47.63,1,1,0,0,1-.12.78,17.94,17.94,0,0,1-1.52,2,18.93,18.93,0,0,1-2.4,2.18.82.82,0,0,1-.2.12,5.13,5.13,0,0,1-2.11.45Z"/><path class="cls-5" d="M113.81,116.84a3.8,3.8,0,0,1,1.87.53,16.51,16.51,0,0,1-1.42,1.87,18.87,18.87,0,0,1-2.26,2.05,4.13,4.13,0,0,1-1.7.36,4.32,4.32,0,0,1-1.75-.36s1.38-1.2,2.14-2.05a10.11,10.11,0,0,0,1.31-1.87,3.28,3.28,0,0,1,1.81-.53m0-2a5.28,5.28,0,0,0-3,.92,2.17,2.17,0,0,0-.57.67,8.72,8.72,0,0,1-1,1.47c-.56.62-1.61,1.57-2,1.88a2,2,0,0,0,.43,3.3,6.09,6.09,0,0,0,2.63.57,6.18,6.18,0,0,0,2.51-.53,2.44,2.44,0,0,0,.41-.24,19.87,19.87,0,0,0,2.54-2.32,18.73,18.73,0,0,0,1.62-2.12,2,2,0,0,0,.24-1.55,2,2,0,0,0-.94-1.25,5.71,5.71,0,0,0-2.87-.8Z"/><path class="cls-4" d="M114.8,122.65a5.44,5.44,0,0,1-2.19-.46,1,1,0,0,1-.55-.77,1,1,0,0,1,.34-.88s1.34-1.18,2-2a9.31,9.31,0,0,0,1.17-1.67,1,1,0,0,1,.29-.33,4.21,4.21,0,0,1,2.4-.72,4.81,4.81,0,0,1,2.37.65,1,1,0,0,1,.47.63,1,1,0,0,1-.12.78,15.89,15.89,0,0,1-3.92,4.17.82.82,0,0,1-.2.12,5.13,5.13,0,0,1-2.11.45Z"/><path class="cls-5" d="M118.31,116.84a3.8,3.8,0,0,1,1.87.53,16.51,16.51,0,0,1-1.42,1.87,18.87,18.87,0,0,1-2.26,2.05,4.13,4.13,0,0,1-1.7.36,4.32,4.32,0,0,1-1.75-.36s1.38-1.2,2.14-2.05a10.11,10.11,0,0,0,1.31-1.87,3.28,3.28,0,0,1,1.81-.53m0-2a5.28,5.28,0,0,0-3,.92,2,2,0,0,0-.57.67,8.72,8.72,0,0,1-1,1.47c-.56.62-1.61,1.57-2,1.88a2,2,0,0,0,.43,3.3,6.09,6.09,0,0,0,2.63.57,6.18,6.18,0,0,0,2.51-.53,2.44,2.44,0,0,0,.41-.24,19.87,19.87,0,0,0,2.54-2.32,16.72,16.72,0,0,0,1.61-2.12,1.93,1.93,0,0,0,.25-1.55,2,2,0,0,0-.94-1.25,5.71,5.71,0,0,0-2.87-.8Z"/><path class="cls-4" d="M119.3,122.65a5.44,5.44,0,0,1-2.19-.46,1,1,0,0,1-.55-.77,1,1,0,0,1,.34-.88s1.34-1.18,2-2a9.31,9.31,0,0,0,1.17-1.67,1,1,0,0,1,.29-.33,4.17,4.17,0,0,1,2.4-.72,4.81,4.81,0,0,1,2.37.65,1,1,0,0,1,.47.63,1,1,0,0,1-.12.78,20.9,20.9,0,0,1-1.52,2,18.93,18.93,0,0,1-2.4,2.18.72.72,0,0,1-.21.12,5,5,0,0,1-2.1.45Z"/><path class="cls-5" d="M122.81,116.84a3.8,3.8,0,0,1,1.87.53,16.51,16.51,0,0,1-1.42,1.87,18.87,18.87,0,0,1-2.26,2.05,4.16,4.16,0,0,1-1.7.36,4.32,4.32,0,0,1-1.75-.36s1.38-1.2,2.14-2.05a10.11,10.11,0,0,0,1.31-1.87,3.28,3.28,0,0,1,1.81-.53m0-2a5.28,5.28,0,0,0-3,.92,2,2,0,0,0-.57.67,8.72,8.72,0,0,1-1,1.47c-.56.62-1.61,1.57-2,1.88a2,2,0,0,0,.43,3.3,6.09,6.09,0,0,0,2.63.57,6.21,6.21,0,0,0,2.51-.53,2.44,2.44,0,0,0,.41-.24,19.87,19.87,0,0,0,2.54-2.32,16.72,16.72,0,0,0,1.61-2.12,2,2,0,0,0,.25-1.55,2,2,0,0,0-1-1.25,5.65,5.65,0,0,0-2.86-.8Z"/><path class="cls-4" d="M123.8,122.65a5.44,5.44,0,0,1-2.19-.46,1,1,0,0,1-.22-1.65s1.35-1.18,2.06-2a10,10,0,0,0,1.17-1.67,1,1,0,0,1,.29-.33,4.16,4.16,0,0,1,2.39-.72,4.85,4.85,0,0,1,2.38.65,1.07,1.07,0,0,1,.47.63,1,1,0,0,1-.12.78,20.9,20.9,0,0,1-1.52,2,18.93,18.93,0,0,1-2.4,2.18.88.88,0,0,1-.21.12,5,5,0,0,1-2.1.45Z"/><path class="cls-5" d="M127.3,116.84a3.8,3.8,0,0,1,1.88.53,16.51,16.51,0,0,1-1.42,1.87,18.87,18.87,0,0,1-2.26,2.05,4.16,4.16,0,0,1-1.7.36,4.32,4.32,0,0,1-1.75-.36s1.38-1.2,2.14-2.05a10.72,10.72,0,0,0,1.31-1.87,3.23,3.23,0,0,1,1.8-.53m0-2a5.26,5.26,0,0,0-3,.92,2,2,0,0,0-.57.67,9.45,9.45,0,0,1-1,1.47c-.56.62-1.62,1.57-2,1.88a2,2,0,0,0,.43,3.3,6.09,6.09,0,0,0,2.63.57,6.21,6.21,0,0,0,2.51-.53,2.44,2.44,0,0,0,.41-.24,20.61,20.61,0,0,0,2.54-2.32,16.72,16.72,0,0,0,1.61-2.12,2,2,0,0,0,.25-1.55,2,2,0,0,0-1-1.25,5.66,5.66,0,0,0-2.87-.8Z"/><path class="cls-4" d="M128.3,122.65a5.44,5.44,0,0,1-2.19-.46,1,1,0,0,1-.22-1.65s1.34-1.18,2.06-2a10,10,0,0,0,1.17-1.67,1,1,0,0,1,.29-.33,4.16,4.16,0,0,1,2.39-.72,4.85,4.85,0,0,1,2.38.65,1.07,1.07,0,0,1,.47.63,1,1,0,0,1-.12.78,15.89,15.89,0,0,1-3.92,4.17.88.88,0,0,1-.21.12,5,5,0,0,1-2.1.45Z"/><path class="cls-5" d="M131.8,116.84a3.8,3.8,0,0,1,1.88.53,16.51,16.51,0,0,1-1.42,1.87,18.87,18.87,0,0,1-2.26,2.05,4.16,4.16,0,0,1-1.7.36,4.26,4.26,0,0,1-1.75-.36s1.38-1.2,2.14-2.05a10.72,10.72,0,0,0,1.31-1.87,3.23,3.23,0,0,1,1.8-.53m0-2a5.26,5.26,0,0,0-3,.92,2,2,0,0,0-.57.67,9.45,9.45,0,0,1-1,1.47c-.56.62-1.62,1.57-2,1.88a2,2,0,0,0,.43,3.3,6.09,6.09,0,0,0,2.63.57,6.21,6.21,0,0,0,2.51-.53,2.44,2.44,0,0,0,.41-.24,20.61,20.61,0,0,0,2.54-2.32,16.72,16.72,0,0,0,1.61-2.12,2,2,0,0,0,.25-1.55,2,2,0,0,0-1-1.25,5.66,5.66,0,0,0-2.87-.8Z"/><path class="cls-4" d="M132.8,122.65a5.38,5.38,0,0,1-2.19-.46,1,1,0,0,1-.22-1.65s1.34-1.18,2.06-2a10,10,0,0,0,1.17-1.67,1,1,0,0,1,.29-.33,4.12,4.12,0,0,1,2.39-.72,4.85,4.85,0,0,1,2.38.65,1.07,1.07,0,0,1,.47.63,1,1,0,0,1-.12.78,20.9,20.9,0,0,1-1.52,2,19.69,19.69,0,0,1-2.4,2.18.88.88,0,0,1-.21.12,5,5,0,0,1-2.1.45Z"/><path class="cls-5" d="M136.3,116.84a3.8,3.8,0,0,1,1.88.53,16.51,16.51,0,0,1-1.42,1.87,18.87,18.87,0,0,1-2.26,2.05,4.16,4.16,0,0,1-1.7.36,4.26,4.26,0,0,1-1.75-.36s1.38-1.2,2.14-2.05a10.72,10.72,0,0,0,1.31-1.87,3.23,3.23,0,0,1,1.8-.53m0-2a5.26,5.26,0,0,0-3,.92,2,2,0,0,0-.57.67,9.45,9.45,0,0,1-1,1.47c-.57.62-1.62,1.57-2,1.88a2,2,0,0,0,.43,3.3,6.09,6.09,0,0,0,2.63.57,6.21,6.21,0,0,0,2.51-.53,2,2,0,0,0,.4-.24,19.71,19.71,0,0,0,2.55-2.32,16.72,16.72,0,0,0,1.61-2.12,2,2,0,0,0,.25-1.55,2,2,0,0,0-1-1.25,5.69,5.69,0,0,0-2.87-.8Z"/><path class="cls-4" d="M137.29,122.65a5.37,5.37,0,0,1-2.18-.46,1,1,0,0,1-.55-.77,1,1,0,0,1,.33-.88s1.34-1.18,2.06-2a10.68,10.68,0,0,0,1.17-1.67,1.12,1.12,0,0,1,.28-.33,4.21,4.21,0,0,1,2.4-.72,4.85,4.85,0,0,1,2.38.65,1.07,1.07,0,0,1,.47.63,1,1,0,0,1-.13.78,18.14,18.14,0,0,1-1.51,2,19.69,19.69,0,0,1-2.4,2.18l-.21.12a5.06,5.06,0,0,1-2.11.45Z"/><path class="cls-5" d="M140.8,116.84a3.8,3.8,0,0,1,1.88.53,16.51,16.51,0,0,1-1.42,1.87,18.87,18.87,0,0,1-2.26,2.05,4.17,4.17,0,0,1-1.71.36,4.24,4.24,0,0,1-1.74-.36s1.38-1.2,2.14-2.05a10.72,10.72,0,0,0,1.31-1.87,3.23,3.23,0,0,1,1.8-.53m0-2a5.26,5.26,0,0,0-3,.92,1.93,1.93,0,0,0-.57.67,9.11,9.11,0,0,1-1,1.47c-.56.62-1.61,1.57-2,1.88a2,2,0,0,0-.66,1.77,2,2,0,0,0,1.1,1.53,6.07,6.07,0,0,0,2.62.57,6.14,6.14,0,0,0,2.51-.53,1.84,1.84,0,0,0,.41-.24,19.71,19.71,0,0,0,2.55-2.32,19.34,19.34,0,0,0,1.61-2.12,2,2,0,0,0,.25-1.55,2,2,0,0,0-1-1.25,5.69,5.69,0,0,0-2.87-.8Z"/><path class="cls-4" d="M141.79,122.65a5.31,5.31,0,0,1-2.18-.46,1,1,0,0,1-.55-.77,1,1,0,0,1,.33-.88s1.34-1.18,2.06-2a10.68,10.68,0,0,0,1.17-1.67,1.12,1.12,0,0,1,.28-.33,4.21,4.21,0,0,1,2.4-.72,4.78,4.78,0,0,1,2.37.65,1,1,0,0,1,.48.63,1,1,0,0,1-.13.78,18.14,18.14,0,0,1-1.51,2,19.69,19.69,0,0,1-2.4,2.18l-.21.12a5.06,5.06,0,0,1-2.11.45Z"/><path class="cls-5" d="M145.3,116.84a3.8,3.8,0,0,1,1.88.53,16.51,16.51,0,0,1-1.42,1.87,18.87,18.87,0,0,1-2.26,2.05,4.17,4.17,0,0,1-1.71.36,4.24,4.24,0,0,1-1.74-.36s1.38-1.2,2.14-2.05a10.72,10.72,0,0,0,1.31-1.87,3.23,3.23,0,0,1,1.8-.53m0-2a5.26,5.26,0,0,0-3,.92,2.07,2.07,0,0,0-.58.67,8.72,8.72,0,0,1-1,1.47c-.56.62-1.61,1.57-2,1.88a2,2,0,0,0-.66,1.77,2,2,0,0,0,1.1,1.53,6.07,6.07,0,0,0,2.62.57,6.14,6.14,0,0,0,2.51-.53,1.84,1.84,0,0,0,.41-.24,19.71,19.71,0,0,0,2.55-2.32,19.34,19.34,0,0,0,1.61-2.12,2,2,0,0,0-.7-2.8,5.69,5.69,0,0,0-2.87-.8Z"/><path class="cls-4" d="M146.29,122.65a5.31,5.31,0,0,1-2.18-.46,1,1,0,0,1-.55-.77,1,1,0,0,1,.33-.88s1.34-1.18,2.06-2a10.68,10.68,0,0,0,1.17-1.67,1,1,0,0,1,.28-.33,4.21,4.21,0,0,1,2.4-.72,4.78,4.78,0,0,1,2.37.65,1,1,0,0,1,.48.63,1,1,0,0,1-.13.78,18.14,18.14,0,0,1-1.51,2,19.69,19.69,0,0,1-2.4,2.18l-.21.12a5.06,5.06,0,0,1-2.11.45Z"/><path class="cls-5" d="M149.8,116.84a3.8,3.8,0,0,1,1.88.53,16.51,16.51,0,0,1-1.42,1.87,18.87,18.87,0,0,1-2.26,2.05,4.31,4.31,0,0,1-3.45,0s1.38-1.2,2.14-2.05a10.72,10.72,0,0,0,1.31-1.87,3.23,3.23,0,0,1,1.8-.53m0-2a5.26,5.26,0,0,0-3,.92,2.07,2.07,0,0,0-.58.67,8.72,8.72,0,0,1-1,1.47c-.56.62-1.61,1.57-2,1.88a2,2,0,0,0-.66,1.77,2,2,0,0,0,1.09,1.53,6.28,6.28,0,0,0,5.14,0,1.84,1.84,0,0,0,.41-.24,19.71,19.71,0,0,0,2.55-2.32,19.34,19.34,0,0,0,1.61-2.12,2,2,0,0,0-.7-2.8,5.69,5.69,0,0,0-2.87-.8Z"/><path class="cls-4" d="M150.79,122.65a5.31,5.31,0,0,1-2.18-.46,1,1,0,0,1-.55-.77,1,1,0,0,1,.33-.88s1.34-1.18,2.06-2a10.68,10.68,0,0,0,1.17-1.67,1,1,0,0,1,.28-.33,4.21,4.21,0,0,1,2.4-.72,4.78,4.78,0,0,1,2.37.65,1,1,0,0,1,.48.63,1,1,0,0,1-.13.78,18.14,18.14,0,0,1-1.51,2,19.46,19.46,0,0,1-2.41,2.18.82.82,0,0,1-.2.12,5.1,5.1,0,0,1-2.11.45Z"/><path class="cls-5" d="M154.3,116.84a3.8,3.8,0,0,1,1.88.53,16.51,16.51,0,0,1-1.42,1.87,18.87,18.87,0,0,1-2.26,2.05,4.31,4.31,0,0,1-3.45,0s1.37-1.2,2.14-2.05a10.72,10.72,0,0,0,1.31-1.87,3.23,3.23,0,0,1,1.8-.53m0-2a5.26,5.26,0,0,0-3,.92,2.07,2.07,0,0,0-.58.67,8.72,8.72,0,0,1-1,1.47c-.56.62-1.61,1.57-2,1.88a2,2,0,0,0-.67,1.77,2,2,0,0,0,1.1,1.53,6.28,6.28,0,0,0,5.14,0,2.1,2.1,0,0,0,.41-.24,20.42,20.42,0,0,0,2.55-2.32,19.34,19.34,0,0,0,1.61-2.12,2,2,0,0,0-.7-2.8,5.69,5.69,0,0,0-2.87-.8Z"/><path class="cls-4" d="M155.29,122.65a5.44,5.44,0,0,1-2.19-.46,1,1,0,0,1-.54-.77,1,1,0,0,1,.33-.88s1.34-1.18,2.05-2a9.31,9.31,0,0,0,1.17-1.67,1,1,0,0,1,.29-.33,4.21,4.21,0,0,1,2.4-.72,4.78,4.78,0,0,1,2.37.65,1,1,0,0,1,.48.63,1,1,0,0,1-.13.78,18.14,18.14,0,0,1-1.51,2,19.46,19.46,0,0,1-2.41,2.18.82.82,0,0,1-.2.12,5.13,5.13,0,0,1-2.11.45Z"/><path class="cls-5" d="M158.8,116.84a3.86,3.86,0,0,1,1.88.53,17.44,17.44,0,0,1-1.43,1.87,19.13,19.13,0,0,1-2.25,2.05,4.31,4.31,0,0,1-3.45,0s1.37-1.2,2.14-2.05a10.72,10.72,0,0,0,1.31-1.87,3.23,3.23,0,0,1,1.8-.53m0-2a5.2,5.2,0,0,0-3,.92,2.07,2.07,0,0,0-.58.67,8.72,8.72,0,0,1-1,1.47c-.56.62-1.61,1.57-2,1.88a2,2,0,0,0-.67,1.77,2,2,0,0,0,1.1,1.53,6.28,6.28,0,0,0,5.14,0,2.1,2.1,0,0,0,.41-.24,20.42,20.42,0,0,0,2.55-2.32,19.34,19.34,0,0,0,1.61-2.12,2,2,0,0,0,.25-1.55,2,2,0,0,0-1-1.25,5.69,5.69,0,0,0-2.87-.8Z"/><path class="cls-4" d="M159.79,122.65a5.44,5.44,0,0,1-2.19-.46,1,1,0,0,1-.54-.77,1,1,0,0,1,.33-.88s1.34-1.18,2.05-2a9.31,9.31,0,0,0,1.17-1.67,1,1,0,0,1,.89-.53,1,1,0,0,1,.24,0,1,1,0,0,1,.76,1v3.92a1,1,0,0,1-.6.91,5.13,5.13,0,0,1-2.11.45Z"/><path class="cls-5" d="M161.5,117.37v3.92a4.31,4.31,0,0,1-3.45,0s1.37-1.2,2.14-2.05a10.72,10.72,0,0,0,1.31-1.87m0-2a2,2,0,0,0-1.77,1.06,9,9,0,0,1-1,1.47c-.56.62-1.61,1.57-2,1.88a2,2,0,0,0-.67,1.77,2,2,0,0,0,1.1,1.53,6.28,6.28,0,0,0,5.14,0,2,2,0,0,0,1.2-1.83v-3.92a2,2,0,0,0-1.52-1.94,2,2,0,0,0-.48-.06Z"/><path class="cls-4" d="M163.46,122.56a16.15,16.15,0,0,1-1.75-.09,1,1,0,0,1-.88-.8,1,1,0,0,1,.51-1.08l3.47-1.82a.93.93,0,0,1,.46-.12h.12a2.25,2.25,0,0,1,1.61,1,2.22,2.22,0,0,1,.08,2,1,1,0,0,1-.76.64s-1,.17-2.1.25Z"/><path class="cls-5" d="M165.27,119.65a1.11,1.11,0,0,1,.88,1.65,19.19,19.19,0,0,1-2,.24l-.71,0c-.85,0-1.64-.08-1.64-.08l3.46-1.83m0-2a2,2,0,0,0-.93.23l-3.46,1.83a2,2,0,0,0,.73,3.76s.9.09,1.84.09c.28,0,.57,0,.84,0a20.27,20.27,0,0,0,2.21-.26A2,2,0,0,0,168,122a3.19,3.19,0,0,0-.17-2.88,3.24,3.24,0,0,0-2.34-1.47Z"/><path class="cls-4" d="M164.52,124.58a16.36,16.36,0,0,1-1.75-.09l-.26-.06a2.26,2.26,0,0,1-1.41-2.76,1,1,0,0,1,1-.72h0s.64,0,1.32,0l.9,0a14.09,14.09,0,0,0,1.8-.26.83.83,0,0,1,.22,0h.12a2.24,2.24,0,0,1,1.6,1,2.18,2.18,0,0,1,.09,2,1,1,0,0,1-.76.64s-1,.17-2.1.25l-.77,0Z"/><path class="cls-5" d="M166.34,121.67a1.1,1.1,0,0,1,.87,1.65,19.19,19.19,0,0,1-2,.24l-.7,0c-.86,0-1.64-.08-1.64-.08a1.28,1.28,0,0,1-.82-1.55s.65,0,1.36,0l1,0a15,15,0,0,0,2-.29m0-2a2.2,2.2,0,0,0-.44,0h0a11.76,11.76,0,0,1-1.64.24l-.84,0c-.66,0-1.26,0-1.28,0h-.08a2,2,0,0,0-1.92,1.44,3.23,3.23,0,0,0,2,4,2,2,0,0,0,.53.13s.89.09,1.84.09c.28,0,.56,0,.83,0a19.5,19.5,0,0,0,2.21-.26,2,2,0,0,0,1.52-1.26,3.09,3.09,0,0,0-2.51-4.35Z"/><path class="cls-4" d="M163.94,126.52a.92.92,0,0,1-.36-.07,2.25,2.25,0,0,1-1.41-2.76,1,1,0,0,1,1-.72h0s.63,0,1.32,0l.9,0a13,13,0,0,0,1.67-.24,1,1,0,0,1,.44-.1,1,1,0,0,1,.53.15,1.4,1.4,0,0,1,.66,1.4,1,1,0,0,1-.59.75s-.83.37-1.76.74-1.49.58-1.88.7l-.06,0A.93.93,0,0,1,163.94,126.52Z"/><path class="cls-5" d="M167.5,123.64a.43.43,0,0,1,.2.39l-1.73.72c-.91.37-1.93.72-1.93.72l-.1,0a1.28,1.28,0,0,1-.82-1.55s.66,0,1.37,0c.32,0,.66,0,.95,0a13.71,13.71,0,0,0,2-.28l-.41.21.41-.21h0l.09,0m0-2a2.11,2.11,0,0,0-.74.14,11.15,11.15,0,0,1-1.43.2l-.84,0c-.66,0-1.27,0-1.28,0h-.09a2,2,0,0,0-1.91,1.44,3.23,3.23,0,0,0,2,4,2,2,0,0,0,1.62-.07l1.88-.7c.94-.38,1.78-.75,1.78-.75a2,2,0,0,0,1.17-1.5,2.38,2.38,0,0,0-1.11-2.42,2,2,0,0,0-1.06-.3Z"/><path class="cls-4" d="M165.47,128.4a1,1,0,0,1-.69-1.73,16,16,0,0,0,2.37-2.89,1,1,0,0,1,.85-.48h.05a2.11,2.11,0,0,1,1.73,1.08,2.16,2.16,0,0,1-.54,2.35.88.88,0,0,1-.24.19,17.59,17.59,0,0,1-3.2,1.42A1,1,0,0,1,165.47,128.4Z"/><path class="cls-5" d="M168,124.3a1.18,1.18,0,0,1,.9.54c.26.51-.39,1.21-.39,1.21a17.57,17.57,0,0,1-3,1.35,17.14,17.14,0,0,0,2.53-3.1m0-2a2,2,0,0,0-1.71,1,14.85,14.85,0,0,1-2.2,2.68,2,2,0,0,0-.33,2.5,2,2,0,0,0,1.71,1,2.17,2.17,0,0,0,.66-.11,19.43,19.43,0,0,0,3.36-1.5,2.19,2.19,0,0,0,.48-.37,2.91,2.91,0,0,0-1.86-5.11Z"/><path class="cls-4" d="M165,128.5h-.15a2.57,2.57,0,0,1-1.8-1.18,2.08,2.08,0,0,1,.3-2.25.91.91,0,0,1,.43-.32s1.13-.42,1.91-.73c.63-.25,1.37-.58,1.6-.69a1.06,1.06,0,0,1,.42-.09,1,1,0,0,1,.86,1.51c-.14.23-.32.51-.56.85a26.92,26.92,0,0,1-2.3,2.62A1,1,0,0,1,165,128.5Z"/><path class="cls-5" d="M167.73,124.23h0m0,0a8.71,8.71,0,0,1-.52.78A26.77,26.77,0,0,1,165,127.5a1.57,1.57,0,0,1-1.07-.66,1.18,1.18,0,0,1,.2-1.16l1.93-.74c.65-.26,1.4-.6,1.65-.71m0-2h-.19a2,2,0,0,0-.68.19c-.21.09-.91.41-1.52.65-.77.31-1.89.72-1.89.72a2,2,0,0,0-.87.64,3.09,3.09,0,0,0-.4,3.33,3.52,3.52,0,0,0,2.55,1.71,1.37,1.37,0,0,0,.29,0,2,2,0,0,0,1.42-.59,28.29,28.29,0,0,0,2.4-2.73c.22-.31.41-.59.57-.86a2,2,0,0,0-1.65-3.09Zm0,4Z"/><path class="cls-4" d="M165.69,129.84a1,1,0,0,1-.75-.34,2.52,2.52,0,0,1-.73-1.8,1,1,0,0,1,.66-.94s1.13-.42,1.91-.73a11.11,11.11,0,0,0,1.41-.73,1,1,0,0,1,.51-.14.8.8,0,0,1,.27,0,2,2,0,0,1,1.43,1.63,1,1,0,0,1-.59,1.15l-.4.17a.78.78,0,0,1-.22.12l-.13.07-.38.19-.18.05-.69.32-.16,0-.73.36-.09.06-.17.09a.94.94,0,0,1-.32.15l-.11.07A1.06,1.06,0,0,1,165.69,129.84Z"/><path class="cls-5" d="M168.7,126.16a1.09,1.09,0,0,1,.73.9l-.46.19-.14-.22v.31c-.15.06-.33.18-.52.26l-.27-.15.13.19-.76.35-.19-.14-.07.24-.58.29-.27-.12,0,.24c-.08.05-.18.09-.25.14l-.1-.25-.1.32-.19.13a1.52,1.52,0,0,1-.47-1.14s1.14-.42,1.93-.74a13.78,13.78,0,0,0,1.55-.8m0-2a2,2,0,0,0-1,.29h0a10.63,10.63,0,0,1-1.26.65c-.77.31-1.88.72-1.89.72a2,2,0,0,0-1.3,1.89,3.44,3.44,0,0,0,1,2.45,2,2,0,0,0,2.58.36h0a1.37,1.37,0,0,0,.32-.16l.23-.12.06,0,0,0,.53-.26.06,0,.17-.07.35-.15.26-.13.24-.08a4.44,4.44,0,0,0,.49-.24l.06,0a1.71,1.71,0,0,0,.27-.14l.31-.13a2,2,0,0,0,1.18-2.31,3,3,0,0,0-2.13-2.37,2,2,0,0,0-.54-.07Z"/><path class="cls-6" d="M68.83,125.21a2.27,2.27,0,0,0,2-.28,2.89,2.89,0,0,0,1.12-1.46,15.08,15.08,0,0,1-4.64-1.22A8.88,8.88,0,0,0,68.83,125.21Z"/><path class="cls-7" d="M70.49,119.51a2.55,2.55,0,0,0-1.92.48,4.15,4.15,0,0,0-1.37,1.76,21.87,21.87,0,0,0,3.69,1.18,9.29,9.29,0,0,0,1.2.15c-.13-.23-.52-1-.81-1.61S70.49,119.51,70.49,119.51Z"/><path class="cls-8" d="M66.82,122.12a5.69,5.69,0,0,0-2,1.32l.16.16.52-.07-.44.27c.06.06.11.16.17.23l.42-.2-.27.41c.1.14.26.39.35.55l.4-.07-.28.33c.1.18.32.55.41.73l.35-.29-.32.44c.09.19.25.34.32.49l.53-.19-.41.32.21.45a3.77,3.77,0,0,0,1.7-1.48,6.4,6.4,0,0,1-1-1.44C67.27,123.29,66.82,122.12,66.82,122.12Z"/><path class="cls-9" d="M74.9,117.77a2.65,2.65,0,0,0,.29-.4,2.43,2.43,0,0,0-.28-.14l-.48-.11c-.32-.07-.65-.12-1-.16a5.46,5.46,0,0,0-2.14,1.59,3,3,0,0,0-.4.73l0-.06s.35,1.07.76,2,.81,1.72.81,1.72a1.59,1.59,0,0,0,.71-.51l0,.06a20.22,20.22,0,0,0,.65-3,7.74,7.74,0,0,1,.18-.77A5.4,5.4,0,0,1,74.9,117.77Z"/><path class="cls-10" d="M78.27,119.24a16.51,16.51,0,0,0,1.42-1.87,3.45,3.45,0,0,0-3.68,0,10.72,10.72,0,0,1-1.31,1.87,3.31,3.31,0,0,0-.34.52c-.16.57,0,.92-.15,1.39l-.16.71a3.24,3.24,0,0,0,.47-.13l.23-.09c.08,0,.19-.09.17,0a.11.11,0,0,1,0,0h0v0s0,0,.1,0a4.26,4.26,0,0,0,1-.29A18.87,18.87,0,0,0,78.27,119.24Z"/><path class="cls-11" d="M82.77,119.24a16.51,16.51,0,0,0,1.42-1.87,3.45,3.45,0,0,0-3.68,0,10.72,10.72,0,0,1-1.31,1.87c-.76.85-2.14,2.05-2.14,2.05a4.39,4.39,0,0,0,3.45,0A18.87,18.87,0,0,0,82.77,119.24Z"/><path class="cls-12" d="M87.27,119.24a16.51,16.51,0,0,0,1.42-1.87,3.45,3.45,0,0,0-3.68,0,10.72,10.72,0,0,1-1.31,1.87c-.76.85-2.14,2.05-2.14,2.05a4.39,4.39,0,0,0,3.45,0A18.87,18.87,0,0,0,87.27,119.24Z"/><path class="cls-13" d="M91.77,119.24a16.51,16.51,0,0,0,1.42-1.87,3.45,3.45,0,0,0-3.68,0,10.72,10.72,0,0,1-1.31,1.87c-.77.85-2.14,2.05-2.14,2.05a4.38,4.38,0,0,0,3.45,0A18.87,18.87,0,0,0,91.77,119.24Z"/><path class="cls-14" d="M96.27,119.24a16.51,16.51,0,0,0,1.42-1.87,3.45,3.45,0,0,0-3.68,0,10.72,10.72,0,0,1-1.31,1.87c-.77.85-2.14,2.05-2.14,2.05a4.38,4.38,0,0,0,3.45,0A19.74,19.74,0,0,0,96.27,119.24Z"/><path class="cls-15" d="M100.76,119.24a17.44,17.44,0,0,0,1.43-1.87,3.45,3.45,0,0,0-3.68,0,10.72,10.72,0,0,1-1.31,1.87c-.77.85-2.14,2.05-2.14,2.05a4.38,4.38,0,0,0,3.45,0A19.13,19.13,0,0,0,100.76,119.24Z"/><path class="cls-16" d="M105.26,119.24a16.51,16.51,0,0,0,1.42-1.87,3.43,3.43,0,0,0-3.67,0,10.72,10.72,0,0,1-1.31,1.87c-.77.85-2.14,2.05-2.14,2.05a4.38,4.38,0,0,0,3.45,0A19.13,19.13,0,0,0,105.26,119.24Z"/><path class="cls-17" d="M109.76,119.24a16.51,16.51,0,0,0,1.42-1.87,3.45,3.45,0,0,0-3.68,0,10.11,10.11,0,0,1-1.31,1.87c-.76.85-2.13,2.05-2.13,2.05a4.36,4.36,0,0,0,3.44,0A18.87,18.87,0,0,0,109.76,119.24Z"/><path class="cls-18" d="M114.26,119.24a16.51,16.51,0,0,0,1.42-1.87,3.45,3.45,0,0,0-3.68,0,10.11,10.11,0,0,1-1.31,1.87c-.76.85-2.14,2.05-2.14,2.05a4.39,4.39,0,0,0,3.45,0A18.87,18.87,0,0,0,114.26,119.24Z"/><path class="cls-19" d="M118.76,119.24a16.51,16.51,0,0,0,1.42-1.87,3.45,3.45,0,0,0-3.68,0,10.11,10.11,0,0,1-1.31,1.87c-.76.85-2.14,2.05-2.14,2.05a4.39,4.39,0,0,0,3.45,0A18.87,18.87,0,0,0,118.76,119.24Z"/><path class="cls-20" d="M123.26,119.24a16.51,16.51,0,0,0,1.42-1.87,3.45,3.45,0,0,0-3.68,0,10.11,10.11,0,0,1-1.31,1.87c-.76.85-2.14,2.05-2.14,2.05a4.39,4.39,0,0,0,3.45,0A18.87,18.87,0,0,0,123.26,119.24Z"/><path class="cls-21" d="M127.76,119.24a16.51,16.51,0,0,0,1.42-1.87,3.45,3.45,0,0,0-3.68,0,10.72,10.72,0,0,1-1.31,1.87c-.76.85-2.14,2.05-2.14,2.05a4.39,4.39,0,0,0,3.45,0A18.87,18.87,0,0,0,127.76,119.24Z"/><path class="cls-22" d="M132.26,119.24a16.51,16.51,0,0,0,1.42-1.87,3.45,3.45,0,0,0-3.68,0,10.72,10.72,0,0,1-1.31,1.87c-.76.85-2.14,2.05-2.14,2.05a4.39,4.39,0,0,0,3.45,0A18.87,18.87,0,0,0,132.26,119.24Z"/><path class="cls-23" d="M136.76,119.24a16.51,16.51,0,0,0,1.42-1.87,3.45,3.45,0,0,0-3.68,0,10.72,10.72,0,0,1-1.31,1.87c-.76.85-2.14,2.05-2.14,2.05a4.39,4.39,0,0,0,3.45,0A18.87,18.87,0,0,0,136.76,119.24Z"/><path class="cls-24" d="M141.26,119.24a16.51,16.51,0,0,0,1.42-1.87,3.45,3.45,0,0,0-3.68,0,10.72,10.72,0,0,1-1.31,1.87c-.76.85-2.14,2.05-2.14,2.05a4.39,4.39,0,0,0,3.45,0A18.87,18.87,0,0,0,141.26,119.24Z"/><path class="cls-25" d="M145.76,119.24a16.51,16.51,0,0,0,1.42-1.87,3.45,3.45,0,0,0-3.68,0,10.72,10.72,0,0,1-1.31,1.87c-.76.85-2.14,2.05-2.14,2.05a4.39,4.39,0,0,0,3.45,0A18.87,18.87,0,0,0,145.76,119.24Z"/><path class="cls-26" d="M150.26,119.24a16.51,16.51,0,0,0,1.42-1.87,3.45,3.45,0,0,0-3.68,0,10.72,10.72,0,0,1-1.31,1.87c-.76.85-2.14,2.05-2.14,2.05a4.39,4.39,0,0,0,3.45,0A18.87,18.87,0,0,0,150.26,119.24Z"/><path class="cls-27" d="M154.76,119.24a16.51,16.51,0,0,0,1.42-1.87,3.45,3.45,0,0,0-3.68,0,10.72,10.72,0,0,1-1.31,1.87c-.77.85-2.14,2.05-2.14,2.05a4.38,4.38,0,0,0,3.45,0A18.87,18.87,0,0,0,154.76,119.24Z"/><path class="cls-28" d="M159.25,119.24a16,16,0,0,0,1.43-1.87,3.45,3.45,0,0,0-3.68,0,10.72,10.72,0,0,1-1.31,1.87c-.77.85-2.14,2.05-2.14,2.05a4.38,4.38,0,0,0,3.45,0A19.13,19.13,0,0,0,159.25,119.24Z"/><path class="cls-29" d="M158.05,121.29a4.38,4.38,0,0,0,3.45,0v-3.92a10.72,10.72,0,0,1-1.31,1.87C159.42,120.09,158.05,121.29,158.05,121.29Z"/><path class="cls-30" d="M164.16,121.54a19.19,19.19,0,0,0,2-.24,1.11,1.11,0,0,0-.88-1.65l-3.46,1.83A16.76,16.76,0,0,0,164.16,121.54Z"/><path class="cls-31" d="M165.22,123.56a19.19,19.19,0,0,0,2-.24,1.1,1.1,0,0,0-.87-1.65,15,15,0,0,1-2,.29c-.93.05-2.32,0-2.32,0a1.28,1.28,0,0,0,.82,1.55A16.58,16.58,0,0,0,165.22,123.56Z"/><path class="cls-32" d="M164,125.47s1-.35,1.93-.72l1.73-.72a.43.43,0,0,0-.2-.39l-.5.26.41-.21a15.26,15.26,0,0,1-2,.29c-.93,0-2.32,0-2.32,0a1.28,1.28,0,0,0,.82,1.55Z"/><path class="cls-33" d="M168.51,126.05s.65-.7.39-1.21a1.18,1.18,0,0,0-.9-.54,17.14,17.14,0,0,1-2.53,3.1A17.57,17.57,0,0,0,168.51,126.05Z"/><path class="cls-34" d="M167.73,124.23c-.25.11-1,.45-1.65.71l-1.93.74a1.18,1.18,0,0,0-.2,1.16,1.57,1.57,0,0,0,1.07.66,26.77,26.77,0,0,0,2.19-2.49A8.71,8.71,0,0,0,167.73,124.23Z"/><path class="cls-35" d="M168.7,126.16a13.78,13.78,0,0,1-1.55.8c-.79.32-1.93.74-1.93.74a1.52,1.52,0,0,0,.47,1.14l.19-.13.1-.32.1.25c.07,0,.17-.09.25-.14l0-.24.27.12.58-.29.07-.24.19.14.76-.35-.13-.19.27.15c.19-.08.37-.2.52-.26V127l.14.22.46-.19A1.09,1.09,0,0,0,168.7,126.16Z"/><path class="cls-2" d="M27.41,139.14a2.87,2.87,0,0,1,2.38-5.22L45.41,141l-1.82,5.47Z"/><polygon class="cls-3" points="52.59 150.61 43.59 146.51 45.41 141.04 55.06 145.43 52.59 150.61"/><path class="cls-36" d="M53.4,144.66s.73,3.6-2.47,4.84a5.45,5.45,0,0,0,3.7,2.32s9.14-10.09,7.34-13.16-5.11-2-6.94.41A9.22,9.22,0,0,0,53.4,144.66Z"/><path class="cls-2" d="M20.81,86c0,11.11,9.62,16.58,24.22,16.58,7.58,0,11.57-1.16,14.9-3.82A14.47,14.47,0,0,0,65.7,87.23c0-6.41-4-10.7-8.53-14.44C53.82,70,49.74,66.9,44.83,66.9,30.24,66.9,20.81,74.9,20.81,86Z"/><path class="cls-37" d="M49.31,74.28s3.15,2.22,3.54,4.65c1.13-2.42,3.41-2,4.32,0,1.64,3.54-2.27,4.32-2.27,4.32"/><ellipse class="cls-5" cx="37.31" cy="81.38" rx="1.84" ry="1.07" transform="translate(-35.69 29.56) rotate(-30)"/><ellipse class="cls-5" cx="57.63" cy="77.5" rx="0.75" ry="1.3" transform="translate(-38.3 88.66) rotate(-60)"/><path class="cls-38" d="M20.81,86c0-11.11,9.43-19.11,24-19.11,5.27,0,9,3.14,12.34,5.89h0a110,110,0,0,1-20.32-.66,14.48,14.48,0,0,0,7.32,2.15,16.62,16.62,0,0,1-10.79,1.25,12.36,12.36,0,0,1-4.83,9.16,3.56,3.56,0,1,0-1.14,6.93,3.63,3.63,0,0,0,1.24-.22l3.44,9.3C25,98.24,20.81,93.36,20.81,86Z"/><path class="cls-37" d="M53.44,93.38s.84-5.21,3.35-5.21,3.35,4.65,3.35,4.65"/><path class="cls-39" d="M18.27,84.5c0-11.11,8.46-20.29,23.05-20.29,5.27,0,12.5,5.83,15.85,8.58h0s-8.24-8.09-19.87-2.06c0,0-1.92.74-5.5,4.79a13.72,13.72,0,0,0-3.25,9.17,3.56,3.56,0,1,0-1.14,6.93A17.67,17.67,0,0,0,27,98.21C21,94.5,18.27,91.85,18.27,84.5Z"/><path class="cls-39" d="M55.59,71.51c-20-6.6-27.78,11.17-28.17,13,3.15-14.82,19-29.65,28.17-27.28,7.11,1.84,6,13,3.22,17C57.17,72.79,55.59,71.51,55.59,71.51Z"/><circle class="cls-36" cx="25.45" cy="101.46" r="1.97"/><circle class="cls-36" cx="21.78" cy="106.21" r="1.97"/><circle class="cls-36" cx="18.26" cy="110.93" r="1.97"/><polygon class="cls-36" points="15.86 114.65 11.55 116.68 16.18 118.51 15.86 114.65"/><path class="cls-2" d="M23.85,139.74a2.87,2.87,0,0,1,2.38-5.22l15.63,7.12L40,147.11Z"/><polygon class="cls-3" points="49.03 151.21 40.03 147.11 41.86 141.64 51.51 146.04 49.03 151.21"/><path class="cls-36" d="M49.85,145.26s.73,3.6-2.47,4.84a5.47,5.47,0,0,0,3.7,2.33s9.14-10.1,7.34-13.17-5.11-2-7,.41A9.25,9.25,0,0,0,49.85,145.26Z"/><path class="cls-2" d="M74.58,122a3.22,3.22,0,0,1-1-.18L39.83,110a3.19,3.19,0,0,1,2.1-6l33.71,11.75A3.19,3.19,0,0,1,74.58,122Z"/><path class="cls-40" d="M34,134.45c-4.76,1.45-6.59,4-6.1,8.53-5.56-1.94-10.19-1.94-14.66-5.6-3.88-3.17-5.91-8.62-2.55-14.07l17.48,8Z"/><path class="cls-3" d="M32.1,100.7s-17.41,13.82-21.4,22.61c5.27,6.65,17.48,8,17.48,8L40,112.89l5.38,2c2-4.84,2.66-5.91,6.1-8.87C47.38,103.18,41,102,41,102Z"/><line class="cls-37" x1="40.03" y1="112.89" x2="37.31" y2="111.97"/><path class="cls-36" d="M191,147.83c-1.89.9-2,2.63-2.49,5.42s-.89,3.89,0,6,7.47,2.69,8.47,0-2.59-6.28-2.59-6.28.8-3.08,0-4.22S192.87,146.94,191,147.83Z"/><path class="cls-2" d="M172.26,136.17a2.87,2.87,0,1,0-3.78-4.32l-12.92,11.31,3.32,4.72Z"/><polygon class="cls-3" points="151.44 154.39 158.88 147.88 155.56 143.16 147.58 150.15 151.44 154.39"/><path class="cls-36" d="M149,148.92s.34,3.67,3.76,3.93a5.46,5.46,0,0,1-2.88,3.29s-11.66-7-10.81-10.5,4.32-3.36,6.77-1.6A9.24,9.24,0,0,1,149,148.92Z"/><path class="cls-2" d="M203.56,141.37c0-11.29-14.78-13.91-15.41-14a2.76,2.76,0,0,0-.92,5.44c.11,0,10.81,2,10.81,8.58a8.09,8.09,0,0,1-.75,3.58L202,148A13.5,13.5,0,0,0,203.56,141.37Z"/><path class="cls-3" d="M191.93,148.84c-1.51.2-1.82,1.34-1.62,2.85s.62,2.65,2,2.65a2.19,2.19,0,0,0,.36,0A13,13,0,0,0,202,148L197.29,145A7.35,7.35,0,0,1,191.93,148.84Z"/><path class="cls-40" d="M161.89,135.67c6.67,3.73,10.63,3.47,10.63,3.47a16,16,0,0,1,10.91-4.82c6.65-.07,12.34,5.19,12.34,5.19s3.31-.33,7.79-5.19a32.1,32.1,0,0,0-10.84-6.67l-19.48-2.58S168.21,128.18,161.89,135.67Z"/><path class="cls-3" d="M171.77,126.1c9.91,3.73,22.63,2.22,22.63,2.22s-1-13.64-1.68-31.34-17.28,0-17.28,0A212.66,212.66,0,0,0,171.77,126.1Z"/><path class="cls-2" d="M206.56,82.23c0,5.28-1.42,10.45-4.57,13.46-3.94,3.76-10.34,4.7-17,4.7S171.9,99,168,95.22c-3.1-3-3.56-7.51-3.56-12.74,0-11.89,8.76-21.77,20.65-21.77A21.51,21.51,0,0,1,206.56,82.23Z"/><path class="cls-41" d="M199,83.54a2.94,2.94,0,0,1,1.9-.39c1.87.27,3.12,2.36,2.79,4.68s-2.12,4-4,3.71a8.94,8.94,0,0,1-.74,6.31A23.83,23.83,0,0,0,202,95.69c3.15-3,4.57-8.18,4.57-13.46A21.51,21.51,0,0,0,185,60.71c-9.77,0-19.37,6.82-20.65,16.6l3,3.24,5.09-4.22,3.21,4.22,4.61-3.66L184,81.22l3.39-3.77,3.6,4.19,3.35-2.36Z"/><path class="cls-3" d="M199,83.54a2.94,2.94,0,0,1,1.9-.39c1.87.27,3.12,2.36,2.79,4.68l1.88,1.74c1.58-.63,3.47-5.66,3.47-8.52C209,69.16,197.36,58,185.48,58c-9.77,0-18.88,7.6-20.34,15Z"/><path class="cls-2" d="M172,81.27a13.46,13.46,0,0,0-.73,5.9c-1.19-1.11-4.68.07-3.63,2.91,1.25,3.43,4.89,1.13,4.89,1.13"/><ellipse class="cls-5" cx="167.43" cy="83.12" rx="1.84" ry="1.07" transform="translate(-17.26 54.31) rotate(-17.54)"/><ellipse class="cls-5" cx="186.82" cy="84.28" rx="1.07" ry="1.84" transform="translate(50.16 237.03) rotate(-72.46)"/><path class="cls-37" d="M165.14,73s-9.78-4-13.69-13.25"/><path class="cls-2" d="M174,95.68s5.45-1.26,7.69,0"/><path class="cls-2" d="M163.53,121a2.77,2.77,0,0,1-3.14-1.87c-.72-1.61-.33-3.43.87-4.08l29.43-15.94c1.2-.64,2.74.13,3.46,1.74s.33,3.43-.87,4.07l-29.43,15.94Z"/><path class="cls-3" d="M185.25,110.7s8.58-2.75,9.71-4.16c2.33-2.93.7-8.83-3.35-9s-10.6,5.53-10.6,5.53Z"/><line class="cls-3" x1="67.27" y1="103.43" x2="79.69" y2="109.95"/><line class="cls-3" x1="69.59" y1="98.21" x2="81.56" y2="105.44"/><line class="cls-3" x1="203.56" y1="109.95" x2="203.56" y2="124.3"/><line class="cls-3" x1="209" y1="109.95" x2="209" y2="127"/><g class="cls-42"><polygon class="cls-43" points="230.93 210.92 593.02 210.92 612.04 265.65 212.14 265.65 230.93 210.92"/><polygon class="cls-44" points="212.14 265.65 230.93 210.92 320.18 210.92 310.71 265.65 212.14 265.65"/><polygon class="cls-43" points="212.14 265.65 230.93 210.92 593.02 210.92 612.04 265.65 612.04 289.1 211.38 289.1 211.38 265.65 212.14 265.65"/></g></svg>