<svg id="レイヤー_1" data-name="レイヤー 1" xmlns="http://www.w3.org/2000/svg" xmlns:xlink="http://www.w3.org/1999/xlink" viewBox="0 0 218 218"><defs><style>.cls-1,.cls-6{fill:none;}.cls-2{clip-path:url(#clip-path);}.cls-10,.cls-3{fill:#fff;}.cls-4{fill:#ed811b;}.cls-10,.cls-11,.cls-4,.cls-6,.cls-7,.cls-8{stroke:#42210b;}.cls-10,.cls-11,.cls-4,.cls-6,.cls-7,.cls-8,.cls-9{stroke-linecap:round;stroke-linejoin:round;stroke-width:2px;}.cls-5{fill:#efefef;}.cls-7{fill:#736357;}.cls-8{fill:#f5dcbe;}.cls-9{fill:#333;stroke:#40220f;}.cls-11{fill:#2c3493;}</style><clipPath id="clip-path"><rect id="SVGID" class="cls-1" x="9" y="9" width="200" height="200" rx="10"/></clipPath></defs><title>10-3-1 回転跳び</title><g class="cls-2"><path class="cls-3" d="M123.52,121.31,44,130.48l37.94,7.15,87.76-11-43-5.26A13,13,0,0,0,123.52,121.31Z"/><polygon class="cls-4" points="42.2 145.3 34.83 180.66 89.08 192.99 82.47 152.84 42.2 145.3"/><polygon class="cls-4" points="176.25 175.03 89.08 192.99 82.47 152.84 169.7 139.84 176.25 175.03"/><polygon class="cls-3" points="82.47 152.84 42.2 145.3 44 130.48 81.94 137.63 82.47 152.84"/><polygon class="cls-3" points="82.47 152.84 169.7 139.84 169.7 126.58 81.94 137.63 82.47 152.84"/><path class="cls-5" d="M82.07,152.84l-39.87-7,1.18-9.12a4.65,4.65,0,0,1,5.52-3.8l29,5.13a4.48,4.48,0,0,1,3.81,4.17Z"/><path class="cls-5" d="M83.75,152.84l85.95-12.43v-9.19a3.13,3.13,0,0,0-3.56-3.05l-80,9.77a3.11,3.11,0,0,0-2.77,3.16Z"/><path class="cls-6" d="M124,121.25l-72.41,8.36a9.68,9.68,0,0,0-8.5,8.45l-.88,7.24h.07l-.07.51,39.87,7v-.07l.4.07,1.27-.19v.19l85.95-12.43v-9.19h0a5.23,5.23,0,0,0-4.6-5.2l-38.87-4.76A9.87,9.87,0,0,0,124,121.25Z"/><polygon class="cls-4" points="89.08 192.99 92.39 213.15 179.97 193.15 176.25 175.03 89.08 192.99"/><polygon class="cls-4" points="89.08 192.99 34.83 180.66 30.96 199.22 92.39 213.15 89.08 192.99"/><path class="cls-7" d="M156.68,106.61c4.83,0,12.67-8.85,10.67-13.69s-13.84-3.33-13.84-3.33S151.85,106.61,156.68,106.61Z"/><path class="cls-8" d="M158.37,105c0-8.41-1.49-15.76-7.31-20.25-5-3.85-13.74-5.45-20.94-5.45-15.6,0-28.25,10.1-28.25,25.7S113.76,130,129.36,130,158.37,120.56,158.37,105Z"/><path class="cls-9" d="M129.73,130.63c6.36,0,17-.77,22.94-6.16,7.75-7-6.39-35.61-13.88-42.36l-2.25,4-3.75-4-1.5,3-2.85-3-3.15,3-2.75-3L121,85.36a10.78,10.78,0,0,1-3.25-5.5c-9,3.42-18.58,14.5-18.5,23.25C99.5,125.66,117.41,130.61,129.73,130.63Z"/><path class="cls-8" d="M152.17,101.46c-.31,1.1-.84,1.84-1.57,2-1.58.32-3.46-2.3-4.19-5.85s0-6.71,1.55-7a2.27,2.27,0,0,1,2,1"/><path class="cls-10" d="M99.68,108.26a33.39,33.39,0,0,1,18.66-1.78,5.63,5.63,0,0,1,2.17.13c.77.75,1.21,2,2.71,2s.74-1.6,1.94-1.81,1.67,1.84,2.77,1.76-.24-1.91,1.09-2,18.87-.17,29.35-1.65c2.31,18.8-12.13,24.8-26.64,25.67C111.39,131.85,99.68,118.92,99.68,108.26Z"/><path class="cls-8" d="M166.51,79.16a5,5,0,0,1-4.27-7.59h0a10.3,10.3,0,0,0,.87-2.58c-5.78-1.83-14.75-5.6-18.35-12.16s-1.32-21.75-.54-26.26a5,5,0,0,1,9.85,1.7c-1.45,8.42-1.7,17.64-.54,19.75,1.39,2.54,7,6.24,16,8.37a5,5,0,0,1,3.84,4.55,21.29,21.29,0,0,1-2.55,11.81A5,5,0,0,1,166.51,79.16Z"/><path class="cls-8" d="M86.59,125.39c-2.74-.3-1.62-5.23.45-7l1.16-1a15.06,15.06,0,0,1,5.15-2.76C89.61,77.45,107,69.16,109.64,68.12l2-.81a5,5,0,1,1,3.85,9.23l-2,.83a1.36,1.36,0,0,1-.29.11c-1,.44-14,7.06-9.35,40.26a5,5,0,0,1-4.31,5.64C96.38,123.78,89.63,125.73,86.59,125.39Zm8.28-.62-.13.11Z"/><path class="cls-8" d="M160.45,141.76a5,5,0,0,1-4.29-7.57l.65-1.09a5,5,0,0,0-.56-4.14,4.94,4.94,0,0,1-.62-4c.42-1.58,1.08-3.33,1.84-5.35,2.52-6.73,6-15.94,2.73-24.17s-20.12-13.72-25.76-15a5,5,0,1,1,2.14-9.76c2.76.6,27.11,6.33,32.92,21,4.66,11.82.25,23.58-2.67,31.36-.36,1-.7,1.87-1,2.67a15.06,15.06,0,0,1,.07,11.51c-.09.19-.18.37-.28.54l-.9,1.5A5,5,0,0,1,160.45,141.76Z"/><path class="cls-11" d="M113.51,18.09c3.84-7.5,7.34-14.67,18.67-13s19.78,13,21.06,22.33a121.2,121.2,0,0,1,1.27,14.67,90.18,90.18,0,0,0-11.6-.3C137.35,42.09,109.68,25.59,113.51,18.09Z"/><path class="cls-10" d="M108.8,81.34c12.21-4.92,26.67-.58,37.11,2.92a36.16,36.16,0,0,0,4.44-10.67,30.9,30.9,0,0,0-13-4.67c1.83-12.83,4.16-23.66,9.5-37.16-7.34-12.5-28.34-18.17-36-13-2.5,13.5-2.76,32.59-2,46.5a10.27,10.27,0,0,0-6.87,5.33A18.3,18.3,0,0,0,108.8,81.34Z"/></g></svg>