<svg id="レイヤー_1" data-name="レイヤー 1" xmlns="http://www.w3.org/2000/svg" viewBox="0 0 494 239.99"><defs><style>.cls-1,.cls-7{fill:#e7211a;}.cls-2{fill:#f2d9bd;}.cls-10,.cls-11,.cls-12,.cls-13,.cls-2,.cls-3,.cls-4,.cls-5,.cls-6,.cls-7,.cls-9{stroke:#41210d;stroke-linecap:round;stroke-linejoin:round;}.cls-3{fill:#eda8ab;}.cls-4{fill:#e6e6e5;}.cls-5{fill:#fff;}.cls-6{fill:#5f3819;}.cls-8{fill:#41210d;}.cls-9{fill:#0863a7;}.cls-10{fill:#f2e634;}.cls-11{fill:#1b9a47;}.cls-12{fill:#d71718;}.cls-13{fill:#f4e028;}</style></defs><title>コントロール</title><path class="cls-1" d="M359.58,142.61a303.65,303.65,0,0,0-39.24-53.82c-22.67-24.79-58.91-55-102.82-58.44C155.7,25.57,114.29,70.52,95.11,97.74l-3.27-2.3c9.07-12.87,24.29-31.29,45.31-45.93,25.2-17.55,52.34-25.33,80.67-23.15,45.25,3.5,82.37,34.45,105.54,59.8a307.83,307.83,0,0,1,39.74,54.55Z"/><polygon class="cls-1" points="90.83 90.18 84 111.56 100.61 96.46 90.83 90.18"/><path class="cls-2" d="M451.66,197.53a19.28,19.28,0,0,1-5.28-.73c-12.23-3.45-17.71-18-17.94-18.66a4.71,4.71,0,0,1,8.84-3.26c1.11,3,5.38,11.1,11.68,12.86,4,1.12,8.71-.41,13.94-4.56a4.71,4.71,0,1,1,5.85,7.39C462.89,195.2,457.16,197.53,451.66,197.53Z"/><path class="cls-3" d="M444.31,172.56s4,10,9,14c-2,7-9,11-9,11a64.63,64.63,0,0,1-15.12-11.12"/><path class="cls-4" d="M475.6,199.38l2.47-1.36c1.58-.87.43-4.53-1.35-7.18a7.37,7.37,0,0,1-2.46-3.63c-1-3.75-3.76-8-4.55-8.24-1.28-.37-3.3,1.82-3.3,1.82Z"/><path class="cls-5" d="M463.11,182.61c3.47,2.39,6.2,7.33,5.18,9.72a5.65,5.65,0,0,0,8.13,6.6c1.58-.87.43-4.53-1.35-7.18l-7-11.87A10,10,0,0,0,463.11,182.61Z"/><path class="cls-2" d="M402.54,211.59a4.61,4.61,0,0,1-1.54-.26,4.71,4.71,0,0,1-2.91-6c7.57-21.87,28.4-27.65,38.36-27.65a4.71,4.71,0,0,1,0,9.42c-.95,0-22.24.43-29.47,21.31A4.71,4.71,0,0,1,402.54,211.59Z"/><path class="cls-4" d="M386.49,203.85l-1.07,2.61c-.68,1.67,2.51,3.79,5.56,4.74a7.39,7.39,0,0,1,4.19,1.28c3.13,2.3,7.95,3.89,8.71,3.57,1.23-.52,1.43-3.49,1.43-3.49Z"/><path class="cls-5" d="M406.73,209.07c-4.2.32-9.43-1.82-10.13-4.31a5.65,5.65,0,0,0-10.47,0c-.68,1.67,2.51,3.79,5.56,4.74l12.91,4.84A9.91,9.91,0,0,0,406.73,209.07Z"/><path class="cls-2" d="M381.31,165.56a5,5,0,0,1-1.31-9.82c20.59-5.62,31.82-15.76,31.94-15.87a5,5,0,0,1,6.75,7.38c-.52.48-13.15,11.89-36.06,18.13A5,5,0,0,1,381.31,165.56Z"/><path class="cls-5" d="M415.31,134.56s-8,8-15,11c3,8,8,11,8,11l14-9Z"/><path class="cls-5" d="M418.31,128.56c-7,2-2,38,3,48,15,2,20-10,20-10-3-4-4-9-6-16C431.93,138.71,422.63,127.33,418.31,128.56Z"/><path class="cls-2" d="M437.31,139.22a85.57,85.57,0,0,0,27.46,7.36,5,5,0,0,1-.45,10l-.46,0a95.08,95.08,0,0,1-29-7.44"/><path class="cls-2" d="M430.08,135.39a57.7,57.7,0,0,0,6.56,3.52l.67.31"/><path class="cls-5" d="M425.81,134.23a11.11,11.11,0,0,1,6.5,1.33,60.47,60.47,0,0,0,10,4,13.34,13.34,0,0,1-4,13,75.13,75.13,0,0,1-8-3.93"/><path class="cls-3" d="M447.31,179.56c1-7-3.36-11.86-6-16-3.06-4.81-5-9-5.45-12.08.45.08-1.55-.74-1.55-.74s1,5.82,0,4.82c-6.51-6.52-8-13-7.7-19.67s-5.3-11.33-5.3-2.33a36.4,36.4,0,0,0,3,15A41.31,41.31,0,0,1,413.86,151c.45,5.54.81,12.84,5.45,21.54.65,1.21,1.31,2.37,2,3.49a37.05,37.05,0,0,0-11,7.51c1,8,8,13,8,13s4.73-4.71,13.61-6.4C432,190.25,446.31,186.56,447.31,179.56Z"/><path class="cls-6" d="M407.6,99.56s-3-4-9,0c-7.67,5.11-9,37-8,44,3,2,10.28,2,16-2-5.72-14-5-35-4-36s4,0,4,0Z"/><path class="cls-2" d="M444.31,113.56c0,15.46-12.53,24-28,24-7.65,0-16.94-1-22-5s-6-11.19-6-19a28,28,0,0,1,56,0Z"/><path class="cls-2" d="M398.73,123a2,2,0,0,1-1.42.59,2,2,0,1,1,1.34-3.48"/><path class="cls-7" d="M397.31,127.56a31.51,31.51,0,0,0,13,1s-1,4-6,4S397.31,127.56,397.31,127.56Z"/><circle class="cls-8" cx="413.31" cy="118.56" r="1.5"/><circle class="cls-8" cx="392.31" cy="117.56" r="1.5"/><path class="cls-6" d="M393.39,97.49c4.92-8.93,13.92-13.93,26.92-12.93s21,12,24,20c1.62,4.31,1.95,14.1-2,21-3.37,5.91-10.46,9.16-16,11,4-8,6-17,1-27S405.31,94.56,393.39,97.49Z"/><path class="cls-6" d="M434.31,99.56s3-4,9,0c7.68,5.11,9,37,8,44-3,2-10.27,2-16-2,5.73-14,5-35,4-36s-4,0-4,0Z"/><path class="cls-7" d="M432.31,99.56a4.38,4.38,0,0,1,3-1c0,4,0,4,2,7a7.74,7.74,0,0,1-3,1S432.31,104.56,432.31,99.56Z"/><path class="cls-2" d="M425.81,115a4.16,4.16,0,0,1,3.11-1.46c2.43,0,4.39,2.24,4.39,5s-2,5-4.39,5a4,4,0,0,1-2.93-1.28"/><path class="cls-6" d="M414.81,102.06s-9.5,9.5-27,11c-.5-4.5,0-12,5.5-17.5s13-5,23.5.5c5.5-2.5,9.5,2.5,11,8s1.5,8.5,0,14A49.21,49.21,0,0,1,414.81,102.06Z"/><ellipse class="cls-9" cx="280.34" cy="53.02" rx="7" ry="9.33" transform="translate(152.51 308.1) rotate(-74.09)"/><polygon class="cls-10" points="379.12 221.58 353.63 180.41 366.6 180.45 392.31 222 379.12 221.58"/><path class="cls-11" d="M67.24,207.09c-21.38,0-38.12-7-38.12-15.9s16.74-15.9,38.12-15.9,38.11,7,38.11,15.9S88.61,207.09,67.24,207.09Zm0-28.8c-21,0-35.12,6.67-35.12,12.9s14.11,12.9,35.12,12.9,35.11-6.67,35.11-12.9S88.24,178.29,67.24,178.29Z"/><path class="cls-12" d="M67.24,204.27c-21.38,0-38.12-7-38.12-15.9s16.74-15.91,38.12-15.91,38.11,7,38.11,15.91S88.61,204.27,67.24,204.27Zm0-28.81c-21,0-35.12,6.67-35.12,12.91s14.11,12.9,35.12,12.9,35.11-6.67,35.11-12.9S88.24,175.46,67.24,175.46Z"/><path class="cls-9" d="M67.24,201.45c-21.38,0-38.12-7-38.12-15.91s16.74-15.9,38.12-15.9,38.11,7,38.11,15.9S88.61,201.45,67.24,201.45Zm0-28.81c-21,0-35.12,6.67-35.12,12.9s14.11,12.91,35.12,12.91,35.11-6.68,35.11-12.91S88.24,172.64,67.24,172.64Z"/><path class="cls-13" d="M67.24,198.62c-21.38,0-38.12-7-38.12-15.9s16.74-15.9,38.12-15.9,38.11,7,38.11,15.9S88.61,198.62,67.24,198.62Zm0-28.8c-21,0-35.12,6.67-35.12,12.9s14.11,12.9,35.12,12.9,35.11-6.67,35.11-12.9S88.24,169.82,67.24,169.82Z"/><path class="cls-11" d="M67.24,195.8c-21.38,0-38.12-7-38.12-15.9S45.86,164,67.24,164s38.11,7,38.11,15.91S88.61,195.8,67.24,195.8Zm0-28.81c-21,0-35.12,6.67-35.12,12.91s14.11,12.9,35.12,12.9,35.11-6.67,35.11-12.9S88.24,167,67.24,167Z"/><path class="cls-12" d="M67.24,193c-21.38,0-38.12-7-38.12-15.91s16.74-15.9,38.12-15.9,38.11,7,38.11,15.9S88.61,193,67.24,193Zm0-28.81c-21,0-35.12,6.67-35.12,12.9S46.23,190,67.24,190s35.11-6.68,35.11-12.91S88.24,164.17,67.24,164.17Z"/><path class="cls-9" d="M67.24,190.15c-21.38,0-38.12-7-38.12-15.9s16.74-15.9,38.12-15.9,38.11,7,38.11,15.9S88.61,190.15,67.24,190.15Zm0-28.8c-21,0-35.12,6.67-35.12,12.9s14.11,12.9,35.12,12.9,35.11-6.67,35.11-12.9S88.24,161.35,67.24,161.35Z"/><path class="cls-13" d="M67.24,187.33c-21.38,0-38.12-7-38.12-15.9s16.74-15.91,38.12-15.91,38.11,7,38.11,15.91S88.61,187.33,67.24,187.33Zm0-28.81c-21,0-35.12,6.68-35.12,12.91s14.11,12.9,35.12,12.9,35.11-6.67,35.11-12.9S88.24,158.52,67.24,158.52Z"/></svg>