<svg id="レイヤー_1" data-name="レイヤー 1" xmlns="http://www.w3.org/2000/svg" xmlns:xlink="http://www.w3.org/1999/xlink" viewBox="0 0 218 218"><defs><style>.cls-1,.cls-15{fill:none;}.cls-2{clip-path:url(#clip-path);}.cls-3{fill:#fff1e1;}.cls-4{clip-path:url(#clip-path-2);}.cls-5{fill:#015123;}.cls-19,.cls-6{fill:#42210b;}.cls-7{fill:#00a148;}.cls-8{fill:#f5dcbe;}.cls-10,.cls-8,.cls-9{stroke:#42210b;}.cls-10,.cls-11,.cls-12,.cls-13,.cls-14,.cls-15,.cls-17,.cls-18,.cls-19,.cls-8,.cls-9{stroke-linecap:round;stroke-linejoin:round;stroke-width:2px;}.cls-13,.cls-9{fill:#fff;}.cls-10{fill:#534741;}.cls-11{fill:#f1d8bc;}.cls-11,.cls-12,.cls-13,.cls-14,.cls-15,.cls-17,.cls-18,.cls-19{stroke:#40210d;}.cls-12{fill:#7f4f21;}.cls-14{fill:#273288;}.cls-16{fill:#40210d;}.cls-17{fill:#6a3906;}.cls-18{fill:#e50012;}</style><clipPath id="clip-path"><rect id="SVGID" class="cls-1" x="-229.98" y="-245.44" width="200" height="200" rx="10"/></clipPath><clipPath id="clip-path-2"><rect id="SVGID-2" data-name="SVGID" class="cls-1" x="8.38" y="10.42" width="200" height="200" rx="10"/></clipPath></defs><title>2-2-3 支える</title><g class="cls-2"><ellipse class="cls-3" cx="-132.97" cy="-145.99" rx="173.57" ry="160.5"/></g><g class="cls-4"><path class="cls-5" d="M142.66,243.33c-.22,0-.45,0-.67,0L-6.77,226.64a5.92,5.92,0,0,1-5.3-5.23A5.92,5.92,0,0,1-8.21,215l122-45.76a6.11,6.11,0,0,1,2.12-.38h.39l59.56-3.84H176a3.24,3.24,0,0,1,2.6,1.93c1.81,3.29,1.56,10.9,0,13.77L148,240.13A6,6,0,0,1,142.66,243.33Z"/><path class="cls-6" d="M175.87,166.07c3.6.28,3.52,11.05,1.83,14.23l-30.62,59.37a5,5,0,0,1-4.42,2.66l-.56,0L-6.66,225.65A5,5,0,0,1-7.86,216l122-45.75a5,5,0,0,1,1.76-.32l.39,0,59.56-3.85m0-2h-.13l-59.43,3.84h-.39a6.93,6.93,0,0,0-2.47.45l-122,45.75a6.9,6.9,0,0,0-4.5,7.43,6.9,6.9,0,0,0,6.18,6.1l148.76,16.65a6.81,6.81,0,0,0,.78.05,7,7,0,0,0,6.19-3.72l30.62-59.39c1.65-3.09,1.94-11.09,0-14.71a4.23,4.23,0,0,0-3.4-2.44Z"/><path class="cls-7" d="M142.66,234.34a5,5,0,0,1-.67,0L-6.77,217.65a5.92,5.92,0,0,1-5.3-5.23,5.93,5.93,0,0,1,3.86-6.37l122-45.75a5.9,5.9,0,0,1,2.12-.39l.47,0,57.55,4.54a6,6,0,0,1,4.83,8.82L148,231.15A6,6,0,0,1,142.66,234.34Z"/><path class="cls-6" d="M115.92,160.91l.39,0,57.55,4.53a5,5,0,0,1,4,7.36l-30.81,57.86a5,5,0,0,1-4.42,2.66l-.56,0L-6.66,216.66A5,5,0,0,1-7.86,207l122-45.75a5,5,0,0,1,1.76-.32m0-2a6.93,6.93,0,0,0-2.47.45l-122,45.75a6.9,6.9,0,0,0-4.5,7.43,6.91,6.91,0,0,0,6.18,6.11L141.88,235.3c.26,0,.52,0,.78,0a7,7,0,0,0,6.19-3.72l30.81-57.86A7,7,0,0,0,174,163.47l-57.55-4.53-.55,0Z"/><path class="cls-5" d="M177.7,180.3l-30.62,59.37a5,5,0,0,1-5,2.63L-6.66,225.65A5,5,0,0,1-7.86,216l122-45.75a4.91,4.91,0,0,1,2.15-.3l59.56-3.85C179.47,166.35,179.39,177.12,177.7,180.3Z"/><path class="cls-7" d="M177.89,172.82l-30.81,57.86a5,5,0,0,1-5,2.63L-6.66,216.66A5,5,0,0,1-7.86,207l122-45.75a5.06,5.06,0,0,1,2.15-.3l57.55,4.53A5,5,0,0,1,177.89,172.82Z"/><path class="cls-8" d="M131.25,119.86a4.67,4.67,0,0,1,4.54,4.8L135,152.49a13.69,13.69,0,0,1-9.32-1.05l.75-27A4.67,4.67,0,0,1,131.25,119.86Z"/><path class="cls-9" d="M134.54,170a4.68,4.68,0,0,1-4.8,4.55,4.76,4.76,0,0,1-2.19-.62,4.67,4.67,0,0,1-2.35-4.18l.5-18.26a13.69,13.69,0,0,0,9.32,1.05Z"/><path class="cls-10" d="M133.42,174.73s2.82-4.45,1.24-8.81c-6.34,4.29-9.84-1.1-9.84-1.1l-3.48,8.87Z"/><path class="cls-10" d="M134.35,177.22c-.32,3.72-13.76,2.56-13.44-1.15a6.74,6.74,0,0,1,13.44,1.15Z"/><path class="cls-10" d="M134.8,174.93c-.32,3.71-13.76,2.56-13.44-1.15a6.74,6.74,0,1,1,13.44,1.15Z"/><path class="cls-8" d="M143.51,123a4.67,4.67,0,0,1,4.54,4.8l-.76,27.83a13.67,13.67,0,0,1-9.33-1.06l.75-27A4.67,4.67,0,0,1,143.51,123Z"/><path class="cls-9" d="M146.8,173.05a4.67,4.67,0,1,1-9.34-.26l.5-18.26a13.67,13.67,0,0,0,9.33,1.06Z"/><path class="cls-10" d="M145.68,177.83s2.82-4.46,1.24-8.81c-6.34,4.29-9.84-1.1-9.84-1.1l-3.48,8.87Z"/><path class="cls-10" d="M146.61,180.32c-.32,3.71-13.76,2.56-13.44-1.15a6.74,6.74,0,0,1,13.44,1.15Z"/><path class="cls-10" d="M147.06,178c-.32,3.71-13.76,2.56-13.44-1.16A6.74,6.74,0,0,1,147.06,178Z"/><path class="cls-11" d="M47.41,210.19A27.94,27.94,0,0,1,39.55,209a5,5,0,1,1,3-9.53c1.9.58,5.43,1.08,7.34.39C52.73,197,60.88,181,67,167.33a5,5,0,1,1,9.12,4.09c-15.41,34.36-20,36.59-21.56,37.32A16.59,16.59,0,0,1,47.41,210.19Z"/><path class="cls-12" d="M139.1,111.79c-.81,6.65-3,8.87-5.51,8.6s-4-4.57-3.47-9.6,2.69-7.59,5.17-7.32S139.72,106.66,139.1,111.79Z"/><path class="cls-11" d="M122.88,112.76c-8.58,5.93-16.84,11.39-16.94,11.46-1.85,1.27-1.91,5.27-.73,7.35a3.94,3.94,0,0,0,3.77,2.1c.59-.06,2,.94,2.57.58s7.81-6.89,16.2-14.56C128.18,114.57,125.21,113.12,122.88,112.76Z"/><path class="cls-13" d="M136.61,107c-1.42-1.88-4-1.12-4-1.12-3,2.17-6.39,4.57-9.74,6.89,2.33.36,5.3,1.81,4.87,6.93,2.86-2.62,5.83-5.35,8.7-8C136.45,111.68,138,108.87,136.61,107Z"/><path class="cls-13" d="M134.75,89.5s-8.68-1.81-13.12-5a67.54,67.54,0,0,1,8.42-16Z"/><path class="cls-14" d="M124,114.56s-2.35,9.65,2,18.41a14.12,14.12,0,0,0,7.94.26c7.6,2.11,18,.57,18,.57s4.09-7.09,1.58-20.61C143.78,110.51,124,114.56,124,114.56Z"/><line class="cls-15" x1="134" y1="133.23" x2="136.47" y2="126.36"/><path class="cls-13" d="M136.79,54.77c9.37,2.24,18,45,18.88,63.93-9.51,3.56-23.5,3.26-32.74-.1,1.24-17,3.93-38.26,7.64-51.28C132.83,59.38,133.24,53.92,136.79,54.77Z"/><path class="cls-12" d="M161.09,118.66c.68,7.88-1.33,11-4.26,11.27s-5.78-4.3-6.36-10.23,1.25-9.44,4.19-9.72S160.55,112.58,161.09,118.66Z"/><path class="cls-11" d="M138.68,120.57c-10.9,6.85-21.39,13.15-21.52,13.23-2.34,1.46-2.47,6-1,8.35a5,5,0,0,0,4.74,2.33c.74-.07,2.56,1.05,3.24.63s9.93-7.92,20.61-16.73C145.35,122.56,141.62,121,138.68,120.57Z"/><path class="cls-13" d="M156.08,113.86c-1.78-2.12-5-1.23-5-1.23-3.79,2.51-8.11,5.26-12.37,7.94,2.94.38,6.67,2,6.06,7.81,3.64-3,7.43-6.15,11.07-9.2C155.81,119.18,157.85,116,156.08,113.86Z"/><path class="cls-11" d="M154.09,83.18l6.15,33.6a4.23,4.23,0,0,1-8.32,1.52L146,85.8"/><path class="cls-13" d="M142,83.13s-.11,4.33,1.51,6.46c6.33-.37,9-1.12,13.5-3a25.51,25.51,0,0,0-3.91-13.32c-3-4.31-6.22-4.81-6.22-4.81"/><ellipse class="cls-11" cx="137.31" cy="71.54" rx="3.3" ry="4.76"/><path class="cls-11" d="M116.77,42.49A4.64,4.64,0,0,0,113,40.72c-2.69.11-4.77,2.74-4.64,5.87s2.42,5.59,5.12,5.48a4.52,4.52,0,0,0,3.26-1.67"/><path class="cls-11" d="M173.86,43.08c0,16.63-13.48,27.93-30.11,27.93-7.7,0-17.93-1.59-23.25-6.34-6.18-5.51-6.87-12.65-6.87-21.59a30.12,30.12,0,1,1,60.23,0Z"/><path class="cls-16" d="M124.2,21l8.32-2.64,10.17,3.57-1.81,8.29s-9.11-2-15.93-.54C120,27,124.2,21,124.2,21Z"/><path class="cls-17" d="M173.86,43.08a30.12,30.12,0,1,0-60.23,0c0,.23,0,.46,0,.69C116.16,31.25,126.84,29,126.84,29V20.69l3.43,7.39,2.64-7.39L134,28.22l4.36-6.87v8.32s27.26,2.71,20.37,37.91C167.85,62.75,173.86,54.33,173.86,43.08Z"/><path class="cls-11" d="M156.74,49.16a4.59,4.59,0,0,1,3.19-2.65c2.64-.55,5.3,1.49,5.95,4.56s-1,6-3.61,6.56a4.52,4.52,0,0,1-3.57-.81"/><path class="cls-11" d="M131.75,54.89a4,4,0,1,1,0-5.64"/><path class="cls-18" d="M128.69,61a18.52,18.52,0,0,0,9.77,0s-2.62,6-5.35,5.54S128.69,61,128.69,61Z"/><circle class="cls-16" cx="119.97" cy="47.37" r="1.85"/><circle class="cls-16" cx="148.36" cy="49.22" r="1.85"/><path class="cls-14" d="M117.72,153.17c7-2.44,13.34-8.57,15.34-12.94a15.52,15.52,0,0,0-8.34-14.2c-2.5-1.3-3.5,1.55-3.5,1.55-.83-5.85-5.83-10.68-11.66-9.18-3.17,3.5-13.17,11.65-13.17,11.65S110.72,155.61,117.72,153.17Z"/><path class="cls-15" d="M121.22,127.58a15,15,0,0,1-4.66,3.2"/><path class="cls-13" d="M80.39,130.78s12.33-1.64,19-4.75c5.66.88,15.21,6.8,19.5,16.2,3.29,7.21,2.28,17.7,1.33,22.14-7.5-3.76-17.5-6-31.5-7C75.89,147,80.39,130.78,80.39,130.78Z"/><path class="cls-11" d="M92.22,207.39h0a5,5,0,0,1-5-5c0-.72.07-7.19,2.41-11.65,1.14-2.18,3.54-4,6.87-6.51s10.06-7.62,10.06-10.51c0-3.64-6.17-11.6-11.89-16.88a5,5,0,1,1,6.78-7.35c2.52,2.32,15.11,14.42,15.11,24.23,0,7.87-8.11,14-14,18.48a42.56,42.56,0,0,0-4.13,3.35,20.06,20.06,0,0,0-1.18,6.85A5,5,0,0,1,92.22,207.39Z"/><path class="cls-13" d="M89.39,155.23a41.81,41.81,0,0,1,9,10.34c6.17-2.17,10.48-5.27,13-9.17a36.45,36.45,0,0,0-11-11.2"/><path class="cls-15" d="M98.27,143.44a32.46,32.46,0,0,0-.56-3.3l1,11.29A56.49,56.49,0,0,0,98.27,143.44Z"/><path class="cls-15" d="M98.68,151.73l0-.3c0,.1,0,.21,0,.31Z"/><path class="cls-19" d="M94.56,152.4s5.83,6.21,5,13.17-3.17,7-7,10.66-4.29,10.34-4.29,10.34-4-10.5-2.5-19.84A23,23,0,0,1,94.56,152.4Z"/><path class="cls-19" d="M51.22,160.61c-10.16,8.76-16.5,21.24-13.66,35.12-7.17-5.33-9.84-18.76-5.34-26.25S45.06,157.62,51.22,160.61Z"/><path class="cls-11" d="M96.52,143.55c1,8.66.29,17.78-5,23.07-4.89,4.87-14,6.21-22,7.14s-16.86,1.35-22.74-2.27c-6.39-3.92-9.49-12.26-10.5-20.92a30.33,30.33,0,1,1,60.26-7Z"/><path class="cls-11" d="M71.45,172.22a2.94,2.94,0,1,1-4.12.48"/><circle class="cls-16" cx="51.79" cy="169.37" r="1.62"/><circle class="cls-16" cx="81.24" cy="163.61" r="1.62"/><path class="cls-19" d="M57.39,151.07c17.9,4.25,40.58.77,41.26.67,0-.1,0-.21,0-.31l-1-11.29a32.08,32.08,0,0,0-63.17,10.73c.79,6.83,2.82,13.48,6.61,18.14A84.87,84.87,0,0,0,57.39,151.07Z"/></g></svg>