<svg id="レイヤー_1" data-name="レイヤー 1" xmlns="http://www.w3.org/2000/svg" xmlns:xlink="http://www.w3.org/1999/xlink" viewBox="0 0 218 218"><defs><style>.cls-1,.cls-10{fill:none;}.cls-2{clip-path:url(#clip-path);}.cls-3{fill:#00a0e9;}.cls-10,.cls-11,.cls-3,.cls-5,.cls-6,.cls-7,.cls-9{stroke:#42210b;stroke-linecap:round;stroke-linejoin:round;stroke-width:2px;}.cls-4{clip-path:url(#clip-path-2);}.cls-5{fill:#f5dcbe;}.cls-6{fill:#2c3493;}.cls-7{fill:#fff;}.cls-8{fill:#42210b;}.cls-9{fill:#603813;}.cls-11{fill:#00a148;}</style><clipPath id="clip-path"><rect id="SVGID" class="cls-1" x="9" y="-245.99" width="200" height="200" rx="10"/></clipPath><clipPath id="clip-path-2"><rect id="SVGID-2" data-name="SVGID" class="cls-1" x="9" y="9.54" width="200" height="200" rx="10"/></clipPath></defs><title>10-1-1 前転</title><g class="cls-2"><path class="cls-3" d="M126.29,71.68a5.49,5.49,0,0,1-5.5-5.49l-.14-228.34a5.5,5.5,0,0,1,5.5-5.5h0a5.5,5.5,0,0,1,5.5,5.5l.14,228.33a5.5,5.5,0,0,1-5.5,5.5Z"/></g><g class="cls-4"><path class="cls-5" d="M144.67,152.27c-2.49,0-4-.94-4-3.42,0-2.24,2.54-5,7-4.83-6.75-2.63-13.26-7-15.19-13.56-3.07-10.35,8.71-31.16,11.1-35.23a4.5,4.5,0,0,1,7.76,4.57c-5.93,10.09-11.53,23.71-10.23,28.1,1.92,6.48,9.49,9.89,16.18,12.9l1.36.62a2.8,2.8,0,0,1,1.39,3.66C159.46,146.14,149.25,151.68,144.67,152.27Z"/><path class="cls-5" d="M96.08,149.27a33.26,33.26,0,0,1-6.56-.69c-2.42-.54-4.06-2-3.52-4.44a4.82,4.82,0,0,1,5.71-3.37c1.86.4,5.65,1,7.67.37,2.25-.75,10.76-6.46,12.75-14.68,1.52-6.32-4.26-17.18-6.4-20.49a4.5,4.5,0,1,1,7.54-4.91c1.06,1.63,10.31,16.28,7.6,27.51-2.92,12.1-14.67,18.45-19,19.88A18.7,18.7,0,0,1,96.08,149.27Z"/><path class="cls-6" d="M146.18,62.52s12.65-3.34,19.1,8.15c4.57,8.15,1.05,29.18-11.95,43.35-6-3.17-10-4-18.66-5.92A49.22,49.22,0,0,1,142.33,94Z"/><path class="cls-7" d="M97,85.68c6.68-8.16,34.17-25.83,51.33-25.83.34,17-1.47,30.77-5,40-3.72-.83-14-.5-25.66,2.33a19.46,19.46,0,0,0,2,7.84L106,113S90.32,93.85,97,85.68Z"/><path class="cls-5" d="M89,135.35a2.57,2.57,0,0,1-.21-.89c-.66.34-1.33.67-2,1a29.17,29.17,0,0,1-38.59-14.55c-6.64-14.68.56-30.44,15.23-37.08S93,82.91,99.68,97.58c3.53,7.81,6.22,16,3.51,23.11-1.68,4.39-5.7,8.35-10.33,11.39a2.59,2.59,0,0,1,.94,1.1,2.63,2.63,0,0,1-4.8,2.17Z"/><circle class="cls-8" cx="84.6" cy="119.23" r="1.92"/><path class="cls-9" d="M76.25,102.8c-5.35,6-13.63,21-9.1,34.27L64,142.34l-.6-4-3.33,3.44.47-4.62S49.65,133,45.4,118.31a30.38,30.38,0,0,1,16.78-36.5c14.24-6.44,25.9-2.17,33.94,9.73C85.36,95.12,81.6,96.83,76.25,102.8Z"/><path class="cls-10" d="M97.54,115.48s2.74,1.22,3.69,5.74"/><path class="cls-5" d="M81.9,103.71a3.45,3.45,0,0,0,0-2.66c-.9-2-3.67-2.68-6.19-1.54s-3.82,3.67-2.92,5.66A3.5,3.5,0,0,0,74.83,107"/><rect class="cls-11" x="-7.67" y="149.27" width="234.67" height="14.46"/></g></svg>