<svg id="レイヤー_1" data-name="レイヤー 1" xmlns="http://www.w3.org/2000/svg" xmlns:xlink="http://www.w3.org/1999/xlink" viewBox="0 0 218 218"><defs><style>.cls-1,.cls-10,.cls-13{fill:none;}.cls-2{clip-path:url(#clip-path);}.cls-3{fill:#fff1e1;}.cls-4{clip-path:url(#clip-path-2);}.cls-5,.cls-6{fill:#c9a063;}.cls-11,.cls-13,.cls-14,.cls-5,.cls-6,.cls-7,.cls-8{stroke:#42210b;}.cls-5{stroke-miterlimit:10;}.cls-10,.cls-11,.cls-13,.cls-14,.cls-5,.cls-6,.cls-7,.cls-8{stroke-width:2px;}.cls-10,.cls-11,.cls-13,.cls-14,.cls-6,.cls-7,.cls-8{stroke-linecap:round;stroke-linejoin:round;}.cls-7{fill:#f5dcbe;}.cls-15,.cls-8{fill:#42210b;}.cls-9{fill:#273288;}.cls-10{stroke:#40210d;}.cls-11,.cls-12{fill:#fff;}.cls-14{fill:#603813;}</style><clipPath id="clip-path"><rect id="SVGID" class="cls-1" x="247" y="-230" width="200" height="200" rx="10"/></clipPath><clipPath id="clip-path-2"><rect id="SVGID-2" data-name="SVGID" class="cls-1" x="9" y="9" width="200" height="200" rx="10"/></clipPath></defs><title>2-1-4 肋木を使う</title><g class="cls-2"><ellipse class="cls-3" cx="353.04" cy="-126.98" rx="173.57" ry="160.5"/></g><g class="cls-4"><line class="cls-5" x1="-57.45" y1="42.24" x2="189.31" y2="42.24"/><rect class="cls-5" x="-57.45" y="38.32" width="246.77" height="7.83"/><line class="cls-5" x1="-57.45" y1="97.51" x2="189.31" y2="97.51"/><rect class="cls-5" x="-57.45" y="93.6" width="246.77" height="7.83"/><line class="cls-5" x1="-57.45" y1="119.07" x2="189.31" y2="119.07"/><rect class="cls-5" x="-57.45" y="115.15" width="246.77" height="7.83"/><line class="cls-5" x1="-57.45" y1="140.63" x2="189.31" y2="140.63"/><rect class="cls-5" x="-57.45" y="136.71" width="246.77" height="7.83"/><line class="cls-5" x1="-57.45" y1="162.18" x2="189.31" y2="162.18"/><rect class="cls-5" x="-57.45" y="158.26" width="246.77" height="7.83"/><line class="cls-5" x1="-57.45" y1="183.74" x2="189.31" y2="183.74"/><rect class="cls-5" x="-57.45" y="179.82" width="246.77" height="7.83"/><line class="cls-5" x1="-57.45" y1="205.29" x2="189.31" y2="205.29"/><rect class="cls-5" x="-57.45" y="201.38" width="246.77" height="7.83"/><rect class="cls-6" x="181.14" y="32.67" width="12.53" height="277.67"/><path class="cls-7" d="M78.08,203.17a10.26,10.26,0,0,1-3.5-3c-1.31-1.87-2.47-5.07-.56-9.71,4.55-11.06,16.63-9.7,22.39-7.43a3.91,3.91,0,0,1-2.85,7.28c-1-.38-9.6-3.46-12.31,3.13-.25.61-.63,1.72-.27,2.24,1,1.38,5.39,2.21,8.75,2.08a3.91,3.91,0,0,1,.32,7.81C88.6,205.58,82.57,205.67,78.08,203.17Z"/><path class="cls-7" d="M95.77,223.71a4.25,4.25,0,0,1-.39-.25,3.91,3.91,0,0,1-.9-5.45c10.16-14.16,11.66-25.74,11.68-25.86a3.91,3.91,0,0,1,7.77.9c-.07.55-1.66,13.59-13.09,29.52A3.91,3.91,0,0,1,95.77,223.71Z"/><path class="cls-8" d="M88.07,197.7c2,1.64,3.24,3.52,1.13,7.84,0,3.33,3.62,4.82,4.72,3.73,2-8.45-.34-10.88-1.69-12S89.47,196.53,88.07,197.7Z"/><path class="cls-8" d="M101.14,222.14c-3.38,5.74-9.64,4.17-11.15,2.42s1.77-5.73,5.4-7.84C95.21,219.92,97.07,222.11,101.14,222.14Z"/><path class="cls-9" d="M89.53,179.57a23.55,23.55,0,0,0-11.62,3.58,157.25,157.25,0,0,0,13.67,10.53c3.1-2.24,9.56-3.9,11.72-1.51,2.5,2.79.55,4.39-1.57,7.07,5.3,2.2,7.71,2.86,14.45,3.69,4.91-9.45,4.75-14.71,2.45-21.62"/><path class="cls-10" d="M89.53,179.57a23.55,23.55,0,0,0-11.62,3.58,157.25,157.25,0,0,0,13.67,10.53c3.1-2.24,9.56-3.9,11.72-1.51,2.5,2.79.55,4.39-1.57,7.07,5.3,2.2,7.71,2.86,14.45,3.69,4.91-9.45,4.75-14.71,2.45-21.62"/><path class="cls-7" d="M75.18,164.88a15.84,15.84,0,0,1-8.5-2.38c-9.42-5.87-10.26-20.09-10.32-21.69a4.57,4.57,0,0,1,9.13-.38c.14,3,1.49,11.5,6,14.32,2.41,1.48,5.83,1.26,10.17-.66a4.57,4.57,0,1,1,3.71,8.35A25.34,25.34,0,0,1,75.18,164.88Z"/><path class="cls-11" d="M89.53,179.57s-4-8.41-5.08-15.49a15.7,15.7,0,0,1-7.31,1.44A34,34,0,0,1,74.74,155a31.93,31.93,0,0,0,8.46-1.18s0-9.55,6.4-9.23,9.82,5.37,15.12,12.54,11.61,17.29,13.91,24.2a132,132,0,0,1-13.86,1.07c-5.73,0-15.24-2.81-15.24-2.81s2.89-.46,7.77,1.5"/><path class="cls-7" d="M99.74,152.15a30.45,30.45,0,0,0,2.84-1.68,55.19,55.19,0,0,0,22.72-30.71,4.57,4.57,0,0,1,8.79,2.51A63.77,63.77,0,0,1,108,157.88"/><path class="cls-12" d="M104.21,161.63,111,160.2a16.59,16.59,0,0,0-3-9.3A51.92,51.92,0,0,0,95.55,154"/><path class="cls-13" d="M104.21,161.63,111,160.2a16.59,16.59,0,0,0-3-9.3A51.92,51.92,0,0,0,95.55,154"/><ellipse class="cls-14" cx="119.58" cy="117.75" rx="7.71" ry="8.04" transform="translate(-43.55 78.33) rotate(-30.97)"/><path class="cls-7" d="M119.47,135.33a27.53,27.53,0,0,0-25.53-29.4c-15.16-1.07-24.91,9.38-26,24.55a34.33,34.33,0,0,0,0,4.53,3.28,3.28,0,1,0,1.1,5.88c2.76,8.37,10.29,12.82,21.48,13.61C105.68,155.57,118.4,150.49,119.47,135.33Z"/><circle class="cls-15" cx="83.54" cy="133.18" r="1.63"/><path class="cls-14" d="M96.16,154.6c19.45,3.34,31.24-16,21.37-34.45s-28.94-18.3-36.66-11.79c.69.33.65,4,.65,4l5.66.38.23,5.12L94.27,119l-.75,4.71,4.56,1-1.52,3.92s4,.7,4.21,1.33a24.32,24.32,0,0,1,1,3.48,18.22,18.22,0,0,1,.31,4.6c-.07,1.3-5.17,5-5.17,5l3.32,3.39-4.44,2.36,2.65,1.47-4.06,2.56Z"/><path class="cls-7" d="M99.21,130.81a3.15,3.15,0,0,1,2.26-.84c1.92.08,3.4,2,3.3,4.28s-1.75,4.05-3.67,4a3.24,3.24,0,0,1-2.42-1.31"/></g></svg>