<svg id="レイヤー_1" data-name="レイヤー 1" xmlns="http://www.w3.org/2000/svg" xmlns:xlink="http://www.w3.org/1999/xlink" viewBox="0 0 218 218"><defs><style>.cls-1,.cls-9{fill:none;}.cls-2{clip-path:url(#clip-path);}.cls-3,.cls-4{fill:#c9a063;}.cls-10,.cls-11,.cls-12,.cls-13,.cls-15,.cls-16,.cls-3,.cls-4,.cls-5,.cls-9{stroke:#42210b;stroke-width:2px;}.cls-3{stroke-miterlimit:10;}.cls-10,.cls-11,.cls-12,.cls-13,.cls-15,.cls-16,.cls-4,.cls-5,.cls-9{stroke-linecap:round;stroke-linejoin:round;}.cls-5{fill:#ed811b;}.cls-11,.cls-6{fill:#fff;}.cls-7{fill:#efefef;}.cls-8{fill:#c9caca;}.cls-10{fill:#f5dcbe;}.cls-12,.cls-14{fill:#42210b;}.cls-13{fill:#2c3493;}.cls-15{fill:#534741;}.cls-16{fill:#e60012;}</style><clipPath id="clip-path"><rect id="SVGID" class="cls-1" x="9" y="-241.49" width="200" height="200" rx="10"/></clipPath></defs><title>2-4-2 跳びあがる</title><g class="cls-2"><rect class="cls-3" x="-57.45" y="-6" width="246.77" height="7.83"/><line class="cls-3" x1="-57.45" y1="19.47" x2="189.31" y2="19.47"/><rect class="cls-3" x="-57.45" y="15.56" width="246.77" height="7.83"/><rect class="cls-4" x="181.14" y="-217.82" width="12.53" height="277.67"/></g><polygon class="cls-5" points="85.81 201.66 39.31 179.37 43.32 156.53 89.83 176.99 85.81 201.66"/><polygon class="cls-5" points="85.94 201.66 126.61 187.77 121.13 167.18 89.83 176.99 85.94 201.66"/><polygon class="cls-6" points="74.52 137.01 121.55 155 90.02 164.41 43.74 145.02 74.52 137.01"/><path class="cls-7" d="M90,176.89,43.74,156.53c-1.46-5.3,1.65-10.64,1.65-10.64l38,15.73a10.84,10.84,0,0,1,6.65,10Z"/><path class="cls-8" d="M90.25,177l31.3-9.81-1.64-11.69-22.12,6.6a10.56,10.56,0,0,0-7.54,10.12Z"/><path class="cls-6" d="M74.1,137l47,18-29.54,8.81a5.78,5.78,0,0,1-3.91-.21L43.32,145Z"/><path class="cls-9" d="M66.76,138.92l-16.08,4.19a9.83,9.83,0,0,0-7.36,9.52v3.9L89.6,176.89l.23.1,31.3-9.81v-6a8.94,8.94,0,0,0-5.74-8.35l-34.2-13.08A23.66,23.66,0,0,0,66.76,138.92Z"/><path class="cls-10" d="M71.62,107.81a4.05,4.05,0,0,1-1.49-.41,3.91,3.91,0,0,1-1.74-5.23c6.24-12.44,8.76-27.79,8.79-27.95a3.9,3.9,0,0,1,7.7,1.24c-.11.67-2.73,16.67-9.52,30.2A3.89,3.89,0,0,1,71.62,107.81Z"/><path class="cls-10" d="M79.82,128.1a29.1,29.1,0,0,1,.07-5.72C81,112.16,90.07,103.25,90.2,103.13a4.09,4.09,0,0,0-5.68-5.89c-.46.45-11.31,11-12.75,24.25a37.66,37.66,0,0,0-.17,6.29C73.55,128.35,77,129.07,79.82,128.1Z"/><path class="cls-11" d="M79.77,144.06a4.08,4.08,0,0,0,3.12-6.71c-.13-.16-2.53-3.24-3.07-9.25-2.82,1-6.27.25-8.22-.32.58,9.46,4.8,14.57,5,14.82A4.11,4.11,0,0,0,79.77,144.06Z"/><path class="cls-12" d="M84.75,138.19s5.48,1.58,5.48,4.56c0,1.3-2.47,2.51-4.46,4.55-2.54,2.6-1.43,5.3-4.74,5.95-1.71.34-5.55.95-8.55.13-2.77-.75-4.8-2.86-4.18-4.41,1.3-3.22,4.46-2.7,5.86-3.81A6.42,6.42,0,0,0,76,141.71,8.06,8.06,0,0,0,84.75,138.19Z"/><path class="cls-10" d="M91.06,128.77a29.21,29.21,0,0,1,.07-5.73c1.12-10.21,10.17-19.12,10.3-19.25a4.09,4.09,0,0,0-5.68-5.88c-.46.44-11.3,11-12.75,24.24a36.7,36.7,0,0,0-.16,6.3C84.79,129,88.23,129.74,91.06,128.77Z"/><path class="cls-11" d="M91,144.73A4.08,4.08,0,0,0,94.12,138c-.13-.16-2.52-3.25-3.06-9.25-2.83,1-6.27.25-8.22-.32.57,9.46,4.8,14.57,5,14.82A4.14,4.14,0,0,0,91,144.73Z"/><path class="cls-12" d="M96,138.86s5.48,1.58,5.48,4.55c0,1.31-2.47,2.52-4.46,4.56-2.54,2.6-1.43,5.3-4.74,5.95-1.72.33-5.55,1-8.55.13-2.77-.75-4.81-2.86-4.18-4.41,1.3-3.22,4.46-2.71,5.85-3.81a6.4,6.4,0,0,0,1.8-3.46A8,8,0,0,0,96,138.86Z"/><path class="cls-11" d="M105.47,136.82l5.17-8c-2.66-.75-6-4.5-2-7.78,3.27-2.71,6.36,0,7.44,1.6.49-2.66,3.45-7.61,8.8-4.39s1.62,9.11-2.48,9.71c4,1.26,4.06,5.23,1.57,6.46s-5.55.89-7.46-2.39Z"/><path class="cls-13" d="M73.9,111c2.62-3.19,8.87-2.59,10.56,1.39,4.5-2.4,7.79-2.33,11.4.67,5.46-2.5,6.79-3.79,8.66-7.83s0-9.82,0-9.82L80.7,96.77l.15,2.64S75.51,106.48,73.9,111Z"/><path class="cls-11" d="M79.21,63.06s-2.69,13-4,15.56c2.86,3.32,9.66,1.9,9.66,1.9Z"/><path class="cls-11" d="M79.43,61.47c4.53,19,4.16,27.11,1.42,37.94,6.78,4,24.51-1.45,24.51-1.45.12-17.44-9.78-30.74-16.15-37S74.89,42.42,79.43,61.47Z"/><path class="cls-10" d="M83.85,111a3.91,3.91,0,0,1-3.1-6.27c10.23-13.41,9.11-32.9,9.09-33.1a3.9,3.9,0,0,1,7.78-.5c.06.92,1.31,22.63-10.67,38.33A3.89,3.89,0,0,1,83.85,111Z"/><path class="cls-11" d="M89,70l-.89,8.17a33.07,33.07,0,0,0,11.11,2.4c.72-7.13.22-17.22-10-19.58"/><circle class="cls-10" cx="83.59" cy="62.05" r="3.06"/><circle class="cls-12" cx="105.83" cy="57.32" r="2.05"/><circle class="cls-12" cx="107.44" cy="63.36" r="2.05"/><circle class="cls-12" cx="109.14" cy="69.24" r="2.05"/><polygon class="cls-12" points="110.69 73.58 109.66 78.42 114.09 75.75 110.69 73.58"/><circle class="cls-12" cx="71.5" cy="59.72" r="2.05"/><circle class="cls-12" cx="69.89" cy="65.76" r="2.05"/><circle class="cls-12" cx="68.19" cy="71.64" r="2.05"/><polygon class="cls-12" points="66.64 75.97 67.67 80.82 63.24 78.15 66.64 75.97"/><path class="cls-10" d="M104.5,38.77c1.14,5.34.81,10.87-1.73,14.59-3.18,4.66-9.45,7-16.14,8.4S73.05,63.22,68.24,60.2C64.46,57.83,63,53.36,61.9,48.08c-2.55-12,4.18-23.91,16.21-26.46A22.25,22.25,0,0,1,104.5,38.77Z"/><ellipse class="cls-14" cx="88.84" cy="52.25" rx="1.1" ry="1.9" transform="translate(11.68 120.57) rotate(-71.99)"/><ellipse class="cls-14" cx="69.17" cy="55.46" rx="1.69" ry="0.98" transform="translate(-19.34 60.51) rotate(-41.99)"/><path class="cls-15" d="M78.11,21.62c-12,2.55-18.76,14.43-16.21,26.46q.24,1.14.51,2.22l2.94,2.1L70,47.52l7.14,3.35L79.41,47l7.07,1.3,1.82-4.67,6.44,2.53L96,44.22l2.22,2.07a3.47,3.47,0,0,1,5,4.71l.56.52c1.59-3.58,1.68-8.24.72-12.75A22.25,22.25,0,0,0,78.11,21.62Z"/><path class="cls-16" d="M77.44,20.32c-12,2.55-18.09,15.73-15.54,27.76q.24,1.14.51,2.22l12.81-.57,23-3.44a3.47,3.47,0,0,1,5.71,1.86c.22,1,0,1.24.77.74,1.28-.8,1.6-6.91.87-10.39C103,26.48,92.63,17.09,77.44,20.32Z"/><path class="cls-9" d="M78.67,58.89a3.1,3.1,0,0,1-1.07,1.66A3.14,3.14,0,1,1,75.47,55"/><path class="cls-16" d="M98.17,46.29s-32.66,2.4-37-2.77c-6.3.7-15.06,7.79-5.09,8.83C75.14,54.33,98.17,46.29,98.17,46.29Z"/><path class="cls-9" d="M135.82,87.72s48,12.2,51.72,63.52"/><path class="cls-9" d="M132.39,96.65s42.35,10.77,45.64,56"/></svg>