<svg id="レイヤー_1" data-name="レイヤー 1" xmlns="http://www.w3.org/2000/svg" viewBox="0 0 595 303.03"><defs><style>.cls-1{opacity:0.3;}.cls-10,.cls-11,.cls-12,.cls-13,.cls-14,.cls-15,.cls-2,.cls-3,.cls-4,.cls-5,.cls-6,.cls-7,.cls-8,.cls-9{fill:none;}.cls-10,.cls-11,.cls-12,.cls-13,.cls-14,.cls-15,.cls-16,.cls-17,.cls-18,.cls-19,.cls-2,.cls-20,.cls-21,.cls-22,.cls-23,.cls-24,.cls-26,.cls-3,.cls-4,.cls-5,.cls-6,.cls-7,.cls-8,.cls-9{stroke:#41210d;stroke-linecap:round;stroke-linejoin:round;}.cls-3{stroke-dasharray:6.17 6.17;}.cls-4{stroke-dasharray:6.05 6.05;}.cls-5{stroke-dasharray:6.29 6.29;}.cls-6{stroke-dasharray:6.02 6.02;}.cls-7{stroke-dasharray:5.71 5.71;}.cls-8{stroke-dasharray:5.34 5.34;}.cls-9{stroke-dasharray:5.08 5.08;}.cls-10{stroke-dasharray:6.9 6.9;}.cls-11{stroke-dasharray:6.87 6.87;}.cls-12{stroke-dasharray:7 7;}.cls-13{stroke-dasharray:5.2 5.2;}.cls-14{stroke-dasharray:5.49 5.49;}.cls-15{stroke-dasharray:5.86 5.86;}.cls-16{fill:#ef94ae;}.cls-17{fill:#f2d9bd;}.cls-18{fill:#eea778;}.cls-19{fill:#5f3819;}.cls-20{fill:#ba9946;}.cls-21{fill:#e6e6e5;}.cls-22{fill:#d71718;}.cls-23{fill:#4e4d4d;}.cls-24{fill:#8a6139;}.cls-25{fill:#41210d;}.cls-26{fill:#333;}</style></defs><title>リズム</title><g class="cls-1"><polyline class="cls-2" points="39.2 250.28 36.2 250.27 37.87 247.78"/><line class="cls-3" x1="41.3" y1="242.65" x2="60.19" y2="214.45"/><polyline class="cls-2" points="61.91 211.88 63.58 209.39 66.58 209.41"/><line class="cls-4" x1="72.63" y1="209.44" x2="529.34" y2="211.87"/><polyline class="cls-2" points="532.37 211.88 535.37 211.9 537.2 214.28"/><line class="cls-5" x1="541.03" y1="219.27" x2="562.12" y2="246.71"/><polyline class="cls-2" points="564.03 249.2 565.86 251.58 562.86 251.57"/><line class="cls-6" x1="556.84" y1="251.56" x2="42.21" y2="250.28"/><line class="cls-2" x1="112.2" y1="209.65" x2="110.81" y2="212.31"/><line class="cls-7" x1="108.17" y1="217.37" x2="93.68" y2="245.21"/><line class="cls-2" x1="92.36" y1="247.74" x2="90.98" y2="250.4"/><line class="cls-2" x1="160.48" y1="209.91" x2="159.44" y2="212.72"/><line class="cls-8" x1="157.57" y1="217.72" x2="147.32" y2="245.23"/><line class="cls-2" x1="146.39" y1="247.73" x2="145.34" y2="250.54"/><line class="cls-2" x1="208.45" y1="210.16" x2="207.78" y2="213.09"/><line class="cls-9" x1="206.67" y1="218.04" x2="200.52" y2="245.27"/><line class="cls-2" x1="199.96" y1="247.75" x2="199.3" y2="250.67"/><line class="cls-2" x1="256.09" y1="210.41" x2="255.85" y2="213.41"/><line class="cls-10" x1="255.29" y1="220.29" x2="253.36" y2="244.37"/><line class="cls-2" x1="253.08" y1="247.81" x2="252.84" y2="250.8"/><line class="cls-2" x1="303.41" y1="210.67" x2="303.6" y2="213.66"/><line class="cls-11" x1="304.04" y1="220.52" x2="305.58" y2="244.51"/><line class="cls-2" x1="305.8" y1="247.94" x2="305.99" y2="250.94"/><line class="cls-2" x1="350.42" y1="210.92" x2="351.03" y2="213.85"/><line class="cls-12" x1="352.45" y1="220.71" x2="357.42" y2="244.7"/><line class="cls-2" x1="358.13" y1="248.13" x2="358.74" y2="251.07"/><line class="cls-2" x1="397.12" y1="211.17" x2="398.1" y2="214"/><line class="cls-13" x1="399.82" y1="218.91" x2="409.25" y2="245.91"/><line class="cls-2" x1="410.11" y1="248.36" x2="411.1" y2="251.2"/><line class="cls-2" x1="443.5" y1="211.41" x2="444.82" y2="214.11"/><line class="cls-14" x1="447.24" y1="219.04" x2="460.54" y2="246.16"/><line class="cls-2" x1="461.75" y1="248.63" x2="463.07" y2="251.32"/><line class="cls-2" x1="489.59" y1="211.66" x2="491.19" y2="214.2"/><line class="cls-15" x1="494.31" y1="219.16" x2="511.49" y2="246.43"/><line class="cls-2" x1="513.06" y1="248.91" x2="514.66" y2="251.45"/></g><path class="cls-16" d="M98,228.81c-4,7.52-17.2,13.84-29.32,13.8s-17.83-6.42-12.89-14c4.74-7.23,17.54-12.82,28.77-12.77S101.83,221.61,98,228.81Z"/><path class="cls-16" d="M161.23,196.69c-2.38,6.15-13.16,11.27-24,11.21s-17.07-5.29-13.94-11.45c3-5.93,13.58-10.52,23.71-10.45S163.51,190.77,161.23,196.69Z"/><path class="cls-16" d="M199.56,229.22c-1.78,7.47-12.95,13.75-24.89,13.71s-19.4-6.38-16.71-13.88c2.58-7.18,13.58-12.74,24.65-12.69S201.28,222.05,199.56,229.22Z"/><path class="cls-16" d="M246.34,268.79c-.86,9.26-12.33,17.11-25.6,17.11s-22.4-7.87-20.43-17.16c1.89-8.87,13.26-15.74,25.46-15.71S247.17,260,246.34,268.79Z"/><path class="cls-16" d="M298.48,197.65c.31,6.11-8,11.19-18.68,11.13s-19-5.24-18.55-11.37C261.65,191.52,270,187,280,187S298.18,191.76,298.48,197.65Z"/><path class="cls-16" d="M349.86,229.82c1.44,7.4-6.8,13.62-18.48,13.58s-21.68-6.32-22.25-13.75c-.55-7.12,7.83-12.64,18.68-12.58S348.48,222.71,349.86,229.82Z"/><path class="cls-16" d="M399.26,230c2.48,7.39-4.81,13.58-16.4,13.55s-22.42-6.3-24.05-13.71c-1.56-7.1,6-12.6,16.74-12.55S396.88,222.93,399.26,230Z"/><path class="cls-16" d="M433.12,198.39c2.89,6.06-3.12,11.1-13.55,11.05s-20.77-5.21-23-11.28c-2.12-5.85,4.14-10.38,13.9-10.31S430.33,192.55,433.12,198.39Z"/><path class="cls-16" d="M520.77,268.87c5.61,9.08.05,16.76-12.68,16.76s-27-7.71-31.55-16.81c-4.37-8.69,1.76-15.44,13.5-15.41S515.42,260.21,520.77,268.87Z"/><path class="cls-16" d="M545.39,230.59c5.54,7.32,1,13.46-10.33,13.42s-24.56-6.24-29.27-13.57c-4.53-7,.51-12.5,11.07-12.45S540.08,223.57,545.39,230.59Z"/><path class="cls-17" d="M318.63,172.84a5.26,5.26,0,0,1-4.18-8.46c12.32-16.11.69-30.19.19-30.79a5.26,5.26,0,0,1,8-6.86c6.22,7.18,14.28,25.63.2,44A5.24,5.24,0,0,1,318.63,172.84Z"/><path class="cls-18" d="M330.32,139.52c-8.18,4.68-15.2,3.51-15.2,3.51l-4.67-14,14-5.84S330.32,131.34,330.32,139.52Z"/><path class="cls-19" d="M256.68,174.59s12.86-8.18,33.9-2.34,24.54-4.67,24.54-4.67l-9.35-7C271.87,157.06,256.68,174.59,256.68,174.59Z"/><path class="cls-20" d="M287.07,111.47c-4.68,2.34-5.84,10.52-1.17,14,4.68-1.17,7-5.85,7-5.85S290.58,113.81,287.07,111.47Z"/><path class="cls-17" d="M257.85,135.43a5.26,5.26,0,0,1-4-8.74c19.73-22.36,52.38-10.14,53.76-9.61a5.26,5.26,0,0,1-3.77,9.82h0c-.27-.1-27.24-10.09-42.1,6.75A5.24,5.24,0,0,1,257.85,135.43Z"/><path class="cls-21" d="M334.84,196l.57,3c.37,1.87-3.4,3.43-6.78,3.78a7.9,7.9,0,0,0-4.64.47c-3.74,1.75-9.1,2.4-9.83,1.9-1.18-.79-.76-3.93-.76-3.93Z"/><path class="cls-22" d="M312.63,197.22c4.32,1.2,10.22.06,11.47-2.4A6,6,0,0,1,335,197c.37,1.88-3.4,3.43-6.78,3.79l-14.47,2.37A10.57,10.57,0,0,1,312.63,197.22Z"/><path class="cls-17" d="M324.58,196.87a150.46,150.46,0,0,0-5.5-15.23,14.31,14.31,0,0,1-10.56,2.15,133.88,133.88,0,0,1,6,16.06,5.26,5.26,0,0,0,5.05,3.77,5.17,5.17,0,0,0,1.49-.22A5.26,5.26,0,0,0,324.58,196.87Z"/><path class="cls-23" d="M319.08,181.64a57,57,0,0,0-3.7-7.3c-4.86-7.84-17.09-17.06-18.47-18.09a5.26,5.26,0,1,0-6.28,8.44c3.3,2.46,12.57,10,15.82,15.2a37.78,37.78,0,0,1,2.07,3.9A14.31,14.31,0,0,0,319.08,181.64Z"/><path class="cls-17" d="M321.5,198.63l-14.92-14.4c-1.38,3.62-4.7,5.84-7.73,7.16L314.2,206.2a5.26,5.26,0,1,0,7.3-7.57Z"/><path class="cls-23" d="M306.58,184.23,282,160.46a5.26,5.26,0,1,0-7.31,7.57l24.2,23.36C301.88,190.07,305.2,187.85,306.58,184.23Z"/><path class="cls-24" d="M269.54,148.87c-12.86,11.69-12.86,25.72-12.86,25.72s25.71,7,33.9-2.34,15.19-11.69,24.54-4.67c-9.35-7-10.52-12.86-10.52-12.86S283.56,145.37,269.54,148.87Z"/><path class="cls-18" d="M267.2,151.21c15.19,5.85,38.26,5.72,38.26,5.72a46.52,46.52,0,0,1,9.66-18.58C325,126.67,342,122,332.66,113.81,297.59,111.47,277.72,132.51,267.2,151.21Z"/><path class="cls-18" d="M312.79,116.15s-12.86-5.85-25.72-4.68c4.68,8.18-1.17,14-1.17,14a51.18,51.18,0,0,1,14,2.33"/><path class="cls-17" d="M348.21,72a31.55,31.55,0,0,0-43,12c-8.14,14.41-.67,26.24,12.18,37.18a4,4,0,0,0-.24.33c-1.39,2.18-1.33,4.71.13,5.63s3.62-.05,5-2.11c5,3.44,10.43,5.75,15.64,5.62,8.67-.21,17.25-6.79,22.24-15.64A31.56,31.56,0,0,0,348.21,72Z"/><path class="cls-17" d="M350,115.84a3.51,3.51,0,1,1-2,6.13,3.43,3.43,0,0,1-1.17-2.23"/><path class="cls-22" d="M334.83,117.31s8.62,2.88,9.58,4.79-1,3.83-1,3.83-5.74.95-8.62-1.92S334.83,117.31,334.83,117.31Z"/><circle class="cls-25" cx="337.33" cy="103.29" r="2.34"/><ellipse class="cls-25" cx="355.45" cy="117.9" rx="2.34" ry="1.17" transform="translate(65.66 355.11) rotate(-57.65)"/><path class="cls-26" d="M324.47,86.92a73.19,73.19,0,0,0-7.59,5.63c-4.68,4.67-7.61,9.74-8.75,19.22-19.9-27-24.57-61.08,2.32-91.47-2.45,11.77,1.22,20.85,9.35,28.05,5.31,4.71,13.41,8,19.87,12.86,7.21,5.44,14.31,14.18,19.45,20.17C337.33,70.46,324.47,86.92,324.47,86.92Z"/><path class="cls-17" d="M316.65,95.33a4.79,4.79,0,0,1-3.73-1.47c-1.95-2.06-1.62-5.53.73-7.74s5.83-2.33,7.78-.27a4.82,4.82,0,0,1,1.25,3.71"/><path class="cls-26" d="M360.71,83.42c7.6,4.09,11.69,3.5,19.29,1.75-7.6,7.6-18.7-1.17-18.7-1.17s12.27,9.94,9.35,29.22C366.56,96.27,359,86.34,359,86.34s5.26,12.27-1.17,23.38A73.1,73.1,0,0,0,351.94,84l-4.67,15.2,1.17-17.54L330.9,93.35l10.52-14a100.32,100.32,0,0,0-17.53,8.19c6-7.44,12.2-14.48,20.46-13.45C353.7,75.23,357.79,79.32,360.71,83.42Z"/><path class="cls-2" d="M301.28,161.15a40.23,40.23,0,0,0-20.94,6.19"/><path class="cls-21" d="M332.62,191.37l2.23,2.44c1.42,1.55-1.21,5.17-4.17,7.44a8.69,8.69,0,0,0-4.08,3.1c-2.5,3.79-7.15,7.48-8.12,7.44-1.55-.07-3-3.24-3-3.24Z"/><path class="cls-22" d="M312.53,205.3c4.74-1.35,9.61-5.82,9.37-8.84a6.6,6.6,0,0,1,11.46-4.28c1.42,1.55-1.21,5.17-4.17,7.45L317,210.17A11.61,11.61,0,0,1,312.53,205.3Z"/></svg>