<svg id="レイヤー_1" data-name="レイヤー 1" xmlns="http://www.w3.org/2000/svg" viewBox="0 0 258.31 183.21"><defs><style>.cls-1{fill:#a17328;}.cls-2{fill:#40220f;}.cls-3{fill:#d0af75;}.cls-4{fill:#8f6025;}.cls-5{fill:#7d4321;}.cls-6{fill:#e2cc9c;}.cls-7{fill:#cba354;}.cls-8{fill:#daeffb;}.cls-9{font-size:21.08px;fill:#0363a6;font-family:YuGothic-Bold, YuGothic Bold;font-weight:700;letter-spacing:-0.1em;}.cls-10{letter-spacing:0.15em;}.cls-11{letter-spacing:-0.1em;}</style></defs><title>モルック説明2-2</title><path class="cls-1" d="M169.47,158.15a7,7,0,0,1-6.2-3.05.51.51,0,0,1-.06-.25V124.59a.52.52,0,0,1,.17-.38.5.5,0,0,1,.33-.12h.07l11.52,1.56a.51.51,0,0,1,.43.5v28.69a.43.43,0,0,1-.07.25A7,7,0,0,1,169.47,158.15Z"/><path class="cls-2" d="M163.71,124.59l11.52,1.57v28.69a7.32,7.32,0,0,1-11.52,0V124.59m0-1a1,1,0,0,0-.66.25,1,1,0,0,0-.34.75v30.26a1,1,0,0,0,.13.5,8.31,8.31,0,0,0,13.26,0,1.06,1.06,0,0,0,.13-.5V126.16a1,1,0,0,0-.87-1l-11.52-1.57Z"/><path class="cls-3" d="M168.77,134.36a4,4,0,0,1-.59,0,5,5,0,0,1-3.3-2.06,11,11,0,0,1-1.67-8c.67-4.8,3.66-8.42,6.95-8.42.2,0,.4,0,.6,0a5.06,5.06,0,0,1,3.3,2.07,11,11,0,0,1,1.66,8C175.05,130.75,172.07,134.36,168.77,134.36Z"/><path class="cls-2" d="M170.16,116.33a4.73,4.73,0,0,1,.53,0c3.18.43,5.21,4.69,4.54,9.51-.64,4.56-3.46,8-6.46,8a4.53,4.53,0,0,1-.52,0c-3.18-.43-5.22-4.69-4.54-9.51.64-4.56,3.46-8,6.45-8m0-1h0c-3.54,0-6.74,3.81-7.44,8.85a11.51,11.51,0,0,0,1.76,8.38,5.48,5.48,0,0,0,3.63,2.26,4.87,4.87,0,0,0,.66,0c3.54,0,6.74-3.8,7.45-8.84a11.5,11.5,0,0,0-1.77-8.39,5.46,5.46,0,0,0-3.63-2.25,4.77,4.77,0,0,0-.66,0Z"/><path class="cls-4" d="M234,161.48a7,7,0,0,1-6.19-3,.43.43,0,0,1-.07-.25V127.92a.52.52,0,0,1,.17-.38.5.5,0,0,1,.33-.12h.07L239.82,129a.51.51,0,0,1,.43.5v28.69a.51.51,0,0,1-.06.25A7,7,0,0,1,234,161.48Z"/><path class="cls-2" d="M228.23,127.92l11.52,1.57v28.69a7.32,7.32,0,0,1-11.52,0V127.92m0-1a1,1,0,0,0-1,1v30.26a1.06,1.06,0,0,0,.13.5,8.31,8.31,0,0,0,13.26,0,1,1,0,0,0,.13-.5V129.49a1,1,0,0,0-.86-1l-11.52-1.57Z"/><path class="cls-3" d="M233.3,137.69a4,4,0,0,1-.6,0,5,5,0,0,1-3.3-2.06,11,11,0,0,1-1.66-8c.67-4.79,3.66-8.41,6.95-8.41.19,0,.39,0,.59,0a5,5,0,0,1,3.3,2.07,11,11,0,0,1,1.67,8C239.58,134.08,236.59,137.69,233.3,137.69Z"/><path class="cls-2" d="M234.69,119.66a3,3,0,0,1,.52,0c3.18.43,5.22,4.69,4.54,9.51-.64,4.56-3.46,8-6.45,8a4.71,4.71,0,0,1-.53,0c-3.18-.44-5.21-4.7-4.54-9.52.64-4.55,3.46-8,6.46-8m0-1h0c-3.54,0-6.74,3.8-7.45,8.85a11.47,11.47,0,0,0,1.77,8.38,5.44,5.44,0,0,0,3.62,2.26,5,5,0,0,0,.67,0c3.54,0,6.74-3.8,7.44-8.84A11.54,11.54,0,0,0,239,121a5.51,5.51,0,0,0-3.63-2.25,4.89,4.89,0,0,0-.66,0Z"/><path class="cls-5" d="M234.05,132.48a2.62,2.62,0,0,1-2.33-1.25,5.56,5.56,0,0,1-.68-3c0-4,1.74-4.85,3.21-4.85a2.51,2.51,0,0,1,2.5,1.59.48.48,0,0,1,0,.39.53.53,0,0,1-.28.27l-1.26.47a.47.47,0,0,1-.17,0,.4.4,0,0,1-.24-.07.49.49,0,0,1-.25-.33c-.08-.38-.22-.38-.33-.38-.43,0-.67.46-.79,1a2.33,2.33,0,0,1,1-.19,2.28,2.28,0,0,1,1.95,1,3.8,3.8,0,0,1-.31,4.52A2.68,2.68,0,0,1,234.05,132.48Zm-.74-3.69c0,1.13.26,1.7.73,1.7.19,0,.61,0,.61-1.23s-.37-1.09-.56-1.09S233.65,128.17,233.31,128.79Z"/><path class="cls-2" d="M234.25,123.86a2,2,0,0,1,2,1.28l-1.25.47c-.11-.52-.39-.78-.82-.78-.9,0-1.38.93-1.42,2.78a1.73,1.73,0,0,1,1.6-.92,1.81,1.81,0,0,1,1.55.76,2.92,2.92,0,0,1,.5,1.77,2.88,2.88,0,0,1-.76,2.11,2.22,2.22,0,0,1-1.64.65,2.12,2.12,0,0,1-1.91-1,5.16,5.16,0,0,1-.6-2.74q0-4.36,2.71-4.36M234,131c.74,0,1.11-.58,1.11-1.73s-.35-1.59-1.06-1.59c-.52,0-1,.34-1.28,1,0,1.55.41,2.32,1.23,2.32m.21-8.13c-1.39,0-3.71.7-3.71,5.36a6,6,0,0,0,.76,3.28,3.09,3.09,0,0,0,2.75,1.48,3.24,3.24,0,0,0,2.35-.94,3.87,3.87,0,0,0,1-2.82,4,4,0,0,0-.69-2.36,3.11,3.11,0,0,0-.59-.61l.47-.17a1,1,0,0,0,.57-.54,1,1,0,0,0,0-.79,3,3,0,0,0-3-1.89Zm-.44,6.06a.57.57,0,0,1,.27-.25,1.76,1.76,0,0,1,.07.59,1.88,1.88,0,0,1-.1.73h0a2.12,2.12,0,0,1-.21-1.07Z"/><path class="cls-1" d="M184.44,160.44a7,7,0,0,1-6.2-3.05.5.5,0,0,1-.06-.24V126.88a.48.48,0,0,1,.17-.37.51.51,0,0,1,.33-.13h.06L190.26,128a.5.5,0,0,1,.44.49v28.7a.51.51,0,0,1-.07.24A7,7,0,0,1,184.44,160.44Z"/><path class="cls-2" d="M178.68,126.88l11.52,1.57v28.7a7.34,7.34,0,0,1-11.52,0V126.88m0-1a1,1,0,0,0-.66.25,1,1,0,0,0-.34.75v30.27a1,1,0,0,0,.13.49,8.31,8.31,0,0,0,13.26,0,1.05,1.05,0,0,0,.13-.49v-28.7a1,1,0,0,0-.87-1l-11.52-1.57Z"/><path class="cls-6" d="M183.74,136.66a5.85,5.85,0,0,1-.59,0,5,5,0,0,1-3.3-2.07,11,11,0,0,1-1.67-8c.67-4.8,3.66-8.41,6.95-8.41a4,4,0,0,1,.6,0,5,5,0,0,1,3.29,2.06,11,11,0,0,1,1.67,8C190,133,187,136.66,183.74,136.66Z"/><path class="cls-2" d="M185.13,118.63a4.71,4.71,0,0,1,.53,0c3.18.44,5.21,4.69,4.54,9.52-.64,4.55-3.47,8-6.46,8a4.91,4.91,0,0,1-.53,0c-3.18-.43-5.21-4.69-4.53-9.51.63-4.56,3.46-8,6.45-8m0-1h0c-3.54,0-6.74,3.8-7.44,8.84a11.55,11.55,0,0,0,1.76,8.39,5.48,5.48,0,0,0,3.63,2.25,4.89,4.89,0,0,0,.66,0c3.54,0,6.74-3.81,7.45-8.85a11.47,11.47,0,0,0-1.77-8.38,5.46,5.46,0,0,0-3.63-2.26,4.87,4.87,0,0,0-.66,0Z"/><path class="cls-7" d="M175.45,171c-4.38,0-6.11-2.54-6.18-2.65a.5.5,0,0,1-.08-.27V141.93a.48.48,0,0,1,.17-.37.51.51,0,0,1,.33-.13l11.58,1.36a.5.5,0,0,1,.44.5V168.1a.5.5,0,0,1-.08.27C181.56,168.48,179.83,171,175.45,171Z"/><path class="cls-2" d="M169.69,141.93l11.52,1.36V168.1s-1.6,2.42-5.76,2.42-5.76-2.42-5.76-2.42V141.93m0-1a1,1,0,0,0-.67.25,1,1,0,0,0-.33.75V168.1a1.07,1.07,0,0,0,.16.55c.08.12,2,2.87,6.6,2.87s6.52-2.75,6.59-2.87a1,1,0,0,0,.17-.55V143.29a1,1,0,0,0-.88-1l-11.52-1.35Z"/><path class="cls-6" d="M174.75,151.71a4,4,0,0,1-.59-.05,5,5,0,0,1-3.3-2.06,11,11,0,0,1-1.67-8c.67-4.8,3.66-8.41,6.95-8.41a4,4,0,0,1,.6,0,5,5,0,0,1,3.3,2.06,11,11,0,0,1,1.66,8C181,148.09,178.05,151.71,174.75,151.71Z"/><path class="cls-2" d="M176.14,133.68a4.71,4.71,0,0,1,.53,0c3.18.43,5.21,4.69,4.54,9.51-.64,4.56-3.46,8-6.46,8a4.55,4.55,0,0,1-.52,0c-3.18-.43-5.22-4.69-4.54-9.51.64-4.56,3.46-8,6.45-8m0-1h0c-3.54,0-6.74,3.8-7.44,8.84a11.55,11.55,0,0,0,1.76,8.39,5.51,5.51,0,0,0,3.63,2.25,4.89,4.89,0,0,0,.66.05c3.54,0,6.74-3.81,7.45-8.85a11.47,11.47,0,0,0-1.77-8.38,5.44,5.44,0,0,0-3.62-2.26,5,5,0,0,0-.67,0Z"/><path class="cls-1" d="M109.4,106.1a6.88,6.88,0,0,1-5.62-2.53.41.41,0,0,1-.08-.24l-2.11-24a.46.46,0,0,1,.13-.39.52.52,0,0,1,.36-.16l11.64.56a.5.5,0,0,1,.48.45l2,22.45a.47.47,0,0,1,0,.26,7,7,0,0,1-5.9,3.58l-.82,0Z"/><path class="cls-2" d="M102.08,79.27l11.62.56,2,22.45a6.58,6.58,0,0,1-5.49,3.29l-.78,0a6.42,6.42,0,0,1-5.21-2.31l-2.11-24m0-1a1,1,0,0,0-.72.31,1,1,0,0,0-.27.78l2.11,24a1,1,0,0,0,.17.49,7.4,7.4,0,0,0,6,2.74,8.25,8.25,0,0,0,.86,0,7.57,7.57,0,0,0,6.32-3.86,1.13,1.13,0,0,0,.09-.51l-2-22.45a1,1,0,0,0-1-.91l-11.61-.56Z"/><path class="cls-3" d="M107.41,88.85A5,5,0,0,1,104,87.09a11,11,0,0,1-2.37-7.84c.26-5,3.15-9,6.58-9h.21A5,5,0,0,1,111.83,72a11,11,0,0,1,2.37,7.84c-.26,5.05-3.15,9-6.58,9Z"/><path class="cls-2" d="M108.16,70.74h.18c3.21.15,5.61,4.21,5.36,9.08s-3,8.53-6.08,8.53h-.18c-3.21-.15-5.61-4.22-5.36-9.08s3-8.53,6.08-8.53m0-1h0c-3.69,0-6.8,4.17-7.08,9.48a11.54,11.54,0,0,0,2.5,8.2,5.46,5.46,0,0,0,3.81,1.93h.23c3.7,0,6.8-4.17,7.08-9.48a11.53,11.53,0,0,0-2.5-8.2,5.46,5.46,0,0,0-3.81-1.93Z"/><path class="cls-5" d="M107.13,84.06a.46.46,0,0,1-.33-.13.49.49,0,0,1-.17-.36,15.13,15.13,0,0,1,.54-4.09,16.46,16.46,0,0,1,.86-2.31l-2.68.23a.47.47,0,0,1-.32-.12.48.48,0,0,1-.18-.33l-.09-1a.52.52,0,0,1,.11-.36.48.48,0,0,1,.34-.18l4.8-.42a.5.5,0,0,1,.49.46l.08.9a.49.49,0,0,1,0,.27,13.84,13.84,0,0,0-1.2,3.44,17.17,17.17,0,0,0-.26,3.42.5.5,0,0,1-.45.51Z"/><path class="cls-2" d="M110,75.44l.08.91a13.89,13.89,0,0,0-1.25,3.56,17.58,17.58,0,0,0-.27,3.53l-1.44.12a14.48,14.48,0,0,1,.52-3.94,16.61,16.61,0,0,1,1.21-3l-3.51.31-.09-1,4.75-.42m0-1h-.09l-4.75.42a1,1,0,0,0-.91,1.08l.09,1a1,1,0,0,0,1,.91h.09l1.8-.16a14.48,14.48,0,0,0-.55,1.6,15.38,15.38,0,0,0-.56,4.23,1,1,0,0,0,1,1h.09l1.44-.13a1,1,0,0,0,.91-1,16.09,16.09,0,0,1,.25-3.31A13.08,13.08,0,0,1,111,76.8a1,1,0,0,0,.1-.54l-.08-.91a1,1,0,0,0-1-.91Z"/><path class="cls-7" d="M159.19,82.05a7,7,0,0,1-6.1-3,.51.51,0,0,1-.07-.24l-.33-24.11a.48.48,0,0,1,.17-.37.46.46,0,0,1,.33-.13h.06l11.54,1.41a.5.5,0,0,1,.44.49l.31,22.54a.57.57,0,0,1-.06.25,7,7,0,0,1-6.16,3.13Z"/><path class="cls-2" d="M153.19,54.73l11.54,1.41L165,78.67a6.57,6.57,0,0,1-5.72,2.88h-.13a6.53,6.53,0,0,1-5.67-2.72l-.33-24.1m0-1a1,1,0,0,0-.66.25,1,1,0,0,0-.34.76l.33,24.1a1,1,0,0,0,.14.5,7.51,7.51,0,0,0,6.53,3.21h.14a7.57,7.57,0,0,0,6.59-3.39,1.08,1.08,0,0,0,.12-.5l-.31-22.53a1,1,0,0,0-.87-1l-11.54-1.42Z"/><path class="cls-6" d="M158.33,64.71a3.23,3.23,0,0,1-.53,0,5,5,0,0,1-3.32-2,11,11,0,0,1-1.78-8c.61-4.84,3.57-8.5,6.89-8.5l.54,0a5,5,0,0,1,3.32,2,11,11,0,0,1,1.78,8C164.62,61.05,161.65,64.71,158.33,64.71Z"/><path class="cls-2" d="M159.59,46.66l.48,0c3.18.39,5.27,4.62,4.66,9.45-.57,4.59-3.38,8.07-6.39,8.07a3.87,3.87,0,0,1-.48,0c-3.19-.39-5.28-4.62-4.67-9.45.58-4.59,3.39-8.07,6.4-8.07m0-1h0c-3.57,0-6.75,3.84-7.39,8.94A11.57,11.57,0,0,0,154.08,63a5.48,5.48,0,0,0,3.66,2.2,4,4,0,0,0,.6,0c3.57,0,6.74-3.85,7.39-8.95a11.55,11.55,0,0,0-1.88-8.36,5.48,5.48,0,0,0-3.66-2.2,4,4,0,0,0-.6,0Z"/><path class="cls-5" d="M158.92,60a2.43,2.43,0,0,1-2.49-1.56.5.5,0,0,1,.28-.64l1.26-.49a.39.39,0,0,1,.18,0,.54.54,0,0,1,.22.05.53.53,0,0,1,.26.31c.11.38.25.38.34.38a.63.63,0,0,0,.62-.44,3.33,3.33,0,0,0,.18-.62,2.56,2.56,0,0,1-1,.2h0a2.39,2.39,0,0,1-2-.94,3.32,3.32,0,0,1-.65-2,3.36,3.36,0,0,1,.84-2.46,2.63,2.63,0,0,1,2-.82h0a2.68,2.68,0,0,1,2.38,1.22,5.51,5.51,0,0,1,.73,3,6.38,6.38,0,0,1-.85,3.81A2.71,2.71,0,0,1,159,60Zm.14-7.14a.42.42,0,0,0-.41.21,1.87,1.87,0,0,0-.18,1,1.45,1.45,0,0,0,.23.9.41.41,0,0,0,.35.17c.14,0,.46,0,.74-.6,0-.8-.17-1.7-.72-1.7v0Z"/><path class="cls-2" d="M159,51.4a2.14,2.14,0,0,1,1.91,1,5.09,5.09,0,0,1,.65,2.73,5.93,5.93,0,0,1-.75,3.5,2.2,2.2,0,0,1-1.87.9h-.05a2,2,0,0,1-2-1.24l1.26-.49c.14.49.42.74.82.74h0A1.12,1.12,0,0,0,160,57.8a5.4,5.4,0,0,0,.33-2.09,1.68,1.68,0,0,1-1.59,1h0a1.85,1.85,0,0,1-1.54-.75,2.79,2.79,0,0,1-.55-1.75,2.88,2.88,0,0,1,.7-2.11A2.21,2.21,0,0,1,159,51.4h0m0,4.28h0a1.37,1.37,0,0,0,1.23-1c0-1.53-.44-2.3-1.23-2.3h0q-1.11,0-1.08,1.74a1.92,1.92,0,0,0,.34,1.21.92.92,0,0,0,.74.35m0-5.28H159a3.19,3.19,0,0,0-2.33,1,4.28,4.28,0,0,0-.22,5.16,3.08,3.08,0,0,0,.63.62l-.52.2a1,1,0,0,0-.55.53,1,1,0,0,0,0,.77,3,3,0,0,0,3,1.87H159a3.21,3.21,0,0,0,2.65-1.31,6.76,6.76,0,0,0,1-4.1,6.07,6.07,0,0,0-.81-3.27A3.14,3.14,0,0,0,159,50.4Zm0,3h0a2.58,2.58,0,0,1,.21,1.09c-.1.17-.17.2-.21.21a1.13,1.13,0,0,1-.11-.57,1.85,1.85,0,0,1,.09-.73Z"/><path class="cls-1" d="M195.48,95.62a7,7,0,0,1-6.2-3,.57.57,0,0,1-.06-.25V68.22a.48.48,0,0,1,.17-.37.51.51,0,0,1,.33-.13h.06L201.3,69.3a.5.5,0,0,1,.44.49V92.33a.59.59,0,0,1-.07.25A7,7,0,0,1,195.48,95.62Z"/><path class="cls-2" d="M189.72,68.22l11.52,1.57V92.33a7.32,7.32,0,0,1-11.52,0V68.22m0-1a1,1,0,0,0-.66.25,1,1,0,0,0-.34.75V92.33a1,1,0,0,0,.13.49,8.29,8.29,0,0,0,13.25,0,1,1,0,0,0,.14-.49V69.79a1,1,0,0,0-.87-1l-11.52-1.57Z"/><path class="cls-3" d="M194.78,78.27a3.81,3.81,0,0,1-.59,0,5,5,0,0,1-3.3-2.06,11,11,0,0,1-1.67-8c.67-4.79,3.66-8.41,6.95-8.41a3.81,3.81,0,0,1,.59,0,5,5,0,0,1,3.3,2.06,11,11,0,0,1,1.67,8C201.06,74.66,198.07,78.27,194.78,78.27Z"/><path class="cls-2" d="M196.17,60.24a3.15,3.15,0,0,1,.53,0c3.18.43,5.21,4.69,4.54,9.51-.64,4.55-3.47,8-6.46,8l-.53,0c-3.18-.44-5.21-4.7-4.53-9.52.63-4.55,3.46-8,6.45-8m0-1h0c-3.54,0-6.74,3.8-7.44,8.84a11.54,11.54,0,0,0,1.76,8.39,5.46,5.46,0,0,0,3.63,2.26,4.87,4.87,0,0,0,.66,0c3.54,0,6.74-3.8,7.45-8.84a11.59,11.59,0,0,0-1.77-8.39,5.48,5.48,0,0,0-3.63-2.25,4.89,4.89,0,0,0-.66,0Z"/><path class="cls-5" d="M195.26,73.57a3.21,3.21,0,0,1-2.28-.79,2.45,2.45,0,0,1-.76-1.85,2.24,2.24,0,0,1,.54-1.52,2.82,2.82,0,0,1,.54-.46,2.59,2.59,0,0,1-.56-.65,2.62,2.62,0,0,1-.33-1.33,2.33,2.33,0,0,1,.91-1.9,3,3,0,0,1,1.93-.62,3,3,0,0,1,2.12.76,2.28,2.28,0,0,1,.74,1.72,2.19,2.19,0,0,1-.88,1.79,2.59,2.59,0,0,1,.67.7,2.64,2.64,0,0,1,.39,1.47,2.43,2.43,0,0,1-1,2A3.26,3.26,0,0,1,195.26,73.57Zm-.21-3.64a1.49,1.49,0,0,0-.46.41.85.85,0,0,0-.14.51.73.73,0,0,0,.22.59.86.86,0,0,0,.58.18.88.88,0,0,0,.65-.21.63.63,0,0,0,.16-.48.66.66,0,0,0-.17-.48,3.05,3.05,0,0,0-.78-.49Zm.2-3.54a.61.61,0,0,0-.49.17.52.52,0,0,0-.14.4.53.53,0,0,0,.13.38,2,2,0,0,0,.65.42l0,0a1.06,1.06,0,0,0,.34-.32,1,1,0,0,0,.11-.48.52.52,0,0,0-.19-.45A.72.72,0,0,0,195.25,66.39Z"/><path class="cls-2" d="M195.25,65a2.48,2.48,0,0,1,1.78.63,1.76,1.76,0,0,1,.58,1.35,1.9,1.9,0,0,1-1.38,1.79,2.82,2.82,0,0,1,1.25,1,2.14,2.14,0,0,1,.31,1.2,2,2,0,0,1-.78,1.65,2.8,2.8,0,0,1-1.75.53,2.74,2.74,0,0,1-1.94-.65,2,2,0,0,1-.6-1.49,1.75,1.75,0,0,1,.42-1.19,3.66,3.66,0,0,1,1.1-.77,2.56,2.56,0,0,1-1.07-.93,2,2,0,0,1-.26-1.07,1.85,1.85,0,0,1,.72-1.51,2.55,2.55,0,0,1,1.62-.51m.23,3.39a1.75,1.75,0,0,0,.74-.63,1.36,1.36,0,0,0,.18-.73,1,1,0,0,0-.37-.83,1.2,1.2,0,0,0-.78-.26,1.13,1.13,0,0,0-.85.32,1.12,1.12,0,0,0,0,1.47,2.34,2.34,0,0,0,.8.53l.29.13m-.23,3.78a1.33,1.33,0,0,0,1-.36,1.12,1.12,0,0,0,.31-.83,1.17,1.17,0,0,0-.3-.82,3.47,3.47,0,0,0-.94-.6l-.3-.15a2.35,2.35,0,0,0-.84.7,1.3,1.3,0,0,0-.24.79,1.22,1.22,0,0,0,.4,1,1.32,1.32,0,0,0,.91.31m0-8.17a3.47,3.47,0,0,0-2.24.73,2.85,2.85,0,0,0-1.1,2.29,3.14,3.14,0,0,0,.39,1.58,4.06,4.06,0,0,0,.26.36l-.18.18a2.7,2.7,0,0,0-.66,1.84,3,3,0,0,0,.92,2.22,3.69,3.69,0,0,0,2.62.92,3.76,3.76,0,0,0,2.36-.74,3,3,0,0,0,1.17-2.44,3.14,3.14,0,0,0-.47-1.74,2.48,2.48,0,0,0-.35-.45,2.66,2.66,0,0,0,.64-1.77,2.78,2.78,0,0,0-.9-2.09,3.47,3.47,0,0,0-2.46-.89Zm-.12,3h.12a.22.22,0,0,1,.14,0,.15.15,0,0,1,0,.06.58.58,0,0,1,0,.2.89.89,0,0,1-.24-.17h0a.12.12,0,0,1,0-.05s0,0,0-.06Zm.12,4.22a.35.35,0,0,1-.24-.06s-.07,0-.07-.21a.43.43,0,0,1,.06-.23.43.43,0,0,1,.1-.1,2.11,2.11,0,0,1,.44.28.32.32,0,0,1,0,.13s0,.11,0,.13a.46.46,0,0,1-.29.06Z"/><path class="cls-7" d="M222.34,95.62a7,7,0,0,1-6.19-3,.47.47,0,0,1-.07-.25V68.22a.48.48,0,0,1,.17-.37.51.51,0,0,1,.33-.13h.07l11.52,1.57a.49.49,0,0,1,.43.49V92.33a.57.57,0,0,1-.06.25A7.07,7.07,0,0,1,222.34,95.62Z"/><path class="cls-2" d="M216.58,68.22l11.52,1.57V92.33a7.32,7.32,0,0,1-11.52,0V68.22m0-1a1,1,0,0,0-1,1V92.33a1.05,1.05,0,0,0,.13.49,8.3,8.3,0,0,0,13.26,0,1,1,0,0,0,.13-.49V69.79a1,1,0,0,0-.86-1l-11.52-1.57Z"/><path class="cls-6" d="M221.65,78.27a4,4,0,0,1-.6,0,5,5,0,0,1-3.29-2.06,11,11,0,0,1-1.67-8c.67-4.79,3.65-8.41,6.95-8.41a4,4,0,0,1,.59,0,5,5,0,0,1,3.3,2.06,11.06,11.06,0,0,1,1.67,8C227.93,74.66,224.94,78.27,221.65,78.27Z"/><path class="cls-2" d="M223,60.24a3,3,0,0,1,.52,0c3.18.43,5.22,4.69,4.54,9.51-.64,4.55-3.46,8-6.45,8a4.71,4.71,0,0,1-.53,0c-3.18-.44-5.21-4.7-4.54-9.52.64-4.55,3.46-8,6.46-8m0-1h0c-3.54,0-6.74,3.8-7.45,8.84a11.49,11.49,0,0,0,1.77,8.39A5.44,5.44,0,0,0,221,78.73a5,5,0,0,0,.67,0c3.54,0,6.74-3.8,7.44-8.84a11.54,11.54,0,0,0-1.76-8.39,5.51,5.51,0,0,0-3.63-2.25,4.89,4.89,0,0,0-.66,0Z"/><path class="cls-5" d="M217.72,73.78a.5.5,0,0,1-.5-.5v-1a.5.5,0,0,1,.5-.5h1V67.56a8.12,8.12,0,0,1-.79.31.41.41,0,0,1-.16,0,.47.47,0,0,1-.25-.07.51.51,0,0,1-.24-.33l-.2-1.08a.5.5,0,0,1,.35-.58,5.15,5.15,0,0,0,1.67-.84.51.51,0,0,1,.29-.1h1.06a.5.5,0,0,1,.5.5v6.4h1a.5.5,0,0,1,.5.5v1a.5.5,0,0,1-.5.5Z"/><path class="cls-2" d="M220.49,65.39v6.9H222v1h-4.23v-1h1.54V66.7a5.56,5.56,0,0,1-1.45.69l-.2-1.08a5.68,5.68,0,0,0,1.82-.92h1.06m0-1h-1.06a1,1,0,0,0-.59.2,4.67,4.67,0,0,1-1.51.76,1,1,0,0,0-.7,1.15l.2,1.08a1,1,0,0,0,.48.67.9.9,0,0,0,.5.14.81.81,0,0,0,.31,0l.14,0v3h-.54a1,1,0,0,0-1,1v1a1,1,0,0,0,1,1H222a1,1,0,0,0,1-1v-1a1,1,0,0,0-1-1h-.46v-5.9a1,1,0,0,0-1-1Z"/><path class="cls-5" d="M222.13,73.78a.5.5,0,0,1-.5-.5v-.91a.54.54,0,0,1,.05-.22A11,11,0,0,1,224,69.1,5.55,5.55,0,0,0,225,68a1.13,1.13,0,0,0,.15-.59.58.58,0,0,0-.16-.47.5.5,0,0,0-.37-.11c-.19,0-.55,0-.62,1a.5.5,0,0,1-.19.36.5.5,0,0,1-.3.11l-.11,0L222.1,68a.51.51,0,0,1-.4-.55,2.9,2.9,0,0,1,1.07-2,3,3,0,0,1,1.85-.59,2.91,2.91,0,0,1,2.13.77,2.5,2.5,0,0,1,.71,1.84A2.92,2.92,0,0,1,227,69a7.83,7.83,0,0,1-1.27,1.43,13.36,13.36,0,0,0-1.31,1.31H227a.5.5,0,0,1,.5.5v1a.5.5,0,0,1-.5.5Z"/><path class="cls-2" d="M224.62,65.31a2.41,2.41,0,0,1,1.77.62,2,2,0,0,1,.57,1.49,2.42,2.42,0,0,1-.39,1.32,7.16,7.16,0,0,1-1.19,1.34,8.73,8.73,0,0,0-1.92,2.17H227v1h-4.86v-.91a10.34,10.34,0,0,1,2.24-2.91,5.79,5.79,0,0,0,1-1.21,1.69,1.69,0,0,0,.21-.84,1.07,1.07,0,0,0-.32-.83,1,1,0,0,0-.71-.25c-.68,0-1,.47-1.12,1.41l-1.28-.26a2.31,2.31,0,0,1,2.42-2.17m0-1a3.45,3.45,0,0,0-2.16.7,3.41,3.41,0,0,0-1.25,2.34,1,1,0,0,0,.79,1.11l1.28.26a.71.71,0,0,0,.2,0,.78.78,0,0,0,.22,0l0,0a11.49,11.49,0,0,0-2.45,3.2.91.91,0,0,0-.1.43v.91a1,1,0,0,0,1,1H227a1,1,0,0,0,1-1v-1a1,1,0,0,0-1-1h-1.41l.46-.43a8.21,8.21,0,0,0,1.37-1.54,3.37,3.37,0,0,0,.55-1.86,3,3,0,0,0-.86-2.2,3.41,3.41,0,0,0-2.48-.91Zm0,3h0s0,0,0,.08a.75.75,0,0,1-.08.35l-.07.11v-.06a1.21,1.21,0,0,1,.1-.48Z"/><path class="cls-4" d="M41.51,132.08a.47.47,0,0,1-.37-.18.46.46,0,0,1-.11-.4L42.85,120a.5.5,0,0,1,.5-.42l22.54.5a.48.48,0,0,1,.24.07,7.83,7.83,0,0,1-.27,12.39.53.53,0,0,1-.24.06Z"/><path class="cls-2" d="M43.35,120.1l22.53.5a7.34,7.34,0,0,1-.26,11.52l-24.1-.54,1.83-11.48m0-1a1,1,0,0,0-1,.84l-1.83,11.48a1,1,0,0,0,1,1.16l24.1.54h0a1,1,0,0,0,.48-.12,8.32,8.32,0,0,0,.29-13.26,1,1,0,0,0-.49-.14l-22.53-.5Z"/><path class="cls-3" d="M43.64,132.25a13.6,13.6,0,0,1-2.2-.18c-5.07-.82-8.75-4.29-8.2-7.73.46-2.89,3.75-4.92,8-4.92a13.79,13.79,0,0,1,2.2.18c5.06.83,8.74,4.3,8.2,7.73C51.17,130.23,47.88,132.25,43.64,132.25Z"/><path class="cls-2" d="M41.23,119.92a13.1,13.1,0,0,1,2.12.18c4.8.78,8.29,4,7.78,7.15-.43,2.7-3.6,4.5-7.49,4.5a12.88,12.88,0,0,1-2.12-.17c-4.81-.78-8.29-4-7.79-7.16.43-2.7,3.61-4.5,7.5-4.5m0-1h0c-4.5,0-8,2.2-8.48,5.34-.6,3.77,3.18,7.42,8.61,8.31a14.69,14.69,0,0,0,2.28.18c4.49,0,8-2.19,8.48-5.34.6-3.77-3.18-7.42-8.61-8.3a13.58,13.58,0,0,0-2.28-.19Z"/><path class="cls-5" d="M45.26,131.36a.5.5,0,0,1-.49-.52l0-1-4.23-.09a6.31,6.31,0,0,1,.3.8.49.49,0,0,1-.06.41.48.48,0,0,1-.34.23l-1.08.18H39.3a.5.5,0,0,1-.49-.37,5.32,5.32,0,0,0-.8-1.69.47.47,0,0,1-.1-.3l0-1a.5.5,0,0,1,.5-.49l6.4.14,0-1a.52.52,0,0,1,.16-.35.49.49,0,0,1,.34-.14l1,0a.49.49,0,0,1,.49.51l-.09,4.22a.52.52,0,0,1-.16.35.49.49,0,0,1-.34.14Z"/><path class="cls-2" d="M45.36,126.63l1,0-.09,4.22-1,0,0-1.54-5.58-.13a5.81,5.81,0,0,1,.66,1.47l-1.08.18a5.72,5.72,0,0,0-.89-1.85l0-1.05,6.89.15,0-1.46m0-1a1,1,0,0,0-.69.28,1,1,0,0,0-.31.7v.46l-5.89-.13h0a1,1,0,0,0-1,1l0,1a.94.94,0,0,0,.18.6,4.92,4.92,0,0,1,.73,1.52,1,1,0,0,0,1,.75l.16,0,1.09-.18a1,1,0,0,0,.68-.46,1,1,0,0,0,.11-.81c0-.05,0-.1-.05-.14l3,.06v.54a1,1,0,0,0,.28.72,1,1,0,0,0,.7.31l1,0h0a1,1,0,0,0,1-1l.09-4.22a1,1,0,0,0-1-1l-1,0Z"/><path class="cls-5" d="M45.37,126.5a.5.5,0,0,1-.35-.16.43.43,0,0,1-.14-.36l0-1-4.23-.09a8.32,8.32,0,0,1,.3.8.49.49,0,0,1-.06.41.51.51,0,0,1-.34.23l-1.08.18h-.08a.5.5,0,0,1-.49-.38,5.19,5.19,0,0,0-.81-1.68.53.53,0,0,1-.09-.3l0-1.05a.53.53,0,0,1,.15-.36.56.56,0,0,1,.35-.13l6.4.14,0-1a.52.52,0,0,1,.16-.35.48.48,0,0,1,.34-.14l1,0a.5.5,0,0,1,.49.51L46.88,126a.52.52,0,0,1-.16.35.49.49,0,0,1-.34.14Z"/><path class="cls-2" d="M45.47,121.77l1,0L46.38,126l-1,0,0-1.54-5.59-.12a5.92,5.92,0,0,1,.67,1.46l-1.08.19a5.72,5.72,0,0,0-.89-1.85l0-1,6.89.15,0-1.46m0-1a1,1,0,0,0-1,1v.46l-5.89-.13h0a1,1,0,0,0-.69.27,1,1,0,0,0-.31.7l0,1.06a1,1,0,0,0,.19.6,4.82,4.82,0,0,1,.73,1.52,1,1,0,0,0,1,.75l.16,0,1.08-.18a1,1,0,0,0,.69-.46,1,1,0,0,0,.11-.81c0-.05,0-.1-.05-.14l3,.06V126a1,1,0,0,0,.27.72,1,1,0,0,0,.71.3l1,0h0a1,1,0,0,0,1-1l.09-4.22a1,1,0,0,0-.28-.72,1,1,0,0,0-.7-.31l-1,0Z"/><path class="cls-7" d="M216.58,113.07a7,7,0,0,1-6.19-3,.45.45,0,0,1-.07-.25V85.66a.48.48,0,0,1,.17-.37.51.51,0,0,1,.33-.13h.07l11.52,1.57a.49.49,0,0,1,.43.49v22.54a.54.54,0,0,1-.06.25A7.06,7.06,0,0,1,216.58,113.07Z"/><path class="cls-2" d="M210.82,85.66l11.52,1.57v22.54a7.32,7.32,0,0,1-11.52,0V85.66m0-1a1,1,0,0,0-1,1v24.11a1.13,1.13,0,0,0,.13.5,8.31,8.31,0,0,0,13.26,0,1,1,0,0,0,.13-.5V87.23a1,1,0,0,0-.86-1L211,84.67Z"/><path class="cls-6" d="M215.89,95.71a4,4,0,0,1-.6,0,5,5,0,0,1-3.3-2.06,11,11,0,0,1-1.66-8c.67-4.79,3.66-8.41,6.95-8.41.19,0,.39,0,.59,0a5,5,0,0,1,3.3,2.07,11,11,0,0,1,1.67,8C222.17,92.1,219.18,95.71,215.89,95.71Z"/><path class="cls-2" d="M217.28,77.68a4.55,4.55,0,0,1,.52,0c3.18.43,5.22,4.69,4.54,9.51-.64,4.56-3.46,8-6.45,8a4.71,4.71,0,0,1-.53,0c-3.18-.44-5.21-4.69-4.54-9.52.64-4.55,3.46-8,6.46-8m0-1h0c-3.54,0-6.74,3.81-7.45,8.85a11.47,11.47,0,0,0,1.77,8.38,5.44,5.44,0,0,0,3.62,2.26,5,5,0,0,0,.67,0c3.54,0,6.74-3.8,7.44-8.84A11.54,11.54,0,0,0,221.57,79a5.51,5.51,0,0,0-3.63-2.25,4.89,4.89,0,0,0-.66,0Z"/><path class="cls-5" d="M216.43,90.78a3.06,3.06,0,0,1-1.93-.58,2.64,2.64,0,0,1-.94-1.51.5.5,0,0,1,.34-.59l1.26-.38a.36.36,0,0,1,.14,0,.46.46,0,0,1,.26.07.51.51,0,0,1,.24.33c.11.63.38.68.62.68a.53.53,0,0,0,.5-.28,1.77,1.77,0,0,0,.21-.94,1.44,1.44,0,0,0-.23-.91.48.48,0,0,0-.42-.18c-.28,0-.49.09-.63.53a.5.5,0,0,1-.48.35h-.07l-1.07-.16a.5.5,0,0,1-.42-.51l.15-4.4a.5.5,0,0,1,.5-.48h4.15a.5.5,0,0,1,.5.5v1a.5.5,0,0,1-.5.5H216l0,.77a2.35,2.35,0,0,1,.77-.12,2.49,2.49,0,0,1,2.06,1,3.34,3.34,0,0,1,.65,2.09A3.23,3.23,0,0,1,218.5,90,2.87,2.87,0,0,1,216.43,90.78Z"/><path class="cls-2" d="M218.61,82.3v1h-3.1l-.07,1.58a7.13,7.13,0,0,1-.06.75,1.54,1.54,0,0,1,1.35-.68,2,2,0,0,1,1.67.79,2.84,2.84,0,0,1,.54,1.78,2.78,2.78,0,0,1-.79,2.09,2.39,2.39,0,0,1-1.72.65,2.61,2.61,0,0,1-1.63-.48,2.13,2.13,0,0,1-.75-1.22l1.25-.38c.14.72.51,1.08,1.12,1.08a1,1,0,0,0,.92-.51,2.26,2.26,0,0,0,.29-1.21,2,2,0,0,0-.34-1.23,1,1,0,0,0-.81-.36,1.09,1.09,0,0,0-1.11.88l-1.06-.15.15-4.4h4.15m0-1h-4.15a1,1,0,0,0-1,1l-.15,4.4a1,1,0,0,0,.55.93l-.1,0a1,1,0,0,0-.68,1.19,3,3,0,0,0,1.11,1.78,3.56,3.56,0,0,0,2.24.69,3.38,3.38,0,0,0,2.42-.93,3.76,3.76,0,0,0,1.09-2.81,3.81,3.81,0,0,0-.75-2.39,3.18,3.18,0,0,0-1-.83h.39a1,1,0,0,0,1-1v-1a1,1,0,0,0-1-1ZM216.41,87h.07c.05,0,.15.16.15.59a1.22,1.22,0,0,1-.13.67l0,.06h-.1s0-.09-.07-.27a1,1,0,0,0-.21-.45,1,1,0,0,0,.25-.42.64.64,0,0,1,.08-.17Z"/><path class="cls-4" d="M153.37,154.32a7,7,0,0,1-6.05-3.32.54.54,0,0,1-.06-.25l1.32-30.23a.52.52,0,0,1,.19-.37.51.51,0,0,1,.31-.11h.09l11.44,2.08a.5.5,0,0,1,.42.51l-1.26,28.67a.43.43,0,0,1-.08.24,6.91,6.91,0,0,1-5.9,2.79Z"/><path class="cls-2" d="M149.08,120.54l11.45,2.07-1.26,28.67a6.49,6.49,0,0,1-5.48,2.55h-.4a6.57,6.57,0,0,1-5.63-3l1.32-30.23m0-1a1,1,0,0,0-1,.95l-1.33,30.24a1.1,1.1,0,0,0,.11.5,7.55,7.55,0,0,0,6.48,3.59h.44a7.49,7.49,0,0,0,6.33-3,1.08,1.08,0,0,0,.15-.49l1.25-28.67a1,1,0,0,0-.82-1l-11.44-2.07Z"/><path class="cls-3" d="M153.91,130.53a4.68,4.68,0,0,1-4-2.28,11,11,0,0,1-1.31-8.08c.85-4.62,3.91-8.1,7.11-8.1a4.15,4.15,0,0,1,.79.07,5,5,0,0,1,3.2,2.2,11,11,0,0,1,1.32,8.08C160.17,127,157.11,130.53,153.91,130.53Z"/><path class="cls-2" d="M155.72,112.57a4.14,4.14,0,0,1,.7.06c3.16.57,5,4.91,4.12,9.7-.82,4.44-3.7,7.7-6.63,7.7a3.39,3.39,0,0,1-.7-.07c-3.15-.57-5-4.91-4.11-9.7.82-4.43,3.69-7.69,6.62-7.69m0-1h0c-3.44,0-6.71,3.66-7.61,8.51a11.58,11.58,0,0,0,1.4,8.46A5.51,5.51,0,0,0,153,131a5,5,0,0,0,.87.08c3.44,0,6.71-3.66,7.61-8.52a11.46,11.46,0,0,0-1.4-8.45,5.43,5.43,0,0,0-3.52-2.41,4.37,4.37,0,0,0-.88-.08Z"/><path class="cls-5" d="M154.53,125.84a2.8,2.8,0,0,1-2.88-2.23.48.48,0,0,1,.36-.6l1.28-.32h.12a.45.45,0,0,1,.27.08.48.48,0,0,1,.22.33,1,1,0,0,0,.26.61.74.74,0,0,0,.44.14h0a.61.61,0,0,0,.53-.19,1,1,0,0,0,.2-.6.91.91,0,0,0-.19-.71,1.14,1.14,0,0,0-.79-.26l-.59,0a.5.5,0,0,1-.48-.52l.05-1a.5.5,0,0,1,.5-.48l.67,0c.69,0,.84-.27.86-.7s-.1-.44-.14-.48a.61.61,0,0,0-.41-.14h0a.53.53,0,0,0-.39.13.86.86,0,0,0-.22.49.53.53,0,0,1-.24.34.48.48,0,0,1-.26.07.45.45,0,0,1-.16,0l-1.25-.44a.5.5,0,0,1-.31-.62,2.59,2.59,0,0,1,1.22-1.55,3,3,0,0,1,1.55-.39h.17a3,3,0,0,1,2.11.86,2.39,2.39,0,0,1,0,3.27,2.75,2.75,0,0,1-.26.22,2.37,2.37,0,0,1,.49.51,2.56,2.56,0,0,1,.41,1.55,2.67,2.67,0,0,1-1.06,2.1,3,3,0,0,1-1.89.6Z"/><path class="cls-2" d="M154.75,117.22h.15a2.45,2.45,0,0,1,1.76.71,1.77,1.77,0,0,1,.51,1.36,1.74,1.74,0,0,1-.5,1.21,1.87,1.87,0,0,1-1.08.49v.07a2,2,0,0,1,1.24.81,1.93,1.93,0,0,1,.33,1.23,2.19,2.19,0,0,1-.86,1.73,2.54,2.54,0,0,1-1.59.5h-.16a2.33,2.33,0,0,1-2.42-1.85l1.28-.31a1.46,1.46,0,0,0,.42.9,1.23,1.23,0,0,0,.75.26h.08a1.09,1.09,0,0,0,.86-.36,1.37,1.37,0,0,0,.32-.91c0-.95-.44-1.44-1.45-1.49l-.6,0,.05-1,.54,0h.13c.87,0,1.32-.4,1.36-1.18a1,1,0,0,0-1-1.14h-.06a1,1,0,0,0-.7.27,1.41,1.41,0,0,0-.38.76l-1.24-.44a2.13,2.13,0,0,1,1-1.27,2.58,2.58,0,0,1,1.3-.32m0-1a3.56,3.56,0,0,0-1.8.45,3.13,3.13,0,0,0-1.45,1.84,1,1,0,0,0,.63,1.25l.82.28a.91.91,0,0,0-.11.42l-.05,1.05a1,1,0,0,0,.26.72l-1.16.29a1,1,0,0,0-.73,1.21,3.3,3.3,0,0,0,3.34,2.6h.21a3.52,3.52,0,0,0,2.19-.7,3.19,3.19,0,0,0,1.26-2.48,3,3,0,0,0-.5-1.85l-.17-.22a2.75,2.75,0,0,0,.68-1.75,2.84,2.84,0,0,0-.78-2.1,3.44,3.44,0,0,0-2.44-1Zm-.09,3.31,0-.1a.4.4,0,0,1,.08-.22h.1v.1a.44.44,0,0,1,0,.18h0l-.18,0Zm-.18,3.79a1.55,1.55,0,0,1-.09-.32,1,1,0,0,0-.18-.42h.13a.76.76,0,0,1,.45.11s.06.11.05.33a.52.52,0,0,1-.07.3.23.23,0,0,1-.11,0l-.18,0Z"/><path class="cls-5" d="M165.08,129.54a.5.5,0,0,1-.5-.5v-1a.5.5,0,0,1,.5-.5h1v-4.23a8.32,8.32,0,0,1-.8.31.39.39,0,0,1-.15,0,.48.48,0,0,1-.26-.07.51.51,0,0,1-.24-.33l-.2-1.08a.5.5,0,0,1,.35-.58,5.15,5.15,0,0,0,1.67-.84.51.51,0,0,1,.3-.1h1.05a.5.5,0,0,1,.5.5v6.4h1a.5.5,0,0,1,.5.5v1a.5.5,0,0,1-.5.5Z"/><path class="cls-2" d="M167.84,121.15v6.9h1.46v1h-4.22v-1h1.54v-5.59a5.89,5.89,0,0,1-1.45.69l-.21-1.07a6,6,0,0,0,1.83-.93h1.05m0-1h-1.05a1,1,0,0,0-.6.2,4.67,4.67,0,0,1-1.51.76,1,1,0,0,0-.7,1.15l.2,1.08a1,1,0,0,0,.48.68,1,1,0,0,0,.51.13,1.15,1.15,0,0,0,.31,0l.14,0v3h-.54a1,1,0,0,0-1,1v1a1,1,0,0,0,1,1h4.22a1,1,0,0,0,1-1v-1a1,1,0,0,0-1-1h-.46v-5.9a1,1,0,0,0-1-1Z"/><path class="cls-5" d="M171.93,129.69a2.52,2.52,0,0,1-2.35-1.34,6.77,6.77,0,0,1-.6-3.23,5.92,5.92,0,0,1,.83-3.54,2.52,2.52,0,0,1,2.14-1,2.57,2.57,0,0,1,2.35,1.31,6.76,6.76,0,0,1,.62,3.22,6,6,0,0,1-.83,3.56A2.54,2.54,0,0,1,171.93,129.69Zm0-7.1c-.14,0-.31,0-.43.39a6.92,6.92,0,0,0-.22,2.13,6.14,6.14,0,0,0,.26,2.28c.1.24.21.28.37.28s.33,0,.46-.42a7.71,7.71,0,0,0,.2-2.14,6.3,6.3,0,0,0-.25-2.26A.37.37,0,0,0,172,122.59Z"/><path class="cls-2" d="M172,121.07a2,2,0,0,1,1.91,1.06,6.23,6.23,0,0,1,.56,3,5.59,5.59,0,0,1-.73,3.26,2,2,0,0,1-1.76.83,2,2,0,0,1-1.91-1.08,6.45,6.45,0,0,1-.54-3,5.54,5.54,0,0,1,.73-3.24,2,2,0,0,1,1.74-.81m0,7.1a1,1,0,0,0,.93-.77,7.81,7.81,0,0,0,.23-2.29,6.79,6.79,0,0,0-.3-2.47.85.85,0,0,0-.84-.55.92.92,0,0,0-.91.73,7.73,7.73,0,0,0-.24,2.29,7,7,0,0,0,.3,2.49.85.85,0,0,0,.83.57m0-8.1a3,3,0,0,0-2.54,1.21,6.35,6.35,0,0,0-.93,3.84,7.25,7.25,0,0,0,.66,3.47,3,3,0,0,0,2.79,1.6A3.06,3.06,0,0,0,174.5,129a6.44,6.44,0,0,0,.92-3.85,7.08,7.08,0,0,0-.69-3.46,3,3,0,0,0-2.78-1.57Zm0,6.91a8.2,8.2,0,0,1-.15-1.87,7.61,7.61,0,0,1,.15-1.83,8.2,8.2,0,0,1,.14,1.83A8.92,8.92,0,0,1,172,127Z"/><path class="cls-5" d="M184.85,131.33a.5.5,0,0,1-.5-.5v-1.28h-2.49a.5.5,0,0,1-.5-.5v-.9a.51.51,0,0,1,0-.22l2.55-5.21a.48.48,0,0,1,.45-.28H186a.5.5,0,0,1,.5.5v4.64H187a.5.5,0,0,1,.5.5v1a.5.5,0,0,1-.5.5h-.48v1.28a.5.5,0,0,1-.5.5Zm-.5-3.75v-1.36l-.64,1.36Z"/><path class="cls-2" d="M186,122.94v5.14h1v1h-1v1.78h-1.18v-1.78h-3v-.91l2.55-5.2H186m-1.12,1h-.14c-.23.61-.53,1.3-.87,2.05l-1,2.07h1.92v-1.72q0-.83.06-2.4m1.12-2h-1.62a1,1,0,0,0-.9.56L181,127.71a1,1,0,0,0-.1.43v.91a1,1,0,0,0,1,1h2v.78a1,1,0,0,0,1,1H186a1,1,0,0,0,1-1v-.78a1,1,0,0,0,1-1v-1a1,1,0,0,0-1-1v-4.15a1,1,0,0,0-1-1Z"/><path class="cls-7" d="M153.87,171c-4.39,0-6.12-2.71-6.19-2.82a.5.5,0,0,1-.07-.27V140a.48.48,0,0,1,.17-.37.51.51,0,0,1,.33-.13h.06l11.52,1.45a.5.5,0,0,1,.44.49v26.51a.6.6,0,0,1-.07.27C160,168.31,158.26,171,153.87,171Z"/><path class="cls-2" d="M148.11,140l11.52,1.45v26.51s-1.6,2.59-5.76,2.59-5.76-2.59-5.76-2.59V140m0-1a1,1,0,0,0-1,1v28a1,1,0,0,0,.15.53c.08.12,1.94,3.06,6.61,3.06s6.53-2.94,6.61-3.06a1,1,0,0,0,.15-.53V141.42a1,1,0,0,0-.88-1L148.23,139Z"/><path class="cls-6" d="M153.17,149.75c-.19,0-.39,0-.59,0a5,5,0,0,1-3.3-2.07,11,11,0,0,1-1.67-8c.67-4.8,3.66-8.41,7-8.41a4,4,0,0,1,.59,0,5,5,0,0,1,3.3,2.06,11,11,0,0,1,1.66,8C159.45,146.13,156.47,149.75,153.17,149.75Z"/><path class="cls-2" d="M154.56,131.72a4.58,4.58,0,0,1,.53,0c3.18.44,5.21,4.7,4.54,9.52-.64,4.55-3.46,8-6.46,8a3,3,0,0,1-.52,0c-3.18-.43-5.22-4.69-4.54-9.51.64-4.56,3.46-8,6.45-8m0-1h0c-3.53,0-6.74,3.8-7.44,8.84a11.54,11.54,0,0,0,1.76,8.39,5.51,5.51,0,0,0,3.63,2.25,4.89,4.89,0,0,0,.66.05c3.54,0,6.74-3.8,7.45-8.84a11.48,11.48,0,0,0-1.77-8.39,5.44,5.44,0,0,0-3.62-2.26,5,5,0,0,0-.67,0Z"/><path class="cls-5" d="M151.84,144.77a.5.5,0,0,1-.5-.5v-1a.5.5,0,0,1,.5-.5h1v-4.23a6.33,6.33,0,0,1-.8.31.4.4,0,0,1-.15,0,.59.59,0,0,1-.26-.07.48.48,0,0,1-.23-.34l-.21-1.08a.5.5,0,0,1,.35-.57,5.39,5.39,0,0,0,1.67-.85.53.53,0,0,1,.3-.09h1a.5.5,0,0,1,.5.5v6.39h1a.5.5,0,0,1,.5.5v1a.5.5,0,0,1-.5.5Z"/><path class="cls-2" d="M154.6,136.38v6.89h1.46v1h-4.22v-1h1.54v-5.59a5.74,5.74,0,0,1-1.45.7l-.21-1.08a5.84,5.84,0,0,0,1.83-.92h1m0-1h-1a1,1,0,0,0-.59.19,5,5,0,0,1-1.51.77,1,1,0,0,0-.71,1.15l.21,1.08a1,1,0,0,0,.47.67,1,1,0,0,0,.51.14,1.12,1.12,0,0,0,.31,0l.14-.05v3h-.54a1,1,0,0,0-1,1v1a1,1,0,0,0,1,1h4.22a1,1,0,0,0,1-1v-1a1,1,0,0,0-1-1h-.46v-5.89a1,1,0,0,0-1-1Z"/><path class="cls-5" d="M173.09,146.42a.5.5,0,0,1-.5-.5V145a.54.54,0,0,1,0-.21,10.88,10.88,0,0,1,2.35-3,5.19,5.19,0,0,0,.95-1.1,1.15,1.15,0,0,0,.15-.59c0-.33-.12-.44-.16-.47a.47.47,0,0,0-.37-.12c-.18,0-.55,0-.61.95a.53.53,0,0,1-.2.37.57.57,0,0,1-.3.1h-.11l-1.28-.27a.49.49,0,0,1-.39-.55,2.87,2.87,0,0,1,1.06-2,3.28,3.28,0,0,1,4,.17,2.51,2.51,0,0,1,.71,1.85,3,3,0,0,1-.47,1.59,7.83,7.83,0,0,1-1.27,1.43,13.37,13.37,0,0,0-1.31,1.31H178a.5.5,0,0,1,.5.5v1a.5.5,0,0,1-.5.5Z"/><path class="cls-2" d="M175.58,138a2.4,2.4,0,0,1,1.78.62,2,2,0,0,1,.56,1.49,2.42,2.42,0,0,1-.39,1.32,7.16,7.16,0,0,1-1.19,1.33,8.44,8.44,0,0,0-1.91,2.18H178v1h-4.86V145a10.54,10.54,0,0,1,2.24-2.91,5.78,5.78,0,0,0,1-1.22,1.63,1.63,0,0,0,.21-.83,1.08,1.08,0,0,0-.32-.84,1,1,0,0,0-.71-.25c-.68,0-1.05.47-1.11,1.42l-1.29-.27a2.39,2.39,0,0,1,.88-1.68,2.44,2.44,0,0,1,1.54-.48m0-1a3.29,3.29,0,0,0-3.41,3,1,1,0,0,0,.79,1.1l1.28.27.21,0,.21,0h0a11.49,11.49,0,0,0-2.45,3.2,1,1,0,0,0-.1.44v.91a1,1,0,0,0,1,1H178a1,1,0,0,0,1-1v-1a1,1,0,0,0-1-1h-1.41l.46-.43a8.38,8.38,0,0,0,1.38-1.55,3.41,3.41,0,0,0,.54-1.85,3,3,0,0,0-.86-2.2,3.37,3.37,0,0,0-2.48-.91Zm0,3h0a.22.22,0,0,1,0,.09.68.68,0,0,1-.08.34.9.9,0,0,1-.07.11v-.05a1.45,1.45,0,0,1,.1-.49Z"/><path class="cls-1" d="M163.71,124.59v30.26a7.32,7.32,0,0,0,11.52,0V126.16Z"/><ellipse class="cls-3" cx="169.47" cy="125.1" rx="8.81" ry="5.81" transform="matrix(0.14, -0.99, 0.99, 0.14, 21.65, 275.17)"/><path class="cls-4" d="M228.23,127.92v30.26a7.32,7.32,0,0,0,11.52,0V129.49Z"/><ellipse class="cls-3" cx="233.99" cy="128.43" rx="8.81" ry="5.81" transform="translate(73.75 341.9) rotate(-81.87)"/><path class="cls-5" d="M236.29,125.14l-1.25.47c-.11-.52-.39-.78-.82-.78-.9,0-1.38.93-1.42,2.78a1.73,1.73,0,0,1,1.6-.92,1.81,1.81,0,0,1,1.55.76,2.92,2.92,0,0,1,.5,1.77,2.88,2.88,0,0,1-.76,2.11,2.22,2.22,0,0,1-1.64.65,2.12,2.12,0,0,1-1.91-1,5.16,5.16,0,0,1-.6-2.74q0-4.36,2.71-4.36A2,2,0,0,1,236.29,125.14Zm-3.48,3.53c0,1.55.41,2.32,1.23,2.32s1.11-.58,1.11-1.73-.35-1.59-1.06-1.59C233.57,127.67,233.14,128,232.81,128.67Z"/><path class="cls-1" d="M178.68,126.88v30.27a7.34,7.34,0,0,0,11.52,0v-28.7Z"/><ellipse class="cls-6" cx="184.44" cy="127.39" rx="8.81" ry="5.81" transform="translate(32.23 291.95) rotate(-81.87)"/><path class="cls-7" d="M169.69,141.93V168.1s1.6,2.42,5.76,2.42,5.76-2.42,5.76-2.42V143.29Z"/><ellipse class="cls-6" cx="175.45" cy="142.44" rx="8.81" ry="5.81" transform="translate(9.62 295.97) rotate(-81.87)"/><path class="cls-1" d="M102.08,79.27l2.11,24a7.34,7.34,0,0,0,11.48-1l-2-22.45Z"/><ellipse class="cls-3" cx="107.89" cy="79.55" rx="8.81" ry="5.81" transform="translate(22.6 182.96) rotate(-86.89)"/><path class="cls-5" d="M110,75.44l.08.91a13.89,13.89,0,0,0-1.25,3.56,17.58,17.58,0,0,0-.27,3.53l-1.44.12a14.48,14.48,0,0,1,.52-3.94,16.61,16.61,0,0,1,1.21-3l-3.51.31-.09-1Z"/><path class="cls-7" d="M153.19,54.73l.33,24.1A7.33,7.33,0,0,0,165,78.67l-.31-22.53Z"/><ellipse class="cls-6" cx="158.96" cy="55.43" rx="8.81" ry="5.81" transform="matrix(0.13, -0.99, 0.99, 0.13, 83.64, 205.99)"/><path class="cls-5" d="M158.15,57.79c.15.5.42.74.83.74A1.12,1.12,0,0,0,160,57.8a5.4,5.4,0,0,0,.33-2.09,1.68,1.68,0,0,1-1.59,1,1.86,1.86,0,0,1-1.57-.75,2.79,2.79,0,0,1-.55-1.75,2.88,2.88,0,0,1,.7-2.11A2.21,2.21,0,0,1,159,51.4a2.15,2.15,0,0,1,1.95,1,5.09,5.09,0,0,1,.65,2.73,5.93,5.93,0,0,1-.75,3.5,2.2,2.2,0,0,1-1.87.9,2,2,0,0,1-2.08-1.24Zm2.15-3.11c0-1.55-.45-2.31-1.25-2.3S158,53,158,54.12a1.92,1.92,0,0,0,.34,1.21,1,1,0,0,0,.76.35A1.37,1.37,0,0,0,160.3,54.68Z"/><path class="cls-1" d="M189.72,68.22V92.33a7.32,7.32,0,0,0,11.52,0V69.79Z"/><ellipse class="cls-3" cx="195.48" cy="69.01" rx="8.81" ry="5.81" transform="translate(99.51 252.75) rotate(-81.87)"/><path class="cls-5" d="M196.23,68.72a2.82,2.82,0,0,1,1.25,1,2.14,2.14,0,0,1,.31,1.2,2,2,0,0,1-.78,1.65,2.8,2.8,0,0,1-1.75.53,2.74,2.74,0,0,1-1.94-.65,2,2,0,0,1-.6-1.49,1.75,1.75,0,0,1,.42-1.19,3.66,3.66,0,0,1,1.1-.77,2.56,2.56,0,0,1-1.07-.93,2,2,0,0,1-.26-1.07,1.85,1.85,0,0,1,.72-1.51,2.55,2.55,0,0,1,1.62-.51,2.48,2.48,0,0,1,1.78.63,1.76,1.76,0,0,1,.58,1.35A1.9,1.9,0,0,1,196.23,68.72Zm-1.21.64a2.35,2.35,0,0,0-.84.7,1.3,1.3,0,0,0-.24.79,1.22,1.22,0,0,0,.4,1,1.53,1.53,0,0,0,1.91,0,1.12,1.12,0,0,0,.31-.83,1.17,1.17,0,0,0-.3-.82,3.47,3.47,0,0,0-.94-.6Zm.46-1a1.75,1.75,0,0,0,.74-.63,1.39,1.39,0,0,0,.18-.73,1,1,0,0,0-.37-.83,1.2,1.2,0,0,0-.78-.26,1.13,1.13,0,0,0-.85.32,1.12,1.12,0,0,0,0,1.47,2.34,2.34,0,0,0,.8.53Z"/><path class="cls-7" d="M216.58,68.22V92.33a7.32,7.32,0,0,0,11.52,0V69.79Z"/><ellipse class="cls-6" cx="222.34" cy="69.01" rx="8.81" ry="5.81" transform="translate(122.57 279.35) rotate(-81.87)"/><path class="cls-5" d="M220.49,65.39v6.9H222v1h-4.23v-1h1.54V66.7a5.56,5.56,0,0,1-1.45.69l-.2-1.08a5.68,5.68,0,0,0,1.82-.92Z"/><path class="cls-5" d="M222.2,67.48a2.55,2.55,0,0,1,4.19-1.55,2,2,0,0,1,.57,1.49,2.42,2.42,0,0,1-.39,1.32,7.16,7.16,0,0,1-1.19,1.34,8.73,8.73,0,0,0-1.92,2.17H227v1h-4.86v-.91a10.34,10.34,0,0,1,2.24-2.91,5.79,5.79,0,0,0,1-1.21,1.69,1.69,0,0,0,.21-.84,1.07,1.07,0,0,0-.32-.83,1,1,0,0,0-.71-.25c-.68,0-1,.47-1.12,1.41Z"/><path class="cls-4" d="M41.52,131.58l24.1.54a7.34,7.34,0,0,0,.26-11.52l-22.53-.5Z"/><ellipse class="cls-3" cx="42.43" cy="125.84" rx="5.81" ry="8.81" transform="matrix(0.16, -0.99, 0.99, 0.16, -88.65, 147.11)"/><path class="cls-5" d="M38.44,127.94l6.89.15,0-1.46,1,0-.09,4.22-1,0,0-1.54-5.58-.13a5.81,5.81,0,0,1,.66,1.47l-1.08.18a5.72,5.72,0,0,0-.89-1.85Z"/><path class="cls-5" d="M38.55,123.08l6.89.15,0-1.46,1,0L46.38,126l-1,0,0-1.54-5.59-.12a5.92,5.92,0,0,1,.67,1.46l-1.08.19a5.72,5.72,0,0,0-.89-1.85Z"/><path class="cls-7" d="M210.82,85.66v24.11a7.32,7.32,0,0,0,11.52,0V87.23Z"/><ellipse class="cls-6" cx="216.58" cy="86.45" rx="8.81" ry="5.81" transform="translate(100.36 288.62) rotate(-81.87)"/><path class="cls-5" d="M218.61,82.3v1h-3.1l-.06,1.58c0,.29,0,.54-.07.75a1.54,1.54,0,0,1,1.35-.68,2,2,0,0,1,1.67.79,2.84,2.84,0,0,1,.54,1.78,2.78,2.78,0,0,1-.79,2.09,2.39,2.39,0,0,1-1.72.65,2.61,2.61,0,0,1-1.63-.48,2.13,2.13,0,0,1-.75-1.22l1.25-.38c.14.72.51,1.08,1.12,1.08a1,1,0,0,0,.92-.51,2.26,2.26,0,0,0,.29-1.21,2,2,0,0,0-.34-1.23,1,1,0,0,0-.81-.36,1.09,1.09,0,0,0-1.11.88l-1.06-.15.15-4.4Z"/><path class="cls-4" d="M149.08,120.54l-1.32,30.23a7.33,7.33,0,0,0,11.51.51l1.26-28.67Z"/><ellipse class="cls-3" cx="154.82" cy="121.3" rx="8.81" ry="5.81" transform="translate(7.03 251.06) rotate(-79.36)"/><path class="cls-5" d="M152.46,118.81a2.13,2.13,0,0,1,1-1.27,2.61,2.61,0,0,1,1.45-.31,2.45,2.45,0,0,1,1.76.71,1.77,1.77,0,0,1,.51,1.36,1.74,1.74,0,0,1-.5,1.21,1.87,1.87,0,0,1-1.08.49v.07a2,2,0,0,1,1.24.81,1.93,1.93,0,0,1,.33,1.23,2.19,2.19,0,0,1-.86,1.73,2.6,2.6,0,0,1-1.75.5,2.33,2.33,0,0,1-2.42-1.85l1.28-.31a1.46,1.46,0,0,0,.42.9,1.23,1.23,0,0,0,.75.26,1.11,1.11,0,0,0,.94-.36,1.37,1.37,0,0,0,.32-.91c0-.95-.44-1.44-1.45-1.49l-.6,0,.05-1,.54,0c1,0,1.45-.35,1.49-1.17a1,1,0,0,0-1-1.14.93.93,0,0,0-.76.27,1.41,1.41,0,0,0-.38.76Z"/><path class="cls-5" d="M167.84,121.15v6.9h1.46v1h-4.22v-1h1.54v-5.59a5.89,5.89,0,0,1-1.45.69l-.21-1.07a6,6,0,0,0,1.83-.93Z"/><path class="cls-5" d="M172,121.07a2,2,0,0,1,1.91,1.06,6.23,6.23,0,0,1,.56,3,5.59,5.59,0,0,1-.73,3.26,2,2,0,0,1-1.76.83,2,2,0,0,1-1.91-1.08,6.45,6.45,0,0,1-.54-3,5.54,5.54,0,0,1,.73-3.24A2,2,0,0,1,172,121.07Zm0,1a.92.92,0,0,0-.91.73,7.73,7.73,0,0,0-.24,2.29,7,7,0,0,0,.3,2.49.85.85,0,0,0,.83.57,1,1,0,0,0,.93-.77,7.81,7.81,0,0,0,.23-2.29,6.79,6.79,0,0,0-.3-2.47A.85.85,0,0,0,172,122.09Z"/><path class="cls-5" d="M186,122.94v5.14h1v1h-1v1.78h-1.18v-1.78h-3v-.91l2.55-5.2Zm-1.18,5.14v-1.72q0-.83.06-2.4h-.14c-.23.61-.53,1.3-.87,2.05l-1,2.07Z"/><path class="cls-7" d="M148.11,140v28s1.6,2.59,5.76,2.59,5.76-2.59,5.76-2.59V141.42Z"/><ellipse class="cls-6" cx="153.87" cy="140.48" rx="8.81" ry="5.81" transform="translate(-6.97 272.93) rotate(-81.87)"/><path class="cls-5" d="M154.6,136.38v6.89h1.46v1h-4.22v-1h1.54v-5.59a5.74,5.74,0,0,1-1.45.7l-.21-1.08a5.84,5.84,0,0,0,1.83-.92Z"/><path class="cls-5" d="M173.16,140.11a2.39,2.39,0,0,1,.88-1.68,2.44,2.44,0,0,1,1.54-.48,2.4,2.4,0,0,1,1.78.62,2,2,0,0,1,.56,1.49,2.42,2.42,0,0,1-.39,1.32,7.16,7.16,0,0,1-1.19,1.33,8.44,8.44,0,0,0-1.91,2.18H178v1h-4.86V145a10.54,10.54,0,0,1,2.24-2.91,5.78,5.78,0,0,0,1-1.22,1.63,1.63,0,0,0,.21-.83,1.08,1.08,0,0,0-.32-.84,1,1,0,0,0-.71-.25c-.68,0-1.05.47-1.11,1.42Z"/><circle class="cls-8" cx="44.79" cy="40.3" r="36.97"/><polygon class="cls-8" points="71.12 60.18 78.22 83.94 61.45 70.02 71.12 60.18"/><text class="cls-9" transform="translate(19.63 47.29) scale(1.11 1)">1<tspan class="cls-10" x="9.51" y="0">1</tspan><tspan class="cls-11" x="24.29" y="0">点</tspan></text></svg>