<svg id="レイヤー_1" data-name="レイヤー 1" xmlns="http://www.w3.org/2000/svg" xmlns:xlink="http://www.w3.org/1999/xlink" viewBox="0 0 218 218"><defs><style>.cls-1{fill:none;}.cls-2{clip-path:url(#clip-path);}.cls-3{fill:#fff1e1;}.cls-4{clip-path:url(#clip-path-2);}.cls-5{fill:#009fde;}.cls-6{fill:#f1d8bc;}.cls-10,.cls-6,.cls-8,.cls-9{stroke:#40210d;stroke-linecap:round;stroke-linejoin:round;stroke-width:2px;}.cls-7{fill:#40210d;}.cls-8{fill:#6a3906;}.cls-9{fill:#e50012;}.cls-10{fill:#ffe800;}.cls-11{fill:url(#名称未設定グラデーション_54);}</style><clipPath id="clip-path"><rect id="SVGID" class="cls-1" x="246.02" y="-245.44" width="200" height="200" rx="10"/></clipPath><clipPath id="clip-path-2"><rect id="SVGID-2" data-name="SVGID" class="cls-1" x="9" y="9" width="200" height="200" rx="10"/></clipPath><linearGradient id="名称未設定グラデーション_54" x1="99.13" y1="238.25" x2="99.13" y2="106.51" gradientUnits="userSpaceOnUse"><stop offset="0" stop-color="#bce2ec"/><stop offset="0.43" stop-color="#bae1ec"/><stop offset="0.58" stop-color="#b3deed"/><stop offset="0.7" stop-color="#a8d8ed"/><stop offset="0.78" stop-color="#97d1ef"/><stop offset="0.85" stop-color="#84c8f0"/><stop offset="0.87" stop-color="#7fc6f0" stop-opacity="0.95"/><stop offset="0.9" stop-color="#72c0f1" stop-opacity="0.82"/><stop offset="0.94" stop-color="#5eb7f3" stop-opacity="0.61"/><stop offset="1" stop-color="#41aaf5" stop-opacity="0.32"/><stop offset="1" stop-color="#3fa9f5" stop-opacity="0.3"/></linearGradient></defs><title>4-2-3 呼吸を使った遊び</title><g class="cls-2"><ellipse class="cls-3" cx="343.03" cy="-145.99" rx="173.57" ry="160.5"/></g><g class="cls-4"><path class="cls-5" d="M158.83,73.58c0-8.45,3.35-15,6.9-16.7,4.49-2.17,9.92.32,9.13,5.51C173.94,68.45,165.29,67.29,158.83,73.58Z"/><path class="cls-5" d="M169.35,79.09c4-6.56,9.64-10,13.2-9.72,4.5.43,7.54,4.91,4.5,8.57C183.49,82.21,177.32,77.25,169.35,79.09Z"/><path class="cls-6" d="M152.52,110.75c-23.69-7.81-45.55-6.06-48.84,3.9a8.4,8.4,0,0,0-.33,1.55c-19.17-3.21-53.25-7.87-89.67-7.92h0a6.42,6.42,0,0,0,0,12.83c42.55.06,82.85,6.79,97.32,9.49,6.66,6.17,17.16,12.12,29.64,16.24,23.69,7.81,45.55,6.06,48.84-3.9S176.21,118.56,152.52,110.75Z"/><path class="cls-6" d="M135.47,113.85,192.74,112a6.42,6.42,0,1,0-.29-12.83l-63.31,2s-5,.47-13.64,4.71"/><path class="cls-6" d="M63.48,110.49a6.54,6.54,0,0,0-5.54,2.06c-2.56,2.86-1.94,7.6,1.4,10.58s8.11,3.08,10.67.22a6.45,6.45,0,0,0,1.55-5"/><path class="cls-6" d="M120.84,52.7c17,16.54,15.15,41.56-1.38,58.56C111.8,119.13,100,128,89.86,128.72c-11.78.84-19.76-5.56-28.9-14.44A42.95,42.95,0,0,1,120.84,52.7Z"/><path class="cls-7" d="M48.85,81.47l5.57-11.13,13.76-6.85,6.68,10.1s-11.14,7.28-16.4,15.75C50.85,91.84,48.85,81.47,48.85,81.47Z"/><path class="cls-8" d="M120.84,52.7A42.95,42.95,0,0,0,61,114.28l.71.67c-10.29-15-2-28.17-2-28.17L51.2,78.51l11,3.84-4.94-10L66,78.71,63.3,67.42l8.51,8.27s29.87-25.17,59,16.87C135,78.41,132.35,63.89,120.84,52.7Z"/><path class="cls-6" d="M110,76.25a6.62,6.62,0,0,1,.47-5.9c2.06-3.24,6.79-3.94,10.57-1.54s5.17,7,3.12,10.21a6.45,6.45,0,0,1-4.38,2.85"/><path class="cls-6" d="M91,107.49a5.62,5.62,0,0,1-1.61,4,5.68,5.68,0,1,1-4.15-9.64"/><circle class="cls-7" cx="71.65" cy="112.06" r="2.64"/><circle class="cls-7" cx="101.76" cy="84.88" r="2.64"/><ellipse class="cls-9" cx="100.25" cy="114.74" rx="2.97" ry="6.46" transform="translate(-51.91 122.62) rotate(-51.82)"/><path class="cls-10" d="M52.82,103.36C59,89.88,83.76,70.91,94.66,66.79s24.6-5,35.46-.36c1.43-5.45-9.55-21-24.24-27.27C95,34.52,81.76,37.09,71.78,41.55c-10.57,4.74-22.15,17-25.47,29.2C42.26,85.58,48.09,100.4,52.82,103.36Z"/><path class="cls-11" d="M-30.21,128.58S8.68,111.74,38,111.74s39.18,15.16,64.51,15.16,29.67-20.39,54.33-20.39,31,13.88,50.67,13.88,21-2.84,21-2.84l-1.67,120.7-239.66-2Z"/></g></svg>