<svg id="レイヤー_1" data-name="レイヤー 1" xmlns="http://www.w3.org/2000/svg" xmlns:xlink="http://www.w3.org/1999/xlink" viewBox="0 0 445.27 339"><defs><style>.cls-1,.cls-12,.cls-15,.cls-2,.cls-3,.cls-4{fill:none;}.cls-2{stroke:#fff;stroke-width:6px;}.cls-11,.cls-12,.cls-13,.cls-17,.cls-18,.cls-19,.cls-22,.cls-23,.cls-24,.cls-25,.cls-3,.cls-4,.cls-5{stroke:#40220f;}.cls-3{stroke-width:4px;}.cls-5{fill:#f5dcbe;}.cls-11,.cls-12,.cls-13,.cls-15,.cls-17,.cls-19,.cls-22,.cls-23,.cls-24,.cls-25,.cls-26,.cls-28,.cls-29,.cls-5,.cls-6{stroke-linecap:round;stroke-linejoin:round;}.cls-14,.cls-6{fill:#fccb00;}.cls-15,.cls-6{stroke:#492b19;}.cls-18,.cls-7{fill:#898989;}.cls-8{fill:#40220f;}.cls-9{fill:#ed811b;}.cls-10{fill:#f39800;}.cls-11{fill:#b062a3;}.cls-13{fill:#cde18f;}.cls-16{fill:url(#罫線_9);}.cls-17{fill:#7f4f21;}.cls-18{stroke-miterlimit:10;}.cls-19{fill:#b28247;}.cls-20{fill:#232288;}.cls-21,.cls-25{fill:url(#_6_lpi_50_2);}.cls-22{fill:#0068b2;}.cls-23{fill:#c60022;}.cls-24{fill:#604c3f;}.cls-26{fill:#feed00;}.cls-26,.cls-28,.cls-29{stroke:#41210d;}.cls-27{fill:#ef94ae;}.cls-28{fill:#de5511;}.cls-29{fill:#943423;}</style><pattern id="罫線_9" data-name="罫線 9" width="74.06" height="72" patternTransform="translate(-36.02 -27.94) scale(0.36)" patternUnits="userSpaceOnUse" viewBox="0 0 74.06 72"><rect class="cls-1" width="74.06" height="72"/><line class="cls-3" x1="24.98" y1="72" x2="24.98"/><line class="cls-3" x1="6.49" y1="72" x2="6.49"/><line class="cls-3" x1="43.47" y1="72" x2="43.47"/><line class="cls-3" x1="61.96" y1="72" x2="61.96"/><line class="cls-4" x1="12.09" y1="72" x2="12.09"/><line class="cls-4" x1="30.58" y1="72" x2="30.58"/><line class="cls-4" x1="49.07" y1="72" x2="49.07"/><line class="cls-4" x1="67.56" y1="72" x2="67.56"/></pattern><pattern id="_6_lpi_50_2" data-name="6 lpi 50% 2" width="72" height="72" patternTransform="translate(-23.38 -28.48) scale(0.36)" patternUnits="userSpaceOnUse" viewBox="0 0 72 72"><rect class="cls-1" width="72" height="72"/><line class="cls-2" x1="71.75" y1="66" x2="144.25" y2="66"/><line class="cls-2" x1="71.75" y1="42" x2="144.25" y2="42"/><line class="cls-2" x1="71.75" y1="18" x2="144.25" y2="18"/><line class="cls-2" x1="71.75" y1="54" x2="144.25" y2="54"/><line class="cls-2" x1="71.75" y1="30" x2="144.25" y2="30"/><line class="cls-2" x1="71.75" y1="6" x2="144.25" y2="6"/><line class="cls-2" x1="-0.25" y1="66" x2="72.25" y2="66"/><line class="cls-2" x1="-0.25" y1="42" x2="72.25" y2="42"/><line class="cls-2" x1="-0.25" y1="18" x2="72.25" y2="18"/><line class="cls-2" x1="-0.25" y1="54" x2="72.25" y2="54"/><line class="cls-2" x1="-0.25" y1="30" x2="72.25" y2="30"/><line class="cls-2" x1="-0.25" y1="6" x2="72.25" y2="6"/><line class="cls-2" x1="-72.25" y1="66" x2="0.25" y2="66"/><line class="cls-2" x1="-72.25" y1="42" x2="0.25" y2="42"/><line class="cls-2" x1="-72.25" y1="18" x2="0.25" y2="18"/><line class="cls-2" x1="-72.25" y1="54" x2="0.25" y2="54"/><line class="cls-2" x1="-72.25" y1="30" x2="0.25" y2="30"/><line class="cls-2" x1="-72.25" y1="6" x2="0.25" y2="6"/></pattern></defs><title>リンク能力運動例</title><path class="cls-5" d="M113.9,141a4.22,4.22,0,0,1-3.28-6.85c3.13-3.9-2.5-21.88-9.72-36.24a4.21,4.21,0,0,1,7.52-3.78c4.08,8.11,16.77,35.34,8.77,45.3A4.24,4.24,0,0,1,113.9,141Z"/><path class="cls-6" d="M106.76,90.37c3.74,2.88,5.92,6.38,7.93,12.87a22.34,22.34,0,0,1-12.64,1.83c-.55-2.92-1-6.22-1-6.22"/><path class="cls-7" d="M107.15,193.72V165a13.18,13.18,0,0,1-3.41-6.87c-.63-3.07-.61-7.39,0-8.9a.16.16,0,0,1,0-.08,13.34,13.34,0,0,1-2.49-7.88,12.44,12.44,0,0,1,2-6.92,13.21,13.21,0,0,1-3.15-9c0-6.45,3.84-12.5,8.74-13.78a7.75,7.75,0,0,1,2-.25c5,0,8.84,5,8.84,11.62a15.81,15.81,0,0,1-4.31,11.11,13.23,13.23,0,0,1,2.64,8.07,11.75,11.75,0,0,1-3.26,8.45,1.21,1.21,0,0,1,0,.14,18.72,18.72,0,0,1,.28,9.51c-.72,2.85-2.33,5-4.16,5.72V196Zm-1-42.61a21.12,21.12,0,0,0,.23,6.52c.64,3.05,2.06,4.8,2.82,5l.15,0c.78,0,2.25-1.37,2.86-3.86a16.11,16.11,0,0,0,0-6.66,1.33,1.33,0,0,1-.13-.35h0a2.65,2.65,0,0,0-.34-.47,4.12,4.12,0,0,0-2.18-1.12c-.17,0-.35-.07-.54-.09a5.3,5.3,0,0,0-.85-.07,2.41,2.41,0,0,0-1.6.45.92.92,0,0,0-.25.3A1.58,1.58,0,0,1,106.11,151.11Zm2-4.5a7.7,7.7,0,0,1,.94,0,9.12,9.12,0,0,1,1.19.22l.26.08.1,0c.26.08.52.17.76.27l.38.17a7.08,7.08,0,0,1,.66.38l.14.09a8,8,0,0,0,2.3-5.88,8.57,8.57,0,0,0-2.79-6.62,4.55,4.55,0,0,0-2.92-1.12,4.33,4.33,0,0,0-3,1.2,8.06,8.06,0,0,0-2.27,5.88,9.25,9.25,0,0,0,1.89,5.7,4.57,4.57,0,0,1,.67-.24l.35-.09q.34-.06.72-.09l.34,0Zm2.19-31.73a5.46,5.46,0,0,0-1.2.14c-3.59.84-6.41,5.3-6.41,10.15a9.35,9.35,0,0,0,2.68,7h0l.28-.2a6.57,6.57,0,0,1,3.31-1.13h.34a6.88,6.88,0,0,1,3.21.83l.38.22a11.62,11.62,0,0,0,3.55-8.6C116.47,118.48,113.83,114.88,110.33,114.88Z"/><path class="cls-8" d="M110.85,111.84c4.57,0,8.34,4.53,8.34,11.12A15.19,15.19,0,0,1,114.7,134a12.54,12.54,0,0,1,2.82,8.11,11.06,11.06,0,0,1-3.36,8.32,4.13,4.13,0,0,1,.18.44,18.37,18.37,0,0,1,.26,9.21c-.74,3-2.44,5-4.17,5.49v29.55l-2.78-1.7V164.77a12.38,12.38,0,0,1-3.42-6.74c-.66-3.19-.55-7.32,0-8.6a2.79,2.79,0,0,1,.15-.35,12.82,12.82,0,0,1-2.57-7.81,11.79,11.79,0,0,1,2.13-7,12.49,12.49,0,0,1-3.3-8.93c0-6.13,3.57-12.05,8.37-13.29a7.3,7.3,0,0,1,1.83-.24m-5.48,20.93c.11-.09.22-.15.33-.23l.25-.18a6.17,6.17,0,0,1,3.07-1.05h.31a6.27,6.27,0,0,1,3,.78,2.69,2.69,0,0,1,.29.16c.13.07.26.13.38.21a11.92,11.92,0,0,0,4-9.2c0-5.22-3-8.87-6.64-8.87a5.92,5.92,0,0,0-1.31.15c-3.88.91-6.8,5.65-6.8,10.64a9.66,9.66,0,0,0,3.15,7.6m.31,14.91a.75.75,0,0,1,.13-.06c.09-.05.18-.08.27-.12a3.16,3.16,0,0,1,.54-.2l.32-.08a4.58,4.58,0,0,1,.66-.08l.31,0h.23a8,8,0,0,1,2,.26,1.8,1.8,0,0,1,.33.1,5.55,5.55,0,0,1,.72.25l.34.16a6.21,6.21,0,0,1,.62.35l.3.2.15.1a8.32,8.32,0,0,0,2.76-6.51,9.14,9.14,0,0,0-3-7h0a5.09,5.09,0,0,0-3.24-1.23,4.86,4.86,0,0,0-3.3,1.33,8.51,8.51,0,0,0-2.43,6.25,9.67,9.67,0,0,0,2.25,6.32m3.62,15.48c1.14,0,2.72-1.65,3.36-4.24a16.36,16.36,0,0,0-.06-7,1.15,1.15,0,0,1-.11-.29A2.14,2.14,0,0,0,112,151a4.53,4.53,0,0,0-2.44-1.26l-.58-.11a6.26,6.26,0,0,0-.92-.07,2.82,2.82,0,0,0-1.92.57,1.26,1.26,0,0,0-.4.52,1.43,1.43,0,0,1-.13.28,20.78,20.78,0,0,0,.2,6.82c.65,3.09,2.11,5.09,3.17,5.39a.9.9,0,0,0,.28,0m1.55-52.32a8.25,8.25,0,0,0-2.08.27c-5.2,1.35-9.12,7.48-9.12,14.26a13.94,13.94,0,0,0,3,9,13.07,13.07,0,0,0-1.85,6.87,14,14,0,0,0,2.42,7.95c-.62,1.74-.63,5.92,0,9a13.93,13.93,0,0,0,3.4,7V194l.48.3,2.77,1.7,1.53.94V166.3c1.84-.87,3.43-3.1,4.14-5.94a19.74,19.74,0,0,0-.23-9.65,12.37,12.37,0,0,0,3.18-8.57,13.84,13.84,0,0,0-2.48-8A16.48,16.48,0,0,0,120.19,123c0-6.91-4-12.12-9.34-12.12Zm-5.4,20.65a9.08,9.08,0,0,1-2.23-6.32c0-4.63,2.65-8.87,6-9.66a4.43,4.43,0,0,1,1.08-.13,4.92,4.92,0,0,1,3.9,2.09,9.52,9.52,0,0,1,1.74,5.78,11.23,11.23,0,0,1-3.12,8l-.08,0a7.32,7.32,0,0,0-3.44-.89H109a7,7,0,0,0-3.51,1.18Zm.53,15a8.94,8.94,0,0,1-1.55-5.1,7.56,7.56,0,0,1,2.11-5.51,3.82,3.82,0,0,1,2.62-1.07,4.06,4.06,0,0,1,2.6,1,8.22,8.22,0,0,1,2.61,6.24,7.78,7.78,0,0,1-1.86,5.25L112,147l-.4-.18a7.68,7.68,0,0,0-.82-.29l-.09,0-.28-.08a10.81,10.81,0,0,0-1.27-.24c-.33,0-.65,0-1,0h-.25l-.28,0h-.09a7.49,7.49,0,0,0-.78.1l-.38.1a2.78,2.78,0,0,0-.38.12Zm.73,4.53.11-.12a2,2,0,0,1,1.28-.33,5.54,5.54,0,0,1,.78.06l.51.09a3.65,3.65,0,0,1,1.92,1,1.39,1.39,0,0,1,.23.33,2.24,2.24,0,0,0,.14.36,15.69,15.69,0,0,1,0,6.33c-.56,2.25-1.87,3.48-2.39,3.48h0c-.53-.15-1.85-1.71-2.46-4.64a21.11,21.11,0,0,1-.24-6.24,1.5,1.5,0,0,0,.12-.29Z"/><path class="cls-7" d="M89.35,195.15c5.71.45,20.47,7.3,23.44,8.86.45,2.46-.86,5.55-4.77,6.52a14.63,14.63,0,0,1-7.6-.11C91.3,207.45,86.25,199.81,89.35,195.15Z"/><path class="cls-9" d="M113,188.16s0-1.1,0-1.63c-.23-2.78-4.62-6.21-9.79-9.1-6-3.32-10.78-4.14-13.07-1.15-.89,1.16-.75,3.68-.75,3.68v14.59s0,.4,0,.6c.18,1.85,1.75,3.9,4.12,6,4.29,3.87,9.81,7.34,15.6,5.48,2.48-.79,3.64-1.87,3.85-3.12a7.31,7.31,0,0,0,0-.79Z"/><path class="cls-10" d="M103.15,177.43c8,4.46,14.13,10.23,5.92,12.86-5.79,1.85-11.31-1.62-15.6-5.48-3.49-3.15-5.25-6.09-3.39-8.53C92.37,173.29,97.18,174.11,103.15,177.43Z"/><path class="cls-8" d="M94.23,174.43c2.41,0,5.47,1.09,8.92,3l.87.5.25.15.63.37.25.15.69.43.14.09.81.54.14.09.64.45.19.13.63.46.1.08c.49.37,1,.75,1.38,1.12l.07.07c.2.17.38.34.56.51l0,.06a11.16,11.16,0,0,1,1.48,1.7l0,0a4.42,4.42,0,0,1,.9,2.37c0,.57,0,1.44,0,1.44v14.59a7.31,7.31,0,0,1,0,.79,2.52,2.52,0,0,1-.13.47h0c.45,2.46-.86,5.55-4.77,6.52a16.4,16.4,0,0,1-3.77.45,12.56,12.56,0,0,1-3.83-.56c-9.12-3-14.17-10.61-11.07-15.27,0-.2,0-.6,0-.6V180a9.51,9.51,0,0,1,0-1.16,3.45,3.45,0,0,1,.73-2.52,4.92,4.92,0,0,1,4.15-1.85m0-1a5.85,5.85,0,0,0-4.94,2.24,4.41,4.41,0,0,0-.94,3.14,10.26,10.26,0,0,0,0,1.2v14.88a7.2,7.2,0,0,0-.4,6.14c1.52,4.37,6.3,8.43,12.18,10.34a13.57,13.57,0,0,0,4.14.61,17.17,17.17,0,0,0,4-.48c4.41-1.09,6-4.55,5.56-7.41,0-.13.06-.26.09-.38a7.67,7.67,0,0,0,0-1V188.16s0-.89,0-1.48a5.3,5.3,0,0,0-1.08-2.9,12.78,12.78,0,0,0-1.62-1.87l0,0c-.2-.2-.4-.38-.6-.56l-.08-.07c-.44-.39-.93-.78-1.44-1.17l-.06,0-.69-.51-.19-.13-.66-.46,0,0-.09,0c-.27-.19-.55-.37-.83-.55l-.08-.05-.06,0-.71-.44-.26-.16-.63-.37-.09-.05-.17-.11-.89-.5c-3.73-2.08-6.89-3.13-9.4-3.13Z"/><path class="cls-7" d="M72.08,198.83c5.72.46,20.48,7.3,23.45,8.86.45,2.46-.86,5.55-4.78,6.52a14.59,14.59,0,0,1-7.59-.11C74,211.14,69,203.5,72.08,198.83Z"/><path class="cls-9" d="M95.7,191.84s0-1.1,0-1.63c-.23-2.78-4.62-6.21-9.8-9.09-6-3.32-10.78-4.15-13.06-1.16-.89,1.17-.76,3.69-.76,3.69v14.58s0,.4,0,.6c.19,1.86,1.76,3.9,4.13,6,4.29,3.87,9.8,7.34,15.59,5.49,2.48-.8,3.65-1.88,3.86-3.12a7.56,7.56,0,0,0,0-.8Z"/><path class="cls-10" d="M85.88,181.12c8,4.45,14.13,10.23,5.92,12.85-5.79,1.86-11.3-1.61-15.59-5.48-3.49-3.14-5.26-6.09-3.39-8.53C75.1,177,79.92,177.8,85.88,181.12Z"/><path class="cls-8" d="M77,178.11c2.41,0,5.47,1.09,8.91,3,.3.16.59.32.87.49l.26.15.62.37.26.16.69.43.14.09.81.53.13.09.65.45.18.13.64.46.09.08c.5.37,1,.75,1.38,1.13l.08.06.56.52.05.05a11.74,11.74,0,0,1,1.48,1.7l0,0a4.42,4.42,0,0,1,.9,2.38c0,.56,0,1.43,0,1.43v14.59a7.56,7.56,0,0,1,0,.8,2.64,2.64,0,0,1-.13.46h0c.45,2.46-.86,5.55-4.78,6.52a15.7,15.7,0,0,1-3.76.45,12.56,12.56,0,0,1-3.83-.56c-9.13-3-14.18-10.6-11.08-15.27,0-.2,0-.6,0-.6V183.65a11.34,11.34,0,0,1,0-1.17,3.42,3.42,0,0,1,.73-2.52A4.93,4.93,0,0,1,77,178.11m0-1a5.9,5.9,0,0,0-5,2.24,4.42,4.42,0,0,0-.93,3.15,8,8,0,0,0,0,1.19v14.54s0,.18,0,.34a7.22,7.22,0,0,0-.4,6.15c1.52,4.36,6.3,8.42,12.18,10.33a13.27,13.27,0,0,0,4.14.61,17,17,0,0,0,4-.48c4.42-1.09,6-4.55,5.57-7.41,0-.12.06-.25.08-.38a6.27,6.27,0,0,0,.06-1V191.84s0-.89,0-1.48a5.33,5.33,0,0,0-1.08-2.9A12.78,12.78,0,0,0,94,185.59l0,0-.6-.55-.08-.08c-.45-.38-.93-.78-1.44-1.17l-.07-.05-.68-.5-.19-.14-.66-.46-.06,0-.08-.06-.83-.55-.09-.05,0,0-.71-.44-.26-.15-.63-.38-.09-.05-.18-.1-.88-.51c-3.73-2.07-6.89-3.13-9.4-3.13Z"/><path class="cls-5" d="M83.33,183.73A4.81,4.81,0,0,1,80.47,175c15.43-11.34,3.81-36.38,3.69-36.63a4.81,4.81,0,0,1,8.7-4.12c.63,1.32,15.06,32.52-6.69,48.51A4.75,4.75,0,0,1,83.33,183.73Z"/><path class="cls-5" d="M102.41,182.48a4.82,4.82,0,0,1-4.3-8.08c13.27-13.8-2.43-36.51-2.59-36.73a4.81,4.81,0,1,1,7.87-5.54c.84,1.19,20.37,29.49,1.66,48.94A4.8,4.8,0,0,1,102.41,182.48Z"/><path class="cls-11" d="M82,174.3c.46,3.33,2.72,6.41,6.36,6.77A4.59,4.59,0,0,0,88,184.4s5.09-.68,5.49,3.22c.16,1.47-.53,3.55-2.27,3.88s-5.83.27-8.11-1.2-2.68-7.3-2.68-7.3-2.61-2.35-2.61-3.79A5.68,5.68,0,0,1,82,174.3Z"/><path class="cls-12" d="M88,184.4s-3.88-.13-4.62,1.81"/><path class="cls-13" d="M107.79,130.08c-7.77-4.11-20.11-3.21-25.62-1.7a15.87,15.87,0,0,0,1.88,12.12s3.48,10.35,2.92,18.82c5.83,2.14,12.45.74,12.45.74a26.51,26.51,0,0,0,0-11.23c2,5,2,6.42,2.8,11.23,0,0,6.72,1.3,12.44,0C113.75,149,112.56,141.42,107.79,130.08Z"/><path class="cls-11" d="M98.77,173.9c.85,4.21,3.41,5.91,7.43,5.91a3.59,3.59,0,0,0,.23,3s4.9-1.54,6,2.23c.4,1.42.08,3.59-1.58,4.22s-5.7,1.25-8.2.19-3.88-6.74-3.88-6.74-3-1.87-3.22-3.29A5.71,5.71,0,0,1,98.77,173.9Z"/><path class="cls-12" d="M106.43,182.84s-3.85.53-4.25,2.57"/><path class="cls-12" d="M99.42,148.83A39.61,39.61,0,0,0,98.16,143a5.74,5.74,0,0,0,2-1.27"/><path class="cls-14" d="M83.32,105.37a195,195,0,0,0-2.55,26.16s11.43,5.06,29.17,1.81c.91-17.75-.69-54-11.78-54.74-5.14-.35-6.87,8.42-13,12.48"/><path class="cls-15" d="M83.32,105.37a195,195,0,0,0-2.55,26.16s11.43,5.06,29.17,1.81c.91-17.75-.69-54-11.78-54.74-5.14-.35-6.87,8.42-13,12.48"/><path class="cls-16" d="M83.32,105.37a195,195,0,0,0-2.55,26.16s11.43,5.06,29.17,1.81c.91-17.75-.69-54-11.78-54.74-5.14-.35-6.87,8.42-13,12.48"/><path class="cls-17" d="M68.78,58.83S66.93,67.32,66,75.74c-.79,7.34-6.32,11.54-1.51,16.09,3.18,3,19.06-1,33.64-2.56,12.25-1.26,21.26,2.71,25.77-2,2.4-2.5-2.15-9.61-3.61-17.26a131.45,131.45,0,0,0-4.24-15.92Z"/><path class="cls-5" d="M118.77,65.75c0-14.75-11.76-26.1-26.5-26.1S68,51.22,68,66s9.35,24.67,24.1,24.67h.47c.76,3.15,3,5.42,5.58,5.42,2.9,0,5.3-2.8,5.78-6.48a19.93,19.93,0,0,0,9.22-4.2C118,81,118.77,73.12,118.77,65.75Z"/><path class="cls-17" d="M87.53,49.42c7.11,11.43,20.76,12.33,31.89,11.88.15-5.71-3.64-13.53-9.26-17.59s-12.4-6.77-21-5.42c-4.55.72-11.49,3.23-15.94,8-3.93,4.2-5.61,10.34-6.32,15.64C65.43,73.2,73,85.82,80.66,88.22c-8.62-15.34-1.4-27.07-1.4-27.07s1.63,6.3,5.35,9.33C80.47,61.6,83,53.33,87.53,49.42Z"/><path class="cls-5" d="M79.67,73.87a3.08,3.08,0,0,1-2.47,1.42c-1.88,0-3.41-2-3.41-4.51s1.53-4.52,3.41-4.52a3.06,3.06,0,0,1,2.41,1.33"/><path class="cls-5" d="M108.32,65.13a2.52,2.52,0,1,1,.13,3.6"/><circle class="cls-8" cx="93.6" cy="66.87" r="1.33"/><circle class="cls-8" cx="116.31" cy="66.26" r="1.33"/><line class="cls-12" x1="99.17" y1="80.53" x2="110.16" y2="79.8"/><line class="cls-12" x1="110.16" y1="78.59" x2="110.39" y2="81.4"/><line class="cls-12" x1="99.05" y1="78.99" x2="99.28" y2="81.81"/><path class="cls-5" d="M80.48,144.81a5.85,5.85,0,0,1-.59,0A4.21,4.21,0,0,1,76.3,140c3.75-27.06-8.91-39.55-9-39.67a4.21,4.21,0,1,1,5.83-6.08c.65.62,15.89,15.63,11.55,46.91A4.21,4.21,0,0,1,80.48,144.81Z"/><path class="cls-7" d="M79.94,202.1a.48.48,0,0,1-.26-.07l-2.77-1.71a.49.49,0,0,1-.24-.42V171.45a13.07,13.07,0,0,1-3.41-6.87c-.64-3.07-.62-7.39,0-8.89a.63.63,0,0,1,0-.09,13.34,13.34,0,0,1-2.49-7.88,12.48,12.48,0,0,1,2-6.92,13.17,13.17,0,0,1-3.15-9c0-6.45,3.84-12.5,8.74-13.77a7.76,7.76,0,0,1,2-.26c5,0,8.84,5,8.84,11.62a15.85,15.85,0,0,1-4.31,11.12,13.18,13.18,0,0,1,2.64,8.06A11.73,11.73,0,0,1,84.27,157a.94.94,0,0,1,.06.15,18.8,18.8,0,0,1,.28,9.5c-.72,2.85-2.33,5.05-4.17,5.73V201.6a.5.5,0,0,1-.25.44A.54.54,0,0,1,79.94,202.1Zm-4.31-44.53a20.73,20.73,0,0,0,.23,6.51c.64,3.06,2.06,4.8,2.81,5a.39.39,0,0,0,.15,0c.78,0,2.26-1.37,2.87-3.85a15.92,15.92,0,0,0,0-6.67,1.81,1.81,0,0,1-.13-.35h0a1.62,1.62,0,0,0-.33-.46A4,4,0,0,0,79,156.66l-.54-.1a6.77,6.77,0,0,0-.85-.06,2.42,2.42,0,0,0-1.6.44.8.8,0,0,0-.25.31A3.47,3.47,0,0,1,75.63,157.57Zm2-4.51a7.7,7.7,0,0,1,.94.05,11.34,11.34,0,0,1,1.2.22l.26.08.1,0c.26.08.52.17.76.27l.37.17a6.19,6.19,0,0,1,.67.39l.14.09a8.1,8.1,0,0,0,2.3-5.89,8.61,8.61,0,0,0-2.79-6.62,4.56,4.56,0,0,0-2.93-1.11,4.32,4.32,0,0,0-3,1.19,8,8,0,0,0-2.28,5.88,9.29,9.29,0,0,0,1.9,5.71h0a5.34,5.34,0,0,1,.66-.24l.35-.08a5.21,5.21,0,0,1,.72-.1h.1l.24,0Zm2.2-31.73a5.46,5.46,0,0,0-1.2.14c-3.6.84-6.42,5.3-6.42,10.15a9.36,9.36,0,0,0,2.69,7h0l.27-.19a6.62,6.62,0,0,1,3.32-1.14h.34a6.78,6.78,0,0,1,3.21.84l.24.13.13.08A11.58,11.58,0,0,0,86,129.7C86,124.93,83.35,121.33,79.85,121.33Z"/><path class="cls-8" d="M80.37,118.29c4.57,0,8.34,4.53,8.34,11.12a15.22,15.22,0,0,1-4.49,11.08,12.52,12.52,0,0,1,2.82,8.1,11.07,11.07,0,0,1-3.37,8.32c.08.17.15.33.19.44a18.41,18.41,0,0,1,.26,9.22c-.74,3-2.44,5-4.18,5.48V201.6l-2.77-1.7V171.22a12.35,12.35,0,0,1-3.42-6.74c-.66-3.18-.55-7.32,0-8.6,0-.09.09-.21.15-.35a12.85,12.85,0,0,1-2.56-7.81,11.79,11.79,0,0,1,2.13-7,12.49,12.49,0,0,1-3.3-8.93c0-6.13,3.56-12,8.37-13.29a7.3,7.3,0,0,1,1.83-.24m-5.48,20.93.32-.23.26-.17a6.09,6.09,0,0,1,3.07-1.06h.31a6.27,6.27,0,0,1,3,.78l.29.16c.13.08.26.14.38.22a12,12,0,0,0,4-9.21c0-5.22-3-8.87-6.64-8.87a5.4,5.4,0,0,0-1.31.16c-3.88.9-6.81,5.64-6.81,10.63a9.65,9.65,0,0,0,3.16,7.6m.31,14.91.13-.06.27-.12a4.3,4.3,0,0,1,.54-.2l.31-.07a4.71,4.71,0,0,1,.67-.09l.31,0h.23a6.78,6.78,0,0,1,.88.05,8.07,8.07,0,0,1,1.13.21l.33.1a7.61,7.61,0,0,1,.72.25l.34.16a6.27,6.27,0,0,1,.62.36,2.9,2.9,0,0,1,.29.19l.16.1a8.33,8.33,0,0,0,2.76-6.51,9.16,9.16,0,0,0-3-7h0a5.09,5.09,0,0,0-3.25-1.22,4.86,4.86,0,0,0-3.29,1.32,8.54,8.54,0,0,0-2.44,6.25,9.62,9.62,0,0,0,2.26,6.32m3.62,15.48c1.13,0,2.72-1.65,3.35-4.23a16.46,16.46,0,0,0,0-7,.79.79,0,0,1-.11-.29,2.67,2.67,0,0,0-.45-.67,4.46,4.46,0,0,0-2.44-1.27l-.58-.11a7.85,7.85,0,0,0-.92-.06,2.93,2.93,0,0,0-1.93.56,1.29,1.29,0,0,0-.39.52,1.51,1.51,0,0,1-.13.29,20.43,20.43,0,0,0,.2,6.81c.64,3.09,2.1,5.09,3.17,5.39a.86.86,0,0,0,.28,0m1.55-52.32a8.25,8.25,0,0,0-2.08.27c-5.2,1.35-9.12,7.48-9.12,14.26a13.85,13.85,0,0,0,3,9,13.07,13.07,0,0,0-1.85,6.87,14,14,0,0,0,2.42,7.95c-.62,1.74-.63,5.92,0,9a13.84,13.84,0,0,0,3.4,7V199.9a1,1,0,0,0,.48.85l2.77,1.7a1,1,0,0,0,.52.15,1,1,0,0,0,.49-.13,1,1,0,0,0,.51-.87V172.75c1.85-.86,3.43-3.09,4.15-5.94a19.86,19.86,0,0,0-.23-9.65A12.37,12.37,0,0,0,88,148.59a13.84,13.84,0,0,0-2.48-8,16.51,16.51,0,0,0,4.15-11.16c0-6.91-4-12.12-9.34-12.12ZM75,138a9.11,9.11,0,0,1-2.24-6.33c0-4.63,2.65-8.87,6-9.66a5.15,5.15,0,0,1,1.09-.13,4.92,4.92,0,0,1,3.9,2.09,9.54,9.54,0,0,1,1.74,5.78,11.19,11.19,0,0,1-3.13,8l-.08,0a7.28,7.28,0,0,0-3.43-.89h-.37A7.15,7.15,0,0,0,75,138Zm.53,15a8.92,8.92,0,0,1-1.56-5.1,7.52,7.52,0,0,1,2.12-5.51,3.79,3.79,0,0,1,2.61-1.06,4.09,4.09,0,0,1,2.61,1,8.22,8.22,0,0,1,2.61,6.24A7.72,7.72,0,0,1,82,153.72a5.21,5.21,0,0,0-.52-.28l-.39-.19a8.55,8.55,0,0,0-.82-.29l-.1,0-.28-.08a10.29,10.29,0,0,0-1.26-.24c-.33,0-.65-.05-1-.05h-.25l-.28,0H77a5.79,5.79,0,0,0-.79.11,2.62,2.62,0,0,0-.38.09,2.65,2.65,0,0,0-.37.12Zm.73,4.53a.51.51,0,0,1,.11-.11,1.88,1.88,0,0,1,1.28-.33,5.54,5.54,0,0,1,.78.06l.5.08a3.57,3.57,0,0,1,1.92,1,1.25,1.25,0,0,1,.24.33,2.24,2.24,0,0,0,.14.36,15.81,15.81,0,0,1,0,6.34c-.55,2.25-1.86,3.47-2.38,3.47h0c-.54-.15-1.85-1.71-2.46-4.63a20.83,20.83,0,0,1-.24-6.25,2.61,2.61,0,0,0,.12-.29Z"/><path class="cls-7" d="M71.26,196.45V167.72a13.15,13.15,0,0,1-3.42-6.87c-.63-3.06-.61-7.38,0-8.89a.46.46,0,0,0,0-.09A13.4,13.4,0,0,1,65.43,144a12.44,12.44,0,0,1,2-6.92,13.19,13.19,0,0,1-3.15-9c0-6.45,3.84-12.5,8.74-13.77a7.75,7.75,0,0,1,2-.25c5,0,8.84,5,8.84,11.62a15.83,15.83,0,0,1-4.31,11.11,13.22,13.22,0,0,1,2.64,8.06,11.72,11.72,0,0,1-3.27,8.45c0,.06,0,.11.06.15a18.8,18.8,0,0,1,.28,9.5c-.72,2.86-2.33,5-4.17,5.73v30.08Zm-1-42.61a20.73,20.73,0,0,0,.23,6.51c.64,3.06,2,4.8,2.81,5l.15,0c.78,0,2.25-1.38,2.87-3.86a15.94,15.94,0,0,0,0-6.67,1.27,1.27,0,0,1-.13-.34h0a1.86,1.86,0,0,0-.33-.47,4,4,0,0,0-2.18-1.12l-.54-.1a6.9,6.9,0,0,0-.85-.06,2.41,2.41,0,0,0-1.61.45,1,1,0,0,0-.24.3A2.57,2.57,0,0,1,70.22,153.84Zm2-4.51a7.5,7.5,0,0,1,.93.06,7.83,7.83,0,0,1,1.2.22l.26.07.1,0a4.89,4.89,0,0,1,.76.27l.37.17a5.51,5.51,0,0,1,.67.38l.14.09a8.08,8.08,0,0,0,2.3-5.89,8.62,8.62,0,0,0-2.79-6.62A4.62,4.62,0,0,0,73.26,137a4.28,4.28,0,0,0-3,1.2A8,8,0,0,0,68,144.09a9.27,9.27,0,0,0,1.89,5.7h0a5.71,5.71,0,0,1,.65-.23l.35-.09a5.58,5.58,0,0,1,.73-.1h.58Zm2.18-31.72a4.89,4.89,0,0,0-1.19.14c-3.6.84-6.42,5.29-6.42,10.14a9.34,9.34,0,0,0,2.69,7h0l.27-.19a6.72,6.72,0,0,1,3.32-1.14h.34a6.9,6.9,0,0,1,3.21.84l.24.14.13.07A11.61,11.61,0,0,0,80.58,126C80.58,121.21,77.94,117.61,74.43,117.61Z"/><path class="cls-8" d="M75,114.57c4.57,0,8.34,4.52,8.34,11.12a15.23,15.23,0,0,1-4.49,11.07,12.52,12.52,0,0,1,2.82,8.1,11.09,11.09,0,0,1-3.37,8.33,3.11,3.11,0,0,1,.18.43c.68,1.54,1.09,6,.27,9.22-.74,2.95-2.44,5-4.18,5.48v29.56l-2.77-1.71V167.5a12.39,12.39,0,0,1-3.43-6.75c-.65-3.18-.54-7.31,0-8.59,0-.09.09-.22.15-.35A12.87,12.87,0,0,1,65.93,144a11.85,11.85,0,0,1,2.12-7,12.56,12.56,0,0,1-3.29-8.94c0-6.13,3.56-12,8.37-13.29a7.28,7.28,0,0,1,1.83-.23m-5.48,20.92c.1-.08.22-.14.32-.22l.26-.18A6.19,6.19,0,0,1,73.13,134h.31a6.3,6.3,0,0,1,3,.78l.29.17c.13.07.26.13.38.21a12,12,0,0,0,4-9.2c0-5.22-3-8.87-6.65-8.87a5.9,5.9,0,0,0-1.3.15c-3.88.91-6.81,5.65-6.81,10.63a9.64,9.64,0,0,0,3.16,7.6m.31,14.91a.75.75,0,0,0,.13-.06l.26-.12a5.1,5.1,0,0,1,.55-.19L71,150c.21,0,.44-.07.67-.09l.31,0h.23c.28,0,.57,0,.88,0a9.83,9.83,0,0,1,1.13.21l.33.1a7.63,7.63,0,0,1,.72.26l.34.16a4.71,4.71,0,0,1,.62.35l.29.2.16.1a8.36,8.36,0,0,0,2.76-6.52,9.12,9.12,0,0,0-3-7h0a5.06,5.06,0,0,0-3.25-1.23A4.82,4.82,0,0,0,70,137.84a8.52,8.52,0,0,0-2.44,6.25,9.57,9.57,0,0,0,2.26,6.31m3.62,15.49c1.13,0,2.71-1.65,3.35-4.24a16.4,16.4,0,0,0-.05-7,1.19,1.19,0,0,1-.12-.29,2.1,2.1,0,0,0-.44-.68,4.57,4.57,0,0,0-2.44-1.27l-.58-.1a6.36,6.36,0,0,0-.92-.07,2.87,2.87,0,0,0-1.93.57,1.23,1.23,0,0,0-.39.51,2,2,0,0,1-.13.29,20.21,20.21,0,0,0,.2,6.82c.64,3.09,2.1,5.09,3.17,5.39a1.26,1.26,0,0,0,.28,0M75,113.57a8.38,8.38,0,0,0-2.09.27c-5.19,1.35-9.11,7.48-9.11,14.25a13.89,13.89,0,0,0,3,9A13.07,13.07,0,0,0,64.93,144,13.94,13.94,0,0,0,67.35,152c-.62,1.74-.63,5.92,0,9a14,14,0,0,0,3.41,7v28.79l.48.29L74,198.73l1.52.93V169c1.85-.86,3.43-3.09,4.15-5.93a19.85,19.85,0,0,0-.23-9.65,12.39,12.39,0,0,0,3.18-8.58,13.89,13.89,0,0,0-2.48-8,16.49,16.49,0,0,0,4.15-11.15c0-6.91-4-12.12-9.34-12.12Zm-5.4,20.65a9.09,9.09,0,0,1-2.24-6.33c0-4.62,2.65-8.87,6-9.66a5,5,0,0,1,1.08-.12,5,5,0,0,1,3.91,2.08A9.57,9.57,0,0,1,80.08,126,11.19,11.19,0,0,1,77,134l-.08-.05a7.4,7.4,0,0,0-3.43-.89h-.37a7.15,7.15,0,0,0-3.51,1.19Zm.53,15a8.92,8.92,0,0,1-1.56-5.09,7.54,7.54,0,0,1,2.12-5.52,3.83,3.83,0,0,1,2.61-1.06,4.1,4.1,0,0,1,2.61,1,8.18,8.18,0,0,1,2.61,6.23A7.8,7.8,0,0,1,76.61,150a5.29,5.29,0,0,0-.52-.29l-.39-.18a6.48,6.48,0,0,0-.82-.29l-.1,0-.28-.09a10.2,10.2,0,0,0-1.26-.23,8.1,8.1,0,0,0-1-.06H72l-.27,0h-.09a5.66,5.66,0,0,0-.79.1l-.38.09-.37.12Zm.73,4.54a.34.34,0,0,1,.11-.12,1.94,1.94,0,0,1,1.28-.33,5.54,5.54,0,0,1,.78.06,3.71,3.71,0,0,1,.5.09,3.54,3.54,0,0,1,1.92,1,1.35,1.35,0,0,1,.24.33,1.83,1.83,0,0,0,.14.35,15.82,15.82,0,0,1,0,6.34c-.55,2.25-1.86,3.48-2.38,3.48h0c-.54-.16-1.85-1.72-2.47-4.64A21,21,0,0,1,70.7,154c0-.12.09-.23.12-.29Z"/><path class="cls-7" d="M53.45,197.88c5.71.45,20.48,7.29,23.45,8.86.45,2.46-.87,5.55-4.78,6.52a14.6,14.6,0,0,1-7.59-.12C55.4,210.18,50.35,202.54,53.45,197.88Z"/><path class="cls-9" d="M77.07,190.89s0-1.11,0-1.64c-.23-2.77-4.62-6.21-9.8-9.09-6-3.32-10.78-4.15-13.06-1.16-.89,1.17-.76,3.69-.76,3.69v14.59s0,.4,0,.6c.19,1.85,1.76,3.89,4.13,6,4.29,3.87,9.8,7.34,15.59,5.49,2.48-.79,3.65-1.88,3.86-3.12a7.46,7.46,0,0,0,0-.8Z"/><path class="cls-10" d="M67.25,180.16c8,4.46,14.13,10.23,5.92,12.86-5.79,1.85-11.3-1.62-15.59-5.49-3.49-3.14-5.26-6.09-3.39-8.53C56.47,176,61.29,176.84,67.25,180.16Z"/><path class="cls-8" d="M58.34,177.16c2.41,0,5.47,1.08,8.91,3l.87.49.26.15.62.38.26.15.69.43.14.09.81.53.13.09.65.45.18.13c.22.16.43.31.63.47l.1.07c.5.38,1,.75,1.38,1.13l.08.07.56.51,0,0a12.9,12.9,0,0,1,1.48,1.7l0,0a4.36,4.36,0,0,1,.9,2.37c0,.57,0,1.44,0,1.44v14.58a7.46,7.46,0,0,1,0,.8,2.75,2.75,0,0,1-.13.47h0c.45,2.46-.87,5.55-4.78,6.52a16.23,16.23,0,0,1-3.76.45,12.28,12.28,0,0,1-3.83-.57c-9.13-3-14.18-10.6-11.08-15.26,0-.2,0-.6,0-.6V182.69a11.14,11.14,0,0,1,0-1.16,3.43,3.43,0,0,1,.73-2.53,4.91,4.91,0,0,1,4.15-1.84m0-1a5.87,5.87,0,0,0-5,2.24,4.4,4.4,0,0,0-.93,3.14,11.68,11.68,0,0,0,0,1.19v14.55s0,.18,0,.33a7.23,7.23,0,0,0-.4,6.15c1.52,4.37,6.3,8.42,12.18,10.33a13.27,13.27,0,0,0,4.14.62,17,17,0,0,0,4-.48c4.42-1.1,6-4.55,5.56-7.41a2.74,2.74,0,0,0,.09-.39,5,5,0,0,0,0-1V190.89s0-.89,0-1.49A5.3,5.3,0,0,0,77,186.51a13.46,13.46,0,0,0-1.62-1.88l0,0c-.21-.2-.4-.38-.61-.56l-.08-.07c-.44-.39-.92-.78-1.43-1.17l-.07-.05-.68-.51-.19-.13-.66-.46-.06,0-.08-.06-.83-.54-.09-.06-.05,0-.71-.44-.26-.16-.64-.38-.08-.05-.18-.1c-.29-.17-.58-.34-.88-.5-3.73-2.08-6.89-3.13-9.4-3.13Z"/><path class="cls-5" d="M29.85,140.4a4.2,4.2,0,0,1-4.18-3.78C22.25,103.68,42,88.91,42.87,88.3a4.21,4.21,0,0,1,5,6.8c-.72.54-16.68,12.78-13.79,40.66a4.21,4.21,0,0,1-3.75,4.62Z"/><line class="cls-18" x1="33.36" y1="115.82" x2="33.36" y2="197.93"/><path class="cls-7" d="M33.36,200.24a2.31,2.31,0,0,1-2.31-2.31V115.82a2.31,2.31,0,1,1,4.61,0v82.11A2.31,2.31,0,0,1,33.36,200.24Z"/><path class="cls-8" d="M33.36,114a1.81,1.81,0,0,1,1.8,1.81v82.11a1.81,1.81,0,1,1-3.61,0V115.82A1.81,1.81,0,0,1,33.36,114m0-1a2.81,2.81,0,0,0-2.81,2.81v82.11a2.81,2.81,0,1,0,5.61,0V115.82a2.81,2.81,0,0,0-2.8-2.81Z"/><path class="cls-7" d="M51.14,201c-1.92-2.92-15.32-3.33-17.62,0-2.63,3.81-.24,11.93,8.69,11.93S53.43,204.5,51.14,201Z"/><path class="cls-9" d="M50.87,202a14.27,14.27,0,0,0,0-1.85V186.31H33.52v16.23h.1c.49,3.49,2.84,6.15,8.7,6.15s8-2.65,8.49-6.15h.06Z"/><path class="cls-10" d="M50.74,183.14c.69,5.16-.6,9.88-8.42,9.88s-9.39-4.73-8.62-9.88c.8-5.36,3.31-7.17,8.51-7.17S50,177.88,50.74,183.14Z"/><path class="cls-8" d="M42.21,176c5.21,0,7.83,1.91,8.53,7.17a14.83,14.83,0,0,1,.12,3.17h0V200.1c0,.22,0,.43,0,.64a1.88,1.88,0,0,1,.27.3c2.29,3.46,0,11.93-8.93,11.93S30.89,204.85,33.52,201V186.31h0a14.22,14.22,0,0,1,.13-3.17c.8-5.36,3.31-7.17,8.51-7.17m0-1c-5.9,0-8.65,2.33-9.5,8a15.67,15.67,0,0,0-.16,3.09.85.85,0,0,0,0,.23v14.43a8.32,8.32,0,0,0,0,8c1.74,3.32,5.26,5.23,9.65,5.23s7.79-1.92,9.59-5.27c1.48-2.75,1.56-6.13.18-8.21l-.11-.15v-14h0a17.06,17.06,0,0,0-.14-3.3c-.75-5.63-3.59-8-9.52-8Z"/><path class="cls-19" d="M37.32,123.18a445.14,445.14,0,0,0,2.16,55l2.46,2.56,4.46-2.56s.86-41.71,5.52-41.71S59,177.07,59,177.07l3.42,3,4-2.33c.83-22-.67-31.8-2.93-54.51C57.78,122.27,42.59,112.2,37.32,123.18Z"/><path class="cls-20" d="M34.77,94.45c2.55,5.27,7.55,7.37,12.33,7.37,3.16-9.17,17.7-21.45,8.55-20.13S37.77,89.19,34.77,94.45Z"/><path class="cls-21" d="M34.77,94.45c2.55,5.27,7.55,7.37,12.33,7.37,3.16-9.17,17.7-21.45,8.55-20.13S37.77,89.19,34.77,94.45Z"/><path class="cls-12" d="M34.77,94.45c2.55,5.27,7.55,7.37,12.33,7.37,3.16-9.17,17.7-21.45,8.55-20.13S37.77,89.19,34.77,94.45Z"/><path class="cls-22" d="M57.4,181.23a7.4,7.4,0,0,0,4,3.64,5.53,5.53,0,0,0,3.16,3.71,12.51,12.51,0,0,0,8.8.67c1.79-.54,1.51-5-.07-5.9a7.09,7.09,0,0,0-3.77-.64s-3.15-1.93-3.09-5c-2,.53-5.74,1.71-7.4-.62C55.7,178.8,57.1,180.4,57.4,181.23Z"/><path class="cls-12" d="M69.75,182.72a15.64,15.64,0,0,0-4.44.53"/><path class="cls-22" d="M39.48,178.22a8,8,0,0,0,6.92,0,10,10,0,0,1,.7,3,20.5,20.5,0,0,1,0,6.46L36.51,185Z"/><path class="cls-22" d="M36.27,187.69s.9,1.39,5.11,1.39,5.72-1.39,5.72-1.39c-.12-3.84-1.35-5.64-5.87-5.64S36.27,184.61,36.27,187.69Z"/><path class="cls-20" d="M36.27,127.39c7.37,2,22,1.8,28.58,0-.76-10.68.52-15.79,1.05-22.11,4.43-.49,9.5-2.26,11.88-5.72-2.38-4.66-4.89-7.21-9.66-10.37,2.21-2.56,14.47-6.92-2.22-10.08S37.17,108.66,36.27,127.39Z"/><path class="cls-21" d="M36.27,127.39c7.37,2,22,1.8,28.58,0-.76-10.68.52-15.79,1.05-22.11,4.43-.49,9.5-2.26,11.88-5.72-2.38-4.66-4.89-7.21-9.66-10.37,2.21-2.56,14.47-6.92-2.22-10.08S37.17,108.66,36.27,127.39Z"/><path class="cls-12" d="M36.27,127.39c7.37,2,22,1.8,28.58,0-.76-10.68.52-15.79,1.05-22.11,4.43-.49,9.5-2.26,11.88-5.72-2.38-4.66-4.89-7.21-9.66-10.37,2.21-2.56,14.47-6.92-2.22-10.08S37.17,108.66,36.27,127.39Z"/><path class="cls-5" d="M73.35,39.9c-14-4.72-26.71,3.19-31.43,17.15-4.41,13,.25,24.71,12.26,30a6.61,6.61,0,0,0,12.1,3.52c4.4.75,8.74.78,12.19-.71,6-2.6,9.27-9.8,11.63-16.78C94.82,59.15,87.32,44.63,73.35,39.9Z"/><path class="cls-5" d="M76.44,69.79a2.52,2.52,0,1,1-1,3.45"/><circle class="cls-8" cx="65.89" cy="66.12" r="1.33"/><circle class="cls-8" cx="87.6" cy="72.82" r="1.33"/><path class="cls-23" d="M61.94,76.66c5.46,3.65,13,6.49,17.5,6.35C74.17,86.93,64.34,83.35,61.94,76.66Z"/><path class="cls-24" d="M46.7,82.1C44.49,70,49,56.4,49,56.4l5.18,7.42,10.39-10,1.76,11,9.08-9V67.45L83.6,56.4l1.25,14,4.08-7.47L90.66,75.2c1.56-5.59,2.91-13.35.85-20-2.28-7.38-8.42-13.52-16.11-16.67-8.09-3.32-18.12-2.35-25.09,2.63-5.63,4-9,11.07-10,17.36C37.92,72.62,41.48,78,46.7,82.1Z"/><line class="cls-25" x1="65.9" y1="105.28" x2="66.65" y2="96.31"/><path class="cls-5" d="M49.36,66.28a3.05,3.05,0,0,1-2.56,1.25c-1.88-.12-3.26-2.24-3.1-4.72s1.82-4.41,3.69-4.28A3,3,0,0,1,49.71,60"/><path class="cls-5" d="M84.89,102.9c-5.14,5.32-13,16.56-8.22,32a4.21,4.21,0,0,1-8,2.5C63,119.31,71.37,104.61,79.11,96.7"/><path class="cls-6" d="M85.7,91.4c-4.1.44-8.56,3.13-11.87,9.36a22.38,22.38,0,0,0,11.24,6.06c1.52-2.55,3.08-5.49,3.08-5.49"/><polygon class="cls-26" points="140.6 212.91 150.04 214.48 46.62 223.25 38.76 221.24 140.6 212.91"/><path class="cls-27" d="M129.11,231.86c8.25,5.68,16.83,10.84,25.55,15.74s17.61,9.44,26.64,13.68a357.31,357.31,0,0,0,55.87,20.87,351.76,351.76,0,0,0,58.44,10.6q14.77,1.44,29.59,1.67a282.5,282.5,0,0,0,29.43-1,167.62,167.62,0,0,0,28.5-4.82,82.28,82.28,0,0,0,13-4.64,34.56,34.56,0,0,0,10.28-6.86,13.4,13.4,0,0,0,4-8.82,11,11,0,0,0-2.64-8.33,29.38,29.38,0,0,0-9.18-6.91,76.55,76.55,0,0,0-12.48-5,180.24,180.24,0,0,0-27.91-5.85c-9.59-1.33-19.33-2.19-29.12-2.76-19.58-1.13-39.35-1.18-59.08-.58l-.14-23.53c20.3.38,40.61,1.41,60.94,3.58,10.16,1.1,20.34,2.5,30.51,4.41a199.08,199.08,0,0,1,30.47,8,91.6,91.6,0,0,1,15.06,6.9,44.74,44.74,0,0,1,13.89,12,27.85,27.85,0,0,1,4.49,9.44,26.79,26.79,0,0,1,.55,10.47,30.75,30.75,0,0,1-1.07,4.82l-.37,1.14c-.12.37-.3.82-.46,1.22a25.14,25.14,0,0,1-1.09,2.42,29.4,29.4,0,0,1-6.1,7.91,48.55,48.55,0,0,1-15,9.13,94.38,94.38,0,0,1-15.47,4.69,179.81,179.81,0,0,1-30.89,3.7,291.61,291.61,0,0,1-30.6-.41c-10.15-.64-20.24-1.73-30.27-3.21a357.25,357.25,0,0,1-59.06-13.73A361.36,361.36,0,0,1,180,263.92q-13.32-7.07-26.09-15.05C145.41,243.52,137.07,237.94,129.11,231.86Z"/><path class="cls-27" d="M239.8,227.85c14.07-5.6,31.48-15,42.18-24.76l-8.05,24,9.14,23.57C271.94,241.36,254.12,232.78,239.8,227.85Z"/><path class="cls-28" d="M298.38,256l-20.7,9.7a3.48,3.48,0,0,0,1.25,6.62l63.71,4.14a39.69,39.69,0,0,0,19.43-3.67l20.7-9.7a3.48,3.48,0,0,0-1.25-6.62l-63.7-4.14A39.82,39.82,0,0,0,298.38,256Z"/><path class="cls-28" d="M361.83,260.68l-26.5-124a5.22,5.22,0,0,0-10.2,0L298.62,260.68a4.37,4.37,0,0,0-.35,1.62c0,6.41,14.31,11.61,32,11.61s31.95-5.2,31.95-11.61A4.37,4.37,0,0,0,361.83,260.68Z"/><circle class="cls-29" cx="320.01" cy="248.19" r="4.92"/><circle class="cls-29" cx="322.87" cy="212.36" r="4.92"/><circle class="cls-29" cx="325.73" cy="176.53" r="4.92"/></svg>