<svg id="レイヤー_1" data-name="レイヤー 1" xmlns="http://www.w3.org/2000/svg" viewBox="0 0 656.06 285.54"><defs><style>.cls-1{fill:#f5e929;}.cls-1,.cls-10,.cls-11,.cls-12,.cls-13,.cls-14,.cls-15,.cls-18,.cls-19,.cls-2,.cls-20,.cls-21,.cls-22,.cls-23,.cls-24,.cls-3,.cls-4,.cls-5,.cls-6,.cls-7,.cls-8{stroke:#41210d;stroke-linecap:round;stroke-linejoin:round;}.cls-2{fill:#8a6139;}.cls-3{fill:#f2d9bd;}.cls-4{fill:#f5dd77;}.cls-16,.cls-5{fill:none;}.cls-6{fill:#ba9946;}.cls-7{fill:#0863a7;}.cls-8{fill:#7f8080;}.cls-26,.cls-9{fill:#41210d;}.cls-10{fill:#e79eb0;}.cls-11{fill:#e6e6e5;}.cls-12{fill:#e99fb1;}.cls-13{fill:#f4e028;}.cls-14,.cls-17{fill:#d71718;}.cls-15{fill:#1b9a47;}.cls-16{stroke:#d71718;stroke-miterlimit:10;stroke-width:3px;}.cls-18{fill:#c5b098;}.cls-19{fill:#745133;}.cls-20{fill:#fff;}.cls-21{fill:#e99413;}.cls-22{fill:#595757;}.cls-23{fill:#5f3819;}.cls-24{fill:#e60012;}.cls-25{fill:#fefce9;}.cls-26{font-size:13px;font-family:HiraMaruPro-W4-83pv-RKSJ-H, Hiragino Maru Gothic Pro;}.cls-27{letter-spacing:-0.4em;}.cls-28{letter-spacing:-0.65em;}</style></defs><title>リアクション</title><polygon class="cls-1" points="496.9 233.33 484.12 233.63 598.28 169.53 610.61 169.49 496.9 233.33"/><path class="cls-2" d="M614.58,124.76c-7.66,1.11-12.19,7.76-11.94,16.34.24,8.26,9.87,13.92,1.7,26.73,7.21-1.9,12.51-11.62,12.17-18s-7.08-11,.15-20.21C617.17,125.84,614.58,124.76,614.58,124.76Z"/><path class="cls-3" d="M622.84,198.54a4.26,4.26,0,0,1-2.29-.32c-14.48-6.35-22.71-27.92-23-28.84a4.26,4.26,0,1,1,8-3h0c2,5.3,9.23,20,18.5,24a4.26,4.26,0,0,1-1.13,8.12Z"/><path class="cls-4" d="M601.54,156.05c5.29,15.27,13.68,27,20.5,32.59.38,7.22-4.58,9-4.58,9C608.87,191.2,600,179,595.6,167.25Z"/><path class="cls-4" d="M601.72,147.13c-7.2,3.72-18.12,17.27-21.39,32-3.67,16.62-5.17,30.31,4.46,35.64,4.83,2.67,11.56,2.84,14.7,1.7a14.72,14.72,0,0,0,7.91-7.94c1.18-3.34-1.24-14.25-1.72-28.08C605.21,167.07,606.19,152.47,601.72,147.13Z"/><path class="cls-5" d="M604,188.15s-9.15,1-13.66,8.27"/><path class="cls-6" d="M604.53,189.14c-8.18,1.18-9.92,10-10.92,16.08s3.65,11.92,5.88,11.28,6.21-4.59,7.91-7.94S612.72,188,604.53,189.14Z"/><path class="cls-6" d="M604.53,189.14a10.06,10.06,0,0,0-7,4.34c.65-.33,1.3-.64,2-.9A27.45,27.45,0,0,1,604.53,189.14Z"/><path class="cls-7" d="M613.7,187.45a14.29,14.29,0,0,0-9.17,1.69h0c2.53-.37,3.93,1,4.61,3.22,7.56,2.85,10.48,12,11.06,17.78a4.27,4.27,0,0,0,2.67,1h.32a4.27,4.27,0,0,0,3.93-4.56C626.65,200.26,623.3,189.19,613.7,187.45Z"/><path class="cls-8" d="M606.84,191.7a13.64,13.64,0,0,1,2.3.66c-.68-2.19-2.08-3.59-4.61-3.22h0a27.45,27.45,0,0,0-5,3.44A13.33,13.33,0,0,1,606.84,191.7Z"/><path class="cls-7" d="M620.2,210.14c-.58-5.8-3.5-14.93-11.06-17.78a13.64,13.64,0,0,0-2.3-.66,13.33,13.33,0,0,0-7.36.88c-.67.26-1.32.57-2,.9a16.61,16.61,0,0,0-1.25,2.12,35.65,35.65,0,0,0-2.65,9.62,10.9,10.9,0,0,0-.07,2.79c3.06-3.66,7.1-7.28,10.26-7.88a4.14,4.14,0,0,1,1.52,0,5.86,5.86,0,0,1,3.71,2.81,20.47,20.47,0,0,1,2.74,8.53,4.27,4.27,0,0,0,4.24,3.94h.33a4.26,4.26,0,0,0,3.92-4.57C620.25,210.58,620.22,210.35,620.2,210.14Z"/><path class="cls-3" d="M603.1,179.66c2.48,6.78,6.79,15.45,12.81,19.15a4.26,4.26,0,1,1-4.47,7.25c-8.93-5.49-14.21-17.25-16.81-24.82"/><path class="cls-4" d="M591,172.27s5.69,23.19,17.49,33.14c0,0,5.83-2,6.76-7.68-9.08-9.34-13.65-25.46-13.65-25.46"/><path class="cls-3" d="M628.71,139.36c0,6.74-.7,11.91-4.78,15.93-5,4.91-14.11,7.92-22.35,7.92-15,0-27.14-8.87-27.14-23.85a27.14,27.14,0,1,1,54.27,0Z"/><path class="cls-3" d="M618.94,139.37a2.7,2.7,0,0,1,1.75-1.14,2.74,2.74,0,1,1-.89,5"/><ellipse class="cls-9" cx="616.73" cy="153.01" rx="1.99" ry="1.2" transform="translate(-13.48 234.29) rotate(-21.28)"/><circle class="cls-9" cx="605.21" cy="144.59" r="1.7"/><ellipse class="cls-9" cx="625.98" cy="136.89" rx="1.15" ry="1.7" transform="translate(-14.75 129.57) rotate(-11.68)"/><path class="cls-2" d="M589.66,144.59c1.72-8.31,7.64-16.32,10.54-18.14l1.38-4.57,5.34,2,1.85-4.15,3.5,2,2.13-2.73,3.53,2.43,2-2.1a27.13,27.13,0,0,0-45.5,20c0,10.85,6.38,18.49,15.58,21.88A42.48,42.48,0,0,1,589.66,144.59Z"/><path class="cls-2" d="M576.89,130.6c-7.71.71-12.58,7.11-12.78,15.7-.19,8.26,9.13,14.41.31,26.78,7.3-1.52,13.09-11,13.09-17.33s-6.5-11.36,1.2-20.18C579.42,131.82,576.89,130.6,576.89,130.6Z"/><path class="cls-10" d="M576.89,130.6c1.94,1.42,1.82,5,1.82,5a1.83,1.83,0,0,0,2.13-.71,4.3,4.3,0,0,0-2-5.27A1.88,1.88,0,0,0,576.89,130.6Z"/><path class="cls-3" d="M591.76,148.21a3.81,3.81,0,0,1-2.7,1.15c-2.3,0-4.17-2.13-4.17-4.77s1.87-4.76,4.17-4.76a3.88,3.88,0,0,1,2.85,1.29"/><path class="cls-11" d="M619.86,212.32c.57.84,5.15,1.32,6.78,0,1.34,1.37,8.65,1.18,9.41-1.33a7.34,7.34,0,0,0,0-2.31l-6.49-1.11a2.72,2.72,0,0,1-2.34-.95c-.56,3.1-5.85,3.9-7.74,1.87A5,5,0,0,0,619.86,212.32Z"/><path class="cls-12" d="M619.86,210.73c.57.85,5.15,1.32,6.78,0,1.34,1.37,8.65,1.18,9.41-1.32a7.39,7.39,0,0,0,0-2.32l-6.49-1.1a2.71,2.71,0,0,1-2.34-1c-.56,3.1-5.85,3.91-7.74,1.88A4.94,4.94,0,0,0,619.86,210.73Z"/><path class="cls-12" d="M629.4,207.89c0-2.09,1.24-3.1,3.32-3.1s3.33,1,3.33,3.1"/><path class="cls-11" d="M611.51,215.85c.61.91,5.52,1.42,7.28,0,1.44,1.47,9.29,1.26,10.1-1.42a7.83,7.83,0,0,0,0-2.49l-7-1.18a2.94,2.94,0,0,1-2.52-1c-.6,3.33-6.28,4.19-8.31,2A5.28,5.28,0,0,0,611.51,215.85Z"/><path class="cls-12" d="M611.51,214.14c.61.91,5.52,1.42,7.28,0,1.44,1.47,9.29,1.27,10.1-1.42a7.77,7.77,0,0,0,0-2.48l-7-1.19a2.91,2.91,0,0,1-2.52-1c-.6,3.34-6.28,4.2-8.31,2A5.26,5.26,0,0,0,611.51,214.14Z"/><path class="cls-12" d="M621.75,211.09c0-2.24,1.33-3.32,3.57-3.32s3.57,1.08,3.57,3.32"/><path class="cls-13" d="M301.23,166.87c-13.48,0-24.75-2.65-26.52-8.91a6.66,6.66,0,0,1,1-5.51c4.18-6.58,19.25-13,37.49-16,20.5-3.36,43.69-2,46.29,7.24h0a6.62,6.62,0,0,1-1,5.51c-4.18,6.58-19.25,13-37.49,16A124.27,124.27,0,0,1,301.23,166.87Zm31.47-29.1a118.3,118.3,0,0,0-19,1.63c-17.17,2.82-31.75,8.85-35.44,14.66a3.76,3.76,0,0,0-.68,3.08c1.55,5.49,19.56,8.94,42.92,5.1,17.18-2.82,31.75-8.85,35.45-14.66a3.76,3.76,0,0,0,.68-3.08C355.55,140.63,346.27,137.77,332.7,137.77Z"/><path class="cls-7" d="M238.44,200.69c-13.47,0-24.75-2.65-26.51-8.91a6.6,6.6,0,0,1,1-5.5c4.18-6.58,19.25-13,37.49-16,20.5-3.36,43.69-2,46.29,7.25a6.6,6.6,0,0,1-1,5.5c-4.18,6.58-19.25,13-37.49,16A124.27,124.27,0,0,1,238.44,200.69Zm31.47-29.09a117,117,0,0,0-19,1.63c-17.18,2.82-31.76,8.85-35.45,14.66a3.75,3.75,0,0,0-.68,3.07c1.55,5.5,19.56,8.94,42.92,5.1,17.18-2.82,31.76-8.85,35.45-14.66a3.76,3.76,0,0,0,.68-3.08h0C292.76,174.45,283.48,171.6,269.91,171.6Z"/><path class="cls-14" d="M175.65,234.51c-13.47,0-24.74-2.65-26.51-8.91a6.6,6.6,0,0,1,1-5.5c4.18-6.58,19.25-13,37.49-16,20.5-3.37,43.69-2,46.29,7.24h0a6.6,6.6,0,0,1-1,5.5c-4.18,6.58-19.25,13-37.49,16A125.42,125.42,0,0,1,175.65,234.51Zm31.47-29.09a118.09,118.09,0,0,0-19,1.63c-17.18,2.82-31.76,8.85-35.45,14.66a3.76,3.76,0,0,0-.68,3.08c1.55,5.49,19.56,8.93,42.93,5.09,17.17-2.82,31.75-8.84,35.44-14.66a3.75,3.75,0,0,0,.68-3.07h0C230,208.27,220.69,205.42,207.12,205.42Z"/><path class="cls-15" d="M112.86,268.34c-13.47,0-24.74-2.65-26.51-8.92a6.6,6.6,0,0,1,1-5.5c4.18-6.58,19.25-13,37.49-16,20.5-3.37,43.69-2,46.3,7.24h0a6.66,6.66,0,0,1-1,5.51c-4.18,6.58-19.25,13-37.49,16A124.27,124.27,0,0,1,112.86,268.34Zm31.47-29.1a118.09,118.09,0,0,0-19,1.63c-17.18,2.82-31.75,8.85-35.45,14.66a3.72,3.72,0,0,0-.67,3.08c1.55,5.49,19.56,8.94,42.92,5.1,17.17-2.82,31.75-8.85,35.44-14.66a3.77,3.77,0,0,0,.68-3.08h0C167.19,242.1,157.9,239.24,144.33,239.24Z"/><path class="cls-16" d="M516.26,205.37S317.7,199.65,210,242.22"/><polygon class="cls-17" points="209.15 233.93 199.33 246.76 215.35 248.84 209.15 233.93"/><path class="cls-3" d="M149.11,92.75a4,4,0,0,1-2.46-7.15c11.36-8.88,28.52-22.33,30.42-23.9a4.17,4.17,0,0,1,.85-.63,4,4,0,0,1,5.28,1.29c2,3.07-.68,5.23-2.14,6.4l-3.5,2.77L167,79.84,151.57,91.91A4,4,0,0,1,149.11,92.75Z"/><path class="cls-18" d="M121.55,186s-1.66,6.88-.43,8.13,5,1.78,7.29,1c1.7,1.56,9.39,2.13,11.89,1.56.77-.6,1.14-5.81-1.48-7.5s-6.34.18-7.4-.32-1.37-2.5-1.37-2.5l-9-.32"/><path class="cls-19" d="M121.55,184.54s-1.66,6.88-.43,8.13,5,1.78,7.29,1c1.7,1.56,9.39,2.13,11.89,1.56.77-.6,1.14-5.81-1.48-7.5s-6.34.18-7.4-.32-1.37-2.5-1.37-2.5l-9-.32"/><path class="cls-18" d="M131.65,174.42s-1.66,6.87-.43,8.12,5,1.79,7.29,1c1.7,1.55,9.39,2.13,11.89,1.55.77-.59,1.14-5.8-1.48-7.49s-6.34.17-7.4-.33-1.37-2.5-1.37-2.5l-9-.31"/><path class="cls-19" d="M131.65,172.92s-1.66,6.87-.43,8.12,5,1.79,7.29,1c1.7,1.55,9.39,2.13,11.89,1.55.77-.59,1.14-5.8-1.48-7.49s-6.34.17-7.4-.33-1.37-2.5-1.37-2.5l-9-.31"/><path class="cls-20" d="M142.61,134.11v39.81c0,4.87-13.38,3.25-13.38,3.25l-.65-37.63Z"/><path class="cls-20" d="M120.67,134.66s-.94,46.25-.94,53.38c6.25.13,10,.68,12.63-2-.25-9.37-2.5-33.37,5.87-46.5S120.67,134.66,120.67,134.66Z"/><path class="cls-21" d="M118.86,142.54a29.47,29.47,0,0,0,25.81-7.25s.69-31.06-.56-36.87S138,81.8,135.59,81.8c-8.26,1.71-14.64,15.47-15.86,29.62C118.41,126.79,118.86,142.54,118.86,142.54Z"/><polygon class="cls-21" points="135.59 96.04 137.14 110.26 140.87 107.29 139.88 96.04 135.59 96.04"/><ellipse class="cls-21" cx="138.68" cy="103.66" rx="0.73" ry="1.47"/><ellipse class="cls-22" cx="142.56" cy="104.01" rx="0.67" ry="1.38" transform="translate(-14.22 185.01) rotate(-63.44)"/><ellipse class="cls-22" cx="139.9" cy="109.01" rx="4.78" ry="5.86"/><ellipse class="cls-22" cx="137.88" cy="104.85" rx="1.37" ry="0.67" transform="translate(-35.34 105.68) rotate(-37.52)"/><path class="cls-5" d="M139.9,114.87s5.36,31.49,1.4,34.24S139.9,114.87,139.9,114.87Z"/><path class="cls-3" d="M146.05,109c0-3.4-3.25-2.61-6.15,0-2.53,2.27-6.15-3.4-6.15,0a6.14,6.14,0,0,0,.73,2.9A40.78,40.78,0,0,1,128,117a57.26,57.26,0,0,1-.17-11.54,4,4,0,1,0-8-.62c-1.32,17,2.57,19.31,3.84,20.05a5.52,5.52,0,0,0,2.85.75c3.58,0,8-3.23,13.81-9a13.68,13.68,0,0,0,1.42-1.85A6.14,6.14,0,0,0,146.05,109Z"/><path class="cls-21" d="M125.61,87.67s-7.72,11-7.72,24c5.68,1.52,9.93,1.7,11.92.78a40.14,40.14,0,0,1,1.05-8.79"/><path class="cls-21" d="M142.61,100.34s3.7-4.55,12.8-8.92c-2.95-4.25-4.24-11.67-4.24-11.67l-15.58,9.54Z"/><polygon class="cls-3" points="127.86 90.79 135.59 98.38 140.65 97.25 145.37 89.96 127.86 90.79"/><polygon class="cls-21" points="138.23 97.79 133.73 102.79 124.37 91.42 129.81 89.96 138.23 97.79"/><polygon class="cls-21" points="138.23 97.79 141.87 100.97 143.56 92.75 141.87 89.96 138.23 97.79"/><path class="cls-15" d="M207.85,89.66c-13,.31-26.25-13.14-30.65-31.89-2.89-12.26-1.44-24.59,3.86-33,3.23-5.12,7.66-8.41,12.82-9.52,14-3,29.23,11.12,34,31.5h0c2.88,12.26,1.44,24.58-3.86,33-3.24,5.11-7.67,8.4-12.82,9.51A18.45,18.45,0,0,1,207.85,89.66ZM197.38,17.88a14.7,14.7,0,0,0-2.87.34c-4.35.93-8.13,3.76-10.92,8.18-4.88,7.72-6.18,19.19-3.47,30.68,4.42,18.8,18.08,31.93,30.46,29.25,4.35-.94,8.13-3.77,10.92-8.19,4.88-7.71,6.18-19.18,3.48-30.68C220.9,30.11,208.94,17.6,197.38,17.88Z"/><path class="cls-3" d="M108.36,61.33a23.53,23.53,0,1,1,47.05,0c0,13-1.22,32.8-23.52,32.8S108.36,74.32,108.36,61.33Z"/><path class="cls-23" d="M142,43.51c-15.75,6.91-12.23,26.8-12.23,26.8l-2.16-.06s.89-4.76-.6-5.28c-4.26,4-5.51,13.84-.89,28.64-10.37-1.69-17-9.87-18.24-20.49-1.43-12.16.27-26,10.52-32.27s22.74-2.18,22.74-2.18S153.23,38,142,43.51Z"/><line class="cls-5" x1="150.35" y1="65.9" x2="150.35" y2="71.98"/><circle class="cls-9" cx="140.48" cy="69.9" r="1.39"/><circle class="cls-9" cx="153.86" cy="62.41" r="1.39"/><path class="cls-23" d="M133.45,42.07a13.2,13.2,0,0,0-.71,5.81,8.57,8.57,0,0,0,5.54-1.66A16,16,0,0,0,141,52.27c2.92-2.08,4-6.05,4-6.05a15.62,15.62,0,0,0,8.31,1,26.94,26.94,0,0,0-7.18-5.93A9.7,9.7,0,0,0,148.66,36a13.67,13.67,0,0,0-6.24,1.52,16.42,16.42,0,0,0-2.94-4.42c-3.21,2.63-3.28,5-3.28,5a11.1,11.1,0,0,0-7.19-.14A9.83,9.83,0,0,0,133.45,42.07Z"/><path class="cls-24" d="M145.39,81.8s-.45,5.26,2.47,3.6,3.25-7.53,3.25-7.53Z"/><path class="cls-3" d="M127,75.08a3.58,3.58,0,0,1-2.64,1.26c-2.33,0-4.21-2.55-4.21-5.68S122,65,124.35,65a3.59,3.59,0,0,1,2.6,1.22"/><path class="cls-3" d="M183.52,67.33a4,4,0,0,1-1.3-8C184.42,59,185.72,67,183.52,67.33Z"/><ellipse class="cls-25" cx="57.02" cy="52.27" rx="32.1" ry="22.49"/><text class="cls-26" transform="translate(35.86 44.89)">よーい<tspan class="cls-27"><tspan x="-6.5" y="11">・・・・・</tspan><tspan class="cls-28" x="32.5" y="11">・</tspan></tspan><tspan x="0" y="22">どん！</tspan></text><polygon class="cls-25" points="77.73 63.37 101.4 76.34 72.06 69.9 77.73 63.37"/></svg>