<svg id="レイヤー_1" data-name="レイヤー 1" xmlns="http://www.w3.org/2000/svg" xmlns:xlink="http://www.w3.org/1999/xlink" viewBox="0 0 218 218"><defs><style>.cls-1,.cls-12,.cls-13,.cls-4{fill:none;}.cls-2{clip-path:url(#clip-path);}.cls-3{fill:#f5dcbe;}.cls-10,.cls-11,.cls-3,.cls-8{stroke:#40220f;}.cls-10,.cls-11,.cls-12,.cls-13,.cls-14,.cls-15,.cls-3,.cls-4,.cls-5,.cls-6,.cls-7,.cls-8{stroke-linecap:round;stroke-linejoin:round;}.cls-10,.cls-11,.cls-13,.cls-14,.cls-15,.cls-3,.cls-4,.cls-5,.cls-6,.cls-7,.cls-8{stroke-width:2px;}.cls-14,.cls-15,.cls-4{stroke:#40210d;}.cls-11,.cls-5{fill:#fff;}.cls-13,.cls-5,.cls-6,.cls-7{stroke:#42210b;}.cls-6{fill:#2c3493;}.cls-7{fill:#999;}.cls-8{fill:#998675;}.cls-9{fill:#40220f;}.cls-10{fill:#333;}.cls-12{stroke:#fff;stroke-width:5px;}.cls-14{fill:#40210d;}.cls-15{fill:#736357;}</style><clipPath id="clip-path"><rect id="SVGID" class="cls-1" x="13.27" y="13.27" width="191.46" height="191.46" rx="9.57"/></clipPath></defs><title>10-2-2 足掛け回転</title><g class="cls-2"><path class="cls-3" d="M90.88,117.48a4.38,4.38,0,0,1-1.11-8.61c12.34-3.24,28.77-15.49,28.93-15.62a4.38,4.38,0,0,1,5.26,7c-.73.54-18,13.4-32,17.08A4.69,4.69,0,0,1,90.88,117.48Z"/><path class="cls-4" d="M115.78,128.28s-9.92-2.79-13.57-1.25-4.24,5.59-2.81,9.65c1.2,3.42,5.83,7.65,5.83,7.65"/><path class="cls-5" d="M111.7,95.29a28,28,0,0,0,9.22,9.64c6.54.58,21.92-9.34,14.82-12.55S118.16,92.4,111.7,95.29Z"/><path class="cls-5" d="M106.11,117.48a47.89,47.89,0,0,0,27.19,25.15c7.07-3.48,17.18-28.16,16.93-44.63-.08-5.28-5.09-9.72-6.57-12.34C137.57,74.86,121.33,114.87,106.11,117.48Z"/><path class="cls-6" d="M134.15,138.76c0,3.87-3.79,12.21-12.36,13.46s-14.15-1.79-19.46-4.91c-7.62-4.48-11.38-10.55-15.83-20.2a4.82,4.82,0,0,1,1.37-6c1.43-.91,3.48-2.33,5.86-2.11,8.6.79,32.44-1.54,32.44-1.54S134.15,134.88,134.15,138.76Z"/><path class="cls-3" d="M137.09,146.38a4.38,4.38,0,0,1-2.94-7.62c11.3-10.28,11.7-33.07,11.7-33.3a4.38,4.38,0,1,1,8.76.1c0,1.09-.48,26.87-14.57,39.68A4.4,4.4,0,0,1,137.09,146.38Z"/><path class="cls-7" d="M209.33,190.22a3.47,3.47,0,0,1-1.82-.52L6.86,66.47a3.47,3.47,0,1,1,3.63-5.92L211.14,183.79a3.47,3.47,0,0,1-1.81,6.43Z"/><path class="cls-5" d="M143.66,101.13a37.71,37.71,0,0,1-2.48,9.34c3.64,4.84,11.67,5,15.18,3.68.7-8.64.49-16.15-4.38-25"/><path class="cls-3" d="M142.25,145.53c-1.68,2.95-4.6,1.68-7.55,0s-4.82-3.14-3.14-6.09a6.15,6.15,0,1,1,10.69,6.1Z"/><path class="cls-3" d="M91.76,115.71c-1.68,3-4.6,1.68-7.55,0s-4.82-3.15-3.14-6.1a6.15,6.15,0,1,1,10.69,6.1Z"/><path class="cls-8" d="M100.87,129.07c-1.83,2.69-7.82,5.79-12,3a7,7,0,0,1-2.17-10c1.83-2.7,8.52-3.74,12.68-.93S102.69,126.37,100.87,129.07Z"/><path class="cls-3" d="M177.58,72.34C173.35,91.43,155.11,100.5,136,96.27,128.93,94.7,121.14,92,117,87.76c-7.1-7.15-7.72-18-5.06-30,4.23-19.09,19.69-31.9,38.78-27.67A35.4,35.4,0,0,1,177.58,72.34Z"/><path class="cls-3" d="M127.4,87.82a3.06,3.06,0,1,1-1.18-5.42,3,3,0,0,1,1.83,1.21"/><circle class="cls-9" cx="145.32" cy="88.44" r="1.29"/><circle class="cls-9" cx="118.75" cy="78.92" r="1.29"/><path class="cls-10" d="M162.79,72.86c-2.5,7.52-5.18,19.62-5.18,19.62l-2.93-14-4.7,6-8-7,16.16-10.43s21.23-11.36,20.25-1-4,22.26-15.54,26.75C164.22,85.37,165.93,79.43,162.79,72.86Z"/><path class="cls-3" d="M162.71,78a3.34,3.34,0,0,1,3-1c2,.43,3.07,2.82,2.51,5.34s-2.58,4.21-4.53,3.78a3.22,3.22,0,0,1-2.15-1.81"/><path class="cls-11" d="M165.84,74.67c-10.94,7-23.12,7.9-35.87,6.57S99.68,69.72,96.69,61.66s8.73-9.44,14.44-8.18C117,63.2,153.83,69.83,165.84,74.67Z"/><path class="cls-11" d="M178.39,66c-7.49,8.14-14.77,10.48-25.47,10.42S118.25,67,109.84,58.87c3.4-19.08,17.71-31.9,34.21-31,8,.42,19.27,4.56,26.18,11.41A29.72,29.72,0,0,1,178.39,66Z"/><path class="cls-12" d="M84.34,45.26S38.39,56.75,43.17,118"/><path class="cls-13" d="M84.34,45.26S38.39,56.75,43.17,118"/><path class="cls-12" d="M53.7,117.45S47,70.15,84.34,55.79"/><path class="cls-13" d="M53.7,117.45S47,70.15,84.34,55.79"/><path class="cls-3" d="M100.19,121.77c-1.58-1.68-5.68-1.9-7.36-.32-.41.39-6.4,6.72-13.22,15.07,2.41.47,6.78,4.23,8.43,7.81,7-7.67,14.25-13.93,14.34-14C104.07,128.72,101.78,123.45,100.19,121.77Z"/><path class="cls-11" d="M79.61,136.52c-3.35,4.11-6.91,8.71-10.09,13.33a4.17,4.17,0,0,0,1.08,5.81,11,11,0,0,0,3.69,1.64c1.33,0,2.38-.86,3.45-1.81,4.37-3.89,6.76-7.3,10.3-11.16C86.39,140.75,82,137,79.61,136.52Z"/><path class="cls-8" d="M125,124.1c-1.83,2.69-7.51,2.81-11.68,0s-1.85-6.27,0-9,6.26-3.37,10.43-.55S126.78,121.4,125,124.1Z"/><path class="cls-14" d="M76.45,154.68c-1.94-1.17-3.16-4.24-3.26-8.3-3.68-1.15-3.44-5.12-7.11-7.58-2.62-1.75-6.44-1.83-9.78,2-3.19,3.64,12.24,22.23,15.63,20.78S78.36,155.82,76.45,154.68Z"/><path class="cls-15" d="M71.93,161.55c-2.64,1.7-5.94-2.2-7.1-4.26s-12.26-7.61-9.68-14.84c1.42-4,7.2-3.08,10.58,1,2.77,3.37,3.36,8,4.39,9.94S75.22,159.42,71.93,161.55Z"/><path class="cls-3" d="M116.73,111c-2.42-.54-7.27,2.3-8.45,4.37A56.56,56.56,0,0,0,102,131.93c1.77.83,5.56,2.09,11.48,1.36a59.21,59.21,0,0,1,3.5-9.54c.14.19-.24,0,0,0C123.55,122.38,125.27,112.84,116.73,111Z"/><path class="cls-11" d="M102,131.93a50,50,0,0,0-.91,15.83c.21,2.19,2.4,3.84,5,3.84h.41c2.75-.19,4.8-2.21,4.57-4.51a58.5,58.5,0,0,1,2.43-13.79C107.58,134,103.79,132.76,102,131.93Z"/><path class="cls-14" d="M112.12,144.73c1.77,4.08,1.84,7.85.33,8.79a28.2,28.2,0,0,1-5.54,1.93s-.65,4.64-6.55,4c-2.61-.28-7.07-.88-9.29-2.71-2.81-2.32-1.81-7.26,2.15-7.54,6.11-.45,7.68-2.25,7.68-2.25S107,153.14,112.12,144.73Z"/></g></svg>