<svg id="レイヤー_1" data-name="レイヤー 1" xmlns="http://www.w3.org/2000/svg" xmlns:xlink="http://www.w3.org/1999/xlink" viewBox="0 0 218 218"><defs><style>.cls-1,.cls-12{fill:none;}.cls-2{clip-path:url(#clip-path);}.cls-3{fill:#fff1e1;}.cls-10,.cls-4{fill:#42210b;}.cls-11,.cls-12,.cls-17,.cls-4,.cls-5,.cls-6,.cls-7,.cls-8{stroke:#42210b;stroke-width:2px;}.cls-11,.cls-12,.cls-4,.cls-5,.cls-6,.cls-7,.cls-8{stroke-linecap:round;stroke-linejoin:round;}.cls-5{fill:#f5dcbe;}.cls-6{fill:#fff;}.cls-7{fill:#2c3493;}.cls-8{fill:#b5b5b6;}.cls-11,.cls-9{fill:#e60012;}.cls-13{fill:#01273a;}.cls-14{fill:#033859;}.cls-15{fill:#0068b2;}.cls-16{fill:url(#名称未設定グラデーション_13);}.cls-17{fill:#fff100;stroke-miterlimit:10;}</style><clipPath id="clip-path"><rect id="SVGID" class="cls-1" x="-230" y="9" width="200" height="200" rx="10"/></clipPath><linearGradient id="名称未設定グラデーション_13" x1="100.82" y1="177.51" x2="107.33" y2="177.51" gradientUnits="userSpaceOnUse"><stop offset="0" stop-color="#033859"/><stop offset="0.38" stop-color="#0068b2"/><stop offset="1" stop-color="#033859"/></linearGradient></defs><title>21-3-2 ティーボール</title><g class="cls-2"><polygon class="cls-3" points="-242.61 166.01 85.27 154.81 113.65 226.65 -249.96 201.35 -242.61 166.01"/></g><path class="cls-4" d="M97.38,146.52c-3.31,4.6-13.12,8.91-11.68,12s4.7,4.34,8.19,4.34,8.19-6,10.35-9.88C104.24,148.93,100.69,141.93,97.38,146.52Z"/><path class="cls-4" d="M133.61,146.52c-3.61,2.35-2.06,7.29-2.89,12.73-.62,4.08.23,5,1.45,5.81,2.65,1.69,9.87.72,11.56-2.16.65-1.12.66-3.33-.09-5.81C142,151.81,143,145.44,133.61,146.52Z"/><path class="cls-5" d="M115.31,110.31a4.33,4.33,0,0,0-6.08.79,87.09,87.09,0,0,0-12.92,25.78l8.39,2.21a80.71,80.71,0,0,1,11.4-22.71A4.32,4.32,0,0,0,115.31,110.31Z"/><path class="cls-6" d="M93.9,149.57a4.34,4.34,0,0,0,4,4.65h.33a4.33,4.33,0,0,0,4.31-4,52.1,52.1,0,0,1,2.16-11.13l-8.39-2.21A60.4,60.4,0,0,0,93.9,149.57Z"/><path class="cls-5" d="M129.1,117c-.68-1.71-1.38-3.47-1.59-4.08a4.33,4.33,0,0,0-8.58.84c0,1.12.24,1.73,2.12,6.45,1.79,4.48,4.57,11.48,7,18.87l8.35-2.34C133.87,129,131,121.64,129.1,117Zm-1.51-3.24Zm0,0h0Z"/><circle class="cls-4" cx="95.57" cy="74.25" r="2.15"/><circle class="cls-4" cx="91.63" cy="79.5" r="2.15"/><circle class="cls-4" cx="87.88" cy="84.71" r="2.15"/><polygon class="cls-4" points="85.32 88.81 80.65 91.1 85.73 93.02 85.32 88.81"/><path class="cls-6" d="M135.78,154.23a4.44,4.44,0,0,0,1-.12,4.33,4.33,0,0,0,3.19-5.24c-1-4-2.21-8.12-3.55-12.15l-8.35,2.34c1.32,3.95,2.55,8,3.48,11.86A4.33,4.33,0,0,0,135.78,154.23Z"/><path class="cls-5" d="M90.09,98.53A5.28,5.28,0,0,1,87.72,98c-1.79-.84-6-2.8-7.07-29.28a4.33,4.33,0,0,1,8.66-.35c.31,7.7,1.3,16.87,2.42,20.86C95,87.53,101.3,82.91,106.94,78a4.33,4.33,0,1,1,5.68,6.54C99.09,96.31,93.08,98.53,90.09,98.53Z"/><path class="cls-7" d="M106.74,106.89a37.19,37.19,0,0,1-1.64,7.79,38.22,38.22,0,0,1-4.79,8.21c5.88,2.87,15.46,2.87,15.46,2.87l2.32-6.43,1.23,6.43a90,90,0,0,0,16.55-1,85.53,85.53,0,0,0-3.38-18.73Z"/><path class="cls-6" d="M132.83,107.21s-3.76-31.12-8.17-38.81c-10.08-15.17-15.06,5.85-15.06,5.85L96.21,81.18,104,90l2.6-2.48-.68,19.72Z"/><path class="cls-8" d="M94.49,89.52A2.19,2.19,0,0,0,92,87.69l-1.18.18L85.67,65.2l-.06,0L77.19,12.45a4.09,4.09,0,0,0-5-3.34l-4.41,1a4.09,4.09,0,0,0-3,5.17L80.56,67.52l.12,0,5.11,21.15-1.13.17a2.18,2.18,0,1,0,.65,4.32L92.65,92A2.2,2.2,0,0,0,94.49,89.52Z"/><path class="cls-5" d="M124.22,86.58c-1.15-2.1-1.91-4.52-4-3.37-5.89,3.24-12.56,6.08-14.5,6.2-1.89-.53-7.14-4.37-12.26-8.61A5.77,5.77,0,1,0,87.88,88a4.49,4.49,0,0,0,.64,0c6.26,5.2,13,10,16.79,10.08h.22c5.06,0,14.84-5.07,18.86-7.27C126.48,89.65,125.38,88.67,124.22,86.58Z"/><path class="cls-6" d="M124.11,77.89l-8.89,4.52a16.31,16.31,0,0,1,5.36,10.86c2.92-.25,6.47-3,6.47-3"/><circle class="cls-5" cx="84.27" cy="70.64" r="5.77"/><ellipse class="cls-5" cx="117.32" cy="74.38" rx="3.21" ry="3.87"/><circle class="cls-4" cx="130.63" cy="74.26" r="2.15"/><circle class="cls-4" cx="134.57" cy="79.5" r="2.15"/><circle class="cls-4" cx="138.32" cy="84.72" r="2.15"/><polygon class="cls-4" points="140.88 88.81 145.55 91.1 140.47 93.02 140.88 88.81"/><path class="cls-5" d="M93.47,56.63c0,5.73,1.54,11.34,5,14.6,4.29,4.09,11.23,5.11,18.4,5.11s14.26-1.46,18.54-5.61c3.37-3.26,3.87-8.16,3.87-13.83,0-12.9-9.51-23.63-22.41-23.63A23.36,23.36,0,0,0,93.47,56.63Z"/><path class="cls-4" d="M101.72,58.05a3.23,3.23,0,0,0-2.06-.42c-2,.29-3.39,2.56-3,5.08s2.3,4.32,4.34,4a9.73,9.73,0,0,0,.79,6.84,25.66,25.66,0,0,1-3.33-2.35c-3.42-3.26-5-8.87-5-14.6a23.36,23.36,0,0,1,23.36-23.36c10.6,0,21,7.41,22.41,18a10.72,10.72,0,0,1,0,3.89c-3.05.15-12.31-.76-20.9-3.59,1.55,1.07,2.8,2.35,3.69,2.88a26.4,26.4,0,0,1-11.92-6.26C106.56,56.85,101.72,58.05,101.72,58.05Z"/><path class="cls-5" d="M131.35,56.72a10.81,10.81,0,0,1,.44,5.28c1.28-1.22,5.07.07,3.94,3.15-1.37,3.73-5.31,1.23-5.31,1.23"/><path class="cls-9" d="M122.31,69.58a4,4,0,0,0,4.83,2.06,5,5,0,0,0,3.13-2.85C128.48,69.8,122.31,69.58,122.31,69.58Z"/><ellipse class="cls-10" cx="135.94" cy="57.6" rx="1.16" ry="2" transform="translate(40.05 169.86) rotate(-72.46)"/><ellipse class="cls-10" cx="114.9" cy="58.86" rx="2" ry="1.16" transform="translate(-12.4 37.36) rotate(-17.54)"/><path class="cls-11" d="M101.59,58.84a3.23,3.23,0,0,0-2.06-.41c-2,.28-3.41,2.53-3,5l-2,1.86c-1.72-.68-3.77-6.07-3.77-9.13,0-12.75,12.67-24.74,25.62-24.74,10.64,0,20.57,8.15,22.16,16.09Z"/><path class="cls-12" d="M138.44,47.53s10.66-4.32,14.92-14.21"/><polygon class="cls-6" points="106.65 185.53 84.27 196.72 103.84 209 120.53 209 122.31 186.97 106.65 185.53"/><path class="cls-13" d="M104.24,204.12c-8.31,0-16.72-1.93-16.72-5.63v-2.66a1,1,0,0,1,1-1H119.9a1,1,0,0,1,1,1s.06,2.2.06,2.69C121,202.19,112.55,204.12,104.24,204.12Z"/><path class="cls-10" d="M119.9,195.83s.06,2.18.06,2.66c0,2.56-7,4.63-15.72,4.63s-15.72-2.07-15.72-4.63v-2.66H119.9m0-2H88.52a2,2,0,0,0-2,2v2.66c0,5.24,11.14,6.63,17.72,6.63S122,203.73,122,198.49c0-.5,0-2.49-.06-2.72a2,2,0,0,0-2-1.94Z"/><path class="cls-14" d="M104.24,201.86c-8.31,0-16.72-1.94-16.72-5.64s8.41-5.63,16.72-5.63S121,192.53,121,196.22,112.55,201.86,104.24,201.86Z"/><path class="cls-10" d="M104.24,191.59c8.69,0,15.72,2.08,15.72,4.63s-7,4.64-15.72,4.64-15.72-2.08-15.72-4.64,7-4.63,15.72-4.63m0-2c-6.58,0-17.72,1.4-17.72,6.63s11.14,6.64,17.72,6.64,17.72-1.4,17.72-6.64-11.14-6.63-17.72-6.63Z"/><path class="cls-15" d="M103,164.42a1,1,0,0,1-1-1V143.24a7.22,7.22,0,0,1-2.21-3.49,1,1,0,0,1,.31-.9,1,1,0,0,1,.67-.27,1,1,0,0,1,.25,0,11.87,11.87,0,0,0,3.09.42,10.87,10.87,0,0,0,3-.41.84.84,0,0,1,.27,0,1,1,0,0,1,1,1.15,5.91,5.91,0,0,1-2.07,3.56v20.13a1,1,0,0,1-1,1Z"/><path class="cls-10" d="M107.28,139.58h0m0,0a5.06,5.06,0,0,1-2.08,3.22v20.62H103V142.8s-2-1.65-2.23-3.22a13.15,13.15,0,0,0,3.34.45,12.09,12.09,0,0,0,3.22-.45m-6.56-2a2,2,0,0,0-2,2.34,7.7,7.7,0,0,0,2.2,3.74v19.76a2,2,0,0,0,2,2h2.25a2,2,0,0,0,2-2V143.73a6.69,6.69,0,0,0,2-3.74,1.84,1.84,0,0,0,0-.41,2,2,0,0,0-2-2h-.09a2.1,2.1,0,0,0-.5.09,10.16,10.16,0,0,1-2.64.36,11.29,11.29,0,0,1-2.84-.38,1.68,1.68,0,0,0-.5-.07Zm6.56,4Z"/><path class="cls-16" d="M101.82,197.12l-1-1V159.84c0-1.2,1.24-1.94,3.25-1.94s3.26.74,3.26,1.94v36.28l-1,1Z"/><path class="cls-10" d="M104.07,158.9c1.13,0,2.26.31,2.26.94v36.28h-4.51V159.84c0-.63,1.13-.94,2.25-.94m0-2c-3.14,0-4.25,1.58-4.25,2.94v36.28l2,2h4.51l2-2V159.84c0-1.36-1.11-2.94-4.26-2.94Z"/><path class="cls-13" d="M120,198.49c0,2.56-7,4.63-15.72,4.63s-15.72-2.07-15.72-4.63v-2.66H119.9S120,198,120,198.49Z"/><ellipse class="cls-14" cx="104.24" cy="196.22" rx="15.72" ry="4.63"/><path class="cls-15" d="M100.72,139.58c.28,1.57,2.23,3.22,2.23,3.22v20.62h2.25V142.8a5.06,5.06,0,0,0,2.08-3.22A12.06,12.06,0,0,1,100.72,139.58Z"/><path class="cls-14" d="M101.82,196.12V159.84c0-1.25,4.51-1.25,4.51,0v36.28"/><circle class="cls-17" cx="104.07" cy="134.12" r="5.46"/></svg>