<svg id="レイヤー_1" data-name="レイヤー 1" xmlns="http://www.w3.org/2000/svg" viewBox="0 0 218 218"><defs><style>.cls-1{fill:#998675;}.cls-1,.cls-10,.cls-11,.cls-2,.cls-3,.cls-4,.cls-5,.cls-6,.cls-7,.cls-9{stroke:#42210b;stroke-linecap:round;stroke-linejoin:round;stroke-width:2px;}.cls-2{fill:#f5dcbe;}.cls-3{fill:#fff;}.cls-4{fill:#2c3493;}.cls-5{fill:#e6e6e6;}.cls-6{fill:#4e3819;}.cls-7{fill:none;}.cls-11,.cls-8{fill:#42210b;}.cls-9{fill:#ffe800;}.cls-10{fill:#e60012;}</style></defs><title>13-1-2 ポートボール</title><path class="cls-1" d="M118.3,97c-5.29-3.25-4.89-12.61,0-14.24l10.17,8.14Z"/><path class="cls-2" d="M134.32,100.06a4.77,4.77,0,0,1-1.39-.2c-20-5.92-45.19-19.54-46.25-20.12a4.88,4.88,0,1,1,4.66-8.58c.25.14,25.36,13.71,44.36,19.34a4.88,4.88,0,0,1-1.38,9.56Z"/><path class="cls-3" d="M141.28,90.3l-23-7.53c5.38,3.52,4.06,11.19,0,14.24,6.75,4,16.47,5.7,16.47,5.7Z"/><path class="cls-2" d="M152.76,186.09a4.89,4.89,0,0,1-4.8-4c-2.19-12.53-1.62-38-1.6-39.09a4.88,4.88,0,0,1,9.76.23c0,.26-.57,25.59,1.46,37.18a4.87,4.87,0,0,1-4.82,5.72Z"/><path class="cls-2" d="M124.4,184.26a4.85,4.85,0,0,1-3.79-1.8C106.39,165,125.27,141,126.08,140a4.88,4.88,0,0,1,7.62,6.11c-.18.22-14.76,18.79-5.51,30.17a4.88,4.88,0,0,1-3.79,8Z"/><path class="cls-4" d="M159.79,134.64s2.77,9.83-.32,18.5c-8.94,1.49-18.64-1.37-18.64-1.37s.39-3.55.45-6.15a68,68,0,0,0-4.71,6.28c-6.33-.55-14.79-3.65-16.93-6.08,3.5-7.62,7.18-11.53,8.42-14.64C134.77,128.74,159.79,134.64,159.79,134.64Z"/><path class="cls-3" d="M131.92,76.06c12,6.29,17.53,7.16,21.76,16.07,7.13,15,4.89,28.88,6.11,42.51A85.34,85.34,0,0,1,126,132.4S133.35,102.5,131.92,76.06Z"/><path class="cls-5" d="M159.79,187.92c-1.53,1.63-12,1.84-13.51,0-.51-.6-.23-2.19-.23-2.19s3.54-4.72,7-4.72,7,4.77,7,4.77S160.28,187.4,159.79,187.92Z"/><path class="cls-6" d="M159.79,186.09c-1.53,1.63-12,1.84-13.51,0s1.63-6.91,6.75-6.91S161.31,184.47,159.79,186.09Z"/><path class="cls-5" d="M127.8,176.62a11.09,11.09,0,0,1,3.46,10.17c-.66,2.68-15.4,3.57-18.56,1.38-1.81-1.26-1.16-5.91,2.19-7.68,2.47-1.31,6.7-1.32,9.15.76C126.28,181.25,127.91,179.54,127.8,176.62Z"/><path class="cls-6" d="M127.8,174.55a11.09,11.09,0,0,1,3.46,10.17c-.66,2.67-15.4,3.56-18.56,1.37-1.81-1.26-1.16-5.91,2.19-7.68,2.47-1.3,6.7-1.32,9.15.77C126.28,179.18,127.91,177.46,127.8,174.55Z"/><path class="cls-7" d="M124,179.18a5.3,5.3,0,0,1,1.83,3.51"/><path class="cls-2" d="M171.44,69.05C169.29,84.12,156.38,91,141.31,88.82c-7.79-1.11-16-2.87-20.54-7.88-4.19-4.68-4.93-12.39-3.9-19.67a27.56,27.56,0,0,1,54.57,7.78Z"/><path class="cls-1" d="M133.75,78c-6.35,0-10.53,8.9-6.35,13.6l15.47.58Z"/><path class="cls-2" d="M135,92.74c-15.85-10.83-31-26-31.7-26.75a4.88,4.88,0,1,1,6.93-6.88c.17.17,14.73,14.78,29.6,25.11"/><path class="cls-3" d="M141.89,100.06a80.74,80.74,0,0,1-14.49-8.51c5.74-1.66,8.39-8.25,6.35-13.6,9.12,6.25,16.78,11.94,16.78,11.94"/><path class="cls-2" d="M132.45,62.62a2.75,2.75,0,1,1,.07-4.17"/><circle class="cls-8" cx="148.7" cy="58.67" r="1.83"/><circle class="cls-9" cx="61.94" cy="45.26" r="16.66"/><circle class="cls-8" cx="121.47" cy="60.5" r="1.83"/><path class="cls-10" d="M126,68c3.83,1.83,10.87,1,13.89-1.12,0,5.22,0,10-4.93,10.69S126.74,72.91,126,68Z"/><path class="cls-11" d="M150.53,44.64c-9.25,2.75-18.61,9.25-18.61,9.25s1.63-5.39,7.93-9.76c-6.3,1.32-16.55,10.48-16.55,10.48a36.09,36.09,0,0,1,6.49-10.07C126,47,118.07,56.26,118.07,56.26s1.9-8.59,7.14-13.14c8.44-7.34,24.81-8.75,34.61-1.94,3.82,2.66,12.61,12.06,12.88,20.54.51,16-6.2,23.42-18.81,27.29,9.61-13.83,9.61-29.52,9.61-29.52s-.05-.82-1.27-.82c-.72,2.95-3.66,5.49-3.66,5.49s0-8-1.94-12.4c.43,2.73-.81,6.91-.81,6.91S154,50,150.53,44.64Z"/><path class="cls-2" d="M162.58,60.17a3.28,3.28,0,0,1,2.59,0c1.84.8,2.54,3.25,1.58,5.46s-3.25,3.36-5.09,2.55a3.34,3.34,0,0,1-1.84-2.2"/></svg>