<svg id="レイヤー_1" data-name="レイヤー 1" xmlns="http://www.w3.org/2000/svg" xmlns:xlink="http://www.w3.org/1999/xlink" viewBox="0 0 164.4 178.2"><defs><style>.cls-1,.cls-13,.cls-17,.cls-18,.cls-21,.cls-7{fill:none;}.cls-2{fill:#604c3f;}.cls-10,.cls-11,.cls-12,.cls-16,.cls-19,.cls-2,.cls-20,.cls-21,.cls-23,.cls-3,.cls-4,.cls-5,.cls-6,.cls-7,.cls-8{stroke:#40220f;}.cls-12,.cls-13,.cls-17,.cls-18,.cls-19,.cls-2,.cls-3,.cls-4,.cls-5,.cls-7,.cls-8{stroke-linecap:round;stroke-linejoin:round;}.cls-3{fill:#f8cbd9;}.cls-16,.cls-22,.cls-4{fill:#fff;}.cls-5{fill:#fff100;}.cls-6,.cls-8{fill:#f5dcbe;}.cls-10,.cls-11,.cls-16,.cls-20,.cls-21,.cls-23,.cls-6{stroke-miterlimit:10;}.cls-9{fill:#40220f;}.cls-10{fill:#fccb00;}.cls-11{fill:#c9caca;}.cls-12{fill:#b96d1d;}.cls-13,.cls-18{stroke:#954c23;}.cls-13{stroke-width:4px;}.cls-14{clip-path:url(#clip-path);}.cls-15{fill:#c9a063;}.cls-17{stroke:#d3edf9;}.cls-17,.cls-18{stroke-width:3px;}.cls-19,.cls-20{fill:#d3edf9;}.cls-23{fill:#feed00;}</style><clipPath id="clip-path"><rect class="cls-1" x="16.3" y="107.38" width="138.5" height="62.5"/></clipPath></defs><title>03.朝食</title><path class="cls-2" d="M120.29,55.22c.92,2.63.83,5.8.87,9.09a17.06,17.06,0,0,0,5.74,12.41C116.61,73,111.74,66.15,109.77,60.48s-2-10.8,1.62-12.07S118.32,49.56,120.29,55.22Z"/><path class="cls-3" d="M39.65,81.26a67.12,67.12,0,0,0-9.17,10.5c4.11,4.15,10.84,8.8,18.17,10.33a29.26,29.26,0,0,0,19.33-3c-2,11.84-2.16,28-2.16,28h38.83s.83-11.83-3-29.66c2.69,6.92,5.57,12.58,5.57,12.58s7.58.58,12.16-.42c-1.72-18.08-26.73-40.66-35.06-45.32-4.72-2.64-9.64,13-16.34,19-3.66,3.28-10,7.1-14.83,6.62C46.6,89.27,41.09,82.62,39.65,81.26Z"/><path class="cls-4" d="M93.19,72.43a8.84,8.84,0,0,0-8.36,6,8.83,8.83,0,1,0,0,5.72,8.83,8.83,0,1,0,8.36-11.69Z"/><circle class="cls-5" cx="84.35" cy="92.76" r="2.77"/><path class="cls-6" d="M115.05,44.5c2.12,8.8,4.38,16.81.51,23-4.62,7.36-16.49,12.21-27,14.75-19.33,4.66-38.82-1.48-43.49-20.81a36,36,0,0,1,70-16.89Z"/><path class="cls-2" d="M54,24.59c7.5-9.33,19.66-13.83,35-14.66a9.14,9.14,0,0,1-4.14,4.59,43.88,43.88,0,0,1,14.8,3.74c5,2.25,9.65,7.31,14.34,12-11.3-.5-24.34-4.67-24.34-4.67L92,30.26l-16.5-.67,1.08,7.67H65l3.33,9.17H61l3.16,14.44L59,55.59s.82,16,11.33,27.67C66.59,83,59.59,81.64,55,78.56c-6.31-4.25-9.94-11.31-11.75-19.08A34.93,34.93,0,0,1,44,40.93C46.48,33.35,48.52,27.93,54,24.59Z"/><path class="cls-2" d="M48.85,77.06c0,2.78,1.12,5.75,2.17,8.87a17.08,17.08,0,0,1-1.34,13.6c8.5-6.86,10.84-15,10.84-21S58.88,67.69,55,67.69,48.85,71.06,48.85,77.06Z"/><polyline class="cls-7" points="47.17 23.59 54.02 24.59 51.35 19.09"/><path class="cls-8" d="M67,65.75a5.53,5.53,0,0,1-2.27,4.71c-2.72,1.86-6.82.59-9.16-2.83s-2-7.7.71-9.56a5.18,5.18,0,0,1,3.48-.82"/><circle class="cls-9" cx="79.02" cy="48.08" r="2.24"/><circle class="cls-9" cx="109.45" cy="40.08" r="2.24"/><path class="cls-7" d="M93,41.4a4.32,4.32,0,1,1,4.84,6.5,4.26,4.26,0,0,1-3-.2"/><path class="cls-7" d="M88.85,60.87s13.55,7.88,19.87-4.25"/><path class="cls-8" d="M82.18,55.68a6.58,6.58,0,1,1,2.18,13"/><rect class="cls-10" x="32.24" y="73.06" width="6" height="20.5" rx="3"/><path class="cls-11" d="M42.57,55.48a1.5,1.5,0,0,0-3,0,10.78,10.78,0,0,1-1.51,5.7.72.72,0,0,1-1.32-.4v-5.3a1.5,1.5,0,0,0-3,0v5.3a.72.72,0,0,1-1.32.4,10.78,10.78,0,0,1-1.51-5.7,1.5,1.5,0,0,0-3,0c0,5,2.23,9.06,5.35,10.28a.75.75,0,0,1,.48.68v6.62a1.5,1.5,0,0,0,3,0V66.44a.75.75,0,0,1,.48-.68C40.34,64.54,42.57,60.45,42.57,55.48Z"/><path class="cls-12" d="M27.65,56.87c-3.06,0-5.32-.14-5.48-.15a5,5,0,0,1,.63-10,83.34,83.34,0,0,0,11.05-.13,91.8,91.8,0,0,1,12.62-.15c-.29.35-1.11,1.22-.59,1.91-.77.38-.77,1.25-.13,1.89-1,1.05.14,3.08.43,3.42a2.13,2.13,0,0,0-.34,2.76,83.48,83.48,0,0,0-11.06.13C32.32,56.8,29.79,56.87,27.65,56.87Z"/><path class="cls-13" d="M22.66,53.37s7.5,1.42,19.16-.75"/><path class="cls-12" d="M30.07,46.83s-1.66,2.06-1.16,3.23"/><path class="cls-12" d="M33.85,46.61s-1.28,2.12-.94,3.45"/><path class="cls-12" d="M37.57,46.83a4.61,4.61,0,0,0-.83,3.23"/><path class="cls-6" d="M32.52,78c3,0,3.66,2.2,3.66,5.17s-.7,5.55-3.66,5.55-3-2.4-3-5.36S29.56,78,32.52,78Z"/><g class="cls-14"><path class="cls-15" d="M150,119.39c0,6.53-.38,14.27-3.56,19.87-2.91,5.13-12.24,4.44-18.32,8.2-4.18,2.59-7.63,6.18-13.18,7.92-5,1.56-8.94,9.29-14.42,10.1s-11.4-7.22-16.74-7.22-10.87,3.17-16.48,2.57-11.73,1.12-16.88-.17c-5.9-1.48-11-4.84-15.2-7.38-6.31-3.82-12.3-8.22-14.78-13.8-2.65-5.95,4.83-13.54,4.83-20.09,0-5.74-7-12.76-4-17.77C24,97,31,95,35.83,91.32c4.31-3.23,9.39-5.39,15-7.65,5.06-2,10-5.51,15.8-6.57,5.43-1,11.25,3.71,17.14,3.71s11.72-4.74,17.14-3.75c5.85,1.06,13.19-1.49,18.25.56,5.58,2.25,6.91,12.19,11.22,15.43,4.86,3.65,9,6.46,11.81,11C145.2,109.11,150,113.66,150,119.39Z"/></g><ellipse class="cls-16" cx="91.18" cy="128.7" rx="33.19" ry="14.99"/><path class="cls-17" d="M104.21,122.19c4.48,1.58,7.34,4,7.34,6.69,0,4.77-8.89,8.63-19.87,8.63a38.19,38.19,0,0,1-12.72-2"/><path class="cls-12" d="M68.13,134.25a3.11,3.11,0,0,1-.43,0,3.54,3.54,0,0,1-3.11-3.91c.06-.5,1.54-12.46,15.11-15.92a3.56,3.56,0,1,1,1.76,6.89c-8.7,2.22-9.76,9.54-9.8,9.86A3.58,3.58,0,0,1,68.13,134.25Z"/><path class="cls-18" d="M69.14,130.71S71.31,121.42,81,118.9"/><path class="cls-12" d="M70.65,119.09s2,.89,2.15,2.23"/><path class="cls-12" d="M75.31,116a3.42,3.42,0,0,1,1.41,2.93"/><path class="cls-12" d="M67.12,123.39a2.33,2.33,0,0,1,3.16,2.15"/><path class="cls-19" d="M42.18,123.21c-5,0-9.13-1.39-9.13-3.1l2.69,18.21c0,1.21,2.88,2.19,6.44,2.19s6.44-1,6.44-2.19l2.69-18.21C51.31,121.82,47.22,123.21,42.18,123.21Z"/><ellipse class="cls-20" cx="42.18" cy="120.11" rx="9.13" ry="3.1"/><path class="cls-21" d="M34,127a1.11,1.11,0,0,0,.19.59l-.14-.9A1.06,1.06,0,0,0,34,127Z"/><path class="cls-21" d="M50.33,126.72l-.13.9a1.11,1.11,0,0,0,.19-.59A.81.81,0,0,0,50.33,126.72Z"/><path class="cls-4" d="M42.18,129.82c-3.94,0-7.23-.95-8-2.2l1.58,10.7c0,1.21,2.88,2.19,6.44,2.19s6.44-1,6.44-2.19l1.58-10.7C49.4,128.87,46.12,129.82,42.18,129.82Z"/><path class="cls-16" d="M42.18,124.24c-4.23,0-7.7,1.08-8.16,2.48l.14.9c.79,1.25,4.08,2.2,8,2.2s7.22-.95,8-2.2l.13-.9C49.88,125.32,46.4,124.24,42.18,124.24Z"/><path class="cls-22" d="M118.53,128.32c0,2.59-3.14,4-6.07,5.47-2.22,1.15-4.57,6.38-7.66,6.38s-5-6.11-7.2-7.26c-2.92-1.51-5.65-2-5.65-4.59s.41-7.56,3.34-9.07a24.37,24.37,0,0,1,9.51-1.93c3.09,0,5.31,4.61,7.54,5.76C115.26,124.6,118.53,125.73,118.53,128.32Z"/><path class="cls-21" d="M118.53,128.32c0,2.59-3.14,4-6.07,5.47-2.22,1.15-4.57,6.38-7.66,6.38s-5-6.11-7.2-7.26c-2.92-1.51-5.65-2-5.65-4.59s.41-7.56,3.34-9.07a24.37,24.37,0,0,1,9.51-1.93c3.09,0,5.31,4.61,7.54,5.76C115.26,124.6,118.53,125.73,118.53,128.32Z"/><ellipse class="cls-23" cx="104.8" cy="128.32" rx="6.75" ry="3.29"/><path class="cls-12" d="M77,138.19l-.43,0a3.54,3.54,0,0,1-3.1-3.91c0-.5,1.54-12.46,15.1-15.92a3.56,3.56,0,1,1,1.76,6.89c-8.7,2.22-9.76,9.54-9.8,9.85A3.57,3.57,0,0,1,77,138.19Z"/><path class="cls-18" d="M78,134.65s2.18-9.29,11.81-11.81"/><path class="cls-12" d="M79.5,123s2,.89,2.15,2.23"/><path class="cls-12" d="M84.17,119.91a3.45,3.45,0,0,1,1.41,2.93"/><path class="cls-12" d="M76,127.33a2.32,2.32,0,0,1,3.15,2.15"/><line class="cls-7" x1="21.61" y1="107.38" x2="145.05" y2="107.38"/></svg>