<svg id="レイヤー_1" data-name="レイヤー 1" xmlns="http://www.w3.org/2000/svg" xmlns:xlink="http://www.w3.org/1999/xlink" viewBox="0 0 218 218"><defs><style>.cls-1,.cls-12{fill:none;}.cls-2{fill:#f5dcbe;stroke:#40220f;}.cls-10,.cls-12,.cls-13,.cls-2,.cls-3,.cls-4,.cls-5,.cls-6,.cls-7,.cls-9{stroke-linecap:round;stroke-linejoin:round;stroke-width:2px;}.cls-3,.cls-6{fill:#fff;}.cls-10,.cls-12,.cls-3,.cls-5,.cls-9{stroke:#42210b;}.cls-4,.cls-8{fill:#40210d;}.cls-13,.cls-4,.cls-6,.cls-7{stroke:#40210d;}.cls-5{fill:#2c3493;}.cls-7{fill:#ba6a02;}.cls-9{fill:#ff7bac;}.cls-10{fill:#e56452;}.cls-11{fill:#42210b;}.cls-13{fill:#40220f;}.cls-14{clip-path:url(#clip-path);}.cls-15{fill:#fff1e1;}</style><clipPath id="clip-path"><rect id="SVGID" class="cls-1" x="249.51" y="251.71" width="200" height="200" rx="10"/></clipPath></defs><title>13-1-5 タグラグビー</title><path class="cls-2" d="M118.45,162.13c-1.22-3.39-2.56-11.6-3.08-19.43a5,5,0,0,0-10,.65c1.75,26.54,7.14,28.14,9.44,28.82a8.57,8.57,0,0,0,2.49.36,12.8,12.8,0,0,0,5.29-1.3c-2.39-4.28-3.42-7.27-3.76-9.32Z"/><path class="cls-2" d="M91.94,134.53c-9.25,7-17.45,16.45-23.65,24.64l8,6.06c5.78-7.64,13.35-16.38,21.72-22.74a5,5,0,1,0-6-8Z"/><path class="cls-3" d="M56.3,177.07A5,5,0,1,0,65,182a177.18,177.18,0,0,1,11.28-16.78l-8-6.06A178.07,178.07,0,0,0,56.3,177.07Z"/><path class="cls-3" d="M131.37,164.58a5,5,0,0,0-7.26-6.89,25.06,25.06,0,0,1-5.26,4.22c.34,2.05,1.37,5,3.76,9.32A31.25,31.25,0,0,0,131.37,164.58Z"/><path class="cls-4" d="M125.25,156.94s.37-5,3.19-7.57c7.65,3.48,14.25,12.67,16.28,15.39-2,2.81-5.65,4.91-9.62,2.76-3.08-1.66-2.36-5.36-2.36-5.36S130.31,155.88,125.25,156.94Z"/><path class="cls-4" d="M68.18,180.76c0,5.27-19.07,5.27-19.07,0a9.54,9.54,0,0,1,19.07,0Z"/><path class="cls-5" d="M100.84,146.77a34.06,34.06,0,0,1,2.55,7.45c6.4,1.17,11.28.87,18.76-2.36-1-8.47-1.38-16.71-1.38-16.71L95,125.86A87.41,87.41,0,0,0,83.22,138a19.62,19.62,0,0,0,10.92,12.44C96.38,147.54,100.84,146.77,100.84,146.77Z"/><path class="cls-6" d="M103.06,95.11s10.36-9.91,20-11.93-12.37,16.94-12.37,16.94Z"/><path class="cls-6" d="M132.74,72.44c-5.37-3.09-26.26,27.55-37.58,47a1.84,1.84,0,0,0,.45,2.32c-2.73,4.74-5.67,7.36-6.78,9.85,8.33,7.76,22.14,4.91,32.36,10.11,1-3.08.47-6.59,1.42-9.51a2.1,2.1,0,0,0,1.9-1.35C135,98.34,139,76.05,132.74,72.44Z"/><ellipse class="cls-7" cx="94.19" cy="88.31" rx="14.45" ry="22.71"/><path class="cls-2" d="M112.45,120.8a10.09,10.09,0,0,1-2.4-.29c-7.19-1.77-13.9-15.78-17.26-24A5,5,0,1,1,102,92.74c3.37,8.19,8.28,16.62,10.48,18.05,1.14-.16,3.81-3.07,5.22-5.72a5,5,0,1,1,8.83,4.68C125.92,111,120.46,120.8,112.45,120.8Z"/><path class="cls-8" d="M122.51,134.55a1.43,1.43,0,0,1-.29,0c-19.82-3.9-27.4-10.52-27.71-10.8a1.5,1.5,0,1,1,2-2.24c.13.11,7.46,6.39,26.29,10.1a1.5,1.5,0,0,1-.29,3Z"/><ellipse class="cls-2" cx="119.46" cy="88.31" rx="6.28" ry="3.76" transform="translate(-21.51 135.2) rotate(-54.87)"/><path class="cls-6" d="M118.85,98a33.75,33.75,0,0,1-4.27,7.23s6.19,5.93,12.58,8.84c7.83-6.39,5.58-18.2,5.58-18.2"/><path class="cls-9" d="M117.8,130.47c1,9.88,10.24,19,17.19,20s10.56-5.8,10.56-5.8C132.74,147,124,141.76,117.8,130.47Z"/><path class="cls-10" d="M135,150.44c4.84-1.07,6-3.22,6.94-6.58,3.62.78,6.91.44,11.36-2.1C148.73,147.54,146,150.35,135,150.44Z"/><path class="cls-9" d="M96.51,121.48c-8.84,13.07-4.09,20.28,1.81,29.93-4.13.69-7,.19-11.23,4.73C80.51,140.35,81.09,130.47,96.51,121.48Z"/><path class="cls-2" d="M164.68,76.53c-5.33,16.93-21.86,21.52-38.79,16.18s-25.47-17-20.14-33.95,21-27.87,38-22.53c7.42,2.34,15.52,7.13,19.43,13.19C168.16,57.18,167.68,67,164.68,76.53Z"/><path class="cls-2" d="M119.69,75.93a2.76,2.76,0,0,1-2.15,0,2.8,2.8,0,1,1,2.12-5.19,2.74,2.74,0,0,1,1.51,1.48"/><circle class="cls-11" cx="137.6" cy="75.19" r="1.68"/><circle class="cls-11" cx="112.27" cy="66.52" r="1.68"/><path class="cls-12" d="M116.82,80.09s3,7.49,11.1,2.58"/><path class="cls-13" d="M109.27,50.81c9.67-10.28,15-7.81,15.54-.27,11-1,20,1.4,22.94,7.94,2.79,6.14,0,16.11-2.22,23.73,4.15-6.06,6-8.87,6-8.87a36.32,36.32,0,0,1-3.8,20.26c14.5-1.23,23.46-19.67,20.62-35.51-1.46-8.16-7.1-15.27-14.52-19.74-4.74-2.86-17.33-6.77-25.93-4.26C117.73,37.07,112.91,44,109.27,50.81Z"/><path class="cls-2" d="M150.83,75.69a3.42,3.42,0,0,1,2.77-.34c2,.64,2.91,3.05,2.15,5.39s-3,3.71-4.93,3.07a3.44,3.44,0,0,1-2.09-2.06"/><g class="cls-14"><ellipse class="cls-15" cx="370.65" cy="354.73" rx="173.57" ry="160.5"/></g></svg>