<svg id="レイヤー_1" data-name="レイヤー 1" xmlns="http://www.w3.org/2000/svg" xmlns:xlink="http://www.w3.org/1999/xlink" viewBox="0 0 218 218"><defs><style>.cls-1,.cls-9{fill:none;}.cls-2{clip-path:url(#clip-path);}.cls-3{fill:#f5dcbe;}.cls-10,.cls-3,.cls-4,.cls-5,.cls-6,.cls-7,.cls-9{stroke:#42210b;stroke-linecap:round;stroke-linejoin:round;stroke-width:2px;}.cls-4{fill:#2c3493;}.cls-5{fill:#fff;}.cls-6,.cls-8{fill:#42210b;}.cls-7{fill:#e60012;}.cls-10{fill:#00a148;}</style><clipPath id="clip-path"><rect id="SVGID" class="cls-1" x="9" y="9" width="200" height="200" rx="10"/></clipPath></defs><title>10-1-3 側転</title><g class="cls-2"><path class="cls-3" d="M53.05,167.74c-2.2,0-4.4-.53-5-2.75-.73-2.67,1-4.35,3.68-5.08L61,157.4c20.39-29.85,37-50.59,37.19-50.79a5,5,0,1,1,7.79,6.26A556.73,556.73,0,0,0,67.83,163a19.87,19.87,0,0,1-5.79,3.9S53.48,167.74,53.05,167.74Z"/><path class="cls-3" d="M157.53,177.24H146.32a4.9,4.9,0,0,1-1.78-.3,5,5,0,0,1-3.16-5.56c7.33-42-16.74-56.21-17.77-56.79a5,5,0,0,1,4.85-8.74c1.23.67,28.18,18.26,22.83,63.13a17.11,17.11,0,0,0,6.24,2.25c2.93.22,4.33,1.1,4.8,2.43S160.29,177.24,157.53,177.24Z"/><path class="cls-3" d="M99,65.24a5,5,0,0,1-2.51-.68A197.81,197.81,0,0,0,53,47.13l-2.33,5.55a5,5,0,0,1-9.22-3.88l4-9.5a5,5,0,0,1,5.76-2.93,203.42,203.42,0,0,1,50.36,19.55A5,5,0,0,1,99,65.24Z"/><path class="cls-3" d="M129.76,62.8a5,5,0,0,1-4.23-8.7l33.52-28.65a5,5,0,0,1,6.5,7.61L132,61.7A4.88,4.88,0,0,1,129.76,62.8Z"/><path class="cls-3" d="M160.76,22.22c2.93-2.07,10.41,8.56,7.48,10.63a6.5,6.5,0,1,1-7.48-10.63Z"/><path class="cls-4" d="M95.82,71.24h32s1.4-5.5,16.5-13.38c-2.94-9.62-8.48-13.12-12.5-15.12-6.23,3.17-13,8-17.75,8.5-10,1-25.28-3.93-25.28-3.93a56.73,56.73,0,0,0-7.9,18.43A94.28,94.28,0,0,1,95.82,71.24Z"/><path class="cls-5" d="M87.68,70.24C96.8,66.8,121,64.58,132.2,67.78c0,12.21-2.56,30.09-3.15,34,6.5,3.25,11.41,10,11.41,10l-11.16,10.5h-28s-10.76-3.44-13.62-9.5a38.57,38.57,0,0,1,9.62-10.25,122.71,122.71,0,0,1-2-26.25C95.55,73,93.55,72.24,87.68,70.24Z"/><ellipse class="cls-3" cx="114.55" cy="111.74" rx="3.5" ry="6.5"/><circle class="cls-6" cx="134.01" cy="114.33" r="3"/><ellipse class="cls-3" cx="144.01" cy="130.95" rx="4.5" ry="5.5"/><ellipse class="cls-3" cx="85.01" cy="130.95" rx="4.5" ry="5.5"/><path class="cls-3" d="M84.12,136.63c0-7.35,2-14.56,6.37-18.74,5.5-5.25,14.41-6.56,23.62-6.56s18.3,1.88,23.8,7.2c4.31,4.18,6.18,10.82,6.18,18.1a30,30,0,0,1-60,0Z"/><path class="cls-6" d="M84.12,136.63c0-3.61,14.88,7.19,18.29,15.47,3.21-4.45,9.25-9,17.28-11.33-2.06,3.13-4.14,6-4.14,6S125.4,141,130.39,139c4.73-1.87,13.7-4.28,13.7-2.34a30,30,0,0,1-60,0Z"/><circle class="cls-6" cx="129.01" cy="107.23" r="3"/><circle class="cls-6" cx="120.05" cy="102.45" r="3"/><polygon class="cls-6" points="113.76 100.49 109.69 94.9 108.34 102 113.76 100.49"/><circle class="cls-6" cx="86.51" cy="115.45" r="3"/><circle class="cls-6" cx="78.51" cy="110.45" r="3"/><circle class="cls-6" cx="69.51" cy="107.45" r="3"/><polygon class="cls-6" points="63.09 106.68 57.55 110.82 58.36 103.64 63.09 106.68"/><line class="cls-3" x1="114.51" y1="132.45" x2="114.51" y2="125.45"/><path class="cls-7" d="M118.65,121.45h-9.08s1.61-3.08,4.54-3.08S118.65,121.45,118.65,121.45Z"/><ellipse class="cls-8" cx="97.01" cy="131.95" rx="1.39" ry="2.56" transform="translate(-55.71 191.11) rotate(-74.85)"/><ellipse class="cls-8" cx="131.01" cy="131.95" rx="2.56" ry="1.39" transform="translate(-29.93 38.81) rotate(-15.15)"/><path class="cls-7" d="M83.1,140.17a13.33,13.33,0,0,0,.13-2.59l8.27,8.2,22.67,6.71,22.75-6.71,8.32-8.2s-.06,2.3,0,2.59c3.57,17.3-13.91,31.28-31.07,31.28S78.82,157.47,83.1,140.17Z"/><path class="cls-7" d="M145.24,137.58s-7.82,11.42-30.53,10.75-31.48-10.75-31.48-10.75S79.66,159,114.23,159,145.24,137.58,145.24,137.58Z"/><path class="cls-9" d="M51.58,132.85s-16.79-24.8-6.3-50.51"/><path class="cls-9" d="M39.89,131.23A59.34,59.34,0,0,1,38,71.32"/><rect class="cls-10" x="-8.6" y="177.87" width="234.67" height="14.46"/></g></svg>