<svg id="レイヤー_1" data-name="レイヤー 1" xmlns="http://www.w3.org/2000/svg" xmlns:xlink="http://www.w3.org/1999/xlink" viewBox="0 0 217.52 196.73"><defs><style>.cls-1,.cls-10,.cls-11,.cls-12,.cls-13,.cls-15,.cls-8,.cls-9{stroke:#41210d;}.cls-1,.cls-10,.cls-11,.cls-12,.cls-13,.cls-15,.cls-3,.cls-4,.cls-5,.cls-6,.cls-8,.cls-9{stroke-linecap:round;stroke-linejoin:round;}.cls-1{fill:url(#名称未設定グラデーション_52);}.cls-2{font-size:17.01px;fill:#3f220e;}.cls-2,.cls-7{font-family:YuGothic-Bold, YuGothic Bold;font-weight:700;}.cls-15,.cls-3,.cls-4,.cls-5{fill:none;}.cls-3,.cls-4,.cls-5,.cls-6{stroke:#ea5514;}.cls-4{stroke-dasharray:2.98 2.98;}.cls-5{stroke-dasharray:3.01 3.01;}.cls-6,.cls-7{fill:#ea5514;}.cls-6{stroke-width:2px;}.cls-7{font-size:14.08px;}.cls-8{fill:#f2d9bd;}.cls-9{fill:#fff;}.cls-10{fill:#b5b5b6;}.cls-11{fill:#c9bc9c;}.cls-12{fill:#283289;}.cls-13{fill:#604c3f;}.cls-14{fill:#41210d;}</style><radialGradient id="名称未設定グラデーション_52" cx="69.79" cy="96.91" r="74.34" gradientUnits="userSpaceOnUse"><stop offset="0" stop-color="#e2baad"/><stop offset="0.01" stop-color="#e2b5a8"/><stop offset="0.1" stop-color="#de9788"/><stop offset="0.19" stop-color="#dc7f70"/><stop offset="0.29" stop-color="#da6e5e"/><stop offset="0.4" stop-color="#d96453"/><stop offset="0.52" stop-color="#d96150"/><stop offset="1" stop-color="#d71618"/></radialGradient></defs><title>大玉70</title><circle class="cls-1" cx="89.92" cy="122.2" r="42.4"/><text class="cls-2" transform="translate(60.5 128.85)">大玉 70</text><line class="cls-3" x1="44.24" y1="78.87" x2="45.74" y2="78.87"/><line class="cls-4" x1="48.72" y1="78.87" x2="94.93" y2="78.87"/><line class="cls-3" x1="96.42" y1="78.87" x2="97.92" y2="78.87"/><line class="cls-3" x1="51.56" y1="28.42" x2="53.06" y2="28.42"/><line class="cls-5" x1="56.07" y1="28.42" x2="169.02" y2="28.42"/><line class="cls-3" x1="170.52" y1="28.42" x2="172.02" y2="28.42"/><line class="cls-6" x1="41.18" y1="164.6" x2="41.18" y2="28.42"/><line class="cls-6" x1="33.69" y1="28.42" x2="48.66" y2="28.42"/><line class="cls-6" x1="33.69" y1="78.62" x2="48.66" y2="78.62"/><line class="cls-6" x1="33.69" y1="164.97" x2="48.66" y2="164.97"/><text class="cls-7" transform="translate(13.79 84.3)">70</text><text class="cls-7" transform="translate(6.56 34.24)">100</text><path class="cls-8" d="M120.39,90.14c-3-2.49-3.55-6.13-3.73-8-.26-2.75,1-7.52,2.26-7.49,2.75.07,5.18,1.74,5.45,4.48a10,10,0,0,0,.37,1.73,69.36,69.36,0,0,0,25.07-.53A5,5,0,0,1,152.2,90a78.93,78.93,0,0,1-30.93.36A5.5,5.5,0,0,1,120.39,90.14Z"/><polyline class="cls-9" points="160.75 90.23 150.59 92.05 148.16 79.96 160.89 77.94"/><path class="cls-8" d="M144.28,164.6a5,5,0,0,1-3.95-8.06c9.69-12.52,19.66-34.83,19.76-35a5,5,0,1,1,9.14,4.06c-.43,1-10.55,23.63-21,37.11A5,5,0,0,1,144.28,164.6Z"/><path class="cls-8" d="M181.22,151c-9.86,0-14.64-14.85-15.87-19.4A5,5,0,1,1,175,129h0c1.5,5.48,4.59,11.38,6.29,12,2.38-.1,5.66-4.69,6.84-7.27a5,5,0,1,1,9.09,4.16C196.61,139.25,190.94,151,181.22,151Z"/><path class="cls-10" d="M148,161.94c-1.86,1.45-7.3-1.64-7.47-4,0,0-.84.85-1.33.5s-.23-4.37-2.89-5.05-5.27,1.61-5.8,3.26a5.34,5.34,0,0,0,1.61,5.42c1.68,1.63,6.19,2.47,6.19,2.47s-.19.46.53,1.17,4.62,2.05,7,1.76C148,165,148.32,163.53,148,161.94Z"/><path class="cls-11" d="M149,161.64c-1.87,1.45-7.73-2.63-7.9-5,0,0-.84.85-1.33.5s-.22-4.37-2.89-5-5.27,1.61-5.8,3.27a5.34,5.34,0,0,0,1.61,5.42c1.68,1.62,6.19,2.46,6.19,2.46s-.18.46.53,1.17a11.43,11.43,0,0,0,6.68,1.89A5.5,5.5,0,0,0,149,161.64Z"/><path class="cls-10" d="M191.45,133.43c2.13-1,5.9,2.33,5.56,4.65,0,0,1-.65,1.4-.2s-.73,4.31,1.72,5.56,5.5-.43,6.38-1.93a5.37,5.37,0,0,0-.39-5.64c-1.29-2-5.51-3.75-5.51-3.75s.28-.41-.26-1.26-4.94-2.73-7.33-3C190.35,129.86,189.31,134.44,191.45,133.43Z"/><path class="cls-11" d="M188.13,133.75c2.14-1,8.37,3.14,8,5.46,0,0,1-.65,1.4-.2s-.73,4.31,1.73,5.56,5.49-.43,6.37-1.93a5.37,5.37,0,0,0-.39-5.64c-1.29-1.94-5.51-3.75-5.51-3.75s.28-.41-.26-1.26-4.93-2.89-7.32-3.14A9.65,9.65,0,0,0,188.13,133.75Z"/><path class="cls-12" d="M177.4,118.52l4.78,15s-7,7.35-16.13,8.39c-2-5-4.18-14.07-4.18-14.07Z"/><path class="cls-12" d="M163,141.56a40.53,40.53,0,0,1-14.2-5.44s6.42-14.69,5.78-20.75c10.58-.13,22.46-4.26,24.68-1.29a17.23,17.23,0,0,1-1.29,11.23C175.8,129.51,171.42,135.75,163,141.56Z"/><path class="cls-9" d="M153,116.82c13.51.65,17,.09,26.55-.94-3.3-23.44-8.26-36.39-18.44-41.24-3.68.46-7.73-.21-7.23,5.76C154.67,89.32,155.21,105.9,153,116.82Z"/><path class="cls-8" d="M130.82,102.11c-3.75-1.2-5.53-4.41-6.38-6.1-1.25-2.46-1.85-7.35-.63-7.79,2.59-.94,5.46-.27,6.71,2.18a9.44,9.44,0,0,0,1,1.48,69.45,69.45,0,0,0,23.16-9.61c2.26-1.59,8,6.58,5.76,8.17A79.13,79.13,0,0,1,131.73,102,5.5,5.5,0,0,1,130.82,102.11Z"/><polyline class="cls-9" points="163.27 90.89 153.76 94.89 148.75 83.62 160.72 78.87"/><path class="cls-8" d="M168.07,30.91a26,26,0,0,1,16.36,32.91c-4.56,13.61-14.61,16.25-29,16.25-3.52,0-10.42-1-13.77-4.45,7.32-.38,8.65-8.64,8.65-8.64s-9.68.39-14.9.57a20.39,20.39,0,0,1-1.9-6.51l-.09.07a3,3,0,1,1,0-5,34.49,34.49,0,0,1,1.78-8.8A26,26,0,0,1,168.07,30.91Z"/><path class="cls-13" d="M182.19,44.06c4.28-5.68,14.53-3.87,18.71-.78s3.1,8.91,3.1,8.91-2.43,9.32-.26,12.94a34.53,34.53,0,0,0,9.42,10.46c-6.32-.82-10-4-13-6.24.77,1.93.9,4.09,3.48,6.24C196,74,193.85,70.87,193,66.77c-1-4.9-.13-7.6-.9-11.86S188.64,46.77,182.19,44.06Z"/><circle class="cls-14" cx="153.04" cy="56.41" r="1.85"/><path class="cls-13" d="M137.66,40.53c7.74-5.55,14.21-7.36,13.94-7s-1.29,8.17-.91,14.71A60.81,60.81,0,0,1,156,36.4s-1.33,8.51,0,15.48a54.17,54.17,0,0,0,4.75-13.42s2.58,10.07,1.77,18.71a5.9,5.9,0,0,1,4.5-2.36S168,63,164.18,66.08c1,1.54,3.57,2.19,3.57,2.19l-3.57,2.58,3.57,2.58a30,30,0,0,1-2.57,6c13,.59,27.29-18.31,21.87-32.89-3.7-10-10.94-16.13-22.87-17.8C149.45,26.72,143.34,33.82,137.66,40.53Z"/><path class="cls-8" d="M164.18,62.82a4,4,0,0,0,3,1.36,4.71,4.71,0,0,0-.18-9.37,3.94,3.94,0,0,0-2.7,1.17"/><path class="cls-15" d="M134.31,133.87A26.35,26.35,0,0,1,125.4,151"/><path class="cls-15" d="M137.79,136.43a24.1,24.1,0,0,1-8.91,17.15"/></svg>