<svg id="レイヤー_1" data-name="レイヤー 1" xmlns="http://www.w3.org/2000/svg" xmlns:xlink="http://www.w3.org/1999/xlink" viewBox="0 0 727 605.83"><defs><style>.cls-1{fill:#fffbc4;}.cls-2{fill:#094;}.cls-3{fill:#f5dcbe;}.cls-4{fill:#231815;}.cls-5{fill:#fafcfc;}.cls-6{fill:#009e9d;}.cls-7{fill:#95c036;}.cls-28,.cls-8{fill:#fff;}.cls-9{fill:#40220f;}.cls-10{fill:#e60012;}.cls-11{fill:#c9caca;}.cls-12{fill:#9fa0a0;}.cls-13{fill:#3e3a39;}.cls-14{fill:#af3e92;}.cls-15{fill:#b062a3;}.cls-16{fill:#595757;}.cls-17{fill:url(#名称未設定グラデーション_14);}.cls-18{fill:#2ea7e0;}.cls-19{fill:#e4007f;}.cls-20{fill:#007bc7;}.cls-21{fill:#b8d200;}.cls-22{fill:#00984b;}.cls-23{fill:#00a0df;}.cls-24{fill:#0068b2;}.cls-25{fill:#e40081;}.cls-26{fill:#e3003e;}.cls-27{fill:#6a3906;}.cls-28{stroke:#231815;stroke-linecap:round;stroke-linejoin:round;}.cls-29{fill:url(#名称未設定グラデーション_17);}.cls-30{fill:url(#名称未設定グラデーション_17-2);}.cls-31{fill:url(#名称未設定グラデーション_17-3);}.cls-32{fill:url(#名称未設定グラデーション_17-4);}.cls-33{fill:url(#名称未設定グラデーション_17-5);}.cls-34{fill:url(#名称未設定グラデーション_17-6);}.cls-35{fill:url(#名称未設定グラデーション_17-7);}.cls-36{fill:url(#名称未設定グラデーション_17-8);}.cls-37{fill:url(#名称未設定グラデーション_17-9);}.cls-38{fill:url(#名称未設定グラデーション_17-10);}.cls-39{fill:url(#名称未設定グラデーション_17-11);}.cls-40{fill:url(#名称未設定グラデーション_17-12);}.cls-41{fill:url(#名称未設定グラデーション_5);}.cls-42{fill:url(#名称未設定グラデーション_5-2);}.cls-43{fill:url(#名称未設定グラデーション_5-3);}.cls-44{fill:url(#名称未設定グラデーション_5-4);}.cls-45{fill:url(#名称未設定グラデーション_5-5);}.cls-46{fill:url(#名称未設定グラデーション_5-6);}.cls-47{fill:url(#名称未設定グラデーション_5-7);}.cls-48{fill:url(#名称未設定グラデーション_5-8);}.cls-49{fill:url(#名称未設定グラデーション_5-9);}.cls-50{fill:url(#名称未設定グラデーション_5-10);}.cls-51{fill:url(#名称未設定グラデーション_5-11);}.cls-52{fill:url(#名称未設定グラデーション_5-12);}</style><linearGradient id="名称未設定グラデーション_14" x1="371.87" y1="214.44" x2="425.88" y2="214.44" gradientUnits="userSpaceOnUse"><stop offset="0" stop-color="#fff" stop-opacity="0"/><stop offset="0.02" stop-color="#e7f6fd" stop-opacity="0.1"/><stop offset="0.09" stop-color="#aadff8" stop-opacity="0.33"/><stop offset="0.16" stop-color="#76ccf3" stop-opacity="0.54"/><stop offset="0.23" stop-color="#4cbcf0" stop-opacity="0.7"/><stop offset="0.29" stop-color="#2bb0ed" stop-opacity="0.83"/><stop offset="0.35" stop-color="#13a7eb" stop-opacity="0.93"/><stop offset="0.42" stop-color="#05a2e9" stop-opacity="0.98"/><stop offset="0.47" stop-color="#00a0e9"/><stop offset="0.54" stop-color="#05a2e9" stop-opacity="0.98"/><stop offset="0.6" stop-color="#13a7eb" stop-opacity="0.93"/><stop offset="0.67" stop-color="#2ab0ed" stop-opacity="0.83"/><stop offset="0.75" stop-color="#4bbcef" stop-opacity="0.71"/><stop offset="0.82" stop-color="#75ccf3" stop-opacity="0.54"/><stop offset="0.89" stop-color="#a9dff8" stop-opacity="0.34"/><stop offset="0.96" stop-color="#e5f5fd" stop-opacity="0.1"/><stop offset="0.99" stop-color="#fff" stop-opacity="0"/></linearGradient><linearGradient id="名称未設定グラデーション_17" x1="791.77" y1="-3483.52" x2="800.37" y2="-3483.52" gradientTransform="matrix(-0.62, -0.78, 0.78, -0.62, 3388.36, -1330.86)" gradientUnits="userSpaceOnUse"><stop offset="0" stop-color="#e84422"/><stop offset="1" stop-color="#e95513"/></linearGradient><linearGradient id="名称未設定グラデーション_17-2" x1="800.3" y1="-3484.03" x2="808.94" y2="-3484.03" xlink:href="#名称未設定グラデーション_17"/><linearGradient id="名称未設定グラデーション_17-3" x1="800.84" y1="-3476.5" x2="809.48" y2="-3476.5" xlink:href="#名称未設定グラデーション_17"/><linearGradient id="名称未設定グラデーション_17-4" x1="160.97" y1="200.76" x2="174.11" y2="200.76" gradientTransform="matrix(0.78, -0.62, 0.62, 0.78, -83.55, 164.9)" xlink:href="#名称未設定グラデーション_17"/><linearGradient id="名称未設定グラデーション_17-5" x1="792.6" y1="-3469.83" x2="801.18" y2="-3469.83" xlink:href="#名称未設定グラデーション_17"/><linearGradient id="名称未設定グラデーション_17-6" x1="801.57" y1="-3462.94" x2="810.2" y2="-3462.94" xlink:href="#名称未設定グラデーション_17"/><linearGradient id="名称未設定グラデーション_17-7" x1="174.93" y1="182.53" x2="188.07" y2="182.53" gradientTransform="matrix(0.78, -0.62, 0.62, 0.78, -83.55, 164.9)" xlink:href="#名称未設定グラデーション_17"/><linearGradient id="名称未設定グラデーション_17-8" x1="790.4" y1="-3504.56" x2="799.01" y2="-3504.56" xlink:href="#名称未設定グラデーション_17"/><linearGradient id="名称未設定グラデーション_17-9" x1="799.48" y1="-3497.54" x2="808.14" y2="-3497.54" xlink:href="#名称未設定グラデーション_17"/><linearGradient id="名称未設定グラデーション_17-10" x1="139.94" y1="202.1" x2="153.03" y2="202.1" gradientTransform="matrix(0.78, -0.62, 0.62, 0.78, -83.55, 164.9)" xlink:href="#名称未設定グラデーション_17"/><linearGradient id="名称未設定グラデーション_17-11" x1="791.31" y1="-3490.92" x2="799.9" y2="-3490.92" xlink:href="#名称未設定グラデーション_17"/><linearGradient id="名称未設定グラデーション_17-12" x1="153.87" y1="183.83" x2="166.97" y2="183.83" gradientTransform="matrix(0.78, -0.62, 0.62, 0.78, -83.55, 164.9)" xlink:href="#名称未設定グラデーション_17"/><linearGradient id="名称未設定グラデーション_5" x1="793.96" y1="-3445.07" x2="802.52" y2="-3445.07" gradientTransform="matrix(-0.62, -0.78, 0.78, -0.62, 3388.36, -1330.86)" gradientUnits="userSpaceOnUse"><stop offset="0" stop-color="#dadf00"/><stop offset="1" stop-color="#fff000"/></linearGradient><linearGradient id="名称未設定グラデーション_5-2" x1="794.34" y1="-3437.66" x2="802.89" y2="-3437.66" xlink:href="#名称未設定グラデーション_5"/><linearGradient id="名称未設定グラデーション_5-3" x1="803.36" y1="-3430.68" x2="811.96" y2="-3430.68" xlink:href="#名称未設定グラデーション_5"/><linearGradient id="名称未設定グラデーション_5-4" x1="803.03" y1="-3438.07" x2="811.63" y2="-3438.07" xlink:href="#名称未設定グラデーション_5"/><linearGradient id="名称未設定グラデーション_5-5" x1="4477.53" y1="-2732.71" x2="4490.77" y2="-2732.71" gradientTransform="matrix(-0.78, 0.62, -0.62, -0.78, 2012.47, -4744.04)" xlink:href="#名称未設定グラデーション_5"/><linearGradient id="名称未設定グラデーション_5-6" x1="4463.6" y1="-2714.68" x2="4476.85" y2="-2714.68" gradientTransform="matrix(-0.78, 0.62, -0.62, -0.78, 2012.47, -4744.04)" xlink:href="#名称未設定グラデーション_5"/><linearGradient id="名称未設定グラデーション_5-7" x1="794.99" y1="-3423.81" x2="803.54" y2="-3423.81" xlink:href="#名称未設定グラデーション_5"/><linearGradient id="名称未設定グラデーション_5-8" x1="2474.46" y1="448.83" x2="2483.05" y2="448.83" gradientTransform="matrix(0.62, 0.78, -0.78, 0.62, -981.1, -2053.29)" xlink:href="#名称未設定グラデーション_5"/><linearGradient id="名称未設定グラデーション_5-9" x1="793.22" y1="-3458.86" x2="801.8" y2="-3458.86" xlink:href="#名称未設定グラデーション_5"/><linearGradient id="名称未設定グラデーション_5-10" x1="802.26" y1="-3451.9" x2="810.88" y2="-3451.9" xlink:href="#名称未設定グラデーション_5"/><linearGradient id="名称未設定グラデーション_5-11" x1="4498.78" y1="-2733.79" x2="4511.97" y2="-2733.79" gradientTransform="matrix(-0.78, 0.62, -0.62, -0.78, 2012.47, -4744.04)" xlink:href="#名称未設定グラデーション_5"/><linearGradient id="名称未設定グラデーション_5-12" x1="4484.88" y1="-2715.71" x2="4498.08" y2="-2715.71" gradientTransform="matrix(-0.78, 0.62, -0.62, -0.78, 2012.47, -4744.04)" xlink:href="#名称未設定グラデーション_5"/></defs><title>ボッチャ説明イラスト01</title><polygon class="cls-1" points="426.46 67.82 675.93 215.12 317.38 578.7 43.62 389.73 426.46 67.82"/><path class="cls-2" d="M317.63,581.3l-1.38-.95L40.32,389.88,426.25,65.38,679.16,214.7ZM46.91,389.57,317.14,576.1,672.71,215.54l-246-145.28Z"/><polyline class="cls-1" points="244.35 220.86 447.51 238.12 509.53 383.86"/><polygon class="cls-2" points="508.15 384.44 446.48 239.53 244.23 222.35 244.48 219.36 448.54 236.7 510.91 383.27 508.15 384.44"/><line class="cls-1" x1="353.35" y1="129.29" x2="606.04" y2="285.99"/><rect class="cls-2" x="478.2" y="58.97" width="3" height="297.34" transform="translate(50.42 505.88) rotate(-58.2)"/><line class="cls-1" x1="395.04" y1="155.14" x2="465.03" y2="90.6"/><rect class="cls-2" x="382.43" y="121.37" width="95.21" height="3" transform="translate(30.59 324.05) rotate(-42.68)"/><line class="cls-1" x1="477.39" y1="206.63" x2="545.51" y2="140.12"/><rect class="cls-2" x="463.85" y="171.87" width="95.21" height="3" transform="translate(24.38 406.61) rotate(-44.31)"/><line class="cls-1" x1="519.5" y1="231.85" x2="587.63" y2="165.34"/><rect class="cls-2" x="505.96" y="197.1" width="95.21" height="3" transform="translate(18.74 443.21) rotate(-44.31)"/><line class="cls-1" x1="562.82" y1="257.91" x2="630.94" y2="191.39"/><rect class="cls-2" x="549.27" y="223.15" width="95.21" height="3" transform="translate(12.86 480.88) rotate(-44.31)"/><line class="cls-1" x1="437.22" y1="179.25" x2="508.15" y2="115.73"/><rect class="cls-2" x="425.08" y="145.99" width="95.21" height="3" transform="translate(22.22 353.07) rotate(-41.86)"/><line class="cls-1" x1="332.9" y1="330.99" x2="348.71" y2="340.69"/><rect class="cls-2" x="339.31" y="326.56" width="3" height="18.55" transform="translate(-123.68 450.66) rotate(-58.47)"/><line class="cls-1" x1="347.81" y1="328.47" x2="333.98" y2="343.02"/><rect class="cls-2" x="330.86" y="334.25" width="20.08" height="3" transform="translate(-137.32 351.39) rotate(-46.44)"/><path class="cls-3" d="M347.34,78.8a3.1,3.1,0,0,1-3.08-2.69l-3.45-25.73a3.11,3.11,0,1,1,6.16-.82l3.45,25.72a3.11,3.11,0,0,1-2.67,3.5Z"/><path class="cls-4" d="M347.34,79.3a3.6,3.6,0,0,1-3.57-3.12l-3.46-25.73a3.6,3.6,0,0,1,5.76-3.35,3.55,3.55,0,0,1,1.39,2.39l3.46,25.73a3.61,3.61,0,0,1-3.1,4A3.87,3.87,0,0,1,347.34,79.3ZM343.9,47.36a2.19,2.19,0,0,0-.36,0,2.61,2.61,0,0,0-2.24,2.93L344.76,76a2.61,2.61,0,1,0,5.17-.69l-3.46-25.73a2.62,2.62,0,0,0-2.57-2.26Z"/><path class="cls-5" d="M329.56,115.75A16.42,16.42,0,0,0,333,120c1.44,1.11,3.69,2,4.84,1,3.06-2.79-1.56-8.87-1.56-8.87Z"/><path class="cls-4" d="M336.5,122a6.73,6.73,0,0,1-3.8-1.54,16.47,16.47,0,0,1-3.58-4.43.5.5,0,0,1,0-.38.51.51,0,0,1,.24-.3l6.73-3.62a.51.51,0,0,1,.64.13c.2.27,4.86,6.49,1.49,9.55A2.45,2.45,0,0,1,336.5,122Zm-6.25-6a15,15,0,0,0,3.07,3.68c1.4,1.09,3.35,1.76,4.19,1,2.31-2.1-.49-6.58-1.37-7.85Z"/><path class="cls-5" d="M339.92,108.54l-1.51,1.95a15.8,15.8,0,0,0,3.49,2.63c1.83,1,4.08,1.43,5,1.1a2.74,2.74,0,0,0,1.74-3.91c-.65-1.72-1.95-3.41-5.18-3.19S339.92,108.54,339.92,108.54Z"/><path class="cls-4" d="M346.12,114.83a10.4,10.4,0,0,1-4.45-1.27,15.74,15.74,0,0,1-3.62-2.73.49.49,0,0,1,0-.65l1.46-1.88c.17-.42.9-1.48,3.95-1.68,2.86-.18,4.72,1,5.68,3.52a3.61,3.61,0,0,1,0,2.81,3.42,3.42,0,0,1-2.07,1.74A2.93,2.93,0,0,1,346.12,114.83Zm-7-4.39a15.1,15.1,0,0,0,3.06,2.24c1.75.93,3.86,1.33,4.59,1.07a2.46,2.46,0,0,0,1.5-1.22,2.69,2.69,0,0,0-.06-2c-.5-1.33-1.53-3.08-4.68-2.87-2.72.18-3.09,1.06-3.1,1.07a.3.3,0,0,1-.08.16Zm.84-1.9h0Z"/><path class="cls-6" d="M329.56,81.05s0,26.67-.69,35c4.14-1,6.9-1.12,8.72-4.66,4.14-.26,5.26-1.64,6.64-4.92a110.07,110.07,0,0,0,2.59-13,110.94,110.94,0,0,0,.26-21.24Z"/><path class="cls-4" d="M328.87,116.51a.5.5,0,0,1-.33-.12.52.52,0,0,1-.17-.42c.68-8.17.69-34.66.69-34.92a.5.5,0,0,1,.27-.45l17.53-8.8a.49.49,0,0,1,.47,0,.5.5,0,0,1,.25.39,112,112,0,0,1-.26,21.34,95.56,95.56,0,0,1-2.27,11.63c-.15.62-.27,1.09-.33,1.36-1.45,3.48-2.73,5-6.82,5.3-1.7,3.11-4.16,3.63-7.52,4.36l-1.4.31Zm1.19-35.15c0,2.92-.05,25.65-.64,34l.75-.17c3.3-.71,5.48-1.18,7-4.09a.49.49,0,0,1,.41-.27c4-.25,4.92-1.53,6.22-4.62,0-.18.15-.66.31-1.3a95,95,0,0,0,2.25-11.51,111.14,111.14,0,0,0,.31-20.4Z"/><path class="cls-4" d="M337.59,111.85l-.14,0a.51.51,0,0,1-.35-.62c0-.11,3.09-11.09,3.18-27.32a.49.49,0,0,1,.5-.49h0a.5.5,0,0,1,.5.5,114.94,114.94,0,0,1-3.21,27.59A.51.51,0,0,1,337.59,111.85Z"/><path class="cls-7" d="M342.08,42.55c5.39,3,7.51,14.07,7.51,14.07-2.12,2.33-6.22,3.28-6.22,3.28S336.23,39.27,342.08,42.55Z"/><path class="cls-4" d="M343.37,60.4a.49.49,0,0,1-.47-.34c-.92-2.64-5.35-15.93-2.84-18,.56-.47,1.32-.44,2.26.09h0c5.53,3.1,7.67,14,7.76,14.41A.5.5,0,0,1,350,57c-2.2,2.42-6.3,3.39-6.48,3.44ZM341,42.69a.39.39,0,0,0-.28.1c-1.43,1.19.84,10.21,3,16.5A13.22,13.22,0,0,0,349,56.46c-.35-1.63-2.52-10.85-7.21-13.48h0A2,2,0,0,0,341,42.69Z"/><path class="cls-8" d="M347.18,73.44c-3,4.59-10.46,9.25-18.31,9.25-.95-18.48-1.38-37.9,7.68-41.87S346.65,59.9,347.18,73.44Z"/><path class="cls-4" d="M328.87,83.19a.5.5,0,0,1-.5-.48c-1-20-1.2-38.33,8-42.35a4.5,4.5,0,0,1,4.41.16c5.33,3.34,6.37,18.74,6.92,32.91a.52.52,0,0,1-.09.29C344.56,78.31,337,83.19,328.87,83.19Zm9.65-42.33a4.34,4.34,0,0,0-1.77.42c-8.51,3.73-8.36,22.19-7.41,40.9,7.49-.18,14.44-4.63,17.33-8.88-.39-10.09-1.14-28.61-6.44-31.93A3.16,3.16,0,0,0,338.52,40.86Z"/><path class="cls-3" d="M322,90.2a2.94,2.94,0,0,1-.65-.07,3.11,3.11,0,0,1-2.39-3.69l7.94-37.12a3.11,3.11,0,1,1,6.08,1.3L325,87.74A3.11,3.11,0,0,1,322,90.2Z"/><path class="cls-4" d="M322,90.7a3.82,3.82,0,0,1-.75-.08,3.61,3.61,0,0,1-2.78-4.28l7.95-37.12a3.57,3.57,0,0,1,1.56-2.28,3.61,3.61,0,0,1,5.49,3.78l-7.94,37.13A3.63,3.63,0,0,1,322,90.7Zm7.94-43.34a2.53,2.53,0,0,0-1.41.42,2.6,2.6,0,0,0-1.14,1.64l-7.94,37.13a2.6,2.6,0,0,0,2,3.09,2.62,2.62,0,0,0,3.09-2l7.94-37.12a2.62,2.62,0,0,0-2-3.1A2.57,2.57,0,0,0,329.9,47.36Z"/><path class="cls-7" d="M322.31,59.9a19.13,19.13,0,0,0,10.18,1.63s4.66-16,0-17.26S323.6,53.08,322.31,59.9Z"/><path class="cls-4" d="M330.28,62.15a18.18,18.18,0,0,1-8.2-1.81.5.5,0,0,1-.27-.54c.93-4.87,3.73-13,7.66-15.46a3.88,3.88,0,0,1,3.16-.55,2.68,2.68,0,0,1,1.65,1.38c2.28,4.09-1.16,16-1.31,16.5a.48.48,0,0,1-.41.35A18.22,18.22,0,0,1,330.28,62.15Zm-7.41-2.53a18.73,18.73,0,0,0,9.23,1.45c.54-1.93,3.19-12,1.31-15.41a1.75,1.75,0,0,0-1.05-.91,2.89,2.89,0,0,0-2.37.44C326.83,47.16,324,54,322.87,59.62Z"/><path class="cls-9" d="M311.52,49c-1.84-3.45-4.59-9.69-4.93-15.71-.16-3-.21-8.11,1.82-10.88a8.3,8.3,0,0,1,6.9-2.93c1.56.43,3.66,11.74,1.56,16.57S312.81,41.77,311.52,49Z"/><path class="cls-4" d="M311.51,49.52a.5.5,0,0,1-.44-.27c-1.37-2.59-4.61-9.32-5-15.91-.3-5.3.34-9.07,1.9-11.2,2.18-3,6.57-3.37,7.45-3.13.39.11.72.49,1.06,1.18,1.36,2.86,2.67,11.82.82,16.08a34.86,34.86,0,0,1-2.05,3.93A22.68,22.68,0,0,0,312,49.11a.5.5,0,0,1-.42.4Zm3.24-29.58c-1.23,0-4.35.61-5.94,2.79-1.42,1.94-2,5.49-1.72,10.55.31,5.5,2.7,11.15,4.21,14.23a23.07,23.07,0,0,1,3.11-7.82,32.94,32.94,0,0,0,2-3.82c2-4.64-.07-15.31-1.24-15.9A2.12,2.12,0,0,0,314.75,19.94Z"/><path class="cls-3" d="M350.45,19.52a22.22,22.22,0,0,1-12.17-4.77C334.05,23.12,326.54,32,326.54,32s-1.13-1.46-2.25-.6a4.16,4.16,0,0,0-1.38,4.75c.86,1.81,2.16,2.24,3,1.9.86,2.31.87,4.08,0,5.71a30.12,30.12,0,0,0,7.08.73c7,0,14.65-4.6,17.91-9.85,1.83-2.95,1.5-5.41,1-9.08A29.73,29.73,0,0,0,350.45,19.52Z"/><path class="cls-4" d="M333,45a29.87,29.87,0,0,1-7.2-.75.51.51,0,0,1-.32-.72,5.85,5.85,0,0,0,.12-4.88c-1,.14-2.3-.48-3.15-2.28-1-2.11.29-4.4,1.53-5.36a1.71,1.71,0,0,1,1.28-.36,2.54,2.54,0,0,1,1.24.61c1.53-1.86,7.69-9.54,11.32-16.74a.52.52,0,0,1,.35-.26.5.5,0,0,1,.42.11A21.87,21.87,0,0,0,350.47,19a.51.51,0,0,1,.45.33,30.05,30.05,0,0,1,1.49,6.15c.5,3.66.86,6.3-1.07,9.41C347.83,40.57,339.78,45,333,45Zm-6.36-1.58A30.58,30.58,0,0,0,333,44c6.46,0,14.14-4.22,17.48-9.61,1.74-2.81,1.42-5.18.93-8.75A29.41,29.41,0,0,0,350.09,20a22.8,22.8,0,0,1-11.65-4.47C334.19,23.7,327,32.25,326.92,32.34a.57.57,0,0,1-.39.17.48.48,0,0,1-.39-.19s-.84-1.06-1.54-.51a3.63,3.63,0,0,0-1.24,4.13c.72,1.51,1.74,1.91,2.39,1.65a.5.5,0,0,1,.38,0,.49.49,0,0,1,.27.28A7.42,7.42,0,0,1,326.65,43.42Z"/><path class="cls-9" d="M325.93,38.06c-.86.34-2.16-.09-3-1.9a4.16,4.16,0,0,1,1.38-4.75c1.12-.86,2.25.6,2.25.6s7.51-8.89,11.74-17.26a22.22,22.22,0,0,0,12.17,4.77C347.68,11.9,341.76,6.63,333,6.63c-10.92,0-19.77,8.35-19.77,18.65,0,6.16,2.72,12.67,7.6,16.23a14.56,14.56,0,0,0,5.09,2.26C326.8,42.14,326.79,40.37,325.93,38.06Z"/><path class="cls-4" d="M325.93,44.27l-.12,0a14.9,14.9,0,0,1-5.27-2.34c-4.74-3.45-7.8-10-7.8-16.63,0-10.56,9.09-19.15,20.27-19.15,8.33,0,14.86,4.82,17.91,13.22a.53.53,0,0,1-.07.47.48.48,0,0,1-.42.2,22.72,22.72,0,0,1-12-4.49C334.19,23.7,327,32.25,326.92,32.34a.57.57,0,0,1-.39.17.48.48,0,0,1-.39-.19s-.84-1.06-1.54-.51a3.63,3.63,0,0,0-1.24,4.13c.72,1.51,1.74,1.91,2.39,1.65a.5.5,0,0,1,.38,0,.49.49,0,0,1,.27.28c.91,2.43.9,4.37,0,6.12A.49.49,0,0,1,325.93,44.27ZM333,7.13c-10.62,0-19.27,8.14-19.27,18.15,0,6.34,2.9,12.55,7.39,15.83a13.81,13.81,0,0,0,4.53,2.07,6,6,0,0,0-.05-4.53c-1,.14-2.3-.48-3.15-2.28-1-2.11.29-4.4,1.53-5.36a1.71,1.71,0,0,1,1.28-.36,2.54,2.54,0,0,1,1.24.61c1.53-1.86,7.69-9.54,11.32-16.74a.52.52,0,0,1,.35-.26.5.5,0,0,1,.42.11A21.67,21.67,0,0,0,349.7,19C346.67,11.32,340.77,7.13,333,7.13Z"/><path class="cls-4" d="M342.94,32.6a.5.5,0,0,1,0-1,1.49,1.49,0,0,0,0-3,1.41,1.41,0,0,0-.67.16.5.5,0,0,1-.59-.1.51.51,0,0,1-.07-.6c0-.07,1-1.88-.51-5.1a.52.52,0,0,1,.25-.67.5.5,0,0,1,.66.25,8,8,0,0,1,.8,5.06,2.51,2.51,0,0,1,2.61,2.48A2.48,2.48,0,0,1,342.94,32.6Z"/><path class="cls-4" d="M341.42,39.1a9.88,9.88,0,0,1-3.86-.94.5.5,0,0,1-.23-.67.51.51,0,0,1,.67-.23s2.67,1.28,4.61.67,2.51-3.41,2.52-3.44a.5.5,0,0,1,1,.22c0,.14-.78,3.4-3.18,4.17A5.14,5.14,0,0,1,341.42,39.1Z"/><circle class="cls-4" cx="332.41" cy="30.2" r="1.17"/><circle class="cls-4" cx="347.18" cy="24.68" r="1.17"/><path class="cls-5" d="M580.78,153a3.27,3.27,0,0,1,.5-2.14c.81-.92,2.49-1.49,4.12-2.56s3.56-2.67,5.35-3c4.78-1,10.3,2.83,5.93,5.61S580.78,155.24,580.78,153Z"/><path class="cls-4" d="M583.86,154.56a6.52,6.52,0,0,1-2.86-.47,1.22,1.22,0,0,1-.72-1.07v-.1a3.57,3.57,0,0,1,.62-2.38,8.41,8.41,0,0,1,2.37-1.58,20.73,20.73,0,0,0,1.85-1.06c.35-.23.72-.48,1.1-.75a13.34,13.34,0,0,1,4.43-2.36c3.26-.68,7,.72,7.93,2.93.25.61.58,2.17-1.63,3.58C594.05,153.14,587.79,154.56,583.86,154.56Zm8.49-8.95a7.71,7.71,0,0,0-1.5.15,12.85,12.85,0,0,0-4.06,2.21l-1.12.77c-.66.43-1.34.79-1.93,1.11a7.7,7.7,0,0,0-2.09,1.36,2.72,2.72,0,0,0-.37,1.7V153c0,.07.11.15.2.19,1.95,1.08,11.21-.39,14.93-2.76.8-.5,1.67-1.32,1.25-2.35C597.13,146.79,594.84,145.61,592.35,145.61Z"/><path class="cls-5" d="M593.22,148.24s-7.33,4-7.33,6.51c0,1.39,5.08,1.29,9.14.08,3.15-.94,5.52-2.85,5.52-3.34v-3.25Z"/><path class="cls-4" d="M588.93,156.27a5.59,5.59,0,0,1-3-.62,1.11,1.11,0,0,1-.49-.9c0-2.69,6.81-6.52,7.59-6.95a.5.5,0,0,1,.24-.06h7.33a.5.5,0,0,1,.5.5v3.25c0,1-3,3-5.87,3.82A23.32,23.32,0,0,1,588.93,156.27Zm4.42-7.53c-2.74,1.52-7,4.45-7,6,0,0,.07.08.09.1.87.65,4.82.57,8.41-.5a11.25,11.25,0,0,0,5.18-2.95v-2.66Z"/><path class="cls-6" d="M588,146.57s2.71,1.51,4.52.93c1.73,3.62,6.34,3.44,8.07,2.09,1-16.67.58-38.09.58-38.09l-17.22-4.36C583.25,125.75,588,146.57,588,146.57Z"/><path class="cls-4" d="M597.47,151a6.85,6.85,0,0,1-1.56-.18,5.57,5.57,0,0,1-3.69-2.72c-1.94.33-4.39-1-4.5-1.07a.49.49,0,0,1-.25-.33c-.05-.21-4.71-21.09-4.06-39.56a.51.51,0,0,1,.2-.38.54.54,0,0,1,.43-.09L601.25,111a.5.5,0,0,1,.38.47c0,.22.36,21.63-.58,38.13a.54.54,0,0,1-.19.37A5.67,5.67,0,0,1,597.47,151Zm-5-4a.5.5,0,0,1,.45.28,4.63,4.63,0,0,0,3.21,2.55,5.44,5.44,0,0,0,3.93-.51c.85-15.21.61-34.49.56-37.43l-16.24-4.12c-.49,17.16,3.51,36.2,4,38.47.84.42,2.72,1.16,3.93.78Z"/><path class="cls-4" d="M592.48,148a.49.49,0,0,1-.49-.42c0-.16-2.72-16.13-1.24-31.1a.5.5,0,1,1,1,.1c-1.46,14.83,1.21,30.68,1.23,30.83a.49.49,0,0,1-.41.58Z"/><path class="cls-3" d="M567.93,99.81a3,3,0,0,1-.16-5.93c3.88-.21,10.43-1.32,12.18-3s4.12-9,5.1-13.51a3,3,0,0,1,5.8,1.27c-.46,2.1-2.94,12.75-6.76,16.48-4,3.88-14,4.6-16,4.71Z"/><path class="cls-4" d="M567.93,100.31a3.47,3.47,0,0,1-.18-6.93c3.94-.22,10.26-1.34,11.85-2.89s3.84-8.12,5-13.25a3.46,3.46,0,1,1,6.77,1.48c-.46,2.12-3,12.9-6.89,16.73-4.1,4-14.32,4.74-16.32,4.85Zm20-24.8a2.42,2.42,0,0,0-1.32.39,2.46,2.46,0,0,0-1.08,1.55c-.92,4.24-3.17,11.73-5.24,13.75s-9.3,3-12.5,3.18a2.41,2.41,0,0,0-1.7.81,2.47,2.47,0,0,0,1.83,4.12h.14c1.94-.1,11.83-.82,15.67-4.57s6.17-14.15,6.62-16.23a2.48,2.48,0,0,0-1.88-2.93A2.48,2.48,0,0,0,587.94,75.51Z"/><circle class="cls-10" cx="568.02" cy="91.57" r="5.19"/><path class="cls-4" d="M568,97.26a5.69,5.69,0,1,1,5.69-5.69A5.69,5.69,0,0,1,568,97.26Zm0-10.38a4.69,4.69,0,1,0,4.69,4.69A4.69,4.69,0,0,0,568,86.88Z"/><path class="cls-7" d="M590.8,72.62c-5.19.66-6.72,4-9.19,10.22,2.24,3,8.15,3,8.15,3S596,72,590.8,72.62Z"/><path class="cls-4" d="M589.76,86.3c-.25,0-6.19,0-8.55-3.16a.51.51,0,0,1-.07-.49c2.47-6.26,4.14-9.83,9.6-10.52h0a2.07,2.07,0,0,1,2.07.75c2,2.71-2.12,12.07-2.59,13.13A.5.5,0,0,1,589.76,86.3Zm-7.58-3.55c1.88,2.16,6.07,2.49,7.26,2.54,1.69-3.83,3.78-10.17,2.56-11.81-.14-.2-.42-.45-1.13-.36h0C586,73.73,584.58,76.69,582.18,82.75Zm8.62-10.13h0Z"/><path class="cls-8" d="M583.91,107.14c4.2,4.36,11.52,6,17.24,6.09.77-9.71,1.3-23.61-1.09-32.95-1.52-6-5.54-10-7.19-10C588.61,70.23,582.6,91.57,583.91,107.14Z"/><path class="cls-4" d="M601.15,113.73h0c-2.75,0-12.15-.58-17.6-6.25a.43.43,0,0,1-.13-.3c-1.13-13.33,3.21-31.76,7.4-36.32a2.91,2.91,0,0,1,2-1.13c2,0,6.13,4.38,7.67,10.43,1.89,7.39,2.27,18.53,1.11,33.11A.5.5,0,0,1,601.15,113.73Zm-16.75-6.81c4,4.06,10.94,5.65,16.29,5.8,1.09-14,.7-25.21-1.12-32.31-1.51-5.92-5.45-9.68-6.7-9.68a2,2,0,0,0-1.32.81C587.9,75.52,583.26,92.9,584.4,106.92Z"/><path class="cls-3" d="M614.89,58c-2.64,10.79-9.72,15.69-17.69,15.69-4.86,0-9.49-.93-12.87-3.5a14.08,14.08,0,0,1-5.28-14c2.06-10.54,7.41-16.23,18-16.23,7,0,11.35,3.35,14.75,8.08C613.59,50.51,615.74,54.53,614.89,58Z"/><path class="cls-4" d="M597.2,74.23c-5.59,0-10-1.21-13.18-3.6a14.54,14.54,0,0,1-5.46-14.5c2.22-11.34,8.11-16.63,18.53-16.63,6.37,0,11,2.56,15.15,8.28,1.58,2.2,4.09,6.47,3.13,10.38h0C612.88,68.37,606.25,74.23,597.2,74.23Zm-.11-33.73c-9.86,0-15.44,5-17.55,15.83a13.56,13.56,0,0,0,5.09,13.51c3,2.25,7.2,3.39,12.57,3.39,8.55,0,14.82-5.58,17.2-15.31h0c.89-3.65-1.78-7.9-3-9.55C607.52,42.93,603.1,40.5,597.09,40.5ZM614.89,58h0Z"/><circle class="cls-4" cx="581.61" cy="55.32" r="1.11"/><circle class="cls-4" cx="598.04" cy="60.35" r="1.11"/><path class="cls-9" d="M589.1,49.68c-.66-2.92-2.84-3.42-5.37-4.73s-1.89-6.92,0-9.48,6.23-3.7,8.08-1.23,4,4.16,10.9,6.61,12.75,8,13.41,14.1-2.55,11.74-5.68,14a32,32,0,0,1-7.35,3.75A20,20,0,0,0,606.81,66,3.29,3.29,0,0,0,610.19,64c.33-.66.61-2.93-.16-4-1-1.35-3.08-1.43-3.63-.84-.87,3.33-4.28,7.68-4.28,7.68s2-6.36,2-11.14c0-1.17-2.18-3.46-5.43-4.86S591,48.87,589.1,49.68Z"/><path class="cls-4" d="M603.09,73.25a.48.48,0,0,1-.41-.23.48.48,0,0,1,0-.6,19.74,19.74,0,0,0,3.61-6.53.49.49,0,0,1,.54-.35,2.8,2.8,0,0,0,2.87-1.79,4.72,4.72,0,0,0-.12-3.51,2.48,2.48,0,0,0-1.9-1,1.68,1.68,0,0,0-.88.13c-.94,3.36-4.19,7.52-4.33,7.69a.5.5,0,0,1-.87-.45c0-.07,2-6.34,2-11,0-.89-2-3-5.13-4.4s-7.4-1.86-9.16-1.11a.5.5,0,0,1-.69-.35c-.49-2.18-1.89-2.85-3.82-3.77-.42-.2-.85-.4-1.29-.63a3.64,3.64,0,0,1-1.75-2.56,10.43,10.43,0,0,1,1.58-7.65,7.14,7.14,0,0,1,5.48-2.81h0a4.1,4.1,0,0,1,3.38,1.57c1.79,2.4,3.94,4.05,10.67,6.44C610.33,43,616,49,616.62,54.9c.66,6.11-2.54,12-5.89,14.5a31.43,31.43,0,0,1-7.48,3.82A.41.41,0,0,1,603.09,73.25Zm4.09-6.69a19.83,19.83,0,0,1-2.6,5.07,28.64,28.64,0,0,0,5.56-3c3.13-2.31,6.11-7.85,5.48-13.59-.6-5.54-6-11.17-13.07-13.69s-9.23-4.22-11.14-6.78a3.09,3.09,0,0,0-2.58-1.17h0a6.19,6.19,0,0,0-4.68,2.4,9.52,9.52,0,0,0-1.41,6.84A2.76,2.76,0,0,0,584,44.5c.43.23.85.43,1.26.62,1.88.89,3.52,1.68,4.23,3.92,2.21-.6,6.23-.07,9.41,1.29s5.73,3.75,5.73,5.32a39.07,39.07,0,0,1-1.24,8.53A19.78,19.78,0,0,0,605.92,59a.57.57,0,0,1,.11-.22,2.25,2.25,0,0,1,1.76-.5,3.49,3.49,0,0,1,2.64,1.39c.94,1.33.57,3.81.21,4.54a3.84,3.84,0,0,1-3.44,2.36Z"/><path class="cls-4" d="M585.34,63.29a2.59,2.59,0,0,1-2.59-2.59,2.62,2.62,0,0,1,2.85-2.58,11.16,11.16,0,0,1,1.18-5,.5.5,0,1,1,.91.43,9.05,9.05,0,0,0-1,5.17.52.52,0,0,1-.18.48.47.47,0,0,1-.51.07,1.59,1.59,0,1,0-.62,3.06.5.5,0,0,1,.5.5A.5.5,0,0,1,585.34,63.29Z"/><path class="cls-4" d="M589.53,70a4.17,4.17,0,0,1-3.94-2.34.5.5,0,0,1,.28-.65.51.51,0,0,1,.65.28c0,.11,1.06,2.47,4.67,1.46a.5.5,0,1,1,.27,1A7.24,7.24,0,0,1,589.53,70Z"/><path class="cls-3" d="M589.6,108.78a3,3,0,0,1-.72-5.84c5.43-1.36,11-4,11.59-5.43,0-3.14-2.92-11.81-4.75-16.58a3,3,0,0,1,5.54-2.12c.53,1.38,5.14,13.6,5.14,18.77,0,6.4-11.25,9.91-16.08,11.12A3,3,0,0,1,589.6,108.78Zm10.88-11.3Z"/><path class="cls-4" d="M589.59,109.28a3.46,3.46,0,0,1-.83-6.82c5.39-1.36,10.55-3.86,11.21-5-.11-3.17-2.93-11.64-4.71-16.3a3.46,3.46,0,0,1,6.47-2.48c.53,1.39,5.17,13.68,5.17,19,0,6.76-11.51,10.36-16.46,11.6A3.47,3.47,0,0,1,589.59,109.28Zm11.3-11.49c-.87,1.78-6.9,4.38-11.89,5.64a2.46,2.46,0,1,0,1.2,4.78c4.72-1.18,15.7-4.58,15.7-10.63,0-5.1-4.58-17.22-5.1-18.59a2.49,2.49,0,0,0-1.3-1.37,2.48,2.48,0,0,0-3.26,1.24,2.48,2.48,0,0,0,0,1.89C598,85.6,600.8,93.89,601,97.28a.45.45,0,0,1,0,.2A.51.51,0,0,1,600.89,97.79Z"/><circle class="cls-10" cx="590.8" cy="99.81" r="5.19"/><path class="cls-4" d="M590.8,105.49a5.69,5.69,0,1,1,5.69-5.68A5.7,5.7,0,0,1,590.8,105.49Zm0-10.37a4.69,4.69,0,1,0,4.69,4.69A4.7,4.7,0,0,0,590.8,95.12Z"/><path class="cls-7" d="M597.27,74.07c-2.65,0-2.54,9.1,0,16.35a8.63,8.63,0,0,0,8.47-.5C603.6,80.37,599.92,74.07,597.27,74.07Z"/><path class="cls-4" d="M601.17,91.79a11,11,0,0,1-4.09-.91.52.52,0,0,1-.28-.3c-2.19-6.26-2.64-13.83-1-16.19a1.73,1.73,0,0,1,1.44-.82c3.08,0,6.85,6.83,9,16.24a.5.5,0,0,1-.24.55A9.79,9.79,0,0,1,601.17,91.79ZM597.67,90a8,8,0,0,0,7.5-.37c-2.18-9.46-5.71-15.09-7.9-15.09a.74.74,0,0,0-.62.39C595.35,76.8,595.52,83.75,597.67,90Z"/><ellipse class="cls-4" cx="212.61" cy="351.37" rx="12.55" ry="17.53"/><path class="cls-4" d="M212.61,369.4c-7.19,0-13.05-8.09-13.05-18s5.86-18,13.05-18,13,8.09,13,18S219.8,369.4,212.61,369.4Zm0-35.06c-6.64,0-12.05,7.64-12.05,17s5.41,17,12.05,17,12-7.64,12-17S219.25,334.34,212.61,334.34Z"/><ellipse class="cls-11" cx="212.62" cy="351.79" rx="6.32" ry="11.09"/><path class="cls-4" d="M212.62,363.38c-3.82,0-6.82-5.09-6.82-11.59s3-11.59,6.82-11.59,6.82,5.09,6.82,11.59S216.44,363.38,212.62,363.38Zm0-22.18c-3.21,0-5.82,4.75-5.82,10.59s2.61,10.59,5.82,10.59,5.82-4.75,5.82-10.59S215.83,341.2,212.62,341.2Z"/><path class="cls-12" d="M212.61,363.42c-4.38,0-7.81-5.3-7.81-12.05s3.43-12.05,7.81-12.05,7.81,5.29,7.81,12.05S217,363.42,212.61,363.42Zm0-22.48c-3.2,0-5.91,4.78-5.91,10.43s2.71,10.42,5.91,10.42,5.91-4.77,5.91-10.42S215.81,340.94,212.61,340.94Z"/><path class="cls-4" d="M212.61,363.92c-4.66,0-8.31-5.52-8.31-12.55s3.65-12.55,8.31-12.55,8.31,5.51,8.31,12.55S217.27,363.92,212.61,363.92Zm0-24.1c-4.1,0-7.31,5.07-7.31,11.55s3.21,11.55,7.31,11.55,7.31-5.08,7.31-11.55S216.71,339.82,212.61,339.82Zm0,22.47c-3.53,0-6.41-4.9-6.41-10.92s2.88-10.93,6.41-10.93,6.41,4.9,6.41,10.93S216.14,362.29,212.61,362.29Zm0-20.85c-2.88,0-5.41,4.64-5.41,9.93s2.53,9.92,5.41,9.92,5.41-4.64,5.41-9.92S215.49,341.44,212.61,341.44Z"/><ellipse class="cls-8" cx="212.61" cy="351.37" rx="1.7" ry="2.29"/><path class="cls-4" d="M212.61,354.16a2.88,2.88,0,1,1,2.2-2.79A2.55,2.55,0,0,1,212.61,354.16Zm0-4.59c-.65,0-1.2.83-1.2,1.8s.55,1.79,1.2,1.79,1.2-.82,1.2-1.79S213.26,349.57,212.61,349.57Z"/><polygon class="cls-12" points="258.09 353.26 258.09 356.11 246.62 357.87 246.62 354.23 258.09 353.26"/><path class="cls-4" d="M246.62,358.37a.52.52,0,0,1-.33-.12.49.49,0,0,1-.17-.38v-3.64a.49.49,0,0,1,.46-.49l11.47-1a.45.45,0,0,1,.38.13.48.48,0,0,1,.16.36v2.85a.5.5,0,0,1-.42.49l-11.47,1.77Zm.5-3.68v2.6l10.47-1.61v-1.87Z"/><path class="cls-6" d="M245,346.51l-6.78,1.19s.07-.34.18-.87a67.46,67.46,0,0,0,1.2-11A67.68,67.68,0,0,0,229,337.64l-1.64-6.75c13.69-3.34,16.09-1.57,17-.9,1.74,1.28,3.38,3.06.8,15.53Z"/><path class="cls-4" d="M238.18,348.2a.52.52,0,0,1-.37-.16.51.51,0,0,1-.12-.46s.08-.34.18-.85a68.57,68.57,0,0,0,1.18-10.35,72.48,72.48,0,0,0-9.92,1.75.5.5,0,0,1-.6-.37L226.88,331a.5.5,0,0,1,.37-.6c13.92-3.39,16.37-1.58,17.41-.81,2.05,1.5,3.54,3.75,1,16-.13.63-.21,1-.21,1a.5.5,0,0,1-.41.38l-6.78,1.19Zm1.38-12.85a.5.5,0,0,1,.35.14.51.51,0,0,1,.15.37,67.59,67.59,0,0,1-1.21,11.07l0,.15,5.72-1c0-.17.09-.39.14-.66,2.62-12.65.83-14-.61-15-.76-.56-3.06-2.26-16.1.86l1.41,5.79a66.09,66.09,0,0,1,10.16-1.69Zm5.4,11.16h0Z"/><path class="cls-5" d="M250.82,350.63s7.19,0,8.43,2.53c.63,1.26-11.9,1.79-11.9,1.79l-.23-2.36Z"/><path class="cls-4" d="M247.35,355.45a.5.5,0,0,1-.5-.45l-.23-2.36a.5.5,0,0,1,.26-.49l3.71-2a.45.45,0,0,1,.24-.06c.76,0,7.53.12,8.87,2.8a.69.69,0,0,1,0,.68c-.69,1.18-8,1.66-12.3,1.84Zm.3-2.57.15,1.55c4.65-.22,9.79-.73,10.87-1.26-1.15-1.6-5.8-2-7.73-2Z"/><path class="cls-8" d="M232.28,307.93c-6.84,0-11.9,20.16-8.63,32.64,6.84,4.74,15.37,0,15.37,0S241.76,307.93,232.28,307.93Z"/><path class="cls-4" d="M230.7,343.19a12.66,12.66,0,0,1-7.34-2.21.51.51,0,0,1-.2-.28c-2.47-9.44-.24-24.25,4.58-30.5,1.42-1.84,2.95-2.77,4.54-2.77a4.52,4.52,0,0,1,3.41,1.6c5.87,6.38,3.92,30.56,3.83,31.58a.5.5,0,0,1-.25.4A19.51,19.51,0,0,1,230.7,343.19Zm-6.62-2.93c5.87,3.92,13.09.68,14.47,0,.2-2.72,1.66-24.83-3.59-30.55a3.56,3.56,0,0,0-2.68-1.27c-1.27,0-2.53.8-3.75,2.39C224.36,316.22,221.53,330.21,224.08,340.26Zm14.94.31h0Z"/><path class="cls-6" d="M253.9,351.41l-6.78,1.18.18-.86a67.46,67.46,0,0,0,1.2-11A66.32,66.32,0,0,0,238,342.54l-1.64-6.76c13.69-3.33,16.09-1.56,17-.89,1.74,1.28,3.38,3.06.8,15.53Z"/><path class="cls-4" d="M247.12,353.09a.5.5,0,0,1-.49-.6c0-.1.09-.4.18-.86A68.57,68.57,0,0,0,248,341.28a70.76,70.76,0,0,0-9.92,1.74.49.49,0,0,1-.6-.36l-1.65-6.76a.49.49,0,0,1,.37-.6c13.91-3.39,16.37-1.59,17.41-.82,2.05,1.51,3.54,3.76,1,16-.13.63-.22,1-.22,1a.48.48,0,0,1-.4.38l-6.78,1.19Zm1.38-12.84a.52.52,0,0,1,.35.14.51.51,0,0,1,.15.36,67.79,67.79,0,0,1-1.21,11.08l0,.14,5.72-1c0-.16.08-.38.14-.65,2.62-12.65.83-14-.61-15-.76-.56-3.07-2.26-16.1.86l1.41,5.79a65.9,65.9,0,0,1,10.16-1.69Zm5.4,11.16h0Z"/><path class="cls-3" d="M250.52,293.64a21.18,21.18,0,0,0,.3-3.58,23.76,23.76,0,0,0-2-10.21c-2.73,2-5.72,3-6.84,4.83-2.21,3.59-2.58,6.17-2.1,12-1.58-1.95-1.16-3.06-2.77-3.27s-2.29,1.79-2.29,3.27,1.5,4.72,3.79,4.13a57.2,57.2,0,0,0,.46,8,22.84,22.84,0,0,0,9.34-4.88c2.76-2.55,4.74-6.24,4.79-9.33C253.22,293.06,250.25,295.18,250.52,293.64Z"/><path class="cls-4" d="M239.06,309.29a.47.47,0,0,1-.28-.09.49.49,0,0,1-.21-.36,65.43,65.43,0,0,1-.49-7.44,2.56,2.56,0,0,1-1.75-.63,5.93,5.93,0,0,1-2-4.07,4.58,4.58,0,0,1,1.2-3.26,2.05,2.05,0,0,1,1.66-.5,2.31,2.31,0,0,1,2,1.64c0,.06.06.13.1.2-.24-4.75.35-7.19,2.31-10.37.76-1.23,2.21-2.06,3.89-3a31.75,31.75,0,0,0,3.08-1.93.52.52,0,0,1,.42-.09.55.55,0,0,1,.33.27,24.45,24.45,0,0,1,2,10.43,21.48,21.48,0,0,1-.31,3.67h0a5.37,5.37,0,0,0,.64-.11,2,2,0,0,1,1.7.11,1,1,0,0,1,.34.85c-.05,3.16-2,7-4.95,9.69a23.46,23.46,0,0,1-9.54,5Zm-.46-9a.47.47,0,0,1,.32.12.49.49,0,0,1,.18.41,51.93,51.93,0,0,0,.4,7.28,22,22,0,0,0,8.56-4.6c2.72-2.51,4.58-6.11,4.63-9-.1-.12-.58,0-.83,0-.6.12-1.21.25-1.6-.13a1,1,0,0,1-.24-.92h0a20.5,20.5,0,0,0,.3-3.5,24,24,0,0,0-1.71-9.45c-.91.63-1.84,1.16-2.67,1.64-1.56.9-2.92,1.67-3.54,2.69-2.1,3.4-2.51,5.81-2,11.72a.51.51,0,0,1-.32.5.5.5,0,0,1-.57-.15,9.94,9.94,0,0,1-1.24-2c-.37-.75-.49-1-1.2-1.09a1,1,0,0,0-.87.26,3.65,3.65,0,0,0-.86,2.51,5,5,0,0,0,1.63,3.28,1.69,1.69,0,0,0,1.54.37Zm12.4-6.49Zm-.48-.2h0Z"/><path class="cls-13" d="M250.36,270.89s-.2-5.16-1.22-5.16S238.5,272,234.28,272H232.7a19.72,19.72,0,0,0-11.37,4.28,20.36,20.36,0,0,0-6.85,14.59,19.93,19.93,0,0,0,6,13.54,20.24,20.24,0,0,0,12.21,5.33,24.81,24.81,0,0,0,6.36-.93,57.2,57.2,0,0,1-.46-8c-2.29.59-3.79-2.66-3.79-4.13s.68-3.48,2.29-3.27,1.19,1.32,2.77,3.27c-.48-5.85-.11-8.43,2.1-12,1.12-1.82,4.11-2.81,6.84-4.83a14.43,14.43,0,0,0,1.55-1.3,16.34,16.34,0,0,0,3.94-8.21C253.77,269.47,250.36,270.89,250.36,270.89Z"/><path class="cls-4" d="M232.7,310.22a20.78,20.78,0,0,1-12.56-5.47,20.41,20.41,0,0,1-6.16-13.9,20.81,20.81,0,0,1,7-15,20.12,20.12,0,0,1,11.7-4.4h1.58c2.7,0,7.88-2.77,11.31-4.6,2.33-1.25,3.12-1.65,3.55-1.65.93,0,1.5,1.66,1.69,4.94,1.42-.53,3.34-1,3.9-.09a.5.5,0,0,1,.06.34,16.89,16.89,0,0,1-4.08,8.49,14.88,14.88,0,0,1-1.6,1.34,31.48,31.48,0,0,1-3.17,2c-1.56.9-2.92,1.67-3.54,2.69-2.1,3.4-2.51,5.81-2,11.72a.51.51,0,0,1-.32.5.5.5,0,0,1-.57-.15,9.94,9.94,0,0,1-1.24-2c-.37-.75-.49-1-1.2-1.09a1,1,0,0,0-.87.26,3.65,3.65,0,0,0-.86,2.51,5,5,0,0,0,1.63,3.28,1.69,1.69,0,0,0,1.54.37.47.47,0,0,1,.44.1.49.49,0,0,1,.18.41,56.36,56.36,0,0,0,.46,7.87.5.5,0,0,1-.36.54A25.67,25.67,0,0,1,232.7,310.22Zm0-37.74a19.33,19.33,0,0,0-11,4.16A19.76,19.76,0,0,0,215,290.85,19.31,19.31,0,0,0,220.83,304a19.64,19.64,0,0,0,11.87,5.2,23.65,23.65,0,0,0,5.82-.81,62.42,62.42,0,0,1-.44-7,2.56,2.56,0,0,1-1.75-.63,5.93,5.93,0,0,1-2-4.07,4.58,4.58,0,0,1,1.2-3.26,2.05,2.05,0,0,1,1.66-.5,2.31,2.31,0,0,1,2,1.64c0,.06.06.13.1.2-.24-4.75.35-7.19,2.31-10.37.76-1.23,2.21-2.06,3.89-3a31.75,31.75,0,0,0,3.08-1.93,13,13,0,0,0,1.49-1.26,15.64,15.64,0,0,0,3.74-7.64,8.72,8.72,0,0,0-3.2.8.5.5,0,0,1-.46,0,.51.51,0,0,1-.23-.4c-.08-2.15-.44-4.26-.78-4.67a33.13,33.13,0,0,0-3,1.52c-3.51,1.88-8.83,4.72-11.78,4.72Z"/><polygon class="cls-12" points="226.07 355.16 214.48 351.37 214.48 345.8 226.07 349.59 226.07 355.16"/><path class="cls-4" d="M226.07,355.66l-.16,0-11.58-3.8a.49.49,0,0,1-.35-.47V345.8a.52.52,0,0,1,.21-.41.52.52,0,0,1,.45-.07l11.58,3.8a.5.5,0,0,1,.35.47v5.57a.52.52,0,0,1-.21.41A.5.5,0,0,1,226.07,355.66ZM215,351l10.59,3.46V350L215,346.49Z"/><circle class="cls-4" cx="248.51" cy="290.97" r="1.07"/><polygon class="cls-14" points="226.74 351.37 211.64 347.57 211.64 315.55 226.74 314.18 226.74 351.37"/><path class="cls-4" d="M226.74,351.87l-.13,0-15.09-3.79a.5.5,0,0,1-.38-.48v-32a.5.5,0,0,1,.45-.5l15.1-1.36a.47.47,0,0,1,.38.12.5.5,0,0,1,.17.37v37.19a.47.47,0,0,1-.2.39A.48.48,0,0,1,226.74,351.87Zm-14.6-4.68,14.1,3.54v-36L212.14,316Z"/><polygon class="cls-15" points="250.72 355.19 226.45 359.27 226.74 334.06 248.15 332.04 250.72 355.19"/><path class="cls-4" d="M226.45,359.77a.53.53,0,0,1-.32-.12.5.5,0,0,1-.18-.39l.29-25.2a.5.5,0,0,1,.45-.5l21.41-2a.49.49,0,0,1,.55.44l2.56,23.16a.49.49,0,0,1-.41.54l-24.27,4.08Zm.78-25.25L227,358.67l23.21-3.89-2.46-22.2Z"/><path class="cls-12" d="M249.14,356.74h0a1.57,1.57,0,0,1-1.55-1.61l.37-20.86a1.34,1.34,0,0,0-.44-1,1.31,1.31,0,0,0-1.06-.33l-19.5,2.47a1.58,1.58,0,0,1-.39-3.14L246,329.79a4.49,4.49,0,0,1,5.06,4.54l-.37,20.86A1.58,1.58,0,0,1,249.14,356.74Z"/><path class="cls-4" d="M249.14,357.24h-.06a2.07,2.07,0,0,1-2-2.12l.37-20.86a.78.78,0,0,0-.28-.63.8.8,0,0,0-.66-.21L227,335.88a2.1,2.1,0,0,1-2.33-1.8,2.08,2.08,0,0,1,1.81-2.33L246,329.29a5,5,0,0,1,5.62,5l-.37,20.86A2.09,2.09,0,0,1,249.14,357.24Zm-2.53-24.83a1.83,1.83,0,0,1,1.21.47,1.81,1.81,0,0,1,.61,1.4l-.37,20.86a1.06,1.06,0,0,0,.3.77,1,1,0,0,0,.76.33l0,.5v-.5a1.08,1.08,0,0,0,1.08-1.06l.37-20.86a4,4,0,0,0-4.5-4l-19.49,2.47a1,1,0,0,0-.72.41,1.11,1.11,0,0,0-.22.79,1.09,1.09,0,0,0,1.21.94l19.5-2.46Z"/><path class="cls-4" d="M223,345.81a.51.51,0,0,1-.5-.49l-.38-27.13a.49.49,0,0,1,.49-.5.5.5,0,0,1,.51.49l.38,27.12a.49.49,0,0,1-.49.51Z"/><path class="cls-4" d="M214.9,340.6a.51.51,0,0,1-.5-.5V318.69a.5.5,0,0,1,.5-.5.5.5,0,0,1,.5.5V340.1A.5.5,0,0,1,214.9,340.6Z"/><path class="cls-3" d="M239.36,335.12a8.76,8.76,0,0,1-4.59-1c-1.09-.7-4-2.56-2.05-19a2.84,2.84,0,0,1,5.65.67c-.67,5.68-.75,11.69-.22,13.62,1.59.23,5.87-.34,9.64-1.33a2.85,2.85,0,1,1,1.43,5.51A42.63,42.63,0,0,1,239.36,335.12Zm-1.06-5.33Z"/><path class="cls-4" d="M239.36,335.62a9.13,9.13,0,0,1-4.86-1.06c-1.28-.81-4.27-2.73-2.27-19.51a3.34,3.34,0,0,1,6.64.79c-.62,5.22-.75,10.91-.32,13.1a37.66,37.66,0,0,0,9.11-1.35,3.34,3.34,0,1,1,1.69,6.47A42.92,42.92,0,0,1,239.36,335.62Zm-3.81-22.52a2.35,2.35,0,0,0-2.33,2.07c-1.92,16.15.9,18,1.82,18.55a8.16,8.16,0,0,0,4.32.9,42.35,42.35,0,0,0,9.74-1.52,2.35,2.35,0,0,0-1.19-4.54,36,36,0,0,1-9.61,1.36v0l-.22,0-.33,0-.08-.32c-.56-2-.47-8.09.21-13.81a2.35,2.35,0,0,0-2-2.6Z"/><path class="cls-7" d="M234.81,309.6C231,309.72,231,321,231,321a25.42,25.42,0,0,0,8,.64,17.44,17.44,0,0,0,0-6.75C238.4,312.26,236.5,309.55,234.81,309.6Z"/><path class="cls-4" d="M237,322.25a24.66,24.66,0,0,1-6.16-.74.48.48,0,0,1-.37-.48c0-1.21.12-11.8,4.29-11.93,2,0,4,2.9,4.69,5.71a17.83,17.83,0,0,1,0,7,.51.51,0,0,1-.44.39C239,322.18,238.21,322.25,237,322.25Zm-5.53-1.61a25.73,25.73,0,0,0,7.08.57,16.88,16.88,0,0,0-.07-6.18c-.59-2.57-2.4-5-3.69-4.93h0C232.49,310.18,231.57,316.45,231.51,320.64Zm3.3-11h0Z"/><path class="cls-16" d="M212.48,321.24a1.9,1.9,0,0,1-.65-3.68l14.26-5.16a1.9,1.9,0,1,1,1.29,3.57l-14.25,5.16A2.16,2.16,0,0,1,212.48,321.24Z"/><path class="cls-4" d="M212.48,321.74a2.4,2.4,0,0,1-.82-4.65l14.26-5.16a2.4,2.4,0,0,1,1.63,4.51L213.3,321.6A2.57,2.57,0,0,1,212.48,321.74Zm14.25-8.95a1.33,1.33,0,0,0-.47.08L212,318a1.4,1.4,0,0,0-.83,1.79,1.42,1.42,0,0,0,1.79.84l14.25-5.16a1.4,1.4,0,0,0-.48-2.71Z"/><ellipse class="cls-4" cx="232.06" cy="356.91" rx="12.55" ry="17.53"/><path class="cls-4" d="M232.06,374.94c-7.19,0-13-8.09-13-18s5.85-18,13-18,13.05,8.09,13.05,18S239.26,374.94,232.06,374.94Zm0-35.06c-6.64,0-12,7.64-12,17s5.4,17,12,17,12.05-7.64,12.05-17S238.7,339.88,232.06,339.88Z"/><path class="cls-16" d="M199.59,321.56a1.9,1.9,0,0,1-.64-3.68l14.25-5.16a1.89,1.89,0,1,1,1.29,3.56l-14.25,5.16A1.82,1.82,0,0,1,199.59,321.56Z"/><path class="cls-4" d="M199.59,322.06a2.4,2.4,0,0,1-.81-4.65L213,312.25a2.39,2.39,0,1,1,1.64,4.5l-14.26,5.17A2.52,2.52,0,0,1,199.59,322.06Zm14.26-9a1.36,1.36,0,0,0-.48.09l-14.25,5.16a1.39,1.39,0,0,0-.84,1.79,1.42,1.42,0,0,0,1.79.83l14.25-5.16a1.4,1.4,0,0,0-.47-2.71Z"/><ellipse class="cls-11" cx="232.07" cy="357.33" rx="6.32" ry="11.09"/><path class="cls-4" d="M232.07,368.92c-3.82,0-6.82-5.09-6.82-11.59s3-11.59,6.82-11.59,6.82,5.09,6.82,11.59S235.9,368.92,232.07,368.92Zm0-22.18c-3.21,0-5.82,4.75-5.82,10.59s2.61,10.59,5.82,10.59,5.82-4.75,5.82-10.59S235.28,346.74,232.07,346.74Z"/><path class="cls-12" d="M232.06,369c-4.37,0-7.8-5.29-7.8-12s3.43-12.05,7.8-12.05,7.81,5.29,7.81,12.05S236.44,369,232.06,369Zm0-22.48c-3.2,0-5.91,4.78-5.91,10.43s2.71,10.42,5.91,10.42,5.91-4.77,5.91-10.42S235.27,346.48,232.06,346.48Z"/><path class="cls-4" d="M232.06,369.46c-4.66,0-8.3-5.51-8.3-12.55s3.64-12.55,8.3-12.55,8.31,5.51,8.31,12.55S236.72,369.46,232.06,369.46Zm0-24.1c-4.09,0-7.3,5.07-7.3,11.55s3.21,11.55,7.3,11.55,7.31-5.07,7.31-11.55S236.16,345.36,232.06,345.36Zm0,22.47c-3.53,0-6.41-4.9-6.41-10.92S228.53,346,232.06,346s6.41,4.91,6.41,10.93S235.6,367.83,232.06,367.83Zm0-20.85c-2.88,0-5.41,4.64-5.41,9.93s2.53,9.92,5.41,9.92,5.41-4.63,5.41-9.92S234.94,347,232.06,347Z"/><ellipse class="cls-8" cx="232.06" cy="356.91" rx="1.7" ry="2.29"/><path class="cls-4" d="M232.06,359.7a2.55,2.55,0,0,1-2.19-2.79c0-1.54,1-2.8,2.19-2.8a2.88,2.88,0,0,1,0,5.59Zm0-4.59c-.65,0-1.19.83-1.19,1.8s.54,1.79,1.19,1.79,1.2-.82,1.2-1.79S232.71,355.11,232.06,355.11Z"/><ellipse class="cls-4" cx="249.03" cy="361.06" rx="3.58" ry="4.32"/><path class="cls-4" d="M249,365.88c-2.25,0-4.08-2.16-4.08-4.82s1.83-4.82,4.08-4.82,4.08,2.16,4.08,4.82S251.28,365.88,249,365.88Zm0-8.64c-1.7,0-3.08,1.71-3.08,3.82s1.38,3.82,3.08,3.82,3.08-1.72,3.08-3.82S250.73,357.24,249,357.24Z"/><ellipse class="cls-5" cx="249.03" cy="361.06" rx="1.33" ry="1.8"/><path class="cls-4" d="M249,363.35a2.35,2.35,0,1,1,1.83-2.29A2.08,2.08,0,0,1,249,363.35Zm0-3.59c-.45,0-.83.6-.83,1.3s.38,1.29.83,1.29.83-.59.83-1.29S249.48,359.76,249,359.76Z"/><path class="cls-4" d="M248.64,302.51a3.83,3.83,0,0,1-3.17-1.39.5.5,0,0,1,.12-.7.51.51,0,0,1,.7.12c0,.07,1.15,1.53,3.93.72a.5.5,0,0,1,.62.34.49.49,0,0,1-.34.62A6.46,6.46,0,0,1,248.64,302.51Z"/><path class="cls-17" d="M374.05,259l-2.18-2.07L398,229.52c-5.91-43.68,26.31-59.43,26.63-59.59l1.29,2.72c-1.27.6-30.9,15.19-24.85,57.17l.1.72Z"/><path class="cls-18" d="M393.08,215.1h0a.5.5,0,0,1-.49-.51,63.47,63.47,0,0,1,4.54-23.4.49.49,0,1,1,.9.41,62.78,62.78,0,0,0-4.44,23A.5.5,0,0,1,393.08,215.1Z"/><path class="cls-18" d="M376.94,245.26a.5.5,0,0,1-.34-.86l7.15-6.83a.5.5,0,1,1,.69.73l-7.15,6.82A.47.47,0,0,1,376.94,245.26Z"/><path class="cls-18" d="M359,274.54a.5.5,0,0,1-.5-.48c-.16-3.9-4.16-5.24-4.33-5.29a.5.5,0,0,1,.31-.95c.05,0,4.83,1.59,5,6.2a.5.5,0,0,1-.48.52Z"/><path class="cls-18" d="M362.72,269.69a.5.5,0,0,1-.49-.39,4,4,0,0,0-2.6-2.86.51.51,0,0,1-.33-.63.5.5,0,0,1,.62-.33,5,5,0,0,1,3.29,3.61.49.49,0,0,1-.38.59Z"/><path class="cls-18" d="M365.41,265.56a.5.5,0,0,1-.49-.43,2,2,0,0,0-1-1.42.51.51,0,0,1-.22-.67.49.49,0,0,1,.67-.22,3,3,0,0,1,1.53,2.17.51.51,0,0,1-.42.57Z"/><rect class="cls-19" x="369.64" y="250.06" width="137.64" height="3" transform="translate(-64.69 300.2) rotate(-35.37)"/><polygon class="cls-19" points="382.51 286.25 383.46 290.61 387.27 292.95 376.94 295.24 382.51 286.25"/><rect class="cls-19" x="396.66" y="256.76" width="119.39" height="3" transform="translate(-38.48 431.76) rotate(-48.83)"/><polygon class="cls-19" points="416.01 298.14 417.96 302.16 422.2 303.55 412.69 308.18 416.01 298.14"/><circle class="cls-20" cx="348.71" cy="277.99" r="6.2"/><path class="cls-4" d="M348.71,284.69a6.7,6.7,0,1,1,6.7-6.7A6.71,6.71,0,0,1,348.71,284.69Zm0-12.39a5.7,5.7,0,1,0,5.7,5.69A5.7,5.7,0,0,0,348.71,272.3Z"/><circle class="cls-8" cx="362.72" cy="301.49" r="6.2"/><path class="cls-4" d="M362.72,308.19a6.7,6.7,0,1,1,6.7-6.7A6.71,6.71,0,0,1,362.72,308.19Zm0-12.4a5.7,5.7,0,1,0,5.7,5.7A5.71,5.71,0,0,0,362.72,295.79Z"/><circle class="cls-10" cx="402.96" cy="313.88" r="6.2"/><path class="cls-4" d="M403,320.58a6.7,6.7,0,1,1,6.7-6.7A6.71,6.71,0,0,1,403,320.58Zm0-12.39a5.7,5.7,0,1,0,5.7,5.69A5.7,5.7,0,0,0,403,308.19Z"/><polygon class="cls-21" points="459.6 143.98 459.6 168.81 476.63 155.48 476.63 133.5 459.6 143.98"/><path class="cls-4" d="M459.6,169.32a.59.59,0,0,1-.22,0,.51.51,0,0,1-.28-.45V144a.49.49,0,0,1,.24-.42l17-10.49a.52.52,0,0,1,.51,0,.52.52,0,0,1,.25.44v22a.49.49,0,0,1-.19.39l-17,13.34A.51.51,0,0,1,459.6,169.32Zm.5-25.06v23.53l16-12.56V134.39Z"/><ellipse class="cls-4" cx="459.6" cy="173.31" rx="3.33" ry="4.64"/><path class="cls-4" d="M459.6,178.45c-2.11,0-3.83-2.31-3.83-5.14s1.72-5.14,3.83-5.14,3.83,2.3,3.83,5.14S461.71,178.45,459.6,178.45Zm0-9.28c-1.56,0-2.83,1.86-2.83,4.14s1.27,4.14,2.83,4.14,2.83-1.86,2.83-4.14S461.16,169.17,459.6,169.17Z"/><ellipse class="cls-8" cx="459.6" cy="173.31" rx="1.42" ry="1.82"/><path class="cls-4" d="M459.6,175.63a2.36,2.36,0,1,1,1.92-2.32A2.15,2.15,0,0,1,459.6,175.63Zm0-3.64c-.49,0-.91.6-.91,1.32s.42,1.32.91,1.32.92-.61.92-1.32S460.1,172,459.6,172Z"/><polygon class="cls-22" points="459.6 168.81 484.05 179.58 501.81 163.68 479.11 154.21 459.6 168.81"/><path class="cls-4" d="M484.05,180.08a.46.46,0,0,1-.2-.05L459.4,169.27a.52.52,0,0,1-.3-.4.55.55,0,0,1,.2-.46l19.51-14.6a.48.48,0,0,1,.49-.06l22.7,9.46a.51.51,0,0,1,.14.84L484.38,180A.51.51,0,0,1,484.05,180.08ZM460.59,168.7,484,179l16.92-15.16-21.7-9.05Z"/><polygon class="cls-12" points="460.41 167.99 454.57 172.78 478.52 184.46 484.05 179.58 460.41 167.99"/><path class="cls-4" d="M478.52,185a.59.59,0,0,1-.22-.05l-23.94-11.69a.48.48,0,0,1-.28-.39.5.5,0,0,1,.18-.44l5.84-4.79a.49.49,0,0,1,.53-.06l23.64,11.59a.51.51,0,0,1,.28.38.5.5,0,0,1-.17.44l-5.53,4.89A.5.5,0,0,1,478.52,185Zm-23-12.29,22.94,11.2,4.72-4.17-22.68-11.12Z"/><path class="cls-12" d="M459.6,169.15a1.35,1.35,0,0,1-1.43-1.22l-.55-21.39a6.22,6.22,0,0,1,3.16-5.43l9.85-6a1.58,1.58,0,0,1,2,.29,1.13,1.13,0,0,1-.34,1.73l-9.85,6a3.82,3.82,0,0,0-1.95,3.35l.55,21.39a1.35,1.35,0,0,1-1.41,1.27Z"/><path class="cls-4" d="M459.6,169.65a1.84,1.84,0,0,1-1.93-1.71l-.55-21.38a6.74,6.74,0,0,1,3.4-5.88l9.85-6a2.07,2.07,0,0,1,2.65.41,1.56,1.56,0,0,1,.35,1.29,1.73,1.73,0,0,1-.82,1.18l-9.85,6a3.37,3.37,0,0,0-1.71,2.92l.55,21.38a1.67,1.67,0,0,1-.47,1.18,2.05,2.05,0,0,1-1.43.6Zm11.86-34.3a1.13,1.13,0,0,0-.57.15l-9.85,6a5.74,5.74,0,0,0-2.92,5l.55,21.39a.87.87,0,0,0,.93.73v0a1.08,1.08,0,0,0,.74-.3.68.68,0,0,0,.19-.46L460,146.5a4.33,4.33,0,0,1,2.19-3.79l9.85-6a.75.75,0,0,0,.36-.49.59.59,0,0,0-.15-.5A1,1,0,0,0,471.46,135.35Z"/><polygon class="cls-21" points="501.13 123.93 501.61 157.26 476.63 153.18 476.63 124.41 501.13 123.93"/><path class="cls-4" d="M501.6,157.76h-.08l-25-4.08a.5.5,0,0,1-.42-.49V124.41a.49.49,0,0,1,.49-.5l24.5-.48a.46.46,0,0,1,.35.14.52.52,0,0,1,.16.35l.47,33.33a.49.49,0,0,1-.17.39A.5.5,0,0,1,501.6,157.76Zm-24.47-5,24,3.92-.47-32.23-23.5.46Z"/><path class="cls-3" d="M453.77,150.43a2.58,2.58,0,0,1-1.35-5c12.64-4.87,15.79-14.22,15.92-14.61a2.59,2.59,0,0,1,4.94,1.55c-.16.49-3.92,12.08-19,17.89A2.17,2.17,0,0,1,453.77,150.43Z"/><path class="cls-4" d="M453.35,151a3.09,3.09,0,0,1-1.11-6c12.43-4.78,15.5-13.91,15.63-14.3a3.08,3.08,0,0,1,5.88,1.86c-.15.5-4,12.31-19.3,18.2a3.15,3.15,0,0,1-.6.17h0A2.89,2.89,0,0,1,453.35,151Zm17.46-21.41a2.1,2.1,0,0,0-2,1.45c-.13.41-3.35,10-16.22,14.93a2.08,2.08,0,0,0,1.09,4h0a2,2,0,0,0,.4-.11c14.88-5.72,18.56-17.09,18.71-17.57a2.08,2.08,0,0,0-1.36-2.6A2,2,0,0,0,470.81,129.56Z"/><path class="cls-23" d="M469.2,127.79s-3.55,7.66-6.44,10c0,0,2.44,2.21,5.25,4.91a24,24,0,0,0,6-7l1.1-7.38Z"/><path class="cls-4" d="M468,143.2a.49.49,0,0,1-.34-.14c-2.78-2.66-5.22-4.87-5.24-4.9a.48.48,0,0,1,0-.75c2.76-2.25,6.26-9.75,6.29-9.83a.51.51,0,0,1,.5-.29l5.91.51a.51.51,0,0,1,.35.19.46.46,0,0,1,.1.39l-1.09,7.38a.47.47,0,0,1-.06.15,24.2,24.2,0,0,1-6.13,7.18A.51.51,0,0,1,468,143.2Zm-4.5-5.4c.77.71,2.54,2.33,4.53,4.23a23.89,23.89,0,0,0,5.49-6.51l1-6.77-5-.43C468.82,129.74,466,135.38,463.51,137.8Z"/><path class="cls-5" d="M471.78,171.76c.45,1.44-1.54,3.34-4.46,4.26s-6.48.2-6.93-1.23a2.86,2.86,0,0,1,.72-2.88c.92-.83,2.75-1.17,4.21-1.63C468.24,169.36,471.33,170.32,471.78,171.76Z"/><path class="cls-4" d="M464.54,176.94c-2.25,0-4.24-.76-4.63-2a3.36,3.36,0,0,1,.86-3.4,8.81,8.81,0,0,1,3.37-1.44c.35-.09.7-.19,1-.3,3-.94,6.5-.05,7.09,1.81a2.85,2.85,0,0,1-1.1,2.84,9.76,9.76,0,0,1-3.69,2.05A9.87,9.87,0,0,1,464.54,176.94Zm3.14-6.52a7.3,7.3,0,0,0-2.21.34l-1.06.31a8,8,0,0,0-3,1.22,2.36,2.36,0,0,0-.58,2.35c.32,1,3.4,1.82,6.31.91a8.62,8.62,0,0,0,3.3-1.83c.69-.65,1-1.32.83-1.81C471.06,171.13,469.54,170.42,467.68,170.42Z"/><path class="cls-24" d="M473.83,173.63a11.54,11.54,0,0,1-9.84-4.18c.08-3.89-.34-9.93,1.63-13.14,1.6-2.61,6.1-5.43,13.37-8.4l6.57,8-2.66,1.55a46.06,46.06,0,0,0-8.49,4.37C474,163.27,473.83,173.63,473.83,173.63Z"/><path class="cls-4" d="M473.1,174.15a11.83,11.83,0,0,1-9.52-4.42.5.5,0,0,1-.09-.29c0-.68,0-1.42,0-2.2,0-3.75,0-8.43,1.69-11.19s6.24-5.6,13.61-8.6a.49.49,0,0,1,.58.14l6.56,8a.46.46,0,0,1,.11.4.48.48,0,0,1-.24.34l-2.66,1.55a48.8,48.8,0,0,0-8.29,4.23c-.29,1.35-.47,7.51-.53,11.48a.5.5,0,0,1-.47.5Zm.73-.52h0Zm-9.34-4.35a11.05,11.05,0,0,0,8.85,3.86c0-2.21.19-10.12.6-11.43a.49.49,0,0,1,.16-.24,46.36,46.36,0,0,1,8.61-4.45l2.09-1.21-6-7.3c-7,2.88-11.27,5.59-12.79,8.06s-1.55,7-1.55,10.67C464.5,168,464.51,168.65,464.49,169.28Z"/><path class="cls-5" d="M480.77,175.59c.45,1.44-1.55,3.35-4.46,4.26s-6.48.21-6.94-1.23a2.91,2.91,0,0,1,.72-2.88c.93-.83,2.76-1.17,4.22-1.63C477.22,173.19,480.31,174.15,480.77,175.59Z"/><path class="cls-4" d="M473.55,180.76a9.66,9.66,0,0,1-1.72-.15c-1.59-.29-2.66-1-2.93-1.84a3.34,3.34,0,0,1,.86-3.4,8.61,8.61,0,0,1,3.36-1.43c.36-.1.71-.2,1-.31,3-.94,6.5,0,7.08,1.81a2.85,2.85,0,0,1-1.09,2.84,10,10,0,0,1-6.6,2.48Zm3.12-6.51a7.25,7.25,0,0,0-2.21.34c-.34.11-.7.21-1.07.31a7.9,7.9,0,0,0-3,1.22,2.34,2.34,0,0,0-.58,2.35c.16.49,1,.94,2.16,1.16a8.84,8.84,0,0,0,4.15-.25,8.61,8.61,0,0,0,3.3-1.82c.68-.66,1-1.32.83-1.82C480,175,478.53,174.25,476.67,174.25Z"/><path class="cls-24" d="M481.94,177.39a11.54,11.54,0,0,1-9.84-4.18c.08-3.89-.35-9.93,1.63-13.14,1.6-2.61,6.1-5.44,13.37-8.4l3.9,9.58-1.95-4.79,2,4.79a46.06,46.06,0,0,0-8.49,4.37C482.09,167,481.94,177.39,481.94,177.39Z"/><path class="cls-4" d="M481.21,177.91a11.83,11.83,0,0,1-9.52-4.42.45.45,0,0,1-.09-.3c0-.67,0-1.41,0-2.19,0-3.76,0-8.43,1.69-11.19s6.24-5.6,13.61-8.6a.49.49,0,0,1,.65.27l3.91,9.58a.51.51,0,0,1-.27.65,48.37,48.37,0,0,0-8.24,4.2c-.28,1.35-.46,7.51-.52,11.48a.51.51,0,0,1-.48.5Zm.73-.52h0ZM472.6,173a11.14,11.14,0,0,0,8.85,3.86c0-2.21.19-10.12.59-11.43a.51.51,0,0,1,.17-.24,44.86,44.86,0,0,1,8.14-4.26l-1.76-4.32v0l-1.76-4.31c-6.89,2.86-11.15,5.55-12.67,8s-1.55,7-1.54,10.67C472.61,171.72,472.61,172.4,472.6,173Z"/><path class="cls-5" d="M471.34,129.1c-.52,2.47-1.62,6.65-.34,10.73a26.21,26.21,0,0,0,5.56,9.19,24.53,24.53,0,0,0,10.63,6.18l8.84-5.46c-.78-5.66-6.17-10.67-9.68-14.89C479.52,126.64,472.74,122.39,471.34,129.1Z"/><path class="cls-4" d="M487.19,155.7a.45.45,0,0,1-.16,0l-.43-.13a24.7,24.7,0,0,1-10.39-6.16,27,27,0,0,1-5.69-9.4c-1.21-3.86-.37-7.75.19-10.33l.14-.65h0c.42-2,1.36-3.27,2.77-3.62,4.12-1,10.55,6.06,13.12,9.15.64.78,1.35,1.58,2.09,2.41,3.3,3.74,7,8,7.69,12.73a.48.48,0,0,1-.23.49l-8.84,5.46A.5.5,0,0,1,487.19,155.7Zm-15.36-26.5-.15.66c-.53,2.47-1.33,6.21-.2,9.82a25.63,25.63,0,0,0,5.45,9,23.61,23.61,0,0,0,10,5.9l.22.07,8.36-5.16c-.74-4.34-4.27-8.35-7.4-11.89-.74-.84-1.46-1.65-2.11-2.43-5.11-6.14-9.63-9.44-12.11-8.82-1,.25-1.69,1.21-2,2.85Z"/><polygon class="cls-21" points="484.67 153.04 484.67 179.1 501.7 163.68 501.22 141.26 484.67 153.04"/><path class="cls-4" d="M484.67,179.6a.46.46,0,0,1-.2,0,.5.5,0,0,1-.3-.45V153a.49.49,0,0,1,.21-.4l16.55-11.78a.5.5,0,0,1,.79.39l.48,22.41a.55.55,0,0,1-.16.39l-17,15.42A.55.55,0,0,1,484.67,179.6Zm.5-26.3V178l16-14.51-.46-21.24Z"/><path class="cls-12" d="M484.67,182.14a1.44,1.44,0,0,1-1.44-1.41L482.69,156a7.47,7.47,0,0,1,3.16-6.29l9.85-7a1.43,1.43,0,0,1,1.66,2.34l-9.85,7a4.59,4.59,0,0,0-1.95,3.87l.55,24.73a1.44,1.44,0,0,1-1.41,1.47Z"/><path class="cls-4" d="M484.67,182.64a2,2,0,0,1-1.94-1.9L482.18,156a8,8,0,0,1,3.38-6.7l9.85-7a1.89,1.89,0,0,1,1.44-.33,1.94,1.94,0,0,1,1.59,2.24,1.94,1.94,0,0,1-.79,1.25l-9.85,7a4.11,4.11,0,0,0-1.74,3.45l.55,24.73a1.91,1.91,0,0,1-.54,1.38,1.94,1.94,0,0,1-1.36.6ZM496.53,143a.88.88,0,0,0-.54.18l-9.86,7a7,7,0,0,0-2.95,5.87l.55,24.72a1,1,0,0,0,.94.92v0a.94.94,0,0,0,.93-1L485.06,156a5.12,5.12,0,0,1,2.16-4.29l9.85-7a.9.9,0,0,0,.38-.6.91.91,0,0,0-.16-.7.93.93,0,0,0-.6-.38Z"/><ellipse class="cls-4" cx="484.67" cy="186.95" rx="3.33" ry="5.36"/><path class="cls-4" d="M484.67,192.81c-2.15,0-3.83-2.57-3.83-5.86s1.68-5.86,3.83-5.86,3.83,2.57,3.83,5.86S486.82,192.81,484.67,192.81Zm0-10.72c-1.53,0-2.83,2.22-2.83,4.86s1.3,4.86,2.83,4.86,2.83-2.22,2.83-4.86S486.21,182.09,484.67,182.09Z"/><ellipse class="cls-8" cx="484.67" cy="186.95" rx="1.42" ry="2.11"/><path class="cls-4" d="M484.67,189.56c-1.07,0-1.91-1.15-1.91-2.61s.84-2.61,1.91-2.61,1.92,1.15,1.92,2.61S485.75,189.56,484.67,189.56Zm0-4.22c-.43,0-.91.66-.91,1.61s.48,1.61.91,1.61.92-.66.92-1.61S485.1,185.34,484.67,185.34Z"/><ellipse class="cls-4" cx="500.58" cy="163.67" rx="9.06" ry="17.34"/><path class="cls-4" d="M500.58,181.51c-5.27,0-9.56-8-9.56-17.84s4.29-17.83,9.56-17.83,9.56,8,9.56,17.83S505.85,181.51,500.58,181.51Zm0-34.67c-4.72,0-8.56,7.55-8.56,16.83s3.84,16.84,8.56,16.84,8.56-7.55,8.56-16.84S505.3,146.84,500.58,146.84Z"/><ellipse class="cls-11" cx="500.59" cy="164.09" rx="4.56" ry="10.97"/><path class="cls-4" d="M500.59,175.56c-2.84,0-5.06-5-5.06-11.47s2.22-11.47,5.06-11.47,5.06,5,5.06,11.47S503.43,175.56,500.59,175.56Zm0-21.94c-2,0-4.06,4.21-4.06,10.47s2.1,10.47,4.06,10.47,4.06-4.21,4.06-10.47S502.55,153.62,500.59,153.62Z"/><path class="cls-12" d="M500.58,175.59c-3.16,0-5.63-5.23-5.63-11.92s2.47-11.91,5.63-11.91,5.64,5.23,5.64,11.91S503.74,175.59,500.58,175.59Zm0-22.23c-2.31,0-4.27,4.73-4.27,10.31s2,10.32,4.27,10.32,4.27-4.73,4.27-10.32S502.89,153.36,500.58,153.36Z"/><path class="cls-4" d="M500.58,176.09c-3.5,0-6.13-5.34-6.13-12.42s2.63-12.41,6.13-12.41,6.13,5.33,6.13,12.41S504.08,176.09,500.58,176.09Zm0-23.83c-2.83,0-5.13,5.12-5.13,11.41s2.3,11.42,5.13,11.42,5.13-5.12,5.13-11.42S503.41,152.26,500.58,152.26Zm0,22.23c-2.63,0-4.77-4.85-4.77-10.82s2.14-10.81,4.77-10.81,4.77,4.85,4.77,10.81S503.21,174.49,500.58,174.49Zm0-20.63c-1.78,0-3.77,4.2-3.77,9.81s2,9.82,3.77,9.82,3.77-4.2,3.77-9.82S502.36,153.86,500.58,153.86Z"/><ellipse class="cls-8" cx="500.58" cy="163.67" rx="1.22" ry="2.27"/><path class="cls-4" d="M500.58,166.44c-1,0-1.72-1.19-1.72-2.77s.74-2.76,1.72-2.76,1.72,1.19,1.72,2.76S501.56,166.44,500.58,166.44Zm0-4.53c-.29,0-.72.7-.72,1.76s.43,1.77.72,1.77.72-.7.72-1.77S500.87,161.91,500.58,161.91Z"/><path class="cls-4" d="M497.5,142.24a.5.5,0,0,1-.5-.48l-.38-11.54a.5.5,0,0,1,.48-.52h0a.5.5,0,0,1,.5.48l.38,11.55a.5.5,0,0,1-.49.51Z"/><path class="cls-13" d="M499.13,127.24a2,2,0,0,1-2-2V123a5,5,0,0,1,3.31-4.7l6.31-2.26a2,2,0,0,1,1.36,3.78l-6.31,2.26a1,1,0,0,0-.64.92v2.21A2,2,0,0,1,499.13,127.24Z"/><path class="cls-4" d="M499.13,127.74a2.51,2.51,0,0,1-2.51-2.51V123a5.5,5.5,0,0,1,3.63-5.17l6.31-2.27a2.51,2.51,0,0,1,1.7,4.73L502,122.57a.48.48,0,0,0-.31.45v2.21A2.52,2.52,0,0,1,499.13,127.74Zm8.28-11.3a1.52,1.52,0,0,0-.51.09l-6.31,2.26a4.5,4.5,0,0,0-3,4.23v2.21a1.51,1.51,0,1,0,3,0V123a1.48,1.48,0,0,1,1-1.39l6.31-2.26a1.51,1.51,0,0,0-.51-2.93Z"/><path class="cls-3" d="M485.23,151.9a2.59,2.59,0,0,1-1-5c3-1.26,7.77-4.1,8.34-6.18a.89.89,0,0,0-.23-.91c-.86-1-6.21-3.77-10.67-5.67a2.59,2.59,0,0,1,2-4.76c3.24,1.39,11,4.87,12.8,7.36a6,6,0,0,1,1.06,5.36c-1.45,5.23-9.7,8.9-11.34,9.58A2.69,2.69,0,0,1,485.23,151.9Z"/><path class="cls-4" d="M485.23,152.39a3.08,3.08,0,0,1-1.19-5.93c3-1.27,7.54-4,8-5.85,0-.12.06-.2-.15-.48-.7-.83-5.69-3.47-10.47-5.51a3.09,3.09,0,1,1,2.43-5.68c4.06,1.74,11.16,5,13,7.52a6.51,6.51,0,0,1,1.14,5.79c-1.51,5.46-10,9.21-11.63,9.91A3,3,0,0,1,485.23,152.39Zm-2.54-22.7a2.09,2.09,0,0,0-.83,4c3.77,1.61,9.83,4.57,10.87,5.81a1.41,1.41,0,0,1,.32,1.36c-.68,2.49-6.1,5.46-8.62,6.51a2.09,2.09,0,0,0-1.13,2.73,2.12,2.12,0,0,0,2.73,1.12c1.6-.66,9.66-4.23,11.05-9.24a5.61,5.61,0,0,0-1-4.94c-1.22-1.65-5.93-4.34-12.6-7.19A2.1,2.1,0,0,0,482.69,129.69Z"/><path class="cls-23" d="M488,139.83c-3.3-1.55-7.68-4.44-9.11-7.38-.88-1.79-.29-4.24,1.21-4.57,3.95-.89,14.13,5.53,14.13,5.53S492.47,138.67,488,139.83Z"/><path class="cls-4" d="M488,140.33a.54.54,0,0,1-.21-.05c-3.37-1.58-7.84-4.52-9.35-7.61a4.58,4.58,0,0,1-.07-3.88,2.42,2.42,0,0,1,1.62-1.4c4.11-.92,14.08,5.33,14.51,5.6a.49.49,0,0,1,.2.58c-.07.22-1.89,5.53-6.57,6.74Zm-7.06-12a4,4,0,0,0-.73.07,1.47,1.47,0,0,0-.94.86,3.64,3.64,0,0,0,.06,3c1.29,2.63,5.28,5.42,8.72,7.06,3.37-1,5.09-4.52,5.56-5.68C490.8,131.88,484.24,128.29,480.94,128.29Z"/><path class="cls-3" d="M491.11,116.49c0,8.68-6.82,13.71-16.2,15.11a21.37,21.37,0,0,1-13.7-2.6c-3.92-2.44-5.32-8-5.32-12.51,0-8.68,9.17-15.71,18.44-15.71S491.11,107.81,491.11,116.49Z"/><path class="cls-4" d="M471.91,132.31a21.5,21.5,0,0,1-11-2.88c-4.09-2.56-5.55-8.36-5.55-12.94,0-8.64,8.85-16.21,18.94-16.21,9.52,0,17.28,7.27,17.28,16.21,0,8.34-6.06,14-16.63,15.6A20.74,20.74,0,0,1,471.91,132.31Zm2.42-31c-9.39,0-17.94,7.25-17.94,15.21,0,4.31,1.33,9.75,5.08,12.09a20.85,20.85,0,0,0,13.36,2.52c10-1.49,15.78-6.82,15.78-14.61C490.61,108.1,483.3,101.28,474.33,101.28Z"/><path class="cls-4" d="M463.53,107.93a29.87,29.87,0,0,0,7.74,9.39,17.34,17.34,0,0,1-1-8.14l7.19,7.11a10.71,10.71,0,0,1,0-6A34.75,34.75,0,0,0,481,121.05s-.33-5,1.34-5.89,3.79.82,4.15,2.21a5.63,5.63,0,0,1-1.23,4.16,2.82,2.82,0,0,1-2.27.77,6.68,6.68,0,0,1,0,4.5,22.34,22.34,0,0,0,2.56-3.35,15.36,15.36,0,0,1-2.56,7.66,16.29,16.29,0,0,0,5.14-4.09,10.8,10.8,0,0,1-.53,2c3.9-4.54,4.94-9.57,4.94-15.9s-4.69-10.91-8.9-13.41c-2.17-1.27-9.36-2.59-15-1.14a18,18,0,0,0-10,7c-2.7,4.73-3.35,10.07-3.15,11.23a28.4,28.4,0,0,1,3.7-7.94,11.29,11.29,0,0,0-.55,7A20.9,20.9,0,0,1,463.53,107.93Z"/><path class="cls-4" d="M483,131.61a.5.5,0,0,1-.39-.18.51.51,0,0,1,0-.61,14.06,14.06,0,0,0,2.22-5.4,16.39,16.39,0,0,1-1.46,1.74.51.51,0,0,1-.63.06.49.49,0,0,1-.18-.61,6.18,6.18,0,0,0,0-4.13.5.5,0,0,1,0-.46.51.51,0,0,1,.42-.22,2.38,2.38,0,0,0,1.94-.64,5.26,5.26,0,0,0,1.07-3.67,3.25,3.25,0,0,0-1.79-1.9,1.8,1.8,0,0,0-1.62,0c-1,.57-1.21,3.63-1.09,5.42a.5.5,0,0,1-.94.28,33.58,33.58,0,0,1-3-8.07,10.19,10.19,0,0,0,.4,2.91.49.49,0,0,1-.21.58.51.51,0,0,1-.62-.07l-6.43-6.38a17.7,17.7,0,0,0,1.06,6.88.5.5,0,0,1-.17.57.51.51,0,0,1-.6,0,29.31,29.31,0,0,1-7.55-8.94,19.77,19.77,0,0,0-4.25,7.23.44.44,0,0,1-.48.37.5.5,0,0,1-.49-.37,11.31,11.31,0,0,1-.29-3.88,33.24,33.24,0,0,0-1.89,4.78.48.48,0,0,1-.51.36.51.51,0,0,1-.46-.42c-.22-1.25.43-6.7,3.2-11.56a18.63,18.63,0,0,1,10.27-7.23c5.56-1.44,12.91-.23,15.33,1.2,2.75,1.63,9.15,6.24,9.15,13.84,0,7.34-1.46,12-5.07,16.23a.49.49,0,0,1-.62.11.5.5,0,0,1-.23-.6v0a16.36,16.36,0,0,1-3.92,2.75A.44.44,0,0,1,483,131.61Zm2.56-8.66.15,0a.5.5,0,0,1,.35.49,16,16,0,0,1-1.63,6.24,16.06,16.06,0,0,0,3.32-3,.51.51,0,0,1,.59-.15.55.55,0,0,1,.28.3C491,123.3,492,119.13,492,113.1c0-7.09-6.05-11.44-8.66-13-2-1.2-9.08-2.52-14.57-1.1a17.48,17.48,0,0,0-9.65,6.76,25.22,25.22,0,0,0-2.67,7.1,24.8,24.8,0,0,1,2.39-4.36.5.5,0,0,1,.86.51,10.83,10.83,0,0,0-.82,4.82,22.54,22.54,0,0,1,4.3-6.28.5.5,0,0,1,.8.13,30.65,30.65,0,0,0,6.31,8.18,17.2,17.2,0,0,1-.5-6.8.5.5,0,0,1,.34-.39.51.51,0,0,1,.5.12l6,6a10.8,10.8,0,0,1,.35-4.59.51.51,0,0,1,.51-.35.5.5,0,0,1,.46.42,37.08,37.08,0,0,0,2.5,8.62c.11-1.58.47-3.52,1.6-4.14a2.76,2.76,0,0,1,2.51-.06,4.33,4.33,0,0,1,2.36,2.57,6.08,6.08,0,0,1-1.37,4.66,3.05,3.05,0,0,1-1.95.87,7.74,7.74,0,0,1,.24,2.2c.7-.92,1.23-1.77,1.24-1.79A.5.5,0,0,1,485.51,123Z"/><path class="cls-4" d="M465.54,124.67a2.42,2.42,0,0,1-.59-4.76,10.89,10.89,0,0,1,.15-4.34.5.5,0,0,1,1,.24,9.79,9.79,0,0,0,0,4.4.54.54,0,0,1-.09.43.52.52,0,0,1-.4.2,1.42,1.42,0,0,0,0,2.83,1.46,1.46,0,0,0,.76-.22.5.5,0,0,1,.54.84A2.4,2.4,0,0,1,465.54,124.67Z"/><circle class="cls-4" cx="459.69" cy="117.94" r="1.1"/><circle class="cls-4" cx="476.89" cy="118.13" r="1.1"/><path class="cls-10" d="M465.1,126.18a10.52,10.52,0,0,0,8.34,0c.06,2.45-.33,4.46-3.6,4.46S465.47,129,465.1,126.18Z"/><path class="cls-4" d="M469.84,131.17c-4.06,0-4.93-2.63-5.24-4.93a.52.52,0,0,1,.21-.47.49.49,0,0,1,.52,0,10.05,10.05,0,0,0,7.91,0,.49.49,0,0,1,.47,0,.5.5,0,0,1,.23.41c0,1.47-.07,3-1,3.94A4.1,4.1,0,0,1,469.84,131.17ZM465.75,127c.51,2.27,1.71,3.17,4.09,3.17a3.18,3.18,0,0,0,2.36-.73,3.65,3.65,0,0,0,.74-2.49A11.33,11.33,0,0,1,465.75,127Z"/><polygon class="cls-25" points="500.49 167.11 500.49 191.85 517.46 178.57 517.46 156.67 500.49 167.11"/><path class="cls-4" d="M500.49,192.35a.38.38,0,0,1-.21,0,.48.48,0,0,1-.29-.45V167.11a.49.49,0,0,1,.24-.42l17-10.45a.5.5,0,0,1,.5,0,.51.51,0,0,1,.26.44v21.9a.49.49,0,0,1-.19.39l-17,13.29A.5.5,0,0,1,500.49,192.35Zm.5-25v23.44l16-12.51V157.56Z"/><ellipse class="cls-4" cx="500.49" cy="196.33" rx="3.32" ry="4.62"/><path class="cls-4" d="M500.49,201.45c-2.1,0-3.82-2.3-3.82-5.12s1.72-5.12,3.82-5.12,3.82,2.3,3.82,5.12S502.6,201.45,500.49,201.45Zm0-9.24c-1.55,0-2.82,1.85-2.82,4.12s1.27,4.12,2.82,4.12,2.82-1.85,2.82-4.12S502.05,192.21,500.49,192.21Z"/><ellipse class="cls-8" cx="500.49" cy="196.33" rx="1.41" ry="1.82"/><path class="cls-4" d="M500.49,198.65a2.36,2.36,0,1,1,1.92-2.32A2.15,2.15,0,0,1,500.49,198.65Zm0-3.64c-.49,0-.91.61-.91,1.32s.42,1.32.91,1.32.92-.61.92-1.32S501,195,500.49,195Z"/><polygon class="cls-26" points="500.49 191.85 524.85 202.57 542.54 186.73 519.92 177.3 500.49 191.85"/><path class="cls-4" d="M524.85,203.07a.45.45,0,0,1-.2,0l-24.36-10.72a.49.49,0,0,1-.29-.4.51.51,0,0,1,.19-.46l19.43-14.55a.53.53,0,0,1,.5-.06l22.61,9.43a.51.51,0,0,1,.14.84L525.19,203A.54.54,0,0,1,524.85,203.07Zm-23.37-11.33L524.76,202l16.86-15.1-21.62-9Z"/><polygon class="cls-12" points="501.3 191.03 495.49 195.8 519.34 207.44 524.85 202.57 501.3 191.03"/><path class="cls-4" d="M519.34,207.94a.59.59,0,0,1-.22-.05l-23.85-11.64a.49.49,0,0,1-.28-.39.51.51,0,0,1,.18-.45l5.82-4.77a.49.49,0,0,1,.53-.06l23.55,11.55a.48.48,0,0,1,.28.38.5.5,0,0,1-.17.44l-5.51,4.87A.5.5,0,0,1,519.34,207.94Zm-22.93-12.25,22.85,11.16,4.7-4.16-22.59-11.07Z"/><path class="cls-12" d="M500.49,192.18a1.35,1.35,0,0,1-1.43-1.21l-.54-21.3a6.22,6.22,0,0,1,3.14-5.42l9.82-6a1.58,1.58,0,0,1,2,.3,1.12,1.12,0,0,1-.34,1.72l-9.81,6a3.83,3.83,0,0,0-1.94,3.34l.55,21.31a1.34,1.34,0,0,1-1.4,1.26Z"/><path class="cls-4" d="M500.49,192.68a1.84,1.84,0,0,1-1.93-1.69L498,169.68a6.69,6.69,0,0,1,3.38-5.85l9.82-6a2.06,2.06,0,0,1,2.64.4,1.61,1.61,0,0,1,.36,1.29,1.72,1.72,0,0,1-.83,1.18l-9.81,6a3.32,3.32,0,0,0-1.7,2.9l.55,21.3a1.65,1.65,0,0,1-.47,1.18,2,2,0,0,1-1.42.6Zm11.82-34.17a1,1,0,0,0-.57.16l-9.81,6a5.71,5.71,0,0,0-2.91,5l.54,21.31a.86.86,0,0,0,.93.72h0a1,1,0,0,0,.71-.29.68.68,0,0,0,.19-.46l-.55-21.31a4.3,4.3,0,0,1,2.18-3.77l9.81-6a.74.74,0,0,0,.36-.49.62.62,0,0,0-.14-.5A1,1,0,0,0,512.31,158.51Z"/><polygon class="cls-25" points="541.86 147.13 542.34 180.34 517.46 176.28 517.46 147.61 541.86 147.13"/><path class="cls-4" d="M542.34,180.84h-.08l-24.88-4.06a.51.51,0,0,1-.42-.5V147.61a.51.51,0,0,1,.49-.5l24.4-.48a.53.53,0,0,1,.36.14.49.49,0,0,1,.15.36l.48,33.2a.52.52,0,0,1-.17.39A.5.5,0,0,1,542.34,180.84Zm-24.38-5,23.87,3.9-.46-32.11L518,148.1Z"/><path class="cls-5" d="M512.63,194.79c.45,1.43-1.54,3.33-4.44,4.24s-6.46.21-6.91-1.23a2.84,2.84,0,0,1,.71-2.86c.93-.83,2.75-1.17,4.2-1.63C509.1,192.4,512.18,193.35,512.63,194.79Z"/><path class="cls-4" d="M505.41,200c-2.24,0-4.22-.76-4.61-2a3.32,3.32,0,0,1,.86-3.38,8.63,8.63,0,0,1,3.35-1.43l1-.3a8.18,8.18,0,0,1,4.41-.15,3.4,3.4,0,0,1,2.65,1.95h0c.55,1.72-1.55,3.86-4.76,4.87A9.87,9.87,0,0,1,505.41,200Zm3.14-6.49a7.54,7.54,0,0,0-2.21.33c-.34.11-.69.21-1.06.31a8.09,8.09,0,0,0-2.95,1.21,2.36,2.36,0,0,0-.58,2.34c.32,1,3.47,1.79,6.29.91s4.43-2.62,4.11-3.62h0a2.68,2.68,0,0,0-1.94-1.29A7,7,0,0,0,508.55,193.46Z"/><path class="cls-24" d="M514.67,196.65a11.49,11.49,0,0,1-9.8-4.17c.08-3.87-.35-9.89,1.62-13.09,1.6-2.59,6.08-5.41,13.32-8.36l6.54,8-2.64,1.54a46.4,46.4,0,0,0-8.46,4.35C514.82,186.33,514.67,196.65,514.67,196.65Z"/><path class="cls-4" d="M513.94,197.17a11.77,11.77,0,0,1-9.48-4.4.46.46,0,0,1-.09-.3c0-.67,0-1.41,0-2.19,0-3.74,0-8.39,1.68-11.15s6.22-5.57,13.56-8.57a.51.51,0,0,1,.58.15l6.54,8a.55.55,0,0,1,.11.41.51.51,0,0,1-.25.34L524,181a48.66,48.66,0,0,0-8.27,4.21c-.28,1.35-.46,7.49-.52,11.44a.5.5,0,0,1-.47.5Zm.73-.52h0Zm-9.3-4.33a11.1,11.1,0,0,0,8.81,3.84c0-2.2.19-10.08.59-11.38a.46.46,0,0,1,.17-.24,46,46,0,0,1,8.58-4.44l2.08-1.21-5.94-7.26c-6.94,2.86-11.23,5.56-12.74,8s-1.55,7-1.54,10.62C505.38,191,505.38,191.68,505.37,192.32Z"/><path class="cls-5" d="M521.58,198.6c.45,1.44-1.54,3.34-4.44,4.25s-6.46.2-6.91-1.23a2.85,2.85,0,0,1,.72-2.86c.92-.83,2.74-1.17,4.2-1.63C518.05,196.22,521.13,197.17,521.58,198.6Z"/><path class="cls-4" d="M514.37,203.77c-2.25,0-4.23-.76-4.62-2a3.32,3.32,0,0,1,.86-3.38A8.77,8.77,0,0,1,514,197c.35-.09.7-.19,1-.3a8.38,8.38,0,0,1,4.41-.15,3.48,3.48,0,0,1,2.65,1.95,2.84,2.84,0,0,1-1.1,2.83,9.46,9.46,0,0,1-3.67,2.05A9.8,9.8,0,0,1,514.37,203.77Zm3.14-6.5a7.45,7.45,0,0,0-2.21.34l-1.06.31a8.07,8.07,0,0,0-3,1.21,2.34,2.34,0,0,0-.57,2.34c.31,1,3.47,1.79,6.28.9a8.38,8.38,0,0,0,3.28-1.81c.69-.65,1-1.31.83-1.81a2.66,2.66,0,0,0-1.94-1.28A6.84,6.84,0,0,0,517.51,197.27Z"/><path class="cls-3" d="M500.07,169.58a2.58,2.58,0,0,1-1.53-4.65,135.86,135.86,0,0,1,12.26-8.06c5.15-2.82,8.14-4.18,8.27-4.23a2.57,2.57,0,1,1,2.11,4.69s-2.95,1.34-7.9,4.06a135.41,135.41,0,0,0-11.69,7.69A2.61,2.61,0,0,1,500.07,169.58Z"/><path class="cls-4" d="M500.07,170.08a3.08,3.08,0,0,1-1.83-5.55,136.31,136.31,0,0,1,12.32-8.09c5.2-2.86,8.18-4.21,8.3-4.26a3.08,3.08,0,1,1,2.53,5.61s-2.92,1.32-7.87,4a133.24,133.24,0,0,0-11.63,7.65A3.05,3.05,0,0,1,500.07,170.08Zm20.05-17.17a2.16,2.16,0,0,0-.85.18c-.12.06-3.06,1.38-8.23,4.22a136,136,0,0,0-12.21,8,2.08,2.08,0,0,0-.44,2.9,2.12,2.12,0,0,0,2.91.44A134.32,134.32,0,0,1,513,161c5-2.73,7.91-4.06,7.94-4.07a2.08,2.08,0,0,0-.86-4Z"/><path class="cls-24" d="M522.75,200.39a11.48,11.48,0,0,1-9.81-4.16c.09-3.87-.34-9.89,1.63-13.09,1.59-2.6,6.08-5.41,13.32-8.37l3.89,9.54-1.95-4.77,1.95,4.77a45.85,45.85,0,0,0-8.45,4.36C522.89,190.08,522.75,200.39,522.75,200.39Z"/><path class="cls-4" d="M522,200.91a11.85,11.85,0,0,1-9.49-4.39.55.55,0,0,1-.09-.3c0-.68,0-1.41,0-2.19,0-3.74,0-8.39,1.68-11.15s6.22-5.58,13.56-8.57a.5.5,0,0,1,.65.27l3.9,9.54a.51.51,0,0,1-.28.66,47.55,47.55,0,0,0-8.2,4.18c-.28,1.35-.47,7.49-.52,11.44a.5.5,0,0,1-.48.49C522.52,200.91,522.27,200.91,522,200.91Zm.73-.52h0Zm-9.3-4.33a11,11,0,0,0,8.8,3.85c0-2.21.2-10.08.6-11.39a.56.56,0,0,1,.16-.24,45.08,45.08,0,0,1,8.12-4.24l-1.76-4.31h0l-1.76-4.3c-6.86,2.85-11.11,5.53-12.62,8s-1.54,7-1.53,10.63C513.46,194.74,513.46,195.43,513.45,196.06Z"/><path class="cls-23" d="M525.47,151.73c-3.11-2.4-9.07,1-12.78,4a13.69,13.69,0,0,0,6.61,5.92S528.58,154.13,525.47,151.73Z"/><path class="cls-4" d="M519.3,162.16a.57.57,0,0,1-.18,0,14.16,14.16,0,0,1-6.87-6.16.49.49,0,0,1,.12-.61c4.16-3.42,10.17-6.53,13.41-4h0a2.09,2.09,0,0,1,.83,1.67c0,3.24-6.28,8.45-7,9A.51.51,0,0,1,519.3,162.16Zm-6-6.29a13.32,13.32,0,0,0,5.89,5.21c2-1.66,6.41-5.81,6.39-8.05a1.1,1.1,0,0,0-.44-.9h0C522.64,150.17,517.46,152.56,513.33,155.87Z"/><path class="cls-5" d="M525.47,151.73c-7.15.89-9.46,11.07-9.46,21.28,6.62,7,11.8,8.31,17.94,8.31C535.71,165.62,532.62,150.84,525.47,151.73Z"/><path class="cls-4" d="M534,181.82c-6.33,0-11.61-1.42-18.3-8.46a.52.52,0,0,1-.14-.35c0-13,3.61-21,9.9-21.77h0a5.31,5.31,0,0,1,4.52,1.65c4.15,4.1,6,15.55,4.52,28.48A.51.51,0,0,1,534,181.82Zm-17.44-9c6.22,6.5,11.16,7.94,17,8,1.31-12.27-.44-23.42-4.28-27.2a4.29,4.29,0,0,0-3.69-1.38h0C517.48,153.23,516.53,166.8,516.51,172.81Zm9-21.08h0Z"/><polygon class="cls-25" points="525.47 176.14 525.47 202.1 542.44 186.73 541.96 164.41 525.47 176.14"/><path class="cls-4" d="M525.47,202.6a.46.46,0,0,1-.2,0,.49.49,0,0,1-.3-.45v-26a.52.52,0,0,1,.21-.41L541.67,164a.47.47,0,0,1,.51,0,.48.48,0,0,1,.28.43l.48,22.33a.52.52,0,0,1-.17.39l-17,15.36A.55.55,0,0,1,525.47,202.6Zm.5-26.2V201l16-14.45-.45-21.16Z"/><path class="cls-12" d="M525.47,205.13a1.43,1.43,0,0,1-1.43-1.4l-.55-24.64a7.48,7.48,0,0,1,3.15-6.26l9.82-7a1.43,1.43,0,0,1,1.65,2.34l-9.81,6.95a4.62,4.62,0,0,0-1.95,3.86l.55,24.63a1.44,1.44,0,0,1-1.4,1.47Z"/><path class="cls-4" d="M525.47,205.63a1.94,1.94,0,0,1-1.93-1.89L523,179.1a7.94,7.94,0,0,1,3.36-6.67l9.82-7a1.89,1.89,0,0,1,1.44-.33,1.93,1.93,0,0,1,.79,3.48l-9.82,7a4.1,4.1,0,0,0-1.73,3.44l.55,24.63a1.94,1.94,0,0,1-1.89,2Zm11.81-39.51a1,1,0,0,0-.54.17l-9.81,7a7,7,0,0,0-2.94,5.84l.55,24.64a.94.94,0,0,0,.93.91v0a.94.94,0,0,0,.92-.95L525.85,179a5.11,5.11,0,0,1,2.16-4.28l9.81-6.95a.93.93,0,0,0,.22-1.3,1,1,0,0,0-.6-.38Z"/><ellipse class="cls-4" cx="525.47" cy="209.92" rx="3.32" ry="5.34"/><path class="cls-4" d="M525.47,215.77c-2.14,0-3.82-2.57-3.82-5.85s1.68-5.84,3.82-5.84,3.82,2.57,3.82,5.84S527.61,215.77,525.47,215.77Zm0-10.69c-1.53,0-2.82,2.22-2.82,4.84s1.29,4.85,2.82,4.85,2.82-2.22,2.82-4.85S527,205.08,525.47,205.08Z"/><ellipse class="cls-8" cx="525.47" cy="209.92" rx="1.41" ry="2.1"/><path class="cls-4" d="M525.47,212.52c-1.07,0-1.91-1.14-1.91-2.6s.84-2.6,1.91-2.6,1.91,1.14,1.91,2.6S526.54,212.52,525.47,212.52Zm0-4.2c-.43,0-.91.66-.91,1.6s.48,1.6.91,1.6.91-.65.91-1.6S525.9,208.32,525.47,208.32Z"/><ellipse class="cls-4" cx="541.32" cy="186.73" rx="9.02" ry="17.27"/><path class="cls-4" d="M541.32,204.51c-5.25,0-9.52-8-9.52-17.78S536.07,169,541.32,169s9.52,8,9.52,17.77S546.57,204.51,541.32,204.51Zm0-34.55c-4.7,0-8.52,7.52-8.52,16.77s3.82,16.78,8.52,16.78,8.52-7.53,8.52-16.78S546,170,541.32,170Z"/><path class="cls-27" d="M500.83,129c3.55-3.71,7.76-6.48,11.79-7.15,3.1-.53,6.47-.18,8.58,1.44,4.44,3.42-4.86,6.79-9.68,8S502.57,130.84,500.83,129Z"/><path class="cls-4" d="M508.25,132.24a11.07,11.07,0,0,1-7.78-2.87.49.49,0,0,1,0-.69c3.87-4.05,8.16-6.65,12.06-7.31,3.58-.6,6.94,0,9,1.54a2.7,2.7,0,0,1,1.32,2.71c-.69,3.36-9.44,5.75-11.18,6.19A13.64,13.64,0,0,1,508.25,132.24ZM501.54,129a11.14,11.14,0,0,0,9.85,1.83c4.74-1.2,10-3.42,10.45-5.42,0-.21.18-.85-1-1.71-1.82-1.41-4.88-1.91-8.19-1.35C509.12,123,505.17,125.32,501.54,129Z"/><ellipse class="cls-11" cx="541.33" cy="187.15" rx="4.55" ry="10.93"/><path class="cls-4" d="M541.33,198.57c-2.83,0-5.05-5-5.05-11.42s2.22-11.43,5.05-11.43,5,5,5,11.43S544.16,198.57,541.33,198.57Zm0-21.85c-2,0-4.05,4.19-4.05,10.43s2.09,10.42,4.05,10.42,4-4.19,4-10.42S543.28,176.72,541.33,176.72Z"/><path class="cls-12" d="M541.32,198.61c-3.15,0-5.61-5.22-5.61-11.88s2.46-11.87,5.61-11.87,5.61,5.21,5.61,11.87S544.47,198.61,541.32,198.61Zm0-22.15c-2.3,0-4.25,4.7-4.25,10.27S539,197,541.32,197s4.25-4.71,4.25-10.28S543.62,176.46,541.32,176.46Z"/><path class="cls-4" d="M541.32,199.11c-3.49,0-6.11-5.32-6.11-12.38s2.62-12.37,6.11-12.37,6.11,5.32,6.11,12.37S544.81,199.11,541.32,199.11Zm0-23.75c-2.82,0-5.11,5.1-5.11,11.37s2.29,11.38,5.11,11.38,5.11-5.1,5.11-11.38S544.14,175.36,541.32,175.36Zm0,22.15c-2.62,0-4.75-4.84-4.75-10.78S538.7,176,541.32,176s4.75,4.83,4.75,10.77S543.94,197.51,541.32,197.51Zm0-20.55c-1.77,0-3.75,4.18-3.75,9.77s2,9.78,3.75,9.78,3.75-4.18,3.75-9.78S543.09,177,541.32,177Z"/><ellipse class="cls-8" cx="541.32" cy="186.73" rx="1.22" ry="2.26"/><path class="cls-4" d="M541.32,189.49c-1,0-1.72-1.18-1.72-2.76s.74-2.76,1.72-2.76,1.72,1.19,1.72,2.76S542.3,189.49,541.32,189.49Zm0-4.52c-.29,0-.72.7-.72,1.76s.43,1.76.72,1.76.72-.7.72-1.76S541.61,185,541.32,185Z"/><path class="cls-4" d="M538.25,165.38a.5.5,0,0,1-.5-.48l-.38-11.5a.5.5,0,0,1,.48-.52.48.48,0,0,1,.52.49l.38,11.5a.5.5,0,0,1-.48.51Z"/><path class="cls-13" d="M539.87,150.43a2,2,0,0,1-2-2v-2.2a5,5,0,0,1,3.29-4.69l6.29-2.25a2,2,0,1,1,1.35,3.77l-6.28,2.26a1,1,0,0,0-.64.91v2.2A2,2,0,0,1,539.87,150.43Z"/><path class="cls-4" d="M539.87,150.93a2.5,2.5,0,0,1-2.5-2.5v-2.2a5.5,5.5,0,0,1,3.62-5.16l6.29-2.25a2.51,2.51,0,0,1,1.69,4.72l-6.29,2.25a.46.46,0,0,0-.3.44v2.2A2.51,2.51,0,0,1,539.87,150.93Zm8.25-11.26a1.52,1.52,0,0,0-.51.09L541.33,142a4.47,4.47,0,0,0-3,4.21v2.2a1.51,1.51,0,0,0,3,0v-2.2a1.47,1.47,0,0,1,1-1.38l6.28-2.26a1.47,1.47,0,0,0,.85-.77,1.5,1.5,0,0,0-1.36-2.15Z"/><path class="cls-3" d="M525.47,178.72a2.58,2.58,0,0,1-2-4.26c.2-.23,4.85-5.56,9.82-7.88l.07,0c.4-.8-1-4.47-3.21-7.58a2.58,2.58,0,1,1,4.19-3c.87,1.22,5.14,7.5,4,11.87a5.09,5.09,0,0,1-2.87,3.41c-3.31,1.55-7,5.28-8.1,6.59A2.57,2.57,0,0,1,525.47,178.72Z"/><path class="cls-4" d="M525.47,179.22a3.08,3.08,0,0,1-2.33-5.09c.2-.23,4.81-5.53,9.85-7.94,0-.78-1-3.86-3.2-6.94a3.13,3.13,0,0,1-.53-2.3,3.1,3.1,0,0,1,3.54-2.53,3.09,3.09,0,0,1,2,1.25c.89,1.25,5.28,7.7,4.07,12.29a5.62,5.62,0,0,1-3.13,3.74c-3.24,1.51-6.83,5.17-7.94,6.46A3.11,3.11,0,0,1,525.47,179.22Zm6.82-23.84a2.09,2.09,0,0,0-1.2.39,2.05,2.05,0,0,0-.84,1.35,2.1,2.1,0,0,0,.36,1.55c2,2.83,3.85,6.9,3.25,8.09l-.18.2-.12.07c-4.9,2.28-9.47,7.53-9.66,7.75a2.08,2.08,0,0,0,.21,2.93,2.14,2.14,0,0,0,2.93-.21c1.15-1.33,4.88-5.13,8.27-6.71a4.59,4.59,0,0,0,2.59-3.09c1.09-4.15-3.07-10.27-3.91-11.45a2.1,2.1,0,0,0-1.7-.87Z"/><path class="cls-23" d="M529.7,153.38c-2.53,1.6,2.08,9.71,2.08,9.71a5.79,5.79,0,0,0,6.09-1.91C535.18,155.65,532.24,151.79,529.7,153.38Z"/><path class="cls-4" d="M533.42,163.8a6.91,6.91,0,0,1-1.79-.23.49.49,0,0,1-.28-.23c-.5-.88-4.77-8.58-1.91-10.38h0a2.7,2.7,0,0,1,2.26-.32c2,.57,4.18,3.3,6.62,8.32a.51.51,0,0,1-.06.53A6,6,0,0,1,533.42,163.8Zm-1.3-1.14a5.22,5.22,0,0,0,5.16-1.55c-2.76-5.61-4.71-7.18-5.86-7.51a1.7,1.7,0,0,0-1.45.21h0C528.53,154.71,530.33,159.46,532.12,162.66Z"/><path class="cls-3" d="M537.66,146.39a4.77,4.77,0,0,0,3.29-5,2.6,2.6,0,0,0-2.53-2.37c-1.19,0-1.8.47-2,1.32-1.3-.74-7.78-5.71-10.88-12.16-4,4.09-13,8.3-15.65,9.5a24.08,24.08,0,0,0-.14,2.66c0,4.46.47,10,4.38,12.45a21.31,21.31,0,0,0,13.64,2.58,25.47,25.47,0,0,0,9-3A20.62,20.62,0,0,0,537.66,146.39Z"/><path class="cls-4" d="M524.79,156.06a21.34,21.34,0,0,1-10.93-2.87c-4.09-2.55-4.61-8.22-4.61-12.87,0-.89.05-1.81.14-2.71l0-.29.26-.12c2.63-1.18,11.53-5.36,15.51-9.39l.49-.5.31.64c2.71,5.61,8.13,10.22,10.19,11.62a2.35,2.35,0,0,1,2.24-1.07,3.13,3.13,0,0,1,3,2.79,5.29,5.29,0,0,1-3.27,5.43,21.86,21.86,0,0,1-.94,5.8l0,.19-.18.11a25.55,25.55,0,0,1-9.16,3A20.7,20.7,0,0,1,524.79,156.06ZM510.36,138c-.07.78-.11,1.56-.11,2.33,0,4.39.47,9.73,4.14,12a20.76,20.76,0,0,0,13.31,2.51,24.76,24.76,0,0,0,8.63-2.79,19.52,19.52,0,0,0,.83-5.62l0-.39.38-.13a4.28,4.28,0,0,0,3-4.47,2.12,2.12,0,0,0-2-1.95c-1.13,0-1.4.47-1.51.94l-.16.64-.57-.33A35.23,35.23,0,0,1,525.4,129C521.25,132.86,513.2,136.7,510.36,138Z"/><path class="cls-27" d="M543.91,140.3c0-8.65-7.24-17.86-16.48-17.86-4,0-9.19,1.21-12.26,3.86-3.34,2.88-4.85,7.18-5.28,11.36,2.65-1.2,11.61-5.41,15.65-9.5,3.1,6.45,9.58,11.42,10.88,12.16.2-.85.81-1.32,2-1.32a2.6,2.6,0,0,1,2.53,2.37,4.77,4.77,0,0,1-3.29,5,20.62,20.62,0,0,1-.9,6A13.45,13.45,0,0,0,543.91,140.3Z"/><path class="cls-4" d="M536,153.43l.32-1.18a19.9,19.9,0,0,0,.88-5.81l0-.39.38-.13a4.28,4.28,0,0,0,3-4.47,2.12,2.12,0,0,0-2-1.95c-1.13,0-1.4.47-1.51.94l-.16.64-.57-.33A35.23,35.23,0,0,1,525.4,129c-4.29,4-12.74,8-15.31,9.11l-.79.36.09-.86c.36-3.5,1.6-8.37,5.45-11.69,3.42-2.94,8.92-4,12.59-4,9.72,0,17,9.69,17,18.36a13.93,13.93,0,0,1-7.4,12.52Zm2.22-6.71a18.41,18.41,0,0,1-.63,4.57,12.78,12.78,0,0,0,5.86-11c0-8.2-6.83-17.36-16-17.36-3.78,0-8.93,1.16-11.94,3.74-3.29,2.84-4.54,6.93-5,10.15,3.32-1.53,11.06-5.34,14.7-9l.49-.5.31.64c2.71,5.61,8.13,10.22,10.19,11.62a2.35,2.35,0,0,1,2.24-1.07,3.13,3.13,0,0,1,3,2.79A5.29,5.29,0,0,1,538.18,146.72Z"/><path class="cls-4" d="M517.45,146.47a2.41,2.41,0,0,1-.6-4.75,10.84,10.84,0,0,1,.16-4.32.5.5,0,0,1,1,.24,9.93,9.93,0,0,0-.05,4.38.51.51,0,0,1-.48.63,1.41,1.41,0,1,0,.75,2.6.5.5,0,0,1,.54.84A2.37,2.37,0,0,1,517.45,146.47Z"/><circle class="cls-4" cx="512.62" cy="141.74" r="1.1"/><circle class="cls-4" cx="529.74" cy="141.93" r="1.1"/><ellipse class="cls-10" cx="520.07" cy="150.48" rx="1.44" ry="2.26" transform="matrix(0.95, -0.31, 0.31, 0.95, -21.05, 168.04)"/><path class="cls-4" d="M520.47,153.18a2.71,2.71,0,0,1-2.25-2.1c-.48-1.47,0-2.89,1-3.23s2.22.55,2.7,2h0a3.47,3.47,0,0,1,.1,1.93,1.76,1.76,0,0,1-1.1,1.3A1.33,1.33,0,0,1,520.47,153.18Zm-.8-4.4-.14,0c-.43.14-.68,1-.36,2s1,1.53,1.45,1.39a.8.8,0,0,0,.43-.6,2.51,2.51,0,0,0-.08-1.37C520.68,149.3,520.09,148.78,519.67,148.78Z"/><path class="cls-27" d="M552.83,138c0-5.34-2.25-9.32-5.53-11.73-2.54-1.87-8.68-3.34-10.39-.28-2.72,4.9,1.18,5.41,5.63,7.66S550.07,137.41,552.83,138Z"/><path class="cls-4" d="M552.83,138.49h-.1c-2.77-.58-5.76-2-10.41-4.4-.74-.37-1.47-.7-2.15-1-2.22-1-4-1.78-4.51-3.38-.35-1.07-.09-2.33.82-4a3.88,3.88,0,0,1,2.73-1.87,12,12,0,0,1,8.38,2A14.56,14.56,0,0,1,553.33,138a.48.48,0,0,1-.18.39A.52.52,0,0,1,552.83,138.49Zm-12.05-13.78a6.53,6.53,0,0,0-1.36.14,2.93,2.93,0,0,0-2.07,1.37c-.75,1.36-1,2.39-.74,3.17.39,1.17,2,1.88,4,2.78.69.31,1.43.64,2.19,1,4.23,2.14,7.06,3.53,9.55,4.17a13.44,13.44,0,0,0-5.32-10.7A11.67,11.67,0,0,0,540.78,124.71Z"/><line class="cls-13" x1="322.31" y1="589.48" x2="335.7" y2="600.47"/><path class="cls-4" d="M335.7,601a.54.54,0,0,1-.32-.11l-13.39-11a.5.5,0,0,1,.63-.78l13.4,11a.5.5,0,0,1-.32.89Z"/><line class="cls-13" x1="311.46" y1="587.56" x2="296.02" y2="603.13"/><path class="cls-4" d="M296,603.63a.5.5,0,0,1-.36-.14.51.51,0,0,1,0-.71l15.45-15.57a.5.5,0,0,1,.71,0,.51.51,0,0,1,0,.71l-15.45,15.57A.54.54,0,0,1,296,603.63Z"/><line class="cls-13" x1="37.22" y1="395.12" x2="20.88" y2="409.13"/><path class="cls-4" d="M20.88,409.63a.46.46,0,0,1-.38-.18.49.49,0,0,1,.05-.7l16.35-14a.49.49,0,0,1,.7.05.51.51,0,0,1-.05.71l-16.35,14A.49.49,0,0,1,20.88,409.63Z"/><line class="cls-13" x1="687.5" y1="219.79" x2="705.11" y2="230.03"/><path class="cls-4" d="M705.11,230.53a.48.48,0,0,1-.26-.07l-17.6-10.24a.5.5,0,0,1,.5-.86l17.61,10.24a.5.5,0,0,1-.25.93Z"/><line class="cls-13" x1="27.16" y1="406.97" x2="297.69" y2="594.98"/><path class="cls-4" d="M296.21,594.44a.52.52,0,0,1-.29-.09L28.36,408.42a.51.51,0,0,1-.12-.7.49.49,0,0,1,.69-.12L296.49,593.53a.5.5,0,0,1-.28.91Z"/><path class="cls-4" d="M27.16,407a9,9,0,0,1,1.29,2.64l.39-1.47,1.24-.88A8.85,8.85,0,0,1,27.16,407Z"/><path class="cls-4" d="M297.69,595a9.11,9.11,0,0,0-2.92-.3l1.24-.87.39-1.47A9.11,9.11,0,0,0,297.69,595Z"/><path d="M162.78,490.92a2.66,2.66,0,0,1,2.32.39c1.29.89,1.55,2.51.45,4.08a3.18,3.18,0,0,1-4.49,1.05c-1.69-1.18-1.72-3.27-.34-5.25a6.37,6.37,0,0,1,3.8-2.72,5.41,5.41,0,0,1,4.07,1l-.67,1a3.72,3.72,0,0,0-5.16.46Zm1.49,3.69c.72-1,.67-2.11-.16-2.69a1.8,1.8,0,0,0-2.38.41c-.85,1.27-1,2.54,0,3.19S163.53,495.66,164.27,494.61Z"/><path d="M172.84,504.48l-1.21-.84,2.33-3.35c.68-1,.81-1.84.07-2.36a1.51,1.51,0,0,0-2.08.57l-2.52,3.6-1.21-.84,2.46-3.52c.57-.82.7-1.66,0-2.16a1.58,1.58,0,0,0-2.17.6L166,499.73l-1.21-.85,2.93-4.2c.46-.66.78-1.16,1.11-1.67l1.06.74-.53.9,0,0a2.34,2.34,0,0,1,2.39.21,1.93,1.93,0,0,1,.81,2.15l0,0a2.45,2.45,0,0,1,2.55.18c.87.61,1.41,1.87.12,3.71Z"/><path d="M498.87,425l-6.15-5.68,0,0-.44,1.82-1-.5.63-2.41.86-.94,7.15,6.62Z"/><path d="M506,417.33l-4,4.35-.68-.62-.09-1.48c-.15-2.94-.37-4.7-1.44-5.69a1.59,1.59,0,0,0-2.45,0,3.14,3.14,0,0,0-.71,1.9l-1.1-.4a4.24,4.24,0,0,1,1.12-2.54,2.67,2.67,0,0,1,4-.19c1.31,1.21,1.58,3.11,1.68,5.51l.06,1.15h0l2.66-2.88Z"/><path d="M506.37,415.63a1,1,0,0,1-.1-1.41,1,1,0,0,1,1.5,1.4A.94.94,0,0,1,506.37,415.63Z"/><path d="M505.7,403.3l.91.84-2.32,2.51,1.49,1.81a6.16,6.16,0,0,1,.41-.5,3,3,0,0,1,4.46-.37,3.34,3.34,0,0,1,0,4.88,4.7,4.7,0,0,1-1.95,1.3l-.61-1a4.08,4.08,0,0,0,1.65-1.05,2,2,0,0,0-.07-2.9c-.92-.85-2.08-.76-3.26.51a7.61,7.61,0,0,0-.74.92l-3-3.65Z"/><path d="M520.88,401.23l-1,1.08-3-2.76c-.88-.81-1.72-1.06-2.33-.4a1.51,1.51,0,0,0,.27,2.14l3.23,3-1,1.08-3.16-2.92c-.73-.67-1.54-.91-2.13-.28a1.58,1.58,0,0,0,.3,2.24l3.17,2.93-1,1.08-3.76-3.48c-.59-.54-1-.92-1.51-1.32l.88-.95.82.65,0,0a2.32,2.32,0,0,1,.53-2.35,1.92,1.92,0,0,1,2.24-.5l0,0a2.45,2.45,0,0,1,.53-2.5c.72-.78,2-1.15,3.7.38Z"/><line class="cls-13" x1="698.28" y1="230.03" x2="335.7" y2="595.35"/><path class="cls-4" d="M337,594.56a.49.49,0,0,1-.35-.14.5.5,0,0,1,0-.71L696.65,231a.5.5,0,0,1,.71.71l-360,362.75A.54.54,0,0,1,337,594.56Z"/><path class="cls-4" d="M698.28,230a9.37,9.37,0,0,1-2.82.82l1.38.63.65,1.38A8.82,8.82,0,0,1,698.28,230Z"/><path class="cls-4" d="M335.7,595.35a8.82,8.82,0,0,0,.79-2.83l.65,1.38,1.38.63A9.28,9.28,0,0,0,335.7,595.35Z"/><polygon class="cls-4" points="144.86 204.57 219.27 141.28 218.48 185.45 145.43 246.91 144.86 204.57"/><path class="cls-8" d="M145.4,250.11a2,2,0,0,1-.83-.18,2,2,0,0,1-1.17-1.79l-.57-42.33a2,2,0,0,1,.7-1.55L218,141a2,2,0,0,1,3.29,1.56l-.79,44.18a2,2,0,0,1-.71,1.49l-73.05,61.45A2,2,0,0,1,145.4,250.11Zm1.94-6.25,69.13-58.15.69-38.83-70.32,59.81Z"/><path class="cls-4" d="M219.24,141a1.43,1.43,0,0,1,.64.15,1.5,1.5,0,0,1,.86,1.38L220,186.69a1.48,1.48,0,0,1-.53,1.12l-73,61.45a1.52,1.52,0,0,1-1,.35,1.5,1.5,0,0,1-.62-.13,1.52,1.52,0,0,1-.88-1.35l-.57-42.33a1.45,1.45,0,0,1,.53-1.16l74.41-63.3a1.53,1.53,0,0,1,1-.36m-1.56,4.8-71.34,60.69.52,38.46L217,186l.71-40.17m1.56-5.8h0a2.53,2.53,0,0,0-1.62.6l-74.41,63.3a2.48,2.48,0,0,0-.88,1.93l.57,42.34a2.5,2.5,0,0,0,1.46,2.23,2.35,2.35,0,0,0,1,.23A2.5,2.5,0,0,0,147,250l73.05-61.45a2.45,2.45,0,0,0,.89-1.87l.79-44.17a2.5,2.5,0,0,0-1.43-2.31,2.61,2.61,0,0,0-1.07-.24Zm-71.9,66.94L216.64,148l-.67,37.5L147.83,242.8l-.49-35.88Z"/><path class="cls-28" d="M231,200.52l-6.18-4.26a2.68,2.68,0,0,0,.13-.75V187h0l.57-45.74a10.17,10.17,0,0,0-16.71-7.92l-59.59,50.11a30.14,30.14,0,0,0-10.78,23.45l.43,55-4.81-3.32a2.5,2.5,0,1,0-2.84,4.12l16.16,11.15a2.48,2.48,0,0,0,1.42.44,2.49,2.49,0,0,0,1.42-4.55l-6.35-4.45,0-9L215.62,196l12.55,8.67a2.48,2.48,0,0,0,1.42.44,2.5,2.5,0,0,0,1.42-4.56Zm-11-7.63-.37-.25.37-.31Zm0-7.11-76.12,64-.4-42.95a25.2,25.2,0,0,1,9-19.58L212,137.16a5.17,5.17,0,0,1,8.49,4Z"/><line class="cls-28" x1="219.59" y1="192.64" x2="215.62" y2="195.97"/><line class="cls-28" x1="219.96" y1="192.89" x2="219.96" y2="195.3"/><line class="cls-28" x1="138.88" y1="261.87" x2="138.88" y2="264.15"/><path class="cls-29" d="M168.71,211a.87.87,0,0,1,.56.86l.1,5.67a4.59,4.59,0,0,1-.43,1.65l-1,2.13c-.24.5-.67.84-1,.77l-.92-.23a1,1,0,0,1-.54-.89l-.09-5.6a4.41,4.41,0,0,1,.42-1.66l1-2.06c.24-.49.68-.85,1-.8Z"/><path class="cls-30" d="M163,204.6a.87.87,0,0,1,.57.85l.13,5.68a4.61,4.61,0,0,1-.42,1.66l-1,2.13c-.23.5-.67.84-1,.77l-.92-.23a.93.93,0,0,1-.54-.89l-.13-5.62a4.37,4.37,0,0,1,.42-1.65l1-2.07c.24-.49.69-.85,1-.8Z"/><path class="cls-31" d="M168.53,199.48a.87.87,0,0,1,.56.86l.13,5.68a4.37,4.37,0,0,1-.42,1.65l-1,2.14c-.24.49-.67.83-1,.76l-.93-.23a.93.93,0,0,1-.54-.89l-.13-5.61a4.41,4.41,0,0,1,.42-1.66l1-2.06c.25-.5.69-.86,1-.8Z"/><path class="cls-32" d="M176.24,216a5.55,5.55,0,0,1-1.12,1.52l-5,4.5a1.71,1.71,0,0,1-1.22.5l-.9-.2c-.3-.06-.34-.52-.09-1l1.08-2.19a6.14,6.14,0,0,1,1.13-1.52l4.93-4.44a1.64,1.64,0,0,1,1.22-.48l.86.22c.29.08.33.55.09,1Z"/><path class="cls-33" d="M178.92,201.81a.86.86,0,0,1,.56.85l.09,5.67a4.17,4.17,0,0,1-.43,1.65l-1,2.13c-.24.5-.67.84-1,.77l-.93-.24a.93.93,0,0,1-.54-.89l-.09-5.59a4.47,4.47,0,0,1,.44-1.66l1-2.06c.24-.49.69-.85,1-.79Z"/><path class="cls-34" d="M178.69,190.47a.87.87,0,0,1,.57.86l.12,5.67a4.41,4.41,0,0,1-.42,1.66l-1,2.13c-.24.49-.67.83-1,.76l-.93-.24a.93.93,0,0,1-.54-.89l-.12-5.6a4.26,4.26,0,0,1,.43-1.66l1-2.06c.25-.49.69-.85,1-.8Z"/><path class="cls-35" d="M175.83,193a5.52,5.52,0,0,1-1.11,1.52l-5,4.5a1.78,1.78,0,0,1-1.23.5l-.91-.21c-.3-.06-.35-.52-.11-1l1.07-2.19a6,6,0,0,1,1.13-1.52l5-4.44a1.7,1.7,0,0,1,1.23-.48l.87.23c.29.08.34.55.11,1Z"/><path class="cls-36" d="M153.09,225.14a.86.86,0,0,1,.56.85l.1,5.68a4.37,4.37,0,0,1-.42,1.65l-1,2.14c-.24.49-.66.84-.95.76l-.91-.23a.92.92,0,0,1-.54-.88l-.11-5.61a4.37,4.37,0,0,1,.42-1.65l1-2.07c.24-.5.68-.86,1-.8Z"/><path class="cls-37" d="M152.88,213.64a.88.88,0,0,1,.57.86l.13,5.68a4.63,4.63,0,0,1-.41,1.66l-1,2.13c-.24.5-.67.84-1,.77l-.91-.23a1,1,0,0,1-.55-.89L149.6,218a4.34,4.34,0,0,1,.41-1.65l1-2.07c.24-.5.68-.86,1-.8Z"/><path class="cls-38" d="M160.58,230.13a6,6,0,0,1-1.11,1.52l-5,4.52a1.68,1.68,0,0,1-1.21.5l-.89-.2c-.29-.06-.33-.52-.09-1l1.06-2.2a6.2,6.2,0,0,1,1.13-1.52l4.89-4.46a1.62,1.62,0,0,1,1.21-.48l.85.22c.29.07.33.54.1,1Z"/><path class="cls-39" d="M163.21,215.94a.87.87,0,0,1,.56.86l.1,5.67a4.59,4.59,0,0,1-.43,1.65l-1,2.14c-.24.49-.67.84-1,.76l-.92-.23a.93.93,0,0,1-.54-.89l-.1-5.6a4.4,4.4,0,0,1,.43-1.65l1-2.07c.24-.49.68-.85,1-.8Z"/><path class="cls-40" d="M160.13,207.17A6,6,0,0,1,159,208.7l-5,4.5a1.7,1.7,0,0,1-1.22.51l-.9-.21c-.3-.06-.34-.52-.11-1l1.06-2.19a5.81,5.81,0,0,1,1.12-1.53l4.91-4.45a1.61,1.61,0,0,1,1.21-.48l.87.22c.29.08.34.55.11,1Z"/><path class="cls-41" d="M197.48,185.33a.88.88,0,0,1,.56.86l.08,5.66a4.38,4.38,0,0,1-.44,1.65l-1.05,2.13c-.25.49-.69.83-1,.76l-.93-.24a.93.93,0,0,1-.54-.89l-.08-5.59a4.2,4.2,0,0,1,.44-1.65l1-2.06c.25-.49.7-.85,1-.79Z"/><path class="cls-42" d="M203.05,180.43a.88.88,0,0,1,.57.86l.07,5.66a4.47,4.47,0,0,1-.44,1.65l-1.06,2.12c-.24.49-.68.83-1,.76l-.93-.24a.91.91,0,0,1-.54-.89l-.08-5.59a4.62,4.62,0,0,1,.44-1.65l1-2.06c.25-.49.71-.84,1-.79Z"/><path class="cls-43" d="M202.85,169a.87.87,0,0,1,.57.86l.11,5.67a4.38,4.38,0,0,1-.44,1.65L202,179.31c-.24.49-.69.83-1,.76l-.94-.24a1,1,0,0,1-.55-.89l-.1-5.61a4.44,4.44,0,0,1,.43-1.65l1-2.05c.24-.5.7-.85,1-.8Z"/><path class="cls-44" d="M197.27,173.86a.87.87,0,0,1,.57.86l.11,5.67a4.54,4.54,0,0,1-.43,1.65l-1.05,2.13c-.25.49-.69.83-1,.76l-.94-.24a1,1,0,0,1-.55-.89l-.1-5.6a4.26,4.26,0,0,1,.43-1.66l1-2c.25-.5.7-.85,1-.8Z"/><path class="cls-45" d="M203.23,188.62a5.72,5.72,0,0,1,1.14-1.51l5.09-4.47a1.76,1.76,0,0,1,1.25-.49l.91.21c.3.06.34.52.09,1l-1.11,2.18a6,6,0,0,1-1.16,1.51l-5,4.41a1.66,1.66,0,0,1-1.23.48l-.87-.23c-.29-.07-.33-.54-.09-1Z"/><path class="cls-46" d="M202.86,165.83a5.53,5.53,0,0,1,1.13-1.51l5.11-4.47a1.81,1.81,0,0,1,1.26-.49l.92.21c.31.07.35.53.1,1l-1.1,2.19a6,6,0,0,1-1.16,1.51l-5,4.4a1.67,1.67,0,0,1-1.24.48l-.88-.23c-.29-.08-.34-.55-.1-1Z"/><path class="cls-47" d="M213.49,171.3a.86.86,0,0,1,.56.86l.07,5.66a4.2,4.2,0,0,1-.44,1.64l-1.06,2.12c-.25.5-.7.84-1,.76l-.94-.24a.91.91,0,0,1-.54-.89l-.07-5.59a4.41,4.41,0,0,1,.45-1.64l1-2.06c.25-.49.71-.85,1-.79Z"/><path class="cls-48" d="M210.57,170.8a.86.86,0,0,1-.57-.86l-.1-5.67a4.4,4.4,0,0,1,.43-1.65l1.06-2.12c.24-.5.69-.84,1-.76l.94.24a1,1,0,0,1,.56.9l.09,5.6a4.2,4.2,0,0,1-.44,1.64l-1.05,2.06c-.25.49-.7.84-1,.79Z"/><path class="cls-49" d="M187.13,194.5a.86.86,0,0,1,.56.85l.08,5.67a4.26,4.26,0,0,1-.43,1.65l-1,2.12c-.25.5-.68.84-1,.77l-.92-.24a.91.91,0,0,1-.54-.89l-.09-5.59a4.38,4.38,0,0,1,.44-1.65l1-2.06c.24-.5.69-.86,1-.8Z"/><path class="cls-50" d="M186.91,183.06a.88.88,0,0,1,.57.86l.11,5.67a4.26,4.26,0,0,1-.43,1.66l-1,2.12c-.24.5-.68.84-1,.77l-.93-.24a.94.94,0,0,1-.55-.89l-.11-5.61a4.21,4.21,0,0,1,.43-1.65l1-2.06c.24-.49.69-.85,1-.8Z"/><path class="cls-51" d="M187.32,202.69a5.69,5.69,0,0,1,1.13-1.51l5.05-4.49a1.76,1.76,0,0,1,1.23-.49l.91.2c.3.07.34.53.09,1l-1.1,2.18a5.8,5.8,0,0,1-1.15,1.52l-5,4.42a1.64,1.64,0,0,1-1.22.48l-.86-.22c-.29-.08-.34-.54-.1-1Z"/><path class="cls-52" d="M186.91,179.89a5.55,5.55,0,0,1,1.12-1.52l5.07-4.48a1.72,1.72,0,0,1,1.24-.49l.92.21c.31.06.35.52.1,1l-1.09,2.18a5.82,5.82,0,0,1-1.14,1.52l-5,4.42a1.7,1.7,0,0,1-1.23.48L186,183c-.3-.08-.35-.55-.11-1Z"/></svg>