<svg id="レイヤー_1" data-name="レイヤー 1" xmlns="http://www.w3.org/2000/svg" xmlns:xlink="http://www.w3.org/1999/xlink" viewBox="0 0 165 137.8"><defs><style>.cls-1{fill:none;}.cls-2{fill:#0068b2;}.cls-3{clip-path:url(#clip-path);}.cls-4{fill:#007bc7;}.cls-5{font-size:45.9px;fill:#fff;font-family:ToppanBunkyuMidashiGothicStdN-ExtraBold-83pv-RKSJ-H, Toppan Bunkyu Midashi Gothic;}</style><clipPath id="clip-path"><path class="cls-1" d="M97.24,130.48c3.67,3.25,14.5.92,12.34-8.67,5.83.42,11.75-2.66,13.66-7,9.92-.58,26-15.16,26.34-25,8.58-3.58,10-11.91,4.66-19,7.42-11.08.84-20.75-6-24.66.67-11.67-9.08-20-16.33-20.34-1.25-9.33-12.17-14.08-23.33-12.33-7.67-8.25-18.92-9-26.67-4C72.16,6.35,62,7.81,54.58,16.15c-8.67-1.17-18,6.41-20.34,15-9.58,2.83-15.91,13-14,21.66-7.08,5.92-8.66,19.59-4,25-4.33,10.67.88,16.19,8.67,18,3.75,7.17,13.5,6.67,20,4.67,6.25,3.75,13.83,2.75,19.67,1,3.58,6.5,12,8.42,20.66,8.33C93.66,115.73,93.58,127.23,97.24,130.48Z"/></clipPath></defs><title>01.IQ</title><path class="cls-2" d="M97.24,130.48c3.67,3.25,14.5.92,12.34-8.67,5.83.42,11.75-2.66,13.66-7,9.92-.58,26-15.16,26.34-25,8.58-3.58,10-11.91,4.66-19,7.42-11.08.84-20.75-6-24.66.67-11.67-9.08-20-16.33-20.34-1.25-9.33-12.17-14.08-23.33-12.33-7.67-8.25-18.92-9-26.67-4C72.16,6.35,62,7.81,54.58,16.15c-8.67-1.17-18,6.41-20.34,15-9.58,2.83-15.91,13-14,21.66-7.08,5.92-8.66,19.59-4,25-4.33,10.67.88,16.19,8.67,18,3.75,7.17,13.5,6.67,20,4.67,6.25,3.75,13.83,2.75,19.67,1,3.58,6.5,12,8.42,20.66,8.33C93.66,115.73,93.58,127.23,97.24,130.48Z"/><g class="cls-3"><path class="cls-4" d="M133.66,23c10.5,7,9,19.5,9,19.5a20.69,20.69,0,0,0-14.25,3c7.64-.85,14.81.56,18.75,5.5,4.18,5.25,4.72,14.2-1.25,18.13,7.5,14-8.25,21.87-17.5,14.37,2.75-4.25,3-9.75,0-16.5,0,16.5-3.69,17.94-19.75,18.75,9,1,9,1,16,0,3.25,3.25,3.75,3.75,10.5,5.25-1.06,3-4.75,5.25-11.75,3.25a24.11,24.11,0,0,1-20.5,3.5c-7-2-8.62-14.62,1.5-19.75-7.61.08-11,5.13-12.25,10-1.14,4.45-1,4.75,1.25,9.75C73.66,101,61.41,90,61.41,90a7.6,7.6,0,0,1,2,6.25c-1,6.32-21.75,12.75-21.75,12.75l54,34.25,68-29.25V28.73S123.16,16,133.66,23Z"/><path class="cls-4" d="M132.91,58c-4.5-3-8.75-2.25-13.5,0,2.75-6.25,2.9-14.93-2.67-19,1.67-4,1.42-7.28,1.17-12.25-1.25,6.75-2.75,7.5-4.5,8.75-3.75-4.25-11.75-5.5-16.75-4.25.55-2.61-1-9.11-5-11.75-5.19-3.42-13.91-2.51-21.25-.25,14-1.94,23,3,21.5,13.75-6.36,3-7,6.5-7.5,11.75,6.07-11,19-11,26.25-4.5s6.25,15.75,5.5,18.5c-3.47,2.75-3.47,2.75-4.75,5.5-4-2.75-13.5-4-18-.5,8.25-1.25,13.5,1.63,15.75,3.5a22,22,0,0,0,.5,8.75,19,19,0,0,1,5.75.5,13.68,13.68,0,0,1,5-16.5C125.49,56.38,128.46,56.15,132.91,58Z"/><path class="cls-4" d="M98.91,80c-4.6-.7-9.5-2.4-12.52-5.83-2.4-2.73-3.53-7-3-9.67,1.25-6.12,8.38-11.75,18.25-10-3.75-2.5-9.87-1.75-9.87-1.75s-.67-3.45,2.87-6.5c-4.75,3-5.5,5-6.5,7.75-3.75.75-6.25,2.5-7.25,5.5A13,13,0,0,0,70.41,53c-1.39-8,0-17.94,5.5-25.25C72,30,68.28,34.85,66.56,40c-1.48,4.4-1.26,9-1.15,12.48-7.25.75-10.12,5-12,12.75,6.18-10.89,15.88-8.75,20-5.75s4,12,2.5,16.75c1.81-.5,1-1.5,3-2.25a6.45,6.45,0,0,0,4.75,4.08A17.37,17.37,0,0,0,74.91,89a43.68,43.68,0,0,1,12.25-8.25A18.56,18.56,0,0,0,98.91,80Z"/><path class="cls-4" d="M65.66,69.11c1.75,7.37-1.75,15.37-9,17.62S44.16,84.48,37.41,89c2-2.24,2.5-4,6.75-4.5-4-3.5-9-10-2.5-22,0,11.5,3.25,16.93,8.5,18.25S62.91,75.73,65.66,69.11Z"/></g><text class="cls-5" transform="translate(58.93 83.54)">IQ</text></svg>