<svg id="レイヤー_1" data-name="レイヤー 1" xmlns="http://www.w3.org/2000/svg" xmlns:xlink="http://www.w3.org/1999/xlink" viewBox="0 0 218 218"><defs><style>.cls-1{fill:none;}.cls-2{clip-path:url(#clip-path);}.cls-3{fill:#fff;}.cls-3,.cls-4,.cls-5,.cls-6,.cls-7,.cls-9{stroke:#42210b;stroke-linecap:round;stroke-linejoin:round;stroke-width:2px;}.cls-4,.cls-8{fill:#42210b;}.cls-5{fill:#b5b5b6;}.cls-6{fill:#f5dcbe;}.cls-7{fill:#2c3493;}.cls-9{fill:#e60012;}.cls-10{clip-path:url(#clip-path-2);}.cls-11{fill:#fff1e1;}</style><clipPath id="clip-path"><rect id="SVGID" class="cls-1" x="21.28" y="94.18" width="175.44" height="106.47"/></clipPath><clipPath id="clip-path-2"><rect id="SVGID-2" data-name="SVGID" class="cls-1" x="11.51" y="-227.9" width="200" height="200" rx="10"/></clipPath></defs><title>19-2-2 ハードル</title><g class="cls-2"><rect class="cls-3" x="43.15" y="148.97" width="127.61" height="26.32"/><rect class="cls-4" x="64.86" y="151.27" width="24.55" height="21.71"/><rect class="cls-4" x="124.51" y="151.27" width="24.55" height="21.71"/><path class="cls-5" d="M54.43,225.53A3.54,3.54,0,0,1,50.89,222V172.73a3.54,3.54,0,1,1,7.08,0V222A3.54,3.54,0,0,1,54.43,225.53Z"/><path class="cls-5" d="M159.48,225.53A3.53,3.53,0,0,1,156,222V172.73a3.54,3.54,0,1,1,7.07,0V222A3.53,3.53,0,0,1,159.48,225.53Z"/></g><path class="cls-6" d="M134.3,75.1A7.07,7.07,0,0,1,130.67,62L154.33,47.8a7.08,7.08,0,1,1,7.27,12.14L137.93,74.1A7.05,7.05,0,0,1,134.3,75.1Z"/><ellipse class="cls-4" cx="69.06" cy="128.8" rx="10.72" ry="7.41" transform="matrix(0.5, -0.87, 0.87, 0.5, -77.01, 124.21)"/><path class="cls-6" d="M60.32,138a8.41,8.41,0,0,1-7.58-4.75c-2-4.19.87-9,3.92-11.22l32.08-20.37c4.18-2,13.84,2.41,15.86,6.6a8.4,8.4,0,0,1-3.93,11.21L64,137.13A8.47,8.47,0,0,1,60.32,138Z"/><circle class="cls-6" cx="160.14" cy="56.6" r="10.17"/><path class="cls-7" d="M77,131.72a183.34,183.34,0,0,0,25.42-10.17c10,4,20.14.58,23.67-3.69S128.33,104,128.33,104l-44.68.32-18.21,11S77,119.33,77,131.72Z"/><path class="cls-3" d="M82.1,92.13l1.55,12.16c16.68,3.68,44.68-.32,44.68-.32L131,81.42a159.46,159.46,0,0,0,15.15-10.08,49.79,49.79,0,0,1-7.85-16.14L100.24,77l-29,1.41L67.45,88.78A67.36,67.36,0,0,0,82.1,92.13Z"/><circle class="cls-6" cx="116.83" cy="112.47" r="9.97"/><ellipse class="cls-6" cx="70.98" cy="61.82" rx="5.06" ry="6.15"/><ellipse class="cls-6" cx="135.87" cy="61.45" rx="5.06" ry="6.15"/><path class="cls-6" d="M136.3,55.55c0,8.06-2.17,16-7,20.55-6,5.76-15.81,7.19-25.91,7.19s-20.08-2.06-26.11-7.9c-4.73-4.58-6.78-11.86-6.78-19.84a32.89,32.89,0,0,1,65.78,0Z"/><path class="cls-4" d="M136.3,55.55c0,4-16.32-7.89-20.06-17-3.53,4.88-10.15,9.88-19,12.42,2.27-3.44,4.54-6.55,4.54-6.55S91,50.81,85.55,53c-5.19,2.06-15,4.7-15,2.58a32.89,32.89,0,0,1,65.78,0Z"/><circle class="cls-4" cx="75.38" cy="78.78" r="3.14"/><circle class="cls-4" cx="69.63" cy="86.43" r="3.14"/><circle class="cls-4" cx="64.16" cy="94.04" r="3.14"/><polygon class="cls-4" points="60.42 100.01 53.61 103.35 61.02 106.16 60.42 100.01"/><circle class="cls-4" cx="133.94" cy="78.78" r="3.14"/><circle class="cls-4" cx="139.68" cy="86.43" r="3.14"/><circle class="cls-4" cx="145.16" cy="94.04" r="3.14"/><polygon class="cls-4" points="148.9 100.01 155.71 103.35 148.3 106.16 148.9 100.01"/><line class="cls-6" x1="103.41" y1="60.35" x2="103.41" y2="67.29"/><polyline class="cls-6" points="98.53 74.94 103.41 71.9 108.1 74.94"/><ellipse class="cls-8" cx="121.72" cy="60.75" rx="1.69" ry="2.91" transform="translate(27.12 158.5) rotate(-72.46)"/><ellipse class="cls-8" cx="85.1" cy="60.75" rx="2.91" ry="1.69" transform="translate(-14.35 28.47) rotate(-17.54)"/><path class="cls-9" d="M137.42,51.66a14.49,14.49,0,0,0-.14,2.84l-9.07-9-24.87-7.36-25,7.36-9.12,9s.07-2.52,0-2.84c-3.91-19,15.26-34.31,34.08-34.31S142.12,32.68,137.42,51.66Z"/><path class="cls-9" d="M69.26,54.5S77.83,42,102.75,42.71,137.28,54.5,137.28,54.5s3.91-23.44-34-23.44S69.26,54.5,69.26,54.5Z"/><line class="cls-6" x1="117.38" y1="56.33" x2="125.19" y2="54.5"/><path class="cls-4" d="M125.46,94c0-9.65-5.84-17.47-13.06-17.47S99.34,84.33,99.34,94c0,7.62,5.13,20.74,5.13,23.7a9,9,0,1,0,18.08,0C122.55,114.29,125.46,101,125.46,94Z"/><circle class="cls-6" cx="63.37" cy="78.78" r="12.67"/><g class="cls-10"><ellipse class="cls-11" cx="132.65" cy="-124.88" rx="173.57" ry="160.5"/></g></svg>