<svg id="レイヤー_1" data-name="レイヤー 1" xmlns="http://www.w3.org/2000/svg" xmlns:xlink="http://www.w3.org/1999/xlink" viewBox="0 0 218 218"><defs><style>.cls-1,.cls-8{fill:none;}.cls-2{clip-path:url(#clip-path);}.cls-3{fill:#f5dcbe;}.cls-10,.cls-3,.cls-4,.cls-5,.cls-7,.cls-8,.cls-9{stroke:#42210b;stroke-linecap:round;stroke-linejoin:round;stroke-width:2px;}.cls-4{fill:#2c3493;}.cls-5{fill:#fff;}.cls-6{fill:#42210b;}.cls-7{fill:#603813;}.cls-9{fill:#534741;}.cls-10{fill:#00a148;}</style><clipPath id="clip-path"><rect id="SVGID" class="cls-1" x="9.94" y="9" width="200" height="200" rx="10"/></clipPath></defs><title>10-1-2 後転</title><g class="cls-2"><path class="cls-3" d="M97.27,166.87c-4.88,0-9.56-1-10-5.36-.28-2.52,1.16-4.13,4.32-7.66,8-8.94,9.09-12.21,8.61-13.38-1.08-1.79-10.43-2.75-20.41-1.25a4.5,4.5,0,0,1-1.35-8.9c6-.92,26.07-3.14,30.1,6.76,2.81,6.91-3.27,14.82-8.4,20.69a4.5,4.5,0,0,1,.25,9C99.34,166.82,98.3,166.87,97.27,166.87Z"/><path class="cls-4" d="M95.08,128.65c-2.27,8.11-4.49,9.84-7.75,15.12-14,1.76-25.25-3.45-32.75-12.12s-2.25-18.88,4-23.88c0,0,17.5,15.26,22.5,20.88C87.08,126.73,90.33,127.85,95.08,128.65Z"/><path class="cls-5" d="M114.08,88.48c-15.5-3.21-52,10-58.75,19.29,3.37,9.28,14.93,17.88,25.75,20.88a12.45,12.45,0,0,1,5.25-1c3.5-7.11,18.75-19.61,27.75-23.36S129.58,91.69,114.08,88.48Z"/><polyline class="cls-5" points="97.58 106.52 103.34 110.64 115.83 99.52 110.08 95.55"/><path class="cls-3" d="M140.33,117.25a2.45,2.45,0,0,0-.37-.84c.73-.13,1.46-.28,2.16-.45a29.16,29.16,0,0,0,21.6-35.14C160,65.16,144.64,57.11,129,60.84S105,78.27,108.76,93.94c2,8.33,4.9,16.47,11.39,20.41,4,2.44,9.61,3.11,15.13,2.68a2.6,2.6,0,0,0-.06,1.44,2.63,2.63,0,1,0,5.11-1.22Z"/><circle class="cls-6" cx="133.94" cy="101.81" r="1.92"/><path class="cls-7" d="M130.48,83.71c7.89,1.45,23.61,8.21,28.18,21.52l5.71,2.25-2-3.55,4.74.68-3.21-3.36s6.07-10,.46-24.18A30.39,30.39,0,0,0,128.75,58.5C113.55,62.12,107,72.65,107.88,87,118.58,83.22,122.6,82.26,130.48,83.71Z"/><path class="cls-8" d="M121.42,106.77s-1.42,2.65.59,6.79"/><path class="cls-3" d="M126.57,87.89A3.44,3.44,0,0,1,125,85.76c-.51-2.12,1.25-4.37,3.94-5s5.28.56,5.78,2.69a3.45,3.45,0,0,1-.53,2.72"/><path class="cls-9" d="M115.57,109.66c-3.17,3.17-9.88,3.33-12.23,1s-1.18-7,2-10.12,8.15-3.34,10.5-1A7.26,7.26,0,0,1,115.57,109.66Z"/><path class="cls-3" d="M109.78,111.55a5.56,5.56,0,0,1-7.42-3.19c-.79-2.35.25-7,3.44-7.6s16-2.12,27.65-9.43c1.41-3.09,1.22-8.2,1.22-8.24,0-2.48,2.07-4,4.55-4s3.5,1.92,3.48,4.4a26.53,26.53,0,0,1-3.14,11.91A4.52,4.52,0,0,1,138.1,97,194.39,194.39,0,0,1,109.78,111.55Z"/><rect class="cls-10" x="-7.67" y="166.87" width="234.67" height="14.46"/></g></svg>