<svg id="レイヤー_1" data-name="レイヤー 1" xmlns="http://www.w3.org/2000/svg" viewBox="0 0 179 180.5"><defs><style>.cls-1{fill:#f5dcbe;}.cls-1,.cls-10,.cls-11,.cls-2,.cls-3,.cls-4,.cls-5,.cls-6,.cls-7,.cls-8{stroke:#40220f;}.cls-1,.cls-2,.cls-3,.cls-4,.cls-6{stroke-miterlimit:10;}.cls-2{fill:#fff;}.cls-3{fill:#0068b2;}.cls-4{fill:#b5b5b6;}.cls-5{fill:#feed00;}.cls-10,.cls-11,.cls-5,.cls-7,.cls-8{stroke-linecap:round;stroke-linejoin:round;}.cls-6{fill:#bce2ec;}.cls-7,.cls-9{fill:#40220f;}.cls-8{fill:none;}.cls-10{fill:#95c036;}.cls-11{fill:#ed811b;}</style></defs><title>05.元気な体</title><path class="cls-1" d="M113.53,36.93c-5.53-7.77-16-12.71-26.07-13.21C69.67,22.82,54.4,39,53.61,54.55,53,67.66,62.74,76.36,76.45,79.33A7.07,7.07,0,0,0,90,80.39c15.32-.8,27.37-8.6,28.07-22.59C118.37,51,117.81,42.94,113.53,36.93Z"/><path class="cls-1" d="M70.88,80.45C55.93,74.22,46.35,60.07,42.66,53.74A4.4,4.4,0,0,0,43,52.07a4.48,4.48,0,1,0-7.43,3.35c3.14,5.85,14,23.72,32.62,31.49a3.57,3.57,0,0,0,1.35.27,3.5,3.5,0,0,0,1.35-6.73Z"/><path class="cls-1" d="M142.28,57.23a4.48,4.48,0,1,0-9,0,4.34,4.34,0,0,0,.42,1.87A53.47,53.47,0,0,1,99.91,80.2a3.5,3.5,0,0,0,.37,7l.37,0c1-.11,25.61-3,41.09-27.35a3.54,3.54,0,0,0,.51-2.24C142.25,57.46,142.28,57.35,142.28,57.23Z"/><path class="cls-1" d="M100.24,168.17a3.49,3.49,0,0,1-3.11-2.91l-6.65-40.33a3.5,3.5,0,0,1,6.91-1.14L104,164.12a3.5,3.5,0,0,1-3.79,4Z"/><path class="cls-2" d="M100.24,168.17a3.5,3.5,0,0,0,3.79-4L102,152a5.45,5.45,0,0,0-6.89,1.22l2,12.08A3.49,3.49,0,0,0,100.24,168.17Z"/><path class="cls-3" d="M97.93,168.65c1.07,1.3,3.19-1.35,6.35-4s6.17-4.17,5.09-5.48-5.54-1.33-8.7,1.27a11.74,11.74,0,0,1-3.93,3.09A8.85,8.85,0,0,0,97.93,168.65Z"/><ellipse class="cls-4" cx="103.65" cy="163.93" rx="7.41" ry="3.06" transform="translate(-80.57 103.27) rotate(-39.47)"/><path class="cls-1" d="M57,164a3.49,3.49,0,0,0,3.61-2.26l14.26-38.31A3.5,3.5,0,1,0,68.26,121L54,159.27a3.51,3.51,0,0,0,2.06,4.51A4,4,0,0,0,57,164Z"/><path class="cls-2" d="M57,164a4,4,0,0,1-.89-.2A3.51,3.51,0,0,1,54,159.27l4.3-11.54a5.45,5.45,0,0,1,6.53,2.52l-4.27,11.47A3.49,3.49,0,0,1,57,164Z"/><path class="cls-3" d="M59.12,164.89c-1.3,1.07-2.87-1.93-5.47-5.09s-5.25-5.28-3.95-6.35,5.69-.25,8.3,2.91a11.7,11.7,0,0,0,3.26,3.78A8.84,8.84,0,0,1,59.12,164.89Z"/><ellipse class="cls-4" cx="54.41" cy="159.17" rx="3.06" ry="7.41" transform="translate(-88.77 70.89) rotate(-39.47)"/><path class="cls-5" d="M66.78,109.93s-5.52,14.92-5.52,20.75c7.27,2.33,11.95,3.77,19,4l2.5-5.75s1.12,3.75,1.5,5.75c8,1.19,13.18,1.33,19.8-1a156.74,156.74,0,0,0-4.47-21.75Z"/><path class="cls-6" d="M63,112.18s19.67,5.17,38.67,2c.33-6.83.33-15.33.33-21.75,5.66-2.58,9.06-3.53,13.5-7.75a75.83,75.83,0,0,1-6.87-10.05,36.41,36.41,0,0,1-18.73,5.83c-3.05,5.47-10.79,6.42-13.11-1a38.66,38.66,0,0,1-17.51-7.48,46.89,46.89,0,0,1-5.53,10.75,22.17,22.17,0,0,0,13.5,7.25C64.68,100.34,63,112.18,63,112.18Z"/><path class="cls-7" d="M118.05,52.07a41.69,41.69,0,0,1-5.69,9.28A45.4,45.4,0,0,0,113,40.18a95.12,95.12,0,0,0-49.5-4.83A100.71,100.71,0,0,0,56,56.51a57.55,57.55,0,0,1,0-12C61.26,32.68,68.8,21.35,89.2,22.18S118,36.13,118.05,52.07Z"/><path class="cls-8" d="M87,66.7c-.24,3-2.18,5.31-4.34,5.14s-3.73-2.74-3.49-5.75"/><path class="cls-1" d="M116.94,55.09a3.74,3.74,0,0,1,3.28-1.62c2.29.25,3.84,3.16,3.47,6.48s-2.53,5.81-4.82,5.55a3.67,3.67,0,0,1-2.73-2.09"/><path class="cls-1" d="M55.22,48.55a3.74,3.74,0,0,0-2.84-2.31c-2.28-.26-4.44,2.22-4.82,5.54S48.73,58,51,58.27a3.66,3.66,0,0,0,3.13-1.43"/><circle class="cls-9" cx="66.7" cy="48.68" r="1.75"/><path class="cls-1" d="M84.07,57.79a2.56,2.56,0,0,1-2.17.58c-1.52-.33-2.41-2.14-2-4s2-3.16,3.5-2.83a2.55,2.55,0,0,1,1.73,1.43"/><line class="cls-8" x1="66.03" y1="41.74" x2="69.7" y2="44.01"/><circle class="cls-9" cx="105.7" cy="53.09" r="1.75"/><line class="cls-8" x1="107.58" y1="46.38" x2="103.57" y2="47.97"/><polygon class="cls-10" points="34.73 32.31 32.08 19.53 39.51 20.86 34.73 32.31"/><polygon class="cls-11" points="28.81 33.14 20.06 23.45 27.13 20.85 28.81 33.14"/><polygon class="cls-10" points="26.5 36.17 13.47 35.36 16.71 28.55 26.5 36.17"/><polygon class="cls-10" points="148.8 37.8 157.55 28.12 150.48 25.51 148.8 37.8"/><polygon class="cls-11" points="151.43 42.04 164.14 39.09 159.83 32.91 151.43 42.04"/><polygon class="cls-11" points="142.72 36.95 145.64 24.23 138.19 25.41 142.72 36.95"/></svg>