<svg id="レイヤー_1" data-name="レイヤー 1" xmlns="http://www.w3.org/2000/svg" xmlns:xlink="http://www.w3.org/1999/xlink" viewBox="0 0 218 218"><defs><style>.cls-1,.cls-14{fill:none;}.cls-2{clip-path:url(#clip-path);}.cls-3{fill:#fff1e1;}.cls-4{fill:#f5dcbe;}.cls-10,.cls-11,.cls-12,.cls-4,.cls-5,.cls-6,.cls-7,.cls-9{stroke:#42210b;stroke-linecap:round;stroke-linejoin:round;stroke-width:2px;}.cls-5{fill:#2c3493;}.cls-6{fill:#fff;}.cls-7,.cls-8{fill:#42210b;}.cls-13,.cls-9{fill:#e60012;}.cls-10{fill:#fccb00;}.cls-11{fill:#cde18f;}.cls-12{fill:#0068b2;}.cls-14{stroke:#fff;stroke-miterlimit:10;stroke-width:5px;}</style><clipPath id="clip-path"><rect id="SVGID" class="cls-1" x="8.02" y="-245.44" width="200" height="200" rx="10"/></clipPath></defs><title>5-1-1 的あてゲーム</title><g class="cls-2"><ellipse class="cls-3" cx="105.03" cy="-145.99" rx="173.57" ry="160.5"/></g><path class="cls-4" d="M67.37,159.53c0,1.84-4,11.92-9.22,21.24A179.7,179.7,0,0,1,46.4,198.7l-6.52-5.15S48.34,182,52.05,176.28s6.1-16.5,6.1-16.5S67.37,155.82,67.37,159.53Z"/><path class="cls-5" d="M58.15,151.19C54.94,155.82,54,162.86,54,162.86l11.88,2V154S61.36,146.56,58.15,151.19Z"/><polygon class="cls-6" points="53.62 188.25 46.7 183.15 39.88 191.56 46.4 198.7 53.62 188.25"/><path class="cls-7" d="M42.21,189.59a12.63,12.63,0,0,0-5.08,3.69s2.33,8.25,7.5,10.59c4.11,1.85,13.9,4.6,14.95,3.79,3.53-2.74,1.41-10.34-2.34-11.81-4.37-1.72-9.83.88-11.69-.9A4.51,4.51,0,0,1,42.21,189.59Z"/><path class="cls-4" d="M66,160l6.12-7.25s12.06,13.48,12.06,21.5-14.44,17.57-14.44,17.57l-6.46-8.64s9.5-4.06,9.5-9.63S66,160,66,160Z"/><path class="cls-6" d="M63.28,183.21l6.46,8.64s9.18-6.07,12.9-12.6l-10-4.8C71.79,179.56,63.28,183.21,63.28,183.21Z"/><path class="cls-7" d="M66.83,181.29c.54,7.15,6.62,7.82,6.62,7.82a8.11,8.11,0,0,1,7.69,6.44C82.69,202,73,204.3,73,204.3l-13.1-21.15S62.77,179.43,66.83,181.29Z"/><path class="cls-4" d="M47.13,111.58s-22.8,6.92-21.28,17.1,28.12,8,28.12,8v-6.42s-16.72,1.1-18.24-3.08,13.68-9,13.68-9Z"/><path class="cls-6" d="M34.78,112.53c2.35,7.67,9.31,11.69,9.31,11.69l9.88-3,4.18-14.82S41.62,108.16,34.78,112.53Z"/><path class="cls-4" d="M85.79,79.15c1.67,7.1,1.4,14.52-1.89,19.57-4.12,6.32-12.44,9.61-21.34,11.7s-18.12,2.35-24.64-1.55c-5.13-3.06-8.44-9-10.1-16.08a29.78,29.78,0,1,1,58-13.64Z"/><circle class="cls-7" cx="27.05" cy="107.31" r="2.84"/><circle class="cls-7" cx="17.94" cy="109.24" r="2.84"/><circle class="cls-7" cx="14.8" cy="117.56" r="2.84"/><polygon class="cls-7" points="15.12 123.83 10.54 128.95 17.72 128.77 15.12 123.83"/><path class="cls-4" d="M76.32,63.48,61.83,84.3c-2.53.09-4.5,2.65-4.39,5.72s2.24,5.49,4.77,5.4a3.86,3.86,0,0,0,1.77-.5l-1.42,15.5c8.9-2.09,17.22-5.38,21.34-11.7,3.29-5,3.56-12.47,1.89-19.57A29.65,29.65,0,0,0,76.32,63.48Z"/><path class="cls-7" d="M62.21,95.42c-2.53.09-4.66-2.33-4.77-5.4s1.49-5.52,4.39-5.72c7.47-.5,21.46-14.78,14.49-20.82a29.77,29.77,0,0,0-48.5,29.31c1.66,7,5,13,10.1,16.08,6.52,3.9,15.67,3.66,24.64,1.55L64,94.92A3.86,3.86,0,0,1,62.21,95.42Z"/><ellipse class="cls-8" cx="75.02" cy="86.52" rx="2.64" ry="1.53" transform="translate(-31.09 43.44) rotate(-26.97)"/><ellipse class="cls-8" cx="41.75" cy="94.35" rx="2.64" ry="1.53" transform="translate(-42.39 34.65) rotate(-30.77)"/><path class="cls-9" d="M79,93.55a12.88,12.88,0,0,0,5.59,3.91A19.53,19.53,0,0,0,86.57,91Z"/><circle class="cls-10" cx="41.75" cy="50.2" r="20.33"/><ellipse class="cls-11" cx="61.57" cy="118.23" rx="6.65" ry="14.82" transform="translate(-19.1 12.11) rotate(-9.73)"/><path class="cls-4" d="M62.91,111.44S59.09,94,51.49,78.84c-8.35-16.67-15-31.22-20.11-28.25s5.53,16.82,13.23,32.05A173.71,173.71,0,0,1,56,112.89Z"/><path class="cls-5" d="M52.05,149.86c0,6.42,13.8,15,13.8,15A68.6,68.6,0,0,0,79,157.36l-8.46-14.17S52.05,143.44,52.05,149.86Z"/><path class="cls-6" d="M49.26,149.19c8.89,2,17.51.84,27.41-3.66-1.65-18-6-31.76-10.51-36.29a36.35,36.35,0,0,0-9.25-6.71s-4.51,2.84-6.57,10.36S50.23,135.61,49.26,149.19Z"/><polyline class="cls-6" points="67.37 116.14 63.28 92.76 48.28 97.52 55.02 119.35"/><rect class="cls-12" x="138.34" y="11.85" width="72.21" height="72.21"/><circle class="cls-13" cx="174.44" cy="47.95" r="3.84"/><circle class="cls-14" cx="174.44" cy="47.95" r="13.25"/><circle class="cls-14" cx="174.44" cy="47.95" r="26.22"/></svg>