<svg id="レイヤー_1" data-name="レイヤー 1" xmlns="http://www.w3.org/2000/svg" viewBox="0 0 218 218"><defs><style>.cls-1{fill:#f5dcbe;}.cls-1,.cls-10,.cls-11,.cls-2,.cls-3,.cls-4,.cls-5,.cls-7,.cls-9{stroke:#42210b;stroke-linecap:round;stroke-linejoin:round;stroke-width:2px;}.cls-2{fill:#e6e6e6;}.cls-3{fill:#87c9a1;}.cls-4{fill:#c7b299;}.cls-5{fill:#2c3493;}.cls-6{fill:#fff;}.cls-7{fill:none;}.cls-8{fill:#42210b;}.cls-9{fill:#603813;}.cls-10{fill:#ffe800;}.cls-11{fill:#fff100;}</style></defs><title>13-2-2 プレルボール</title><path class="cls-1" d="M90,134.48a3.51,3.51,0,0,1-1.59-.38l-29-14.84A3.5,3.5,0,1,1,62.63,113l29,14.83a3.5,3.5,0,0,1-1.6,6.62Z"/><path class="cls-2" d="M40.14,173.21s.15,2.69,1.15,3.94,4.56,1.11,6.83-2.13c4.67-2.12,9.52-6.87,5.55-10.54-2.17-2-5.35.26-5.57,2.52l-.46,2.09s-.69,3.18-3,4.56A4.06,4.06,0,0,1,40.14,173.21Z"/><path class="cls-3" d="M40,171.61s.15,2.69,1.15,3.94,4.56,1.11,6.83-2.13c4.67-2.12,8.38-6.08,5.65-8.94s-8.64-1-8.85,1.3l1,1.75s1.07,3.14-1.26,4.52A4.06,4.06,0,0,1,40,171.61Z"/><path class="cls-1" d="M54.29,174.52a3.5,3.5,0,0,1-3.07-1.81L36.1,145.34A3.5,3.5,0,0,1,42.23,142l15.12,27.38a3.5,3.5,0,0,1-3.06,5.19Z"/><path class="cls-1" d="M42.92,173.15a3.51,3.51,0,0,1-3.1-1.86l-17.5-33A3.5,3.5,0,1,1,28.51,135L46,168a3.51,3.51,0,0,1-1.46,4.73A3.55,3.55,0,0,1,42.92,173.15Z"/><path class="cls-4" d="M19.79,142.77a22.22,22.22,0,0,0,14.37-1.25c7-3.37,15.5,0,15.5,0s-10.12-1.21-17.37-4.12S19.79,142.77,19.79,142.77Z"/><path class="cls-2" d="M51.32,174.31s.15,2.69,1.15,3.94,4.56,1.11,6.83-2.13c4.67-2.12,9.52-6.87,5.55-10.54-2.17-2-5.35.26-5.56,2.52l-.47,2.09s-.68,3.18-3,4.56A4.06,4.06,0,0,1,51.32,174.31Z"/><path class="cls-3" d="M51.22,172.71s.15,2.69,1.15,3.94,4.56,1.11,6.83-2.13c4.67-2.12,8.39-6.08,5.65-8.94s-8.64-1-8.85,1.3l1,1.75s1.08,3.14-1.26,4.52A4.06,4.06,0,0,1,51.22,172.71Z"/><path class="cls-5" d="M24.16,129c9.13,1.63,17.14,4,21.5,13.5a19,19,0,0,0,2.2,7.13c-2.38,2.2-10.36,2.7-12.23-1.05-1.47,1.1-4.92,1.67-9.27.12-6.88-12.37-4.57-4.57-5.32-10.07S21.54,131.52,24.16,129Z"/><path class="cls-6" d="M49.61,108a113,113,0,0,0-13,4.28c-1.89,2.81-1.31,6.85,2.86,10.37,9.67-2.27,14.06-5.76,14.06-5.76Z"/><path class="cls-7" d="M49.61,108a113,113,0,0,0-13,4.28c-1.89,2.81-1.31,6.85,2.86,10.37,9.67-2.27,14.06-5.76,14.06-5.76Z"/><line class="cls-7" x1="35.63" y1="148.6" x2="33.71" y2="144.9"/><path class="cls-6" d="M71.41,116.39c-.12,3.62-1,7-4.75,9.75a30.1,30.1,0,0,1-10.18-4.51c-5.1,5.25-7.32,17-6.82,19.89s-10.5,2.88-15.5,0a12.3,12.3,0,0,0-14.37,1.25c-1.63-3.86-1.43-7.12,1-12.37S36.91,110,55.66,107.52c10.31-1.37,7.75,4.38,7.75,4.38S62.54,111.12,71.41,116.39Z"/><path class="cls-7" d="M71.41,116.39c-.12,3.62-1,7-4.75,9.75a30.1,30.1,0,0,1-10.18-4.51c-5.1,5.25-7.32,17-6.82,19.89s-10.5,2.88-15.5,0a12.3,12.3,0,0,0-14.37,1.25c-1.63-3.86-1.43-7.12,1-12.37S36.91,110,55.66,107.52c10.31-1.37,7.75,4.38,7.75,4.38S62.54,111.12,71.41,116.39Z"/><path class="cls-1" d="M81.17,91.21c0,6.53-1.31,13.88-5.63,17.19s-11.38,2.5-17.75,2.5c-12.91,0-23.38-6.78-23.38-19.69a23.38,23.38,0,1,1,46.76,0Z"/><ellipse class="cls-8" cx="77.54" cy="93.9" rx="0.88" ry="1.63"/><path class="cls-9" d="M66.66,96.9c3.5-3.88,11-10.44,8.88-20.9A23.37,23.37,0,0,0,34.41,91.21c0,12.91,10.47,19.69,23.38,19.69,3.13,0,6.45.17,9.52,0C68.55,106.66,68.08,101.59,66.66,96.9Z"/><circle class="cls-9" cx="48.62" cy="114.47" r="2.7"/><circle class="cls-9" cx="55.13" cy="111.77" r="2.7"/><circle class="cls-9" cx="41.88" cy="115.27" r="2.7"/><circle class="cls-9" cx="35.66" cy="112.65" r="2.7"/><circle class="cls-9" cx="37.11" cy="106.65" r="2.7"/><circle class="cls-9" cx="30.04" cy="107.17" r="2.7"/><circle class="cls-9" cx="23.13" cy="105.57" r="2.7"/><circle class="cls-9" cx="18.74" cy="100.35" r="2.7"/><polygon class="cls-9" points="34.02 109.05 28.54 105.98 35.66 104.24 34.02 109.05"/><polygon class="cls-9" points="18.37 96.14 13.46 92.22 20.77 91.66 18.37 96.14"/><path class="cls-1" d="M69.52,101.11A3.48,3.48,0,0,1,67,102.27c-2.11,0-3.82-2.07-3.82-4.62S64.87,93,67,93a3.69,3.69,0,0,1,3.18,2"/><circle class="cls-10" cx="191.19" cy="66.15" r="13.35"/><path class="cls-7" d="M98.54,137.9s18.25,19.43,27.25,39.33c14.75-82.69,29.08-140.42,47-145.33,6.86-1.89,11.75,17.41,11.75,17.41"/><polyline class="cls-11" points="131.87 171.78 140.67 169.52 138.71 174.71 145.55 178.93 137 179.9 138.71 186.23 131.87 182.68"/></svg>