<svg id="レイヤー_1" data-name="レイヤー 1" xmlns="http://www.w3.org/2000/svg" xmlns:xlink="http://www.w3.org/1999/xlink" viewBox="0 0 218 218"><defs><style>.cls-1,.cls-15,.cls-24,.cls-35,.cls-4{fill:none;}.cls-2{clip-path:url(#clip-path);}.cls-3{fill:#f7f7f7;}.cls-3,.cls-4{stroke:#40210d;}.cls-19,.cls-24,.cls-29,.cls-3,.cls-30,.cls-31,.cls-32,.cls-33,.cls-35,.cls-4{stroke-linecap:round;}.cls-15,.cls-19,.cls-24,.cls-29,.cls-3,.cls-30,.cls-31,.cls-32,.cls-33,.cls-35,.cls-4{stroke-linejoin:round;}.cls-5{fill:#94c035;}.cls-6{fill:#ed801b;}.cls-7{fill:#40210d;}.cls-8{fill:#f29600;}.cls-9{fill:#ffe700;}.cls-10{fill:#0068b1;}.cls-11,.cls-19{fill:#e50012;}.cls-12{fill:#591a85;}.cls-13{fill:#009844;}.cls-14{clip-path:url(#clip-path-2);}.cls-15{stroke:#f8cbd9;stroke-width:19px;}.cls-16{fill:#f8cbd9;}.cls-17{fill:#40210f;}.cls-18{fill:#007bc6;}.cls-19,.cls-24{stroke:#40210f;}.cls-19,.cls-24,.cls-29,.cls-30,.cls-31,.cls-32,.cls-33,.cls-35{stroke-width:2px;}.cls-20{fill:url(#名称未設定グラデーション_42);}.cls-21{fill:url(#名称未設定グラデーション_42-2);}.cls-22{fill:url(#名称未設定グラデーション_42-3);}.cls-23{fill:url(#名称未設定グラデーション_42-4);}.cls-25{fill:#f4a400;}.cls-26{fill:#ae5624;}.cls-27{fill:#fff000;}.cls-28{fill:#fccb00;}.cls-29{fill:#f5dcbe;}.cls-29,.cls-30,.cls-31,.cls-32,.cls-33,.cls-35{stroke:#42210b;}.cls-30{fill:#fff;}.cls-31,.cls-34{fill:#42210b;}.cls-32{fill:#2c3493;}.cls-33{fill:#534741;}</style><clipPath id="clip-path"><rect id="SVGID" class="cls-1" x="-230" y="9" width="200" height="200" rx="10"/></clipPath><clipPath id="clip-path-2"><rect id="SVGID-2" data-name="SVGID" class="cls-1" x="9" y="9" width="200" height="200" rx="10"/></clipPath><linearGradient id="名称未設定グラデーション_42" x1="32.8" y1="65.2" x2="50.47" y2="65.2" gradientTransform="translate(17.91)" gradientUnits="userSpaceOnUse"><stop offset="0" stop-color="#e50012"/><stop offset="1" stop-color="#e62f21"/></linearGradient><linearGradient id="名称未設定グラデーション_42-2" x1="45.07" y1="57.59" x2="61.76" y2="57.59" xlink:href="#名称未設定グラデーション_42"/><linearGradient id="名称未設定グラデーション_42-3" x1="57.84" y1="49.74" x2="104.96" y2="49.74" xlink:href="#名称未設定グラデーション_42"/><linearGradient id="名称未設定グラデーション_42-4" x1="103" y1="60.54" x2="143.74" y2="60.54" xlink:href="#名称未設定グラデーション_42"/></defs><title>25-7-1 サーキット</title><g class="cls-2"><rect class="cls-3" x="-246.07" y="-31.43" width="363.53" height="242.35" transform="translate(-128.62 179.5) rotate(-180)"/><polygon class="cls-4" points="-246.07 210.92 116.02 210.92 135.04 265.65 -264.86 265.65 -246.07 210.92"/><polygon class="cls-5" points="24.94 210.92 116.02 210.92 135.04 265.65 34.46 265.65 24.94 210.92"/><polygon class="cls-6" points="-65.29 265.65 -65.29 265.05 -65.29 210.92 24.94 210.92 34.46 265.65 -65.29 265.65"/><polygon class="cls-4" points="-264.86 265.65 -246.07 210.92 116.02 210.92 135.04 265.65 135.04 289.1 -265.62 289.1 -265.62 265.65 -264.86 265.65"/><line class="cls-4" x1="24.94" y1="210.92" x2="24.94" y2="-31.43"/><circle class="cls-7" cx="70.55" cy="7.66" r="3.91"/><circle class="cls-7" cx="90.09" cy="19.39" r="3.91"/><circle class="cls-7" cx="45.14" cy="42.84" r="3.91"/><circle class="cls-7" cx="99.86" cy="46.75" r="3.91"/><circle class="cls-7" cx="74.46" cy="85.84" r="3.91"/><circle class="cls-7" cx="64.68" cy="35.02" r="3.91"/><circle class="cls-7" cx="47.09" cy="72.16" r="3.91"/><circle class="cls-7" cx="101.82" cy="93.66" r="3.91"/><circle class="cls-7" cx="49.05" cy="109.29" r="3.91"/><circle class="cls-7" cx="43.18" cy="130.79" r="3.91"/><circle class="cls-7" cx="97.91" cy="134.7" r="3.91"/><circle class="cls-7" cx="72.5" cy="173.79" r="3.91"/><circle class="cls-7" cx="74.46" cy="121.02" r="3.91"/><circle class="cls-7" cx="45.14" cy="160.11" r="3.91"/><circle class="cls-7" cx="99.86" cy="181.61" r="3.91"/><circle class="cls-7" cx="47.09" cy="197.24" r="3.91"/><circle class="cls-7" cx="-3.72" cy="15.48" r="3.91"/><circle class="cls-7" cx="6.05" cy="42.84" r="3.91"/><circle class="cls-7" cx="8" cy="89.75" r="3.91"/><circle class="cls-7" cx="4.1" cy="130.79" r="3.91"/><circle class="cls-7" cx="6.05" cy="177.7" r="3.91"/><path class="cls-8" d="M82.27,56.52c2,3.91,3.91,7.82,2,9.77-1,1-4.89-2.93-7.82-3.9s-4.89,1-5.86,0c-2-2,0-7.82-2-9.78S80.32,52.61,82.27,56.52Z"/><path class="cls-9" d="M97.91,15.48s0,5.86-2,7.82-9.77,3.91-11.72,1.95,2-11.73,2-11.73A41.81,41.81,0,0,0,97.91,15.48Z"/><path class="cls-9" d="M111.59,91.7s0,5.87-2,7.82-9.78,3.91-11.73,2,2-11.72,2-11.72A42,42,0,0,0,111.59,91.7Z"/><path class="cls-9" d="M78.36,167.93s0,5.86-2,7.81-9.77,3.91-11.73,2,2-11.73,2-11.73A41.71,41.71,0,0,0,78.36,167.93Z"/><path class="cls-9" d="M6.05,13.52s0,5.87-1.95,7.82-9.78,3.91-11.73,2,2-11.73,2-11.73A42,42,0,0,0,6.05,13.52Z"/><path class="cls-10" d="M76.62,80.46c1.81,2.93,3.61,8.79,1.81,8.79-1.17,0-5.49-1-6.85,2.07-.38.86-2.18-2.07-2.18-2.07a5.88,5.88,0,0,1,0-5.86C73,80.46,74.81,77.54,76.62,80.46Z"/><path class="cls-10" d="M49.26,191.87c1.8,2.93,3.61,8.78,1.8,8.78-1.16,0-5.48-1-6.84,2.08-.38.85-2.19-2.08-2.19-2.08a5.89,5.89,0,0,1,0-5.85C45.65,191.87,47.45,188.94,49.26,191.87Z"/><path class="cls-10" d="M8.21,39.42C10,42.35,11.83,48.2,10,48.2c-1.16,0-5.48-1-6.85,2.08C2.8,51.13,1,48.2,1,48.2a5.86,5.86,0,0,1,0-5.85C4.6,39.42,6.41,36.49,8.21,39.42Z"/><path class="cls-10" d="M76.62,115.64c1.81,2.93,3.61,8.79,1.81,8.79-1.17,0-5.49-1-6.85,2.07-.38.86-2.18-2.07-2.18-2.07a5.88,5.88,0,0,1,0-5.86C73,115.64,74.81,112.72,76.62,115.64Z"/><path class="cls-11" d="M41.23,111.25c0,2.7,2,3.91,6.84,3.91s8.8-3.17,8.8-5.87-4.92-5.86-9.78-5.86S41.23,108.55,41.23,111.25Z"/><path class="cls-12" d="M86.18,5.71,51,1.8S70.55,15.48,78.36,13.52,86.18,5.71,86.18,5.71Z"/><path class="cls-12" d="M109.64,132.75l-35.18-3.91S94,142.52,101.82,140.56,109.64,132.75,109.64,132.75Z"/><path class="cls-12" d="M13.87,126.88-21.31,123S-1.77,136.65,6.05,134.7,13.87,126.88,13.87,126.88Z"/><path class="cls-13" d="M45.14,64.34,41.23,76.07S51,80,53,76.07,45.14,64.34,45.14,64.34Z"/><path class="cls-13" d="M62.73,27.21,58.82,38.93s9.77,3.91,11.73,0S62.73,27.21,62.73,27.21Z"/><path class="cls-13" d="M6.05,81.93,2.14,93.66s9.77,3.91,11.73,0S6.05,81.93,6.05,81.93Z"/><path class="cls-13" d="M4.1,169.88.19,181.61s9.77,3.91,11.72,0S4.1,169.88,4.1,169.88Z"/></g><g class="cls-14"><path class="cls-15" d="M81.91,147.05c-37.64-4.33-65.25-18.51-65.25-35.33C16.66,91.45,56.71,75,106.11,75s89.45,16.42,89.45,36.69c0,11.84-13.67,22.37-34.9,29.08"/><polygon class="cls-16" points="169.19 162.31 158.06 117.51 141.23 145.47 169.19 162.31"/><path class="cls-11" d="M57.83,64.24a1,1,0,0,1-1-1V56.49a1,1,0,0,1,1-1l9.83-.14-.12-6a1,1,0,0,1,.28-.72,1,1,0,0,1,.7-.3l10.21-.13-.07-6a1,1,0,0,1,.29-.71,1,1,0,0,1,.71-.3h41.08a.91.91,0,0,1,.48.13L155,59.83a1,1,0,0,1,.52.88v2.53a1,1,0,0,1-1,1Z"/><path class="cls-17" d="M120.73,42.13l33.8,18.58v2.53H57.83V56.49l10.62-.15.22-.14-.14-6.89,11-.14.22-.14-.08-6.9h41.08m0-2H79.65a2,2,0,0,0-2,2l.06,5-9.21.12a2,2,0,0,0-1.41.61,2,2,0,0,0-.56,1.43l.1,5-8.83.12a2,2,0,0,0-2,2v6.75a2,2,0,0,0,2,2h96.7a2,2,0,0,0,2-2V60.71a2,2,0,0,0-1-1.76l-33.8-18.57a2,2,0,0,0-1-.25Z"/><path class="cls-11" d="M50.71,75.28a1,1,0,0,1-.83-.44,1,1,0,0,1-.09-.94l7.36-17.67a1,1,0,0,1,.88-.62l10.35-.49a1,1,0,0,1,.79.39,1,1,0,0,1,.17.9l-5.4,18.16a1,1,0,0,1-1,.71Z"/><path class="cls-17" d="M68.38,56.12h0m0,0L63,74.28H50.71l7.37-17.67,10.3-.49m0-2h-.11L58,54.62a2,2,0,0,0-1.75,1.22L48.87,73.51a2,2,0,0,0,1.84,2.77H63a2,2,0,0,0,1.92-1.43l5.37-18.06a1.85,1.85,0,0,0,.12-.67,2,2,0,0,0-2-2Zm0,4h0Z"/><path class="cls-11" d="M63,66.94a1,1,0,0,1-.8-.41,1,1,0,0,1-.15-.9l5.4-16.69a1,1,0,0,1,.95-.69H79.67a1,1,0,0,1,1,1.23L76.72,66.17a1,1,0,0,1-1,.77Z"/><path class="cls-17" d="M79.67,49.25h0m0,0L75.75,65.94H63l5.4-16.69H79.67m0-2H68.38a2,2,0,0,0-1.9,1.38l-5.4,16.69A2,2,0,0,0,63,67.94H75.75a2,2,0,0,0,1.94-1.54L81.6,49.81a2.1,2.1,0,0,0,.08-.56,2,2,0,0,0-2-2Zm0,4h0Z"/><path class="cls-18" d="M50.71,83.14a1,1,0,0,1-1-1V74.28a1,1,0,0,1,1-1l11.43-.15L62,66a1,1,0,0,1,.29-.72,1,1,0,0,1,.7-.3l11.85-.15-.07-7.18a1,1,0,0,1,1-1h47.12a1.05,1.05,0,0,1,.49.13l38.77,21.6a1,1,0,0,1,.52.87v3a1,1,0,0,1-1,1Z"/><path class="cls-17" d="M122.87,57.59l38.78,21.6v3H50.71V74.28l12.19-.16.25-.16-.17-8,12.6-.16.25-.17-.08-8h47.12m0-2H75.75a2,2,0,0,0-1.43.6,2,2,0,0,0-.57,1.43l.06,6.18L63,63.94a2,2,0,0,0-2,2l.13,6.16-10.42.14a2,2,0,0,0-2,2v7.86a2,2,0,0,0,2,2H161.65a2,2,0,0,0,2-2v-3a2,2,0,0,0-1-1.74l-38.78-21.6a1.93,1.93,0,0,0-1-.26Z"/><path class="cls-11" d="M75.75,58.59a1,1,0,0,1-.79-.38,1,1,0,0,1-.18-.86L78.7,41.64a1,1,0,0,1,1-.75h41.24a1,1,0,0,1,1,.87l2,15.71a1,1,0,0,1-.24.79,1,1,0,0,1-.75.33Z"/><path class="cls-17" d="M120.91,41.89l2,15.7H75.75l3.92-15.7h41.24m0-2H79.67a2,2,0,0,0-1.94,1.51L73.81,57.11a2,2,0,0,0,1.94,2.48h47.12a2,2,0,0,0,1.5-.67,2,2,0,0,0,.48-1.57l-2-15.71a2,2,0,0,0-2-1.75Z"/><path class="cls-11" d="M161.65,80.19a1,1,0,0,1-.49-.12l-38.78-21.6a1,1,0,0,1-.5-.75l-2-15.71a1,1,0,0,1,.43-.95,1,1,0,0,1,.57-.17,1,1,0,0,1,.48.12l33.87,18.65a1,1,0,0,1,.45.53l6.88,18.66a1,1,0,0,1-.94,1.34Z"/><path class="cls-17" d="M120.91,41.89l33.87,18.65,6.87,18.65-38.78-21.6-2-15.7m0-2a2,2,0,0,0-2,2.24l2,15.71a2,2,0,0,0,1,1.5l38.77,21.6a2,2,0,0,0,2.85-2.44l-6.87-18.65a2,2,0,0,0-.91-1.06L121.87,40.13a2,2,0,0,0-1-.24Z"/><polygon class="cls-19" points="68.45 56.34 68.67 56.2 68.53 49.31 79.51 49.17 79.73 49.03 79.65 42.13 90.35 42.13 120.73 42.13 154.53 60.71 154.53 63.24 120.73 63.24 90.35 63.24 57.83 63.24 57.83 56.48 68.45 56.34"/><polygon class="cls-20" points="68.38 56.12 58.08 56.61 50.71 74.28 62.98 74.28 68.38 56.12"/><polygon class="cls-21" points="79.67 49.25 68.38 49.25 62.98 65.94 75.75 65.94 79.67 49.25"/><polygon class="cls-18" points="62.9 74.12 63.15 73.96 62.98 65.94 75.58 65.78 75.83 65.61 75.75 57.59 88.02 57.59 122.87 57.59 161.65 79.19 161.65 82.14 122.87 82.14 88.02 82.14 50.71 82.14 50.71 74.28 62.9 74.12"/><polygon class="cls-22" points="75.75 57.59 122.87 57.59 120.91 41.89 79.67 41.89 75.75 57.59"/><polygon class="cls-23" points="122.87 57.59 161.65 79.19 154.78 60.54 120.91 41.89 122.87 57.59"/><polyline class="cls-24" points="123.71 82.14 122.87 57.59 120.91 41.89"/><polyline class="cls-24" points="89.08 82.14 88.17 57.5 89.78 41.6"/><path class="cls-6" d="M167.14,104.3a2.75,2.75,0,0,1-2.23-1l-3.55-4.67a1.42,1.42,0,0,1-.12-1.51,1.67,1.67,0,0,1,1.48-.94h7.07a1.39,1.39,0,0,1,1.07.49l4.31,5.19a1.4,1.4,0,0,1,.16,1.52,1.65,1.65,0,0,1-1.49,1Z"/><path class="cls-17" d="M169.79,97.13a.37.37,0,0,1,.3.13l4.31,5.19c.25.3-.11.85-.56.85h-6.7a1.74,1.74,0,0,1-1.43-.65L162.15,98c-.23-.31.13-.85.57-.85h7.07m0-2h-7.07a2.67,2.67,0,0,0-2.37,1.49,2.43,2.43,0,0,0,.21,2.57l3.56,4.67a3.74,3.74,0,0,0,3,1.44h6.7a2.67,2.67,0,0,0,2.4-1.55,2.39,2.39,0,0,0-.3-2.58L171.63,96a2.38,2.38,0,0,0-1.84-.85Z"/><path class="cls-25" d="M170.19,103.64a8.59,8.59,0,0,1-6.17-2.85,2.42,2.42,0,0,1-.48-2.61l2.87-16.42a1.49,1.49,0,0,1,2.93,0l3.76,19.14a2.6,2.6,0,0,1,.06.3,2,2,0,0,1-.51,1.6A3.15,3.15,0,0,1,170.19,103.64Z"/><path class="cls-17" d="M167.88,81.52a.48.48,0,0,1,.48.4l3.76,19.14a2.07,2.07,0,0,1,0,.22v0h0c.08.79-.63,1.34-2,1.34a7.59,7.59,0,0,1-5.37-2.46c-.51-.66-.59-1.25-.33-1.67h0l2.9-16.58a.49.49,0,0,1,.49-.41m0-2h0a2.49,2.49,0,0,0-2.46,2.07l-2.85,16.29a3.53,3.53,0,0,0,.66,3.52,9.54,9.54,0,0,0,7,3.24,4.11,4.11,0,0,0,3.2-1.2,3,3,0,0,0,.77-2.23,1.94,1.94,0,0,0,0-.24c0-.12,0-.23-.07-.35l-3.74-19.08a2.48,2.48,0,0,0-2.45-2Z"/><path class="cls-25" d="M203.38,103.81a11.25,11.25,0,0,1-6.91-2.84c-1.26-1.23-1.22-2.22-1-2.74l3.77-16.67a1.53,1.53,0,0,1,3,0L206,101.17a2.83,2.83,0,0,1,.09.37v0a1.81,1.81,0,0,1-.43,1.42A3,3,0,0,1,203.38,103.81Z"/><path class="cls-17" d="M200.69,81.39a.52.52,0,0,1,.52.41l3.85,19.63a.92.92,0,0,1,.07.26h0c.08.67-.52,1.12-1.75,1.12a10.26,10.26,0,0,1-6.21-2.56c-.71-.68-.95-1.3-.78-1.74h0l3.78-16.73a.54.54,0,0,1,.52-.39m0-2h0a2.53,2.53,0,0,0-2.44,1.82l0,.13L194.47,98c-.25.78-.31,2.16,1.3,3.73a12.19,12.19,0,0,0,7.61,3.12,3.88,3.88,0,0,0,3.05-1.15,2.78,2.78,0,0,0,.69-2.16v-.06a2.46,2.46,0,0,0-.11-.51l-3.82-19.51a.44.44,0,0,1,0-.1,2.54,2.54,0,0,0-2.47-1.93Z"/><path class="cls-6" d="M200.25,104.3a3.24,3.24,0,0,1-2.29-.94l-4.77-4.67a1.49,1.49,0,0,1,1.05-2.56h7.07a1.48,1.48,0,0,1,1,.39l5.65,5.19a1.47,1.47,0,0,1,.38,1.64,1.49,1.49,0,0,1-1.39,1Z"/><path class="cls-17" d="M201.31,97.13a.46.46,0,0,1,.33.13l5.66,5.19a.49.49,0,0,1-.34.85h-6.71a2.26,2.26,0,0,1-1.59-.65L193.89,98a.5.5,0,0,1,.35-.85h7.07m0-2h-7.07a2.49,2.49,0,0,0-1.75,4.27l4.77,4.68a4.24,4.24,0,0,0,3,1.22H207a2.48,2.48,0,0,0,2.32-1.59,2.45,2.45,0,0,0-.63-2.73L203,95.78a2.52,2.52,0,0,0-1.69-.65Z"/><path class="cls-25" d="M203.38,103.81a11.25,11.25,0,0,1-6.91-2.84c-1.26-1.23-1.22-2.22-1-2.74l3.77-16.67a1.53,1.53,0,0,1,3,0L206,101.17a2.83,2.83,0,0,1,.09.37v0a1.81,1.81,0,0,1-.43,1.42A3,3,0,0,1,203.38,103.81Z"/><path class="cls-17" d="M200.69,81.39a.52.52,0,0,1,.52.41l3.85,19.63a.92.92,0,0,1,.07.26h0c.08.67-.52,1.12-1.75,1.12a10.26,10.26,0,0,1-6.21-2.56c-.71-.68-.95-1.3-.78-1.74h0l3.78-16.73a.54.54,0,0,1,.52-.39m0-2h0a2.53,2.53,0,0,0-2.44,1.82l0,.13L194.47,98c-.25.78-.31,2.16,1.3,3.73a12.19,12.19,0,0,0,7.61,3.12,3.88,3.88,0,0,0,3.05-1.15,2.78,2.78,0,0,0,.69-2.16v-.06a2.46,2.46,0,0,0-.11-.51l-3.82-19.51a.44.44,0,0,1,0-.1,2.54,2.54,0,0,0-2.47-1.93Z"/><ellipse class="cls-26" cx="201.91" cy="88.88" rx="1.41" ry="1.72"/><path class="cls-17" d="M201.91,88.16c.23,0,.41.33.41.72s-.18.73-.41.73-.4-.33-.4-.73.18-.72.4-.72m0-2a2.75,2.75,0,1,0,2.41,2.72,2.55,2.55,0,0,0-2.41-2.72Z"/><path class="cls-6" d="M167.14,104.3a2.75,2.75,0,0,1-2.23-1l-3.55-4.67a1.42,1.42,0,0,1-.12-1.51,1.67,1.67,0,0,1,1.48-.94h7.07a1.39,1.39,0,0,1,1.07.49l4.31,5.19a1.4,1.4,0,0,1,.16,1.52,1.65,1.65,0,0,1-1.49,1Z"/><path class="cls-17" d="M169.79,97.13a.37.37,0,0,1,.3.13l4.31,5.19c.25.3-.11.85-.56.85h-6.7a1.74,1.74,0,0,1-1.43-.65L162.15,98c-.23-.31.13-.85.57-.85h7.07m0-2h-7.07a2.67,2.67,0,0,0-2.37,1.49,2.43,2.43,0,0,0,.21,2.57l3.56,4.67a3.74,3.74,0,0,0,3,1.44h6.7a2.67,2.67,0,0,0,2.4-1.55,2.39,2.39,0,0,0-.3-2.58L171.63,96a2.38,2.38,0,0,0-1.84-.85Z"/><path class="cls-25" d="M170.19,103.64a8.59,8.59,0,0,1-6.17-2.85,2.42,2.42,0,0,1-.48-2.61l2.87-16.42a1.49,1.49,0,0,1,2.93,0l3.76,19.14a2.6,2.6,0,0,1,.06.3,2,2,0,0,1-.51,1.6A3.15,3.15,0,0,1,170.19,103.64Z"/><path class="cls-17" d="M167.88,81.52a.48.48,0,0,1,.48.4l3.76,19.14a2.07,2.07,0,0,1,0,.22v0h0c.08.79-.63,1.34-2,1.34a7.59,7.59,0,0,1-5.37-2.46c-.51-.66-.59-1.25-.33-1.67h0l2.9-16.58a.49.49,0,0,1,.49-.41m0-2h0a2.49,2.49,0,0,0-2.46,2.07l-2.85,16.29a3.53,3.53,0,0,0,.66,3.52,9.54,9.54,0,0,0,7,3.24,4.11,4.11,0,0,0,3.2-1.2,3,3,0,0,0,.77-2.23,1.94,1.94,0,0,0,0-.24c0-.12,0-.23-.07-.35l-3.74-19.08a2.48,2.48,0,0,0-2.45-2Z"/><ellipse class="cls-26" cx="168.84" cy="88.88" rx="1.41" ry="1.72"/><path class="cls-17" d="M168.84,88.16c.23,0,.41.33.41.72s-.18.73-.41.73-.4-.33-.4-.73.18-.72.4-.72m0-2a2.75,2.75,0,1,0,2.41,2.72,2.55,2.55,0,0,0-2.41-2.72Z"/><path class="cls-26" d="M202.54,94.93a1.76,1.76,0,1,1,1.4-1.72A1.56,1.56,0,0,1,202.54,94.93Z"/><path class="cls-17" d="M202.54,92.49c.22,0,.4.32.4.72s-.18.72-.4.72-.41-.32-.41-.72.19-.72.41-.72m0-2a2.74,2.74,0,1,0,2.4,2.72,2.55,2.55,0,0,0-2.4-2.72Z"/><path class="cls-26" d="M169.52,94.93a1.75,1.75,0,1,1,1.41-1.72A1.55,1.55,0,0,1,169.52,94.93Z"/><path class="cls-17" d="M169.52,92.49c.23,0,.41.32.41.72s-.18.72-.41.72-.4-.32-.4-.72.18-.72.4-.72m0-2a2.74,2.74,0,1,0,2.41,2.72,2.55,2.55,0,0,0-2.41-2.72Z"/><ellipse class="cls-26" cx="203.03" cy="97.75" rx="1.41" ry="1.72"/><path class="cls-17" d="M203,97c.23,0,.41.32.41.72s-.18.72-.41.72-.4-.32-.4-.72.18-.72.4-.72m0-2a2.74,2.74,0,1,0,2.41,2.72A2.54,2.54,0,0,0,203,95Z"/><ellipse class="cls-26" cx="170.12" cy="97.75" rx="1.41" ry="1.72"/><path class="cls-17" d="M170.12,97c.22,0,.4.32.4.72s-.18.72-.4.72-.41-.32-.41-.72.18-.72.41-.72m0-2a2.74,2.74,0,1,0,2.4,2.72,2.55,2.55,0,0,0-2.4-2.72Z"/><path class="cls-27" d="M168.15,85.34a3.26,3.26,0,0,1-1.62-.54,1,1,0,0,1-.48-1l.36-2a1.49,1.49,0,0,1,2.93,0l.4,2a.89.89,0,0,1,0,.43A1.59,1.59,0,0,1,168.15,85.34Z"/><path class="cls-17" d="M167.88,81.52a.48.48,0,0,1,.48.4l.4,2a.59.59,0,0,1-.61.4,2.28,2.28,0,0,1-1.11-.4l.35-2a.49.49,0,0,1,.49-.41m0-2h0a2.49,2.49,0,0,0-2.46,2.07l-.35,2a2,2,0,0,0,1,2.06,4.17,4.17,0,0,0,2.13.68,2.58,2.58,0,0,0,2.55-1.92,1.92,1.92,0,0,0,0-.86l-.39-2a2.48,2.48,0,0,0-2.45-2Z"/><path class="cls-27" d="M200.85,85.24a3.26,3.26,0,0,1-1.62-.54,1,1,0,0,1-.48-1l.36-2a1.49,1.49,0,0,1,2.93,0l.4,2a1,1,0,0,1,0,.43A1.59,1.59,0,0,1,200.85,85.24Z"/><path class="cls-17" d="M200.58,81.42a.49.49,0,0,1,.48.4l.4,2a.59.59,0,0,1-.61.4,2.28,2.28,0,0,1-1.11-.4l.35-2a.49.49,0,0,1,.49-.41m0-2h0a2.49,2.49,0,0,0-2.46,2.07l-.35,2a2,2,0,0,0,.95,2.06,4.17,4.17,0,0,0,2.13.68,2.58,2.58,0,0,0,2.55-1.92,1.92,1.92,0,0,0,0-.86l-.39-2a2.48,2.48,0,0,0-2.45-2Z"/><path class="cls-27" d="M156.88,93.58a1.5,1.5,0,1,1,0-3H211a1.5,1.5,0,0,1,0,3Z"/><path class="cls-17" d="M211,91.58a.51.51,0,0,1,.5.5.5.5,0,0,1-.5.5H156.88a.5.5,0,0,1-.51-.5.51.51,0,0,1,.51-.5H211m0-2H156.88a2.5,2.5,0,1,0,0,5H211a2.5,2.5,0,0,0,0-5Z"/><path class="cls-6" d="M169.79,97.13h-7.07c-.44,0-.8.54-.57.85l3.56,4.67a1.74,1.74,0,0,0,1.43.65h6.7c.45,0,.81-.55.56-.85l-4.31-5.19A.37.37,0,0,0,169.79,97.13Z"/><path class="cls-25" d="M164.49,98.51h0l2.9-16.58a.49.49,0,0,1,1,0l3.76,19.14a2.07,2.07,0,0,1,0,.22v0h0c.08.79-.63,1.34-2,1.34a7.59,7.59,0,0,1-5.37-2.46C164.31,99.52,164.23,98.93,164.49,98.51Z"/><path class="cls-25" d="M196.39,98.51h0l3.78-16.73a.54.54,0,0,1,1,0l3.85,19.63a.92.92,0,0,1,.07.26h0c.08.67-.52,1.12-1.75,1.12a10.31,10.31,0,0,1-6.21-2.55C196.46,99.57,196.22,99,196.39,98.51Z"/><path class="cls-6" d="M201.31,97.13h-7.07a.5.5,0,0,0-.35.85l4.77,4.67a2.26,2.26,0,0,0,1.59.65H207a.49.49,0,0,0,.34-.85l-5.66-5.19A.46.46,0,0,0,201.31,97.13Z"/><path class="cls-25" d="M196.39,98.51h0l3.78-16.73a.54.54,0,0,1,1,0l3.85,19.63a.92.92,0,0,1,.07.26h0c.08.67-.52,1.12-1.75,1.12a10.31,10.31,0,0,1-6.21-2.55C196.46,99.57,196.22,99,196.39,98.51Z"/><ellipse class="cls-26" cx="201.91" cy="88.88" rx="0.41" ry="0.72"/><path class="cls-6" d="M169.79,97.13h-7.07c-.44,0-.8.54-.57.85l3.56,4.67a1.74,1.74,0,0,0,1.43.65h6.7c.45,0,.81-.55.56-.85l-4.31-5.19A.37.37,0,0,0,169.79,97.13Z"/><path class="cls-25" d="M164.49,98.51h0l2.9-16.58a.49.49,0,0,1,1,0l3.76,19.14a2.07,2.07,0,0,1,0,.22v0h0c.08.79-.63,1.34-2,1.34a7.59,7.59,0,0,1-5.37-2.46C164.31,99.52,164.23,98.93,164.49,98.51Z"/><ellipse class="cls-26" cx="168.84" cy="88.88" rx="0.41" ry="0.72"/><ellipse class="cls-26" cx="202.54" cy="93.21" rx="0.41" ry="0.72"/><ellipse class="cls-26" cx="169.52" cy="93.21" rx="0.41" ry="0.72"/><ellipse class="cls-26" cx="203.03" cy="97.75" rx="0.41" ry="0.72"/><ellipse class="cls-26" cx="170.12" cy="97.75" rx="0.41" ry="0.72"/><path class="cls-27" d="M167,83.94l.35-2a.49.49,0,0,1,1,0l.4,2h0S168.54,84.83,167,83.94Z"/><path class="cls-27" d="M199.74,83.84l.35-2a.49.49,0,0,1,1,0l.4,2h0S201.24,84.73,199.74,83.84Z"/><path class="cls-27" d="M156.88,92.58H211a.5.5,0,0,0,.5-.5.51.51,0,0,0-.5-.5H156.88a.51.51,0,0,0-.51.5A.5.5,0,0,0,156.88,92.58Z"/><path class="cls-6" d="M175.34,120.6a2.91,2.91,0,0,1-2.36-1.11l-3.89-5.11a1.48,1.48,0,0,1-.12-1.56,1.75,1.75,0,0,1,1.53-1h7.74a1.46,1.46,0,0,1,1.1.5l4.72,5.69a1.46,1.46,0,0,1,.17,1.56,1.78,1.78,0,0,1-1.56,1Z"/><path class="cls-17" d="M178.24,112.84a.4.4,0,0,1,.33.15l4.72,5.68c.27.33-.12.93-.62.93h-7.33a1.9,1.9,0,0,1-1.56-.71l-3.9-5.12c-.25-.34.14-.93.62-.93h7.74m0-2H170.5a2.76,2.76,0,0,0-2.43,1.53,2.48,2.48,0,0,0,.22,2.61l3.9,5.12a3.9,3.9,0,0,0,3.15,1.5h7.33a2.72,2.72,0,0,0,2.46-1.59,2.44,2.44,0,0,0-.3-2.62l-4.72-5.68a2.43,2.43,0,0,0-1.87-.87Z"/><path class="cls-25" d="M178.68,119.88a9.27,9.27,0,0,1-6.67-3.09,2.56,2.56,0,0,1-.52-2.77l3.14-18a1.54,1.54,0,0,1,3,0L181.77,117a1.91,1.91,0,0,1,.06.27s0,.06,0,.08a2.08,2.08,0,0,1-.54,1.64A3.42,3.42,0,0,1,178.68,119.88Z"/><path class="cls-17" d="M176.15,95.76a.53.53,0,0,1,.53.44l4.11,21a2,2,0,0,1,.05.24v0h0c.09.87-.69,1.47-2.16,1.47a8.32,8.32,0,0,1-5.88-2.7c-.55-.72-.64-1.36-.35-1.83h0l3.17-18.14a.52.52,0,0,1,.53-.45m0-2a2.53,2.53,0,0,0-2.5,2.11l-3.12,17.85a3.66,3.66,0,0,0,.68,3.68,10.26,10.26,0,0,0,7.47,3.48,4.27,4.27,0,0,0,3.36-1.26,3,3,0,0,0,.8-2.3,1,1,0,0,0,0-.24,2.2,2.2,0,0,0-.07-.37l-4.1-20.9a2.51,2.51,0,0,0-2.49-2Z"/><path class="cls-25" d="M215,120.06a12.16,12.16,0,0,1-7.5-3.08c-1.35-1.31-1.3-2.36-1.11-2.91l4.12-18.25a1.59,1.59,0,0,1,3.09,0l4.21,21.46a2.37,2.37,0,0,1,.09.36.15.15,0,0,0,0,.07,1.9,1.9,0,0,1-.46,1.49A3.16,3.16,0,0,1,215,120.06Z"/><path class="cls-17" d="M212.06,95.62a.59.59,0,0,1,.58.45l4.21,21.48a1,1,0,0,1,.07.29h0c.09.73-.57,1.22-1.91,1.22a11.33,11.33,0,0,1-6.8-2.79c-.78-.76-1-1.43-.85-1.92h0L211.5,96a.57.57,0,0,1,.56-.42m0-2h0a2.57,2.57,0,0,0-2.48,1.85l0,.13-4.11,18.2c-.25.81-.32,2.25,1.38,3.9a13.38,13.38,0,0,0,8.2,3.36,4.08,4.08,0,0,0,3.2-1.19,2.84,2.84,0,0,0,.7-2.22v-.06a3.49,3.49,0,0,0-.12-.54L214.6,95.68s0-.06,0-.09a2.59,2.59,0,0,0-2.52-2Z"/><path class="cls-6" d="M211.59,120.6a3.51,3.51,0,0,1-2.45-1l-5.22-5.12a1.55,1.55,0,0,1,1.08-2.64h7.74a1.53,1.53,0,0,1,1,.41l6.19,5.68a1.52,1.52,0,0,1,.39,1.68,1.54,1.54,0,0,1-1.44,1Z"/><path class="cls-17" d="M212.74,112.84a.51.51,0,0,1,.37.15l6.19,5.68a.54.54,0,0,1-.38.93h-7.33a2.53,2.53,0,0,1-1.75-.71l-5.22-5.12a.55.55,0,0,1,.38-.93h7.74m0-2H205a2.55,2.55,0,0,0-1.78,4.36l5.22,5.11a4.47,4.47,0,0,0,3.15,1.29h7.33a2.54,2.54,0,0,0,1.73-4.41l-6.19-5.68a2.54,2.54,0,0,0-1.72-.67Z"/><path class="cls-25" d="M215,120.06a12.16,12.16,0,0,1-7.5-3.08c-1.35-1.31-1.3-2.36-1.11-2.91l4.12-18.25a1.59,1.59,0,0,1,3.09,0l4.21,21.46a2.37,2.37,0,0,1,.09.36.15.15,0,0,0,0,.07,1.9,1.9,0,0,1-.46,1.49A3.16,3.16,0,0,1,215,120.06Z"/><path class="cls-17" d="M212.06,95.62a.59.59,0,0,1,.58.45l4.21,21.48a1,1,0,0,1,.07.29h0c.09.73-.57,1.22-1.91,1.22a11.33,11.33,0,0,1-6.8-2.79c-.78-.76-1-1.43-.85-1.92h0L211.5,96a.57.57,0,0,1,.56-.42m0-2h0a2.57,2.57,0,0,0-2.48,1.85l0,.13-4.11,18.2c-.25.81-.32,2.25,1.38,3.9a13.38,13.38,0,0,0,8.2,3.36,4.08,4.08,0,0,0,3.2-1.19,2.84,2.84,0,0,0,.7-2.22v-.06a3.49,3.49,0,0,0-.12-.54L214.6,95.68s0-.06,0-.09a2.59,2.59,0,0,0-2.52-2Z"/><path class="cls-26" d="M213.4,105.61a1.83,1.83,0,1,1,1.45-1.79A1.61,1.61,0,0,1,213.4,105.61Z"/><path class="cls-17" d="M213.4,103c.25,0,.45.35.45.79s-.2.79-.45.79-.44-.35-.44-.79.2-.79.44-.79m0-2a2.81,2.81,0,1,0,2.45,2.79A2.58,2.58,0,0,0,213.4,101Z"/><path class="cls-6" d="M175.34,120.6a2.91,2.91,0,0,1-2.36-1.11l-3.89-5.11a1.48,1.48,0,0,1-.12-1.56,1.75,1.75,0,0,1,1.53-1h7.74a1.46,1.46,0,0,1,1.1.5l4.72,5.69a1.46,1.46,0,0,1,.17,1.56,1.78,1.78,0,0,1-1.56,1Z"/><path class="cls-17" d="M178.24,112.84a.4.4,0,0,1,.33.15l4.72,5.68c.27.33-.12.93-.62.93h-7.33a1.9,1.9,0,0,1-1.56-.71l-3.9-5.12c-.25-.34.14-.93.62-.93h7.74m0-2H170.5a2.76,2.76,0,0,0-2.43,1.53,2.48,2.48,0,0,0,.22,2.61l3.9,5.12a3.9,3.9,0,0,0,3.15,1.5h7.33a2.72,2.72,0,0,0,2.46-1.59,2.44,2.44,0,0,0-.3-2.62l-4.72-5.68a2.43,2.43,0,0,0-1.87-.87Z"/><path class="cls-25" d="M178.68,119.88a9.27,9.27,0,0,1-6.67-3.09,2.56,2.56,0,0,1-.52-2.77l3.14-18a1.54,1.54,0,0,1,3,0L181.77,117a1.91,1.91,0,0,1,.06.27s0,.06,0,.08a2.08,2.08,0,0,1-.54,1.64A3.42,3.42,0,0,1,178.68,119.88Z"/><path class="cls-17" d="M176.15,95.76a.53.53,0,0,1,.53.44l4.11,21a2,2,0,0,1,.05.24v0h0c.09.87-.69,1.47-2.16,1.47a8.32,8.32,0,0,1-5.88-2.7c-.55-.72-.64-1.36-.35-1.83h0l3.17-18.14a.52.52,0,0,1,.53-.45m0-2a2.53,2.53,0,0,0-2.5,2.11l-3.12,17.85a3.66,3.66,0,0,0,.68,3.68,10.26,10.26,0,0,0,7.47,3.48,4.27,4.27,0,0,0,3.36-1.26,3,3,0,0,0,.8-2.3,1,1,0,0,0,0-.24,2.2,2.2,0,0,0-.07-.37l-4.1-20.9a2.51,2.51,0,0,0-2.49-2Z"/><path class="cls-26" d="M177.21,105.61a1.83,1.83,0,1,1,1.44-1.79A1.61,1.61,0,0,1,177.21,105.61Z"/><path class="cls-17" d="M177.21,103c.24,0,.44.35.44.79s-.2.79-.44.79-.45-.35-.45-.79.2-.79.45-.79m0-2a2.82,2.82,0,1,0,2.44,2.79,2.58,2.58,0,0,0-2.44-2.79Z"/><ellipse class="cls-26" cx="214.09" cy="108.55" rx="1.44" ry="1.79"/><path class="cls-17" d="M214.09,107.76c.24,0,.44.36.44.79s-.2.79-.44.79-.44-.35-.44-.79.19-.79.44-.79m0-2a2.82,2.82,0,1,0,2.44,2.79,2.58,2.58,0,0,0-2.44-2.79Z"/><ellipse class="cls-26" cx="177.95" cy="108.55" rx="1.44" ry="1.79"/><path class="cls-17" d="M178,107.76c.25,0,.45.36.45.79s-.2.79-.45.79-.44-.35-.44-.79.2-.79.44-.79m0-2a2.81,2.81,0,1,0,2.45,2.79,2.58,2.58,0,0,0-2.45-2.79Z"/><ellipse class="cls-26" cx="214.63" cy="113.52" rx="1.44" ry="1.79"/><path class="cls-17" d="M214.63,112.73c.24,0,.44.36.44.79s-.2.79-.44.79-.45-.35-.45-.79.2-.79.45-.79m0-2a2.82,2.82,0,1,0,2.44,2.79,2.58,2.58,0,0,0-2.44-2.79Z"/><ellipse class="cls-26" cx="178.6" cy="113.52" rx="1.44" ry="1.79"/><path class="cls-17" d="M178.6,112.73c.25,0,.45.36.45.79s-.2.79-.45.79-.44-.35-.44-.79.2-.79.44-.79m0-2a2.81,2.81,0,1,0,2.45,2.79,2.58,2.58,0,0,0-2.45-2.79Z"/><path class="cls-27" d="M176.45,99.84a3.41,3.41,0,0,1-1.73-.57,1,1,0,0,1-.47-1l.38-2.2a1.54,1.54,0,0,1,3,0l.44,2.21a1,1,0,0,1,0,.43A1.65,1.65,0,0,1,176.45,99.84Z"/><path class="cls-17" d="M176.15,95.76a.53.53,0,0,1,.53.44l.44,2.21a.64.64,0,0,1-.67.43,2.56,2.56,0,0,1-1.22-.43l.39-2.2a.52.52,0,0,1,.53-.45m0-2a2.53,2.53,0,0,0-2.5,2.11l-.39,2.2a2,2,0,0,0,1,2.06,4.36,4.36,0,0,0,2.23.71,2.64,2.64,0,0,0,2.61-2,2.08,2.08,0,0,0,0-.86l-.44-2.22a2.51,2.51,0,0,0-2.49-2Z"/><path class="cls-27" d="M212.24,99.73a3.38,3.38,0,0,1-1.72-.57,1,1,0,0,1-.48-1l.38-2.2a1.54,1.54,0,0,1,3,0l.44,2.21a1,1,0,0,1,0,.43A1.65,1.65,0,0,1,212.24,99.73Z"/><path class="cls-17" d="M211.94,95.65a.53.53,0,0,1,.53.44l.44,2.21a.64.64,0,0,1-.67.43A2.56,2.56,0,0,1,211,98.3l.39-2.2a.52.52,0,0,1,.53-.45m0-2h0a2.53,2.53,0,0,0-2.5,2.11l-.39,2.2a2,2,0,0,0,1,2.06,4.39,4.39,0,0,0,2.23.71,2.64,2.64,0,0,0,2.61-2,2.08,2.08,0,0,0,0-.86l-.44-2.22a2.51,2.51,0,0,0-2.49-2Z"/><path class="cls-27" d="M164.11,108.87a1.55,1.55,0,0,1,0-3.1h59.27a1.55,1.55,0,1,1,0,3.1Z"/><path class="cls-17" d="M223.38,106.77a.55.55,0,1,1,0,1.1H164.11a.55.55,0,1,1,0-1.1h59.27m0-2H164.11a2.55,2.55,0,1,0,0,5.1h59.27a2.55,2.55,0,1,0,0-5.1Z"/><path class="cls-6" d="M178.24,112.84H170.5c-.48,0-.87.59-.62.93l3.9,5.12a1.9,1.9,0,0,0,1.56.71h7.33c.5,0,.89-.6.62-.93L178.57,113A.4.4,0,0,0,178.24,112.84Z"/><path class="cls-25" d="M172.45,114.35h0l3.17-18.14a.54.54,0,0,1,1.06,0l4.11,21a2,2,0,0,1,.05.24v0h0c.09.87-.69,1.47-2.16,1.47a8.32,8.32,0,0,1-5.88-2.7C172.25,115.46,172.16,114.82,172.45,114.35Z"/><path class="cls-25" d="M207.36,114.35h0L211.5,96a.59.59,0,0,1,1.14,0l4.21,21.48a1,1,0,0,1,.07.28h0c.09.73-.57,1.22-1.91,1.22a11.33,11.33,0,0,1-6.8-2.79C207.43,115.51,207.17,114.84,207.36,114.35Z"/><path class="cls-6" d="M212.74,112.84H205a.55.55,0,0,0-.38.93l5.22,5.12a2.53,2.53,0,0,0,1.75.71h7.33a.54.54,0,0,0,.38-.93L213.11,113A.51.51,0,0,0,212.74,112.84Z"/><path class="cls-25" d="M207.36,114.35h0L211.5,96a.59.59,0,0,1,1.14,0l4.21,21.48a1,1,0,0,1,.07.28h0c.09.73-.57,1.22-1.91,1.22a11.33,11.33,0,0,1-6.8-2.79C207.43,115.51,207.17,114.84,207.36,114.35Z"/><ellipse class="cls-26" cx="213.4" cy="103.82" rx="0.44" ry="0.79"/><path class="cls-6" d="M178.24,112.84H170.5c-.48,0-.87.59-.62.93l3.9,5.12a1.9,1.9,0,0,0,1.56.71h7.33c.5,0,.89-.6.62-.93L178.57,113A.4.4,0,0,0,178.24,112.84Z"/><path class="cls-25" d="M172.45,114.35h0l3.17-18.14a.54.54,0,0,1,1.06,0l4.11,21a2,2,0,0,1,.05.24v0h0c.09.87-.69,1.47-2.16,1.47a8.32,8.32,0,0,1-5.88-2.7C172.25,115.46,172.16,114.82,172.45,114.35Z"/><ellipse class="cls-26" cx="177.21" cy="103.82" rx="0.44" ry="0.79"/><ellipse class="cls-26" cx="214.09" cy="108.55" rx="0.44" ry="0.79"/><ellipse class="cls-26" cx="177.95" cy="108.55" rx="0.44" ry="0.79"/><ellipse class="cls-26" cx="214.63" cy="113.52" rx="0.44" ry="0.79"/><ellipse class="cls-26" cx="178.6" cy="113.52" rx="0.44" ry="0.79"/><path class="cls-27" d="M175.23,98.41l.39-2.2a.54.54,0,0,1,1.06,0l.44,2.21h0S176.88,99.38,175.23,98.41Z"/><path class="cls-27" d="M211,98.3l.39-2.2a.54.54,0,0,1,1.06,0l.44,2.21h0S212.67,99.27,211,98.3Z"/><path class="cls-27" d="M164.11,107.87h59.27a.55.55,0,1,0,0-1.1H164.11a.55.55,0,1,0,0,1.1Z"/><path class="cls-6" d="M185.67,141.71a3,3,0,0,1-2.44-1.15l-4.12-5.41a1.49,1.49,0,0,1-.12-1.59,1.79,1.79,0,0,1,1.57-1h8.18a1.44,1.44,0,0,1,1.12.52l5,6a1.48,1.48,0,0,1,.17,1.59,1.8,1.8,0,0,1-1.59,1Z"/><path class="cls-17" d="M188.74,133.56a.46.46,0,0,1,.35.15l5,6c.29.35-.13,1-.65,1h-7.76A2,2,0,0,1,184,140l-4.12-5.41c-.27-.35.15-1,.66-1h8.18m0-2h-8.18a2.79,2.79,0,0,0-2.47,1.56,2.51,2.51,0,0,0,.22,2.64l4.12,5.41a4,4,0,0,0,3.24,1.54h7.76a2.78,2.78,0,0,0,2.5-1.61,2.49,2.49,0,0,0-.31-2.66l-5-6a2.43,2.43,0,0,0-1.89-.88Z"/><path class="cls-25" d="M189.2,141a9.75,9.75,0,0,1-7-3.25,2.65,2.65,0,0,1-.53-2.87l3.32-19a1.57,1.57,0,0,1,3.09,0l4.35,22.16a2,2,0,0,1,.06.29s0,.05,0,.08a2.17,2.17,0,0,1-.55,1.68A3.61,3.61,0,0,1,189.2,141Z"/><path class="cls-17" d="M186.53,115.5a.55.55,0,0,1,.56.46l4.35,22.16c0,.09,0,.17.05.25v0h0c.09.92-.73,1.56-2.29,1.56a8.75,8.75,0,0,1-6.21-2.86,1.69,1.69,0,0,1-.38-1.93h0L186,116a.55.55,0,0,1,.56-.48m0-2h0a2.57,2.57,0,0,0-2.53,2.13l-3.31,18.9a3.77,3.77,0,0,0,.71,3.78,10.68,10.68,0,0,0,7.8,3.64,4.46,4.46,0,0,0,3.48-1.3,3.14,3.14,0,0,0,.81-2.35,1.94,1.94,0,0,0,0-.24c0-.13-.05-.26-.08-.38l-4.33-22.1a2.55,2.55,0,0,0-2.53-2.08Z"/><path class="cls-17" d="M224.51,115.35a.62.62,0,0,1,.61.47l4.45,22.72a1.22,1.22,0,0,1,.08.3h0c.09.77-.61,1.29-2,1.29a11.92,11.92,0,0,1-7.19-3c-.82-.79-1.1-1.51-.89-2h0l4.37-19.36a.61.61,0,0,1,.6-.45m0-2h0a2.61,2.61,0,0,0-2.52,1.88l0,.12-4.35,19.26c-.26.83-.33,2.3,1.43,4a14,14,0,0,0,8.58,3.52,4.21,4.21,0,0,0,3.3-1.22,2.9,2.9,0,0,0,.72-2.26v-.06a2.8,2.8,0,0,0-.12-.56l-4.43-22.6s0-.06,0-.1a2.62,2.62,0,0,0-2.55-2Z"/><path class="cls-6" d="M224,141.71a3.61,3.61,0,0,1-2.54-1l-5.52-5.41a1.58,1.58,0,0,1,1.1-2.7h8.19a1.56,1.56,0,0,1,1.06.42l6.54,6a1.53,1.53,0,0,1,.4,1.71,1.57,1.57,0,0,1-1.47,1Z"/><path class="cls-17" d="M225.23,133.56a.58.58,0,0,1,.38.15l6.55,6a.57.57,0,0,1-.4,1H224a2.6,2.6,0,0,1-1.84-.76l-5.52-5.41a.57.57,0,0,1,.4-1h8.19m0-2H217a2.57,2.57,0,0,0-1.8,4.41l5.52,5.41a4.58,4.58,0,0,0,3.24,1.33h7.76a2.57,2.57,0,0,0,1.75-4.46l-6.54-6a2.57,2.57,0,0,0-1.74-.68Z"/><path class="cls-17" d="M224.51,115.35a.62.62,0,0,1,.61.47l4.45,22.72a1.22,1.22,0,0,1,.08.3h0c.09.77-.61,1.29-2,1.29a11.92,11.92,0,0,1-7.19-3c-.82-.79-1.1-1.51-.89-2h0l4.37-19.36a.61.61,0,0,1,.6-.45m0-2h0a2.61,2.61,0,0,0-2.52,1.88l0,.12-4.35,19.26c-.26.83-.33,2.3,1.43,4a14,14,0,0,0,8.58,3.52,4.21,4.21,0,0,0,3.3-1.22,2.9,2.9,0,0,0,.72-2.26v-.06a2.8,2.8,0,0,0-.12-.56l-4.43-22.6s0-.06,0-.1a2.62,2.62,0,0,0-2.55-2Z"/><path class="cls-6" d="M185.67,141.71a3,3,0,0,1-2.44-1.15l-4.12-5.41a1.49,1.49,0,0,1-.12-1.59,1.79,1.79,0,0,1,1.57-1h8.18a1.44,1.44,0,0,1,1.12.52l5,6a1.48,1.48,0,0,1,.17,1.59,1.8,1.8,0,0,1-1.59,1Z"/><path class="cls-17" d="M188.74,133.56a.46.46,0,0,1,.35.15l5,6c.29.35-.13,1-.65,1h-7.76A2,2,0,0,1,184,140l-4.12-5.41c-.27-.35.15-1,.66-1h8.18m0-2h-8.18a2.79,2.79,0,0,0-2.47,1.56,2.51,2.51,0,0,0,.22,2.64l4.12,5.41a4,4,0,0,0,3.24,1.54h7.76a2.78,2.78,0,0,0,2.5-1.61,2.49,2.49,0,0,0-.31-2.66l-5-6a2.43,2.43,0,0,0-1.89-.88Z"/><path class="cls-25" d="M189.2,141a9.75,9.75,0,0,1-7-3.25,2.65,2.65,0,0,1-.53-2.87l3.32-19a1.57,1.57,0,0,1,3.09,0l4.35,22.16a2,2,0,0,1,.06.29s0,.05,0,.08a2.17,2.17,0,0,1-.55,1.68A3.61,3.61,0,0,1,189.2,141Z"/><path class="cls-17" d="M186.53,115.5a.55.55,0,0,1,.56.46l4.35,22.16c0,.09,0,.17.05.25v0h0c.09.92-.73,1.56-2.29,1.56a8.75,8.75,0,0,1-6.21-2.86,1.69,1.69,0,0,1-.38-1.93h0L186,116a.55.55,0,0,1,.56-.48m0-2h0a2.57,2.57,0,0,0-2.53,2.13l-3.31,18.9a3.77,3.77,0,0,0,.71,3.78,10.68,10.68,0,0,0,7.8,3.64,4.46,4.46,0,0,0,3.48-1.3,3.14,3.14,0,0,0,.81-2.35,1.94,1.94,0,0,0,0-.24c0-.13-.05-.26-.08-.38l-4.33-22.1a2.55,2.55,0,0,0-2.53-2.08Z"/><path class="cls-26" d="M187.65,125.86a1.88,1.88,0,1,1,1.47-1.84A1.65,1.65,0,0,1,187.65,125.86Z"/><path class="cls-17" d="M187.65,123.19c.26,0,.47.37.47.83s-.21.84-.47.84-.47-.38-.47-.84.21-.83.47-.83m0-2a2.86,2.86,0,1,0,2.47,2.83,2.61,2.61,0,0,0-2.47-2.83Z"/><path class="cls-26" d="M188.44,130.86A1.88,1.88,0,1,1,189.9,129,1.64,1.64,0,0,1,188.44,130.86Z"/><path class="cls-17" d="M188.44,128.19c.26,0,.47.37.47.84s-.21.83-.47.83-.47-.37-.47-.83.21-.84.47-.84m0-2a2.86,2.86,0,1,0,2.47,2.84,2.61,2.61,0,0,0-2.47-2.84Z"/><path class="cls-26" d="M189.12,136.12a1.88,1.88,0,1,1,1.47-1.84A1.65,1.65,0,0,1,189.12,136.12Z"/><path class="cls-17" d="M189.12,133.45c.26,0,.47.37.47.83s-.21.84-.47.84-.46-.38-.46-.84.21-.83.46-.83m0-2a2.86,2.86,0,1,0,2.47,2.83,2.61,2.61,0,0,0-2.47-2.83Z"/><path class="cls-27" d="M186.85,119.76a3.64,3.64,0,0,1-1.8-.6,1,1,0,0,1-.47-1l.4-2.33a1.57,1.57,0,0,1,3.09,0l.46,2.34a.89.89,0,0,1,0,.43A1.67,1.67,0,0,1,186.85,119.76Z"/><path class="cls-17" d="M186.53,115.5a.55.55,0,0,1,.56.46l.46,2.34a.67.67,0,0,1-.7.46,2.73,2.73,0,0,1-1.29-.46L186,116a.55.55,0,0,1,.56-.48m0-2h0a2.57,2.57,0,0,0-2.53,2.13l-.41,2.33a2,2,0,0,0,.95,2.06,4.54,4.54,0,0,0,2.31.74,2.67,2.67,0,0,0,2.64-2,1.92,1.92,0,0,0,0-.86l-.45-2.34a2.55,2.55,0,0,0-2.53-2.08Z"/><path class="cls-27" d="M173.8,129.3a1.58,1.58,0,0,1,0-3.16h62.68a1.58,1.58,0,1,1,0,3.16Z"/><path class="cls-17" d="M236.48,127.14a.58.58,0,1,1,0,1.16H173.8a.58.58,0,0,1,0-1.16h62.68m0-2H173.8a2.58,2.58,0,1,0,0,5.16h62.68a2.58,2.58,0,1,0,0-5.16Z"/><path class="cls-6" d="M188.74,133.56h-8.18c-.51,0-.93.63-.66,1L184,140a2,2,0,0,0,1.65.76h7.76c.52,0,.94-.64.65-1l-5-6A.46.46,0,0,0,188.74,133.56Z"/><path class="cls-25" d="M182.61,135.16h0L186,116a.57.57,0,0,1,1.12,0l4.35,22.16c0,.09,0,.17.05.25v0h0c.09.92-.73,1.56-2.29,1.56a8.75,8.75,0,0,1-6.21-2.86A1.69,1.69,0,0,1,182.61,135.16Z"/><path class="cls-6" d="M225.23,133.56H217a.57.57,0,0,0-.4,1l5.52,5.41a2.6,2.6,0,0,0,1.84.76h7.76a.57.57,0,0,0,.4-1l-6.55-6A.58.58,0,0,0,225.23,133.56Z"/><path class="cls-6" d="M188.74,133.56h-8.18c-.51,0-.93.63-.66,1L184,140a2,2,0,0,0,1.65.76h7.76c.52,0,.94-.64.65-1l-5-6A.46.46,0,0,0,188.74,133.56Z"/><path class="cls-25" d="M182.61,135.16h0L186,116a.57.57,0,0,1,1.12,0l4.35,22.16c0,.09,0,.17.05.25v0h0c.09.92-.73,1.56-2.29,1.56a8.75,8.75,0,0,1-6.21-2.86A1.69,1.69,0,0,1,182.61,135.16Z"/><ellipse class="cls-26" cx="187.65" cy="124.02" rx="0.47" ry="0.84"/><ellipse class="cls-26" cx="188.44" cy="129.03" rx="0.47" ry="0.84"/><ellipse class="cls-26" cx="189.12" cy="134.28" rx="0.47" ry="0.84"/><path class="cls-27" d="M185.56,118.3,186,116a.57.57,0,0,1,1.12,0l.46,2.34h0S187.3,119.33,185.56,118.3Z"/><path class="cls-27" d="M173.8,128.3h62.68a.58.58,0,1,0,0-1.16H173.8a.58.58,0,0,0,0,1.16Z"/><path class="cls-17" d="M17.55,94.85l69.53,20.87L83,120.48l-71.39-23,6-2.62m0-2a2,2,0,0,0-.8.17l-6,2.62A2,2,0,0,0,11,99.37l71.39,23a1.91,1.91,0,0,0,.62.1,2,2,0,0,0,1.51-.69L88.59,117a2,2,0,0,0-.94-3.22L18.13,92.94a2,2,0,0,0-.58-.09Z"/><path class="cls-17" d="M87.08,115.72l2,10.85-8,10.73L83,120.48l4.11-4.76m0-2a2,2,0,0,0-1.52.7l-4.11,4.75a2.07,2.07,0,0,0-.47,1.08l-1.92,16.83a2,2,0,0,0,1.25,2.08,1.91,1.91,0,0,0,.74.14,2,2,0,0,0,1.6-.8l8-10.74a2,2,0,0,0,.36-1.55L89,115.37a2,2,0,0,0-1.44-1.57,1.88,1.88,0,0,0-.52-.08Z"/><path class="cls-17" d="M11.58,97.47l71.39,23L81.05,137.3,9,109.41l2.58-11.94m0-2a2,2,0,0,0-1,.27,2,2,0,0,0-1,1.31L7,109a2,2,0,0,0,1.24,2.28l72.05,27.9a2,2,0,0,0,1.75-.15,2,2,0,0,0,1-1.49L85,120.71a2,2,0,0,0-1.37-2.13l-71.39-23a1.86,1.86,0,0,0-.61-.1Z"/><polygon class="cls-28" points="11.57 97.47 17.55 94.85 87.08 115.72 82.97 120.48 11.57 97.47"/><polygon class="cls-6" points="87.08 115.72 82.97 120.48 81.05 137.3 89.03 126.57 87.08 115.72"/><polygon class="cls-25" points="82.97 120.48 81.05 137.3 9 109.41 11.57 97.47 82.97 120.48"/><polygon class="cls-18" points="13.04 96.83 16.17 95.46 86.14 116.81 83.99 119.3 13.04 96.83"/><path class="cls-29" d="M111.34,142.67a2.3,2.3,0,0,1-1.86-.93,2.33,2.33,0,0,1,.47-3.26c1.8-1.35,4.3-4,4.3-5.46s-2.81-5.1-5.33-7.5a2.33,2.33,0,0,1,3.21-3.37c1.59,1.51,6.77,6.77,6.77,10.87,0,4.37-5.14,8.42-6.17,9.19A2.32,2.32,0,0,1,111.34,142.67Z"/><path class="cls-29" d="M112.68,139.15a2.32,2.32,0,0,0-3.24-.56c-.32.23-6.67,4.83-10.89,16.44a7.28,7.28,0,0,0,4.44,1.42c3.69-10,9-14,9.14-14.06A2.33,2.33,0,0,0,112.68,139.15Z"/><path class="cls-30" d="M96.5,162.08a2.33,2.33,0,0,0,1.76,2.78,2.21,2.21,0,0,0,.51,0,2.32,2.32,0,0,0,2.27-1.82,51.79,51.79,0,0,1,1.95-6.64A7.28,7.28,0,0,1,98.55,155,56.74,56.74,0,0,0,96.5,162.08Z"/><path class="cls-29" d="M118.71,151.35a3.23,3.23,0,0,1-1.29-.43c-1.93-1.18-4.19-6.84-5.17-10.48a2.33,2.33,0,1,0-4.49,1.21c.47,1.76,3,10.67,7.23,13.24a8,8,0,0,0,3.27,1.1A5.42,5.42,0,0,0,118.71,151.35Z"/><path class="cls-30" d="M126.24,154.11a2.33,2.33,0,0,0-2.31-4,9.86,9.86,0,0,1-5.22,1.28,5.42,5.42,0,0,1-.45,4.64,9.77,9.77,0,0,0,1.08.06A15.2,15.2,0,0,0,126.24,154.11Z"/><path class="cls-31" d="M126.94,148.41l4,11.32s-4.19,1-5.66-1.24a3.28,3.28,0,0,1,.47-4.1s.94-3-1.78-4.32C123.77,150.16,124.62,149,126.94,148.41Z"/><path class="cls-31" d="M87.49,159.39a24.9,24.9,0,0,0,12.8,6.45,3.25,3.25,0,0,0,.75-2.75,3.33,3.33,0,0,1-4.6-1.78c-.54-2.75-2.21-4.86-5.11-4.86S87.49,159.39,87.49,159.39Z"/><path class="cls-32" d="M105.94,139.82s-4.71,4.06-5.41,7c2.32,3,6.8,3.89,6.8,3.89l4.94-6Z"/><path class="cls-32" d="M104.27,140.29s1.67,7.15,5,10.87a28.34,28.34,0,0,0,9.26-1.83,10.39,10.39,0,0,1-1.76-5,6.51,6.51,0,0,0,.12-4Z"/><path class="cls-30" d="M108.55,118.54a36.06,36.06,0,0,1,9.42,8.72,26.41,26.41,0,0,1-7.21,3.9Z"/><path class="cls-30" d="M112.56,117.73l-5.29-1.4s0,.24-.15.66a1.28,1.28,0,0,1,.39,0c1,.25,1.42,1.86,1,3.6s-1.59,3-2.57,2.71l-.08,0a125.29,125.29,0,0,0-2,17,74.11,74.11,0,0,0,13.43,0C115.53,126.16,112.56,117.73,112.56,117.73Z"/><path class="cls-29" d="M108.49,120.61c.44-1.74,0-3.35-1-3.6a1.28,1.28,0,0,0-.39,0c-.24,1.06-.74,3.33-1.28,6.3l.08,0C106.9,123.56,108.05,122.36,108.49,120.61Z"/><path class="cls-29" d="M108.37,128.31c-.29,2.5-.75,4.54-1.24,5.14-1.16.49-2.21.06-4.85-.66a3.38,3.38,0,1,0-3,5,3.33,3.33,0,0,0,1.74-.49c1.24.34,1.62,1,4.35,1a8.83,8.83,0,0,0,4-.79c2.18-1.16,3.17-4.89,3.6-8.59C113.24,126.94,108.55,126.76,108.37,128.31Z"/><path class="cls-30" d="M107.1,125a20.57,20.57,0,0,0-.29,5.69,32.8,32.8,0,0,0,7.44.93v-5.87"/><path class="cls-29" d="M98.15,118.5c2.45,2.38,6.48,3.21,10.63,3.21s8.1-.58,10.55-2.92c2-1.87,2.85-5.09,2.85-8.38A13.39,13.39,0,0,0,108.78,97c-7,0-11.85,5.46-12.32,12.35,0,.36-.29,2.14-1.17,2a4,4,0,0,0-1.18,0,1.7,1.7,0,1,0,1.42,3s.24,1.39-.56,2a2.83,2.83,0,0,0,1.93.79Z"/><path class="cls-29" d="M102.93,117.54a23.11,23.11,0,0,1-6-.4"/><path class="cls-33" d="M108.78,97a12,12,0,0,0-11.68,8.87v2.64l2.81-2.31,1.68,2.73,2.52-2.29,2.18,2.29,2.56-1.94,1.74,2.36,2.22-1.45a19.07,19.07,0,0,1,1.79,3.46A1.88,1.88,0,0,1,116,111a2.43,2.43,0,0,1,1.73,2.92,2.59,2.59,0,0,1-1.93,2.29,15,15,0,0,1-.18,4.65,9.34,9.34,0,0,0,3.74-2.09c2-1.87,2.85-5.09,2.85-8.38A13.39,13.39,0,0,0,108.78,97Z"/><path class="cls-30" d="M108.89,96c-5,0-10,2.35-11,7.93l16.71,7.49A1.88,1.88,0,0,1,116,111a2.43,2.43,0,0,1,1.73,2.92l3.46,2.08a11.1,11.1,0,0,0,2.25-6.65C123.41,102,116.28,96,108.89,96Z"/><ellipse class="cls-34" cx="105.02" cy="111.37" rx="0.66" ry="1.15" transform="translate(-32.82 177.95) rotate(-72.46)"/><path class="cls-35" d="M97.89,103.89a15.17,15.17,0,0,1-8.39-9.58"/></g></svg>