<svg id="レイヤー_1" data-name="レイヤー 1" xmlns="http://www.w3.org/2000/svg" viewBox="0 0 631.47 217.5"><defs><style>.cls-1{fill:#fccb00;}.cls-1,.cls-10,.cls-13,.cls-14,.cls-2,.cls-3,.cls-4,.cls-5,.cls-6,.cls-7,.cls-9{stroke:#40220f;}.cls-1,.cls-10,.cls-12,.cls-14,.cls-2,.cls-3,.cls-4,.cls-5,.cls-6,.cls-7{stroke-linecap:round;stroke-linejoin:round;}.cls-13,.cls-2{fill:#f5dcbe;}.cls-3{fill:#fff;}.cls-4{fill:#f8cbd9;}.cls-5{fill:#0068b2;}.cls-6{fill:#fce9f2;}.cls-12,.cls-7{fill:none;}.cls-10,.cls-8,.cls-9{fill:#40220f;}.cls-13,.cls-9{stroke-miterlimit:10;}.cls-11{fill:#c60022;}.cls-12{stroke:#fff;stroke-width:3px;opacity:0.5;}.cls-14{fill:#ed811b;}</style></defs><title>コントロール能力例</title><line class="cls-1" x1="-5.08" y1="176.19" x2="661.92" y2="180.99"/><line class="cls-1" x1="-4.08" y1="217.5" x2="138.99" y2="172.8"/><path class="cls-1" d="M-4.08,218.5a1,1,0,0,1-1-.7,1,1,0,0,1,.65-1.25l143.07-44.71a1,1,0,0,1,.6,1.91L-3.78,218.46A1,1,0,0,1-4.08,218.5Z"/><line class="cls-1" x1="496.66" y1="173.93" x2="631.47" y2="223"/><path class="cls-1" d="M631.47,224a.79.79,0,0,1-.34-.06L496.32,174.87A1,1,0,1,1,497,173l134.81,49.08a1,1,0,0,1-.34,1.93Z"/><path class="cls-2" d="M62.09,140.91a4.9,4.9,0,0,1-.54,0,4.19,4.19,0,0,1-3.62-4.68c2-15.52-6.86-31.7-7-31.87a4.18,4.18,0,1,1,7.32-4c.42.76,10.25,18.77,7.94,37A4.2,4.2,0,0,1,62.09,140.91Z"/><ellipse class="cls-2" cx="18.48" cy="83.24" rx="3.53" ry="4.25" transform="translate(-31.15 13.91) rotate(-23.08)"/><ellipse class="cls-2" cx="65.97" cy="63.7" rx="3.53" ry="4.25" transform="translate(-16.94 24.51) rotate(-18.7)"/><path class="cls-2" d="M38.36,140.57a4.19,4.19,0,0,0-8.37-.38l-1.32,28.87,8.36.63Z"/><path class="cls-3" d="M31.81,192H32a4.19,4.19,0,0,0,4.18-4L37,169.69l-8.36-.63-.85,18.58A4.19,4.19,0,0,0,31.81,192Z"/><path class="cls-4" d="M38.36,191.06c0,1.8-3.25,1.94-6.51,1.94s-6.51-.14-6.51-1.94c0-3.59,2.91-5.06,6.51-5.06S38.36,187.47,38.36,191.06Z"/><path class="cls-2" d="M45.19,140.57a4.18,4.18,0,1,1,8.36-.38l1.32,28.87-8.35.63Z"/><path class="cls-3" d="M51.73,192h-.2a4.18,4.18,0,0,1-4.17-4l-.84-18.33,8.35-.63.85,18.58A4.18,4.18,0,0,1,51.73,192Z"/><path class="cls-4" d="M45.18,191.06c0,1.8,3.26,1.94,6.51,1.94s6.52-.14,6.52-1.94c0-3.59-2.92-5.06-6.52-5.06S45.18,187.47,45.18,191.06Z"/><path class="cls-5" d="M27.82,132.84S26.57,145.29,26.57,153c3.55,1.63,10,1.83,14.27,1.21L42,148.1s.24,3.27.43,6.06c4.92.62,11,1.18,14.72.32-.23-6.35-1.42-20.09-1.42-20.09Z"/><path class="cls-6" d="M26.11,134.7c9.3,3.26,22,3.37,31.79,1.88-1.17-11.8-3.49-24.44-3.49-24.44a16.8,16.8,0,0,0,9-4C56.81,93.92,51.1,90.28,41.86,85.63,29.68,89.74,24.17,120.59,26.11,134.7Z"/><path class="cls-7" d="M54.41,112.14a40.89,40.89,0,0,0-1.79-8.68"/><path class="cls-2" d="M34.3,109.06c.18.28,12.18,19.06,24.33,23.75a4.19,4.19,0,0,1-1.51,8.1,4,4,0,0,1-1.51-.29C43.7,136,32.89,121.78,28.87,116"/><path class="cls-6" d="M34.56,103.46l4.57,10.46-10.46,5.59s-6.92-11.8,6.19-27.84"/><path class="cls-2" d="M48.36,92.24c0,4.78-2.63,7.42-6.5,7.42a7.22,7.22,0,0,1-7.51-7.42c0-4.78,3.14-8.65,7-8.65S48.36,87.46,48.36,92.24Z"/><path class="cls-6" d="M41.86,99.66l2.7,3.26a26.28,26.28,0,0,0,6.2-13.18S48.24,79,47.27,87.56,41.86,99.66,41.86,99.66Z"/><path class="cls-6" d="M41.86,99.66a6.64,6.64,0,0,0-2.34,3.26C35,98.26,33.3,96.05,33,93.59a7.78,7.78,0,0,1,.87-4.47A31.24,31.24,0,0,0,41.86,99.66Z"/><path class="cls-2" d="M65,62.62c1.86,6.44,3.41,13.16.56,18.68-3.06,5.94-10.73,9.27-17.65,11.27-7.33,2.12-15.65,3.47-21.58-.41-4.86-3.18-8-9.54-9.71-15.56A25.18,25.18,0,1,1,65,62.62Z"/><path class="cls-2" d="M47.44,79.41a2.18,2.18,0,0,1,1.11,1.2,2.14,2.14,0,1,1-3.95-.14"/><path class="cls-7" d="M43.32,89.12s6.9,3.1,10.08-4"/><circle class="cls-8" cx="34.34" cy="81.13" r="1.35"/><circle class="cls-8" cx="56.5" cy="72.62" r="1.35"/><ellipse class="cls-9" cx="24.87" cy="45.18" rx="9.47" ry="8.71" transform="translate(-15.72 13.36) rotate(-23.08)"/><path class="cls-10" d="M21.61,79.78c9.93-1.67,32.26-10.28,39.7-17.26A21.59,21.59,0,0,1,67,71.58c.32-3.48-1.19-14.38-7.43-20.3-3.33-3.16-7.56-6.37-12.17-7.55-6.3-1.61-13.16-.31-18.14,1.89-6.72,3-14,11.53-14.26,20.24-.13,4-.18,8.59,1.08,12.17a31.71,31.71,0,0,0,6.5,10.67A52.46,52.46,0,0,1,21.61,79.78Z"/><path class="cls-8" d="M71.25,149.84l-13.53-21c.86-1.2,1.11-2.54.47-3.48-.93-1.37-3.34-1.35-5.39,0s-2.95,3.63-2,5c.65.95,2,1.21,3.49.82l13.46,20.86Z"/><path class="cls-11" d="M80.6,156a14.53,14.53,0,0,1,4.29,4.3l12.17,18.87a3.89,3.89,0,0,1,.19,3.47s-1,1.93-4.67,4.24a19.72,19.72,0,0,1-5.87,2.64,2.37,2.37,0,0,1-2.46-1.06L71.61,168.84a14.36,14.36,0,0,1-2.16-5.68,69.66,69.66,0,0,0-2.67-12c-.4-1,3.12-3.35,3.91-2.57A74.24,74.24,0,0,0,80.6,156Z"/><line class="cls-12" x1="79.91" y1="159.51" x2="93.49" y2="180.54"/><path class="cls-7" d="M97.52,179.84,84.89,160.26A14.53,14.53,0,0,0,80.6,156a74.24,74.24,0,0,1-9.91-7.36.59.59,0,0,0-.33-.14L57.72,128.87c.86-1.2,1.11-2.54.47-3.48-.93-1.37-3.34-1.35-5.39,0s-2.95,3.63-2,5c.65.95,2,1.21,3.49.82L66.82,150.7a.65.65,0,0,0,0,.47,69.66,69.66,0,0,1,2.67,12,14.36,14.36,0,0,0,2.16,5.68l12.64,19.58a2.37,2.37,0,0,0,2.46,1.06,19.72,19.72,0,0,0,5.87-2.64c2.63-1.64,4.37-3,5.09-4.34A2.53,2.53,0,0,0,97.52,179.84Z"/><path class="cls-13" d="M59.21,130.13s-1.73,4,.57,5.33,1.53-3.05,1.53-3.05"/><path class="cls-2" d="M53.52,132s4.3-.63,5,1.94-3.35.68-3.35.68"/><circle class="cls-14" cx="210.25" cy="183.93" r="13.34"/><path class="cls-7" d="M189.16,183.93A12,12,0,0,0,192.42,196"/><path class="cls-7" d="M185.43,183.93A12,12,0,0,0,188.68,196"/></svg>