<svg id="レイヤー_1" data-name="レイヤー 1" xmlns="http://www.w3.org/2000/svg" viewBox="0 0 167.85 158.2"><defs><style>.cls-1{fill:#f5dcbe;}.cls-1,.cls-10,.cls-2,.cls-3,.cls-4,.cls-5,.cls-6,.cls-7,.cls-8{stroke:#40220f;stroke-linecap:round;stroke-linejoin:round;}.cls-2{fill:#4d3718;}.cls-3{fill:#f6ed74;}.cls-4{fill:#e99577;}.cls-5{fill:none;}.cls-6{fill:#d71618;}.cls-7{fill:#0a73ba;}.cls-8{fill:#189946;}.cls-9{fill:#f5e928;}.cls-10{fill:#67391b;}</style></defs><title>人や物によくぶつかる</title><path class="cls-1" d="M55.63,98a4.48,4.48,0,0,1-3.05-1.19A120.79,120.79,0,0,1,34.83,76a4.5,4.5,0,0,1,7.55-4.89h0A114.1,114.1,0,0,0,58.69,90.21,4.5,4.5,0,0,1,55.63,98Z"/><path class="cls-1" d="M43.23,98.46a4.47,4.47,0,0,1-3.7-1.94C30,82.73,24.23,65.65,24,64.93a4.5,4.5,0,1,1,8.54-2.84c.06.16,5.6,16.6,14.4,29.31a4.5,4.5,0,0,1-3.7,7.06Z"/><path class="cls-1" d="M31.89,147.65a16.81,16.81,0,0,1-5-.78A4.51,4.51,0,0,1,24.43,145,157.21,157.21,0,0,1,5,103.2a4.5,4.5,0,0,1,8.7-2.29h0A151.3,151.3,0,0,0,31,138.59a6.74,6.74,0,0,0,2.71-.17,4.5,4.5,0,1,1,3.46,8.31A14.37,14.37,0,0,1,31.89,147.65Z"/><path class="cls-1" d="M48.07,140.37a4.49,4.49,0,0,1-3.15-1.29c-12.1-11.85-24.06-33.46-24.06-37a4.5,4.5,0,0,1,8.88-1c1,2.64,9.19,18.49,19.39,29.47A4.5,4.5,0,0,1,55.38,137a12.2,12.2,0,0,1-6.82,3.36A4,4,0,0,1,48.07,140.37ZM29.86,102.05h0Zm0,0Z"/><path class="cls-2" d="M71.75,67.22a34,34,0,0,1-2.2,12C80.65,63,81,43.51,73.68,32.67S52,20.54,41.55,25.57s-19.1,24.9-19.1,42.58a11,11,0,0,1,8.26-2.58s-1.16,5.83.78,10.27a63.79,63.79,0,0,0,9.93-3.93,13.91,13.91,0,0,1-6.05,6.83c7.6,1.55,15.86-1,15.86-1s-3.47,3.77-11,5.55C56.47,83.38,71.75,67.22,71.75,67.22Z"/><path class="cls-3" d="M57.59,88.42l-7.5,6.83s-12.2-12.33-16-20C32.73,72.48,35.32,69.5,36,69.1a5.66,5.66,0,0,1,6.13.68c2.43,2,4.65,5.91,7.19,9C53.5,84,57.59,88.42,57.59,88.42Z"/><path class="cls-3" d="M16.07,68.61c4.38-4.69,12.83-8.29,22.8-8.29s-20,20.45-20,20.45l-6.58-5S11.68,73.31,16.07,68.61Z"/><path class="cls-4" d="M43.81,64.22c-.9-2.16,10.68-2.76-6.87-4C29.86,70.78,19.29,77.29,16.45,75.74c-2.45-1.35-.64-6,3.8-10.84a34.55,34.55,0,0,0-9.34,8.51C3.73,83,1.1,96.69,1.1,102.05c0,10.33,2.71,14.59,5.55,18.07C29,118.53,41.36,113.28,47.42,107c-3.64-.51-13.93-6.19-14.06-12.51S34.39,75.18,43.81,64.22Z"/><ellipse class="cls-1" cx="37.92" cy="66.1" rx="4.87" ry="2.29" transform="translate(-37.46 54.89) rotate(-51.7)"/><path class="cls-1" d="M73.16,63.25c-.41.66-.82,1.27-1.23,1.85-3.26,4.61-6.48,6.94-12.06,8.22-6.34,1.45-12.26-.63-18.19-4.39a30.55,30.55,0,0,1-6.74-5.76C35.37,48.8,45.87,39,57.81,38.74,61.41,53,67,59.66,73.16,63.25Z"/><path class="cls-1" d="M56.47,54.87a2.4,2.4,0,1,1-2.4,2.39"/><polyline class="cls-5" points="64.52 65.06 63.62 61.58 66.84 62.48"/><polyline class="cls-5" points="42.45 48.8 45.2 49.47 44.32 45.96"/><path class="cls-6" d="M46.58,59.66c2.46,0,6.58,3.85,6.58,5.4s-2.3,1.52-3.87,3.09-7.48-1.91-7.48-4.24S44.13,59.66,46.58,59.66Z"/><path class="cls-3" d="M36.94,93.35,45,88.41s-3.85-7.32-7.1-14.89c-2-4.7-3-9.47-5.14-12.72-2.05-3-4.59-3.3-6.61-2.41a5.58,5.58,0,0,0-3.07,6.67C25.72,75,36.94,93.35,36.94,93.35Z"/><path class="cls-2" d="M73.54,32.57c-7.35-10.84-21.67-12.13-32.13-7.1S22.32,50.37,22.32,68.05a19.29,19.29,0,0,1,7.16-7.61,24.23,24.23,0,0,0,4.45,11.74c-.77-6.51.87-9.11.87-9.11.44-14.37,10.93-24.23,22.87-24.43"/><path class="cls-1" d="M134.22,93.7A4.47,4.47,0,0,1,130.73,92c-10.11-12.43-18.28-10.74-18.62-10.66l.1,0-2.43-8.67c.56-.15,13.85-3.63,27.93,13.68a4.5,4.5,0,0,1-3.49,7.34Z"/><path class="cls-1" d="M83.74,90.36h-.66C73.9,90,67,81.89,66.23,81a4.5,4.5,0,0,1,6.94-5.74c1.37,1.65,5.91,6,10.31,6.13,2.11.08,4.07-.83,6-2.79a4.5,4.5,0,0,1,6.44,6.29A16.83,16.83,0,0,1,83.74,90.36Z"/><path class="cls-1" d="M83.12,143a4.48,4.48,0,0,1-2.88-1,22.55,22.55,0,0,1-5.53-6.61,4.5,4.5,0,0,1,8-4.06s.19.34.52.81a116.69,116.69,0,0,1,25.78-18,4.5,4.5,0,1,1,3.91,8.11,109,109,0,0,0-26.61,19.48A4.49,4.49,0,0,1,83.12,143Z"/><path class="cls-1" d="M140.25,121.28c-7,0-14.32-2.65-16.16-3.36a4.5,4.5,0,0,1,3.23-8.4c4.85,1.85,13.21,3.76,16.63,2.18s4.93-8.14,5.15-10.29a4.51,4.51,0,0,1,6.32-3.67l7.48,3.36a4.5,4.5,0,1,1-3.68,8.21l-2.43-1.09c-1.31,4.14-3.93,9.28-9.07,11.65A17.93,17.93,0,0,1,140.25,121.28Z"/><path class="cls-7" d="M101.77,111.91a9.35,9.35,0,0,0,1.23,2.58c-4.46,3.75-6.2,5.29-10.2,8.52a30.13,30.13,0,0,0,7,8.26c6.32-4,12.67-6.15,20-11.07,6.68,1.57,11.45,1.91,19.71,2,1.42-5.17,1.68-8,.78-11.23-9.68-1.16-13-5.94-13-5.94L126,102.88Z"/><polygon class="cls-8" points="100.93 69.59 85.83 79.78 91.38 89.2 100.03 83 100.93 69.59"/><path class="cls-8" d="M99.25,67.78c-5.87,9.5-3.86,30.07,2.52,46.46,12.45-2.46,19.94-5.8,26.13-9.94-3.65-5-7.15-7.49-11.09-15.1-3.74-7.2-5.63-18.12-8.14-20.51C105,65.59,102.83,64.07,99.25,67.78Z"/><path class="cls-8" d="M108.16,71.53a46.36,46.36,0,0,1,12.26.77c.78,3.35.78,6.06-1.42,11.35A15,15,0,0,0,108.16,83"/><polygon class="cls-8" points="96.51 75.39 108.16 67.8 110.47 69.84 98.54 78.11 96.51 75.39"/><path class="cls-9" d="M69.59,71.81c-4.42,10.76-15.11,14-20.3,6.17,5.19,7.84-.1,15.09-10,13.77,9.94,1.32,14,11.66,8.2,19.88,6.33-8,15.76-5.12,18.42,5.64-2.66-10.76,5-18.06,14.54-13.86-9.54-4.2-9.09-13.81.85-18.25C71.32,89.6,65.17,82.57,69.59,71.81Z"/><path class="cls-5" d="M69.59,71.81c-4.42,10.76-15.11,14-20.3,6.17,5.19,7.84-.1,15.09-10,13.77,9.94,1.32,14,11.66,8.2,19.88,6.33-8,15.76-5.12,18.42,5.64-2.66-10.76,5-18.06,14.54-13.86-9.54-4.2-9.09-13.81.85-18.25C71.32,89.6,65.17,82.57,69.59,71.81Z"/><path class="cls-1" d="M123,51.88c.86-14.52-9.05-27.5-23.57-28.36S74,33.82,73.09,48.34a39.15,39.15,0,0,0,.1,6.62,2.15,2.15,0,1,0,.68,3.71,19.2,19.2,0,0,0,3.85,7.47c4.49,5.39,10.88,6.74,18.44,7.19C110.68,74.19,122.18,66.4,123,51.88Z"/><path class="cls-10" d="M103.71,54.28c1,1.68,3.85,9.74.36,19.18,4.52-.52,7.53-.62,11.27-5.59,0,0,.19,1.16.4,2.33,7.25-8.19,9.21-15,7.8-24.49-.56-3.8-1.91-9.56-5.84-14-5.83-6.57-14.72-11.9-19.08-8.52-4.76-3.06-11.76-.29-16.79,4.36-6.18,5.7-7.39,8.46-10,13.93,2.81-1.14,6.48-3,6.48-3l.75,5.37,5.66-4.51,2.81,6.17,5.92-3.37,1.1,6,3.55-1.07-.91,8.46,2.74-5.4A26,26,0,0,1,103.71,54.28Z"/><path class="cls-5" d="M92,17.86c6.12,1.32,6.61,5.35,6.61,5.35s.48-3.3,4.62-5.21"/><polyline class="cls-5" points="88.99 51.39 86.73 53.4 89.4 54.38"/><path class="cls-6" d="M81,64.93s9-2,10.78-.54,2.88,3.59,1.77,4.9-8-.05-8-.05Z"/><path class="cls-1" d="M99.31,51.93a3.11,3.11,0,0,1,2.42-1,3.91,3.91,0,0,1-.4,7.73,3.16,3.16,0,0,1-2.4-1.39"/></svg>