<svg id="レイヤー_1" data-name="レイヤー 1" xmlns="http://www.w3.org/2000/svg" viewBox="0 0 426.19 323.61"><defs><style>.cls-1{fill:#d1eaf6;}.cls-2{fill:#ea5514;}.cls-2,.cls-3,.cls-4,.cls-5,.cls-6{stroke:#fff;}.cls-10,.cls-11,.cls-12,.cls-13,.cls-14,.cls-15,.cls-2,.cls-3,.cls-4,.cls-5,.cls-6,.cls-7,.cls-8,.cls-9{stroke-miterlimit:10;}.cls-3{fill:#e83828;}.cls-4{fill:#f39800;}.cls-5{fill:#f8b62d;}.cls-6{fill:#c30d23;}.cls-10,.cls-11,.cls-12,.cls-13,.cls-14,.cls-15,.cls-7,.cls-8,.cls-9{fill:none;}.cls-10,.cls-11,.cls-12,.cls-13,.cls-7,.cls-8,.cls-9{stroke:#231815;}.cls-8,.cls-9{stroke-width:7px;}.cls-9{stroke-dasharray:1.02 32.64;}.cls-10,.cls-11{stroke-width:5px;}.cls-11{stroke-dasharray:1.02 32.65;}.cls-12,.cls-13{stroke-width:9px;}.cls-13{stroke-dasharray:1.02 32.74;}.cls-14{stroke:#d7232d;}.cls-14,.cls-15{stroke-width:2px;}.cls-15{stroke:#149243;}.cls-16,.cls-17,.cls-18,.cls-19{font-size:17px;font-family:YuGothic-Bold, YuGothic Bold;font-weight:700;}.cls-16,.cls-20{fill:#231815;}.cls-17{fill:#fff;}.cls-18{fill:#009a3e;}.cls-19{fill:#d71618;}.cls-20{font-size:15px;font-family:YuGothic-Regular, YuGothic Regular;}</style></defs><title>スキャモン</title><rect class="cls-1" x="84.55" y="56.03" width="201.45" height="168.77"/><rect class="cls-2" x="252.77" y="252.39" width="51.48" height="45.29"/><rect class="cls-3" x="304.26" y="252.39" width="49.55" height="45.29"/><rect class="cls-4" x="152.13" y="252.39" width="100.65" height="45.29"/><rect class="cls-5" x="50.71" y="252.39" width="101.03" height="45.29"/><polygon class="cls-6" points="408.39 275.03 371.5 240.94 371.5 252.39 353.81 252.39 353.81 297.68 371.5 297.68 371.5 309.13 408.39 275.03"/><polyline class="cls-7" points="387.38 224.81 50.76 224.81 50.76 49.06"/><line class="cls-8" x1="50.76" y1="220.81" x2="51.26" y2="220.81"/><line class="cls-9" x1="83.9" y1="220.81" x2="370.56" y2="220.81"/><line class="cls-8" x1="386.88" y1="220.81" x2="387.38" y2="220.81"/><line class="cls-10" x1="68.49" y1="221.61" x2="68.99" y2="221.61"/><line class="cls-11" x1="101.64" y1="221.61" x2="354.68" y2="221.61"/><line class="cls-10" x1="371" y1="221.61" x2="371.5" y2="221.61"/><line class="cls-12" x1="54.76" y1="56.03" x2="54.76" y2="56.53"/><line class="cls-13" x1="54.76" y1="89.27" x2="54.76" y2="207.94"/><line class="cls-12" x1="54.76" y1="224.31" x2="54.76" y2="224.81"/><line class="cls-7" x1="50.81" y1="56.03" x2="387.38" y2="56.03"/><path class="cls-14" d="M50.76,224.81S72.62,172,112.25,160.65,190.7,141,232.88,134.32s46-41.72,74.73-58.54S357.43,56,357.43,56"/><path class="cls-15" d="M50.76,224.81s7.17-96.07,62.4-135.91S382.92,56,382.92,56"/><text class="cls-16" transform="translate(16.23 248.76)">出生時</text><text class="cls-17" transform="translate(68.49 281.13)">乳幼児期</text><text class="cls-17" transform="translate(177.26 281.13)">学童期</text><text class="cls-17" transform="translate(261.18 272.13)">青年<tspan x="0" y="18">前期</tspan></text><text class="cls-17" transform="translate(312.93 272.13)">青年<tspan x="0" y="18">中期</tspan></text><text class="cls-16" transform="translate(378.45 246.47)">20</text><text class="cls-16" transform="translate(34.97 229.81)">0</text><text class="cls-16" transform="translate(16.23 62.45)">100</text><text class="cls-16" transform="translate(25.6 95.92)">80</text><text class="cls-16" transform="translate(25.6 129.39)">60</text><text class="cls-16" transform="translate(25.6 162.86)">40</text><text class="cls-16" transform="translate(25.6 196.33)">20</text><text class="cls-16" transform="translate(80.68 246.47)">2</text><text class="cls-16" transform="translate(114.24 246.47)">4</text><text class="cls-16" transform="translate(147.8 246.47)">6</text><text class="cls-16" transform="translate(181.36 246.47)">8</text><text class="cls-16" transform="translate(210.79 246.47)">10</text><text class="cls-16" transform="translate(244.32 246.47)">12</text><text class="cls-16" transform="translate(277.85 246.47)">14</text><text class="cls-16" transform="translate(311.39 246.47)">16</text><text class="cls-16" transform="translate(344.92 246.47)">18</text><text class="cls-18" transform="translate(179.23 89.81)">脳・神経</text><text class="cls-19" transform="translate(183.48 162.86)">骨・筋肉</text><text class="cls-20" transform="translate(100.6 32.9)">出展：スキャモンの発育発達曲線</text></svg>