<svg id="レイヤー_1" data-name="レイヤー 1" xmlns="http://www.w3.org/2000/svg" xmlns:xlink="http://www.w3.org/1999/xlink" viewBox="0 0 218 218"><defs><style>.cls-1,.cls-11,.cls-19,.cls-3{fill:none;}.cls-2{clip-path:url(#clip-path);}.cls-3{stroke:#9b7656;}.cls-10,.cls-11,.cls-12,.cls-13,.cls-14,.cls-16,.cls-17,.cls-19,.cls-3,.cls-8,.cls-9{stroke-linecap:round;stroke-linejoin:round;}.cls-10,.cls-11,.cls-12,.cls-13,.cls-14,.cls-16,.cls-17,.cls-19,.cls-3,.cls-7,.cls-8,.cls-9{stroke-width:2px;}.cls-4{clip-path:url(#clip-path-2);}.cls-5{fill:#fff100;}.cls-10,.cls-6{fill:#40220f;}.cls-14,.cls-7{fill:#f5dcbe;}.cls-10,.cls-11,.cls-12,.cls-13,.cls-14,.cls-7,.cls-9{stroke:#40220f;}.cls-7{stroke-miterlimit:10;}.cls-8{fill:#2c3493;stroke:#42210b;}.cls-17,.cls-9{fill:#fff;}.cls-12{fill:#9fa0a0;}.cls-13{fill:#6a3906;}.cls-15{clip-path:url(#clip-path-3);}.cls-16{fill:#f4dbbd;}.cls-16,.cls-17,.cls-19{stroke:#40210d;}.cls-18{fill:#40210d;}.cls-20{clip-path:url(#clip-path-4);}.cls-21{fill:#9b7656;}.cls-22{clip-path:url(#clip-path-5);}.cls-23{fill:#fff1e1;}</style><clipPath id="clip-path"><rect id="SVGID" class="cls-1" x="-228" y="8" width="200" height="200" rx="10"/></clipPath><clipPath id="clip-path-2"><rect id="SVGID-2" data-name="SVGID" class="cls-1" x="9" y="9" width="200" height="200" rx="10"/></clipPath><clipPath id="clip-path-3"><rect id="SVGID-3" data-name="SVGID" class="cls-1" x="246" y="10" width="200" height="200" rx="10"/></clipPath><clipPath id="clip-path-4"><rect id="SVGID-4" data-name="SVGID" class="cls-1" x="-55.76" y="-58" width="568.77" height="326.6"/></clipPath><clipPath id="clip-path-5"><rect id="SVGID-5" data-name="SVGID" class="cls-1" x="-229" y="249" width="200" height="200" rx="10"/></clipPath></defs><title>2-1 固定器具を使う</title><g class="cls-2"><ellipse class="cls-3" cx="-3.78" cy="117" rx="15.41" ry="11.32" transform="translate(-59.01 13.78) rotate(-30)"/></g><g class="cls-4"><path class="cls-5" d="M-34,106.5A3.52,3.52,0,0,1-37.35,104a3.43,3.43,0,0,1,.27-2.66A3.44,3.44,0,0,1-35,99.65l47.4-14.34L-27.89,69.9l-12.76,5.33A3.5,3.5,0,0,1-42,75.5a3.49,3.49,0,0,1-3.23-2.15,3.51,3.51,0,0,1,1.88-4.58L66,23.15a3.59,3.59,0,0,1,1.44-.6L234.65-47.23A3.5,3.5,0,0,1,236-47.5a3.49,3.49,0,0,1,3.23,2.15,3.51,3.51,0,0,1-1.88,4.58l-39.07,16.3,25.27,45.89L279,4.65A3.49,3.49,0,0,1,283.35,7,3.51,3.51,0,0,1,281,11.35l-254.4,77A3.51,3.51,0,0,1,24,89.5a3.37,3.37,0,0,1-.9-.12l-56.09,17A3.48,3.48,0,0,1-34,106.5ZM23.33,82l31.93-9.66L16,51.58-18.52,66ZM64.79,69.46l37.49-11.35-34.77-28-43.11,18Zm45.6-13.8,46.34-14L126.51,5.48,74.86,27ZM164,39.44,216.7,23.5,191.78-21.76,133.27,2.66Z"/><path class="cls-6" d="M236-46.5A2.5,2.5,0,0,1,238.31-45,2.5,2.5,0,0,1,237-41.69L196.87-25l26.19,47.58,56.22-17A2.25,2.25,0,0,1,280,5.5a2.5,2.5,0,0,1,.72,4.89L26,87.45a2.5,2.5,0,0,1-2,1,2.31,2.31,0,0,1-.89-.17h0l-56.39,17.06a2.25,2.25,0,0,1-.72.11,2.5,2.5,0,0,1-2.39-1.78,2.49,2.49,0,0,1,1.67-3.11l50.2-15.19L-27.9,68.83-41,74.31a2.49,2.49,0,0,1-1,.19A2.5,2.5,0,0,1-44.31,73,2.5,2.5,0,0,1-43,69.69L66.47,24a2.54,2.54,0,0,1,1.21-.51L235-46.31a2.49,2.49,0,0,1,1-.19M163.66,40.59,218.17,24.1,192.23-23,131.64,2.26l32,38.33M110.17,56.77l48.29-14.61L127.08,4.6a3.39,3.39,0,0,1-.23-.34L72.92,26.76l37.25,30M64.68,70.53l39.7-12L67.67,29,22.06,48,64.68,70.53M23.3,83.05,57.88,72.59,16.09,50.47-21.21,66l44.51,17M236-48.5h0a4.46,4.46,0,0,0-1.73.35L67.12,21.59a4.59,4.59,0,0,0-1.63.68L-43.73,67.85a4.49,4.49,0,0,0-2.42,5.88A4.49,4.49,0,0,0-42,76.5a4.46,4.46,0,0,0,1.73-.35L-27.87,71,9.3,85.2-35.3,98.69A4.51,4.51,0,0,0-38,100.88a4.48,4.48,0,0,0-.34,3.42A4.47,4.47,0,0,0-34,107.5a4.4,4.4,0,0,0,1.3-.19L23.13,90.42a4.94,4.94,0,0,0,.87.08,4.53,4.53,0,0,0,3.16-1.3L281.3,12.31A4.5,4.5,0,0,0,280,3.5a4.4,4.4,0,0,0-1.3.19L224,20.23,199.7-24l38-15.88a4.49,4.49,0,0,0,2.42-5.88A4.49,4.49,0,0,0,236-48.5ZM134.91,3.06l56.43-23.55L215.22,22.9,164.35,38.29,134.91,3.06ZM76.79,27.31,126.22,6.69,155,41.12,110.6,54.55,76.79,27.31ZM26.74,48.19l40.6-16.94L100.17,57.7,64.89,68.38,26.74,48.19ZM-15.82,66,16,52.68l36.66,19.4L23.37,80.94-15.82,66Z"/><line class="cls-7" x1="124.5" y1="88.5" x2="155" y2="36"/><path class="cls-7" d="M124.5,93.5A5,5,0,0,1,120.18,86l30.5-52.5a5,5,0,1,1,8.64,5L128.82,91A5,5,0,0,1,124.5,93.5Z"/><path class="cls-7" d="M85,202a5.2,5.2,0,0,1-1.54-.24,5,5,0,0,1-3.22-6.3c10.2-31.59,22.94-46.6,23.47-47.22a5,5,0,0,1,7.58,6.52c-.19.23-12.05,14.39-21.53,43.78A5,5,0,0,1,85,202Z"/><path class="cls-7" d="M131,198a5,5,0,0,1-2.17-9.5c.09-.05,10.67-5.34,10.67-14,0-7.58-10.9-16.33-14.72-18.8a5,5,0,0,1,5.44-8.4c2,1.28,19.28,12.89,19.28,27.2,0,15-15.66,22.68-16.33,23A5,5,0,0,1,131,198Z"/><path class="cls-8" d="M90,164c6,5,17,6,17,6s5-11,10-11,11,8,11,8,10-2,17-9c-5-8-9-11-13-13v-6s-26-1-29,3A158.47,158.47,0,0,0,90,164Z"/><path class="cls-9" d="M105,104s-7,38-5,40,11,2,18-1,13-3,16,1c1-6-6-56-6-56H110Z"/><path class="cls-10" d="M90,197.8c0,3.2,0,6.2-4,9.2-7-1-14-5-16-9a6.93,6.93,0,0,1,3-4l8,1S84,200.59,90,197.8Z"/><path class="cls-10" d="M129,188c1,6,4,6.76,7,7.88,1,4.12,2,7.12,1,8.12s-5,0-7-1c-4-3-5-5-6-7S122,189,129,188Z"/><path class="cls-11" d="M138.25,203.46A2.23,2.23,0,0,0,138,201c-1-1-4-1-7-1a12.57,12.57,0,0,1-5.63-1.56Z"/><path class="cls-12" d="M125.64,198.8C128,200,130,201,132,201c1,0,5,0,6,1s0,2.58-2,2.41C131,204,129,203,125.64,198.8Z"/><ellipse class="cls-7" cx="121" cy="89" rx="5" ry="9"/><path class="cls-7" d="M141.17,44.29c5.63,7.09,9.49,13,8.58,20-1,7.49-7.18,15.94-14.44,21.72C121.28,97.17,102,99.4,90.36,84.7S80.57,49.05,94.6,37.89,129.48,29.6,141.17,44.29Z"/><path class="cls-13" d="M117.5,31.25A15.71,15.71,0,0,0,113,23c-4,7-8,8-18,13S77,56,82,73s22.33,23,31.66,22A121.64,121.64,0,0,1,98,63l7,4a44.27,44.27,0,0,1-5-9C103,43,110,35.5,117.5,31.25Z"/><path class="cls-7" d="M128.83,49.31a4,4,0,1,0-2.46-6.72,3.9,3.9,0,0,0-1.14,2.8"/><path class="cls-11" d="M125,64s6.31-1.38,5.16,4.81"/><path class="cls-11" d="M129.18,64.69A20,20,0,0,1,142,55"/><circle class="cls-6" cx="114" cy="55" r="2"/><circle class="cls-6" cx="133" cy="41" r="2"/><path class="cls-14" d="M103.88,72.43A3.61,3.61,0,0,1,102,75.34c-1.94.91-4.46-.39-5.63-2.89s-.55-5.26,1.39-6.17a3.51,3.51,0,0,1,3.1.17"/><line class="cls-7" x1="107.5" y1="95.5" x2="73" y2="30"/><path class="cls-7" d="M103.08,97.83l-34.5-65.5a5,5,0,1,1,8.84-4.66l34.5,65.5C113.21,95.61,104,99.53,103.08,97.83Z"/><path class="cls-9" d="M105.89,105.84a87.9,87.9,0,0,1-8.64-14.52C103,87,109,83,109,83l7,13"/></g><g class="cls-15"><path class="cls-16" d="M216.87,87.28a3.23,3.23,0,0,1-.69-.07,3.3,3.3,0,0,1-2.53-3.91,63.72,63.72,0,0,1,9.46-22.21A3.29,3.29,0,0,1,228.43,65a58.11,58.11,0,0,0-8.34,19.73A3.3,3.3,0,0,1,216.87,87.28Z"/><path class="cls-17" d="M218.53,67.29a21.6,21.6,0,0,0,8.95,3.78l4-8.9-.75-10.32S221.53,60.1,218.53,67.29Z"/><path class="cls-16" d="M248.81,42.24c0,11.46-9.3,16.28-20.76,16.28-6.33,0-12.74-.74-16.55-4-3.08-2.63-4.2-7.16-4.2-12.29a20.76,20.76,0,0,1,41.51,0Z"/><path class="cls-16" d="M218.38,46.55a2.62,2.62,0,1,1-1.63-4.67,2.65,2.65,0,0,1,1.79.7"/><circle class="cls-18" cx="210.78" cy="43.03" r="0.91"/><path class="cls-17" d="M243.4,39.74c-15.35.92-43.47,2.32-47.62-2.31s14.36-5.68,14.36-5.68S227.87,37.91,243.4,39.74Z"/><path class="cls-17" d="M208.19,36.22c15.38,3,34.64,3.52,34.64,3.52s3.3,1.83,5.91.94c.55-5.93.8-16.3-15.29-19.83S208.7,26.21,208.19,36.22Z"/><path class="cls-19" d="M217.24,52.79s2.07-1.71,8,0"/><g class="cls-20"><path class="cls-21" d="M395.61,154l-.5-1.12-1.65.75L201,120.73l-.27,0-380.4,66-2.12.37L-18.46,534.32l.85,1.81L479.12,168.32ZM279,137.39l46.95,8-455,145.94-21.51-45.75L279.05,137.79ZM-152,242.6-165.95,213,235.8,130l36.14,6.18Zm484.92-96,55.2,9.44L-91,372.28l-36.64-77.92ZM200.75,124l26.18,4.48L-167.39,209.9-177,189.54ZM-89.63,375.25,393.9,157.06,471,170.26-16.34,531.11Z"/></g></g><g class="cls-22"><ellipse class="cls-23" cx="-122.96" cy="352.02" rx="173.57" ry="160.5"/></g></svg>