<svg id="レイヤー_1" data-name="レイヤー 1" xmlns="http://www.w3.org/2000/svg" xmlns:xlink="http://www.w3.org/1999/xlink" viewBox="0 0 218 218"><defs><style>.cls-1,.cls-4{fill:none;}.cls-2{clip-path:url(#clip-path);}.cls-3{fill:#fffef0;}.cls-10,.cls-12,.cls-13,.cls-3,.cls-5,.cls-6,.cls-7,.cls-8,.cls-9{stroke:#42210b;}.cls-10,.cls-12,.cls-13,.cls-3,.cls-4,.cls-5,.cls-6,.cls-7,.cls-8,.cls-9{stroke-linecap:round;stroke-linejoin:round;stroke-width:2px;}.cls-4{stroke:#9b7656;}.cls-5{fill:#ccc;}.cls-6{fill:#9dcd82;}.cls-7{fill:#f5dcbe;}.cls-8{fill:#bdccd4;}.cls-9{fill:#2c3493;}.cls-10{fill:#fff;}.cls-11{fill:#42210b;}.cls-12{fill:#e60012;}.cls-13,.cls-16{fill:#40220f;}.cls-14{clip-path:url(#clip-path-2);}.cls-15{fill:#fff100;}.cls-17{clip-path:url(#clip-path-3);}.cls-18{clip-path:url(#clip-path-4);}.cls-19{fill:#9b7656;}.cls-20{clip-path:url(#clip-path-5);}.cls-21{fill:#fff1e1;}</style><clipPath id="clip-path"><rect id="SVGID" class="cls-1" x="10" y="8" width="200" height="200" rx="10"/></clipPath><clipPath id="clip-path-2"><rect id="SVGID-2" data-name="SVGID" class="cls-1" x="247" y="9" width="200" height="200" rx="10"/></clipPath><clipPath id="clip-path-3"><rect id="SVGID-3" data-name="SVGID" class="cls-1" x="484" y="10" width="200" height="200" rx="10"/></clipPath><clipPath id="clip-path-4"><rect id="SVGID-4" data-name="SVGID" class="cls-1" x="182.24" y="-58" width="568.77" height="326.6"/></clipPath><clipPath id="clip-path-5"><rect id="SVGID-5" data-name="SVGID" class="cls-1" x="9" y="249" width="200" height="200" rx="10"/></clipPath></defs><title>１-2  多様な動き</title><g class="cls-2"><path class="cls-3" d="M146.12,166.2c3.07-6.77,10.57-9.68,10.57-9.68s-4.39-6.67,0-8.5,7.5.9,8.2,5.69c2.12-4.13,8.59-3.12,9.34,0s-1.23,5.72-4.72,5.72c2.46,2.28,1.8,5.42-1.13,6.77A7.58,7.58,0,0,1,159,163C156,161.71,151.1,161.71,146.12,166.2Z"/><ellipse class="cls-4" cx="198.29" cy="135.15" rx="15.41" ry="11.32" transform="translate(-41.01 117.25) rotate(-30)"/><ellipse class="cls-4" cx="126.55" cy="175.39" rx="15.41" ry="11.32" transform="translate(-70.74 86.77) rotate(-30)"/><ellipse class="cls-4" cx="92.22" cy="194.35" rx="15.41" ry="11.32" transform="translate(-84.82 72.15) rotate(-30)"/><ellipse class="cls-4" cx="44.68" cy="193.22" rx="15.41" ry="11.32" transform="translate(-90.62 48.23) rotate(-30)"/><ellipse class="cls-4" cx="149.64" cy="132.43" rx="15.41" ry="11.32" transform="translate(-46.17 92.56) rotate(-30)"/><ellipse class="cls-4" cx="174.39" cy="177.82" rx="15.41" ry="11.32" transform="translate(-65.54 111.02) rotate(-30)"/><path class="cls-5" d="M130.36,147.42c-1.11.57-4-.28-3.65.89a7.87,7.87,0,0,0,5.5,5.26c2.4.56,6.26-.68,8.19-2.87s.33-4.28.7-5.34,2.11-2.14,3-5.28c.59-2.13-1.26-4.32-1.26-4.32s-6.72-1.8-8.59.64.6,5.1-.47,6.58S132.74,146.19,130.36,147.42Z"/><path class="cls-6" d="M129.08,145.75c-2.34,1.2-.34,4.95,1.86,6.15s6.26-.68,8.18-2.87.34-4.27.7-5.33,2.27-2.1,3-5.29-.8-4.61-3.51-5.51-4.46-.61-6.33,1.83-1.65,2.89-1.23,5C132.1,141.49,131.46,144.52,129.08,145.75Z"/><path class="cls-6" d="M130.94,151.9s-6-2.2-4-6.1,7.34.3,7.34.3"/><path class="cls-7" d="M133.53,142.44a5.7,5.7,0,0,1-1.89-.33c-1.57-.57-15.52-5.81-20.51-16-6.14-12.58,12.56-23.83,16.37-25.95a5.58,5.58,0,0,1,5.45,9.75h0c-7.37,4.13-12.47,9.88-11.78,11.3,2.56,5.25,11.36,9.38,14.24,10.41a5.59,5.59,0,0,1-1.88,10.85Z"/><path class="cls-5" d="M122.42,169.74c-1.34.19-4-1.73-4-.4a8.51,8.51,0,0,0,3.73,7.36c2.24,1.43,6.63,1.55,9.38,0s1.88-4.24,2.63-5.2,2.93-1.43,4.94-4.32c1.37-2,.27-4.87.27-4.87s-6.21-4.25-9-2.43-1.21,5.43-2.84,6.55S125.29,169.35,122.42,169.74Z"/><path class="cls-6" d="M121.72,167.58c-2.82.39-2.13,4.93-.32,6.95s6.64,1.56,9.39,0,1.88-4.23,2.63-5.19,3.07-1.32,4.94-4.32.84-5-1.6-6.89-4.34-2.23-7.13-.41-2.72,2.36-3,4.63C126.33,164.32,124.59,167.19,121.72,167.58Z"/><path class="cls-6" d="M121.4,174.53s-5.29-4.39-1.88-7.67,7.39,2.95,7.39,2.95"/><path class="cls-7" d="M134.45,165.25a9.24,9.24,0,0,1-3.41-.67c-2.73-1.43-3.07-4.72-2.6-5.66C142,132,140.66,110.26,140.66,110a5.58,5.58,0,0,1,5.5-5.67h.09a5.58,5.58,0,0,1,5.58,5.49c0,1.14,3.32,22.21-12.47,52.28A5.68,5.68,0,0,1,134.45,165.25Z"/><path class="cls-8" d="M115.74,71c1.24,5.18,9.19,7.4,13.73,5.18l-3.8-10.15Z"/><path class="cls-7" d="M107.47,101.9a5.58,5.58,0,0,1-3.23-10.14C117.12,82.63,121,62.17,121,62a5.59,5.59,0,0,1,11,2c-.19,1-4.73,25.18-21.3,36.91A5.5,5.5,0,0,1,107.47,101.9Z"/><path class="cls-8" d="M119,96.78c-2,5.9,40,5.12,40,5.12L128.62,89.8A108.68,108.68,0,0,0,119,96.78Z"/><path class="cls-9" d="M158.87,99.46a215.93,215.93,0,0,1-5.78,25.59c-4.06,1.92-9.71,1.92-15.67-2.11.21-4-.29-6.73-1.82-7.25-3.21-1.1-7.28.77-10.14,3.22-5.85-1-9.25-3.25-12.37-8.68A48.5,48.5,0,0,1,126.29,97S161.5,80.75,158.87,99.46Z"/><path class="cls-10" d="M119,96.78c6.82-7.76,29,11.86,40,5.12,4.05-22.26-1.85-53.06-26.93-55.54C132.8,76.72,126,88.56,119,96.78Z"/><path class="cls-10" d="M115.74,71c7.91-2.64,13.73,5.18,13.73,5.18l6.13-22.4S123.19,53.81,115.74,71Z"/><path class="cls-8" d="M155.76,68.55c6.52.93,11.64-5.59,9.31-11.17L151.14,57Z"/><path class="cls-7" d="M177,103.92a5.59,5.59,0,0,1-5.56-5.15c-2.54-32.19-27.27-38.16-27.52-38.21a5.59,5.59,0,0,1,2.47-10.9c.33.08,33,7.94,36.18,48.23a5.58,5.58,0,0,1-5.12,6Z"/><path class="cls-10" d="M149.25,64.2a15.79,15.79,0,0,1,6.51,4.35c-1.55-4.81,3.25-12.26,9.31-11.17-8.22-8.69-25.48-9.25-25.48-9.25l-1.1,13.95"/><path class="cls-7" d="M163.14,26.34c5.6,15.83-3.64,30.52-19.46,36.13-8.31,2.94-17.22,4.29-23.78.86-5.94-3.1-9.79-10.43-12.45-18-5.61-15.82,1-31.93,16.87-37.54A30.43,30.43,0,0,1,163.14,26.34Z"/><path class="cls-7" d="M122.9,56.22a2.71,2.71,0,0,1-5.15.22,2.72,2.72,0,0,1,4-3.25"/><circle class="cls-11" cx="137.46" cy="48.63" r="1.63"/><ellipse class="cls-11" cx="113.62" cy="51.88" rx="1.41" ry="1.63" transform="translate(-9.8 32.67) rotate(-15.69)"/><path class="cls-12" d="M125.46,60c2.07,0,4.35-.29,8.48-2.38,0,2.38.93,4.86-1.65,5.64S127.12,62.15,125.46,60Z"/><path class="cls-13" d="M163.14,26.34A30.43,30.43,0,0,0,124.32,7.83c-15.83,5.61-22.48,21.72-16.87,37.54.32.92.66,1.84,1,2.74-.07-3.29,0-8.69,1.3-12.16,5.87,5.18,13.84,6.68,21.07,7.56-2.59-1.35-5.38-4-9-7.79,10,4.89,17.89,7.17,30.2,9.13a18.47,18.47,0,0,1-3.41-6.93s4.65.89,6.51,3.81a18,18,0,0,1,2.65,11.55A26.07,26.07,0,0,0,163.14,26.34Z"/><path class="cls-7" d="M149.64,40.61a3.84,3.84,0,0,1,1.6-3.23c1.91-1.29,4.77-.39,6.39,2s1.39,5.39-.51,6.68a3.8,3.8,0,0,1-3.31.37"/></g><g class="cls-14"><path class="cls-15" d="M204,106.5a3.52,3.52,0,0,1-3.35-2.49A3.51,3.51,0,0,1,203,99.65l47.4-14.34L210.11,69.9l-12.76,5.33a3.5,3.5,0,0,1-2.7-6.46L304,23.15a3.59,3.59,0,0,1,1.44-.6L472.65-47.23A3.5,3.5,0,0,1,474-47.5a3.49,3.49,0,0,1,3.23,2.15,3.51,3.51,0,0,1-1.88,4.58l-39.07,16.3,25.27,45.89L517,4.65A3.49,3.49,0,0,1,521.35,7,3.51,3.51,0,0,1,519,11.35l-254.4,77A3.51,3.51,0,0,1,262,89.5a3.37,3.37,0,0,1-.9-.12l-56.09,17A3.48,3.48,0,0,1,204,106.5ZM261.33,82l31.93-9.66L254,51.58,219.48,66Zm41.46-12.54,37.49-11.35-34.77-28-43.11,18Zm45.6-13.8,46.34-14L364.51,5.48,312.86,27ZM402,39.44,454.7,23.5,429.78-21.76,371.27,2.66Z"/><path class="cls-16" d="M474-46.5A2.5,2.5,0,0,1,476.31-45,2.5,2.5,0,0,1,475-41.69L434.87-25l26.19,47.58,56.22-17A2.25,2.25,0,0,1,518,5.5a2.5,2.5,0,0,1,.72,4.89L264,87.45a2.5,2.5,0,0,1-2,1,2.31,2.31,0,0,1-.89-.17h0l-56.39,17.06a2.25,2.25,0,0,1-.72.11,2.5,2.5,0,0,1-.72-4.89l50.2-15.19L210.1,68.83,197,74.31A2.5,2.5,0,1,1,195,69.69L304.47,24a2.54,2.54,0,0,1,1.21-.51L473-46.31a2.49,2.49,0,0,1,1-.19M401.66,40.59,456.17,24.1,430.23-23,369.64,2.26l32,38.33M348.17,56.77l48.29-14.61L365.08,4.6a3.39,3.39,0,0,1-.23-.34l-53.93,22.5,37.25,30M302.68,70.53l39.7-12L305.67,29,260.06,48l42.62,22.55M261.3,83.05l34.58-10.46L254.09,50.47,216.79,66l44.51,17M474-48.5h0a4.46,4.46,0,0,0-1.73.35L305.12,21.59a4.59,4.59,0,0,0-1.63.68L194.27,67.85a4.5,4.5,0,1,0,3.46,8.3L210.13,71,247.3,85.2,202.7,98.69a4.5,4.5,0,0,0,1.3,8.81,4.4,4.4,0,0,0,1.3-.19l55.83-16.89a4.94,4.94,0,0,0,.87.08,4.53,4.53,0,0,0,3.16-1.3L519.3,12.31A4.5,4.5,0,0,0,518,3.5a4.4,4.4,0,0,0-1.3.19L462,20.23,437.7-24l38-15.88a4.49,4.49,0,0,0,2.42-5.88A4.49,4.49,0,0,0,474-48.5ZM372.91,3.06l56.43-23.55L453.22,22.9,402.35,38.29,372.91,3.06ZM314.79,27.31,364.22,6.69,393,41.12,348.6,54.55,314.79,27.31ZM264.74,48.19l40.6-16.94L338.17,57.7,302.89,68.38,264.74,48.19ZM222.18,66,254,52.68l36.66,19.4-29.28,8.86L222.18,66Z"/></g><g class="cls-17"><g class="cls-18"><path class="cls-19" d="M633.61,154l-.5-1.12-1.65.75L439,120.73l-.27,0-380.4,66-2.12.37L219.54,534.32l.85,1.81L717.12,168.32ZM517,137.39l46.95,8-455,145.94L87.41,245.62,517.05,137.79ZM86,242.6,72.05,213,473.8,130l36.14,6.18Zm484.92-96,55.2,9.44L147,372.28l-36.64-77.92ZM438.75,124l26.18,4.48L70.61,209.9,61,189.54ZM148.37,375.25,631.9,157.06,709,170.26,221.66,531.11Z"/></g></g><g class="cls-20"><ellipse class="cls-21" cx="115.04" cy="352.02" rx="173.57" ry="160.5"/></g></svg>