<svg id="レイヤー_1" data-name="レイヤー 1" xmlns="http://www.w3.org/2000/svg" viewBox="0 0 314.5 185"><defs><style>.cls-1{fill:#f9e4d2;}.cls-1,.cls-9{stroke:#231815;}.cls-1,.cls-10,.cls-9{stroke-miterlimit:10;}.cls-2{fill:#fff;}.cls-3{fill:#231815;}.cls-4{fill:#0068b2;}.cls-5{fill:#e60012;}.cls-6{opacity:0.7;}.cls-7{opacity:0.5;}.cls-8{opacity:0.3;}.cls-10,.cls-9{fill:none;}.cls-10{stroke:#b5b5b6;stroke-width:0.75px;}</style></defs><title>アートボード 3</title><rect class="cls-1" x="27" y="24.5" width="272.24" height="136"/><path class="cls-2" d="M90.43,102.48a6.47,6.47,0,0,1-2.16,4.84c-.1.08-.35-.07-.45,0s0,.39-.14.46A6.45,6.45,0,0,1,83.94,109a6.74,6.74,0,0,1-1.63-.21c-.1,0,0-.28-.15-.32s-.4.15-.53.1a6.49,6.49,0,0,1-4.14-5.3c0-.25.19-.32.19-.58s-.22-.64-.2-.86a6.51,6.51,0,0,1,5.44-5.74c.14,0,.36.22.5.21s.31-.29.52-.29a6.49,6.49,0,0,1,6.16,4.45c.06.18-.24.41-.19.58s.41.26.44.42A7.17,7.17,0,0,1,90.43,102.48Z"/><path class="cls-3" d="M83.94,109.29a6.45,6.45,0,0,1-1.7-.22.36.36,0,0,1-.27-.26.69.69,0,0,1-.45,0,6.8,6.8,0,0,1-4.34-5.56.68.68,0,0,1,.14-.5c0-.07.05-.09.05-.12a2,2,0,0,0-.08-.31,1.4,1.4,0,0,1-.12-.58,6.8,6.8,0,0,1,5.7-6,.73.73,0,0,1,.47.15l.06,0,.06,0a.72.72,0,0,1,.48-.22,6.81,6.81,0,0,1,6.46,4.66.68.68,0,0,1-.13.56l0,0,0,0a.66.66,0,0,1,.36.43,6.68,6.68,0,0,1,.09,1.09,6.81,6.81,0,0,1-2.26,5.07.49.49,0,0,1-.42.1.52.52,0,0,1-.2.39A6.72,6.72,0,0,1,83.94,109.29Zm-1.4-.79a6.21,6.21,0,0,0,4.9-.92v-.06a.62.62,0,0,1,.19-.43.55.55,0,0,1,.47-.07h0a6.18,6.18,0,0,0,2-4.54,7.28,7.28,0,0,0-.07-.93l-.09-.06a.69.69,0,0,1-.36-.39.69.69,0,0,1,.14-.52.41.41,0,0,1,.05-.09,6.18,6.18,0,0,0-5.85-4.18l-.07.06a.74.74,0,0,1-.43.22.68.68,0,0,1-.43-.15l-.09,0a6.18,6.18,0,0,0-5.13,5.45,2.37,2.37,0,0,0,.09.32,1.61,1.61,0,0,1,.11.51.92.92,0,0,1-.14.45c0,.07,0,.08,0,.09a6.15,6.15,0,0,0,3.9,5l.1,0a.72.72,0,0,1,.46,0A.44.44,0,0,1,82.54,108.5Zm-.87-.25ZM83,96.38Z"/><path class="cls-3" d="M81.33,101.91l-.09,0a.24.24,0,0,1-.13-.31A6.92,6.92,0,0,1,83,99.41a.24.24,0,0,1,.33,0,.25.25,0,0,1,0,.33,6.6,6.6,0,0,0-1.72,2A.24.24,0,0,1,81.33,101.91Z"/><path class="cls-3" d="M82.84,105.33a.24.24,0,0,1-.15-.06,9.23,9.23,0,0,1-1.56-2,.23.23,0,1,1,.4-.24A9.67,9.67,0,0,0,83,104.91a.23.23,0,0,1,0,.33A.21.21,0,0,1,82.84,105.33Z"/><path class="cls-3" d="M84,105.56a.24.24,0,0,1-.23-.21.24.24,0,0,1,.21-.26,7.17,7.17,0,0,0,2.15-.51.23.23,0,0,1,.32.07.24.24,0,0,1-.07.33,7.71,7.71,0,0,1-2.35.58Z"/><path class="cls-3" d="M87.07,104.36H87a.24.24,0,0,1-.15-.3,12.73,12.73,0,0,0,.54-2.13.24.24,0,0,1,.27-.19.22.22,0,0,1,.19.27,15.64,15.64,0,0,1-.55,2.21A.25.25,0,0,1,87.07,104.36Z"/><path class="cls-3" d="M87.07,100.69a.28.28,0,0,1-.17-.07,7.55,7.55,0,0,0-2.31-1.51.24.24,0,0,1-.14-.3.23.23,0,0,1,.3-.14,8,8,0,0,1,2.48,1.61.25.25,0,0,1,0,.34A.24.24,0,0,1,87.07,100.69Z"/><path class="cls-3" d="M83.62,98.68a.24.24,0,0,1-.23-.2l-.18-1.33a.24.24,0,0,1,.2-.27.22.22,0,0,1,.26.2l.19,1.33a.25.25,0,0,1-.2.27Z"/><path class="cls-3" d="M80.24,103.14H79a.24.24,0,0,1-.24-.24.23.23,0,0,1,.24-.23h1.28a.23.23,0,0,1,.23.23A.23.23,0,0,1,80.24,103.14Z"/><path class="cls-3" d="M82.71,107.59a.2.2,0,0,1-.1,0,.23.23,0,0,1-.11-.31l.52-1.12a.23.23,0,0,1,.31-.11.23.23,0,0,1,.12.31l-.53,1.12A.23.23,0,0,1,82.71,107.59Z"/><path class="cls-3" d="M87.61,106.81a.24.24,0,0,1-.21-.13l-.55-1.12a.24.24,0,0,1,.43-.21l.54,1.12a.24.24,0,0,1-.1.32Z"/><path class="cls-3" d="M89.18,101.42h-1a.23.23,0,0,1-.23-.24.23.23,0,0,1,.23-.23h1a.23.23,0,0,1,.23.23A.23.23,0,0,1,89.18,101.42Z"/><path class="cls-4" d="M100.53,82.65a6.47,6.47,0,0,1,4.82,2.18c.09.1-.06.35,0,.45s.38,0,.45.14A6.47,6.47,0,0,1,107,89.17a6.74,6.74,0,0,1-.21,1.63c0,.1-.29,0-.32.14s.15.41.1.53a6.49,6.49,0,0,1-5.33,4.12c-.25,0-.32-.19-.58-.19s-.64.22-.86.19a6.49,6.49,0,0,1-5.71-5.46c0-.14.23-.36.21-.5s-.28-.32-.28-.52A6.48,6.48,0,0,1,98.49,83c.17-.06.4.24.58.19s.26-.41.42-.43A7.17,7.17,0,0,1,100.53,82.65Z"/><path class="cls-3" d="M99.83,95.91h-.07a6.8,6.8,0,0,1-6-5.73.71.71,0,0,1,.15-.46.16.16,0,0,0,0-.07l0-.06a.74.74,0,0,1-.21-.47,6.79,6.79,0,0,1,4.69-6.44.66.66,0,0,1,.55.13l0,0,0,0a.66.66,0,0,1,.43-.36,6.75,6.75,0,0,1,1.09-.08,6.85,6.85,0,0,1,5.06,2.28.5.5,0,0,1,.09.43.53.53,0,0,1,.4.19,6.75,6.75,0,0,1,1.22,3.93,6.58,6.58,0,0,1-.22,1.71.38.38,0,0,1-.26.26.63.63,0,0,1,0,.45,6.78,6.78,0,0,1-5.58,4.31.68.68,0,0,1-.5-.14c-.07,0-.09-.05-.12-.05h0a1.7,1.7,0,0,0-.3.08A1.77,1.77,0,0,1,99.83,95.91ZM94.4,90.13a6.17,6.17,0,0,0,5.43,5.15,1.24,1.24,0,0,0,.32-.08,1.56,1.56,0,0,1,.5-.11h0a.76.76,0,0,1,.45.15l.1,0a6.16,6.16,0,0,0,5-3.87.42.42,0,0,0,0-.1.8.8,0,0,1,0-.46.43.43,0,0,1,.35-.28,6,6,0,0,0,.17-1.4,6.2,6.2,0,0,0-1.07-3.5h0a.62.62,0,0,1-.44-.19.55.55,0,0,1-.07-.47v0a6.2,6.2,0,0,0-4.53-2h0a7.14,7.14,0,0,0-.93.07.28.28,0,0,0-.06.09.73.73,0,0,1-.4.35.69.69,0,0,1-.52-.14l-.08,0a6.17,6.17,0,0,0-4.22,5.83s0,0,.07.07a.73.73,0,0,1,.21.42.63.63,0,0,1-.15.44S94.41,90.1,94.4,90.13Zm11.25-4.46Zm-.53-.63Zm-5.5-2Z"/><path class="cls-3" d="M99.68,92l-.09,0a6.93,6.93,0,0,1-2.17-1.88.24.24,0,0,1,.37-.29,6.48,6.48,0,0,0,2,1.74.23.23,0,0,1,.12.31A.22.22,0,0,1,99.68,92Z"/><path class="cls-3" d="M101.17,92a.25.25,0,0,1-.21-.12.24.24,0,0,1,.08-.32,9.16,9.16,0,0,0,1.88-1.45.24.24,0,0,1,.33,0,.23.23,0,0,1,0,.33,9.58,9.58,0,0,1-2,1.55A.19.19,0,0,1,101.17,92Z"/><path class="cls-3" d="M103.34,89.37a.23.23,0,0,1-.23-.21,7.46,7.46,0,0,0-.5-2.15.23.23,0,1,1,.39-.25,7.41,7.41,0,0,1,.57,2.35.23.23,0,0,1-.2.26Z"/><path class="cls-3" d="M102.16,86.26l-.08,0a14.77,14.77,0,0,0-2.12-.55.22.22,0,0,1-.19-.27.24.24,0,0,1,.27-.19,15.25,15.25,0,0,1,2.2.57.24.24,0,0,1-.08.46Z"/><path class="cls-3" d="M96.91,88.62h-.08a.23.23,0,0,1-.14-.3,7.77,7.77,0,0,1,1.63-2.47.23.23,0,1,1,.33.33,7.39,7.39,0,0,0-1.52,2.3A.25.25,0,0,1,96.91,88.62Z"/><path class="cls-3" d="M95.13,89.84a.23.23,0,0,1,0-.46l1.33-.18a.24.24,0,0,1,.26.2.24.24,0,0,1-.2.27l-1.33.17Z"/><path class="cls-3" d="M100.89,94.36h0a.23.23,0,0,1-.23-.24V92.84a.22.22,0,0,1,.24-.23.23.23,0,0,1,.23.24v1.27A.24.24,0,0,1,100.89,94.36Z"/><path class="cls-3" d="M105.37,90.63a.17.17,0,0,1-.1,0l-1.12-.52a.24.24,0,0,1-.11-.32.24.24,0,0,1,.31-.11l1.12.53a.22.22,0,0,1,.11.31A.23.23,0,0,1,105.37,90.63Z"/><path class="cls-3" d="M103.49,86.26a.23.23,0,0,1-.21-.13.23.23,0,0,1,.1-.31l1.13-.55a.24.24,0,0,1,.31.11.24.24,0,0,1-.11.32l-1.12.54A.18.18,0,0,1,103.49,86.26Z"/><path class="cls-3" d="M99.22,85.15h0a.24.24,0,0,1-.24-.24v-1a.23.23,0,0,1,.23-.23h0a.24.24,0,0,1,.24.24v1A.23.23,0,0,1,99.22,85.15Z"/><path class="cls-4" d="M68.58,110.19a6.43,6.43,0,0,1-.42,5.27c-.06.11-.34.05-.41.17s.09.37,0,.47A6.54,6.54,0,0,1,63,118.82c-.1,0-.14-.25-.24-.25s-.34.28-.47.27a6.51,6.51,0,0,1-5.68-3.61c-.11-.23.08-.37,0-.62s-.42-.52-.48-.74a6.5,6.5,0,0,1,3.22-7.22c.12-.07.41.09.53,0s.21-.38.4-.45a6.5,6.5,0,0,1,7.29,2.14c.12.14-.08.46,0,.61s.47.11.55.25A5.93,5.93,0,0,1,68.58,110.19Z"/><path class="cls-3" d="M55.87,114s0-.05,0-.07a6.8,6.8,0,0,1,3.37-7.57.64.64,0,0,1,.49,0h.07l0-.06a.74.74,0,0,1,.37-.37,6.8,6.8,0,0,1,7.65,2.24.64.64,0,0,1,.07.56v.05h0a.67.67,0,0,1,.48.28,6.78,6.78,0,0,1,0,6.53.48.48,0,0,1-.37.23.53.53,0,0,1,0,.44,6.82,6.82,0,0,1-3.28,2.49,7,7,0,0,1-1.68.36.38.38,0,0,1-.34-.15.65.65,0,0,1-.41.18,6.79,6.79,0,0,1-6-3.8.78.78,0,0,1,0-.51c0-.08,0-.1,0-.13h0a1.25,1.25,0,0,0-.17-.26A1.72,1.72,0,0,1,55.87,114Zm3.6-7.06a6.17,6.17,0,0,0-3,6.85,1.23,1.23,0,0,0,.19.27,1.58,1.58,0,0,1,.27.44h0a.69.69,0,0,1,0,.47c0,.09,0,.09,0,.11a6.15,6.15,0,0,0,5.35,3.44l.08-.07a.72.72,0,0,1,.42-.2.41.41,0,0,1,.37.23,6.56,6.56,0,0,0,1.38-.31,6.06,6.06,0,0,0,2.93-2.2.11.11,0,0,0,0,0,.6.6,0,0,1,0-.47.52.52,0,0,1,.43-.22h0a6.21,6.21,0,0,0,.36-4.94h0a7.26,7.26,0,0,0-.38-.86l-.1,0a.68.68,0,0,1-.47-.26.66.66,0,0,1,0-.53s0-.07,0-.1a6.15,6.15,0,0,0-6.91-2s0,0,0,.08A.71.71,0,0,1,60,107a.69.69,0,0,1-.47,0Zm8,9.08Zm.42-.72Zm0-5.86Z"/><path class="cls-3" d="M59.52,112.54a.29.29,0,0,1,0-.09,7,7,0,0,1,1-2.68.24.24,0,0,1,.33-.07.24.24,0,0,1,.07.32,6.66,6.66,0,0,0-1,2.46.23.23,0,0,1-.25.21A.21.21,0,0,1,59.52,112.54Z"/><path class="cls-3" d="M60,113.94a.28.28,0,0,1,0-.23.24.24,0,0,1,.33,0,9.67,9.67,0,0,0,2,1.27.25.25,0,0,1,.15.3.24.24,0,0,1-.3.15A9.31,9.31,0,0,1,60.09,114,.25.25,0,0,1,60,113.94Z"/><path class="cls-3" d="M63.21,115.1a.24.24,0,0,1,.12-.29,6.83,6.83,0,0,0,1.85-1.2.24.24,0,0,1,.33,0,.23.23,0,0,1,0,.33,7.85,7.85,0,0,1-2,1.34.24.24,0,0,1-.31-.11Z"/><path class="cls-3" d="M65.74,112.94a.28.28,0,0,1,0-.09,14.59,14.59,0,0,0-.2-2.18.23.23,0,0,1,.19-.27.25.25,0,0,1,.27.19,14.8,14.8,0,0,1,.21,2.27.23.23,0,0,1-.24.23A.23.23,0,0,1,65.74,112.94Z"/><path class="cls-3" d="M61.74,108.8a.31.31,0,0,1,0-.08.24.24,0,0,1,.24-.24,7.91,7.91,0,0,1,2.88.7.24.24,0,0,1,.11.31.23.23,0,0,1-.31.11A7.81,7.81,0,0,0,62,109,.23.23,0,0,1,61.74,108.8Z"/><path class="cls-3" d="M60,107.53a.22.22,0,0,1,.11-.28.24.24,0,0,1,.32.1l.61,1.19a.24.24,0,1,1-.42.22l-.61-1.2Z"/><path class="cls-3" d="M57.69,114.49h0a.23.23,0,0,1,.14-.3l1.21-.43a.22.22,0,0,1,.3.14.23.23,0,0,1-.15.3l-1.2.43A.24.24,0,0,1,57.69,114.49Z"/><path class="cls-3" d="M62.72,117.44a.43.43,0,0,1,0-.11l.12-1.23a.24.24,0,0,1,.47.05l-.12,1.23a.23.23,0,0,1-.25.21A.23.23,0,0,1,62.72,117.44Z"/><path class="cls-3" d="M66.19,114.19a.23.23,0,0,1,.38-.25l.89.88a.23.23,0,0,1-.33.33l-.89-.87A.41.41,0,0,1,66.19,114.19Z"/><path class="cls-3" d="M65.79,109.79h0a.24.24,0,0,1,.14-.3l1-.34a.23.23,0,0,1,.3.15h0a.24.24,0,0,1-.14.3l-1,.34A.24.24,0,0,1,65.79,109.79Z"/><path class="cls-5" d="M74.79,66.37a6.21,6.21,0,0,1-.28,1.84c0,.14-.35.09-.4.23s.15.43.09.56a6.14,6.14,0,0,1-3.66,3.22c-.19.06-.49-.12-.68-.08s-.25.31-.44.33a5.11,5.11,0,0,1-.78,0,6.15,6.15,0,0,1-4.4-1.84c-.24-.25-.13-.7-.33-1s-.61-.24-.73-.46a6.26,6.26,0,0,1-.7-2.86,6.36,6.36,0,0,1,.3-1.91c.07-.2.42-.23.51-.43s-.14-.45-.06-.6a6.15,6.15,0,0,1,5.41-3.21c.16,0,.19.26.36.27s.52-.21.71-.18a6.19,6.19,0,0,1,3.8,2.3c.22.29.53.42.7.75s.11.65.21.9A6.16,6.16,0,0,1,74.79,66.37Z"/><path class="cls-3" d="M68.64,72.84A6.42,6.42,0,0,1,64,70.9a1.18,1.18,0,0,1-.27-.69.87.87,0,0,0-.09-.34,1.12,1.12,0,0,0-.22-.11.94.94,0,0,1-.53-.39,6.37,6.37,0,0,1-.74-3,6.44,6.44,0,0,1,.32-2,.71.71,0,0,1,.4-.4l.09-.06a.29.29,0,0,1,0-.09.64.64,0,0,1,0-.54,6.46,6.46,0,0,1,5.68-3.37.52.52,0,0,1,.43.26l.16-.06a.89.89,0,0,1,.53-.1,6.39,6.39,0,0,1,4,2.41,1.66,1.66,0,0,0,.27.26,1.89,1.89,0,0,1,.47.53,2,2,0,0,1,.15.61,2.53,2.53,0,0,0,.07.34,6.35,6.35,0,0,1,.39,2.21,6.59,6.59,0,0,1-.29,1.93.5.5,0,0,1-.36.31h0a.67.67,0,0,1,0,.52,6.48,6.48,0,0,1-3.85,3.39,1,1,0,0,1-.53,0l-.18,0,0,.06a.62.62,0,0,1-.43.27A5.52,5.52,0,0,1,68.64,72.84Zm-5.11-9.3a.45.45,0,0,0,0,.11.74.74,0,0,1,0,.51.71.71,0,0,1-.38.35s-.11.06-.12.08a5.77,5.77,0,0,0-.27,1.78,5.93,5.93,0,0,0,.66,2.71,1.64,1.64,0,0,0,.22.1,1.15,1.15,0,0,1,.49.33,1.24,1.24,0,0,1,.19.61.75.75,0,0,0,.11.34,5.8,5.8,0,0,0,4.91,1.7s0,0,0,0a.67.67,0,0,1,.38-.27,1,1,0,0,1,.48,0l.18,0a5.86,5.86,0,0,0,3.44-3l0-.1a.75.75,0,0,1,0-.49.56.56,0,0,1,.42-.31h0a6.09,6.09,0,0,0,.23-1.65,5.65,5.65,0,0,0-.35-2,3.11,3.11,0,0,1-.1-.46,1.39,1.39,0,0,0-.09-.41,1.23,1.23,0,0,0-.31-.34,2,2,0,0,1-.36-.36,5.82,5.82,0,0,0-3.61-2.18l-.2.07a1,1,0,0,1-.48.11.54.54,0,0,1-.4-.26h0A5.84,5.84,0,0,0,63.53,63.54Zm0,0Z"/><path class="cls-2" d="M69.86,66.25s1.35.21,1.67.68"/><path class="cls-3" d="M71.53,67.16a.23.23,0,0,1-.2-.1,2.93,2.93,0,0,0-1.51-.58.23.23,0,0,1-.2-.26.24.24,0,0,1,.27-.2c.25,0,1.48.25,1.83.78a.24.24,0,0,1-.06.32A.22.22,0,0,1,71.53,67.16Z"/><path class="cls-2" d="M67,68.44a6.94,6.94,0,0,0,1.33-1.85"/><path class="cls-3" d="M67,68.67a.23.23,0,0,1-.16-.4,6.79,6.79,0,0,0,1.28-1.78.24.24,0,0,1,.31-.12.24.24,0,0,1,.11.31,7,7,0,0,1-1.38,1.93A.23.23,0,0,1,67,68.67Z"/><path class="cls-2" d="M67.71,63.72a1.79,1.79,0,0,1,.66,1.44"/><path class="cls-3" d="M68.37,65.39h0a.24.24,0,0,1-.19-.27c.1-.63-.58-1.21-.58-1.22a.23.23,0,1,1,.29-.36,2,2,0,0,1,.75,1.65A.23.23,0,0,1,68.37,65.39Z"/><path class="cls-2" d="M65.71,63.17a3.67,3.67,0,0,0-1,.71"/><path class="cls-3" d="M64.7,64.11a.24.24,0,0,1-.17-.4A3.72,3.72,0,0,1,65.62,63a.23.23,0,0,1,.31.12.24.24,0,0,1-.13.31,3.3,3.3,0,0,0-.94.65A.2.2,0,0,1,64.7,64.11Z"/><path class="cls-2" d="M68.19,62.6a5.58,5.58,0,0,0,.6-1"/><path class="cls-3" d="M68.19,62.84a.3.3,0,0,1-.15-.05.24.24,0,0,1,0-.33,5.11,5.11,0,0,0,.57-1,.24.24,0,1,1,.43.19,4.84,4.84,0,0,1-.63,1.06A.22.22,0,0,1,68.19,62.84Z"/><polyline class="cls-2" points="72.67 65.7 73.51 64.44 73.32 63.72"/><path class="cls-3" d="M72.67,65.94a.33.33,0,0,1-.13,0,.23.23,0,0,1-.06-.33l.77-1.17-.15-.62a.23.23,0,0,1,.17-.29.24.24,0,0,1,.28.17l.18.72a.22.22,0,0,1,0,.19l-.83,1.26A.24.24,0,0,1,72.67,65.94Z"/><path class="cls-3" d="M73.9,64.67h-.39a.23.23,0,0,1-.24-.23.24.24,0,0,1,.24-.24h.39a.23.23,0,0,1,.23.24A.23.23,0,0,1,73.9,64.67Z"/><path class="cls-2" d="M72.31,68a2,2,0,0,1,0,1.2"/><path class="cls-3" d="M72.31,69.46h-.07a.24.24,0,0,1-.16-.3,1.67,1.67,0,0,0,0-1,.24.24,0,0,1,.13-.31.25.25,0,0,1,.31.14,2.21,2.21,0,0,1,0,1.35A.23.23,0,0,1,72.31,69.46Z"/><path class="cls-2" d="M71.73,70.34a3.73,3.73,0,0,1-.78,1"/><path class="cls-3" d="M71,71.62a.23.23,0,0,1-.16-.4,3.67,3.67,0,0,0,.73-1,.23.23,0,0,1,.31-.12.23.23,0,0,1,.12.31,4,4,0,0,1-.84,1.12A.23.23,0,0,1,71,71.62Z"/><path class="cls-2" d="M67.71,70.24A2.35,2.35,0,0,0,69,71.54"/><path class="cls-3" d="M69,71.78a.17.17,0,0,1-.1,0,2.62,2.62,0,0,1-1.42-1.44.24.24,0,0,1,.16-.3.25.25,0,0,1,.29.16h0a2.17,2.17,0,0,0,1.17,1.16.25.25,0,0,1,.11.31A.24.24,0,0,1,69,71.78Z"/><path class="cls-2" d="M65.48,69.22a1.85,1.85,0,0,1-.89.31"/><path class="cls-3" d="M64.59,69.77a.23.23,0,0,1-.23-.21.24.24,0,0,1,.21-.26,1.7,1.7,0,0,0,.77-.26.22.22,0,0,1,.32,0,.24.24,0,0,1,0,.33,2.17,2.17,0,0,1-1,.36Z"/><path class="cls-5" d="M50.93,68.38a6.23,6.23,0,0,1-1.54,1c-.13.06-.31-.19-.45-.14s-.21.41-.34.45a6.17,6.17,0,0,1-4.86-.52c-.17-.09-.24-.44-.4-.55s-.39,0-.54-.1a5.73,5.73,0,0,1-.56-.54,6.13,6.13,0,0,1-1.62-4.48c0-.36.43-.57.5-.91s-.23-.62-.15-.86a6.14,6.14,0,0,1,1.63-2.44,5.8,5.8,0,0,1,1.61-1.07c.19-.09.46.14.65.08s.25-.42.41-.46a6.16,6.16,0,0,1,6,1.81c.11.12,0,.32.05.45s.51.24.61.4a6.18,6.18,0,0,1,.88,4.35,5.88,5.88,0,0,1-.07,1c-.09.25-.41.52-.53.76A6.21,6.21,0,0,1,50.93,68.38Z"/><path class="cls-3" d="M46.77,70.32a6.45,6.45,0,0,1-3.18-.83.89.89,0,0,1-.33-.42,1.58,1.58,0,0,0-.1-.16s0,0-.07,0a.7.7,0,0,1-.49-.13,6.53,6.53,0,0,1-2.29-5.28,1.12,1.12,0,0,1,.32-.67.76.76,0,0,0,.19-.29,1.16,1.16,0,0,0-.07-.24,1,1,0,0,1-.07-.65,6.39,6.39,0,0,1,1.71-2.57A6.17,6.17,0,0,1,44.08,58a.76.76,0,0,1,.56,0l.1,0,0-.08a.73.73,0,0,1,.4-.37,6.46,6.46,0,0,1,6.33,1.9.57.57,0,0,1,.11.49l.14.08a1.09,1.09,0,0,1,.44.32A6.47,6.47,0,0,1,53.14,65a1.51,1.51,0,0,0,0,.37,2,2,0,0,1-.08.7,2.17,2.17,0,0,1-.34.53,1.85,1.85,0,0,0-.2.27,6.46,6.46,0,0,1-1.37,1.79,6.32,6.32,0,0,1-1.62,1.09.5.5,0,0,1-.47,0h0a.67.67,0,0,1-.36.38A6.57,6.57,0,0,1,46.77,70.32Zm-3.62-2a.59.59,0,0,1,.37.1,1,1,0,0,1,.29.39,1.58,1.58,0,0,0,.1.16,5.89,5.89,0,0,0,4.54.5.47.47,0,0,0,0-.1.68.68,0,0,1,.33-.36.53.53,0,0,1,.5.1h0a5.81,5.81,0,0,0,1.38-.94h0A5.84,5.84,0,0,0,52,66.54a2.14,2.14,0,0,1,.28-.39,1.69,1.69,0,0,0,.23-.34,1.15,1.15,0,0,0,0-.46,2.26,2.26,0,0,1,0-.51,5.81,5.81,0,0,0-.83-4.13l-.19-.1a1.07,1.07,0,0,1-.41-.28.54.54,0,0,1-.08-.47h0a5.8,5.8,0,0,0-5.62-1.67.7.7,0,0,0-.06.09.69.69,0,0,1-.37.36.82.82,0,0,1-.52,0l-.14,0a6.22,6.22,0,0,0-1.49,1,5.77,5.77,0,0,0-1.54,2.32,1.11,1.11,0,0,0,.07.23,1,1,0,0,1,.09.58,1.32,1.32,0,0,1-.31.56.7.7,0,0,0-.19.3,5.83,5.83,0,0,0,1.54,4.26,5.13,5.13,0,0,0,.53.51s0,0,.07,0Zm2.26-10.14Z"/><path class="cls-2" d="M47.68,64.67s.76,1.14.63,1.69"/><path class="cls-3" d="M48.31,66.59h-.06a.23.23,0,0,1-.17-.28,2.93,2.93,0,0,0-.59-1.5.23.23,0,1,1,.38-.26c.14.2.82,1.26.67,1.87A.23.23,0,0,1,48.31,66.59Z"/><path class="cls-2" d="M44.16,64.08a7.06,7.06,0,0,0,2.26-.27"/><path class="cls-3" d="M44.44,64.32h-.29a.22.22,0,0,1-.22-.24.23.23,0,0,1,.25-.22,6.79,6.79,0,0,0,2.17-.27.24.24,0,1,1,.15.45A7,7,0,0,1,44.44,64.32Z"/><path class="cls-2" d="M48.08,61.38a1.79,1.79,0,0,1-.6,1.46"/><path class="cls-3" d="M47.48,63.07a.24.24,0,0,1-.2-.11.23.23,0,0,1,.07-.32c.54-.35.5-1.24.5-1.25a.24.24,0,0,1,.22-.25.23.23,0,0,1,.25.22A2,2,0,0,1,47.61,63,.22.22,0,0,1,47.48,63.07Z"/><path class="cls-2" d="M47.14,59.54a3.37,3.37,0,0,0-1.21-.27"/><path class="cls-3" d="M47.14,59.77a.16.16,0,0,1-.1,0,3.61,3.61,0,0,0-1.12-.25.23.23,0,0,1-.22-.24.24.24,0,0,1,.24-.23,3.9,3.9,0,0,1,1.3.29.26.26,0,0,1,.11.32A.23.23,0,0,1,47.14,59.77Z"/><path class="cls-2" d="M49.24,61a5.2,5.2,0,0,0,1.15-.25"/><path class="cls-3" d="M49.24,61.21A.25.25,0,0,1,49,61a.24.24,0,0,1,.22-.25,4.88,4.88,0,0,0,1.09-.24.23.23,0,0,1,.3.15.24.24,0,0,1-.14.3,6.56,6.56,0,0,1-1.21.26Z"/><polyline class="cls-2" points="49.99 66.37 51.48 66.13 51.89 65.51"/><path class="cls-3" d="M50,66.61a.24.24,0,0,1-.23-.2.23.23,0,0,1,.19-.27l1.39-.23.35-.53a.23.23,0,1,1,.39.26l-.4.62a.25.25,0,0,1-.16.1L50,66.6Z"/><line class="cls-2" x1="51.48" y1="66.13" x2="51.75" y2="66.42"/><path class="cls-3" d="M51.75,66.65a.22.22,0,0,1-.17-.07l-.27-.29a.23.23,0,0,1,0-.33.24.24,0,0,1,.33,0l.26.29a.24.24,0,0,1,0,.33A.25.25,0,0,1,51.75,66.65Z"/><path class="cls-2" d="M48,67.67a2,2,0,0,1-.88.82"/><path class="cls-3" d="M47.15,68.72a.23.23,0,0,1-.21-.14.24.24,0,0,1,.11-.31,1.67,1.67,0,0,0,.77-.7.25.25,0,0,1,.32-.11.24.24,0,0,1,.1.32,2.19,2.19,0,0,1-1,.92Z"/><path class="cls-2" d="M45.94,68.82a3.73,3.73,0,0,1-1.3.13"/><path class="cls-3" d="M44.91,69.2h-.28a.24.24,0,1,1,0-.47,3.69,3.69,0,0,0,1.2-.12.24.24,0,0,1,.3.15A.22.22,0,0,1,46,69,3.47,3.47,0,0,1,44.91,69.2Z"/><path class="cls-2" d="M43.29,65.79a2.39,2.39,0,0,0-.09,1.83"/><path class="cls-3" d="M43.2,67.85a.22.22,0,0,1-.22-.16,2.6,2.6,0,0,1,.11-2,.23.23,0,0,1,.32-.08.22.22,0,0,1,.08.31,2.15,2.15,0,0,0-.06,1.65.23.23,0,0,1-.16.29Z"/><path class="cls-2" d="M42.53,63.46A1.82,1.82,0,0,1,41.7,63"/><path class="cls-3" d="M42.53,63.69h0a2,2,0,0,1-1-.5.24.24,0,0,1,0-.33.25.25,0,0,1,.33,0,1.63,1.63,0,0,0,.72.39.23.23,0,0,1,.19.27A.24.24,0,0,1,42.53,63.69Z"/><path class="cls-2" d="M175.36,101.41a6.48,6.48,0,0,1-2.15,4.83c-.1.09-.35-.07-.45,0s0,.38-.14.45a6.46,6.46,0,0,1-3.75,1.19,6.2,6.2,0,0,1-1.62-.21c-.11,0-.05-.28-.15-.31s-.41.14-.53.1a6.48,6.48,0,0,1-4.14-5.31c0-.25.19-.32.19-.58s-.23-.64-.2-.86A6.48,6.48,0,0,1,167.85,95c.14,0,.36.22.5.2s.32-.28.52-.28A6.48,6.48,0,0,1,175,99.37c.06.17-.23.4-.19.58s.41.26.44.42A7.07,7.07,0,0,1,175.36,101.41Z"/><path class="cls-3" d="M168.87,108.21a6.88,6.88,0,0,1-1.7-.21.39.39,0,0,1-.27-.26.61.61,0,0,1-.44,0,6.78,6.78,0,0,1-4.35-5.56.73.73,0,0,1,.14-.5c0-.07.05-.09.05-.12a1.7,1.7,0,0,0-.08-.3,1.63,1.63,0,0,1-.12-.59,6.81,6.81,0,0,1,5.71-6,.66.66,0,0,1,.46.15l.07,0,.06-.05a.74.74,0,0,1,.47-.22,6.79,6.79,0,0,1,6.46,4.67.63.63,0,0,1-.12.55l0,0,0,0a.71.71,0,0,1,.36.43,6.5,6.5,0,0,1,.09,1.09,6.83,6.83,0,0,1-2.26,5.06.51.51,0,0,0-.62.49A6.73,6.73,0,0,1,168.87,108.21Zm-1.4-.78a6.26,6.26,0,0,0,4.9-.93v0a.48.48,0,0,1,.66-.51h0a6.18,6.18,0,0,0,2-4.54,6,6,0,0,0-.07-.94l-.09,0a.66.66,0,0,1-.35-.4.68.68,0,0,1,.13-.52.41.41,0,0,0,.05-.09,6.17,6.17,0,0,0-5.85-4.18s0,0-.06.07a.84.84,0,0,1-.43.22.71.71,0,0,1-.44-.16l-.09,0a6.18,6.18,0,0,0-5.12,5.45,1.3,1.3,0,0,0,.08.33,1.58,1.58,0,0,1,.12.5.76.76,0,0,1-.15.45c-.05.08-.05.08,0,.1a6.14,6.14,0,0,0,3.89,5l.1,0a.72.72,0,0,1,.46,0A.41.41,0,0,1,167.47,107.43Zm-.86-.26Zm1.29-11.86Z"/><path class="cls-3" d="M166.26,100.83h-.09a.24.24,0,0,1-.12-.31,6.77,6.77,0,0,1,1.87-2.18.24.24,0,0,1,.29.37,6.44,6.44,0,0,0-1.73,2A.23.23,0,0,1,166.26,100.83Z"/><path class="cls-3" d="M167.78,104.25a.25.25,0,0,1-.15,0,10.33,10.33,0,0,1-1.57-2,.24.24,0,0,1,.41-.25,8.92,8.92,0,0,0,1.45,1.87.24.24,0,0,1,0,.33A.23.23,0,0,1,167.78,104.25Z"/><path class="cls-3" d="M168.89,104.48a.25.25,0,0,1-.24-.2.24.24,0,0,1,.21-.26,7.19,7.19,0,0,0,2.15-.52.24.24,0,0,1,.33.08.24.24,0,0,1-.07.32,7.83,7.83,0,0,1-2.36.58Z"/><path class="cls-3" d="M172,103.28h-.08a.24.24,0,0,1-.14-.3,15.15,15.15,0,0,0,.54-2.12.23.23,0,0,1,.27-.19.24.24,0,0,1,.19.27,14.53,14.53,0,0,1-.56,2.2A.22.22,0,0,1,172,103.28Z"/><path class="cls-3" d="M172,99.61a.23.23,0,0,1-.17-.07,7.45,7.45,0,0,0-2.3-1.51.23.23,0,1,1,.15-.44,7.48,7.48,0,0,1,2.48,1.62.23.23,0,0,1,0,.33A.23.23,0,0,1,172,99.61Z"/><path class="cls-3" d="M168.56,97.6a.22.22,0,0,1-.23-.2l-.19-1.33a.24.24,0,0,1,.2-.26.23.23,0,0,1,.27.2l.18,1.33a.23.23,0,0,1-.2.26Z"/><path class="cls-3" d="M165.17,102.06h-1.28a.24.24,0,0,1,0-.47h1.28a.24.24,0,0,1,0,.47Z"/><path class="cls-3" d="M167.65,106.52l-.1,0a.25.25,0,0,1-.12-.32l.53-1.12a.22.22,0,0,1,.31-.11.24.24,0,0,1,.11.31l-.52,1.12A.24.24,0,0,1,167.65,106.52Z"/><path class="cls-3" d="M172.55,105.74a.23.23,0,0,1-.21-.14l-.55-1.12a.23.23,0,1,1,.42-.2l.55,1.12a.24.24,0,0,1-.11.31A.19.19,0,0,1,172.55,105.74Z"/><path class="cls-3" d="M174.11,100.34h-1a.24.24,0,0,1,0-.47h1a.24.24,0,1,1,0,.47Z"/><path class="cls-4" d="M185.47,81.57a6.5,6.5,0,0,1,4.82,2.18c.08.1-.07.35,0,.45s.39,0,.45.15a6.37,6.37,0,0,1,1.17,3.75,6.2,6.2,0,0,1-.21,1.62c0,.1-.28,0-.32.15s.15.41.1.53a6.48,6.48,0,0,1-5.32,4.11c-.25,0-.33-.19-.58-.19s-.64.22-.86.2A6.5,6.5,0,0,1,179,89.05c0-.14.22-.35.21-.49s-.29-.32-.29-.53a6.5,6.5,0,0,1,4.48-6.14c.18,0,.41.24.58.2s.26-.41.42-.44A7.2,7.2,0,0,1,185.47,81.57Z"/><path class="cls-3" d="M184.76,94.83h-.07a6.79,6.79,0,0,1-6-5.73.68.68,0,0,1,.15-.47l0-.06-.05-.06a.72.72,0,0,1-.22-.48,6.79,6.79,0,0,1,4.7-6.44.67.67,0,0,1,.55.13l0,0,0,0a.69.69,0,0,1,.43-.36,8,8,0,0,1,1.09-.08,6.78,6.78,0,0,1,5.05,2.29.49.49,0,0,1,.1.42.52.52,0,0,1,.39.2,6.78,6.78,0,0,1,1.23,3.93,6.51,6.51,0,0,1-.23,1.7.37.37,0,0,1-.26.27.67.67,0,0,1,0,.44,6.8,6.8,0,0,1-5.59,4.32.81.81,0,0,1-.5-.14c-.06,0-.08-.06-.12-.06h0a1.51,1.51,0,0,0-.3.09A1.93,1.93,0,0,1,184.76,94.83Zm-5.43-5.78a6.19,6.19,0,0,0,5.43,5.16,1.27,1.27,0,0,0,.33-.09,1.8,1.8,0,0,1,.5-.11h0a.82.82,0,0,1,.45.15c.07,0,.08,0,.09,0a6.12,6.12,0,0,0,5.05-3.87l0-.1a.72.72,0,0,1-.05-.46.41.41,0,0,1,.35-.27,6.62,6.62,0,0,0,.16-1.41,6.07,6.07,0,0,0-1.07-3.5h0a.55.55,0,0,1-.43-.18.58.58,0,0,1-.07-.48v0a6.18,6.18,0,0,0-4.53-2h0a7.26,7.26,0,0,0-.93.06.7.7,0,0,1-.06.09.67.67,0,0,1-.39.35.7.7,0,0,1-.53-.13l-.08-.05A6.15,6.15,0,0,0,179.26,88l.06.07a.74.74,0,0,1,.22.43.8.8,0,0,1-.15.44Zm11.26-4.45Zm-.54-.64Zm-5.5-2Z"/><path class="cls-3" d="M184.61,90.9a.15.15,0,0,1-.09,0A6.79,6.79,0,0,1,182.35,89a.24.24,0,0,1,0-.33.23.23,0,0,1,.33,0,6.73,6.73,0,0,0,2,1.73.24.24,0,0,1,.12.31A.24.24,0,0,1,184.61,90.9Z"/><path class="cls-3" d="M186.1,90.91a.23.23,0,0,1-.2-.11.24.24,0,0,1,.08-.33A8.82,8.82,0,0,0,187.85,89a.24.24,0,0,1,.37.3,9.82,9.82,0,0,1-2,1.56A.27.27,0,0,1,186.1,90.91Z"/><path class="cls-3" d="M188.28,88.3a.24.24,0,0,1-.24-.21,7.21,7.21,0,0,0-.5-2.16.23.23,0,0,1,.07-.32.24.24,0,0,1,.33.07,7.75,7.75,0,0,1,.57,2.36.24.24,0,0,1-.21.26Z"/><path class="cls-3" d="M187.09,85.18H187a13,13,0,0,0-2.12-.55.24.24,0,0,1-.19-.27.23.23,0,0,1,.27-.19,14.53,14.53,0,0,1,2.2.56.24.24,0,0,1,.14.31A.23.23,0,0,1,187.09,85.18Z"/><path class="cls-3" d="M181.84,87.55l-.08,0a.24.24,0,0,1-.14-.3,7.77,7.77,0,0,1,1.63-2.47.23.23,0,1,1,.33.33,7.59,7.59,0,0,0-1.52,2.3A.22.22,0,0,1,181.84,87.55Z"/><path class="cls-3" d="M180.06,88.77a.24.24,0,0,1-.23-.21.23.23,0,0,1,.2-.26l1.33-.17a.22.22,0,0,1,.26.2.23.23,0,0,1-.2.26l-1.33.18Z"/><path class="cls-3" d="M185.83,93.28h0a.24.24,0,0,1-.24-.24V91.77c0-.13.1-.26.23-.24a.24.24,0,0,1,.24.24v1.28A.23.23,0,0,1,185.83,93.28Z"/><path class="cls-3" d="M190.3,89.55l-.1,0L189.08,89a.25.25,0,0,1-.11-.31.23.23,0,0,1,.31-.11l1.12.52a.23.23,0,0,1,.11.31A.23.23,0,0,1,190.3,89.55Z"/><path class="cls-3" d="M188.42,85.19a.23.23,0,0,1-.21-.14.23.23,0,0,1,.11-.31l1.12-.54a.24.24,0,0,1,.32.11.25.25,0,0,1-.11.31l-1.13.54A.17.17,0,0,1,188.42,85.19Z"/><path class="cls-3" d="M184.15,84.07h0a.23.23,0,0,1-.23-.24v-1a.24.24,0,0,1,.24-.24h0a.24.24,0,0,1,.23.24v1A.23.23,0,0,1,184.15,84.07Z"/><path class="cls-4" d="M153.52,109.11a6.47,6.47,0,0,1-.42,5.27c-.06.12-.35.06-.42.17s.09.38,0,.47a6.44,6.44,0,0,1-3.13,2.37,6.13,6.13,0,0,1-1.6.35c-.11,0-.14-.25-.25-.25s-.34.28-.47.28a6.51,6.51,0,0,1-5.67-3.62c-.11-.23.07-.37,0-.61s-.42-.53-.47-.75a6.5,6.5,0,0,1,3.21-7.22c.12-.06.41.09.54,0s.2-.38.39-.44a6.5,6.5,0,0,1,7.3,2.13c.11.15-.09.46,0,.62s.48.1.55.25A6.27,6.27,0,0,1,153.52,109.11Z"/><path class="cls-3" d="M140.8,112.93a.14.14,0,0,0,0-.06,6.81,6.81,0,0,1,3.37-7.57.7.7,0,0,1,.49,0l.07,0,0-.07a.76.76,0,0,1,.38-.37,6.81,6.81,0,0,1,7.65,2.24.69.69,0,0,1,.06.57v0h0a.69.69,0,0,1,.49.29,7.28,7.28,0,0,1,.44,1,6.77,6.77,0,0,1-.44,5.53.5.5,0,0,1-.36.24.51.51,0,0,1,0,.43,6.73,6.73,0,0,1-3.29,2.49,6.92,6.92,0,0,1-1.67.36.37.37,0,0,1-.35-.15.64.64,0,0,1-.4.18,6.78,6.78,0,0,1-5.95-3.79.7.7,0,0,1,0-.52c0-.08,0-.1,0-.13h0a1.78,1.78,0,0,0-.18-.26A1.82,1.82,0,0,1,140.8,112.93Zm3.61-7.06a6.18,6.18,0,0,0-3,6.85,2.33,2.33,0,0,0,.19.28,1.86,1.86,0,0,1,.28.43h0a.87.87,0,0,1,0,.48c0,.08,0,.09,0,.1a6.14,6.14,0,0,0,5.35,3.44l.09-.06a.68.68,0,0,1,.41-.21.42.42,0,0,1,.38.24,6.49,6.49,0,0,0,1.37-.32,6.18,6.18,0,0,0,2.94-2.19.43.43,0,0,0,0,0,.62.62,0,0,1,0-.48.6.6,0,0,1,.43-.22h0a6.19,6.19,0,0,0,.35-5h0a6.42,6.42,0,0,0-.37-.85l-.11,0a.57.57,0,0,1-.51-.79s0-.07,0-.1a6.19,6.19,0,0,0-6.91-2s0,0,0,.09a.83.83,0,0,1-.33.35.75.75,0,0,1-.47,0Zm8,9.08Zm.41-.72Zm.06-5.86Z"/><path class="cls-3" d="M144.45,111.46a.28.28,0,0,1,0-.09,6.83,6.83,0,0,1,1-2.68.23.23,0,0,1,.32-.07.24.24,0,0,1,.07.33,6.38,6.38,0,0,0-1,2.45.24.24,0,0,1-.25.22A.24.24,0,0,1,144.45,111.46Z"/><path class="cls-3" d="M145,112.86a.2.2,0,0,1,0-.22.24.24,0,0,1,.33,0,9.43,9.43,0,0,0,2,1.28.23.23,0,0,1,.14.3.24.24,0,0,1-.3.14A9.75,9.75,0,0,1,145,113,.26.26,0,0,1,145,112.86Z"/><path class="cls-3" d="M148.14,114a.23.23,0,0,1,.12-.29,7.57,7.57,0,0,0,1.86-1.2.23.23,0,0,1,.33,0,.24.24,0,0,1,0,.33,7.76,7.76,0,0,1-2,1.33.24.24,0,0,1-.32-.11Z"/><path class="cls-3" d="M150.68,111.86a.24.24,0,0,1,0-.08,13.15,13.15,0,0,0-.2-2.18.23.23,0,0,1,.19-.27.22.22,0,0,1,.27.19,13.29,13.29,0,0,1,.21,2.26.23.23,0,0,1-.23.23A.22.22,0,0,1,150.68,111.86Z"/><path class="cls-3" d="M146.67,107.72a.22.22,0,0,1,0-.08.23.23,0,0,1,.23-.24,7.84,7.84,0,0,1,2.88.7.23.23,0,0,1,.11.31.23.23,0,0,1-.31.12,7.41,7.41,0,0,0-2.68-.66A.23.23,0,0,1,146.67,107.72Z"/><path class="cls-3" d="M144.92,106.46a.24.24,0,0,1,.43-.19l.61,1.19a.23.23,0,1,1-.41.22l-.62-1.19Z"/><path class="cls-3" d="M142.62,113.41h0a.24.24,0,0,1,.15-.3l1.2-.43a.22.22,0,0,1,.3.15.24.24,0,0,1-.14.3l-1.21.42A.23.23,0,0,1,142.62,113.41Z"/><path class="cls-3" d="M147.65,116.36a.34.34,0,0,1,0-.1l.12-1.23a.23.23,0,0,1,.46,0l-.11,1.23a.24.24,0,0,1-.26.21A.24.24,0,0,1,147.65,116.36Z"/><path class="cls-3" d="M151.12,113.11a.23.23,0,0,1,.39-.24l.89.87a.24.24,0,0,1,0,.33.23.23,0,0,1-.33,0l-.89-.87A.24.24,0,0,1,151.12,113.11Z"/><path class="cls-3" d="M150.72,108.72h0a.24.24,0,0,1,.15-.3l1-.34a.22.22,0,0,1,.29.14h0a.24.24,0,0,1-.15.3l-1,.34A.24.24,0,0,1,150.72,108.72Z"/><path class="cls-5" d="M159.72,65.3a6.19,6.19,0,0,1-.28,1.83c0,.14-.35.1-.4.23s.15.44.1.56a6.21,6.21,0,0,1-3.67,3.23c-.18.06-.49-.13-.68-.08s-.25.3-.44.33a6.81,6.81,0,0,1-.78,0,6.12,6.12,0,0,1-4.39-1.85c-.25-.25-.13-.69-.33-1s-.62-.24-.73-.46a6.18,6.18,0,0,1-.4-4.76c.06-.2.42-.24.5-.43s-.14-.46-.06-.6a6.16,6.16,0,0,1,5.41-3.22c.17,0,.2.26.36.27s.52-.21.71-.17a6.14,6.14,0,0,1,3.8,2.3c.22.28.54.42.7.74a6.7,6.7,0,0,1,.21.91A6.08,6.08,0,0,1,159.72,65.3Z"/><path class="cls-3" d="M153.57,71.76A6.44,6.44,0,0,1,149,69.82a1.16,1.16,0,0,1-.27-.69,1,1,0,0,0-.09-.34l-.22-.11a.93.93,0,0,1-.53-.39,6.43,6.43,0,0,1-.42-5,.74.74,0,0,1,.4-.4l.09,0a.24.24,0,0,0,0-.09.68.68,0,0,1,0-.54,6.45,6.45,0,0,1,5.68-3.38.52.52,0,0,1,.43.26l.16-.06a1.09,1.09,0,0,1,.54-.1,6.47,6.47,0,0,1,4,2.42,2.25,2.25,0,0,0,.27.26,1.62,1.62,0,0,1,.46.53,1.66,1.66,0,0,1,.16.6,2.12,2.12,0,0,0,.06.34A6.41,6.41,0,0,1,160,65.3a6.25,6.25,0,0,1-.29,1.92.46.46,0,0,1-.36.31h0a.64.64,0,0,1,0,.51,6.53,6.53,0,0,1-3.85,3.4.94.94,0,0,1-.53,0l-.19,0s0,0,0,.06a.69.69,0,0,1-.43.28A7.52,7.52,0,0,1,153.57,71.76Zm-5.11-9.3,0,.11a.77.77,0,0,1,0,.52.86.86,0,0,1-.39.35l-.12.07a6.2,6.2,0,0,0-.27,1.79,5.86,5.86,0,0,0,.66,2.7l.22.11a1,1,0,0,1,.49.33,1.3,1.3,0,0,1,.2.6.65.65,0,0,0,.1.34,5.82,5.82,0,0,0,4.91,1.71s0,0,0-.06a.71.71,0,0,1,.38-.27,1,1,0,0,1,.48,0l.19,0a5.9,5.9,0,0,0,3.44-3l0-.1a.69.69,0,0,1,0-.49.55.55,0,0,1,.41-.3h0a5.66,5.66,0,0,0,.24-1.64,5.94,5.94,0,0,0-.35-2,1.71,1.71,0,0,1-.1-.46,1.59,1.59,0,0,0-.09-.4,1.31,1.31,0,0,0-.32-.35,2.33,2.33,0,0,1-.36-.35,5.84,5.84,0,0,0-3.6-2.19l-.2.08a1,1,0,0,1-.48.1.55.55,0,0,1-.41-.26h0A5.84,5.84,0,0,0,148.46,62.46Zm0,0Z"/><path class="cls-2" d="M154.79,65.17s1.36.21,1.67.68"/><path class="cls-3" d="M156.46,66.09a.24.24,0,0,1-.2-.11,3,3,0,0,0-1.5-.57.24.24,0,0,1,.07-.47c.24,0,1.47.25,1.82.78a.23.23,0,0,1-.06.33A.33.33,0,0,1,156.46,66.09Z"/><path class="cls-2" d="M152,67.36a7.19,7.19,0,0,0,1.33-1.85"/><path class="cls-3" d="M152,67.6a.24.24,0,0,1-.17-.07.24.24,0,0,1,0-.33,7,7,0,0,0,1.28-1.78.24.24,0,1,1,.43.19,7.06,7.06,0,0,1-1.38,1.92A.23.23,0,0,1,152,67.6Z"/><path class="cls-2" d="M152.64,62.65a1.78,1.78,0,0,1,.67,1.43"/><path class="cls-3" d="M153.31,64.31h0a.24.24,0,0,1-.2-.27c.11-.63-.57-1.21-.58-1.21a.24.24,0,0,1,.3-.37,2,2,0,0,1,.75,1.66A.24.24,0,0,1,153.31,64.31Z"/><path class="cls-2" d="M150.65,62.1a3.47,3.47,0,0,0-1,.7"/><path class="cls-3" d="M149.63,63a.28.28,0,0,1-.17-.07.24.24,0,0,1,0-.33,3.71,3.71,0,0,1,1.1-.76.23.23,0,0,1,.3.13.22.22,0,0,1-.12.3,3.58,3.58,0,0,0-.94.66A.28.28,0,0,1,149.63,63Z"/><path class="cls-2" d="M153.12,61.52a4.77,4.77,0,0,0,.6-1"/><path class="cls-3" d="M153.12,61.76a.24.24,0,0,1-.18-.38,5.05,5.05,0,0,0,.57-1,.23.23,0,0,1,.3-.13.24.24,0,0,1,.13.31,6.21,6.21,0,0,1-.63,1.07A.25.25,0,0,1,153.12,61.76Z"/><polyline class="cls-2" points="157.61 64.63 158.44 63.36 158.26 62.65"/><path class="cls-3" d="M157.61,64.86a.2.2,0,0,1-.13,0,.23.23,0,0,1-.07-.32l.78-1.18L158,62.7a.23.23,0,0,1,.17-.28.24.24,0,0,1,.29.17l.18.71a.3.3,0,0,1,0,.19l-.84,1.27A.24.24,0,0,1,157.61,64.86Z"/><path class="cls-3" d="M158.83,63.6h-.39a.23.23,0,0,1-.23-.24.23.23,0,0,1,.23-.23h.39a.23.23,0,0,1,.24.23A.24.24,0,0,1,158.83,63.6Z"/><path class="cls-2" d="M157.24,67a2,2,0,0,1,0,1.2"/><path class="cls-3" d="M157.24,68.38h-.07a.24.24,0,0,1-.15-.3,1.72,1.72,0,0,0,0-1,.24.24,0,0,1,.14-.3.23.23,0,0,1,.3.13,2.21,2.21,0,0,1,0,1.36A.25.25,0,0,1,157.24,68.38Z"/><path class="cls-2" d="M156.67,69.27a3.87,3.87,0,0,1-.78,1"/><path class="cls-3" d="M155.89,70.54a.21.21,0,0,1-.17-.07.24.24,0,0,1,0-.33,3.41,3.41,0,0,0,.73-1,.24.24,0,0,1,.31-.12.24.24,0,0,1,.12.31,3.9,3.9,0,0,1-.83,1.12A.27.27,0,0,1,155.89,70.54Z"/><path class="cls-2" d="M152.64,69.16a2.43,2.43,0,0,0,1.29,1.31"/><path class="cls-3" d="M153.93,70.7l-.1,0a2.63,2.63,0,0,1-1.41-1.45.23.23,0,0,1,.15-.29.22.22,0,0,1,.29.15h0A2.17,2.17,0,0,0,154,70.25a.24.24,0,0,1,.11.32A.23.23,0,0,1,153.93,70.7Z"/><path class="cls-2" d="M150.41,68.15a1.84,1.84,0,0,1-.88.31"/><path class="cls-3" d="M149.52,68.69a.24.24,0,0,1-.23-.21.23.23,0,0,1,.21-.25,1.71,1.71,0,0,0,.77-.27.24.24,0,0,1,.33,0,.23.23,0,0,1,0,.33,2,2,0,0,1-1,.36Z"/><path class="cls-5" d="M135.86,67.3a6,6,0,0,1-1.54,1c-.13.07-.3-.19-.44-.14s-.22.41-.35.45a6.19,6.19,0,0,1-4.85-.51c-.17-.1-.24-.45-.4-.56s-.4,0-.55-.1a5.65,5.65,0,0,1-.56-.54,6.16,6.16,0,0,1-1.62-4.48c0-.35.43-.56.51-.91s-.24-.62-.15-.85a6,6,0,0,1,1.62-2.45,6.19,6.19,0,0,1,1.61-1.07c.19-.09.46.15.66.08s.24-.41.4-.45a6.17,6.17,0,0,1,6,1.8c.11.12-.06.32,0,.45s.51.24.61.41a6.11,6.11,0,0,1,.88,4.35,5.77,5.77,0,0,1-.07,1,7.43,7.43,0,0,1-.53.76A5.88,5.88,0,0,1,135.86,67.3Z"/><path class="cls-3" d="M131.7,69.24a6.51,6.51,0,0,1-3.18-.83.88.88,0,0,1-.33-.41.55.55,0,0,0-.1-.16s0,0-.06,0a.68.68,0,0,1-.5-.13,5.3,5.3,0,0,1-.59-.57,6.38,6.38,0,0,1-1.7-4.7,1.17,1.17,0,0,1,.32-.67.87.87,0,0,0,.19-.3.65.65,0,0,0-.07-.23,1,1,0,0,1-.07-.66A6.47,6.47,0,0,1,129,56.9a.74.74,0,0,1,.57,0l.1,0,0-.08a.7.7,0,0,1,.4-.37,6.49,6.49,0,0,1,6.33,1.9.55.55,0,0,1,.1.5l.15.07a1,1,0,0,1,.44.33,6.49,6.49,0,0,1,.92,4.57,1.58,1.58,0,0,0,0,.38,1.62,1.62,0,0,1-.08.7,2,2,0,0,1-.33.52,1.45,1.45,0,0,0-.21.28,6.61,6.61,0,0,1-1.37,1.79,6.53,6.53,0,0,1-1.61,1.09.5.5,0,0,1-.47-.06h0a.7.7,0,0,1-.36.38A6.69,6.69,0,0,1,131.7,69.24Zm-3.61-2a.63.63,0,0,1,.37.11,1,1,0,0,1,.29.38,1,1,0,0,0,.09.16,5.89,5.89,0,0,0,4.54.5,2.16,2.16,0,0,1,.39-.46.57.57,0,0,1,.5.1h0a5.89,5.89,0,0,0,1.37-1h0a5.73,5.73,0,0,0,1.24-1.61,3,3,0,0,1,.27-.39,1.53,1.53,0,0,0,.24-.34,1.16,1.16,0,0,0,0-.46,2.9,2.9,0,0,1,0-.5,5.84,5.84,0,0,0-.83-4.14l-.19-.1a1,1,0,0,1-.4-.28.58.58,0,0,1-.09-.47h0a5.87,5.87,0,0,0-5.63-1.67.53.53,0,0,1-.06.1.78.78,0,0,1-.36.36.8.8,0,0,1-.52-.05l-.14,0a6.08,6.08,0,0,0-1.5,1,5.84,5.84,0,0,0-1.54,2.32s0,.16.07.23a1,1,0,0,1,.09.59,1.34,1.34,0,0,1-.31.55.6.6,0,0,0-.18.31,5.78,5.78,0,0,0,1.53,4.25,6.51,6.51,0,0,0,.54.51s0,0,.06,0Zm2.25-10.14Z"/><path class="cls-2" d="M132.61,63.59s.77,1.14.63,1.69"/><path class="cls-3" d="M133.25,65.52h-.06a.23.23,0,0,1-.17-.28,3.08,3.08,0,0,0-.6-1.51.24.24,0,0,1,.06-.32.25.25,0,0,1,.33.06c.14.21.81,1.26.66,1.88A.23.23,0,0,1,133.25,65.52Z"/><path class="cls-2" d="M129.1,63a7.08,7.08,0,0,0,2.26-.27"/><path class="cls-3" d="M129.38,63.24h-.3a.24.24,0,0,1-.22-.25.23.23,0,0,1,.25-.22,7,7,0,0,0,2.17-.26.23.23,0,0,1,.3.15.22.22,0,0,1-.15.29A6.65,6.65,0,0,1,129.38,63.24Z"/><path class="cls-2" d="M133,60.3a1.77,1.77,0,0,1-.61,1.46"/><path class="cls-3" d="M132.41,62a.22.22,0,0,1-.19-.1.24.24,0,0,1,.07-.33,1.54,1.54,0,0,0,.49-1.25.23.23,0,0,1,.23-.24.21.21,0,0,1,.24.22,2,2,0,0,1-.71,1.67A.28.28,0,0,1,132.41,62Z"/><path class="cls-2" d="M132.07,58.46a3.53,3.53,0,0,0-1.2-.27"/><path class="cls-3" d="M132.07,58.7l-.1,0a3.41,3.41,0,0,0-1.11-.25.23.23,0,0,1-.23-.24.26.26,0,0,1,.25-.23,3.87,3.87,0,0,1,1.29.3.22.22,0,0,1,.11.31A.23.23,0,0,1,132.07,58.7Z"/><path class="cls-2" d="M134.17,59.9a5.2,5.2,0,0,0,1.15-.25"/><path class="cls-3" d="M134.17,60.13a.23.23,0,0,1-.23-.21.24.24,0,0,1,.21-.26,5.25,5.25,0,0,0,1.1-.23.23.23,0,0,1,.3.14.24.24,0,0,1-.15.3,5,5,0,0,1-1.21.26Z"/><polyline class="cls-2" points="134.92 65.3 136.42 65.05 136.82 64.43"/><path class="cls-3" d="M134.92,65.53a.24.24,0,0,1,0-.47l1.39-.22.35-.53a.23.23,0,0,1,.39.25l-.41.62a.2.2,0,0,1-.15.1l-1.5.25Z"/><line class="cls-2" x1="136.42" y1="65.05" x2="136.68" y2="65.34"/><path class="cls-3" d="M136.68,65.58a.25.25,0,0,1-.17-.08l-.26-.29a.23.23,0,0,1,0-.33.24.24,0,0,1,.33,0l.27.29a.25.25,0,0,1-.18.4Z"/><path class="cls-2" d="M133,66.6a2,2,0,0,1-.88.81"/><path class="cls-3" d="M132.09,67.64a.25.25,0,0,1-.22-.13.23.23,0,0,1,.12-.31,1.73,1.73,0,0,0,.77-.71.23.23,0,0,1,.31-.1.23.23,0,0,1,.11.31,2.19,2.19,0,0,1-1,.92A.15.15,0,0,1,132.09,67.64Z"/><path class="cls-2" d="M130.87,67.75a3.69,3.69,0,0,1-1.29.13"/><path class="cls-3" d="M129.84,68.12h-.28a.24.24,0,0,1,0-.47,3.25,3.25,0,0,0,1.21-.12.25.25,0,0,1,.3.15.24.24,0,0,1-.15.3A3.77,3.77,0,0,1,129.84,68.12Z"/><path class="cls-2" d="M128.22,64.71a2.42,2.42,0,0,0-.08,1.83"/><path class="cls-3" d="M128.14,66.78a.25.25,0,0,1-.23-.17,2.61,2.61,0,0,1,.11-2,.23.23,0,0,1,.32-.08.24.24,0,0,1,.09.32,2.15,2.15,0,0,0-.07,1.64.24.24,0,0,1-.15.3Z"/><path class="cls-2" d="M127.46,62.38a1.82,1.82,0,0,1-.83-.44"/><path class="cls-3" d="M127.46,62.62h0a2.06,2.06,0,0,1-.94-.49.23.23,0,0,1,.31-.35,1.67,1.67,0,0,0,.71.38.24.24,0,0,1,.19.27A.23.23,0,0,1,127.46,62.62Z"/><path class="cls-5" d="M175.19,105.61a6.32,6.32,0,0,1,1.85.13c.14,0,.12.34.26.39s.42-.19.55-.14a6.14,6.14,0,0,1,3.51,3.4c.07.17-.09.49,0,.68s.33.23.37.41a6.37,6.37,0,0,1,.11.78,6.18,6.18,0,0,1-1.49,4.52c-.23.27-.69.18-1,.41s-.2.63-.41.76a6,6,0,0,1-2.79.93,6.12,6.12,0,0,1-1.92-.15c-.21,0-.27-.4-.47-.47s-.45.17-.6.11a6.17,6.17,0,0,1-3.63-5.14c0-.16.24-.21.24-.38s-.25-.5-.23-.69a6.16,6.16,0,0,1,2-4c.27-.25.38-.57.69-.76a8.21,8.21,0,0,1,.88-.28A6.26,6.26,0,0,1,175.19,105.61Z"/><path class="cls-3" d="M179.66,106.65a6.46,6.46,0,0,1,2,2.62,1,1,0,0,1,0,.53.74.74,0,0,0,0,.18s0,0,.06,0a.65.65,0,0,1,.31.41,5.66,5.66,0,0,1,.12.81,6.41,6.41,0,0,1-1.57,4.76,1.08,1.08,0,0,1-.66.32.79.79,0,0,0-.33.12.73.73,0,0,0-.09.23,1,1,0,0,1-.35.56,6.46,6.46,0,0,1-5,.81.72.72,0,0,1-.44-.37l-.06-.08-.08,0a.67.67,0,0,1-.54,0,6.47,6.47,0,0,1-3.82-5.39.58.58,0,0,1,.22-.46,1.56,1.56,0,0,0-.06-.15,1,1,0,0,1-.15-.52,6.41,6.41,0,0,1,2.09-4.17,2.31,2.31,0,0,0,.24-.29,1.8,1.8,0,0,1,.49-.51,2.16,2.16,0,0,1,.59-.2l.33-.09a6.34,6.34,0,0,1,2.18-.57,6.71,6.71,0,0,1,2,.14.51.51,0,0,1,.34.33h0a.68.68,0,0,1,.51-.07A6.45,6.45,0,0,1,179.66,106.65Zm1.6,3.82a.63.63,0,0,1-.23-.31,1,1,0,0,1,0-.48c0-.06,0-.16,0-.19a5.92,5.92,0,0,0-3.27-3.19l-.1,0a.69.69,0,0,1-.49.09.56.56,0,0,1-.33-.39h0a6.14,6.14,0,0,0-1.66-.11h0a6.1,6.1,0,0,0-2,.51,2,2,0,0,1-.45.14,1.47,1.47,0,0,0-.4.12,1.29,1.29,0,0,0-.31.34,2.28,2.28,0,0,1-.33.39,5.84,5.84,0,0,0-1.89,3.77l.09.19a1.18,1.18,0,0,1,.15.47.55.55,0,0,1-.23.42h0a5.83,5.83,0,0,0,3.4,4.78l.11,0a.7.7,0,0,1,.5,0,.75.75,0,0,1,.39.35.62.62,0,0,0,.08.12,6.3,6.3,0,0,0,1.8.13,6,6,0,0,0,2.65-.88,1,1,0,0,0,.08-.23,1,1,0,0,1,.29-.51,1.5,1.5,0,0,1,.59-.25.65.65,0,0,0,.33-.12,5.83,5.83,0,0,0,1.42-4.3,6.13,6.13,0,0,0-.11-.73s0,0-.06,0Zm-8,6.6Z"/><path class="cls-2" d="M175.46,110.54s.1-1.37.54-1.72"/><path class="cls-3" d="M176.14,108.64l0,0a.22.22,0,0,1,0,.32,3,3,0,0,0-.46,1.55.24.24,0,0,1-.47,0c0-.25.14-1.49.64-1.88A.21.21,0,0,1,176.14,108.64Z"/><path class="cls-2" d="M177.86,113.17a6.79,6.79,0,0,0-2-1.18"/><path class="cls-3" d="M177.79,112.81l.23.18a.24.24,0,0,1-.31.36,6.93,6.93,0,0,0-1.88-1.14.24.24,0,0,1-.14-.3.24.24,0,0,1,.3-.14A7,7,0,0,1,177.79,112.81Z"/><path class="cls-2" d="M173.11,112.88a1.76,1.76,0,0,1,1.37-.77"/><path class="cls-3" d="M174.63,111.92a.26.26,0,0,1,.09.21.24.24,0,0,1-.26.21c-.63-.06-1.15.67-1.16.68a.24.24,0,0,1-.33,0,.22.22,0,0,1-.06-.32,2,2,0,0,1,1.59-.88A.29.29,0,0,1,174.63,111.92Z"/><path class="cls-2" d="M172.72,114.91a3.41,3.41,0,0,0,.78,1"/><path class="cls-3" d="M172.87,114.73a.28.28,0,0,1,.06.08,3.3,3.3,0,0,0,.72.88.23.23,0,0,1,0,.33.24.24,0,0,1-.33,0,3.76,3.76,0,0,1-.84-1,.24.24,0,0,1,.36-.29Z"/><path class="cls-2" d="M172,112.49a5,5,0,0,0-1.06-.52"/><path class="cls-3" d="M172.1,112.31a.23.23,0,0,1,.05.31.24.24,0,0,1-.33.07,4.24,4.24,0,0,0-1-.49.23.23,0,0,1-.15-.3.24.24,0,0,1,.3-.15,6,6,0,0,1,1.11.54Z"/><polyline class="cls-2" points="174.69 107.77 173.36 107.04 172.66 107.28"/><path class="cls-3" d="M174.83,107.59a.23.23,0,0,1,.06.3.24.24,0,0,1-.32.09l-1.23-.68-.6.2a.23.23,0,0,1-.3-.14.23.23,0,0,1,.15-.3l.7-.24a.22.22,0,0,1,.18,0l1.33.73Z"/><line class="cls-2" x1="173.36" y1="107.04" x2="173.33" y2="106.65"/><path class="cls-3" d="M173.48,106.47a.25.25,0,0,1,.08.16l0,.39a.24.24,0,0,1-.22.26.24.24,0,0,1-.25-.22l0-.39a.23.23,0,0,1,.21-.25A.22.22,0,0,1,173.48,106.47Z"/><path class="cls-2" d="M177,108a2,2,0,0,1,1.2-.09"/><path class="cls-3" d="M178.37,107.67a.22.22,0,0,1,.08.24.23.23,0,0,1-.28.18,1.63,1.63,0,0,0-1,.08.23.23,0,0,1-.31-.12.23.23,0,0,1,.11-.31,2.24,2.24,0,0,1,1.35-.11Z"/><path class="cls-2" d="M179.39,108.34a3.6,3.6,0,0,1,1.1.7"/><path class="cls-3" d="M180.43,108.68l.22.18a.24.24,0,0,1,0,.33.23.23,0,0,1-.33,0,3.56,3.56,0,0,0-1-.65.23.23,0,0,1-.14-.3.24.24,0,0,1,.3-.14A4,4,0,0,1,180.43,108.68Z"/><path class="cls-2" d="M179.6,112.36a2.39,2.39,0,0,0,1.2-1.39"/><path class="cls-3" d="M181,110.79a.24.24,0,0,1,.07.27,2.58,2.58,0,0,1-1.33,1.52.23.23,0,1,1-.17-.43,2.2,2.2,0,0,0,1.06-1.26.23.23,0,0,1,.3-.13A.15.15,0,0,1,181,110.79Z"/><path class="cls-2" d="M178.77,114.67a1.86,1.86,0,0,1,.38.86"/><path class="cls-3" d="M178.91,114.48l0,0a2,2,0,0,1,.44,1,.25.25,0,0,1-.19.28.24.24,0,0,1-.27-.19,1.57,1.57,0,0,0-.33-.75.25.25,0,0,1,0-.33A.24.24,0,0,1,178.91,114.48Z"/><g class="cls-6"><path class="cls-5" d="M181.13,113a6.3,6.3,0,0,1,1.85.13c.14,0,.12.35.26.39s.42-.19.55-.14a6.15,6.15,0,0,1,3.51,3.4c.07.17-.09.49,0,.68s.33.23.37.41a6.66,6.66,0,0,1,.11.78,6.09,6.09,0,0,1-1.49,4.52c-.23.27-.68.19-1,.41s-.2.63-.41.76a6,6,0,0,1-2.78.93,6.16,6.16,0,0,1-1.93-.15c-.2,0-.27-.4-.47-.47s-.44.18-.59.11a6.18,6.18,0,0,1-3.64-5.14c0-.16.24-.21.24-.38s-.25-.5-.23-.69a6.16,6.16,0,0,1,2-4c.27-.24.38-.57.69-.76a7.72,7.72,0,0,1,.89-.28A6.14,6.14,0,0,1,181.13,113Z"/><path class="cls-3" d="M185.6,114.06a6.46,6.46,0,0,1,2,2.62,1,1,0,0,1,0,.53c0,.06,0,.15,0,.18s0,0,.07,0a.72.72,0,0,1,.31.41,7.5,7.5,0,0,1,.11.81,6.45,6.45,0,0,1-1.56,4.76,1.21,1.21,0,0,1-.67.33.85.85,0,0,0-.33.11.73.73,0,0,0-.09.23,1,1,0,0,1-.35.56,6.46,6.46,0,0,1-4.95.81.72.72,0,0,1-.44-.37l0-.08-.09,0a.67.67,0,0,1-.54,0,6.45,6.45,0,0,1-3.82-5.39.53.53,0,0,1,.23-.45l-.07-.16a1,1,0,0,1-.15-.52,6.46,6.46,0,0,1,2.09-4.17,1.68,1.68,0,0,0,.24-.29,1.8,1.8,0,0,1,.49-.51,2.28,2.28,0,0,1,.59-.2,2.43,2.43,0,0,0,.33-.09,6.34,6.34,0,0,1,2.18-.57,6.71,6.71,0,0,1,2,.14.51.51,0,0,1,.34.33h0a.68.68,0,0,1,.51-.07A6.29,6.29,0,0,1,185.6,114.06Zm1.6,3.82a.63.63,0,0,1-.23-.31,1,1,0,0,1,0-.48c0-.06,0-.16,0-.19a5.92,5.92,0,0,0-3.27-3.19l-.1,0a.69.69,0,0,1-.49.09.58.58,0,0,1-.33-.39h0a5.85,5.85,0,0,0-1.67-.1h0a5.57,5.57,0,0,0-2,.51,3.09,3.09,0,0,1-.46.13,1.39,1.39,0,0,0-.39.12,1.16,1.16,0,0,0-.32.34,2.28,2.28,0,0,1-.33.39,5.84,5.84,0,0,0-1.89,3.77l.09.19a1.18,1.18,0,0,1,.15.47.55.55,0,0,1-.23.42h0a5.83,5.83,0,0,0,3.4,4.78l.11,0a.73.73,0,0,1,.51-.05.77.77,0,0,1,.38.35.62.62,0,0,0,.08.12,6,6,0,0,0,1.8.13,5.79,5.79,0,0,0,2.65-.88,1,1,0,0,0,.08-.23,1,1,0,0,1,.29-.51,1.34,1.34,0,0,1,.59-.24A.74.74,0,0,0,186,123a5.83,5.83,0,0,0,1.42-4.3,6.13,6.13,0,0,0-.11-.73s0,0-.06,0Zm-8,6.6Z"/><path class="cls-2" d="M181.4,118s.1-1.37.54-1.72"/><path class="cls-3" d="M182.09,116.05l0,0a.24.24,0,0,1,0,.33,2.94,2.94,0,0,0-.46,1.55.23.23,0,0,1-.25.21.24.24,0,0,1-.22-.25c0-.24.14-1.49.64-1.88A.23.23,0,0,1,182.09,116.05Z"/><path class="cls-2" d="M183.81,120.58a7.19,7.19,0,0,0-2-1.18"/><path class="cls-3" d="M183.73,120.22l.23.18a.24.24,0,0,1,0,.34.24.24,0,0,1-.33,0,7,7,0,0,0-1.87-1.14.23.23,0,0,1-.15-.3.24.24,0,0,1,.3-.14A7,7,0,0,1,183.73,120.22Z"/><path class="cls-2" d="M179.05,120.29a1.79,1.79,0,0,1,1.38-.77"/><path class="cls-3" d="M180.57,119.33a.23.23,0,0,1-.16.42c-.64,0-1.16.67-1.17.68a.24.24,0,0,1-.32.06.22.22,0,0,1-.06-.33,2,2,0,0,1,1.59-.88A.26.26,0,0,1,180.57,119.33Z"/><path class="cls-2" d="M178.66,122.32a3.64,3.64,0,0,0,.78,1"/><path class="cls-3" d="M178.81,122.14l.06.08a3.23,3.23,0,0,0,.73.88.23.23,0,0,1,0,.33.24.24,0,0,1-.33,0,3.76,3.76,0,0,1-.84-1,.23.23,0,0,1,.1-.31A.22.22,0,0,1,178.81,122.14Z"/><path class="cls-2" d="M177.89,119.9a5,5,0,0,0-1.06-.52"/><path class="cls-3" d="M178,119.72a.23.23,0,0,1,.05.31.24.24,0,0,1-.33.07,4.24,4.24,0,0,0-1-.49.24.24,0,0,1-.15-.3.24.24,0,0,1,.3-.15,6,6,0,0,1,1.11.54Z"/><polyline class="cls-2" points="180.63 115.19 179.3 114.45 178.6 114.69"/><path class="cls-3" d="M180.77,115a.23.23,0,0,1,.06.3.23.23,0,0,1-.31.09l-1.24-.68-.6.2a.23.23,0,0,1-.3-.14.23.23,0,0,1,.15-.3l.7-.24a.25.25,0,0,1,.19,0l1.32.73Z"/><line class="cls-2" x1="179.3" y1="114.45" x2="179.27" y2="114.06"/><path class="cls-3" d="M179.42,113.88a.26.26,0,0,1,.09.17l0,.39a.24.24,0,0,1-.22.25.24.24,0,0,1-.25-.22l0-.39a.23.23,0,0,1,.21-.25A.26.26,0,0,1,179.42,113.88Z"/><path class="cls-2" d="M183,115.36a2,2,0,0,1,1.2-.09"/><path class="cls-3" d="M184.31,115.08a.25.25,0,0,1,.09.24.24.24,0,0,1-.29.18,1.73,1.73,0,0,0-1,.08.23.23,0,0,1-.31-.12.23.23,0,0,1,.11-.31,2.26,2.26,0,0,1,1.35-.11A.25.25,0,0,1,184.31,115.08Z"/><path class="cls-2" d="M185.33,115.75a3.6,3.6,0,0,1,1.1.7"/><path class="cls-3" d="M186.37,116.09l.22.18a.25.25,0,0,1,0,.33.23.23,0,0,1-.33,0,3.53,3.53,0,0,0-1-.65.23.23,0,0,1-.14-.3.24.24,0,0,1,.3-.14A4,4,0,0,1,186.37,116.09Z"/><path class="cls-2" d="M185.55,119.78a2.44,2.44,0,0,0,1.19-1.39"/><path class="cls-3" d="M186.89,118.2a.23.23,0,0,1,.07.27,2.58,2.58,0,0,1-1.33,1.52.23.23,0,1,1-.17-.43,2.2,2.2,0,0,0,1.06-1.26.24.24,0,0,1,.31-.13Z"/><path class="cls-2" d="M184.71,122.08a1.75,1.75,0,0,1,.38.86"/><path class="cls-3" d="M184.85,121.89l0,0a2,2,0,0,1,.44,1,.23.23,0,0,1-.19.27.24.24,0,0,1-.27-.19,1.63,1.63,0,0,0-.33-.75.25.25,0,0,1,0-.33A.24.24,0,0,1,184.85,121.89Z"/></g><g class="cls-7"><path class="cls-5" d="M185.51,121.15a6.3,6.3,0,0,1,1.85.13c.15,0,.13.34.27.39s.42-.19.55-.14a6.19,6.19,0,0,1,3.51,3.39c.07.18-.09.5,0,.69s.32.22.36.41a4.89,4.89,0,0,1,.11.78,6.13,6.13,0,0,1-1.48,4.52c-.24.27-.69.18-1,.41s-.2.63-.41.76a6.17,6.17,0,0,1-2.79.93,6.52,6.52,0,0,1-1.93-.15c-.2-.05-.27-.4-.46-.47s-.45.17-.6.11a6.15,6.15,0,0,1-3.63-5.14c0-.16.24-.22.24-.38s-.25-.5-.23-.7a6.09,6.09,0,0,1,2-4c.27-.25.38-.57.68-.76a7.06,7.06,0,0,1,.89-.28A6.2,6.2,0,0,1,185.51,121.15Z"/><path class="cls-3" d="M190,122.19a6.41,6.41,0,0,1,2,2.61.87.87,0,0,1,0,.53.76.76,0,0,0,0,.19s0,0,.06,0a.65.65,0,0,1,.31.41,7.54,7.54,0,0,1,.12.81,6.39,6.39,0,0,1-1.57,4.75,1.09,1.09,0,0,1-.67.33.85.85,0,0,0-.33.12,2.23,2.23,0,0,0-.09.23,1,1,0,0,1-.34.56,6.48,6.48,0,0,1-5,.81.76.76,0,0,1-.43-.37l-.06-.08-.09,0a.66.66,0,0,1-.54,0,6.48,6.48,0,0,1-3.81-5.39.55.55,0,0,1,.22-.46l-.07-.15a1,1,0,0,1-.14-.52,6.43,6.43,0,0,1,2.09-4.18,2.2,2.2,0,0,0,.24-.28,1.68,1.68,0,0,1,.49-.51,1.87,1.87,0,0,1,.59-.2,1.87,1.87,0,0,0,.33-.1,6.55,6.55,0,0,1,2.18-.56,6.31,6.31,0,0,1,1.94.14.47.47,0,0,1,.34.33h0a.67.67,0,0,1,.52-.08A6.72,6.72,0,0,1,190,122.19Zm1.61,3.82a.58.58,0,0,1-.23-.31,1,1,0,0,1,0-.48.72.72,0,0,0,0-.19,5.85,5.85,0,0,0-3.27-3.19l-.1,0a.67.67,0,0,1-.48.09.57.57,0,0,1-.34-.39h0a5.76,5.76,0,0,0-1.66-.11h0a6,6,0,0,0-2,.51,2.35,2.35,0,0,1-.45.14,1.47,1.47,0,0,0-.4.12,1.14,1.14,0,0,0-.31.34,2.74,2.74,0,0,1-.33.39,5.84,5.84,0,0,0-1.89,3.76.65.65,0,0,0,.09.2,1.11,1.11,0,0,1,.14.47.55.55,0,0,1-.23.42h0a5.82,5.82,0,0,0,3.39,4.78l.11,0a.8.8,0,0,1,.51-.06.79.79,0,0,1,.38.36l.09.12a5.94,5.94,0,0,0,1.8.12,5.74,5.74,0,0,0,2.64-.87,2.23,2.23,0,0,0,.09-.23,1.13,1.13,0,0,1,.29-.52,1.42,1.42,0,0,1,.59-.24.63.63,0,0,0,.33-.13,5.74,5.74,0,0,0,1.41-4.29,6.26,6.26,0,0,0-.1-.74s0,0-.06,0Zm-8,6.6Z"/><path class="cls-2" d="M185.78,126.08s.1-1.37.55-1.72"/><path class="cls-3" d="M186.47,124.17l0,0a.24.24,0,0,1,0,.33,3,3,0,0,0-.45,1.55.24.24,0,0,1-.47,0c0-.25.13-1.49.63-1.89A.26.26,0,0,1,186.47,124.17Z"/><path class="cls-2" d="M188.19,128.71a7,7,0,0,0-1.95-1.18"/><path class="cls-3" d="M188.12,128.34l.22.19a.24.24,0,0,1,0,.33.22.22,0,0,1-.33,0,7,7,0,0,0-1.88-1.13.23.23,0,0,1,.16-.44A7.14,7.14,0,0,1,188.12,128.34Z"/><path class="cls-2" d="M183.43,128.42a1.81,1.81,0,0,1,1.38-.78"/><path class="cls-3" d="M185,127.46a.2.2,0,0,1,.09.2.24.24,0,0,1-.25.22c-.64-.06-1.16.67-1.16.67a.23.23,0,0,1-.33.06.23.23,0,0,1-.06-.32,2,2,0,0,1,1.59-.88A.17.17,0,0,1,185,127.46Z"/><path class="cls-2" d="M183.05,130.45a3.41,3.41,0,0,0,.78,1"/><path class="cls-3" d="M183.19,130.27a.23.23,0,0,1,.07.07,3.11,3.11,0,0,0,.72.89.24.24,0,0,1,0,.33.25.25,0,0,1-.33,0,3.76,3.76,0,0,1-.84-1,.23.23,0,0,1,.1-.32A.23.23,0,0,1,183.19,130.27Z"/><path class="cls-2" d="M182.28,128a5.28,5.28,0,0,0-1.06-.52"/><path class="cls-3" d="M182.42,127.84a.23.23,0,0,1,.05.32.22.22,0,0,1-.32.06,5.24,5.24,0,0,0-1-.49.23.23,0,0,1-.15-.29.24.24,0,0,1,.3-.15,5.89,5.89,0,0,1,1.12.54Z"/><polyline class="cls-2" points="185.01 123.31 183.69 122.58 182.99 122.82"/><path class="cls-3" d="M185.16,123.13a.23.23,0,0,1,.06.3.24.24,0,0,1-.32.09l-1.23-.68-.61.2a.23.23,0,0,1-.15-.44l.7-.24a.21.21,0,0,1,.19,0l1.33.73Z"/><line class="cls-2" x1="183.69" y1="122.58" x2="183.66" y2="122.19"/><path class="cls-3" d="M183.8,122a.22.22,0,0,1,.09.16l0,.39a.24.24,0,0,1-.21.26.25.25,0,0,1-.26-.22l0-.39a.24.24,0,0,1,.22-.25A.18.18,0,0,1,183.8,122Z"/><path class="cls-2" d="M187.36,123.49a2,2,0,0,1,1.19-.09"/><path class="cls-3" d="M188.7,123.21a.24.24,0,0,1-.2.42,1.75,1.75,0,0,0-1,.07.23.23,0,1,1-.2-.42,2.24,2.24,0,0,1,1.35-.11Z"/><path class="cls-2" d="M189.71,123.88a3.71,3.71,0,0,1,1.11.7"/><path class="cls-3" d="M190.76,124.22l.21.18a.23.23,0,0,1-.31.35,3.53,3.53,0,0,0-1-.65.24.24,0,0,1-.14-.3.23.23,0,0,1,.3-.14A4.15,4.15,0,0,1,190.76,124.22Z"/><path class="cls-2" d="M189.93,127.9a2.39,2.39,0,0,0,1.2-1.39"/><path class="cls-3" d="M191.27,126.33a.25.25,0,0,1,.08.27,2.65,2.65,0,0,1-1.33,1.52.24.24,0,0,1-.31-.13.22.22,0,0,1,.13-.3,2.19,2.19,0,0,0,1.07-1.26.24.24,0,0,1,.3-.14Z"/><path class="cls-2" d="M189.09,130.21a1.81,1.81,0,0,1,.39.85"/><path class="cls-3" d="M189.24,130l0,0a2.11,2.11,0,0,1,.44,1,.24.24,0,0,1-.19.27.22.22,0,0,1-.27-.19,1.74,1.74,0,0,0-.33-.74.23.23,0,0,1,.32-.34Z"/></g><g class="cls-8"><path class="cls-5" d="M191.43,130.43a6.32,6.32,0,0,1,1.85.13c.14,0,.12.35.26.39s.42-.19.55-.14a6.14,6.14,0,0,1,3.51,3.4c.07.17-.09.49,0,.68s.33.23.37.41a6.66,6.66,0,0,1,.11.78,6.18,6.18,0,0,1-1.49,4.52c-.23.27-.69.19-1,.41s-.2.63-.41.76a6,6,0,0,1-2.79.93,6.12,6.12,0,0,1-1.92-.15c-.21-.05-.27-.4-.47-.47s-.44.17-.6.11a6.17,6.17,0,0,1-3.63-5.14c0-.16.24-.21.24-.38s-.25-.5-.23-.69a6.16,6.16,0,0,1,2-4c.27-.24.38-.57.69-.76a8.21,8.21,0,0,1,.88-.28A6.26,6.26,0,0,1,191.43,130.43Z"/><path class="cls-3" d="M195.9,131.47a6.46,6.46,0,0,1,2,2.62,1,1,0,0,1,0,.53.74.74,0,0,0,0,.18s0,0,.06,0a.65.65,0,0,1,.31.41,5.66,5.66,0,0,1,.12.81,6.41,6.41,0,0,1-1.57,4.76,1.15,1.15,0,0,1-.66.33.79.79,0,0,0-.33.11.73.73,0,0,0-.09.23,1,1,0,0,1-.35.56,6.46,6.46,0,0,1-5,.81.72.72,0,0,1-.44-.37l-.06-.08-.08,0a.67.67,0,0,1-.54,0,6.47,6.47,0,0,1-3.82-5.39.54.54,0,0,1,.22-.45,1,1,0,0,0-.06-.16,1,1,0,0,1-.15-.52,6.41,6.41,0,0,1,2.09-4.17,2.31,2.31,0,0,0,.24-.29,1.8,1.8,0,0,1,.49-.51,2.28,2.28,0,0,1,.59-.2l.33-.09a6.34,6.34,0,0,1,2.18-.57,6.71,6.71,0,0,1,1.95.14.51.51,0,0,1,.34.33h0a.68.68,0,0,1,.51-.07A6.45,6.45,0,0,1,195.9,131.47Zm1.6,3.82a.63.63,0,0,1-.23-.31,1,1,0,0,1,0-.48c0-.06,0-.16,0-.19a5.92,5.92,0,0,0-3.27-3.19l-.1,0a.69.69,0,0,1-.49.09.56.56,0,0,1-.33-.39h0a5.76,5.76,0,0,0-1.66-.1h0a5.84,5.84,0,0,0-2,.5,2,2,0,0,1-.45.14,1.47,1.47,0,0,0-.4.12,1.29,1.29,0,0,0-.31.34,2.28,2.28,0,0,1-.33.39A5.84,5.84,0,0,0,186.1,136l.09.19a1.18,1.18,0,0,1,.15.47.55.55,0,0,1-.23.42h0a5.83,5.83,0,0,0,3.4,4.78l.11,0a.7.7,0,0,1,.5-.05.75.75,0,0,1,.39.35.62.62,0,0,0,.08.12,5.9,5.9,0,0,0,4.45-.75,1,1,0,0,0,.08-.23,1,1,0,0,1,.29-.51,1.34,1.34,0,0,1,.59-.24.74.74,0,0,0,.33-.13,5.83,5.83,0,0,0,1.42-4.3,6.13,6.13,0,0,0-.11-.73s0,0-.06,0Zm-8,6.6Z"/><path class="cls-2" d="M191.7,135.36s.1-1.37.54-1.72"/><path class="cls-3" d="M192.39,133.46l0,0a.23.23,0,0,1,0,.33,2.93,2.93,0,0,0-.46,1.54.24.24,0,0,1-.47,0c0-.25.14-1.49.64-1.88A.23.23,0,0,1,192.39,133.46Z"/><path class="cls-2" d="M194.1,138a7,7,0,0,0-1.95-1.18"/><path class="cls-3" d="M194,137.63l.23.18a.24.24,0,0,1,0,.34.24.24,0,0,1-.33,0,7,7,0,0,0-1.87-1.14.23.23,0,0,1-.15-.3.24.24,0,0,1,.3-.14A7,7,0,0,1,194,137.63Z"/><path class="cls-2" d="M189.35,137.7a1.76,1.76,0,0,1,1.37-.77"/><path class="cls-3" d="M190.87,136.74a.23.23,0,0,1,.09.21.24.24,0,0,1-.26.21c-.63-.06-1.15.67-1.16.68a.24.24,0,0,1-.33,0,.22.22,0,0,1-.06-.32,2,2,0,0,1,1.59-.88A.29.29,0,0,1,190.87,136.74Z"/><path class="cls-2" d="M189,139.73a3.41,3.41,0,0,0,.78,1"/><path class="cls-3" d="M189.11,139.55l.06.08a3.23,3.23,0,0,0,.73.88.24.24,0,0,1-.31.36,3.76,3.76,0,0,1-.84-1,.24.24,0,0,1,.36-.29Z"/><path class="cls-2" d="M188.19,137.31a5,5,0,0,0-1.06-.52"/><path class="cls-3" d="M188.34,137.13a.23.23,0,0,1,0,.31.24.24,0,0,1-.33.07,4.24,4.24,0,0,0-1-.49.23.23,0,0,1-.15-.3.24.24,0,0,1,.3-.15,6,6,0,0,1,1.11.54Z"/><polyline class="cls-2" points="190.93 132.59 189.6 131.86 188.9 132.1"/><path class="cls-3" d="M191.07,132.41a.23.23,0,0,1,.06.3.23.23,0,0,1-.31.09l-1.24-.68-.6.2a.23.23,0,0,1-.3-.14.23.23,0,0,1,.15-.3l.7-.24a.22.22,0,0,1,.18,0l1.33.73Z"/><line class="cls-2" x1="189.6" y1="131.86" x2="189.57" y2="131.47"/><path class="cls-3" d="M189.72,131.29a.21.21,0,0,1,.08.17l0,.38a.24.24,0,0,1-.22.26.24.24,0,0,1-.25-.22l0-.39a.23.23,0,0,1,.21-.25A.26.26,0,0,1,189.72,131.29Z"/><path class="cls-2" d="M193.27,132.77a2,2,0,0,1,1.2-.09"/><path class="cls-3" d="M194.61,132.49a.22.22,0,0,1,.08.24.23.23,0,0,1-.28.18,1.63,1.63,0,0,0-1,.08.23.23,0,0,1-.31-.12.23.23,0,0,1,.11-.31,2.24,2.24,0,0,1,1.35-.11Z"/><path class="cls-2" d="M195.63,133.16a3.6,3.6,0,0,1,1.1.7"/><path class="cls-3" d="M196.67,133.5l.22.18a.24.24,0,0,1,0,.33.23.23,0,0,1-.33,0,3.56,3.56,0,0,0-1-.65.23.23,0,0,1-.14-.3.24.24,0,0,1,.3-.14A4,4,0,0,1,196.67,133.5Z"/><path class="cls-2" d="M195.84,137.18a2.39,2.39,0,0,0,1.2-1.38"/><path class="cls-3" d="M197.19,135.61a.24.24,0,0,1,.07.27,2.58,2.58,0,0,1-1.33,1.52.22.22,0,0,1-.3-.13.23.23,0,0,1,.13-.3,2.2,2.2,0,0,0,1.06-1.26.23.23,0,0,1,.3-.13A.15.15,0,0,1,197.19,135.61Z"/><path class="cls-2" d="M195,139.49a1.86,1.86,0,0,1,.38.86"/><path class="cls-3" d="M195.15,139.3l0,0a1.9,1.9,0,0,1,.44,1,.25.25,0,0,1-.19.28.24.24,0,0,1-.27-.19,1.57,1.57,0,0,0-.33-.75.25.25,0,0,1,0-.33A.24.24,0,0,1,195.15,139.3Z"/></g><line class="cls-9" x1="116.83" y1="24.5" x2="116.83" y2="160.5"/><line class="cls-9" x1="210.17" y1="24.5" x2="210.17" y2="160.5"/><polyline class="cls-10" points="163.12 108.19 160.77 108.47 162.41 110.35 160.58 112.72 165.09 112.69 165.41 114.18 167.41 112.67"/><polyline class="cls-10" points="177.29 100.74 177.6 98.4 179.46 100.07 181.86 98.27 181.76 102.77 183.25 103.11 181.71 105.09"/><g class="cls-7"><path class="cls-2" d="M269.46,97.47a6.51,6.51,0,0,1-2.16,4.84c-.1.08-.35-.07-.45,0s0,.39-.14.46A6.53,6.53,0,0,1,263,104a6.66,6.66,0,0,1-1.62-.2c-.1,0,0-.28-.15-.32s-.41.15-.53.1a6.47,6.47,0,0,1-4.14-5.3c0-.25.19-.32.19-.58s-.22-.64-.2-.86A6.5,6.5,0,0,1,262,91.06c.13,0,.35.22.49.21s.32-.29.52-.29a6.5,6.5,0,0,1,6.17,4.45c.06.18-.24.41-.2.58s.42.26.44.42A6,6,0,0,1,269.46,97.47Z"/><path class="cls-3" d="M263,104.28a6.5,6.5,0,0,1-1.7-.22.37.37,0,0,1-.27-.26.66.66,0,0,1-.44,0,6.78,6.78,0,0,1-4.34-5.56.73.73,0,0,1,.13-.5c.05-.07.06-.09.06-.12a1.4,1.4,0,0,0-.09-.31,1.56,1.56,0,0,1-.11-.58,6.79,6.79,0,0,1,5.7-6,.7.7,0,0,1,.47.15l.06,0,.06,0a.7.7,0,0,1,.47-.22,6.8,6.8,0,0,1,6.47,4.66.68.68,0,0,1-.13.56l0,0,0,0a.66.66,0,0,1,.36.43,6.68,6.68,0,0,1,.09,1.09,6.85,6.85,0,0,1-2.26,5.07.53.53,0,0,1-.42.1.52.52,0,0,1-.2.39A6.73,6.73,0,0,1,263,104.28Zm-1.4-.79a6.27,6.27,0,0,0,4.91-.92v-.06a.65.65,0,0,1,.18-.43.58.58,0,0,1,.48-.07h0a6.19,6.19,0,0,0,2-4.54,5.82,5.82,0,0,0-.07-.93l-.09-.06a.71.71,0,0,1-.35-.39.67.67,0,0,1,.14-.52l0-.09A6.16,6.16,0,0,0,263,91.3s0,0-.06.06a.61.61,0,0,1-.87.07l-.08-.05a6.18,6.18,0,0,0-5.13,5.45,1.45,1.45,0,0,0,.09.32,2,2,0,0,1,.11.51.82.82,0,0,1-.15.45c0,.07,0,.08,0,.09a6.16,6.16,0,0,0,3.89,5l.11,0a.66.66,0,0,1,.46,0A.41.41,0,0,1,261.56,103.49Zm-.86-.25ZM262,91.37Z"/><path class="cls-3" d="M260.36,96.9l-.09,0a.24.24,0,0,1-.13-.31A7.16,7.16,0,0,1,262,94.39a.25.25,0,0,1,.33,0,.24.24,0,0,1,0,.33,6.59,6.59,0,0,0-1.73,2A.22.22,0,0,1,260.36,96.9Z"/><path class="cls-3" d="M261.87,100.32a.24.24,0,0,1-.15-.06,9.23,9.23,0,0,1-1.56-2,.23.23,0,0,1,.4-.24A9.67,9.67,0,0,0,262,99.9a.24.24,0,0,1,0,.33A.21.21,0,0,1,261.87,100.32Z"/><path class="cls-3" d="M263,100.55a.23.23,0,0,1-.23-.21.24.24,0,0,1,.21-.26,7.24,7.24,0,0,0,2.15-.51.23.23,0,0,1,.32.07.24.24,0,0,1-.07.33,7.78,7.78,0,0,1-2.35.58Z"/><path class="cls-3" d="M266.09,99.35H266a.24.24,0,0,1-.14-.3,12.73,12.73,0,0,0,.54-2.13.24.24,0,0,1,.27-.19.23.23,0,0,1,.19.27,13.55,13.55,0,0,1-.56,2.21A.23.23,0,0,1,266.09,99.35Z"/><path class="cls-3" d="M266.09,95.68a.24.24,0,0,1-.16-.07,7.55,7.55,0,0,0-2.31-1.51.24.24,0,0,1-.14-.3.23.23,0,0,1,.3-.14,8,8,0,0,1,2.48,1.61.24.24,0,0,1,0,.33A.25.25,0,0,1,266.09,95.68Z"/><path class="cls-3" d="M262.65,93.67a.24.24,0,0,1-.23-.2l-.18-1.33a.24.24,0,0,1,.2-.27.23.23,0,0,1,.26.2l.18,1.33a.24.24,0,0,1-.2.27Z"/><path class="cls-3" d="M259.26,98.13H258a.24.24,0,0,1-.24-.24.23.23,0,0,1,.24-.23h1.27a.23.23,0,0,1,.24.23A.24.24,0,0,1,259.26,98.13Z"/><path class="cls-3" d="M261.74,102.58a.18.18,0,0,1-.1,0,.22.22,0,0,1-.11-.31l.52-1.12a.23.23,0,0,1,.42.2l-.52,1.12A.23.23,0,0,1,261.74,102.58Z"/><path class="cls-3" d="M266.64,101.8a.23.23,0,0,1-.21-.13l-.55-1.12a.25.25,0,0,1,.11-.32.24.24,0,0,1,.31.11l.55,1.12a.24.24,0,0,1-.11.32Z"/><path class="cls-3" d="M268.2,96.41h-1a.24.24,0,0,1-.24-.24.23.23,0,0,1,.24-.23h1a.23.23,0,0,1,.24.23A.24.24,0,0,1,268.2,96.41Z"/></g><path class="cls-2" d="M240,68.3a6.44,6.44,0,0,1-2.16,4.83c-.09.09-.34-.06-.45,0s0,.38-.14.45a6.43,6.43,0,0,1-3.74,1.19,6.74,6.74,0,0,1-1.63-.2c-.1,0,0-.29-.14-.32s-.41.15-.54.1a6.5,6.5,0,0,1-4.14-5.3c0-.25.19-.33.19-.59s-.22-.63-.2-.85a6.51,6.51,0,0,1,5.44-5.74c.14,0,.36.22.5.21s.32-.29.52-.29a6.49,6.49,0,0,1,6.16,4.45c.06.17-.24.4-.19.58s.41.26.44.42A7.17,7.17,0,0,1,240,68.3Z"/><path class="cls-3" d="M233.48,75.11a6.89,6.89,0,0,1-1.7-.22.36.36,0,0,1-.27-.26.69.69,0,0,1-.45,0,6.8,6.8,0,0,1-4.34-5.57.71.71,0,0,1,.14-.5c0-.06,0-.08,0-.11a2,2,0,0,0-.08-.31,1.42,1.42,0,0,1-.12-.59,6.8,6.8,0,0,1,5.7-6,.68.68,0,0,1,.47.15l.06,0,.06-.05a.72.72,0,0,1,.48-.22,6.79,6.79,0,0,1,6.46,4.66.68.68,0,0,1-.13.56l0,0,0,0a.66.66,0,0,1,.36.43,6.68,6.68,0,0,1,.09,1.09A6.81,6.81,0,0,1,238,73.37a.48.48,0,0,1-.42.09.52.52,0,0,1-.2.4A6.72,6.72,0,0,1,233.48,75.11Zm-1.4-.79a6.22,6.22,0,0,0,4.9-.93v0a.6.6,0,0,1,.19-.43.57.57,0,0,1,.48-.07h0a6.22,6.22,0,0,0,2-4.54,7.28,7.28,0,0,0-.07-.93l-.09-.06a.73.73,0,0,1-.36-.39.7.7,0,0,1,.14-.53.35.35,0,0,1,.05-.08,6.18,6.18,0,0,0-5.85-4.19s0,.05-.07.07a.74.74,0,0,1-.43.22.68.68,0,0,1-.43-.15l-.09,0a6.17,6.17,0,0,0-5.13,5.45,2.37,2.37,0,0,0,.09.32,1.61,1.61,0,0,1,.11.51.82.82,0,0,1-.14.45c0,.07,0,.08,0,.09a6.15,6.15,0,0,0,3.9,5l.1,0a.72.72,0,0,1,.46-.06A.43.43,0,0,1,232.08,74.32Zm-.87-.25Zm1.3-11.87Z"/><path class="cls-3" d="M230.87,67.73l-.09,0a.23.23,0,0,1-.12-.31,7,7,0,0,1,1.87-2.18.23.23,0,0,1,.33,0,.23.23,0,0,1-.05.32,6.69,6.69,0,0,0-1.72,2A.24.24,0,0,1,230.87,67.73Z"/><path class="cls-3" d="M232.38,71.14a.19.19,0,0,1-.14,0,9.38,9.38,0,0,1-1.57-2,.23.23,0,0,1,.4-.24,9.67,9.67,0,0,0,1.46,1.87.24.24,0,0,1,0,.33A.27.27,0,0,1,232.38,71.14Z"/><path class="cls-3" d="M233.49,71.38a.24.24,0,0,1,0-.47,7.48,7.48,0,0,0,2.15-.51.23.23,0,1,1,.25.39,7.5,7.5,0,0,1-2.35.59Z"/><path class="cls-3" d="M236.61,70.18h-.08a.23.23,0,0,1-.14-.3,14.76,14.76,0,0,0,.53-2.13.24.24,0,0,1,.27-.19.22.22,0,0,1,.19.27,14.85,14.85,0,0,1-.55,2.2A.24.24,0,0,1,236.61,70.18Z"/><path class="cls-3" d="M236.61,66.5a.27.27,0,0,1-.17-.06,7.41,7.41,0,0,0-2.31-1.51.24.24,0,0,1,.16-.45,7.92,7.92,0,0,1,2.48,1.62.24.24,0,0,1,0,.33A.2.2,0,0,1,236.61,66.5Z"/><path class="cls-3" d="M233.16,64.5a.24.24,0,0,1-.23-.21L232.75,63a.23.23,0,0,1,.2-.26.24.24,0,0,1,.27.2l.18,1.33a.22.22,0,0,1-.2.26Z"/><path class="cls-3" d="M229.78,69H228.5a.23.23,0,1,1,0-.46h1.28a.23.23,0,0,1,0,.46Z"/><path class="cls-3" d="M232.25,73.41a.2.2,0,0,1-.1,0,.24.24,0,0,1-.11-.31l.52-1.12a.24.24,0,0,1,.31-.12.25.25,0,0,1,.12.32l-.52,1.12A.25.25,0,0,1,232.25,73.41Z"/><path class="cls-3" d="M237.15,72.63a.24.24,0,0,1-.21-.13l-.54-1.12a.24.24,0,0,1,.1-.32.24.24,0,0,1,.32.11l.54,1.12a.24.24,0,0,1-.1.32Z"/><path class="cls-3" d="M238.72,67.23h-1a.23.23,0,0,1-.23-.23.23.23,0,0,1,.23-.24h1A.23.23,0,0,1,239,67,.23.23,0,0,1,238.72,67.23Z"/><path class="cls-4" d="M279.56,77.64a6.47,6.47,0,0,1,4.82,2.18c.09.1-.07.35,0,.45s.38,0,.45.14A6.47,6.47,0,0,1,286,84.16a6.74,6.74,0,0,1-.21,1.63c0,.1-.29,0-.32.14s.14.41.1.53a6.5,6.5,0,0,1-5.33,4.12c-.25,0-.32-.19-.58-.19s-.64.22-.86.19a6.49,6.49,0,0,1-5.71-5.46c0-.14.22-.36.21-.5s-.28-.32-.28-.52A6.48,6.48,0,0,1,277.52,78c.17-.06.4.24.58.19s.26-.41.42-.43A7.07,7.07,0,0,1,279.56,77.64Z"/><path class="cls-3" d="M278.85,90.9h-.07a6.79,6.79,0,0,1-6-5.73.66.66,0,0,1,.15-.46.43.43,0,0,0,0-.07l-.05-.06a.7.7,0,0,1-.22-.47,6.81,6.81,0,0,1,4.7-6.44.67.67,0,0,1,.55.13l0,0,0,0a.66.66,0,0,1,.43-.36,6.84,6.84,0,0,1,6.14,2.2.49.49,0,0,1,.1.42.55.55,0,0,1,.39.2,6.75,6.75,0,0,1,1.23,3.93,6.89,6.89,0,0,1-.22,1.7.37.37,0,0,1-.26.27.69.69,0,0,1,0,.45,6.79,6.79,0,0,1-5.58,4.31.68.68,0,0,1-.5-.14c-.07,0-.09,0-.12,0h0a2,2,0,0,0-.31.08A1.63,1.63,0,0,1,278.85,90.9Zm-5.42-5.78a6.17,6.17,0,0,0,5.42,5.15,1.73,1.73,0,0,0,.33-.08,1.56,1.56,0,0,1,.5-.11h0a.76.76,0,0,1,.45.15c.07,0,.08,0,.1,0a6.19,6.19,0,0,0,5-3.87l0-.1a.72.72,0,0,1-.05-.46.42.42,0,0,1,.35-.28,6.62,6.62,0,0,0,.17-1.4,6.2,6.2,0,0,0-1.07-3.5h-.06a.62.62,0,0,1-.43-.19.55.55,0,0,1-.07-.47v0a6.2,6.2,0,0,0-4.53-2h0a5.86,5.86,0,0,0-.94.07l-.06.09a.56.56,0,0,1-.91.21l-.09,0a6.16,6.16,0,0,0-4.21,5.83l.07.07a.7.7,0,0,1,.21.42.69.69,0,0,1-.15.44A.41.41,0,0,0,273.43,85.12Zm11.25-4.46Zm-.53-.63Zm-5.51-2Z"/><path class="cls-3" d="M278.71,87l-.1,0a7.19,7.19,0,0,1-2.17-1.88.23.23,0,0,1,.05-.33.24.24,0,0,1,.33,0,6.48,6.48,0,0,0,2,1.74.23.23,0,0,1,.12.31A.23.23,0,0,1,278.71,87Z"/><path class="cls-3" d="M280.19,87a.24.24,0,0,1-.2-.12.23.23,0,0,1,.08-.32A9.16,9.16,0,0,0,282,85.09a.23.23,0,0,1,.36.3,9.3,9.3,0,0,1-2,1.55A.19.19,0,0,1,280.19,87Z"/><path class="cls-3" d="M282.37,84.36a.23.23,0,0,1-.23-.21,7.17,7.17,0,0,0-.51-2.15.23.23,0,0,1,.08-.32.23.23,0,0,1,.32.07,7.7,7.7,0,0,1,.57,2.35.23.23,0,0,1-.21.26Z"/><path class="cls-3" d="M281.18,81.25l-.08,0a13.91,13.91,0,0,0-2.12-.55.24.24,0,0,1-.19-.27.24.24,0,0,1,.27-.19,15.18,15.18,0,0,1,2.21.57.24.24,0,0,1,.14.3A.25.25,0,0,1,281.18,81.25Z"/><path class="cls-3" d="M275.93,83.61h-.08a.24.24,0,0,1-.14-.3,8,8,0,0,1,1.63-2.47.25.25,0,0,1,.34,0,.24.24,0,0,1,0,.33,7.53,7.53,0,0,0-1.53,2.3A.23.23,0,0,1,275.93,83.61Z"/><path class="cls-3" d="M274.15,84.83a.23.23,0,0,1,0-.46l1.33-.18a.24.24,0,0,1,.07.47l-1.33.17Z"/><path class="cls-3" d="M279.92,89.35h0a.23.23,0,0,1-.23-.24V87.83a.22.22,0,0,1,.24-.23.23.23,0,0,1,.23.24v1.27A.23.23,0,0,1,279.92,89.35Z"/><path class="cls-3" d="M284.4,85.61a.16.16,0,0,1-.1,0l-1.12-.52a.24.24,0,0,1-.11-.32.23.23,0,0,1,.31-.11l1.12.53a.24.24,0,0,1,.11.31A.23.23,0,0,1,284.4,85.61Z"/><path class="cls-3" d="M282.51,81.25a.24.24,0,0,1-.21-.13.24.24,0,0,1,.11-.31l1.13-.55a.25.25,0,0,1,.31.11.24.24,0,0,1-.11.32l-1.12.54Z"/><path class="cls-3" d="M278.24,80.14h0a.23.23,0,0,1-.23-.24v-1a.23.23,0,0,1,.23-.23h0a.23.23,0,0,1,.23.24v1A.24.24,0,0,1,278.24,80.14Z"/><path class="cls-4" d="M247.61,105.18a6.47,6.47,0,0,1-.42,5.27c-.06.11-.35,0-.42.17s.09.37,0,.47a6.46,6.46,0,0,1-3.13,2.37,6.56,6.56,0,0,1-1.6.35c-.11,0-.14-.25-.25-.25s-.33.28-.46.27a6.49,6.49,0,0,1-5.68-3.61c-.11-.23.07-.37,0-.62s-.43-.52-.48-.74a6.5,6.5,0,0,1,3.21-7.22c.13-.07.41.09.54,0s.21-.38.4-.45a6.49,6.49,0,0,1,7.29,2.14c.11.14-.09.46,0,.61s.48.11.56.25A7,7,0,0,1,247.61,105.18Z"/><path class="cls-3" d="M234.9,109a.19.19,0,0,1,0-.07,6.79,6.79,0,0,1,3.37-7.57.62.62,0,0,1,.48,0h.08l0-.07a.68.68,0,0,1,.37-.36,6.8,6.8,0,0,1,7.65,2.24.68.68,0,0,1,.07.56v0h0a.69.69,0,0,1,.48.28,6.78,6.78,0,0,1,0,6.53.49.49,0,0,1-.37.23.53.53,0,0,1,0,.44,6.78,6.78,0,0,1-5,2.85.38.38,0,0,1-.34-.15.7.7,0,0,1-.41.18,6.79,6.79,0,0,1-6-3.8.72.72,0,0,1,0-.51c0-.08,0-.1,0-.13h0a1.11,1.11,0,0,0-.18-.26A1.67,1.67,0,0,1,234.9,109Zm3.6-7.06a6.15,6.15,0,0,0-3,6.85,1.23,1.23,0,0,0,.19.27,1.86,1.86,0,0,1,.27.44h0a.75.75,0,0,1,0,.47c0,.09,0,.09,0,.11a6.16,6.16,0,0,0,5.35,3.44l.09-.07a.69.69,0,0,1,.41-.2.41.41,0,0,1,.38.23,6.56,6.56,0,0,0,1.38-.31,6.17,6.17,0,0,0,2.93-2.2.43.43,0,0,1,0,0,.6.6,0,0,1,0-.47.52.52,0,0,1,.43-.22h0a6.21,6.21,0,0,0,.36-4.94h0a7.26,7.26,0,0,0-.38-.86l-.11,0a.72.72,0,0,1-.46-.26.67.67,0,0,1-.05-.53.36.36,0,0,0,0-.1,6.15,6.15,0,0,0-6.91-2s0,0,0,.08a.69.69,0,0,1-.33.35.73.73,0,0,1-.46,0Zm8,9.08Zm.42-.72Zm.05-5.87Z"/><path class="cls-3" d="M238.55,107.53a.29.29,0,0,1,0-.09,6.83,6.83,0,0,1,1-2.68.23.23,0,0,1,.39.25,6.72,6.72,0,0,0-1,2.45.24.24,0,0,1-.25.22A.23.23,0,0,1,238.55,107.53Z"/><path class="cls-3" d="M239,108.93a.24.24,0,0,1,0-.23.24.24,0,0,1,.33,0,9.39,9.39,0,0,0,2,1.27.23.23,0,0,1,.14.3.24.24,0,0,1-.3.15,9.55,9.55,0,0,1-2.14-1.36A.36.36,0,0,1,239,108.93Z"/><path class="cls-3" d="M242.24,110.09a.24.24,0,0,1,.12-.29,7,7,0,0,0,1.85-1.2.24.24,0,1,1,.37.29,7.85,7.85,0,0,1-2,1.34.24.24,0,0,1-.31-.11Z"/><path class="cls-3" d="M244.77,107.92a.19.19,0,0,1,0-.08,13.91,13.91,0,0,0-.21-2.18.24.24,0,0,1,.19-.27.25.25,0,0,1,.28.19,14.7,14.7,0,0,1,.21,2.27.24.24,0,0,1-.24.23A.24.24,0,0,1,244.77,107.92Z"/><path class="cls-3" d="M240.76,103.78s0,0,0-.07a.24.24,0,0,1,.24-.24,7.83,7.83,0,0,1,2.87.7.23.23,0,1,1-.2.42,7.65,7.65,0,0,0-2.67-.65A.24.24,0,0,1,240.76,103.78Z"/><path class="cls-3" d="M239,102.52a.23.23,0,0,1,.43-.18l.62,1.19a.25.25,0,0,1-.1.32.24.24,0,0,1-.32-.11l-.61-1.19Z"/><path class="cls-3" d="M236.72,109.48h0a.23.23,0,0,1,.14-.3l1.2-.43c.13,0,.28,0,.3.14a.23.23,0,0,1-.14.3l-1.2.43A.24.24,0,0,1,236.72,109.48Z"/><path class="cls-3" d="M241.74,112.42a.31.31,0,0,1,0-.1l.12-1.23a.24.24,0,0,1,.26-.21.24.24,0,0,1,.21.26l-.12,1.23a.24.24,0,0,1-.46,0Z"/><path class="cls-3" d="M245.21,109.18a.24.24,0,0,1,.06-.25.24.24,0,0,1,.33,0l.89.88a.23.23,0,0,1-.33.33l-.89-.87A.24.24,0,0,1,245.21,109.18Z"/><path class="cls-3" d="M244.82,104.78h0a.23.23,0,0,1,.14-.3l1-.34a.24.24,0,0,1,.3.14h0a.24.24,0,0,1-.14.3l-1,.33A.23.23,0,0,1,244.82,104.78Z"/><path class="cls-5" d="M253.81,61.36a6.21,6.21,0,0,1-.27,1.84c0,.14-.35.09-.41.23s.16.43.1.56a6.16,6.16,0,0,1-3.67,3.22c-.18.06-.49-.12-.68-.08s-.25.31-.44.33a5,5,0,0,1-.78.05,6.12,6.12,0,0,1-4.39-1.84c-.25-.25-.13-.7-.33-1s-.61-.24-.73-.46a6.14,6.14,0,0,1-.7-2.86,6.36,6.36,0,0,1,.3-1.91c.07-.2.42-.24.51-.43s-.14-.45-.06-.6a6.15,6.15,0,0,1,5.4-3.21c.17,0,.2.26.36.27s.53-.21.72-.18a6.16,6.16,0,0,1,3.79,2.3c.22.29.54.42.71.75a8.43,8.43,0,0,1,.2.9A6.16,6.16,0,0,1,253.81,61.36Z"/><path class="cls-3" d="M247.66,67.83a6.4,6.4,0,0,1-4.61-1.94,1.13,1.13,0,0,1-.28-.69.73.73,0,0,0-.09-.34.74.74,0,0,0-.22-.11,1,1,0,0,1-.53-.39,6.56,6.56,0,0,1-.42-5,.76.76,0,0,1,.41-.4l.09-.06,0-.09a.72.72,0,0,1,0-.54,6.47,6.47,0,0,1,5.68-3.37.55.55,0,0,1,.44.26l.15-.06a1,1,0,0,1,.54-.11,6.47,6.47,0,0,1,4,2.42,1.66,1.66,0,0,0,.27.26,1.73,1.73,0,0,1,.46.53,1.77,1.77,0,0,1,.16.61,2.53,2.53,0,0,0,.07.34,6.35,6.35,0,0,1,.39,2.21,6.59,6.59,0,0,1-.29,1.93.51.51,0,0,1-.36.31h0a.67.67,0,0,1,0,.52,6.48,6.48,0,0,1-3.85,3.39,1,1,0,0,1-.53,0l-.18,0,0,.06a.62.62,0,0,1-.43.27A5.66,5.66,0,0,1,247.66,67.83Zm-5.11-9.3,0,.11a.69.69,0,0,1,0,.51.79.79,0,0,1-.38.35l-.13.08a6.08,6.08,0,0,0-.27,1.78,5.81,5.81,0,0,0,.67,2.71,1.2,1.2,0,0,0,.22.1,1.15,1.15,0,0,1,.49.33,1.49,1.49,0,0,1,.19.61.65.65,0,0,0,.1.34,5.81,5.81,0,0,0,4.91,1.7s0,0,0-.06a.69.69,0,0,1,.39-.26.93.93,0,0,1,.47,0l.19,0a5.86,5.86,0,0,0,3.44-3l0-.1a.72.72,0,0,1,0-.5.57.57,0,0,1,.41-.3h0a6.09,6.09,0,0,0,.23-1.65,5.89,5.89,0,0,0-.35-2,2.36,2.36,0,0,1-.1-.46,1.8,1.8,0,0,0-.09-.41,1.23,1.23,0,0,0-.31-.34,2,2,0,0,1-.36-.36,5.87,5.87,0,0,0-3.61-2.18l-.2.07a1.13,1.13,0,0,1-.48.11.54.54,0,0,1-.4-.26h0A5.86,5.86,0,0,0,242.55,58.53Zm0,0Z"/><path class="cls-2" d="M248.88,61.24s1.36.21,1.67.68"/><path class="cls-3" d="M250.55,62.15a.22.22,0,0,1-.19-.1,2.93,2.93,0,0,0-1.51-.58.23.23,0,1,1,.07-.46c.24,0,1.48.25,1.83.78a.23.23,0,0,1-.07.32A.2.2,0,0,1,250.55,62.15Z"/><path class="cls-2" d="M246.07,63.43a6.94,6.94,0,0,0,1.33-1.85"/><path class="cls-3" d="M246.07,63.66a.23.23,0,0,1-.17-.07.23.23,0,0,1,0-.33,6.87,6.87,0,0,0,1.27-1.78.24.24,0,0,1,.31-.12.23.23,0,0,1,.12.31,7.14,7.14,0,0,1-1.38,1.93A.23.23,0,0,1,246.07,63.66Z"/><path class="cls-2" d="M246.73,58.71a1.78,1.78,0,0,1,.67,1.43"/><path class="cls-3" d="M247.4,60.38h0a.24.24,0,0,1-.19-.27c.1-.63-.58-1.21-.59-1.22a.23.23,0,1,1,.3-.36,2,2,0,0,1,.75,1.65A.23.23,0,0,1,247.4,60.38Z"/><path class="cls-2" d="M244.74,58.16a3.63,3.63,0,0,0-1,.71"/><path class="cls-3" d="M243.72,59.1a.2.2,0,0,1-.16-.07.24.24,0,0,1,0-.33,3.72,3.72,0,0,1,1.09-.75.23.23,0,0,1,.31.12.24.24,0,0,1-.13.31,3.16,3.16,0,0,0-.94.65A.23.23,0,0,1,243.72,59.1Z"/><path class="cls-2" d="M247.22,57.59a5.58,5.58,0,0,0,.6-1"/><path class="cls-3" d="M247.22,57.82a.26.26,0,0,1-.15,0,.24.24,0,0,1,0-.33,5.78,5.78,0,0,0,.57-1,.24.24,0,1,1,.43.19,5.14,5.14,0,0,1-.63,1.06A.23.23,0,0,1,247.22,57.82Z"/><polyline class="cls-2" points="251.7 60.69 252.53 59.43 252.35 58.71"/><path class="cls-3" d="M251.7,60.93a.28.28,0,0,1-.13,0,.24.24,0,0,1-.07-.33l.78-1.17-.16-.62a.25.25,0,0,1,.17-.29.24.24,0,0,1,.29.17l.18.72a.22.22,0,0,1,0,.19l-.83,1.26A.24.24,0,0,1,251.7,60.93Z"/><path class="cls-3" d="M252.92,59.66h-.39a.23.23,0,0,1-.23-.23.23.23,0,0,1,.23-.24h.39a.24.24,0,0,1,.24.24A.23.23,0,0,1,252.92,59.66Z"/><path class="cls-2" d="M251.33,63a2,2,0,0,1,0,1.2"/><path class="cls-3" d="M251.33,64.45h-.07a.24.24,0,0,1-.15-.3,1.76,1.76,0,0,0,0-1,.23.23,0,1,1,.43-.17,2.17,2.17,0,0,1,0,1.35A.25.25,0,0,1,251.33,64.45Z"/><path class="cls-2" d="M250.76,65.33a3.73,3.73,0,0,1-.78,1"/><path class="cls-3" d="M250,66.61a.23.23,0,0,1-.17-.07.23.23,0,0,1,0-.33,3.67,3.67,0,0,0,.73-1,.23.23,0,0,1,.31-.12.22.22,0,0,1,.11.31,4.05,4.05,0,0,1-.83,1.12A.23.23,0,0,1,250,66.61Z"/><path class="cls-2" d="M246.73,65.23a2.4,2.4,0,0,0,1.29,1.3"/><path class="cls-3" d="M248,66.77l-.1,0a2.63,2.63,0,0,1-1.41-1.44.24.24,0,0,1,.15-.3.24.24,0,0,1,.3.16h0a2.17,2.17,0,0,0,1.16,1.16.24.24,0,0,1-.1.45Z"/><path class="cls-2" d="M244.5,64.21a1.78,1.78,0,0,1-.88.31"/><path class="cls-3" d="M243.62,64.76a.24.24,0,0,1,0-.47,1.46,1.46,0,0,0,.76-.27.25.25,0,0,1,.33,0,.24.24,0,0,1,0,.33,2.17,2.17,0,0,1-1,.36Z"/><path class="cls-5" d="M230,63.37a6.23,6.23,0,0,1-1.54,1c-.14.06-.31-.19-.45-.14s-.21.41-.34.45a6.17,6.17,0,0,1-4.86-.52c-.17-.09-.24-.44-.4-.55s-.4,0-.54-.1a7.27,7.27,0,0,1-.57-.54,6.16,6.16,0,0,1-1.61-4.48c0-.36.42-.57.5-.92s-.23-.61-.15-.85a6,6,0,0,1,1.63-2.44,5.9,5.9,0,0,1,1.6-1.07c.2-.09.46.14.66.07s.24-.41.41-.45a6.16,6.16,0,0,1,6,1.81c.11.12-.06.32.05.45s.5.24.61.4a6.13,6.13,0,0,1,.87,4.35c-.06.36.06.68-.07,1s-.4.53-.52.77A6.21,6.21,0,0,1,230,63.37Z"/><path class="cls-3" d="M225.8,65.31a6.45,6.45,0,0,1-3.18-.83,1,1,0,0,1-.34-.42s-.07-.14-.09-.16,0,0-.07,0a.69.69,0,0,1-.49-.13,8.08,8.08,0,0,1-.6-.57,6.44,6.44,0,0,1-1.7-4.71,1.18,1.18,0,0,1,.33-.67,1,1,0,0,0,.19-.29s0-.16-.07-.24a.91.91,0,0,1-.07-.65,6.57,6.57,0,0,1,1.7-2.58A6.71,6.71,0,0,1,223.1,53a.73.73,0,0,1,.57,0l.1,0,0-.08a.7.7,0,0,1,.4-.37,6.46,6.46,0,0,1,6.33,1.9.53.53,0,0,1,.1.49l.15.08a1,1,0,0,1,.44.32,6.41,6.41,0,0,1,.92,4.58,2.26,2.26,0,0,0,0,.37,1.74,1.74,0,0,1-.07.7,1.94,1.94,0,0,1-.34.52,1.68,1.68,0,0,0-.2.28,6.46,6.46,0,0,1-1.37,1.79,6.32,6.32,0,0,1-1.62,1.09.5.5,0,0,1-.47,0h0c-.08.14-.17.32-.36.37A6.36,6.36,0,0,1,225.8,65.31Zm-3.62-2a.61.61,0,0,1,.37.1,1,1,0,0,1,.29.39.74.74,0,0,0,.1.16,5.88,5.88,0,0,0,4.54.5.47.47,0,0,1,.05-.1.65.65,0,0,1,.33-.36.54.54,0,0,1,.5.1h0a5.56,5.56,0,0,0,1.37-.94h0A5.83,5.83,0,0,0,231,61.53a2.09,2.09,0,0,1,.27-.39,1.44,1.44,0,0,0,.24-.34,1.36,1.36,0,0,0,0-.46,1.8,1.8,0,0,1,0-.51,5.82,5.82,0,0,0-.84-4.13l-.19-.1a1.12,1.12,0,0,1-.4-.28.54.54,0,0,1-.08-.47h0a5.81,5.81,0,0,0-5.62-1.67.28.28,0,0,0-.06.09.72.72,0,0,1-.37.36.82.82,0,0,1-.52,0l-.14,0a6,6,0,0,0-1.49,1,5.62,5.62,0,0,0-1.55,2.32,1.61,1.61,0,0,0,.08.23,1.15,1.15,0,0,1,.09.58,1.33,1.33,0,0,1-.32.56c-.09.11-.18.22-.18.3a5.82,5.82,0,0,0,1.53,4.26,6.51,6.51,0,0,0,.54.51s0,0,.06,0Zm2.25-10.14Z"/><path class="cls-2" d="M226.71,59.66s.76,1.14.63,1.69"/><path class="cls-3" d="M227.34,61.58h-.06a.23.23,0,0,1-.17-.28,3,3,0,0,0-.6-1.5.24.24,0,0,1,.07-.33.23.23,0,0,1,.32.07c.14.2.82,1.26.67,1.87A.24.24,0,0,1,227.34,61.58Z"/><path class="cls-2" d="M223.19,59.07a7.08,7.08,0,0,0,2.26-.27"/><path class="cls-3" d="M223.47,59.31h-.29a.23.23,0,1,1,0-.46,6.82,6.82,0,0,0,2.18-.27.23.23,0,0,1,.29.15.23.23,0,0,1-.14.3A7,7,0,0,1,223.47,59.31Z"/><path class="cls-2" d="M227.11,56.37a1.79,1.79,0,0,1-.6,1.46"/><path class="cls-3" d="M226.51,58.06a.24.24,0,0,1-.2-.11.23.23,0,0,1,.07-.32c.53-.35.5-1.24.5-1.25a.24.24,0,0,1,.47,0,2,2,0,0,1-.71,1.67A.22.22,0,0,1,226.51,58.06Z"/><path class="cls-2" d="M226.17,54.53a3.37,3.37,0,0,0-1.21-.27"/><path class="cls-3" d="M226.16,54.76l-.09,0a3.61,3.61,0,0,0-1.12-.25.25.25,0,0,1-.23-.24A.26.26,0,0,1,225,54a3.72,3.72,0,0,1,1.29.29.23.23,0,0,1-.1.45Z"/><path class="cls-2" d="M228.26,56a5.23,5.23,0,0,0,1.16-.25"/><path class="cls-3" d="M228.26,56.2A.24.24,0,0,1,228,56a.23.23,0,0,1,.21-.25,4.8,4.8,0,0,0,1.1-.24.23.23,0,0,1,.3.15.24.24,0,0,1-.14.3,6.59,6.59,0,0,1-1.22.26Z"/><polyline class="cls-2" points="229.02 61.36 230.51 61.12 230.92 60.5"/><path class="cls-3" d="M229,61.6a.25.25,0,0,1-.24-.2.24.24,0,0,1,.2-.27l1.39-.23.35-.53a.23.23,0,0,1,.32-.07.24.24,0,0,1,.07.33l-.4.62a.27.27,0,0,1-.16.1l-1.5.24Z"/><line class="cls-2" x1="230.51" y1="61.12" x2="230.78" y2="61.41"/><path class="cls-3" d="M230.78,61.64a.24.24,0,0,1-.18-.07l-.26-.29a.23.23,0,1,1,.34-.32l.27.29a.24.24,0,0,1,0,.33A.27.27,0,0,1,230.78,61.64Z"/><path class="cls-2" d="M227.06,62.66a2,2,0,0,1-.88.82"/><path class="cls-3" d="M226.18,63.71a.23.23,0,0,1-.21-.14.23.23,0,0,1,.11-.31,1.74,1.74,0,0,0,.77-.7.25.25,0,0,1,.32-.11.24.24,0,0,1,.1.32,2.25,2.25,0,0,1-1,.92Z"/><path class="cls-2" d="M225,63.81a3.78,3.78,0,0,1-1.3.13"/><path class="cls-3" d="M223.93,64.19h-.28a.24.24,0,1,1,0-.47,3.73,3.73,0,0,0,1.21-.12.23.23,0,0,1,.3.15A.23.23,0,0,1,225,64,3.5,3.5,0,0,1,223.93,64.19Z"/><path class="cls-2" d="M222.32,60.78a2.39,2.39,0,0,0-.09,1.83"/><path class="cls-3" d="M222.23,62.84a.22.22,0,0,1-.22-.16,2.63,2.63,0,0,1,.1-2,.24.24,0,0,1,.32-.09.23.23,0,0,1,.09.32,2.18,2.18,0,0,0-.07,1.65.23.23,0,0,1-.15.29Z"/><path class="cls-2" d="M221.56,58.45a1.77,1.77,0,0,1-.83-.44"/><path class="cls-3" d="M221.56,58.68h-.05a2,2,0,0,1-.94-.5.23.23,0,0,1,0-.33.25.25,0,0,1,.33,0,1.58,1.58,0,0,0,.72.39.23.23,0,0,1,0,.46Z"/><g class="cls-7"><path class="cls-5" d="M269.28,101.68a6.3,6.3,0,0,1,1.85.13c.14,0,.13.34.27.38s.42-.18.54-.14a6.18,6.18,0,0,1,3.51,3.4c.08.18-.08.5,0,.69s.33.22.37.41a6.49,6.49,0,0,1,.11.77,6.12,6.12,0,0,1-1.49,4.53c-.23.26-.68.18-1,.4s-.19.64-.4.77a6.2,6.2,0,0,1-2.79.92,5.9,5.9,0,0,1-1.93-.15c-.2,0-.27-.39-.47-.46s-.44.17-.59.1a6.12,6.12,0,0,1-3.63-5.13c0-.17.24-.22.24-.38s-.25-.5-.24-.7a6.15,6.15,0,0,1,2-4c.26-.24.37-.56.68-.76a8.36,8.36,0,0,1,.89-.27A5.91,5.91,0,0,1,269.28,101.68Z"/><path class="cls-3" d="M273.75,102.72a6.49,6.49,0,0,1,2,2.61,1,1,0,0,1,0,.53c0,.06,0,.16,0,.19s0,0,.07,0a.7.7,0,0,1,.31.4,7.68,7.68,0,0,1,.11.82,6.4,6.4,0,0,1-1.56,4.75,1.18,1.18,0,0,1-.67.33.85.85,0,0,0-.33.12,1,1,0,0,0-.09.22.93.93,0,0,1-.35.56,6.46,6.46,0,0,1-2.93,1,6.53,6.53,0,0,1-2-.16.73.73,0,0,1-.43-.37l-.06-.09-.09,0a.71.71,0,0,1-.54,0,6.49,6.49,0,0,1-3.82-5.4.56.56,0,0,1,.23-.45l-.07-.15a1,1,0,0,1-.15-.53,6.44,6.44,0,0,1,2.1-4.17,1.73,1.73,0,0,0,.23-.29,1.78,1.78,0,0,1,.49-.5,1.72,1.72,0,0,1,.59-.2,1.75,1.75,0,0,0,.34-.1,6.49,6.49,0,0,1,2.18-.56,6.33,6.33,0,0,1,1.94.13.52.52,0,0,1,.34.34h0a.65.65,0,0,1,.51-.08A6.32,6.32,0,0,1,273.75,102.72Zm1.6,3.82a.76.76,0,0,1-.23-.31,1.1,1.1,0,0,1,0-.48.89.89,0,0,0,0-.19,5.88,5.88,0,0,0-3.27-3.19l-.1,0a.69.69,0,0,1-.49.08.57.57,0,0,1-.33-.38v0a6.23,6.23,0,0,0-1.67-.1h0a6,6,0,0,0-2,.51,3.09,3.09,0,0,1-.46.14,1.5,1.5,0,0,0-.39.12,1.16,1.16,0,0,0-.32.34,3.45,3.45,0,0,1-.32.39,5.75,5.75,0,0,0-1.89,3.76,1.16,1.16,0,0,0,.08.2,1.13,1.13,0,0,1,.15.47.55.55,0,0,1-.23.42h0a5.87,5.87,0,0,0,3.4,4.78l.11,0A.78.78,0,0,1,268,113a.83.83,0,0,1,.38.36.59.59,0,0,0,.09.11,5.9,5.9,0,0,0,1.79.13,5.64,5.64,0,0,0,2.65-.88,1.9,1.9,0,0,0,.09-.22,1.06,1.06,0,0,1,.28-.52,1.34,1.34,0,0,1,.59-.24.64.64,0,0,0,.34-.13,5.8,5.8,0,0,0,1.41-4.29,6.29,6.29,0,0,0-.11-.74s0,0-.06,0Zm-8,6.59Z"/><path class="cls-2" d="M269.55,106.6s.1-1.36.54-1.71"/><path class="cls-3" d="M270.24,104.7l0,0a.24.24,0,0,1,0,.33,3,3,0,0,0-.46,1.55.23.23,0,1,1-.46,0c0-.25.13-1.49.63-1.89A.24.24,0,0,1,270.24,104.7Z"/><path class="cls-2" d="M272,109.24a7,7,0,0,0-1.95-1.18"/><path class="cls-3" d="M271.88,108.87l.23.19a.23.23,0,0,1,0,.33.22.22,0,0,1-.33,0,6.8,6.8,0,0,0-1.87-1.13.23.23,0,0,1-.14-.3.22.22,0,0,1,.29-.14A6.53,6.53,0,0,1,271.88,108.87Z"/><path class="cls-2" d="M267.2,109a1.79,1.79,0,0,1,1.38-.78"/><path class="cls-3" d="M268.72,108a.21.21,0,0,1,.09.2.24.24,0,0,1-.25.22c-.64-.06-1.16.66-1.17.67a.23.23,0,0,1-.32.06.22.22,0,0,1-.06-.33,2,2,0,0,1,1.59-.87A.18.18,0,0,1,268.72,108Z"/><path class="cls-2" d="M266.81,111a3.74,3.74,0,0,0,.79,1"/><path class="cls-3" d="M267,110.79a.24.24,0,0,1,.06.08,3.19,3.19,0,0,0,.73.89.23.23,0,0,1,0,.33.25.25,0,0,1-.33,0,4.27,4.27,0,0,1-.84-1,.25.25,0,0,1,.11-.32A.25.25,0,0,1,267,110.79Z"/><path class="cls-2" d="M266.05,108.56A5.2,5.2,0,0,0,265,108"/><path class="cls-3" d="M266.19,108.37a.22.22,0,0,1,.05.31.23.23,0,0,1-.32.07,5.61,5.61,0,0,0-1-.49.23.23,0,1,1,.15-.44,5.08,5.08,0,0,1,1.11.54Z"/><polyline class="cls-2" points="268.78 103.84 267.45 103.11 266.75 103.35"/><path class="cls-3" d="M268.93,103.66a.23.23,0,0,1,.06.29.24.24,0,0,1-.32.1l-1.24-.69-.6.21a.23.23,0,0,1-.3-.15.23.23,0,0,1,.15-.29l.7-.24a.25.25,0,0,1,.19,0l1.32.73Z"/><line class="cls-2" x1="267.45" y1="103.11" x2="267.42" y2="102.72"/><path class="cls-3" d="M267.57,102.53a.26.26,0,0,1,.09.17l0,.39a.24.24,0,0,1-.47,0l0-.39a.24.24,0,0,1,.22-.25A.23.23,0,0,1,267.57,102.53Z"/><path class="cls-2" d="M271.12,104a2,2,0,0,1,1.2-.1"/><path class="cls-3" d="M272.46,103.74a.24.24,0,0,1,.09.24.24.24,0,0,1-.28.17,1.84,1.84,0,0,0-1,.08.23.23,0,0,1-.31-.11.24.24,0,0,1,.11-.31,2.17,2.17,0,0,1,1.35-.11A.13.13,0,0,1,272.46,103.74Z"/><path class="cls-2" d="M273.48,104.41a3.68,3.68,0,0,1,1.1.69"/><path class="cls-3" d="M274.53,104.75a1.68,1.68,0,0,1,.21.18.24.24,0,0,1,0,.33.23.23,0,0,1-.33,0,3.53,3.53,0,0,0-1-.65.24.24,0,0,1-.14-.3.23.23,0,0,1,.3-.14A3.43,3.43,0,0,1,274.53,104.75Z"/><path class="cls-2" d="M273.7,108.43a2.4,2.4,0,0,0,1.19-1.39"/><path class="cls-3" d="M275,106.86a.22.22,0,0,1,.07.26,2.62,2.62,0,0,1-1.33,1.53.23.23,0,0,1-.3-.13.24.24,0,0,1,.13-.31,2.15,2.15,0,0,0,1.06-1.25.25.25,0,0,1,.31-.14Z"/><path class="cls-2" d="M272.86,110.73a1.82,1.82,0,0,1,.38.86"/><path class="cls-3" d="M273,110.55l0,0a2,2,0,0,1,.43,1,.22.22,0,0,1-.19.27.24.24,0,0,1-.27-.19,1.66,1.66,0,0,0-.32-.74.23.23,0,0,1,.32-.34Z"/></g><g class="cls-6"><path class="cls-2" d="M246,74.17A6.49,6.49,0,0,1,243.86,79c-.1.09-.35-.07-.45,0s0,.38-.14.45a6.46,6.46,0,0,1-3.75,1.19,6.2,6.2,0,0,1-1.62-.21c-.1,0-.05-.28-.15-.31s-.41.14-.53.1a6.48,6.48,0,0,1-4.14-5.31c0-.25.19-.32.19-.58s-.22-.64-.2-.86a6.48,6.48,0,0,1,5.44-5.73c.13,0,.35.22.49.2s.32-.28.52-.28a6.49,6.49,0,0,1,6.17,4.45c.06.17-.24.4-.2.58s.42.26.44.42A5.92,5.92,0,0,1,246,74.17Z"/><path class="cls-3" d="M239.52,81a6.94,6.94,0,0,1-1.7-.21.39.39,0,0,1-.27-.26.6.6,0,0,1-.44,0A6.75,6.75,0,0,1,232.77,75a.73.73,0,0,1,.13-.5c0-.07.06-.09.06-.12a1.21,1.21,0,0,0-.09-.3,1.61,1.61,0,0,1-.11-.59,6.79,6.79,0,0,1,5.7-6,.69.69,0,0,1,.47.14l.06,0,.06,0a.74.74,0,0,1,.47-.22A6.81,6.81,0,0,1,246,72a.67.67,0,0,1-.13.55l0,0,0,0a.66.66,0,0,1,.36.43,6.5,6.5,0,0,1,.09,1.09,6.83,6.83,0,0,1-2.26,5.06.49.49,0,0,1-.42.1.52.52,0,0,1-.2.39A6.73,6.73,0,0,1,239.52,81Zm-1.4-.78a6.28,6.28,0,0,0,4.91-.93v-.05a.66.66,0,0,1,.18-.44.58.58,0,0,1,.48-.07h0a6.21,6.21,0,0,0,2-4.54,5.86,5.86,0,0,0-.07-.94l-.09-.06a.56.56,0,0,1-.21-.91l0-.09A6.16,6.16,0,0,0,239.52,68s0,0-.06.07a.73.73,0,0,1-.43.21.67.67,0,0,1-.44-.15l-.08-.05a6.19,6.19,0,0,0-5.13,5.45,1.38,1.38,0,0,0,.09.33,1.88,1.88,0,0,1,.11.5.76.76,0,0,1-.15.45c0,.08,0,.08,0,.1a6.17,6.17,0,0,0,3.89,5l.11,0a.72.72,0,0,1,.46,0A.41.41,0,0,1,238.12,80.19Zm-.86-.26Zm1.3-11.86Z"/><path class="cls-3" d="M236.92,73.59a.15.15,0,0,1-.09,0,.23.23,0,0,1-.13-.3,6.89,6.89,0,0,1,1.87-2.18.24.24,0,0,1,.29.37,6.73,6.73,0,0,0-1.73,2A.22.22,0,0,1,236.92,73.59Z"/><path class="cls-3" d="M238.43,77a.3.3,0,0,1-.15-.05,9.75,9.75,0,0,1-1.56-2,.24.24,0,0,1,.08-.33.24.24,0,0,1,.32.08,9.09,9.09,0,0,0,1.46,1.87.24.24,0,0,1,0,.33A.21.21,0,0,1,238.43,77Z"/><path class="cls-3" d="M239.54,77.24a.23.23,0,0,1-.23-.21.23.23,0,0,1,.21-.25,7.26,7.26,0,0,0,2.15-.52.23.23,0,0,1,.32.08.23.23,0,0,1-.07.32,7.78,7.78,0,0,1-2.35.58Z"/><path class="cls-3" d="M242.65,76h-.08a.24.24,0,0,1-.14-.3,12.44,12.44,0,0,0,.54-2.12.23.23,0,1,1,.46.08,13.26,13.26,0,0,1-.56,2.2A.22.22,0,0,1,242.65,76Z"/><path class="cls-3" d="M242.65,72.37a.2.2,0,0,1-.16-.07,7.55,7.55,0,0,0-2.31-1.51.23.23,0,1,1,.16-.44A7.74,7.74,0,0,1,242.82,72a.24.24,0,0,1-.17.4Z"/><path class="cls-3" d="M239.21,70.36a.23.23,0,0,1-.23-.2l-.18-1.33a.22.22,0,0,1,.2-.26.23.23,0,0,1,.26.2l.18,1.33a.23.23,0,0,1-.2.26Z"/><path class="cls-3" d="M235.82,74.82h-1.27a.24.24,0,1,1,0-.47h1.27a.24.24,0,1,1,0,.47Z"/><path class="cls-3" d="M238.3,79.28l-.1,0a.24.24,0,0,1-.11-.32l.52-1.12a.23.23,0,0,1,.42.2l-.52,1.12A.23.23,0,0,1,238.3,79.28Z"/><path class="cls-3" d="M243.2,78.5a.23.23,0,0,1-.21-.14l-.55-1.12a.24.24,0,0,1,.11-.31.22.22,0,0,1,.31.11l.55,1.12a.23.23,0,0,1-.11.31A.17.17,0,0,1,243.2,78.5Z"/><path class="cls-3" d="M244.76,73.1h-1a.24.24,0,0,1-.24-.24.23.23,0,0,1,.24-.23h1a.23.23,0,0,1,.24.23A.24.24,0,0,1,244.76,73.1Z"/></g><g class="cls-8"><path class="cls-2" d="M252,80.5a6.5,6.5,0,0,1-2.15,4.83c-.1.08-.35-.07-.45,0s0,.39-.14.46A6.46,6.46,0,0,1,245.5,87a6.66,6.66,0,0,1-1.62-.21c-.11,0,0-.28-.15-.32s-.41.15-.53.11a6.5,6.5,0,0,1-4.14-5.31c0-.25.19-.32.19-.58s-.23-.64-.2-.86a6.5,6.5,0,0,1,5.43-5.74c.14,0,.36.22.5.21s.32-.29.52-.29a6.51,6.51,0,0,1,6.17,4.45c.05.18-.24.41-.2.59s.41.25.44.41A7.2,7.2,0,0,1,252,80.5Z"/><path class="cls-3" d="M245.5,87.3a6.45,6.45,0,0,1-1.7-.22.38.38,0,0,1-.27-.25.66.66,0,0,1-.44,0,6.81,6.81,0,0,1-4.35-5.56.73.73,0,0,1,.14-.5c0-.07.05-.09.05-.12a2,2,0,0,0-.08-.31,1.54,1.54,0,0,1-.12-.58,6.81,6.81,0,0,1,5.71-6,.71.71,0,0,1,.46.15l.07,0,.06,0a.7.7,0,0,1,.47-.22A6.79,6.79,0,0,1,252,78.36a.63.63,0,0,1-.12.55l0,0,.05,0a.71.71,0,0,1,.36.43,6.71,6.71,0,0,1,.09,1.1,6.84,6.84,0,0,1-2.26,5.06.51.51,0,0,0-.62.49A6.73,6.73,0,0,1,245.5,87.3Zm-1.4-.79a6.21,6.21,0,0,0,4.9-.92v-.06a.48.48,0,0,1,.66-.5h0a6.14,6.14,0,0,0,2-4.53,5.86,5.86,0,0,0-.07-.94l-.09-.06a.65.65,0,0,1-.35-.39.68.68,0,0,1,.13-.52.41.41,0,0,0,0-.09,6.17,6.17,0,0,0-5.85-4.18s0,0-.06.06a.77.77,0,0,1-.43.22.65.65,0,0,1-.44-.15l-.09,0a6.17,6.17,0,0,0-5.12,5.45,1.24,1.24,0,0,0,.08.32,1.64,1.64,0,0,1,.12.51.79.79,0,0,1-.15.45c0,.07,0,.08,0,.09a6.12,6.12,0,0,0,3.89,5l.1,0a.72.72,0,0,1,.46,0A.41.41,0,0,1,244.1,86.51Zm-.86-.25Zm1.29-11.87Z"/><path class="cls-3" d="M242.89,79.92a.15.15,0,0,1-.09,0,.23.23,0,0,1-.12-.3,6.77,6.77,0,0,1,1.87-2.18.24.24,0,0,1,.29.37,6.44,6.44,0,0,0-1.73,2A.23.23,0,0,1,242.89,79.92Z"/><path class="cls-3" d="M244.41,83.34a.2.2,0,0,1-.15-.06,9.74,9.74,0,0,1-1.57-2,.24.24,0,0,1,.08-.32.24.24,0,0,1,.33.08,9.19,9.19,0,0,0,1.45,1.87.24.24,0,0,1,0,.33A.23.23,0,0,1,244.41,83.34Z"/><path class="cls-3" d="M245.52,83.57a.25.25,0,0,1-.24-.21.24.24,0,0,1,.21-.26,7.17,7.17,0,0,0,2.15-.51.24.24,0,0,1,.33.07.25.25,0,0,1-.07.33,7.83,7.83,0,0,1-2.36.58Z"/><path class="cls-3" d="M248.63,82.37h-.08a.24.24,0,0,1-.14-.3,15.55,15.55,0,0,0,.54-2.13.24.24,0,0,1,.27-.19.24.24,0,0,1,.19.27,14.87,14.87,0,0,1-.56,2.21A.23.23,0,0,1,248.63,82.37Z"/><path class="cls-3" d="M248.63,78.7a.28.28,0,0,1-.17-.07,7.45,7.45,0,0,0-2.3-1.51.24.24,0,0,1-.15-.3.23.23,0,0,1,.3-.14,7.7,7.7,0,0,1,2.48,1.61.24.24,0,0,1,0,.34A.28.28,0,0,1,248.63,78.7Z"/><path class="cls-3" d="M245.19,76.69a.23.23,0,0,1-.23-.2l-.19-1.33a.25.25,0,0,1,.2-.27.24.24,0,0,1,.27.2l.18,1.33a.24.24,0,0,1-.2.27Z"/><path class="cls-3" d="M241.8,81.15h-1.28a.23.23,0,0,1-.23-.24.23.23,0,0,1,.23-.23h1.28a.23.23,0,0,1,.23.23A.23.23,0,0,1,241.8,81.15Z"/><path class="cls-3" d="M244.28,85.6a.16.16,0,0,1-.1,0,.23.23,0,0,1-.12-.31l.53-1.12a.22.22,0,0,1,.31-.11.24.24,0,0,1,.11.31l-.52,1.12A.24.24,0,0,1,244.28,85.6Z"/><path class="cls-3" d="M249.18,84.82a.23.23,0,0,1-.21-.13l-.55-1.12a.22.22,0,0,1,.11-.31.23.23,0,0,1,.31.1l.55,1.13a.24.24,0,0,1-.11.31A.18.18,0,0,1,249.18,84.82Z"/><path class="cls-3" d="M250.74,79.43h-1a.23.23,0,0,1-.23-.24.23.23,0,0,1,.23-.23h1a.23.23,0,0,1,.24.23A.24.24,0,0,1,250.74,79.43Z"/></g><path class="cls-5" d="M253.32,71.19a6,6,0,0,1,1.85.14c.14,0,.12.34.26.38s.42-.19.55-.14a6.17,6.17,0,0,1,3.51,3.4c.07.18-.09.5,0,.68s.33.23.37.41a6.66,6.66,0,0,1,.11.78,6.18,6.18,0,0,1-1.49,4.52c-.23.27-.69.19-1,.41s-.2.63-.41.76a6,6,0,0,1-2.79.93,6.12,6.12,0,0,1-1.92-.15c-.21,0-.27-.4-.47-.47s-.45.18-.6.11a6.16,6.16,0,0,1-3.63-5.13c0-.17.24-.22.24-.39s-.25-.5-.23-.69a6.16,6.16,0,0,1,2-4c.27-.24.38-.57.69-.76a8.21,8.21,0,0,1,.88-.28A6.26,6.26,0,0,1,253.32,71.19Z"/><path class="cls-3" d="M257.79,72.23a6.52,6.52,0,0,1,2,2.62,1,1,0,0,1,0,.53.74.74,0,0,0,0,.19s0,0,.06,0a.6.6,0,0,1,.31.4,5.66,5.66,0,0,1,.12.81,6.41,6.41,0,0,1-1.57,4.76,1.15,1.15,0,0,1-.66.33,1,1,0,0,0-.33.11.85.85,0,0,0-.09.23,1,1,0,0,1-.35.56,6.54,6.54,0,0,1-4.95.82.79.79,0,0,1-.44-.37.28.28,0,0,0-.06-.09l-.08,0a.72.72,0,0,1-.54,0,6.48,6.48,0,0,1-3.82-5.4.55.55,0,0,1,.22-.45.41.41,0,0,0-.07-.15,1.08,1.08,0,0,1-.14-.53,6.43,6.43,0,0,1,2.09-4.17,1.76,1.76,0,0,0,.24-.29,1.8,1.8,0,0,1,.49-.51,2.16,2.16,0,0,1,.59-.2l.33-.09a6.34,6.34,0,0,1,2.18-.57,6.71,6.71,0,0,1,2,.14.51.51,0,0,1,.34.33h0a.68.68,0,0,1,.51-.07A6.45,6.45,0,0,1,257.79,72.23Zm1.6,3.82a.63.63,0,0,1-.23-.31,1,1,0,0,1,0-.48c0-.06,0-.16,0-.19a6,6,0,0,0-3.27-3.19l-.1.05a.75.75,0,0,1-.49.08.56.56,0,0,1-.33-.39h0a5.76,5.76,0,0,0-1.66-.1h0a5.63,5.63,0,0,0-2,.51,2,2,0,0,1-.45.13,1.94,1.94,0,0,0-.4.12,1.19,1.19,0,0,0-.31.35,2.24,2.24,0,0,1-.33.38A5.84,5.84,0,0,0,248,76.77l.09.19a1.18,1.18,0,0,1,.15.47.56.56,0,0,1-.23.43h0a5.83,5.83,0,0,0,3.4,4.78l.11,0a.66.66,0,0,1,.5-.06.8.8,0,0,1,.39.35.62.62,0,0,0,.08.12,6,6,0,0,0,1.8.13,5.83,5.83,0,0,0,2.65-.88A1,1,0,0,0,257,82a1,1,0,0,1,.29-.51,1.34,1.34,0,0,1,.59-.24.74.74,0,0,0,.33-.13,5.83,5.83,0,0,0,1.42-4.3,6.13,6.13,0,0,0-.11-.73s0,0-.06,0Zm-8,6.6Z"/><path class="cls-2" d="M253.59,76.12s.1-1.37.54-1.72"/><path class="cls-3" d="M254.27,74.22a.08.08,0,0,1,0,0,.24.24,0,0,1,0,.33,2.94,2.94,0,0,0-.46,1.55.23.23,0,0,1-.25.21.24.24,0,0,1-.22-.25c0-.24.14-1.49.64-1.88A.21.21,0,0,1,254.27,74.22Z"/><path class="cls-2" d="M256,78.75a7,7,0,0,0-2-1.18"/><path class="cls-3" d="M255.92,78.39a1.87,1.87,0,0,1,.23.19.23.23,0,0,1,0,.33.24.24,0,0,1-.33,0A6.93,6.93,0,0,0,254,77.79a.23.23,0,0,1-.14-.3.24.24,0,0,1,.3-.14A7,7,0,0,1,255.92,78.39Z"/><path class="cls-2" d="M251.24,78.46a1.76,1.76,0,0,1,1.37-.77"/><path class="cls-3" d="M252.76,77.5a.27.27,0,0,1,.09.21.24.24,0,0,1-.26.21c-.63,0-1.16.67-1.16.68a.25.25,0,0,1-.33.06.24.24,0,0,1-.06-.33,2,2,0,0,1,1.59-.88Z"/><path class="cls-2" d="M250.85,80.5a3.45,3.45,0,0,0,.78,1"/><path class="cls-3" d="M251,80.31a.27.27,0,0,1,.07.08,3.3,3.3,0,0,0,.72.88.23.23,0,0,1,0,.33.24.24,0,0,1-.33,0,3.76,3.76,0,0,1-.84-1,.23.23,0,0,1,.1-.31A.22.22,0,0,1,251,80.31Z"/><path class="cls-2" d="M250.08,78.07a5.57,5.57,0,0,0-1.06-.52"/><path class="cls-3" d="M250.23,77.89a.23.23,0,0,1,.05.31.24.24,0,0,1-.33.07,4.72,4.72,0,0,0-1-.49.23.23,0,0,1-.15-.3.24.24,0,0,1,.3-.15,5.15,5.15,0,0,1,1.11.55Z"/><polyline class="cls-2" points="252.82 73.36 251.49 72.63 250.79 72.86"/><path class="cls-3" d="M253,73.17a.23.23,0,0,1,.06.3.24.24,0,0,1-.32.09l-1.23-.68-.6.21a.24.24,0,0,1-.3-.15.23.23,0,0,1,.15-.3l.7-.24a.22.22,0,0,1,.18,0l1.33.73Z"/><line class="cls-2" x1="251.49" y1="72.62" x2="251.46" y2="72.24"/><path class="cls-3" d="M251.6,72.05a.22.22,0,0,1,.09.17l0,.39a.24.24,0,1,1-.47,0l0-.39a.23.23,0,0,1,.21-.25A.28.28,0,0,1,251.6,72.05Z"/><path class="cls-2" d="M255.16,73.54a1.93,1.93,0,0,1,1.2-.1"/><path class="cls-3" d="M256.5,73.26a.2.2,0,0,1,.08.23.23.23,0,0,1-.28.18,1.71,1.71,0,0,0-1,.08.24.24,0,0,1-.31-.11.24.24,0,0,1,.11-.32,2.24,2.24,0,0,1,1.35-.11Z"/><path class="cls-2" d="M257.52,73.92a3.86,3.86,0,0,1,1.1.7"/><path class="cls-3" d="M258.56,74.27l.22.17a.25.25,0,0,1,0,.34.24.24,0,0,1-.33,0,4,4,0,0,0-1-.65.23.23,0,0,1-.14-.3.24.24,0,0,1,.3-.14A3.85,3.85,0,0,1,258.56,74.27Z"/><path class="cls-2" d="M257.73,78a2.39,2.39,0,0,0,1.2-1.39"/><path class="cls-3" d="M259.08,76.37a.24.24,0,0,1,.07.27,2.58,2.58,0,0,1-1.33,1.52.22.22,0,0,1-.3-.13.23.23,0,0,1,.13-.3,2.2,2.2,0,0,0,1.06-1.26.23.23,0,0,1,.3-.13Z"/><path class="cls-2" d="M256.9,80.25a1.94,1.94,0,0,1,.38.86"/><path class="cls-3" d="M257,80.06l0,0a2.13,2.13,0,0,1,.44,1,.23.23,0,1,1-.46.08,1.63,1.63,0,0,0-.33-.75.25.25,0,0,1,0-.33A.26.26,0,0,1,257,80.06Z"/><g class="cls-8"><path class="cls-5" d="M255.7,76.2a6,6,0,0,1,1.85.14c.14,0,.12.34.26.38s.42-.19.55-.14a6.17,6.17,0,0,1,3.51,3.4c.07.18-.09.5,0,.68s.33.23.37.41a7,7,0,0,1,.11.78,6.18,6.18,0,0,1-1.49,4.52c-.23.27-.69.19-1,.41s-.2.63-.41.77a6.18,6.18,0,0,1-4.71.77c-.21,0-.27-.4-.47-.47s-.45.18-.6.11a6.16,6.16,0,0,1-3.63-5.13c0-.17.24-.22.24-.39s-.25-.5-.23-.69a6.16,6.16,0,0,1,2-4c.27-.24.38-.57.69-.76a8.21,8.21,0,0,1,.88-.28A6.26,6.26,0,0,1,255.7,76.2Z"/><path class="cls-3" d="M260.17,77.24a6.52,6.52,0,0,1,2,2.62.87.87,0,0,1,0,.53,1.54,1.54,0,0,0,0,.19s0,0,.06,0a.63.63,0,0,1,.31.4,5.66,5.66,0,0,1,.12.81,6.41,6.41,0,0,1-1.57,4.76,1.15,1.15,0,0,1-.66.33,1,1,0,0,0-.33.11.85.85,0,0,0-.09.23,1,1,0,0,1-.35.56,6.49,6.49,0,0,1-2.93,1,6.59,6.59,0,0,1-2-.15.8.8,0,0,1-.43-.37.47.47,0,0,0-.06-.09l-.08,0a.72.72,0,0,1-.54,0,6.48,6.48,0,0,1-3.82-5.4.53.53,0,0,1,.22-.45.41.41,0,0,0-.07-.15,1.08,1.08,0,0,1-.14-.53,6.43,6.43,0,0,1,2.09-4.17,1.76,1.76,0,0,0,.24-.29,1.8,1.8,0,0,1,.49-.51,2.16,2.16,0,0,1,.59-.2l.33-.09a6.34,6.34,0,0,1,2.18-.57,6.71,6.71,0,0,1,2,.14.47.47,0,0,1,.33.33h0a.68.68,0,0,1,.51-.07A6.74,6.74,0,0,1,260.17,77.24Zm1.6,3.82a.63.63,0,0,1-.23-.31,1,1,0,0,1,0-.48.68.68,0,0,0,0-.19,5.89,5.89,0,0,0-3.27-3.19l-.09,0a.75.75,0,0,1-.49.08.56.56,0,0,1-.33-.39h0a5.76,5.76,0,0,0-1.66-.1h0a5.63,5.63,0,0,0-2,.51,2,2,0,0,1-.45.13,1.94,1.94,0,0,0-.4.12,1.34,1.34,0,0,0-.31.35,2.24,2.24,0,0,1-.33.38,5.84,5.84,0,0,0-1.89,3.77l.09.19a1,1,0,0,1,.14.48.52.52,0,0,1-.22.42h0a5.83,5.83,0,0,0,3.4,4.78l.11,0a.66.66,0,0,1,.5-.06.8.8,0,0,1,.39.35.62.62,0,0,0,.08.12,6,6,0,0,0,1.8.13,5.83,5.83,0,0,0,2.65-.88,1.86,1.86,0,0,0,.08-.23,1,1,0,0,1,.29-.51,1.34,1.34,0,0,1,.59-.24.8.8,0,0,0,.33-.13,5.81,5.81,0,0,0,1.42-4.3,6.13,6.13,0,0,0-.11-.73s0,0-.06,0Zm-8,6.6Z"/><path class="cls-2" d="M256,81.13s.1-1.37.54-1.72"/><path class="cls-3" d="M256.65,79.23a.08.08,0,0,1,0,0,.23.23,0,0,1,0,.33,3,3,0,0,0-.45,1.55.23.23,0,0,1-.25.21.24.24,0,0,1-.22-.25c0-.24.14-1.49.63-1.88A.23.23,0,0,1,256.65,79.23Z"/><path class="cls-2" d="M258.37,83.76a7,7,0,0,0-1.95-1.18"/><path class="cls-3" d="M258.3,83.4l.23.19a.25.25,0,0,1,0,.33.24.24,0,0,1-.33,0,6.93,6.93,0,0,0-1.88-1.14.23.23,0,0,1-.14-.29.23.23,0,0,1,.3-.15A7,7,0,0,1,258.3,83.4Z"/><path class="cls-2" d="M253.62,83.47A1.76,1.76,0,0,1,255,82.7"/><path class="cls-3" d="M255.14,82.51a.27.27,0,0,1,.09.21.24.24,0,0,1-.26.21c-.63-.05-1.16.67-1.16.68a.25.25,0,0,1-.33.06.24.24,0,0,1-.06-.33,2,2,0,0,1,1.59-.88Z"/><path class="cls-2" d="M253.23,85.51a3.45,3.45,0,0,0,.78.95"/><path class="cls-3" d="M253.37,85.32a.27.27,0,0,1,.07.08,3.3,3.3,0,0,0,.72.88.25.25,0,0,1,0,.34.25.25,0,0,1-.33,0,3.61,3.61,0,0,1-.84-1,.23.23,0,0,1,.1-.31A.23.23,0,0,1,253.37,85.32Z"/><path class="cls-2" d="M252.46,83.08a5.56,5.56,0,0,0-1.06-.51"/><path class="cls-3" d="M252.61,82.9a.24.24,0,0,1,0,.31.24.24,0,0,1-.33.07,5.24,5.24,0,0,0-1-.49.24.24,0,0,1-.14-.3.23.23,0,0,1,.29-.15,5.08,5.08,0,0,1,1.12.55Z"/><polyline class="cls-2" points="255.2 78.37 253.87 77.64 253.17 77.87"/><path class="cls-3" d="M255.34,78.18a.23.23,0,0,1,.06.3.24.24,0,0,1-.32.09l-1.23-.68-.6.21A.24.24,0,0,1,253,78a.23.23,0,0,1,.15-.3l.7-.24a.22.22,0,0,1,.18,0l1.33.73Z"/><line class="cls-2" x1="253.87" y1="77.64" x2="253.84" y2="77.25"/><path class="cls-3" d="M254,77.06a.22.22,0,0,1,.09.17l0,.39a.23.23,0,0,1-.21.25.24.24,0,0,1-.25-.22l0-.39a.23.23,0,0,1,.21-.25A.28.28,0,0,1,254,77.06Z"/><path class="cls-2" d="M257.54,78.55a1.91,1.91,0,0,1,1.19-.1"/><path class="cls-3" d="M258.88,78.27a.22.22,0,0,1,.08.23.23.23,0,0,1-.28.18,1.8,1.8,0,0,0-1,.08.24.24,0,0,1-.31-.11.24.24,0,0,1,.11-.32,2.24,2.24,0,0,1,1.35-.11Z"/><path class="cls-2" d="M259.9,78.93a3.86,3.86,0,0,1,1.1.7"/><path class="cls-3" d="M260.94,79.28l.22.18a.23.23,0,0,1,0,.33.25.25,0,0,1-.33,0,3.92,3.92,0,0,0-1-.66.23.23,0,0,1-.14-.3.23.23,0,0,1,.3-.14A4.05,4.05,0,0,1,260.94,79.28Z"/><path class="cls-2" d="M260.11,83a2.39,2.39,0,0,0,1.2-1.39"/><path class="cls-3" d="M261.45,81.38a.23.23,0,0,1,.08.27,2.58,2.58,0,0,1-1.33,1.52.22.22,0,0,1-.3-.13.23.23,0,0,1,.13-.3,2.15,2.15,0,0,0,1.06-1.26.23.23,0,0,1,.3-.13Z"/><path class="cls-2" d="M259.28,85.26a1.94,1.94,0,0,1,.38.86"/><path class="cls-3" d="M259.42,85.07l0,0a2.25,2.25,0,0,1,.44,1,.24.24,0,0,1-.19.27.23.23,0,0,1-.27-.19,1.61,1.61,0,0,0-.33-.74.26.26,0,0,1,0-.34A.26.26,0,0,1,259.42,85.07Z"/></g></svg>