<svg id="レイヤー_1" data-name="レイヤー 1" xmlns="http://www.w3.org/2000/svg" viewBox="0 0 189.98 190"><defs><style>.cls-1{opacity:0.5;}.cls-10,.cls-11,.cls-2{fill:none;}.cls-2{stroke:#898989;stroke-width:21px;}.cls-11,.cls-12,.cls-14,.cls-17,.cls-2,.cls-22,.cls-3,.cls-4,.cls-8{stroke-miterlimit:10;}.cls-22,.cls-3{fill:#f5dcbe;}.cls-10,.cls-11,.cls-12,.cls-13,.cls-14,.cls-15,.cls-17,.cls-18,.cls-21,.cls-22,.cls-3,.cls-4,.cls-5,.cls-6,.cls-7,.cls-8,.cls-9{stroke:#40220f;}.cls-19,.cls-4{fill:#fff;}.cls-5{fill:#c9caca;}.cls-10,.cls-13,.cls-15,.cls-18,.cls-21,.cls-22,.cls-5,.cls-6,.cls-7,.cls-9{stroke-linecap:round;}.cls-10,.cls-13,.cls-15,.cls-18,.cls-21,.cls-5,.cls-6,.cls-7,.cls-9{stroke-linejoin:round;}.cls-6{fill:#7a6a56;}.cls-7{fill:#036eb8;}.cls-15,.cls-8{fill:#d3edf9;}.cls-14,.cls-9{fill:#2ea7e0;}.cls-12,.cls-13{fill:#9fa0a0;}.cls-16{fill:#bd8c3d;}.cls-17{fill:#9ec057;}.cls-18{fill:#006934;}.cls-19{writing-mode:tb;text-orientation:upright;glyph-orientation-vertical:0deg;font-size:18.39px;font-family:Honoka-Maru-Gothic, Honoka Maru-Gothic;}.cls-20{fill:#40220f;}.cls-21{fill:#6a3906;}</style></defs><title>07.水分補給2</title><g class="cls-1"><line class="cls-2" x1="29.91" y1="28.73" x2="149.63" y2="148.45"/><line class="cls-2" x1="29.91" y1="148.45" x2="149.63" y2="28.73"/></g><path class="cls-3" d="M85.33,174.62a3.89,3.89,0,0,1-.68-.05,4.5,4.5,0,0,1-3.78-5.12c3.63-24,0-47.4,0-47.63a4.5,4.5,0,0,1,8.89-1.4c.16,1,3.83,25,0,50.38A4.49,4.49,0,0,1,85.33,174.62Z"/><path class="cls-4" d="M85.33,174.62a5.17,5.17,0,0,1-.68,0c-2.46-.32-4.15-2.31-3.78-4.44a111.68,111.68,0,0,0,1.54-15.22c3.71,1.9,6.5,1.9,9,0a120.7,120.7,0,0,1-1.65,16.38A4.34,4.34,0,0,1,85.33,174.62Z"/><path class="cls-5" d="M71.88,175c.6,2.5,3.55,4.46,7.82,5s6.12-4.31,7.78-4.86,3.38.53,5.08-1.05,0-5.48-1.8-7.66c-2.53,3.17-6.94,2.77-9.44.49-1,2.2-1.74,3.41-3.14,3.83s-3.68-1.45-5.82.31C71.42,171.84,71.46,173.3,71.88,175Z"/><path class="cls-3" d="M93,176.62a4,4,0,0,1-.68-.05,4.5,4.5,0,0,1-3.78-5.12c3.63-24,0-47.4,0-47.63a4.5,4.5,0,0,1,8.89-1.4c.16,1,3.84,25,0,50.38A4.49,4.49,0,0,1,93,176.62Z"/><path class="cls-4" d="M93,176.62a4,4,0,0,1-.68-.05,4.5,4.5,0,0,1-3.78-5.12A148,148,0,0,0,90,153.9c2,3,7.76,3.36,9,.35A158.23,158.23,0,0,1,97.4,172.8,4.49,4.49,0,0,1,93,176.62Z"/><path class="cls-5" d="M79.22,177.93c.6,2.51,3.55,4.46,7.82,5s6.12-4.3,7.78-4.86,3.38.54,5.08-1,0-5.48-1.8-7.66c-2.53,3.18-6.93,2.78-9.44.5-1,2.19-1.74,3.4-3.14,3.82s-3.68-1.44-5.82.31C78.76,174.73,78.8,176.2,79.22,177.93Z"/><path class="cls-6" d="M75.92,107.26s-1.09,17.5,1,29.49c11.48,1.82,16,2.3,28.42.34a216.25,216.25,0,0,0,.24-29.83Z"/><line class="cls-3" x1="82.82" y1="126.42" x2="82.82" y2="137.58"/><path class="cls-7" d="M88.12,60.92c-12.65,0-13.29,53.5-13.29,53.5s15.79,2.67,31.79,0C107.47,89.09,100.78,60.92,88.12,60.92Z"/><path class="cls-3" d="M116.14,43.26c0,16.38-13.28,28.16-29.66,28.16-7.43,0-18.15-3.66-23.35-7.83-6.28-5-6.32-11.37-6.32-20.33a29.67,29.67,0,1,1,59.33,0Z"/><path class="cls-8" d="M49.83,85.48c-5,0-9.13,1.39-9.13,3.11l2.7,18.21c0,1.2,2.88,2.18,6.43,2.18s6.44-1,6.44-2.18L59,88.59C59,86.87,54.88,85.48,49.83,85.48Z"/><path class="cls-8" d="M59,88.59c0-1.72-4.09-3.11-9.14-3.11s-9.13,1.39-9.13,3.11"/><path class="cls-7" d="M57.85,96.09s-1.35-2.35-3.26-2.35S51.54,95.4,49.83,96a11.15,11.15,0,0,1-8,.09c1.86,5,6.86,3.56,8.86,4a6.88,6.88,0,0,0,5-.5C57.09,98.78,57.85,96.09,57.85,96.09Z"/><rect class="cls-9" x="44.88" y="70.34" width="4.08" height="28.92"/><path class="cls-9" d="M49.83,98.29c-1.8,0-3.14-1.86-4.49-2.2-1.61-.39-3.09.69-3.53,0L43.4,106.8c0,1.2,2.88,2.18,6.43,2.18s6.44-1,6.44-2.18l1.58-10.71a5.91,5.91,0,0,1-3.68,2.69C53,99,51.34,98.29,49.83,98.29Z"/><path class="cls-10" d="M49.83,91.69c-5,0-9.13-1.39-9.13-3.1l2.7,18.21c0,1.2,2.88,2.18,6.43,2.18s6.44-1,6.44-2.18L59,88.59C59,90.3,54.88,91.69,49.83,91.69Z"/><path class="cls-11" d="M41.63,95.5a1.07,1.07,0,0,0,.18.59l-.13-.9A1.12,1.12,0,0,0,41.63,95.5Z"/><path class="cls-12" d="M47,64.18H41.88V57.79h-4v6.39H27.85v5.28h16.5v4.06h5.28v-6.7A2.64,2.64,0,0,0,47,64.18Z"/><path class="cls-13" d="M44.44,55.84a5.15,5.15,0,0,0-3.28,1,1.53,1.53,0,0,0-2.47,0,5.06,5.06,0,0,0-3.33-1.06c-2.19,0-4,1-4,2.29s1.77,2.3,4,2.3a6,6,0,0,0,2.3-.43c0,.07,0,.15,0,.21-1,1.53,1,3,2.25,3s3.46-1.43,2.34-3c0-.05,0-.11,0-.17a6,6,0,0,0,2.2.39c2.18,0,4-1,4-2.3S46.62,55.84,44.44,55.84Z"/><path class="cls-14" d="M41.88,57.13c0,.7-.89,1.27-2,1.27s-2-.57-2-1.27.88-1,2-1S41.88,56.43,41.88,57.13Z"/><path class="cls-15" d="M153.93,63.88,150.43,53l-12.14,3.89,3.41,10.64c-5,3.54-7.58,7.11-8.58,12.55l13.06,40.71a4.51,4.51,0,0,0,5.66,2.91,57.54,57.54,0,0,0,13.74-2.19,47.9,47.9,0,0,0,11.73-6,4.49,4.49,0,0,0,2.91-5.65L167.16,69.11A21.28,21.28,0,0,0,153.93,63.88Z"/><path class="cls-16" d="M133.12,80l13.06,40.71a4.51,4.51,0,0,0,5.66,2.91,57.54,57.54,0,0,0,13.74-2.19,47.9,47.9,0,0,0,11.73-6,4.49,4.49,0,0,0,2.91-5.65L167.16,69.11a35.62,35.62,0,0,0-4.84-3.18c-7.92,2.68-22,6.72-27.51,9C134.81,74.89,133.33,78.9,133.12,80Z"/><path class="cls-10" d="M153.93,63.88,150.43,53l-12.14,3.89,3.41,10.64c-5,3.54-7.58,7.11-8.58,12.55l13.06,40.71a4.51,4.51,0,0,0,5.66,2.91,57.54,57.54,0,0,0,13.74-2.19,47.9,47.9,0,0,0,11.73-6,4.49,4.49,0,0,0,2.91-5.65L167.16,69.11A21.28,21.28,0,0,0,153.93,63.88Z"/><path class="cls-17" d="M138.47,48.63h10.88a2.94,2.94,0,0,1,2.94,2.94V60a0,0,0,0,1,0,0H135.53a0,0,0,0,1,0,0V51.57a2.94,2.94,0,0,1,2.94-2.94Z" transform="translate(-9.71 46.56) rotate(-17.79)"/><path class="cls-18" d="M179.91,108.84a87.67,87.67,0,0,1-16.4,7.39,87.33,87.33,0,0,1-17.64,3.53L133.12,80a152.57,152.57,0,0,0,17.57-4.58,138.32,138.32,0,0,0,16.47-6.34Z"/><text class="cls-19" transform="matrix(0.83, -0.56, 0.56, 0.83, 148.01, 81.23)">お茶</text><path class="cls-10" d="M77,61.38a4.66,4.66,0,0,1-9.25-.89"/><path class="cls-3" d="M70.64,56.59a2.83,2.83,0,1,1,0-4"/><circle class="cls-20" cx="58.97" cy="49.92" r="1.33"/><circle class="cls-20" cx="86.48" cy="53.59" r="1.69"/><path class="cls-21" d="M54.47,36.8l7-3.34,1.37,5.17,6.46-3.32-1,4.51L75,36.05v5.22l6.83-5.22L85,43.46l4-4L91.1,44.8,95,39.63l1.87,12.88,3.46-5.75s2.83,12.17,0,22.66a24.07,24.07,0,0,0,5-4.15l.71,3,1.76-5.11,1.33,2.12c2.57-4.75,7.43-13.26,8.17-19.85A31.76,31.76,0,0,0,113,26.59c-3.79-6-10.55-11.94-18-14.12-8.64-2.51-18.2-.56-25.17,3.29C56.81,22.92,54.47,36.8,54.47,36.8Z"/><path class="cls-22" d="M100,49a4,4,0,0,1,3.08-2.14c2.33-.22,4.42,1.83,4.68,4.58s-1.41,5.16-3.74,5.38a3.91,3.91,0,0,1-3.11-1.18"/><path class="cls-3" d="M56.13,104.42a4.5,4.5,0,0,1-.74-8.94C71,92.88,79.13,85.31,82.82,80.55c1.82-2.35,9.61,2.31,7,5.7-4.84,6.16-14.75,15.09-32.9,18.11A4.71,4.71,0,0,1,56.13,104.42Z"/><path class="cls-7" d="M84,72.92s-2.67,7-9,10.84a92.64,92.64,0,0,0,10,9.66s7.66-4.66,10-12"/></svg>