<svg id="レイヤー_1" data-name="レイヤー 1" xmlns="http://www.w3.org/2000/svg" xmlns:xlink="http://www.w3.org/1999/xlink" viewBox="0 0 218 218"><defs><style>.cls-1,.cls-12,.cls-4{fill:none;}.cls-2{clip-path:url(#clip-path);}.cls-3{fill:#fccb00;}.cls-10,.cls-12,.cls-13,.cls-3,.cls-5,.cls-6,.cls-7,.cls-8,.cls-9{stroke:#42210b;stroke-width:2px;}.cls-10,.cls-12,.cls-13,.cls-3,.cls-4,.cls-5,.cls-6,.cls-7,.cls-8,.cls-9{stroke-linecap:round;stroke-linejoin:round;}.cls-4{stroke:#fff;stroke-width:5px;}.cls-5{fill:#bce2ec;}.cls-11,.cls-6{fill:#42210b;}.cls-7{fill:#f5dcbe;}.cls-8{fill:#fff;}.cls-9{fill:#2c3493;}.cls-10{fill:#534741;}.cls-13{fill:#e60012;}</style><clipPath id="clip-path"><rect id="SVGID" class="cls-1" x="9" y="9" width="200" height="200" rx="10"/></clipPath></defs><title>25-3-5 運ぶ</title><g class="cls-2"><circle class="cls-3" cx="117.14" cy="90.4" r="15.9"/><path class="cls-4" d="M113.76,97.2s-6.51-1.36-3.92-10"/><path class="cls-5" d="M78.77,100.74a388,388,0,0,0,72.39,0s-12.88,6.68-35.45,6.68S78.77,100.74,78.77,100.74Z"/><path class="cls-6" d="M197.77,164.56s5.93.12,6.72,3.11c.35,1.31-1.81,3.18-3.26,5.76-1.86,3.29,0,5.7-3.18,7.23-1.63.8-5.32,2.44-8.54,2.42-3,0-5.59-1.59-5.38-3.31.45-3.59,3.76-3.91,4.86-5.39a6.64,6.64,0,0,0,.88-3.95A8.35,8.35,0,0,0,197.77,164.56Z"/><path class="cls-7" d="M183.23,151.66c-1-3.07,2.45-9.85,5.06-13.46a4.52,4.52,0,0,0-7.31-5.31c-1.53,2.11-9,13-6.36,21.48,1,3.26,3.81,6.51,6.92,9.32l5.23-7.46A13,13,0,0,1,183.23,151.66Z"/><path class="cls-8" d="M195,172.39A4.52,4.52,0,0,0,197.3,164a64.61,64.61,0,0,1-10.53-7.74l-5.23,7.46a73.26,73.26,0,0,0,11.22,8.09A4.52,4.52,0,0,0,195,172.39Z"/><path class="cls-6" d="M171.64,176.75a8.26,8.26,0,0,1-2.42,5.19l-20.59-12.61s3.44-8.23,9.15-6.55,7.4,8.86,7.4,8.86S172.05,173.23,171.64,176.75Z"/><polygon class="cls-7" points="184.13 137.56 171.31 158.21 179.34 163.39 194.55 139.78 184.13 137.56"/><path class="cls-8" d="M163.82,170.28c-2.19,1-.9,4.54,1.44,6.13,2.69,1.81,6.1,1.07,6.37-1l7.71-12-8-5.18Z"/><path class="cls-9" d="M175.46,143.38c6.84,2.82,11.49,4.11,18.2,4.11,1.92-5.34,7.51-8.9,8.41-14.51s-.75-8.62-.75-8.62l-22.25,6.14-.5,3A21.48,21.48,0,0,1,175.46,143.38Z"/><path class="cls-8" d="M185.31,87.28c-7.8,8.53-6.24,43.22-6.24,43.22s14.45-.12,22.25-6.14c-4.92-12.45-6.77-35.71-6.77-35.71S193.11,78.75,185.31,87.28Z"/><path class="cls-7" d="M145.47,104.52a4.51,4.51,0,0,1,4.26-7.41c.23,0,14.07,2.6,32.07-2.28,1.24-.33,3.88,8.3,2.59,8.66C164.1,109.05,148.67,106.1,148,106A4.53,4.53,0,0,1,145.47,104.52Z"/><path class="cls-8" d="M188.88,91.29s-5.56,1.87-11.8,3.22A17.47,17.47,0,0,0,179.72,106l9.18-2.1"/><path class="cls-7" d="M209.93,72.39c0,6.12-1.65,12.13-5.31,15.62-4.58,4.37-12,5.46-19.69,5.46s-15.25-1.56-19.84-6C161.5,84,161,78.74,161,72.67c0-13.8,10.17-25.28,24-25.28A25,25,0,0,1,209.93,72.39Z"/><path class="cls-10" d="M201.1,73.9a3.45,3.45,0,0,1,2.2-.44c2.18.31,3.63,2.74,3.24,5.43s-2.46,4.62-4.63,4.31a10.41,10.41,0,0,1-.85,7.32A28,28,0,0,0,204.62,88c3.66-3.49,5.31-9.5,5.31-15.62a25,25,0,0,0-25-25c-11.34,0-22.48,7.93-24,19.28l3.53,3.76,5.9-4.89,3.73,4.89,5.36-4.24,4.21,5,3.94-4.38,4.17,4.87L195.7,69Z"/><path class="cls-8" d="M201.1,73.9a3.45,3.45,0,0,1,2.2-.44c2.18.31,3.63,2.74,3.24,5.43l2.19,2c1.84-.73,4-6.57,4-9.89,0-13.8-13.51-26.78-27.32-26.78-11.34,0-21.92,8.82-23.62,17.42Z"/><path class="cls-7" d="M169.78,71.27a15.79,15.79,0,0,0-.85,6.86c-1.38-1.3-5.42.07-4.21,3.37,1.46,4,5.67,1.32,5.67,1.32"/><path class="cls-7" d="M170.39,85.81S170.88,88,173.8,88a4.56,4.56,0,0,0,4-2.17"/><ellipse class="cls-11" cx="164.49" cy="73.42" rx="2.14" ry="1.24" transform="translate(-14.48 52.98) rotate(-17.54)"/><ellipse class="cls-11" cx="187" cy="74.77" rx="1.24" ry="2.14" transform="translate(59.36 230.55) rotate(-72.46)"/><path class="cls-12" d="M161.82,61.66S150.47,57,145.93,46.28"/><path class="cls-6" d="M15.48,176.4a7.19,7.19,0,0,0-1,4.89l21,2.05s1.93-7.56-2.94-9.39-9.83,2.28-9.83,2.28S17.05,173.73,15.48,176.4Z"/><polygon class="cls-7" points="29.55 137.47 27.33 161.66 17.8 160.96 19.89 132.96 29.55 137.47"/><path class="cls-8" d="M26,175.81c1.15,2.12-2,4.17-4.84,4-3.23-.17-5.51-2.82-4.44-4.67L17.8,161l9.53.7Z"/><path class="cls-9" d="M17.5,128.34s-1.92,8.19-.4,11.25l-.62,8.5,14.34,2.08L32.05,138Z"/><path class="cls-6" d="M49.75,174.92A7.73,7.73,0,0,0,52,179.8l19.39-11.87s-3.24-7.76-8.62-6.17-7,8.34-7,8.34S49.36,171.61,49.75,174.92Z"/><polygon class="cls-7" points="37.38 135.56 50.19 156.21 42.16 161.39 26.95 137.79 37.38 135.56"/><path class="cls-8" d="M57.68,168.28c2.19,1,.91,4.55-1.44,6.13-2.68,1.81-6.1,1.07-6.36-1l-7.72-12,8-5.18Z"/><path class="cls-7" d="M80.72,105.45H80.6L39,104.37a4.52,4.52,0,0,1,.23-9l41.59,1.08a4.52,4.52,0,0,1-.12,9Z"/><path class="cls-9" d="M20.81,142.73c3.67,3.75,8.05,4.36,12.64,8a27.38,27.38,0,0,0,11.22-5.88,28.61,28.61,0,0,0-6.3-11.63l.28-2.19L18,127.21"/><path class="cls-8" d="M26.72,95.57c-4.23,8.8-7.11,18.59-9.22,33.33a123.79,123.79,0,0,0,20.87,4.33l4.28-26.91s5.85.51,10.91.51a21.87,21.87,0,0,0,0-11.91Z"/><path class="cls-7" d="M58.8,89.31c-4.9,4.29-10.23,6-17.87,6.82s-15,.51-20-3.33c-4-3.07-6.24-8.83-6.89-14.89A24.85,24.85,0,0,1,36.09,50.59C49,49.21,59,58.35,61.23,71c.12.67,1,3.9,2.55,3.47A6.87,6.87,0,0,1,66,74.21a3.14,3.14,0,1,1-2,5.71s-.17,2.6,1.42,3.62c-1.1,1.58-6.47,3-14,2.9C53.5,88.35,58.8,89.31,58.8,89.31Z"/><path class="cls-6" d="M36.12,50.87c10.67-1.13,19.65,4.36,23.6,13.56a29.22,29.22,0,0,1,1.35,5.79c-1.59.58-10.46,1.36-17.15-1.32A25.07,25.07,0,0,0,49.11,72c-5.8-.28-9.87-2.13-15-5.42-1.61,7.7-2.92,9.14-5.9,11.92a3.55,3.55,0,0,0-2.6-.4c-2.12.54-3.29,3.1-2.62,5.72a4.84,4.84,0,0,0,4,3.85,27.79,27.79,0,0,0,1.25,8.53,17.35,17.35,0,0,1-7.32-3.12c-4-3.07-6.23-8.83-6.88-14.89A24.84,24.84,0,0,1,36.12,50.87Z"/><ellipse class="cls-11" cx="45.87" cy="76.61" rx="2.12" ry="1.23" transform="matrix(0.92, -0.4, 0.4, 0.92, -26.83, 24.76)"/><circle class="cls-6" cx="24.12" cy="99.85" r="2.29"/><circle class="cls-6" cx="24.21" cy="106.83" r="2.29"/><circle class="cls-6" cx="24.44" cy="113.66" r="2.29"/><polygon class="cls-6" points="24.93 118.77 22.49 123.73 28.01 122.05 24.93 118.77"/><path class="cls-13" d="M39.43,49.66c9.37,0,18.71,4.39,20.58,14.84l-31.28,14a3.53,3.53,0,0,0-2.56-.67c-2.18.32-3.63,2.76-3.24,5.46L16.45,87.2c-3.39-5-4.2-8.73-4.2-12.46C12.25,60.9,25.58,49.66,39.43,49.66Z"/><path class="cls-12" d="M60,64.5s11.31-4.1,15.71-17.93"/><path class="cls-12" d="M95,95.83s-4.36-6.35.12-12.93"/><path class="cls-12" d="M90.06,95.83s-4.35-6.35.13-12.93"/></g></svg>