<svg id="レイヤー_1" data-name="レイヤー 1" xmlns="http://www.w3.org/2000/svg" xmlns:xlink="http://www.w3.org/1999/xlink" viewBox="0 0 218 218"><defs><style>.cls-1,.cls-17{fill:none;}.cls-2{clip-path:url(#clip-path);}.cls-3{clip-path:url(#clip-path-2);}.cls-4{fill:#9b7656;}.cls-5{clip-path:url(#clip-path-3);}.cls-6{fill:#fff000;}.cls-7{fill:#40220f;}.cls-8{fill:#036eb7;}.cls-9{fill:#ed86b3;}.cls-10{fill:#f29600;}.cls-11{clip-path:url(#clip-path-4);}.cls-12{fill:#00a0e9;}.cls-12,.cls-14,.cls-15,.cls-16,.cls-18,.cls-21{stroke:#42210b;}.cls-12,.cls-13,.cls-14,.cls-15,.cls-16,.cls-17,.cls-18,.cls-20,.cls-21{stroke-linecap:round;stroke-linejoin:round;stroke-width:2px;}.cls-13{fill:#f1d8bc;}.cls-13,.cls-17,.cls-20{stroke:#40210d;}.cls-14{fill:#f5dcbe;}.cls-15{fill:#42210b;}.cls-16{fill:#2c3493;}.cls-18{fill:#fff;}.cls-19{fill:#40210d;}.cls-20{fill:#d61518;}.cls-21{fill:#999;}.cls-22{clip-path:url(#clip-path-5);}.cls-23{fill:#fff1e1;}</style><clipPath id="clip-path"><rect id="SVGID" class="cls-1" x="8" y="-469" width="200" height="200" rx="10"/></clipPath><clipPath id="clip-path-2"><rect id="SVGID-2" data-name="SVGID" class="cls-1" x="-293.76" y="-537" width="568.77" height="326.6"/></clipPath><clipPath id="clip-path-3"><rect id="SVGID-3" data-name="SVGID" class="cls-1" x="10.06" y="-228.56" width="200" height="200" rx="10"/></clipPath><clipPath id="clip-path-4"><rect id="SVGID-4" data-name="SVGID" class="cls-1" x="9" y="9" width="200" height="200" rx="10"/></clipPath><clipPath id="clip-path-5"><rect id="SVGID-5" data-name="SVGID" class="cls-1" x="-229.98" y="260.04" width="200" height="200" rx="10"/></clipPath></defs><title>2-3-1 ぶら下がる</title><g class="cls-2"><g class="cls-3"><path class="cls-4" d="M157.61-325l-.5-1.12-1.65.75L-37-358.27l-.27-.05-380.4,66-2.12.37L-256.46,55.32l.85,1.81L241.12-310.68ZM41-341.61l47,8-455,145.94-21.51-45.75L41.05-341.21ZM-390-236.4-403.95-266-2.2-349l36.14,6.18Zm484.92-96,55.2,9.44L-329-106.72l-36.64-77.92ZM-37.25-355l26.18,4.48L-405.39-269.1-415-289.46ZM-327.63-103.75,155.9-321.94,233-308.74-254.34,52.11Z"/></g></g><g class="cls-5"><path class="cls-6" d="M-1.26,3A4.49,4.49,0,0,1-4.68,1.44,4.51,4.51,0,0,1-5.75-1.84,4.47,4.47,0,0,1-4.18-4.91L87.77-83.37a4.54,4.54,0,0,1,2.92-1.08,4.53,4.53,0,0,1,3.43,1.58,4.46,4.46,0,0,1,1.06,3.28,4.46,4.46,0,0,1-1.56,3.07L1.66,1.94A4.52,4.52,0,0,1-1.26,3Z"/><path class="cls-7" d="M90.69-83.45a3.52,3.52,0,0,1,2.67,1.23A3.51,3.51,0,0,1,93-77.28L1,1.18A3.51,3.51,0,0,1-1.26,2,3.49,3.49,0,0,1-3.92.79a3.5,3.5,0,0,1,.39-4.94l92-78.46a3.51,3.51,0,0,1,2.27-.84m0-2h0a5.48,5.48,0,0,0-3.56,1.32l-92,78.46A5.43,5.43,0,0,0-6.74-1.92a5.43,5.43,0,0,0,1.3,4A5.5,5.5,0,0,0-1.26,4,5.51,5.51,0,0,0,2.31,2.7l92-78.46a5.48,5.48,0,0,0,1.92-3.75,5.52,5.52,0,0,0-1.3-4,5.52,5.52,0,0,0-4.19-1.93Z"/><path class="cls-8" d="M33.25,6.2a4.43,4.43,0,0,1-3.14-1.39A4.46,4.46,0,0,1,28.87,1.6L32.27-150a4.48,4.48,0,0,1,2.12-3.72l31.48-19.55a4.5,4.5,0,0,1,2.37-.68,4.5,4.5,0,0,1,2.24.6,4.49,4.49,0,0,1,2.26,4L69.32-17.73a4.5,4.5,0,0,1-4.44,4.4h-.17a4.46,4.46,0,0,1-3.14-1.38,4.46,4.46,0,0,1-1.24-3.21l3.23-143.32L41.21-147.37,37.86,1.8a4.52,4.52,0,0,1-4.49,4.4Z"/><path class="cls-7" d="M68.24-173a3.59,3.59,0,0,1,1.74.46,3.52,3.52,0,0,1,1.76,3.12L68.32-17.75a3.48,3.48,0,0,1-3.44,3.42h-.13a3.5,3.5,0,0,1-3.42-3.58L64.6-163.07,40.22-147.93,36.86,1.78A3.49,3.49,0,0,1,33.37,5.2h-.08a3.48,3.48,0,0,1-3.42-3.57L33.27-150a3.48,3.48,0,0,1,1.65-2.89L66.4-172.43a3.48,3.48,0,0,1,1.84-.53m0-2a5.52,5.52,0,0,0-2.9.83L33.87-154.58a5.47,5.47,0,0,0-2.6,4.55L27.87,1.58A5.4,5.4,0,0,0,29.39,5.5a5.42,5.42,0,0,0,3.85,1.7h.13a5.52,5.52,0,0,0,5.49-5.37L42.2-146.81l20.32-12.61L59.33-18A5.44,5.44,0,0,0,60.85-14a5.49,5.49,0,0,0,3.85,1.7h.18a5.5,5.5,0,0,0,5.44-5.38l3.42-151.62a5.47,5.47,0,0,0-2.77-4.9,5.45,5.45,0,0,0-2.73-.73Z"/><path class="cls-8" d="M85.33,20.33A4.51,4.51,0,0,1,81,15.71l4.13-157.17a4.51,4.51,0,0,1,1.69-3.4L113-165.78a4.47,4.47,0,0,1,2.81-1,4.49,4.49,0,0,1,2,.47,4.52,4.52,0,0,1,2.5,4.14L116.19-5a4.53,4.53,0,0,1-4.5,4.38h-.11A4.47,4.47,0,0,1,108.43-2a4.48,4.48,0,0,1-1.24-3.22l3.89-147.51L94-139.13,90,16a4.47,4.47,0,0,1-4.5,4.38Z"/><path class="cls-7" d="M115.83-165.76a3.6,3.6,0,0,1,1.56.36,3.52,3.52,0,0,1,1.94,3.23L115.19-5a3.51,3.51,0,0,1-3.5,3.41h-.09a3.5,3.5,0,0,1-3.41-3.59l3.94-149.66L93-139.62,89,15.92a3.5,3.5,0,0,1-3.5,3.41h-.09A3.5,3.5,0,0,1,82,15.74l4.13-157.17a3.49,3.49,0,0,1,1.32-2.64L113.65-165a3.45,3.45,0,0,1,2.18-.76m0-2a5.47,5.47,0,0,0-3.43,1.2L86.15-145.64a5.5,5.5,0,0,0-2.07,4.16L80,15.69a5.5,5.5,0,0,0,5.36,5.64h.14A5.47,5.47,0,0,0,91,16L95-138.63l15-12L106.2-5.23a5.48,5.48,0,0,0,1.5,3.93A5.5,5.5,0,0,0,111.55.41h.14a5.47,5.47,0,0,0,5.5-5.36l4.14-157.17a5.53,5.53,0,0,0-3-5.07,5.51,5.51,0,0,0-2.45-.57Z"/><path class="cls-6" d="M48,15.31a4.49,4.49,0,0,1-4.5-4.66A4.45,4.45,0,0,1,44.9,7.52l87.6-81.61a4.46,4.46,0,0,1,3.06-1.21,4.5,4.5,0,0,1,3.3,1.44,4.49,4.49,0,0,1,1.2,3.22,4.44,4.44,0,0,1-1.43,3.13L51,14.1A4.46,4.46,0,0,1,48,15.31Z"/><path class="cls-7" d="M135.56-74.3a3.49,3.49,0,0,1,2.56,1.12,3.49,3.49,0,0,1-.17,4.94L50.35,13.37a3.5,3.5,0,0,1-4.77-5.12l87.6-81.61a3.47,3.47,0,0,1,2.38-.94m0-2h0a5.51,5.51,0,0,0-3.75,1.48L44.22,6.78a5.51,5.51,0,0,0-.28,7.78,5.5,5.5,0,0,0,7.78.27l87.59-81.6a5.43,5.43,0,0,0,1.75-3.83,5.5,5.5,0,0,0-1.47-4,5.55,5.55,0,0,0-4-1.75Z"/><path class="cls-9" d="M162.21,14.11a4.51,4.51,0,0,1-4.38-4.6l3-132.12a4.52,4.52,0,0,1,4.48-4.4h.13a4.47,4.47,0,0,1,3.14,1.39,4.43,4.43,0,0,1,1.25,3.21l-3,132.12a4.53,4.53,0,0,1-4.5,4.4Z"/><path class="cls-7" d="M165.28-126h.1a3.51,3.51,0,0,1,3.42,3.58l-3,132.12a3.51,3.51,0,0,1-3.5,3.42h-.08a3.51,3.51,0,0,1-3.42-3.58l3-132.12a3.5,3.5,0,0,1,3.48-3.42m0-2h0a5.53,5.53,0,0,0-5.48,5.38l-3,132.11a5.5,5.5,0,0,0,5.37,5.63h.13a5.54,5.54,0,0,0,5.5-5.38l3-132.11a5.5,5.5,0,0,0-1.52-3.93,5.52,5.52,0,0,0-3.85-1.7Z"/><path class="cls-9" d="M137.72,50.9a4.51,4.51,0,0,1-4.38-4.6l3.23-143.65a4.47,4.47,0,0,1,4.5-4.39h.1a4.44,4.44,0,0,1,3.15,1.39,4.43,4.43,0,0,1,1.25,3.21L142.34,46.5a4.53,4.53,0,0,1-4.5,4.4Z"/><path class="cls-7" d="M141.07-100.74h.08a3.5,3.5,0,0,1,3.42,3.57L141.34,46.48a3.5,3.5,0,0,1-3.5,3.42h-.08a3.5,3.5,0,0,1-3.42-3.58l3.23-143.64a3.49,3.49,0,0,1,3.5-3.42m0-2h0a5.46,5.46,0,0,0-5.5,5.37L132.34,46.28a5.5,5.5,0,0,0,5.38,5.62h.12a5.54,5.54,0,0,0,5.5-5.37l3.23-143.65a5.48,5.48,0,0,0-1.52-3.92,5.45,5.45,0,0,0-3.86-1.7Z"/><path class="cls-9" d="M107.55,30.19a4.49,4.49,0,0,1-3.35-7.5l77.66-86.38a4.52,4.52,0,0,1,3.34-1.49,4.46,4.46,0,0,1,3,1.16,4.49,4.49,0,0,1,1.49,3.1,4.51,4.51,0,0,1-1.15,3.25L110.89,28.7A4.49,4.49,0,0,1,107.55,30.19Z"/><path class="cls-7" d="M185.2-64.18a3.49,3.49,0,0,1,2.34.9,3.49,3.49,0,0,1,.26,4.94L110.15,28a3.5,3.5,0,1,1-5.2-4.68L182.6-63a3.49,3.49,0,0,1,2.6-1.16m0-2h0a5.56,5.56,0,0,0-4.09,1.82L103.46,22a5.5,5.5,0,0,0,8.18,7.35L189.29-57a5.46,5.46,0,0,0,1.4-4,5.43,5.43,0,0,0-1.81-3.8,5.49,5.49,0,0,0-3.68-1.41Z"/><path class="cls-10" d="M-2.61,57.55a4.47,4.47,0,0,1-3.14-1.39A4.46,4.46,0,0,1-7,53L-3.57-98.62A4.49,4.49,0,0,1,.86-103h.19a4.49,4.49,0,0,1,4.37,4.6L2,53.15a4.53,4.53,0,0,1-4.5,4.4Z"/><path class="cls-7" d="M.86-102H1a3.49,3.49,0,0,1,3.42,3.58L1,53.13a3.51,3.51,0,0,1-3.5,3.42h-.08A3.49,3.49,0,0,1-6,53L-2.57-98.59A3.5,3.5,0,0,1,.86-102m0-2h0a5.5,5.5,0,0,0-5.43,5.38L-8,52.93a5.44,5.44,0,0,0,1.52,3.92,5.46,5.46,0,0,0,3.85,1.7h.13A5.54,5.54,0,0,0,3,53.18L6.42-98.39a5.4,5.4,0,0,0-1.52-3.92A5.41,5.41,0,0,0,1.05-104Z"/><path class="cls-10" d="M51.07,70.09a4.51,4.51,0,0,1-4.39-4.6L50.12-87.39a4.52,4.52,0,0,1,4.49-4.39h.11a4.44,4.44,0,0,1,3.15,1.39,4.51,4.51,0,0,1,1.25,3.21L55.68,65.69a4.52,4.52,0,0,1-4.5,4.4Z"/><path class="cls-7" d="M54.61-90.78h.09a3.5,3.5,0,0,1,3.42,3.58L54.68,65.67a3.49,3.49,0,0,1-3.5,3.42H51.1a3.5,3.5,0,0,1-3.42-3.58L51.12-87.36a3.52,3.52,0,0,1,3.49-3.42m0-2h0a5.53,5.53,0,0,0-5.49,5.37L45.68,65.47a5.52,5.52,0,0,0,5.38,5.62h.12a5.53,5.53,0,0,0,5.5-5.37L60.12-87.16a5.45,5.45,0,0,0-1.53-3.92,5.41,5.41,0,0,0-3.85-1.7Z"/><path class="cls-8" d="M107.55,30.19a4.45,4.45,0,0,1-1.09-.13L-56.47-10.62a4.45,4.45,0,0,1-2.76-2.05,4.48,4.48,0,0,1-.51-3.41,4.49,4.49,0,0,1,4.36-3.41,4.4,4.4,0,0,1,1.09.14L108.64,21.33a4.49,4.49,0,0,1,2.77,2.05,4.41,4.41,0,0,1,.5,3.4A4.48,4.48,0,0,1,107.55,30.19Z"/><path class="cls-7" d="M-55.38-18.49a3.54,3.54,0,0,1,.85.11L108.4,22.3a3.5,3.5,0,0,1-.85,6.89,3.58,3.58,0,0,1-.85-.1L-56.22-11.59a3.5,3.5,0,0,1-2.55-4.24,3.52,3.52,0,0,1,3.39-2.66m0-2h0a5.49,5.49,0,0,0-5.33,4.17,5.44,5.44,0,0,0,.62,4.17,5.46,5.46,0,0,0,3.38,2.5L106.22,31a5.38,5.38,0,0,0,1.33.16,5.5,5.5,0,0,0,4.71-8.33,5.4,5.4,0,0,0-3.38-2.5L-54-20.32a5.53,5.53,0,0,0-1.34-.17Z"/><path class="cls-10" d="M106.16,86.87a4.51,4.51,0,0,1-4.39-4.6L105.25-72.1-48.87-104.34-52,35.82a4.49,4.49,0,0,1-4.43,4.4h-.19a4.47,4.47,0,0,1-3.13-1.39A4.51,4.51,0,0,1-61,35.62l3.27-145.57a4.48,4.48,0,0,1,1.7-3.42,4.54,4.54,0,0,1,2.8-1,4.7,4.7,0,0,1,.92.09L110.75-80.14a4.51,4.51,0,0,1,3.58,4.51l-3.56,158.1a4.52,4.52,0,0,1-4.49,4.4Z"/><path class="cls-7" d="M-53.25-113.35a3.51,3.51,0,0,1,.72.07L110.55-79.16a3.5,3.5,0,0,1,2.78,3.51l-3.56,158.1a3.5,3.5,0,0,1-3.49,3.42h-.09a3.51,3.51,0,0,1-3.42-3.58l3.5-155.19L-49.84-105.56-53,35.8a3.47,3.47,0,0,1-3.43,3.42h-.15A3.5,3.5,0,0,1-60,35.64l3.27-145.57a3.51,3.51,0,0,1,1.33-2.66,3.46,3.46,0,0,1,2.17-.76m0-2h0a5.53,5.53,0,0,0-3.42,1.19A5.52,5.52,0,0,0-58.75-110L-62,35.6a5.45,5.45,0,0,0,1.53,3.92,5.45,5.45,0,0,0,3.85,1.7h.19A5.5,5.5,0,0,0-51,35.85l3.12-139L104.23-71.29,100.77,82.24a5.52,5.52,0,0,0,5.38,5.63h.13a5.52,5.52,0,0,0,5.49-5.38l3.56-158.1A5.51,5.51,0,0,0,111-81.12L-52.12-115.23a5.35,5.35,0,0,0-1.13-.12Z"/><path class="cls-6" d="M-1.26,2A3.49,3.49,0,0,1-3.92.79a3.5,3.5,0,0,1,.39-4.94l92-78.46a3.51,3.51,0,0,1,4.94.39A3.51,3.51,0,0,1,93-77.28L1,1.18A3.51,3.51,0,0,1-1.26,2Z"/><path class="cls-8" d="M33.37,5.2h-.08a3.48,3.48,0,0,1-3.42-3.57L33.27-150a3.48,3.48,0,0,1,1.65-2.89L66.4-172.43A3.51,3.51,0,0,1,70-172.5a3.52,3.52,0,0,1,1.76,3.12L68.32-17.75a3.48,3.48,0,0,1-3.57,3.42,3.5,3.5,0,0,1-3.42-3.58L64.6-163.07,40.22-147.93,36.86,1.78A3.49,3.49,0,0,1,33.37,5.2Z"/><path class="cls-8" d="M85.45,19.33h-.09A3.5,3.5,0,0,1,82,15.74l4.13-157.17a3.49,3.49,0,0,1,1.32-2.64L113.65-165a3.51,3.51,0,0,1,3.74-.4,3.52,3.52,0,0,1,1.94,3.23L115.19-5a3.5,3.5,0,0,1-3.59,3.41,3.5,3.5,0,0,1-3.41-3.59l3.94-149.66L93-139.62,89,15.92A3.5,3.5,0,0,1,85.45,19.33Z"/><path class="cls-6" d="M48,14.31a3.5,3.5,0,0,1-2.39-6.06l87.6-81.61a3.48,3.48,0,0,1,4.94.18,3.49,3.49,0,0,1-.17,4.94L50.35,13.37A3.47,3.47,0,0,1,48,14.31Z"/><path class="cls-9" d="M162.33,13.11h-.08a3.51,3.51,0,0,1-3.42-3.58l3-132.12a3.5,3.5,0,0,1,3.58-3.42,3.51,3.51,0,0,1,3.42,3.58l-3,132.12A3.51,3.51,0,0,1,162.33,13.11Z"/><path class="cls-9" d="M137.84,49.9h-.08a3.5,3.5,0,0,1-3.42-3.58l3.23-143.64a3.49,3.49,0,0,1,3.58-3.42,3.5,3.5,0,0,1,3.42,3.57L141.34,46.48A3.5,3.5,0,0,1,137.84,49.9Z"/><path class="cls-9" d="M107.55,29.19a3.49,3.49,0,0,1-2.6-5.84L182.6-63a3.51,3.51,0,0,1,4.94-.26,3.49,3.49,0,0,1,.26,4.94L110.15,28A3.47,3.47,0,0,1,107.55,29.19Z"/><path class="cls-10" d="M-2.49,56.55h-.08A3.49,3.49,0,0,1-6,53L-2.57-98.59A3.49,3.49,0,0,1,1-102a3.49,3.49,0,0,1,3.42,3.58L1,53.13A3.51,3.51,0,0,1-2.49,56.55Z"/><path class="cls-10" d="M51.18,69.09H51.1a3.5,3.5,0,0,1-3.42-3.58L51.12-87.36a3.52,3.52,0,0,1,3.58-3.42,3.5,3.5,0,0,1,3.42,3.58L54.68,65.67A3.49,3.49,0,0,1,51.18,69.09Z"/><path class="cls-8" d="M107.55,29.19a3.58,3.58,0,0,1-.85-.1L-56.22-11.59a3.5,3.5,0,0,1-2.55-4.24,3.5,3.5,0,0,1,4.24-2.55L108.4,22.3a3.5,3.5,0,0,1-.85,6.89Z"/><path class="cls-10" d="M106.28,85.87h-.09a3.51,3.51,0,0,1-3.42-3.58l3.5-155.19L-49.84-105.56-53,35.8a3.47,3.47,0,0,1-3.58,3.42A3.5,3.5,0,0,1-60,35.64l3.27-145.57a3.51,3.51,0,0,1,1.33-2.66,3.49,3.49,0,0,1,2.89-.69L110.55-79.16a3.5,3.5,0,0,1,2.78,3.51l-3.56,158.1A3.5,3.5,0,0,1,106.28,85.87Z"/></g><g class="cls-11"><path class="cls-12" d="M66.44,225.23a5.49,5.49,0,0,1-5.5-5.49L60.8-8.6a5.5,5.5,0,0,1,5.49-5.5h0a5.5,5.5,0,0,1,5.5,5.5l.14,228.33a5.5,5.5,0,0,1-5.5,5.5Z"/><path class="cls-13" d="M95.49,199.52a6.3,6.3,0,0,1-4.56-1.93,6.37,6.37,0,0,1,.12-9l11.23-10.92c2.52-2.45,2.25-2.94,4.7-.42s1.41,5.65,1.41,7.77l-8.46,12.7A6.37,6.37,0,0,1,95.49,199.52Z"/><path class="cls-14" d="M84.17,191a6.36,6.36,0,0,1-6.35-6,74.51,74.51,0,0,1,.06-8.84,124.63,124.63,0,0,1,2.94-19.9,6.37,6.37,0,0,1,12.37,3c-.07.27-3.3,13.81-2.66,25a6.36,6.36,0,0,1-6,6.71Z"/><path class="cls-14" d="M95.5,199.52a6,6,0,0,1-.94-.07,6.37,6.37,0,0,1-5.37-7.23l4.25-28.63A6.36,6.36,0,1,1,106,165.45l-4.25,28.64A6.35,6.35,0,0,1,95.5,199.52Z"/><path class="cls-15" d="M110.75,172.12c-4.65-.89-6.62,3.75-6.62,3.75s.37,10.75.73,16.4,2.39,9.9,8.13,9,6.54-5.48,5.66-11.32-5-7.77-5.84-9.9S113.51,175.58,110.75,172.12Z"/><path class="cls-16" d="M81.15,146.13c-4.33,15.56-1.88,16.81-1.88,16.81a13.92,13.92,0,0,0,11.25,4.95l-.44,1.32a35.22,35.22,0,0,0,16.23,6c1.77-4.87,3.3-8.8,3.3-14.46Z"/><path class="cls-17" d="M90.82,167.89a33.14,33.14,0,0,1,1.42-7"/><path class="cls-18" d="M84.17,114.49c-1.34,2.89-1.34,14.62-2.65,22.1-1.09,6.24-3.65,8.66-3.65,8.66s16.91,14.32,32.64,15.55c3-18.38,4.42-40.83,4.42-40.83l-4.42-15.56-28.1-.88S81.52,110.24,84.17,114.49Z"/><ellipse class="cls-14" cx="95.49" cy="107.77" rx="9.19" ry="4.95" transform="translate(-34.52 169.66) rotate(-73.92)"/><path class="cls-14" d="M101.93,29.39a6.36,6.36,0,0,0-11-6.39c-.71,1.22-15.22,26.72-16.34,69.61l12.68,7C86.91,56.21,101.67,29.84,101.93,29.39Z"/><circle class="cls-15" cx="131.43" cy="68.19" r="12.36"/><path class="cls-14" d="M127.73,88.56c2.89-.08,4.69-3.55,4.69-6.85s-2.64-6.1-5.77-5.6-5.28,5.6-5.28,5.6,2.45-6.85,0-9.56c-7.08-8.4-35.91-13.84-45-8.46-.57.71-1.14,1.44-1.68,2.2-4.1,5.67-7.92,12.44-7.92,18.62,0,14.94,12.69,25.56,29.35,25.56,7.07,0,13.83-.47,19.66-2.15,7.62-12,7.54-21.76,7.54-21.76A5.26,5.26,0,0,0,127.73,88.56Z"/><path class="cls-15" d="M132.76,92.49c1.88-5.72,1.16-20-3.64-26.6-7.11-9.82-21.23-14-31.17-14-8.85,0-16,4.89-21.55,11.78,9.06-5.38,37.89.06,45,8.46,2.45,2.71,0,9.56,0,9.56s2.15-5.11,5.28-5.6,5.77,2.3,5.77,5.6-1.8,6.77-4.69,6.85a5.26,5.26,0,0,1-4.38-2.4s.08,9.73-7.54,21.76C123.72,105.64,129.91,101.12,132.76,92.49Z"/><circle class="cls-19" cx="77.11" cy="70.5" r="1.57"/><circle class="cls-19" cx="112.79" cy="74.33" r="1.57"/><path class="cls-17" d="M86.79,74.33A4.37,4.37,0,1,1,92,68.11"/><ellipse class="cls-20" cx="85.93" cy="89.3" rx="3.46" ry="7.09"/><path class="cls-14" d="M131.6,52.26A6.37,6.37,0,0,0,125.24,46h-.06a6.37,6.37,0,0,0-6.31,6.42c.22,26.12-7.84,48.3-13.75,61l11.2,6.21C122.86,105.81,131.84,81.51,131.6,52.26Z"/><path class="cls-18" d="M98.87,115s6.16-5.66,10.58-17.33c4.6-.7,9.37,4.6,13.09,13.79-3.59,9.2-3.85,14.32-13.93,20.69"/><line class="cls-21" x1="66.67" y1="-2.17" x2="166.17" y2="91.47"/><path class="cls-21" d="M166.17,94.47a3,3,0,0,1-2.06-.82L64.61,0a3,3,0,0,1-.13-4.24,3,3,0,0,1,4.24-.13l99.5,93.63a3,3,0,0,1-2.05,5.19Z"/><path class="cls-14" d="M93.85,17.8c2.39-.86,11.14,4.82,9.43,9.24s-9.92,1.59-11-.37S91.46,18.66,93.85,17.8Z"/><path class="cls-14" d="M132.55,53.79c.76-2.43-5.27-10.94-9.61-9s-1.18,10,.81,10.94S131.79,56.21,132.55,53.79Z"/><path class="cls-12" d="M166.24,316.34a5.5,5.5,0,0,1-5.5-5.5L160.6,82.51a5.49,5.49,0,0,1,5.49-5.5h0a5.5,5.5,0,0,1,5.5,5.49l.14,228.34a5.5,5.5,0,0,1-5.5,5.5Z"/></g><g class="cls-22"><ellipse class="cls-23" cx="-132.97" cy="359.49" rx="173.57" ry="160.5"/></g></svg>