<svg id="レイヤー_1" data-name="レイヤー 1" xmlns="http://www.w3.org/2000/svg" viewBox="0 0 118.84 131.77"><defs><style>.cls-1{fill:#585757;}.cls-1,.cls-10,.cls-11,.cls-12,.cls-13,.cls-14,.cls-15,.cls-2,.cls-3,.cls-4,.cls-5,.cls-6,.cls-7,.cls-9{stroke:#40220f;stroke-linecap:round;stroke-linejoin:round;}.cls-2{fill:#fff;}.cls-3{fill:#1e2878;}.cls-4{fill:#f5dcbe;}.cls-5{fill:none;}.cls-6{fill:#f2c41c;}.cls-7{fill:#d71618;}.cls-8,.cls-9{fill:#40220f;}.cls-10{fill:#c9caca;}.cls-11{fill:#0363a6;}.cls-12{fill:#98c67f;}.cls-13{fill:#e79eb0;}.cls-14{fill:#e99577;}.cls-15{fill:#67391b;}</style></defs><title>学童期</title><rect class="cls-1" x="21.12" y="53.17" width="29.62" height="33.06" rx="3.61"/><path class="cls-2" d="M35.58,50.33c-12.42,0-12.42,42.34-12.42,42.34H49.54S48,50.33,35.58,50.33Z"/><path class="cls-3" d="M18.71,78.72a4.11,4.11,0,0,1-.77-.08A4,4,0,0,1,14.78,74a63.9,63.9,0,0,1,3.87-12.49,4,4,0,0,1,7.25,3.38,56.31,56.31,0,0,0-3.27,10.65A4,4,0,0,1,18.71,78.72Z"/><path class="cls-4" d="M28.6,129.81a4,4,0,0,1-4-4V99.64a4,4,0,0,1,8,0v26.17A4,4,0,0,1,28.6,129.81Z"/><path class="cls-2" d="M24.6,115.25a15.83,15.83,0,0,0,8,0v10.56h-8Z"/><path class="cls-1" d="M25.58,52.12c.69-.77,5.27-.25,5.73.47S28,56,27.14,58a35.23,35.23,0,0,0-1.56,6S24,72.29,23.16,81.29A73.7,73.7,0,0,1,21.8,62.71s2.81-4.26,3.29-5.85S24.88,52.89,25.58,52.12Z"/><path class="cls-3" d="M52.88,78.72a4.13,4.13,0,0,0,.78-.08A4,4,0,0,0,56.81,74a63.9,63.9,0,0,0-3.87-12.49,4,4,0,0,0-7.25,3.38A56.31,56.31,0,0,1,49,75.49,4,4,0,0,0,52.88,78.72Z"/><path class="cls-4" d="M43,129.81a4,4,0,0,0,4-4V99.64a4,4,0,0,0-8,0v26.17A4,4,0,0,0,43,129.81Z"/><path class="cls-2" d="M47,115.25a15.83,15.83,0,0,1-8,0v10.56h8Z"/><path class="cls-1" d="M46,52.12c-.7-.77-5.28-.25-5.74.47S43.59,56,44.45,58a35.6,35.6,0,0,1,1.57,6s1.54,8.22,2.41,17.22a73.7,73.7,0,0,0,1.36-18.58S47,58.45,46.5,56.86,46.71,52.89,46,52.12Z"/><circle class="cls-4" cx="35.58" cy="52.59" r="4.27"/><path class="cls-3" d="M22.48,106.7c2.81,1,9,1.2,12.15.6a89.24,89.24,0,0,0,1.3-9.36s.66,6.82,1.26,9.36c2.66,1.13,10,1.14,12.35,0,.36-2.88,0-14.63,0-14.63H23.16S22.48,102,22.48,106.7Z"/><path class="cls-3" d="M23.09,93.59c2.46.76,8.93.43,12.41.18a2.47,2.47,0,0,0,2.29-2.47V75L28.51,56.11C24.6,62.23,23.09,79.87,23.09,93.59Z"/><path class="cls-5" d="M37.79,75l-9.2-5.1a1.11,1.11,0,0,1-.47-1.43l1.72-3.71-2.3-2a1.81,1.81,0,0,1-.53-1.9l1.5-4.71"/><path class="cls-3" d="M49.79,93.59c-2.45.76-8.92.43-12.4.18a2.47,2.47,0,0,1-2.3-2.47V75l9.29-18.88C48.28,62.23,49.79,79.87,49.79,93.59Z"/><path class="cls-5" d="M35.09,75l9.2-5.1a1.11,1.11,0,0,0,.47-1.43l-1.71-3.71,2.3-2a1.81,1.81,0,0,0,.52-1.9l-1.49-4.71"/><circle class="cls-6" cx="37.67" cy="83.79" r="1.53"/><path class="cls-7" d="M35.93,57.26,41.73,54a.85.85,0,0,1,1.26.74v4.72a.92.92,0,0,1-1.36.82Z"/><path class="cls-7" d="M34.57,56.47l-4.32-2.41a.89.89,0,0,0-1.32.78v4.71a.89.89,0,0,0,1.31.79L34.56,58A.89.89,0,0,0,34.57,56.47Z"/><rect class="cls-7" x="34.02" y="55.35" width="3.65" height="3.65" rx="0.73"/><path class="cls-4" d="M27.69,60.31a4.54,4.54,0,0,1-9.07,0c0-2.5,2-5,4.54-5S27.69,57.81,27.69,60.31Z"/><path class="cls-4" d="M43.9,60.31a4.54,4.54,0,0,0,9.07,0c0-2.5-2-5-4.54-5S43.9,57.81,43.9,60.31Z"/><path class="cls-4" d="M61.25,31.56c-.1,0-.2,0-.3,0,0-.46,0-.91,0-1.37,0-14-10.28-24.41-24.31-24.41S12.25,16.2,12.25,30.23c0,.48,0,1,.05,1.47a2.43,2.43,0,0,0-.76-.14c-1.62,0-2.93,1.64-2.93,3.66s1.31,3.66,2.93,3.66a2.58,2.58,0,0,0,1.76-.75,20.5,20.5,0,0,0,3.72,8c4.61,5.39,11.14,6,19.64,6,7.05,0,14.16-.74,18.48-4.5a16.77,16.77,0,0,0,4.94-9,2.51,2.51,0,0,0,1.17.3c1.64,0,3-1.64,3-3.66S62.89,31.56,61.25,31.56Z"/><path class="cls-4" d="M34.63,35.58a2,2,0,0,1-1.39.57,2,2,0,1,1,1.38-3.36"/><circle class="cls-8" cx="21.12" cy="32.22" r="1.16"/><circle class="cls-8" cx="48.38" cy="32.22" r="1.16"/><path class="cls-7" d="M28.6,42.71H40.66s-.77,5.15-5.88,5.15S28.6,42.71,28.6,42.71Z"/><path class="cls-9" d="M11.05,32.17C9.19,21.7,14.89,6.72,33,5.49s30,13.3,28.3,26.07c-1.11,0-1.34,4.59-2.48,4.59-.86,0-1.85-3.24-3.87-5.29a18.79,18.79,0,0,0-5.82-3.75s2.85,2.82,2.65,3.75-11.88-8.21-11.88-8.21.8,4.18-1.32,4.18-4.42-7.18-4.42-7.18-2.67,6-4.43,6S28,22.79,28,22.79s-5.69,6.65-6.84,6.65-.85-2.61-.85-2.61a23.19,23.19,0,0,0-3.89,4.31c-1.74,2.63-1,5-2.07,5S11.73,31.66,11.05,32.17Z"/><path class="cls-10" d="M33.8,129.51c0,2.87-10.4,2.87-10.4,0a5.2,5.2,0,1,1,10.4,0Z"/><path class="cls-10" d="M37.79,129.51c0,2.87,10.41,2.87,10.41,0a5.21,5.21,0,1,0-10.41,0Z"/><path class="cls-11" d="M33.8,127.81c0,2.87-10.4,2.87-10.4,0a5.2,5.2,0,1,1,10.4,0Z"/><path class="cls-11" d="M37.79,127.81c0,2.87,10.41,2.87,10.41,0a5.21,5.21,0,1,0-10.41,0Z"/><rect class="cls-7" x="73.42" y="53.17" width="29.62" height="33.06" rx="3.61"/><path class="cls-12" d="M87.88,50.33c-12.42,0-12.42,37.37-12.42,37.37h26.38S100.3,50.33,87.88,50.33Z"/><line class="cls-5" x1="90.09" y1="50.75" x2="90.09" y2="87.7"/><path class="cls-2" d="M96.57,52.59c0,4.68-5.27,8.87-8.47,4.27-3.2,4.6-8.47.41-8.47-4.27a8.47,8.47,0,1,1,16.94,0Z"/><path class="cls-12" d="M71,78.72a4.11,4.11,0,0,1-.77-.08A4,4,0,0,1,67.08,74,64.66,64.66,0,0,1,71,61.46a4,4,0,0,1,7.25,3.38,57.14,57.14,0,0,0-3.27,10.65A4,4,0,0,1,71,78.72Z"/><path class="cls-4" d="M81.1,129.81a4,4,0,0,1-4-4V99.64a4,4,0,0,1,8,0v26.17A4,4,0,0,1,81.1,129.81Z"/><path class="cls-2" d="M77.1,115.25a15.83,15.83,0,0,0,8,0v10.56h-8Z"/><path class="cls-7" d="M77.88,52.12c.7-.77,5.27-.25,5.73.47S80.31,56,79.44,58a36.25,36.25,0,0,0-1.56,6s-1.55,8.22-2.42,17.22a73.41,73.41,0,0,1-1.35-18.58,41.28,41.28,0,0,0,3.29-5.85C77.88,55.27,77.18,52.89,77.88,52.12Z"/><path class="cls-12" d="M105.19,78.72a4.11,4.11,0,0,0,.77-.08A4,4,0,0,0,109.11,74a63.56,63.56,0,0,0-3.86-12.49A4,4,0,0,0,98,64.84a56,56,0,0,1,3.26,10.65A4,4,0,0,0,105.19,78.72Z"/><path class="cls-4" d="M95.5,129.81a4,4,0,0,0,4-4V99.64a4,4,0,1,0-8,0v26.17A4,4,0,0,0,95.5,129.81Z"/><path class="cls-2" d="M99.5,115.25a15.83,15.83,0,0,1-8,0v10.56h8Z"/><path class="cls-7" d="M98.32,52.12c-.7-.77-5.27-.25-5.73.47S95.89,56,96.76,58a36.25,36.25,0,0,1,1.56,6s1.55,8.22,2.42,17.22a73.41,73.41,0,0,0,1.35-18.58,41.28,41.28,0,0,1-3.29-5.85C98.32,55.27,99,52.89,98.32,52.12Z"/><path class="cls-10" d="M86.31,129.32c0,2.88-10.41,2.88-10.41,0a5.21,5.21,0,0,1,10.41,0Z"/><path class="cls-10" d="M90.29,129.32c0,2.88,10.41,2.88,10.41,0a5.21,5.21,0,0,0-10.41,0Z"/><path class="cls-13" d="M86.31,127.62c0,2.88-10.41,2.88-10.41,0a5.21,5.21,0,0,1,10.41,0Z"/><path class="cls-13" d="M90.29,127.62c0,2.88,10.41,2.88,10.41,0a5.21,5.21,0,0,0-10.41,0Z"/><path class="cls-14" d="M75.46,87.7a73.19,73.19,0,0,0-4.53,11.11c11.27,3.68,25.53,4.24,36.2,0a45,45,0,0,0-5.29-11.11Z"/><circle class="cls-6" cx="86.63" cy="63.32" r="1.53"/><circle class="cls-6" cx="86.63" cy="71.14" r="1.53"/><circle class="cls-6" cx="86.63" cy="78.96" r="1.53"/><path class="cls-15" d="M74.15,37.5c4.94,0,1.51,5.53-1.06,7.2s-4,5.5-5.32,10.1a11.84,11.84,0,0,0,.11,8.35c-4.65-1.16-11.29-10.5-6-18.48C65,40,69.21,37.5,74.15,37.5Z"/><path class="cls-15" d="M101.28,37.5c-4.94,0-1.51,5.53,1.06,7.2s4,5.5,5.32,10.1a11.84,11.84,0,0,1-.11,8.35c4.65-1.16,11.29-10.5,6-18.48C110.45,40,106.22,37.5,101.28,37.5Z"/><circle class="cls-4" cx="88.1" cy="52.59" r="4.27"/><path class="cls-4" d="M113.77,31.56c-.1,0-.2,0-.3,0,0-.46,0-.91,0-1.37,0-14-10.28-24.41-24.31-24.41S64.77,16.2,64.77,30.23c0,.48,0,1,0,1.47a2.38,2.38,0,0,0-.76-.14c-1.62,0-2.93,1.64-2.93,3.66s1.31,3.66,2.93,3.66a2.58,2.58,0,0,0,1.76-.75,20.5,20.5,0,0,0,3.72,8c4.62,5.39,11.14,6,19.64,6,7,0,14.16-.74,18.48-4.5a16.77,16.77,0,0,0,4.94-9,2.51,2.51,0,0,0,1.17.3c1.64,0,3-1.64,3-3.66S115.41,31.56,113.77,31.56Z"/><path class="cls-4" d="M87.15,35.58a2,2,0,0,1-1.39.57,2,2,0,1,1,1.38-3.36"/><circle class="cls-8" cx="73.64" cy="32.22" r="1.16"/><circle class="cls-8" cx="100.9" cy="32.22" r="1.16"/><path class="cls-7" d="M82.2,42.71h8.85s-.55,5.15-4.31,5.15S82.2,42.71,82.2,42.71Z"/><path class="cls-15" d="M63.57,32.17C61.71,21.7,67.41,6.72,85.47,5.49s30,13.3,28.3,26.07c-5.76-.16-12.17-4.45-12.17-4.45s2.85,2.82,2.65,3.75-11.88-8.21-11.88-8.21.8,4.18-1.32,4.18-4.42-7.18-4.42-7.18-2.67,6-4.43,6-1.72-2.86-1.72-2.86-5.69,6.65-6.84,6.65-.85-2.61-.85-2.61a18.39,18.39,0,0,1-4.49,4.31C66.3,32.27,64.25,31.66,63.57,32.17Z"/><path class="cls-4" d="M80,60.31a4.54,4.54,0,0,1-9.07,0c0-2.5,2-5,4.53-5S80,57.81,80,60.31Z"/><path class="cls-4" d="M96.2,60.31a4.54,4.54,0,0,0,9.07,0c0-2.5-2-5-4.53-5S96.2,57.81,96.2,60.31Z"/></svg>