<svg id="レイヤー_1" data-name="レイヤー 1" xmlns="http://www.w3.org/2000/svg" xmlns:xlink="http://www.w3.org/1999/xlink" viewBox="0 0 445.27 297.92"><defs><style>.cls-1,.cls-10,.cls-15,.cls-17,.cls-22,.cls-23,.cls-24,.cls-25,.cls-3{fill:none;}.cls-2{fill:#d5143c;stroke-miterlimit:10;}.cls-17,.cls-18,.cls-2,.cls-3{stroke:#40220f;}.cls-10,.cls-11,.cls-12,.cls-14,.cls-15,.cls-16,.cls-17,.cls-18,.cls-22,.cls-23,.cls-24,.cls-25,.cls-3,.cls-7,.cls-8,.cls-9{stroke-linecap:round;stroke-linejoin:round;}.cls-4{clip-path:url(#clip-path);}.cls-12,.cls-5{fill:#fff;}.cls-5{opacity:0.3;}.cls-6{clip-path:url(#clip-path-2);}.cls-7{fill:#898989;}.cls-10,.cls-11,.cls-12,.cls-16,.cls-22,.cls-23,.cls-24,.cls-25,.cls-7,.cls-8,.cls-9{stroke:#41210d;}.cls-8{fill:#4e3819;}.cls-9{fill:#f2d9bd;}.cls-11{fill:#28328a;}.cls-13{fill:#41210d;}.cls-14{fill:#40210d;stroke:#40210d;}.cls-15{stroke:#fff;}.cls-16,.cls-20{fill:#e60012;}.cls-17{stroke-width:3px;}.cls-18{fill:#0068b2;}.cls-19{fill:#fffbc4;}.cls-21{fill:#22ac38;}.cls-22{stroke-dasharray:3.52 4.69;}.cls-23{stroke-dasharray:7.03 2.34 3.52 4.69;}.cls-24{stroke-dasharray:3.46 4.61;}.cls-25{stroke-dasharray:6.92 2.31 3.46 4.61;}</style><clipPath id="clip-path"><path id="SVGID" class="cls-1" d="M137.56,234.25c0,2.89-10.16,8.85-22.7,8.85s-22.71-6-22.71-8.85c0-7.07,10.17-12.29,22.71-12.29S137.56,227.18,137.56,234.25Z"/></clipPath><clipPath id="clip-path-2"><path id="SVGID-2" data-name="SVGID" class="cls-1" d="M66.26,238.8c0,2.89-10.17,8.86-22.71,8.86s-22.7-6-22.7-8.86c0-7.07,10.16-12.29,22.7-12.29S66.26,231.73,66.26,238.8Z"/></clipPath></defs><title>バランス能力例</title><path class="cls-2" d="M138.25,234c0,3-10.47,9.12-23.39,9.12S91.47,237,91.47,234c0-7.28,10.47-12.66,23.39-12.66S138.25,226.7,138.25,234Z"/><path class="cls-3" d="M128.93,238.29a84.61,84.61,0,0,1-14.07,1.08,83,83,0,0,1-14.5-1.16"/><g class="cls-4"><path class="cls-5" d="M115.19,236.55a120.71,120.71,0,0,1-15.83-.92c-6.63-.92-7.19-2.08-7.19-3.08H93.7a.56.56,0,0,0-.07-.27c.8,1,8.74,2.47,21.56,2.47s20.76-1.44,21.56-2.47a.46.46,0,0,0-.07.27h1.53c0,1-.56,2.16-7.19,3.08A120.93,120.93,0,0,1,115.19,236.55Z"/><path class="cls-5" d="M115.19,232.62a107.41,107.41,0,0,1-14.92-.92c-6-.89-6.81-2-6.81-3.09H95a.49.49,0,0,0-.06-.25c.76,1,8.23,2.46,20.27,2.46s19.5-1.43,20.27-2.46a.46.46,0,0,0-.07.25h1.53c0,1.08-.83,2.2-6.81,3.09A107.41,107.41,0,0,1,115.19,232.62Z"/><path class="cls-5" d="M115.19,229a72.72,72.72,0,0,1-12.25-.92c-5-.9-5.68-2.07-5.68-3.08h1.53a.35.35,0,0,0,0-.18c.61,1,6.82,2.38,16.44,2.38s15.83-1.41,16.44-2.38a.35.35,0,0,0,0,.18h1.52c0,1-.67,2.18-5.67,3.08A72.72,72.72,0,0,1,115.19,229Z"/><path class="cls-5" d="M115.19,226c-1.54,0-15.08-.11-15.08-4h1.53a.44.44,0,0,0,0-.12c.4.78,4.93,2.32,13.57,2.32s13.17-1.54,13.57-2.32a.44.44,0,0,0,0,.12h1.53C130.27,225.85,116.73,226,115.19,226Z"/><ellipse class="cls-5" cx="115.19" cy="221.4" rx="6.47" ry="1.4"/></g><path class="cls-2" d="M66.94,238.53c0,3-10.47,9.13-23.39,9.13s-23.39-6.15-23.39-9.13c0-7.28,10.47-12.66,23.39-12.66S66.94,231.25,66.94,238.53Z"/><path class="cls-3" d="M57.62,242.85a84.52,84.52,0,0,1-14.07,1.08,83.12,83.12,0,0,1-14.5-1.16"/><g class="cls-6"><path class="cls-5" d="M43.88,241.1a120.83,120.83,0,0,1-15.82-.91c-6.64-.93-7.19-2.08-7.19-3.09h1.52a.52.52,0,0,0-.07-.27c.8,1,8.74,2.48,21.56,2.48s20.76-1.44,21.57-2.48a.52.52,0,0,0-.07.27H66.9c0,1-.55,2.16-7.19,3.09A120.89,120.89,0,0,1,43.88,241.1Z"/><path class="cls-5" d="M43.88,237.17A107.57,107.57,0,0,1,29,236.26c-6-.89-6.81-2-6.81-3.09h1.53a.53.53,0,0,0-.06-.25c.76,1,8.23,2.45,20.26,2.45s19.51-1.42,20.27-2.45a.43.43,0,0,0-.06.25h1.52c0,1.08-.82,2.2-6.81,3.09A107.57,107.57,0,0,1,43.88,237.17Z"/><path class="cls-5" d="M43.88,233.59a72.82,72.82,0,0,1-12.25-.91c-5-.91-5.67-2.07-5.67-3.09h1.52a.48.48,0,0,0,0-.18c.61,1,6.81,2.39,16.43,2.39s15.83-1.41,16.44-2.39a.43.43,0,0,0,0,.18h1.53c0,1-.68,2.18-5.68,3.09A72.65,72.65,0,0,1,43.88,233.59Z"/><path class="cls-5" d="M43.88,230.51c-1.54,0-15.07-.11-15.07-4h1.52a.29.29,0,0,0,0-.12c.4.79,4.93,2.33,13.57,2.33s13.17-1.54,13.58-2.33a.29.29,0,0,0,0,.12H59C59,230.4,45.43,230.51,43.88,230.51Z"/><ellipse class="cls-5" cx="43.88" cy="225.96" rx="6.47" ry="1.4"/></g><path class="cls-7" d="M109,134.65l-5.53.24L100,143.94l3.12,4.12s6.38,1.38,8.38-4.12S109,134.65,109,134.65Z"/><path class="cls-8" d="M83.93,114.59S68.5,118,61.75,131.21c2.5,3,3.88,4.07,7.13,5.25a32.46,32.46,0,0,1,16.37-19.25Z"/><path class="cls-9" d="M58,173a4.5,4.5,0,0,1-3.2-7.66c1-1,23.88-24.05,40.48-33.5a4.5,4.5,0,0,1,4.45,7.83c-15.52,8.83-38.3,31.77-38.53,32A4.48,4.48,0,0,1,58,173Z"/><path class="cls-9" d="M134,156.9a4.26,4.26,0,0,1-.86-.09c-22.69-4.43-33.65-13.88-34.11-14.28a4.5,4.5,0,0,1,5.92-6.78c.16.13,9.88,8.31,29.91,12.23a4.5,4.5,0,0,1-.86,8.92Z"/><line class="cls-10" x1="83.75" y1="180.59" x2="85.93" y2="189.23"/><path class="cls-9" d="M41,228.48a4.5,4.5,0,0,1-2.4-8.3,51.72,51.72,0,0,0,15-16.86c6.56-11.61,8.54-25.83,8.55-26a4.5,4.5,0,0,1,8.92,1.21c-.08.65-2.23,16.1-9.63,29.19a59.84,59.84,0,0,1-18,20A4.5,4.5,0,0,1,41,228.48Z"/><path class="cls-9" d="M111,229.08a4.5,4.5,0,0,1-4.39-3.57A70.14,70.14,0,0,0,79,183.61,4.5,4.5,0,0,1,83.79,176c1,.63,24.89,15.92,31.62,47.65a4.51,4.51,0,0,1-3.47,5.34A5,5,0,0,1,111,229.08Z"/><path class="cls-11" d="M58,186.76a48.42,48.42,0,0,0,20.53,3.12l1.74-3.71,1.08,3.06c4.94-.76,11.12-2.11,14.86-4.32-5-5.81-4.55-13.59-4.55-13.59l-29.06.29S59,180.59,58,186.76Z"/><path class="cls-11" d="M80.27,186.17s.81-2.54,2.42-3"/><path class="cls-12" d="M105.88,128.26c-4.55-.63-15.91,5-25.13,14-10.78,10.59-19.25,25.47-19.93,34,12.13,1.87,19.31,2,31.81-.9-.89-6.35-1.85-14.87,1.25-21.75C100,140.05,112.43,129.18,105.88,128.26Z"/><path class="cls-12" d="M91,143.56a54.3,54.3,0,0,0,12.12,4.5c-4.12-6.63.35-13.17,5.88-13.41a15.17,15.17,0,0,0-5.38-1.84"/><path class="cls-9" d="M140.43,108.85c-.48,7.31-2.21,16.05-7.24,20.61-5.26,4.77-14,5.19-21.59,4.7a27.13,27.13,0,1,1,28.83-25.31Z"/><path class="cls-9" d="M124.78,110.62a3.32,3.32,0,1,1,0,4.69"/><circle class="cls-13" cx="108.13" cy="109.65" r="1.59"/><circle class="cls-13" cx="136.53" cy="110" r="1.59"/><path class="cls-8" d="M100,96l.75,4.88-3.75.87,1,4.38-4.4.5,1.9,2.37L91,112.34l6.5,6.5L92.63,120l3.25,3.38H93.63s.75,3.67,1.9,4.19c-10.65-4.44-16-15.57-13.78-28.94s14.13-21,32.13-20.38,25.43,13,25.43,21C126.63,96.21,100,96,100,96Z"/><path class="cls-8" d="M117.3,80.25c-14.8-2.66-21.92,14.09-17.3,25.34,23.75,1.55,35.38,1.78,42.23.23C142.26,93.07,131.75,79.91,117.3,80.25Z"/><path class="cls-14" d="M38.34,232.21c-.12,3.25,11.65,3.67,11.77.42a5.89,5.89,0,1,0-11.77-.42Z"/><path class="cls-14" d="M38.34,232.21s-4.21-7.41-2.8-9l3.19-3.65a9.51,9.51,0,0,0,7.71,6.32l-1,3.11Z"/><path class="cls-15" d="M44.67,227.21a4.58,4.58,0,0,0-1.53-.09,4.71,4.71,0,0,0-3.86,2.75"/><path class="cls-14" d="M111,229.51c1,3.09,12.21-.48,11.23-3.58A5.89,5.89,0,1,0,111,229.51Z"/><path class="cls-14" d="M111.15,229.58s-5.71-1.44-5.84-3.59l-.3-4.83a9.52,9.52,0,0,0,9.93-.93l1.51,2.89Z"/><path class="cls-15" d="M115.51,223a4.66,4.66,0,0,0-1.51.23,4.73,4.73,0,0,0-3.2,3.51"/><path class="cls-16" d="M119.25,122.21h11.19s-5.19,7.75-8.69,7.75S119.25,122.21,119.25,122.21Z"/><path class="cls-9" d="M94.38,115.12a2.91,2.91,0,0,1-2.26,1.16c-1.75,0-3.18-1.77-3.18-3.94s1.43-3.94,3.18-3.94a2.93,2.93,0,0,1,2.26,1.15"/><path class="cls-16" d="M241.36,140.12a5,5,0,0,0,.14-1.16c0-5.93-11.08-10.75-24.75-10.75S192,133,192,139a5,5,0,0,0,.14,1.15.73.73,0,0,0-.14.45c0,5.94,11.08,10.75,24.75,10.75s24.75-4.81,24.75-10.75A.68.68,0,0,0,241.36,140.12Zm-24.61-4.41c5.28,0,9.56,1.46,9.56,3.25s-4.28,3.25-9.56,3.25-9.55-1.45-9.55-3.25S211.48,135.71,216.75,135.71Z"/><path class="cls-15" d="M198.9,146c4.51,2,10.84,3.3,17.85,3.3a47.7,47.7,0,0,0,15.84-2.48"/><path class="cls-10" d="M179.75,137.21s-3.25,7.7,18.5,14.1"/><path class="cls-10" d="M175.14,138.72s-3.25,7.7,18.5,14.1"/><line class="cls-17" x1="380.77" y1="179.1" x2="421.36" y2="179.1"/><polygon class="cls-18" points="399.12 25.49 274.65 98.63 274.65 280.36 399.12 178.32 399.12 25.49"/><path class="cls-19" d="M365.5,118.62c0,17.14-10.15,38.53-23.09,48.09-13.42,9.91-24.68,3.37-24.68-15s11.26-40.49,24.68-49.2C355.35,94.17,365.5,101.48,365.5,118.62Z"/><path class="cls-20" d="M316.86,106.44c0,9.88-6.23,22-14.05,27.11-8,5.24-14.6,1.24-14.6-9s6.61-22.6,14.6-27.45C310.63,92.32,316.86,96.55,316.86,106.44Z"/><path class="cls-20" d="M388.79,61.89c0,8.92-5.07,19.48-11.43,23.66s-11.83.29-11.83-8.94,5.35-20,11.83-23.92S388.79,53,388.79,61.89Z"/><path class="cls-21" d="M323.45,207.08c0,11.22-7,25.95-15.86,33-9,7.26-16.55,3.78-16.55-7.94s7.5-26.82,16.55-33.58C316.43,192,323.45,195.86,323.45,207.08Z"/><path class="cls-21" d="M389.93,155.59c0,10.21-5.79,23.13-13.08,29-7.45,6-13.61,2.31-13.61-8.31s6.16-23.81,13.61-29.38C384.14,141.44,389.93,145.39,389.93,155.59Z"/><line class="cls-17" x1="241.7" y1="280.36" x2="315.34" y2="280.36"/><path class="cls-10" d="M54.1,190c-.05.68-.6.39-.77,1.26-.08.37.37.94.24,1.45s-.77.67-.92,1.14.27,1,.1,1.46v0"/><path class="cls-22" d="M51.77,197.24a1.13,1.13,0,0,1,0,.61c-.17.39-.88.56-1.08,1s.11,1.06-.11,1.47-.92.52-1.14.92a1.48,1.48,0,0,0-.09.77"/><path class="cls-23" d="M47.94,203.67c-.14.39,0,1-.22,1.32s-1,.41-1.24.79-.12,1.12-.42,1.52-1,.42-1.36.81-.17,1.11-.5,1.5-1.06.37-1.39.74-.23,1.11-.58,1.47-1.07.32-1.42.68-.29,1.09-.64,1.44-.77.28-1.15.43"/><path class="cls-10" d="M37.67,216.15a3.32,3.32,0,0,0-1.14.37c-.37.32-.38,1.07-.76,1.39s-1.11.18-1.5.49-.42,1.06-.81,1.36"/><path class="cls-10" d="M104,186c.56.47,0,.76.71,1.41.29.29,1,.23,1.44.63s.24,1.06.6,1.45.72.3,1.09.48"/><path class="cls-24" d="M108.9,191.83c.35.18.86.26,1.1.57s.15,1.1.46,1.5,1,.43,1.33.84.15.88.28,1.29"/><path class="cls-25" d="M113.6,197.6a3,3,0,0,0,.18,1.11c.26.41,1,.54,1.25,1s0,1.12.24,1.56.92.5,1.12.89-.1,1,.1,1.44.89.54,1.08,1-.15,1,0,1.44.87.59,1,1-.2,1,0,1.44.83.64,1,1.06a1,1,0,0,1,0,.45"/><path class="cls-10" d="M120.31,211.85a.94.94,0,0,1,.06.15c.12.42-.31,1-.2,1.43s.76.72.86,1.15-.36,1-.28,1.42.72.76.8,1.2"/></svg>