<svg id="レイヤー_1" data-name="レイヤー 1" xmlns="http://www.w3.org/2000/svg" xmlns:xlink="http://www.w3.org/1999/xlink" viewBox="0 0 218 218"><defs><style>.cls-1{fill:none;}.cls-2{clip-path:url(#clip-path);}.cls-3{clip-path:url(#clip-path-2);}.cls-4{fill:#9b7656;}.cls-5{clip-path:url(#clip-path-3);}.cls-6{fill:#f5dcbe;}.cls-12,.cls-6,.cls-7,.cls-9{stroke:#42210b;}.cls-10,.cls-11,.cls-12,.cls-6,.cls-7,.cls-9{stroke-linecap:round;stroke-linejoin:round;stroke-width:2px;}.cls-7{fill:#e60012;}.cls-8{fill:#42210b;}.cls-9{fill:#736357;}.cls-10{fill:#273288;}.cls-10,.cls-11{stroke:#40210d;}.cls-11{fill:#fff;}.cls-12{fill:#534741;}.cls-13{fill:#fff000;}.cls-14{fill:#40220f;}.cls-15{fill:#ed86b3;}.cls-16{fill:#8dc21f;}.cls-17{fill:#036eb7;}.cls-18{fill:#f29600;}</style><clipPath id="clip-path"><rect id="SVGID" class="cls-1" x="8" y="-230" width="200" height="200" rx="10"/></clipPath><clipPath id="clip-path-2"><rect id="SVGID-2" data-name="SVGID" class="cls-1" x="-293.76" y="-298" width="568.77" height="326.6"/></clipPath><clipPath id="clip-path-3"><rect id="SVGID-3" data-name="SVGID" class="cls-1" x="10.06" y="10.44" width="200" height="200" rx="10"/></clipPath></defs><title>2-1-1 ジャングルジムを使う</title><g class="cls-2"><g class="cls-3"><path class="cls-4" d="M157.61-86l-.5-1.12-1.65.75L-37-119.27l-.27,0-380.4,66-2.12.37,163.31,347.28.85,1.81L241.12-71.68ZM41-102.61l47,8-455,145.94L-388.59,5.62,41.05-102.21ZM-390,2.6-403.95-27-2.2-110l36.14,6.18Zm484.92-96,55.2,9.44L-329,132.28l-36.64-77.92ZM-37.25-116l26.18,4.48L-405.39-30.1-415-50.46ZM-327.63,135.25,155.9-82.94,233-69.74-254.34,291.11Z"/></g></g><g class="cls-5"><path class="cls-6" d="M146.73,139.76a4.3,4.3,0,0,1-4.3-4.29,28.85,28.85,0,0,0-11.77-23.8,4.3,4.3,0,0,1,4.62-7.25A37.48,37.48,0,0,1,151,135.47,4.29,4.29,0,0,1,146.73,139.76Z"/><path class="cls-6" d="M119.93,142.64a4.29,4.29,0,0,1-4.3-4.3V108.05a4.3,4.3,0,0,1,8.59,0v30.29A4.29,4.29,0,0,1,119.93,142.64Z"/><path class="cls-6" d="M159,53.76a28.86,28.86,0,0,1-28.86,28.86c-9.86,0-22-8.35-27.19-15.9-3.2-4.65-3-7.33-1.66-13a28.86,28.86,0,1,1,57.71,0Z"/><path class="cls-6" d="M119.93,48.59a3.29,3.29,0,1,1,3.29-3.29"/><ellipse class="cls-7" cx="119.93" cy="58.3" rx="2.12" ry="4.25"/><ellipse class="cls-8" cx="108.55" cy="47.74" rx="1.51" ry="2.44"/><circle class="cls-8" cx="137.8" cy="43.96" r="2.75"/><path class="cls-9" d="M151.07,41.21v8.88s1.14,14.08-4.69,27.53C159,71.22,159,52.05,159,52.05Z"/><path class="cls-10" d="M112.55,104.67a73.34,73.34,0,0,0,0,17.09,56.29,56.29,0,0,0,14.89.61l2.24-8,5.37,7.38s9.14-1.52,13.37-5.81c-3.21-4.57-5.86-12.19-5.86-12.19Z"/><path class="cls-6" d="M113.85,82.62a4.2,4.2,0,0,1-2.17-.61c-.73-.44-18.17-11.12-23.62-27.93a4.19,4.19,0,1,1,8-2.59c4.48,13.8,19.84,23.25,20,23.34a4.2,4.2,0,0,1-2.17,7.79Z"/><path class="cls-11" d="M101.61,79.17a59.75,59.75,0,0,0,12.77,7.26c6.5-1.8,7.67-10.11,7.67-10.11a48.53,48.53,0,0,1-12.22-8C107,69.54,102.33,75.11,101.61,79.17Z"/><path class="cls-11" d="M135.05,75.55a17.73,17.73,0,0,0-1.37-2.17,7.06,7.06,0,0,1-13.18-.63,8,8,0,0,0-.57.57s-9.87,12.23-9.87,41.84c19.18,2,27.74.79,38.36-4.11C144.05,106.22,146.38,90.05,135.05,75.55Z"/><path class="cls-12" d="M120.43,31l-2.5,5.33s-7.22.43-16.72,9.06c4-9.54,14.42-20.52,25.5-21,16.44-.7,25,4.78,31,15.45s3.5,17.34,3.5,17.34c-6.73-2.46-8.66-10.51-8.66-10.51S140.43,35.1,122.43,36.19Z"/><path class="cls-6" d="M149.1,46.33a3.15,3.15,0,0,1,2.72-.86c1.91.39,3.05,2.76,2.54,5.31s-2.48,4.31-4.39,3.93a3.25,3.25,0,0,1-2.3-2.13"/><path class="cls-13" d="M-52.72,226.72a4.48,4.48,0,0,1-3.73-2,4.45,4.45,0,0,1-.69-3.38,4.41,4.41,0,0,1,1.9-2.87l105.06-71a4.49,4.49,0,0,1,3.41-.68L186.1,173.91a4.5,4.5,0,0,1-.89,8.91,4.6,4.6,0,0,1-.91-.09L53.29,156-50.21,226A4.48,4.48,0,0,1-52.72,226.72Z"/><path class="cls-14" d="M52.34,147.74a3.39,3.39,0,0,1,.7.07L185.9,174.89a3.5,3.5,0,0,1-.69,6.93,3.42,3.42,0,0,1-.71-.07L53.08,155-50.77,225.12a3.52,3.52,0,0,1-1.95.6,3.51,3.51,0,0,1-2.91-1.54,3.5,3.5,0,0,1,1-4.86l105.06-71a3.43,3.43,0,0,1,2-.6m0-2a5.43,5.43,0,0,0-3.08.94l-105.06,71a5.47,5.47,0,0,0-2.33,3.51,5.49,5.49,0,0,0,.85,4.13,5.51,5.51,0,0,0,4.56,2.42,5.5,5.5,0,0,0,3.07-.94L53.5,157.09l130.6,26.62a5.22,5.22,0,0,0,1.11.11,5.5,5.5,0,0,0,1.09-10.89L53.43,145.85a5.76,5.76,0,0,0-1.09-.11Z"/><path class="cls-13" d="M21.46,219.74a4.51,4.51,0,0,1-4.39-4.6l2.7-119.88a4.52,4.52,0,0,1,4.5-4.39h.11a4.43,4.43,0,0,1,3.14,1.39,4.51,4.51,0,0,1,1.25,3.21l-2.7,119.87a4.52,4.52,0,0,1-4.49,4.4Z"/><path class="cls-14" d="M24.27,91.87h.08a3.5,3.5,0,0,1,3.42,3.57l-2.7,119.88a3.49,3.49,0,0,1-3.49,3.42h-.09a3.5,3.5,0,0,1-3.42-3.58l2.7-119.87a3.49,3.49,0,0,1,3.5-3.42m0-2a5.53,5.53,0,0,0-5.5,5.37l-2.7,119.88a5.52,5.52,0,0,0,5.38,5.62h.13a5.53,5.53,0,0,0,5.49-5.37l2.7-119.88a5.52,5.52,0,0,0-5.38-5.62Z"/><path class="cls-13" d="M53.52,195.13a4.49,4.49,0,0,1-4.38-4.6L51.65,79.17a4.52,4.52,0,0,1,4.48-4.4h.13a4.51,4.51,0,0,1,4.39,4.6L58.14,190.74a4.54,4.54,0,0,1-4.5,4.4Z"/><path class="cls-14" d="M56.13,75.77h.1a3.5,3.5,0,0,1,3.42,3.58L57.14,190.71a3.51,3.51,0,0,1-3.5,3.43h-.08a3.49,3.49,0,0,1-3.42-3.57L52.65,79.19a3.51,3.51,0,0,1,3.48-3.42m0-2h0a5.53,5.53,0,0,0-5.48,5.38L48.14,190.51a5.5,5.5,0,0,0,5.37,5.62h.13a5.55,5.55,0,0,0,5.5-5.38L61.65,79.39a5.5,5.5,0,0,0-5.38-5.62Z"/><path class="cls-13" d="M92.88,206a4.51,4.51,0,0,1-4.38-4.6L91.22,80.47a4.52,4.52,0,0,1,4.49-4.4h.12a4.51,4.51,0,0,1,4.39,4.6L97.5,201.61A4.53,4.53,0,0,1,93,206Z"/><path class="cls-14" d="M95.71,77.07h.09a3.51,3.51,0,0,1,3.42,3.58L96.5,201.59A3.51,3.51,0,0,1,93,205h-.08a3.51,3.51,0,0,1-3.42-3.58L92.22,80.49a3.5,3.5,0,0,1,3.49-3.42m0-2h0a5.53,5.53,0,0,0-5.49,5.38L87.5,201.38A5.5,5.5,0,0,0,92.87,207H93a5.54,5.54,0,0,0,5.5-5.38L101.22,80.7a5.5,5.5,0,0,0-5.38-5.63Z"/><path class="cls-13" d="M136.37,218.21a4.5,4.5,0,0,1-4.37-4.62L135.45,87.1a4.47,4.47,0,0,1,4.49-4.38h.13a4.5,4.5,0,0,1,4.37,4.62L141,213.84a4.48,4.48,0,0,1-4.5,4.37Z"/><path class="cls-14" d="M139.94,83.72h.1a3.49,3.49,0,0,1,3.4,3.59L140,213.81a3.5,3.5,0,0,1-3.5,3.4h-.1a3.5,3.5,0,0,1-3.4-3.59l3.45-126.5a3.49,3.49,0,0,1,3.49-3.4m0-2a5.46,5.46,0,0,0-5.49,5.35L131,213.56a5.51,5.51,0,0,0,5.35,5.65h.15a5.48,5.48,0,0,0,5.5-5.35l3.44-126.49a5.5,5.5,0,0,0-5.35-5.65Z"/><path class="cls-13" d="M-1.26,242a4.49,4.49,0,0,1-3.42-1.58,4.51,4.51,0,0,1-1.07-3.28,4.47,4.47,0,0,1,1.57-3.07l91.95-78.46a4.5,4.5,0,0,1,6.35.5,4.52,4.52,0,0,1-.5,6.35l-92,78.46A4.52,4.52,0,0,1-1.26,242Z"/><path class="cls-14" d="M90.69,155.55A3.5,3.5,0,0,1,93,161.72L1,240.18a3.51,3.51,0,0,1-2.27.84,3.49,3.49,0,0,1-2.66-1.23,3.5,3.5,0,0,1,.39-4.94l92-78.46a3.51,3.51,0,0,1,2.27-.84m0-2h0a5.48,5.48,0,0,0-3.56,1.32l-92,78.46a5.43,5.43,0,0,0-1.91,3.75,5.43,5.43,0,0,0,1.3,4A5.5,5.5,0,0,0-1.26,243a5.51,5.51,0,0,0,3.57-1.32l92-78.46a5.5,5.5,0,0,0-3.57-9.69Z"/><path class="cls-13" d="M163.37,207.12a4.46,4.46,0,0,1-1-.12L25.82,175a4.5,4.5,0,1,1,2.06-8.77l136.51,32a4.5,4.5,0,0,1-1,8.88Z"/><path class="cls-14" d="M26.85,167.1a3.19,3.19,0,0,1,.8.1l136.52,32a3.5,3.5,0,0,1-.8,6.91,3.7,3.7,0,0,1-.8-.09L26.05,174a3.5,3.5,0,0,1,.8-6.91m0-2h0a5.47,5.47,0,0,0-5.35,4.25,5.41,5.41,0,0,0,.68,4.15A5.47,5.47,0,0,0,25.6,176l136.51,32a5.36,5.36,0,0,0,1.26.15,5.5,5.5,0,0,0,1.25-10.85l-136.51-32a5.36,5.36,0,0,0-1.26-.15Z"/><path class="cls-13" d="M-54.29,180.19a4.51,4.51,0,0,1-3.92-2.29,4.49,4.49,0,0,1-.42-3.42,4.48,4.48,0,0,1,2.13-2.71L53.16,110a4.53,4.53,0,0,1,2.21-.58,4.22,4.22,0,0,1,.79.07l134.29,23.86a4.51,4.51,0,0,1,3.65,5.21,4.5,4.5,0,0,1-4.44,3.72,5.14,5.14,0,0,1-.78-.07L56.17,118.65l-108.26,61A4.46,4.46,0,0,1-54.29,180.19Z"/><path class="cls-14" d="M55.37,110.44a4.18,4.18,0,0,1,.61,0l134.3,23.86a3.5,3.5,0,0,1-.62,7,3.23,3.23,0,0,1-.61-.06L56,117.61-52.58,178.74a3.53,3.53,0,0,1-1.71.45,3.49,3.49,0,0,1-3.05-1.78A3.5,3.5,0,0,1-56,172.64L53.65,110.89a3.48,3.48,0,0,1,1.72-.45m0-2a5.55,5.55,0,0,0-2.7.71L-57,170.9a5.46,5.46,0,0,0-2.6,3.31,5.45,5.45,0,0,0,.5,4.18,5.53,5.53,0,0,0,4.8,2.8,5.58,5.58,0,0,0,2.7-.71L56.35,119.7,188.7,143.21a5.2,5.2,0,0,0,1,.09,5.5,5.5,0,0,0,1-10.92L56.33,108.53a5.12,5.12,0,0,0-1-.09Z"/><path class="cls-13" d="M166.5,164.23a4.51,4.51,0,0,1-.81-.07l-143-26.24a4.5,4.5,0,0,1,.81-8.92,4.43,4.43,0,0,1,.81.07l143,26.24a4.5,4.5,0,0,1-.81,8.92Z"/><path class="cls-14" d="M23.54,130a3.36,3.36,0,0,1,.63.06l143,26.23a3.5,3.5,0,0,1-.63,6.94,3.36,3.36,0,0,1-.63-.06l-143-26.23a3.5,3.5,0,0,1,.63-6.94m0-2h0a5.5,5.5,0,0,0-1,10.91l143,26.23a5.61,5.61,0,0,0,1,.09,5.5,5.5,0,0,0,1-10.91l-143-26.23a5.44,5.44,0,0,0-1-.09Z"/><path class="cls-15" d="M187.75,222.31a4.51,4.51,0,0,1-4.39-4.6L186.08,97.2a4.47,4.47,0,0,1,4.47-4.4h.14a4.43,4.43,0,0,1,3.14,1.39,4.51,4.51,0,0,1,1.25,3.21l-2.72,120.5a4.52,4.52,0,0,1-4.5,4.4Z"/><path class="cls-14" d="M190.55,93.8h.11a3.5,3.5,0,0,1,3.42,3.57l-2.72,120.51a3.49,3.49,0,0,1-3.5,3.42h-.08a3.5,3.5,0,0,1-3.42-3.58l2.72-120.5a3.48,3.48,0,0,1,3.47-3.43m0-2h0a5.46,5.46,0,0,0-5.47,5.38l-2.72,120.51a5.52,5.52,0,0,0,5.38,5.62h.12a5.53,5.53,0,0,0,5.5-5.37l2.72-120.51a5.5,5.5,0,0,0-5.38-5.62Z"/><path class="cls-16" d="M188.27,99.34a4.14,4.14,0,0,1-.7-.06L57.9,78.83A4.5,4.5,0,0,1,55,77a4.5,4.5,0,0,1,3.62-7.15,4.37,4.37,0,0,1,.72.06L189,90.39a4.5,4.5,0,0,1,2.94,1.8,4.51,4.51,0,0,1-3.64,7.15Z"/><path class="cls-14" d="M58.58,70.88a3.53,3.53,0,0,1,.56.05L188.81,91.38a3.5,3.5,0,0,1-.54,7,5.28,5.28,0,0,1-.55,0L58.05,77.84a3.5,3.5,0,0,1,.53-7m0-2h0a5.5,5.5,0,0,0-.84,10.94l129.67,20.45a5.07,5.07,0,0,0,.86.07,5.5,5.5,0,0,0,.86-10.93L59.45,69a4.94,4.94,0,0,0-.87-.07Z"/><path class="cls-16" d="M-53.24,133.65a4.48,4.48,0,0,1-4-2.52,4.51,4.51,0,0,1,2.06-6L56.62,70.34a4.5,4.5,0,0,1,4,8.08L-51.27,133.19A4.38,4.38,0,0,1-53.24,133.65Z"/><path class="cls-14" d="M58.59,70.88a3.5,3.5,0,0,1,1.55,6.65L-51.71,132.29a3.37,3.37,0,0,1-1.53.36,3.5,3.5,0,0,1-3.15-2,3.5,3.5,0,0,1,1.6-4.68L57.06,71.24a3.5,3.5,0,0,1,1.53-.36m0-2h0a5.46,5.46,0,0,0-2.41.56L-55.67,124.21a5.51,5.51,0,0,0-2.52,7.36,5.47,5.47,0,0,0,4.95,3.08,5.46,5.46,0,0,0,2.41-.56L61,79.32A5.5,5.5,0,0,0,58.6,68.88Z"/><path class="cls-16" d="M.93,145a4.5,4.5,0,0,1-4.4-5.47,4.51,4.51,0,0,1,2-2.83L92.81,76.37a4.54,4.54,0,0,1,2.42-.7A4.5,4.5,0,0,1,97.66,84L3.35,144.28A4.5,4.5,0,0,1,.93,145Z"/><path class="cls-14" d="M95.23,76.67a3.5,3.5,0,0,1,1.89,6.44L2.81,143.43A3.43,3.43,0,0,1,.93,144,3.5,3.5,0,0,1-1,137.54L93.35,77.22a3.42,3.42,0,0,1,1.88-.55m0-2a5.55,5.55,0,0,0-3,.86L-2,135.85a5.47,5.47,0,0,0-2.41,3.46A5.51,5.51,0,0,0,.93,146a5.47,5.47,0,0,0,3-.87L98.2,84.8a5.5,5.5,0,0,0-3-10.13Z"/><path class="cls-16" d="M165.31,121a5,5,0,0,1-.77-.06L22.73,96.7a4.5,4.5,0,0,1,.75-8.94,4.08,4.08,0,0,1,.77.07l141.81,24.23a4.5,4.5,0,0,1-.75,8.93Z"/><path class="cls-14" d="M23.48,88.76a4,4,0,0,1,.6,0L165.89,113a3.5,3.5,0,0,1-.58,6.95,3,3,0,0,1-.6,0L22.9,95.71a3.5,3.5,0,0,1,.58-6.95m0-2h0a5.51,5.51,0,0,0-.92,10.93l141.82,24.22a4.8,4.8,0,0,0,.93.08,5.5,5.5,0,0,0,.92-10.92L24.41,86.84a5.74,5.74,0,0,0-.93-.08Z"/><path class="cls-17" d="M33.25,245.2a4.49,4.49,0,0,1-4.38-4.6L32.27,89a4.48,4.48,0,0,1,2.12-3.72L65.87,65.72a4.5,4.5,0,0,1,6.87,3.93L69.32,221.27a4.5,4.5,0,0,1-4.44,4.4h-.17a4.47,4.47,0,0,1-4.38-4.59L63.56,77.75,41.21,91.63,37.86,240.8a4.52,4.52,0,0,1-4.49,4.4Z"/><path class="cls-14" d="M68.24,66A3.59,3.59,0,0,1,70,66.5a3.52,3.52,0,0,1,1.76,3.12L68.32,221.25a3.48,3.48,0,0,1-3.44,3.42h-.13a3.5,3.5,0,0,1-3.42-3.58L64.6,75.93,40.22,91.07,36.86,240.78a3.49,3.49,0,0,1-3.49,3.42h-.08a3.48,3.48,0,0,1-3.42-3.57L33.27,89a3.48,3.48,0,0,1,1.65-2.89L66.4,66.57A3.48,3.48,0,0,1,68.24,66m0-2a5.52,5.52,0,0,0-2.9.83L33.87,84.42A5.47,5.47,0,0,0,31.27,89l-3.4,151.61a5.5,5.5,0,0,0,5.37,5.62h.13a5.52,5.52,0,0,0,5.49-5.37L42.2,92.19,62.52,79.58,59.33,221a5.5,5.5,0,0,0,5.37,5.63h.18a5.5,5.5,0,0,0,5.44-5.38L73.74,69.67A5.51,5.51,0,0,0,68.24,64Z"/><path class="cls-17" d="M115.83,81.24a5,5,0,0,1-.67,0L67.57,74A4.5,4.5,0,0,1,68.24,65a5.31,5.31,0,0,1,.68,0l47.58,7.19a4.51,4.51,0,0,1-.67,9Z"/><path class="cls-14" d="M68.24,66a4.73,4.73,0,0,1,.53,0l47.58,7.19a3.5,3.5,0,0,1-.52,7,4.91,4.91,0,0,1-.53,0L67.72,73a3.5,3.5,0,0,1,.52-7m0-2h0A5.5,5.5,0,0,0,67.42,75L115,82.17a5.67,5.67,0,0,0,.82.07,5.5,5.5,0,0,0,.82-10.94L69.07,64.11a4.65,4.65,0,0,0-.83-.07Z"/><path class="cls-17" d="M89.58,102.16a4.46,4.46,0,0,1-.72-.06L36.05,93.53a4.5,4.5,0,0,1,.71-8.94,4.59,4.59,0,0,1,.73.06L90.3,93.22a4.5,4.5,0,0,1-.72,8.94Z"/><path class="cls-14" d="M36.76,85.59a3.66,3.66,0,0,1,.57,0l52.81,8.57a3.5,3.5,0,0,1-.56,7,3.6,3.6,0,0,1-.56,0L36.21,92.55a3.5,3.5,0,0,1,.55-7m0-2h0a5.5,5.5,0,0,0-.87,10.93l52.81,8.57a5.3,5.3,0,0,0,.88.07,5.5,5.5,0,0,0,.88-10.93L37.65,83.66a6.67,6.67,0,0,0-.89-.07Z"/><path class="cls-17" d="M85.33,259.33A4.51,4.51,0,0,1,81,254.71L85.08,97.54a4.51,4.51,0,0,1,1.69-3.4L113,73.22a4.51,4.51,0,0,1,4.81-.51,4.52,4.52,0,0,1,2.5,4.14L116.19,234a4.53,4.53,0,0,1-4.5,4.38h-.11a4.51,4.51,0,0,1-4.39-4.62l3.89-147.51L94,99.87,90,255a4.47,4.47,0,0,1-4.5,4.38Z"/><path class="cls-14" d="M115.83,73.24a3.6,3.6,0,0,1,1.56.36,3.52,3.52,0,0,1,1.94,3.23L115.19,234a3.51,3.51,0,0,1-3.5,3.41h-.09a3.5,3.5,0,0,1-3.41-3.59l3.94-149.66L93,99.38,89,254.92a3.5,3.5,0,0,1-3.5,3.41h-.09A3.5,3.5,0,0,1,82,254.74L86.08,97.57a3.49,3.49,0,0,1,1.32-2.64L113.65,74a3.45,3.45,0,0,1,2.18-.76m0-2a5.47,5.47,0,0,0-3.43,1.2L86.15,93.36a5.5,5.5,0,0,0-2.07,4.16L80,254.69a5.5,5.5,0,0,0,5.36,5.64h.14A5.47,5.47,0,0,0,91,255L95,100.37l15-12L106.2,233.77a5.48,5.48,0,0,0,5.35,5.64h.14a5.47,5.47,0,0,0,5.5-5.36l4.14-157.17a5.49,5.49,0,0,0-5.5-5.64Z"/><path class="cls-13" d="M48,254.31a4.49,4.49,0,0,1-4.5-4.66,4.45,4.45,0,0,1,1.43-3.13l87.6-81.61a4.5,4.5,0,1,1,6.13,6.58L51,253.1A4.46,4.46,0,0,1,48,254.31Z"/><path class="cls-14" d="M135.56,164.7a3.5,3.5,0,0,1,2.39,6.06l-87.6,81.61a3.5,3.5,0,0,1-4.77-5.12l87.6-81.61a3.47,3.47,0,0,1,2.38-.94m0-2h0a5.51,5.51,0,0,0-3.75,1.48l-87.59,81.6a5.51,5.51,0,0,0-.28,7.78,5.5,5.5,0,0,0,7.78.27l87.59-81.6a5.43,5.43,0,0,0,1.75-3.83,5.5,5.5,0,0,0-5.5-5.7Z"/><path class="cls-13" d="M139.09,234.1A4.41,4.41,0,0,1,138,234L-10.8,197.54a4.48,4.48,0,0,1-2.77-2,4.45,4.45,0,0,1-.53-3.4,4.49,4.49,0,0,1,4.37-3.43,4.29,4.29,0,0,1,1.07.13l148.82,36.43a4.5,4.5,0,0,1,3.3,5.44A4.48,4.48,0,0,1,139.09,234.1Z"/><path class="cls-14" d="M-9.73,189.67a3.44,3.44,0,0,1,.84.1L139.92,226.2a3.5,3.5,0,0,1-.83,6.9,3.42,3.42,0,0,1-.83-.1L-10.56,196.57a3.5,3.5,0,0,1-2.57-4.23,3.51,3.51,0,0,1,3.4-2.67m0-2h0a5.49,5.49,0,0,0-5.34,4.19,5.46,5.46,0,0,0,.64,4.16,5.45,5.45,0,0,0,3.4,2.49l148.81,36.43a5.4,5.4,0,0,0,1.31.16,5.48,5.48,0,0,0,5.34-4.19,5.5,5.5,0,0,0-4-6.65L-8.42,187.83a5.28,5.28,0,0,0-1.31-.16Z"/><path class="cls-16" d="M141,142.29a4.4,4.4,0,0,1-.8-.07l-155-27.85a4.51,4.51,0,0,1-3.63-5.23,4.49,4.49,0,0,1,4.43-3.7,4.22,4.22,0,0,1,.79.07l155,27.85a4.5,4.5,0,0,1-.79,8.93Z"/><path class="cls-14" d="M-14,106.44a4.44,4.44,0,0,1,.62,0l155,27.86a3.5,3.5,0,0,1-.62,6.94,3.31,3.31,0,0,1-.62,0l-155-27.86a3.5,3.5,0,0,1-2.83-4.06A3.5,3.5,0,0,1-14,106.44m0-2h0A5.49,5.49,0,0,0-19.43,109,5.51,5.51,0,0,0-15,115.35l155,27.86a6.58,6.58,0,0,0,1,.08,5.5,5.5,0,0,0,1-10.91L-13,104.52a6.45,6.45,0,0,0-1-.08Z"/><path class="cls-13" d="M53.59,201.71a4.5,4.5,0,0,1-2.82-8L136,125.3a4.56,4.56,0,0,1,2.81-1,4.5,4.5,0,0,1,4.48,5,4.45,4.45,0,0,1-1.66,3l-85.21,68.4A4.53,4.53,0,0,1,53.59,201.71Z"/><path class="cls-14" d="M138.8,125.31a3.5,3.5,0,0,1,2.2,6.23l-85.22,68.4a3.5,3.5,0,0,1-4.38-5.46l85.22-68.4a3.52,3.52,0,0,1,2.18-.77m0-2h0a5.5,5.5,0,0,0-3.44,1.22L50.15,192.92A5.5,5.5,0,1,0,57,201.5l85.22-68.4a5.5,5.5,0,0,0-3.45-9.79Z"/><path class="cls-13" d="M140.11,189.21a4.86,4.86,0,0,1-1-.11l-148.89-34a4.44,4.44,0,0,1-2.81-2,4.45,4.45,0,0,1-.58-3.39,4.48,4.48,0,0,1,4.39-3.5,4.86,4.86,0,0,1,1,.11l148.89,34a4.5,4.5,0,0,1-1,8.89Z"/><path class="cls-14" d="M-8.78,147.23a3.53,3.53,0,0,1,.78.09l148.89,34a3.5,3.5,0,0,1-.78,6.91,3.46,3.46,0,0,1-.78-.09l-148.89-34A3.5,3.5,0,0,1-12.19,150a3.5,3.5,0,0,1,3.41-2.72m0-2a5.47,5.47,0,0,0-5.36,4.27,5.45,5.45,0,0,0,.7,4.15A5.45,5.45,0,0,0-10,156.09l148.89,34a5.57,5.57,0,0,0,1.22.14,5.5,5.5,0,0,0,1.22-10.86l-148.89-34a5,5,0,0,0-1.22-.14Z"/><path class="cls-15" d="M109.83,167.77a4.5,4.5,0,0,1-2.85-8l80.75-66a4.53,4.53,0,0,1,2.85-1,4.5,4.5,0,0,1,2.84,8l-80.74,66A4.48,4.48,0,0,1,109.83,167.77Z"/><path class="cls-14" d="M190.58,93.81a3.5,3.5,0,0,1,2.21,6.21L112,166a3.5,3.5,0,0,1-4.42-5.42l80.74-66a3.5,3.5,0,0,1,2.22-.78m0-2h0A5.55,5.55,0,0,0,187.1,93l-80.75,66a5.5,5.5,0,0,0,7,8.52l80.75-66a5.5,5.5,0,0,0-3.48-9.76Z"/><path class="cls-15" d="M162.21,253.11a4.51,4.51,0,0,1-4.38-4.6l3-132.12a4.52,4.52,0,0,1,4.48-4.4h.13a4.47,4.47,0,0,1,3.14,1.39,4.43,4.43,0,0,1,1.25,3.21l-3,132.12a4.53,4.53,0,0,1-4.5,4.4Z"/><path class="cls-14" d="M165.28,113h.1a3.51,3.51,0,0,1,3.42,3.58l-3,132.12a3.51,3.51,0,0,1-3.5,3.42h-.08a3.51,3.51,0,0,1-3.42-3.58l3-132.12a3.5,3.5,0,0,1,3.48-3.42m0-2h0a5.53,5.53,0,0,0-5.48,5.38l-3,132.11a5.5,5.5,0,0,0,5.37,5.63h.13a5.54,5.54,0,0,0,5.5-5.38l3-132.11a5.5,5.5,0,0,0-5.37-5.63Z"/><path class="cls-15" d="M137.72,289.9a4.51,4.51,0,0,1-4.38-4.6l3.23-143.65a4.47,4.47,0,0,1,4.5-4.39h.1a4.51,4.51,0,0,1,4.4,4.6L142.34,285.5a4.53,4.53,0,0,1-4.5,4.4Z"/><path class="cls-14" d="M141.07,138.26h.08a3.5,3.5,0,0,1,3.42,3.57l-3.23,143.65a3.5,3.5,0,0,1-3.5,3.42h-.08a3.5,3.5,0,0,1-3.42-3.58l3.23-143.64a3.49,3.49,0,0,1,3.5-3.42m0-2h0a5.46,5.46,0,0,0-5.5,5.37l-3.23,143.65a5.5,5.5,0,0,0,5.38,5.62h.12a5.54,5.54,0,0,0,5.5-5.37l3.23-143.65a5.5,5.5,0,0,0-5.38-5.62Z"/><path class="cls-15" d="M108.68,219a4.5,4.5,0,0,1-3.09-7.77l81-76.66a4.51,4.51,0,0,1,6.36.17,4.51,4.51,0,0,1-.17,6.37l-81,76.66A4.51,4.51,0,0,1,108.68,219Z"/><path class="cls-14" d="M189.66,134.3a3.5,3.5,0,0,1,2.41,6l-81,76.66a3.5,3.5,0,1,1-4.81-5.08l81-76.66a3.45,3.45,0,0,1,2.4-1m0-2h0a5.49,5.49,0,0,0-3.78,1.5l-81,76.67a5.5,5.5,0,0,0,7.56,8l81-76.67a5.5,5.5,0,0,0-3.79-9.49Z"/><path class="cls-15" d="M107.55,269.19a4.49,4.49,0,0,1-3.35-7.5l77.66-86.38a4.52,4.52,0,0,1,3.34-1.49,4.5,4.5,0,0,1,3.35,7.51L110.89,267.7A4.49,4.49,0,0,1,107.55,269.19Z"/><path class="cls-14" d="M185.2,174.82a3.5,3.5,0,0,1,2.6,5.84L110.15,267a3.5,3.5,0,1,1-5.2-4.68L182.6,176a3.49,3.49,0,0,1,2.6-1.16m0-2h0a5.56,5.56,0,0,0-4.09,1.82L103.46,261a5.5,5.5,0,0,0,8.18,7.35L189.29,182a5.5,5.5,0,0,0-4.09-9.18Z"/><path class="cls-16" d="M54.62,156.22a4.51,4.51,0,0,1-4.46-5.12,4.51,4.51,0,0,1,1.74-3l85.33-64.5a4.5,4.5,0,0,1,5.43,7.18l-85.33,64.5A4.49,4.49,0,0,1,54.62,156.22Z"/><path class="cls-14" d="M139.94,83.72A3.5,3.5,0,0,1,142.05,90l-85.32,64.5a3.5,3.5,0,0,1-4.22-5.59l85.32-64.49a3.5,3.5,0,0,1,2.11-.71m0-2h0a5.43,5.43,0,0,0-3.31,1.11L51.3,147.33a5.5,5.5,0,1,0,6.63,8.77l85.33-64.49a5.5,5.5,0,0,0-3.32-9.89Z"/><path class="cls-18" d="M-2.61,296.55a4.47,4.47,0,0,1-3.14-1.39A4.46,4.46,0,0,1-7,292l3.42-151.57A4.49,4.49,0,0,1,.86,136h.19a4.49,4.49,0,0,1,4.37,4.6L2,292.15a4.53,4.53,0,0,1-4.5,4.4Z"/><path class="cls-14" d="M.86,137H1a3.49,3.49,0,0,1,3.42,3.58L1,292.13a3.51,3.51,0,0,1-3.5,3.42h-.08A3.49,3.49,0,0,1-6,292l3.42-151.56A3.5,3.5,0,0,1,.86,137m0-2h0a5.5,5.5,0,0,0-5.43,5.38L-8,291.93a5.44,5.44,0,0,0,1.52,3.92,5.46,5.46,0,0,0,3.85,1.7h.13A5.54,5.54,0,0,0,3,292.18L6.42,140.61a5.4,5.4,0,0,0-1.52-3.92A5.41,5.41,0,0,0,1.05,135Z"/><path class="cls-18" d="M51.07,309.09a4.51,4.51,0,0,1-4.39-4.6l3.44-152.88a4.52,4.52,0,0,1,4.49-4.39h.11a4.44,4.44,0,0,1,3.15,1.39,4.51,4.51,0,0,1,1.25,3.21L55.68,304.69a4.52,4.52,0,0,1-4.5,4.4Z"/><path class="cls-14" d="M54.61,148.22h.09a3.5,3.5,0,0,1,3.42,3.58L54.68,304.67a3.49,3.49,0,0,1-3.5,3.42H51.1a3.5,3.5,0,0,1-3.42-3.58l3.44-152.87a3.52,3.52,0,0,1,3.49-3.42m0-2h0a5.53,5.53,0,0,0-5.49,5.37L45.68,304.47a5.52,5.52,0,0,0,5.38,5.62h.12a5.53,5.53,0,0,0,5.5-5.37l3.44-152.88a5.52,5.52,0,0,0-5.38-5.62Z"/><path class="cls-17" d="M108.68,219a4,4,0,0,1-1-.11l-163-36.42a4.5,4.5,0,0,1-3.41-5.37,4.45,4.45,0,0,1,4.38-3.52,4.12,4.12,0,0,1,1,.11l163,36.42a4.5,4.5,0,0,1-1,8.89Z"/><path class="cls-14" d="M-54.35,174.54a3.36,3.36,0,0,1,.77.08l163,36.43a3.5,3.5,0,0,1-.76,6.91,3.33,3.33,0,0,1-.76-.08l-163-36.43a3.5,3.5,0,0,1-2.66-4.17,3.51,3.51,0,0,1,3.41-2.74m0-2h0a5.47,5.47,0,0,0-5.36,4.3,5.52,5.52,0,0,0,4.17,6.57l163,36.42a5.44,5.44,0,0,0,1.2.13,5.5,5.5,0,0,0,1.2-10.87l-163-36.42a5.47,5.47,0,0,0-1.21-.13Z"/><path class="cls-18" d="M106.16,325.87a4.51,4.51,0,0,1-4.39-4.6l3.48-154.37L-48.87,134.66-52,274.82a4.49,4.49,0,0,1-4.43,4.4h-.19a4.47,4.47,0,0,1-3.13-1.39A4.51,4.51,0,0,1-61,274.62l3.27-145.57a4.48,4.48,0,0,1,1.7-3.42,4.54,4.54,0,0,1,2.8-1,4.7,4.7,0,0,1,.92.09l163.08,34.12a4.51,4.51,0,0,1,3.58,4.51l-3.56,158.1a4.52,4.52,0,0,1-4.49,4.4Z"/><path class="cls-14" d="M-53.25,125.65a3.51,3.51,0,0,1,.72.07l163.08,34.12a3.5,3.5,0,0,1,2.78,3.51l-3.56,158.1a3.5,3.5,0,0,1-3.49,3.42h-.09a3.51,3.51,0,0,1-3.42-3.58l3.5-155.19L-49.84,133.44-53,274.8a3.47,3.47,0,0,1-3.43,3.42h-.15A3.5,3.5,0,0,1-60,274.64l3.27-145.57a3.51,3.51,0,0,1,1.33-2.66,3.46,3.46,0,0,1,2.17-.76m0-2h0a5.53,5.53,0,0,0-3.42,1.19A5.52,5.52,0,0,0-58.75,129L-62,274.6a5.45,5.45,0,0,0,1.53,3.92,5.45,5.45,0,0,0,3.85,1.7h.19A5.5,5.5,0,0,0-51,274.85l3.12-139,152.13,31.82-3.46,153.53a5.52,5.52,0,0,0,5.38,5.63h.13a5.52,5.52,0,0,0,5.49-5.38l3.56-158.1a5.51,5.51,0,0,0-4.37-5.51L-52.12,123.77a5.35,5.35,0,0,0-1.13-.12Z"/><path class="cls-13" d="M-52.72,225.72a3.51,3.51,0,0,1-2.91-1.54,3.5,3.5,0,0,1,1-4.86l105.06-71a3.47,3.47,0,0,1,2.66-.53L185.9,174.89a3.5,3.5,0,0,1-1.4,6.86L53.08,155-50.77,225.12A3.52,3.52,0,0,1-52.72,225.72Z"/><path class="cls-13" d="M21.58,218.74h-.09a3.5,3.5,0,0,1-3.42-3.58l2.7-119.87a3.49,3.49,0,0,1,3.5-3.42h.08a3.5,3.5,0,0,1,3.42,3.57l-2.7,119.88A3.49,3.49,0,0,1,21.58,218.74Z"/><path class="cls-13" d="M53.64,194.14h-.08a3.49,3.49,0,0,1-3.42-3.57L52.65,79.19a3.5,3.5,0,1,1,7,.16L57.14,190.71A3.51,3.51,0,0,1,53.64,194.14Z"/><path class="cls-13" d="M93,205h-.08a3.51,3.51,0,0,1-3.42-3.58L92.22,80.49a3.5,3.5,0,0,1,7,.16L96.5,201.59A3.51,3.51,0,0,1,93,205Z"/><path class="cls-13" d="M136.5,217.21h-.1a3.5,3.5,0,0,1-3.4-3.59l3.45-126.5a3.49,3.49,0,0,1,3.49-3.4h.1a3.49,3.49,0,0,1,3.4,3.59L140,213.81A3.5,3.5,0,0,1,136.5,217.21Z"/><path class="cls-13" d="M-1.26,241a3.49,3.49,0,0,1-2.66-1.23,3.5,3.5,0,0,1,.39-4.94l92-78.46A3.5,3.5,0,1,1,93,161.72L1,240.18A3.51,3.51,0,0,1-1.26,241Z"/><path class="cls-13" d="M163.37,206.12a3.7,3.7,0,0,1-.8-.09L26.05,174a3.5,3.5,0,1,1,1.6-6.81l136.52,32a3.5,3.5,0,0,1-.8,6.91Z"/><path class="cls-13" d="M-54.29,179.19a3.49,3.49,0,0,1-3.05-1.78A3.5,3.5,0,0,1-56,172.64L53.65,110.89a3.51,3.51,0,0,1,2.33-.4l134.3,23.86a3.5,3.5,0,0,1-1.23,6.89L56,117.61-52.58,178.74A3.53,3.53,0,0,1-54.29,179.19Z"/><path class="cls-13" d="M166.5,163.23a3.36,3.36,0,0,1-.63-.06l-143-26.23a3.5,3.5,0,1,1,1.26-6.88l143,26.23a3.5,3.5,0,0,1-.63,6.94Z"/><path class="cls-15" d="M187.86,221.31h-.08a3.5,3.5,0,0,1-3.42-3.58l2.72-120.5a3.5,3.5,0,0,1,7,.15l-2.72,120.51A3.49,3.49,0,0,1,187.86,221.31Z"/><path class="cls-16" d="M188.27,98.34a5.28,5.28,0,0,1-.55,0L58.05,77.84a3.5,3.5,0,0,1,1.09-6.91L188.81,91.38a3.5,3.5,0,0,1-.54,7Z"/><path class="cls-16" d="M-53.24,132.65a3.5,3.5,0,0,1-3.15-2,3.5,3.5,0,0,1,1.6-4.68L57.06,71.24a3.5,3.5,0,0,1,3.08,6.29L-51.71,132.29A3.37,3.37,0,0,1-53.24,132.65Z"/><path class="cls-16" d="M.93,144A3.5,3.5,0,0,1-1,137.54L93.35,77.22a3.5,3.5,0,0,1,3.77,5.89L2.81,143.43A3.43,3.43,0,0,1,.93,144Z"/><path class="cls-16" d="M165.31,120a3,3,0,0,1-.6,0L22.9,95.71a3.5,3.5,0,0,1,1.18-6.9L165.89,113a3.5,3.5,0,0,1-.58,6.95Z"/><path class="cls-17" d="M33.37,244.2h-.08a3.48,3.48,0,0,1-3.42-3.57L33.27,89a3.48,3.48,0,0,1,1.65-2.89L66.4,66.57a3.49,3.49,0,0,1,5.34,3.05L68.32,221.25a3.5,3.5,0,1,1-7-.16L64.6,75.93,40.22,91.07,36.86,240.78A3.49,3.49,0,0,1,33.37,244.2Z"/><path class="cls-17" d="M115.83,80.24a4.91,4.91,0,0,1-.53,0L67.72,73a3.5,3.5,0,1,1,1-6.92l47.58,7.19a3.5,3.5,0,0,1-.52,7Z"/><path class="cls-17" d="M89.58,101.16a3.6,3.6,0,0,1-.56,0L36.21,92.55a3.5,3.5,0,1,1,1.12-6.91l52.81,8.57a3.5,3.5,0,0,1-.56,7Z"/><path class="cls-17" d="M85.45,258.33h-.09A3.5,3.5,0,0,1,82,254.74L86.08,97.57a3.49,3.49,0,0,1,1.32-2.64L113.65,74a3.5,3.5,0,0,1,5.68,2.83L115.19,234a3.5,3.5,0,1,1-7-.18l3.94-149.66L93,99.38,89,254.92A3.5,3.5,0,0,1,85.45,258.33Z"/><path class="cls-13" d="M48,253.31a3.5,3.5,0,0,1-2.39-6.06l87.6-81.61a3.5,3.5,0,0,1,4.77,5.12l-87.6,81.61A3.47,3.47,0,0,1,48,253.31Z"/><path class="cls-13" d="M139.09,233.1a3.42,3.42,0,0,1-.83-.1L-10.56,196.57a3.5,3.5,0,0,1-2.57-4.23,3.51,3.51,0,0,1,4.24-2.57L139.92,226.2a3.5,3.5,0,0,1-.83,6.9Z"/><path class="cls-16" d="M141,141.29a3.31,3.31,0,0,1-.62,0l-155-27.86a3.5,3.5,0,0,1-2.83-4.06,3.51,3.51,0,0,1,4.07-2.83l155,27.86a3.5,3.5,0,0,1-.62,6.94Z"/><path class="cls-13" d="M53.59,200.71a3.5,3.5,0,0,1-2.19-6.23l85.22-68.4a3.5,3.5,0,0,1,4.38,5.46l-85.22,68.4A3.49,3.49,0,0,1,53.59,200.71Z"/><path class="cls-13" d="M140.11,188.21a3.46,3.46,0,0,1-.78-.09l-148.89-34A3.5,3.5,0,0,1-12.19,150,3.49,3.49,0,0,1-8,147.32l148.89,34a3.5,3.5,0,0,1-.78,6.91Z"/><path class="cls-15" d="M109.83,166.77a3.5,3.5,0,0,1-2.21-6.21l80.74-66a3.5,3.5,0,1,1,4.43,5.43L112,166A3.48,3.48,0,0,1,109.83,166.77Z"/><path class="cls-15" d="M162.33,252.11h-.08a3.51,3.51,0,0,1-3.42-3.58l3-132.12a3.5,3.5,0,0,1,7,.16l-3,132.12A3.51,3.51,0,0,1,162.33,252.11Z"/><path class="cls-15" d="M137.84,288.9h-.08a3.5,3.5,0,0,1-3.42-3.58l3.23-143.64a3.5,3.5,0,0,1,7,.15l-3.23,143.65A3.5,3.5,0,0,1,137.84,288.9Z"/><path class="cls-15" d="M108.68,218a3.5,3.5,0,0,1-2.4-6l81-76.66a3.5,3.5,0,1,1,4.81,5.08l-81,76.66A3.5,3.5,0,0,1,108.68,218Z"/><path class="cls-15" d="M107.55,268.19a3.49,3.49,0,0,1-2.6-5.84L182.6,176a3.5,3.5,0,1,1,5.2,4.68L110.15,267A3.47,3.47,0,0,1,107.55,268.19Z"/><path class="cls-16" d="M54.62,155.22a3.51,3.51,0,0,1-2.11-6.3l85.32-64.49A3.5,3.5,0,1,1,142.05,90l-85.32,64.5A3.48,3.48,0,0,1,54.62,155.22Z"/><path class="cls-18" d="M-2.49,295.55h-.08A3.49,3.49,0,0,1-6,292l3.42-151.56A3.49,3.49,0,0,1,1,137a3.49,3.49,0,0,1,3.42,3.58L1,292.13A3.51,3.51,0,0,1-2.49,295.55Z"/><path class="cls-18" d="M51.18,308.09H51.1a3.5,3.5,0,0,1-3.42-3.58l3.44-152.87a3.5,3.5,0,0,1,7,.16L54.68,304.67A3.49,3.49,0,0,1,51.18,308.09Z"/><path class="cls-17" d="M108.68,218a3.33,3.33,0,0,1-.76-.08l-163-36.43a3.5,3.5,0,0,1-2.66-4.17,3.5,3.5,0,0,1,4.18-2.66l163,36.43a3.5,3.5,0,0,1-.76,6.91Z"/><path class="cls-18" d="M106.28,324.87h-.09a3.51,3.51,0,0,1-3.42-3.58l3.5-155.19L-49.84,133.44-53,274.8a3.47,3.47,0,0,1-3.58,3.42A3.5,3.5,0,0,1-60,274.64l3.27-145.57a3.51,3.51,0,0,1,1.33-2.66,3.49,3.49,0,0,1,2.89-.69l163.08,34.12a3.5,3.5,0,0,1,2.78,3.51l-3.56,158.1A3.5,3.5,0,0,1,106.28,324.87Z"/><ellipse class="cls-6" cx="138.22" cy="83.62" rx="3.75" ry="4.74" transform="matrix(0.11, -0.99, 0.99, 0.11, 40.17, 212)"/></g></svg>