<svg id="レイヤー_1" data-name="レイヤー 1" xmlns="http://www.w3.org/2000/svg" xmlns:xlink="http://www.w3.org/1999/xlink" viewBox="0 0 218 218"><defs><style>.cls-1,.cls-8{fill:none;}.cls-14,.cls-2{fill:#f5dcbe;}.cls-12,.cls-2{stroke:#40220f;}.cls-10,.cls-11,.cls-12,.cls-13,.cls-14,.cls-16,.cls-17,.cls-18,.cls-2,.cls-3,.cls-6,.cls-8,.cls-9{stroke-linecap:round;stroke-linejoin:round;stroke-width:2px;}.cls-3{fill:#40210d;}.cls-10,.cls-11,.cls-13,.cls-3{stroke:#40210d;}.cls-4{clip-path:url(#clip-path);}.cls-12,.cls-18,.cls-5{fill:#fff;}.cls-6{fill:#ed811b;}.cls-14,.cls-16,.cls-17,.cls-18,.cls-6,.cls-8,.cls-9{stroke:#42210b;}.cls-7{fill:#efefef;}.cls-9{fill:#2c3493;}.cls-10,.cls-17{fill:#736357;}.cls-11,.cls-15{fill:#42210b;}.cls-13{fill:#534741;}.cls-16{fill:#e60012;}</style><clipPath id="clip-path"><rect id="SVGID" class="cls-1" x="9" y="9" width="200" height="200" rx="10"/></clipPath></defs><title>10-3-2 切り返し跳び</title><path class="cls-2" d="M71.84,114.05a4.5,4.5,0,0,1-.88-8.91l37.7-7.52a4.5,4.5,0,0,1,1.76,8.83L72.72,114A4.46,4.46,0,0,1,71.84,114.05Z"/><path class="cls-3" d="M60.94,92.14c-2.19,2.61,3.11,25.8,4.77,26.32s6.27-1,8.52-4.26c-1.57-3.23-3.56-5.14-1.57-10.18-1.36.51-2.43-.22-2.56-2s2.71-2.84,2.07-6.31C71.17,90.4,66.1,90.7,60.94,92.14Z"/><g class="cls-4"><path class="cls-5" d="M130,109.12l-79.53,9.17,37.94,7.15,87.76-11-43-5.26A12.93,12.93,0,0,0,130,109.12Z"/><polygon class="cls-6" points="48.7 133.11 41.32 168.47 95.57 180.8 88.97 140.65 48.7 133.11"/><polygon class="cls-6" points="182.75 162.84 95.57 180.8 88.97 140.65 176.19 127.65 182.75 162.84"/><polygon class="cls-5" points="88.97 140.65 48.7 133.11 50.49 118.29 88.43 125.44 88.97 140.65"/><polygon class="cls-5" points="88.97 140.65 176.19 127.65 176.19 114.39 88.43 125.44 88.97 140.65"/><path class="cls-7" d="M88.57,140.65l-39.87-7,1.17-9.12a4.66,4.66,0,0,1,5.52-3.8l29,5.13A4.49,4.49,0,0,1,88.17,130Z"/><path class="cls-7" d="M90.24,140.65l86-12.43V119a3.13,3.13,0,0,0-3.56-3l-80,9.77a3.12,3.12,0,0,0-2.77,3.16Z"/><path class="cls-8" d="M130.48,109.06l-72.41,8.36a9.68,9.68,0,0,0-8.5,8.45l-.87,7.24h.06l-.06.51,39.87,7v-.07l.41.07,1.26-.19v.19l86-12.43V119h0a5.23,5.23,0,0,0-4.6-5.2l-38.87-4.76A9.87,9.87,0,0,0,130.48,109.06Z"/><polygon class="cls-6" points="95.57 180.8 98.89 200.96 186.46 180.96 182.75 162.84 95.57 180.8"/><polygon class="cls-6" points="95.57 180.8 41.32 168.47 37.45 187.03 98.89 200.96 95.57 180.8"/><path class="cls-9" d="M115.18,95.7c-5.25-.16-17.42,1.83-17.42,1.83a57.43,57.43,0,0,1,5,13.18c13.63,3.34,29.76,3.24,36.55-4s6.79-14.85,2.73-23.61C135.26,87,120.42,95.87,115.18,95.7Z"/><path class="cls-10" d="M138.47,99.33c1.06,3.77.26,8.57-4.13,10.08-2.78,1-6-1.61-7-5.38s.22-8.8,3-9.6A7.1,7.1,0,0,1,138.47,99.33Z"/><path class="cls-2" d="M120.93,105.79c3.49-3.7,8.1-9.9,8.1-9.9,1.51-2,3.72-1.7,5.69-.19s3.36,6,1.85,8a101.49,101.49,0,0,1-6.3,10.38C127.63,117.57,117.43,109.48,120.93,105.79Z"/><path class="cls-2" d="M81.93,119.64c-2.43-.53-2-4.49-.37-6.35a52.64,52.64,0,0,0,3.7-4.71,153.45,153.45,0,0,0,1.37-29.44,4.5,4.5,0,0,1,9-.56c0,.69,1,17.09-1.63,32.4a4.64,4.64,0,0,1-.57,1.53C91.72,115.38,85.69,120.46,81.93,119.64Z"/><path class="cls-11" d="M120.62,99.63a5.92,5.92,0,0,1,7.87,2.2c1.6,2.36,2.84,7.48,1.94,11.94,1.16,3.93-.07,8.45-4.91,8.06C116,121.05,120.62,99.63,120.62,99.63Z"/><path class="cls-12" d="M83.63,64.66S83.15,75.57,85,81c4.84,2.75,9.41,2.71,12.78,1.16V72.67Z"/><path class="cls-12" d="M73.66,59.17S112.09,83.3,115.18,95.7c1.25,5,30.16-9.29,29.67-11.81C142.36,71.17,116.14,59.37,99.3,55S73.66,59.17,73.66,59.17Z"/><path class="cls-2" d="M96.35,120.17c-1.62-1.88-.88-4,1-5.6a10.9,10.9,0,0,0,2.6-3.33,312.62,312.62,0,0,0,1-38.47c-.13-2.49.34.23,2.83.1s6-3,6.16-.56a318.71,318.71,0,0,1-1,40.12,3.31,3.31,0,0,1-.08.55c-.92,4.22-4.1,4.8-6,5.75C101.8,119.24,97.24,121.2,96.35,120.17Z"/><path class="cls-12" d="M98.53,66.09V78.67c6.89,2,15.51.43,15.51.43l-1.57-9.19"/><path class="cls-13" d="M120.62,116.15a4.46,4.46,0,0,0,4.9,5.68c2.58-.52,4.83-3.06,2.58-7.49.93-8-2.24-15.87-7.48-14.71S114.69,110.62,120.62,116.15Z"/><path class="cls-14" d="M103.76,32.48c5.66,16-3.67,30.83-19.67,36.5-8.39,3-17.39,4.33-24,.87-6-3.13-9.89-10.55-12.58-18.15-5.66-16,1.06-32.26,17.05-37.92A30.72,30.72,0,0,1,103.76,32.48Z"/><path class="cls-14" d="M63.11,62.66a2.74,2.74,0,1,1-1.17-3.06"/><circle class="cls-15" cx="77.81" cy="54.99" r="1.65"/><ellipse class="cls-15" cx="53.73" cy="58.28" rx="1.42" ry="1.65" transform="translate(-13.76 16.71) rotate(-15.69)"/><path class="cls-16" d="M65.69,66.43c2.09,0,4.39-.29,8.57-2.4,0,2.4.94,4.91-1.67,5.69S67.36,68.65,65.69,66.43Z"/><path class="cls-17" d="M103.76,32.48a30.72,30.72,0,0,0-39.22-18.7c-16,5.66-22.71,21.93-17.05,37.92.33.93.68,1.85,1,2.77-.08-3.32,0-8.78,1.31-12.29,5.93,5.23,14,6.75,21.29,7.64C68.51,48.46,65.69,45.74,62,42c10.13,4.94,18.07,7.24,30.51,9.23a18.65,18.65,0,0,1-3.45-7s4.7.9,6.58,3.85a18.12,18.12,0,0,1,2.67,11.67A26.32,26.32,0,0,0,103.76,32.48Z"/><path class="cls-14" d="M91.12,47.29A3.9,3.9,0,0,1,92.74,44c1.92-1.3,4.81-.38,6.45,2s1.41,5.46-.52,6.76a3.81,3.81,0,0,1-3.33.37"/><path class="cls-18" d="M44.46,46.42C32,49.91,29.53,55.05,34.21,56.63c20,3.23,43.6,0,56.91-14.69C105.42,30.88,56.89,42.92,44.46,46.42Z"/><path class="cls-18" d="M45.51,49.83c2.5,2.74,17,2.22,30.66-1.81,12-3.54,23.35-10.08,27.59-15.54-3-15.42-18.2-26.8-40.65-20.47S42.1,41.38,45.51,49.83Z"/></g></svg>