<svg id="レイヤー_1" data-name="レイヤー 1" xmlns="http://www.w3.org/2000/svg" xmlns:xlink="http://www.w3.org/1999/xlink" viewBox="0 0 218 218"><defs><style>.cls-1,.cls-6{fill:none;}.cls-2,.cls-9{fill:#f5dcbe;}.cls-10,.cls-11,.cls-12,.cls-13,.cls-15,.cls-2,.cls-4,.cls-5,.cls-6,.cls-7,.cls-9{stroke:#42210b;}.cls-10,.cls-11,.cls-12,.cls-13,.cls-14,.cls-15,.cls-2,.cls-4,.cls-5,.cls-6,.cls-7,.cls-9{stroke-linecap:round;stroke-linejoin:round;}.cls-10,.cls-11,.cls-12,.cls-13,.cls-14,.cls-15,.cls-2,.cls-4,.cls-5,.cls-6,.cls-7{stroke-width:2px;}.cls-3,.cls-5{fill:#42210b;}.cls-4{fill:#e60012;}.cls-7{fill:#00a0e9;}.cls-8{clip-path:url(#clip-path);}.cls-10{fill:#736357;}.cls-11{fill:#fff;}.cls-12,.cls-14{fill:#40210d;}.cls-13{fill:#2c3493;}.cls-14{stroke:#40210d;}.cls-15{fill:#094;}</style><clipPath id="clip-path"><ellipse class="cls-1" cx="132.42" cy="40.06" rx="16.28" ry="21.51" transform="translate(-5.91 38.03) rotate(-15.99)"/></clipPath></defs><title>13-2-3 バドミントン</title><path class="cls-2" d="M137.2,118c-8.65,9.55-25.56,11.39-35.11,2.75-5.81-5.26-8.78-15.59-7.31-23.14,1-4.86,4.45-7.16,7.83-10.9A23.32,23.32,0,0,1,137.2,118Z"/><path class="cls-2" d="M110.79,92.39a2.18,2.18,0,1,1,.76-4,2.22,2.22,0,0,1,.9,1.22"/><circle class="cls-3" cx="123.81" cy="93.7" r="1.67"/><circle class="cls-3" cx="105.71" cy="87.33" r="1.67"/><path class="cls-4" d="M104.55,95.37c-1,1.81-2.1,4.27-1,5.14s2.17.44,2.17-1S104.62,97.79,104.55,95.37Z"/><path class="cls-5" d="M133.81,88.08c-4.78.92-11.66,0-11.66,0s4.27-.75,6.32-2.41c-8.86.79-15.23-.58-22.76-1.78,6.74-7.13,23.62-7.17,30.28.4,3.21,3.64,8.82,10.46,9.12,16.67.31,6.69-2.78,13.34-6.23,16.64a31.73,31.73,0,0,1-14.4,7.87s4.84-4.68,6.14-10a9.6,9.6,0,0,1-5.14,1.3s12.67-14,8.62-18.57c-1.87,0-7,5.25-7,5.25S129.75,94.43,133.81,88.08Z"/><path class="cls-4" d="M136.67,120.09a21.81,21.81,0,0,0-9.88-40.93,40.5,40.5,0,0,1,10.2,25s1.31,9.67-4,17.53h0Z"/><path class="cls-4" d="M108.17,81.86c15.64-5.83,22.6.84,28.82,22.31.83-21.41-9.12-37-16.07-37S109,75.65,108.17,81.86Z"/><path class="cls-6" d="M136.67,120.09,133,121.7A21.45,21.45,0,0,0,136.67,120.09Z"/><polygon class="cls-6" points="132.96 121.7 132.96 121.7 132.96 121.7 132.96 121.7"/><path class="cls-2" d="M132,100.24a3.06,3.06,0,0,1,2.76.27c1.53,1.06,1.62,3.57.21,5.59s-3.79,2.8-5.32,1.74a3.11,3.11,0,0,1-1.2-2.73"/><path class="cls-7" d="M137.76,60.84l13.6,47.46Z"/><path class="cls-7" d="M151.68,109.41a1.16,1.16,0,0,1-1.44-.79l-13.6-47.46a1.16,1.16,0,0,1,2.23-.64L152.47,108A1.16,1.16,0,0,1,151.68,109.41Z"/><line class="cls-7" x1="143" y1="79.14" x2="151.36" y2="108.3"/><path class="cls-7" d="M151.89,110.15a1.93,1.93,0,0,1-2.39-1.32l-8.35-29.15a1.93,1.93,0,0,1,3.71-1.07l8.35,29.16A1.92,1.92,0,0,1,151.89,110.15Z"/><g class="cls-8"><line class="cls-9" x1="109.73" y1="24.19" x2="143.26" y2="14.58"/><line class="cls-9" x1="110.96" y1="28.49" x2="144.5" y2="18.88"/><line class="cls-9" x1="112.2" y1="32.8" x2="145.73" y2="23.19"/><line class="cls-9" x1="113.43" y1="37.11" x2="146.97" y2="27.5"/><line class="cls-9" x1="114.67" y1="41.42" x2="148.2" y2="31.81"/><line class="cls-9" x1="115.9" y1="45.73" x2="149.44" y2="36.12"/><line class="cls-9" x1="117.14" y1="50.04" x2="150.67" y2="40.43"/><line class="cls-9" x1="118.37" y1="54.34" x2="151.91" y2="44.73"/><line class="cls-9" x1="119.61" y1="58.65" x2="153.14" y2="49.04"/><line class="cls-9" x1="120.84" y1="62.96" x2="154.38" y2="53.35"/><line class="cls-9" x1="123.28" y1="65.44" x2="110.75" y2="21.03"/><line class="cls-9" x1="127.6" y1="64.23" x2="115.06" y2="19.82"/><line class="cls-9" x1="131.91" y1="63.02" x2="119.38" y2="18.61"/><line class="cls-9" x1="136.23" y1="61.81" x2="123.69" y2="17.39"/><line class="cls-9" x1="140.54" y1="60.6" x2="128.01" y2="16.18"/><line class="cls-9" x1="144.86" y1="59.39" x2="132.32" y2="14.97"/><line class="cls-9" x1="149.17" y1="58.17" x2="136.64" y2="13.76"/><line class="cls-9" x1="153.49" y1="56.96" x2="140.95" y2="12.55"/></g><path class="cls-7" d="M138.67,61.85c-9.25,2.65-19.57-5-23-17s1.27-23.95,10.52-26.6,19.57,5,23,17S147.91,59.2,138.67,61.85ZM126.82,20.49c-8,2.3-12,13-8.94,23.74S130,61.93,138,59.63s12-13,8.93-23.74S134.83,18.2,126.82,20.49Z"/><path class="cls-10" d="M124.14,117.59c5.16,1.64,4.48,10,1,10.81s-4-.9-4-.9l-1-9.91Z"/><path class="cls-2" d="M124.4,126.74a56.1,56.1,0,0,1-8-.55,3.86,3.86,0,1,1,1.15-7.63h0c3.68.55,14.4,1.21,19.72-2.27,6.26-4.09,8.13-12,8.14-12.06a3.86,3.86,0,0,1,7.54,1.64c-.09.45-2.48,11-11.45,16.88C136.59,126,129.73,126.74,124.4,126.74Z"/><path class="cls-2" d="M101.47,120.26a3.86,3.86,0,0,1-2.09-.63c-.87-.56-21.44-14.1-28-36.35a3.86,3.86,0,0,1,7.4-2.19c5.78,19.46,24.65,32,24.84,32.07a3.86,3.86,0,0,1-2.11,7.1Z"/><path class="cls-2" d="M112.15,178.36a97.67,97.67,0,0,1-5.73-19,3.86,3.86,0,1,0-7.61,1.26A102.5,102.5,0,0,0,105,181.33c.12.29.24.56.37.84l7.21-2.76Z"/><path class="cls-11" d="M114.76,197.09a3.88,3.88,0,0,0,5.46-.42,3.85,3.85,0,0,0-.42-5.43s-3.41-3.13-7.19-11.83l-7.21,2.76C110,192.8,114.27,196.68,114.76,197.09Z"/><path class="cls-2" d="M123.2,179a10.15,10.15,0,0,1-2.58-.33c-5.84-1.5-8.75-12.11-10.16-20.74a3.86,3.86,0,0,1,7.62-1.25c1,6.4,3.26,13.19,4.72,14.57,1.92.3,4.12-1.57,4.58-2.07a3.86,3.86,0,1,1,5.67,5.24C131.32,176.29,127.57,179,123.2,179Z"/><path class="cls-11" d="M135.43,167.39a3.86,3.86,0,0,1-.42,5.43c-2.28,2-6.74,5.39-11.09,6.51,1.14-2.49.35-5.79-.44-8A33.5,33.5,0,0,0,130,167,3.85,3.85,0,0,1,135.43,167.39Z"/><path class="cls-12" d="M131.53,166.85a28.81,28.81,0,0,1,4.36-3l1.54-.12a8.83,8.83,0,0,1,1.38,7.87c2.81,3.46,2.2,8.71-.54,10.79a6.43,6.43,0,0,0-1.54.13s-.64-7.43-3.3-7.33C136.79,172,134.74,167.34,131.53,166.85Z"/><path class="cls-12" d="M130,167a9.76,9.76,0,0,1,5.9-3.16,8.83,8.83,0,0,1,1.38,7.87c2.81,3.46,2.2,8.71-.54,10.8-1.78-.35-1.24-7.34-4.84-7.21C135.25,172.13,133.21,167.46,130,167Z"/><path class="cls-12" d="M134.73,175.4a3.61,3.61,0,1,0,.57,7.19l1.43-.11a4.28,4.28,0,0,0,.8-.78"/><path class="cls-13" d="M95.44,156s1.49,6.6,3.54,13c11.78-1.46,18.37-4.45,25.42-9.43-.87-4-3-7.67-6.85-12A142.57,142.57,0,0,0,95.44,156Z"/><line class="cls-6" x1="105.4" y1="160.44" x2="107.32" y2="167.5"/><path class="cls-11" d="M116.55,128.4a20.2,20.2,0,0,0,8.54,0c-3.53-1.73-6-9.66-1-10.81-2.41-.55-6.71-.24-10.68-.82a3.86,3.86,0,0,1-7.6-.92,3.81,3.81,0,0,1,.4-1.68A30.27,30.27,0,0,1,99,108.3s-6.57,3.27-7.77,9.29c2.18,1.93,4.06,3.69,5.55,4.74-6.57,12.15-5.68,24.29-1.89,36.82,8.88-1.64,18.84-4.35,25.74-9.78C114.43,141,114.33,138.05,116.55,128.4Z"/><path class="cls-14" d="M119.58,190.48c2.52,2.16,3.8,4.68,3.09,5.81a20.78,20.78,0,0,1-3.11,3.09s1.08,3.34-3.09,4.84c-1.84.66-5,1.71-7.13,1.2-2.65-.65-3.58-4.29-1-5.77,4-2.3,4.43-4,4.43-4S118.84,197.82,119.58,190.48Z"/><path class="cls-11" d="M64.72,20c.36-2.16,4.74-.52,4.74-.52s-4-1.87-3-3.39,4.81.66,4.81.66-4.07-2.5-2-3.89c3.42-2.34,8.2,7,8.2,7l-3.55,4.65S64.36,22.15,64.72,20Z"/><path class="cls-15" d="M77.7,20c.57.48,2.27,1.74,2.27,1.74S78.6,23.48,78,24.15s-1.88,2.08-1.88,2.08-1.75-1.29-2.28-1.74C72.64,23.43,76.46,18.94,77.7,20Z"/><path class="cls-11" d="M79.72,21.5A2.94,2.94,0,0,1,75.91,26C74.67,24.94,78.48,20.45,79.72,21.5Z"/></svg>