<svg id="レイヤー_1" data-name="レイヤー 1" xmlns="http://www.w3.org/2000/svg" xmlns:xlink="http://www.w3.org/1999/xlink" viewBox="0 0 233.42 180.39"><defs><style>.cls-1,.cls-11,.cls-12,.cls-13,.cls-2,.cls-4,.cls-43,.cls-57,.cls-58,.cls-59,.cls-6{fill:none;}.cls-2,.cls-4{stroke:#e63268;}.cls-11,.cls-12,.cls-13,.cls-2,.cls-4,.cls-43,.cls-44,.cls-45,.cls-6,.cls-73,.cls-74,.cls-75{stroke-linecap:round;}.cls-2{stroke-width:2.5px;}.cls-3{fill:#fbdfdc;}.cls-4{stroke-width:2.7px;}.cls-5{fill:#f29c9f;}.cls-6{stroke:#ec7582;stroke-width:2px;}.cls-7{fill:#b5b5b6;}.cls-8{fill:#3f220e;}.cls-9{fill:#f4da24;}.cls-10{clip-path:url(#clip-path);}.cls-11,.cls-12,.cls-13,.cls-43,.cls-44,.cls-45,.cls-73,.cls-74,.cls-75{stroke:#3f220e;stroke-linejoin:round;}.cls-11,.cls-58{stroke-width:9px;}.cls-12,.cls-57{stroke-width:13px;}.cls-13,.cls-59{stroke-width:7px;}.cls-14{fill:url(#名称未設定グラデーション_39);}.cls-15{fill:url(#名称未設定グラデーション_24);}.cls-16{fill:url(#名称未設定グラデーション_9);}.cls-17{fill:url(#名称未設定グラデーション_24-2);}.cls-18{fill:url(#名称未設定グラデーション_30);}.cls-19{fill:url(#名称未設定グラデーション_24-3);}.cls-20{fill:url(#名称未設定グラデーション_39-2);}.cls-21{fill:url(#名称未設定グラデーション_24-4);}.cls-22{fill:url(#名称未設定グラデーション_30-2);}.cls-23{fill:url(#名称未設定グラデーション_24-5);}.cls-24{fill:url(#名称未設定グラデーション_39-3);}.cls-25{fill:url(#名称未設定グラデーション_9-2);}.cls-26{fill:url(#名称未設定グラデーション_9-3);}.cls-27{fill:url(#名称未設定グラデーション_24-6);}.cls-28{fill:url(#名称未設定グラデーション_30-3);}.cls-29{fill:url(#名称未設定グラデーション_39-4);}.cls-30{fill:url(#名称未設定グラデーション_9-4);}.cls-31{fill:url(#名称未設定グラデーション_9-5);}.cls-32{fill:url(#名称未設定グラデーション_30-4);}.cls-33{fill:url(#名称未設定グラデーション_39-5);}.cls-34{fill:url(#名称未設定グラデーション_30-5);}.cls-35{fill:url(#名称未設定グラデーション_30-6);}.cls-36{fill:url(#名称未設定グラデーション_39-6);}.cls-37{fill:url(#名称未設定グラデーション_24-7);}.cls-38,.cls-44{fill:#f5dcbe;}.cls-39,.cls-73{fill:#40220f;}.cls-40,.cls-74{fill:#1c96d4;}.cls-41{fill:url(#ハス_四角形_カラー);}.cls-42,.cls-75{fill:#604c3f;}.cls-45{fill:url(#ハス_四角形_カラー-3);}.cls-46{fill:url(#名称未設定グラデーション_24-8);}.cls-47{fill:url(#名称未設定グラデーション_24-9);}.cls-48{fill:url(#名称未設定グラデーション_30-7);}.cls-49{fill:url(#名称未設定グラデーション_24-10);}.cls-50{fill:url(#名称未設定グラデーション_39-7);}.cls-51{fill:url(#名称未設定グラデーション_9-6);}.cls-52{fill:url(#名称未設定グラデーション_24-11);}.cls-53{fill:url(#名称未設定グラデーション_30-8);}.cls-54{fill:url(#名称未設定グラデーション_39-8);}.cls-55{fill:url(#名称未設定グラデーション_9-7);}.cls-56{fill:url(#名称未設定グラデーション_30-9);}.cls-57,.cls-58,.cls-59{stroke:#b5b5b6;stroke-miterlimit:10;}.cls-60{fill:url(#名称未設定グラデーション_39-9);}.cls-61{fill:url(#名称未設定グラデーション_24-12);}.cls-62{fill:url(#名称未設定グラデーション_9-8);}.cls-63{fill:url(#名称未設定グラデーション_24-13);}.cls-64{fill:url(#名称未設定グラデーション_30-10);}.cls-65{fill:url(#名称未設定グラデーション_39-10);}.cls-66{fill:url(#名称未設定グラデーション_9-9);}.cls-67{fill:url(#名称未設定グラデーション_9-10);}.cls-68{fill:url(#名称未設定グラデーション_39-11);}.cls-69{fill:url(#名称未設定グラデーション_30-11);}.cls-70{fill:url(#名称未設定グラデーション_30-12);}.cls-71{fill:url(#名称未設定グラデーション_39-12);}.cls-72{fill:url(#名称未設定グラデーション_24-14);}</style><clipPath id="clip-path"><path class="cls-1" d="M228.72,118.11c0,30.59-49.69,55.4-111,55.4s-111-24.81-111-55.4c0-16.86,19.7-40.17,43.5-60.53A204,204,0,0,1,80.67,36.66c11.53-6.6,22.49-11.37,37.06-11.37,11.52,0,22,4.49,31.8,8.53,11.64,4.81,22.26,9.84,32.39,17.74C208.55,72.35,228.72,100.11,228.72,118.11Z"/></clipPath><linearGradient id="名称未設定グラデーション_39" x1="76.84" y1="115.85" x2="89.12" y2="115.85" gradientUnits="userSpaceOnUse"><stop offset="0" stop-color="#d71618"/><stop offset="1" stop-color="#bb1b25"/></linearGradient><linearGradient id="名称未設定グラデーション_24" x1="52.65" y1="108.34" x2="66.24" y2="108.34" gradientUnits="userSpaceOnUse"><stop offset="0" stop-color="#0e9149"/><stop offset="1" stop-color="#138b3b"/></linearGradient><linearGradient id="名称未設定グラデーション_9" x1="33.8" y1="101.35" x2="48.11" y2="101.35" gradientUnits="userSpaceOnUse"><stop offset="0" stop-color="#f8b62d"/><stop offset="1" stop-color="#f2c41c"/></linearGradient><linearGradient id="名称未設定グラデーション_24-2" x1="82.9" y1="73.19" x2="92.77" y2="73.19" xlink:href="#名称未設定グラデーション_24"/><linearGradient id="名称未設定グラデーション_30" x1="24.92" y1="88" x2="33.89" y2="88" gradientUnits="userSpaceOnUse"><stop offset="0" stop-color="#0363a6"/><stop offset="1" stop-color="#1c96d4"/></linearGradient><linearGradient id="名称未設定グラデーション_24-3" x1="27.23" y1="73.7" x2="36.82" y2="73.7" xlink:href="#名称未設定グラデーション_24"/><linearGradient id="名称未設定グラデーション_39-2" x1="24.92" y1="79.54" x2="32.53" y2="79.54" xlink:href="#名称未設定グラデーション_39"/><linearGradient id="名称未設定グラデーション_24-4" x1="71.21" y1="36.71" x2="81.49" y2="36.71" xlink:href="#名称未設定グラデーション_24"/><linearGradient id="名称未設定グラデーション_30-2" x1="81.05" y1="32.09" x2="90.67" y2="32.09" xlink:href="#名称未設定グラデーション_30"/><linearGradient id="名称未設定グラデーション_24-5" x1="58.94" y1="46.27" x2="66.24" y2="46.27" xlink:href="#名称未設定グラデーション_24"/><linearGradient id="名称未設定グラデーション_39-3" x1="44.94" y1="53.54" x2="56.82" y2="53.54" xlink:href="#名称未設定グラデーション_39"/><linearGradient id="名称未設定グラデーション_9-2" x1="39.99" y1="62.77" x2="46.91" y2="62.77" xlink:href="#名称未設定グラデーション_9"/><linearGradient id="名称未設定グラデーション_9-3" x1="44.96" y1="59.75" x2="55.57" y2="59.75" xlink:href="#名称未設定グラデーション_9"/><linearGradient id="名称未設定グラデーション_24-6" x1="150.81" y1="33.6" x2="160.94" y2="33.6" xlink:href="#名称未設定グラデーション_24"/><linearGradient id="名称未設定グラデーション_30-3" x1="168.33" y1="43.23" x2="178.27" y2="43.23" xlink:href="#名称未設定グラデーション_30"/><linearGradient id="名称未設定グラデーション_39-4" x1="176.68" y1="48.59" x2="184.72" y2="48.59" xlink:href="#名称未設定グラデーション_39"/><linearGradient id="名称未設定グラデーション_9-4" x1="180.76" y1="58.83" x2="190.69" y2="58.83" xlink:href="#名称未設定グラデーション_9"/><linearGradient id="名称未設定グラデーション_9-5" x1="190.84" y1="62.71" x2="198.07" y2="62.71" xlink:href="#名称未設定グラデーション_9"/><linearGradient id="名称未設定グラデーション_30-4" x1="198.88" y1="70.07" x2="207.55" y2="70.07" xlink:href="#名称未設定グラデーション_30"/><linearGradient id="名称未設定グラデーション_39-5" x1="203.73" y1="78.94" x2="210.93" y2="78.94" xlink:href="#名称未設定グラデーション_39"/><linearGradient id="名称未設定グラデーション_30-5" x1="200.48" y1="89.29" x2="209.88" y2="89.29" xlink:href="#名称未設定グラデーション_30"/><linearGradient id="名称未設定グラデーション_30-6" x1="172.04" y1="65.46" x2="184.5" y2="65.46" xlink:href="#名称未設定グラデーション_30"/><linearGradient id="名称未設定グラデーション_39-6" x1="149.56" y1="41.09" x2="159.95" y2="41.09" xlink:href="#名称未設定グラデーション_39"/><linearGradient id="名称未設定グラデーション_24-7" x1="192.66" y1="98.7" x2="203.34" y2="98.7" xlink:href="#名称未設定グラデーション_24"/><pattern id="ハス_四角形_カラー" data-name="ハス (四角形) カラー" width="42.5" height="42.5" patternTransform="translate(28.82 24.76) rotate(23.23) scale(0.1)" patternUnits="userSpaceOnUse" viewBox="0 0 42.5 42.5"><rect class="cls-1" width="42.5" height="42.5"/><line class="cls-2" x1="42.5" y1="42.5" x2="42.5" y2="42.5"/><path class="cls-3" d="M6.06,42.25c0-1.5-.67-1.64-1.71-2.75,1.93-2.19,6.3.33,7.38,2.75C10.65,44.67,6.28,47.19,4.35,45,5.39,43.89,6.06,43.75,6.06,42.25Z"/><path class="cls-3" d="M36.44,42.25c0-1.5.67-1.64,1.71-2.75-1.93-2.19-6.3.33-7.39,2.75,1.09,2.42,5.46,4.94,7.39,2.75C37.11,43.89,36.44,43.75,36.44,42.25Z"/><line class="cls-2" y1="42.5" y2="42.5"/><line class="cls-2" x1="42.5" y1="42.5" x2="42.5" y2="42.5"/><line class="cls-4" x1="21.25" y1="42.44" x2="21.25" y2="42.44"/><line class="cls-2" y1="42.5" y2="42.5"/><path class="cls-3" d="M42.25,36.44c1.5,0,1.64.67,2.75,1.71,2.19-1.93-.33-6.3-2.75-7.38-2.42,1.08-4.94,5.45-2.75,7.38C40.61,37.11,40.75,36.44,42.25,36.44Z"/><path class="cls-3" d="M42.25,6.06c1.5,0,1.64-.66,2.75-1.71,2.19,1.93-.33,6.3-2.75,7.39-2.42-1.09-4.94-5.46-2.75-7.39C40.61,5.4,40.75,6.06,42.25,6.06Z"/><line class="cls-2" x1="42.5" x2="42.5"/><line class="cls-2" x1="42.5" y1="42.5" x2="42.5" y2="42.5"/><line class="cls-4" x1="42.5" y1="21.19" x2="42.5" y2="21.19"/><rect class="cls-5" width="42.5" height="42.5"/><line class="cls-6" x1="3.38" y1="24.61" x2="17.53" y2="38.75"/><line class="cls-6" x1="38.95" y1="24.82" x2="24.81" y2="38.97"/><line class="cls-6" x1="17.67" y1="3.54" x2="3.52" y2="17.68"/><line class="cls-6" x1="24.63" y1="3.36" x2="38.78" y2="17.5"/><path class="cls-3" d="M21.25,14.94c1.5,0,1.64.67,2.75,1.71,2.19-1.93-.33-6.3-2.75-7.38-2.42,1.08-4.94,5.45-2.75,7.38C19.61,15.61,19.75,14.94,21.25,14.94Z"/><path class="cls-3" d="M14.94,21.25c0-1.5.67-1.64,1.71-2.75-1.93-2.19-6.3.33-7.39,2.75,1.09,2.42,5.46,4.94,7.39,2.75C15.61,22.89,14.94,22.75,14.94,21.25Z"/><path class="cls-3" d="M21.25,27.56c-1.5,0-1.64-.66-2.75-1.71-2.19,1.93.33,6.3,2.75,7.39,2.42-1.09,4.94-5.46,2.75-7.39C22.89,26.9,22.75,27.56,21.25,27.56Z"/><path class="cls-3" d="M27.56,21.25c0,1.5-.67,1.64-1.71,2.75,1.93,2.19,6.3-.33,7.39-2.75-1.09-2.42-5.46-4.94-7.39-2.75C26.89,19.61,27.56,19.75,27.56,21.25Z"/><path class="cls-3" d="M-.25,36.44c1.5,0,1.64.67,2.75,1.71,2.19-1.93-.33-6.3-2.75-7.38C-2.67,31.85-5.19,36.22-3,38.15-1.89,37.11-1.75,36.44-.25,36.44Z"/><path class="cls-3" d="M6.06,42.75c0,1.5-.67,1.64-1.71,2.75,1.93,2.19,6.3-.33,7.38-2.75C10.65,40.33,6.28,37.81,4.35,40,5.39,41.11,6.06,41.25,6.06,42.75Z"/><path class="cls-3" d="M-.25,6.06c1.5,0,1.64-.66,2.75-1.71,2.19,1.93-.33,6.3-2.75,7.39C-2.67,10.65-5.19,6.28-3,4.35-1.89,5.4-1.75,6.06-.25,6.06Z"/><path class="cls-3" d="M6.06-.25c0-1.5-.67-1.64-1.71-2.75,1.93-2.19,6.3.33,7.38,2.75C10.65,2.17,6.28,4.69,4.35,2.5,5.39,1.39,6.06,1.25,6.06-.25Z"/><path class="cls-3" d="M42.75,36.44c-1.5,0-1.64.67-2.75,1.71-2.19-1.93.33-6.3,2.75-7.38,2.42,1.08,4.94,5.45,2.75,7.38C44.39,37.11,44.25,36.44,42.75,36.44Z"/><path class="cls-3" d="M36.44,42.75c0,1.5.67,1.64,1.71,2.75-1.93,2.19-6.3-.33-7.39-2.75,1.09-2.42,5.46-4.94,7.39-2.75C37.11,41.11,36.44,41.25,36.44,42.75Z"/><path class="cls-3" d="M42.75,6.06c-1.5,0-1.64-.66-2.75-1.71-2.19,1.93.33,6.3,2.75,7.39,2.42-1.09,4.94-5.46,2.75-7.39C44.39,5.4,44.25,6.06,42.75,6.06Z"/><path class="cls-3" d="M36.44-.25c0-1.5.67-1.64,1.71-2.75-1.93-2.19-6.3.33-7.39,2.75,1.09,2.42,5.46,4.94,7.39,2.75C37.11,1.39,36.44,1.25,36.44-.25Z"/><line class="cls-4" x1="21.25" y1="21.25" x2="21.25" y2="21.25"/><line class="cls-2"/><line class="cls-2" x1="42.5" x2="42.5"/><line class="cls-2" y1="42.5" y2="42.5"/><line class="cls-2" x1="42.5" y1="42.5" x2="42.5" y2="42.5"/><line class="cls-4" x1="21.25" y1="42.44" x2="21.25" y2="42.44"/><line class="cls-4" x1="21.25" y1="-0.06" x2="21.25" y2="-0.06"/><line class="cls-4" y1="21.19" y2="21.19"/><line class="cls-4" x1="42.5" y1="21.19" x2="42.5" y2="21.19"/><path class="cls-3" d="M.25,36.44c-1.5,0-1.64.67-2.75,1.71-2.19-1.93.33-6.3,2.75-7.38C2.67,31.85,5.19,36.22,3,38.15,1.89,37.11,1.75,36.44.25,36.44Z"/><path class="cls-3" d="M.25,6.06c-1.5,0-1.64-.66-2.75-1.71-2.19,1.93.33,6.3,2.75,7.39C2.67,10.65,5.19,6.28,3,4.35,1.89,5.4,1.75,6.06.25,6.06Z"/><line class="cls-2"/><line class="cls-2" y1="42.5" y2="42.5"/><line class="cls-4" y1="21.19" y2="21.19"/><line class="cls-2" x1="42.5" x2="42.5"/><path class="cls-3" d="M6.06.25c0,1.5-.67,1.64-1.71,2.75,1.93,2.19,6.3-.33,7.38-2.75C10.65-2.17,6.28-4.69,4.35-2.5,5.39-1.39,6.06-1.25,6.06.25Z"/><path class="cls-3" d="M36.44.25c0,1.5.67,1.64,1.71,2.75-1.93,2.19-6.3-.33-7.39-2.75,1.09-2.42,5.46-4.94,7.39-2.75C37.11-1.39,36.44-1.25,36.44.25Z"/><line class="cls-2"/><line class="cls-2" x1="42.5" x2="42.5"/><line class="cls-4" x1="21.25" y1="-0.06" x2="21.25" y2="-0.06"/><line class="cls-2"/></pattern><pattern id="ハス_四角形_カラー-3" data-name="ハス (四角形) カラー" width="42.5" height="42.5" patternTransform="translate(28.66 24.63) rotate(23.23) scale(0.1)" patternUnits="userSpaceOnUse" viewBox="0 0 42.5 42.5"><rect class="cls-1" width="42.5" height="42.5"/><line class="cls-2" x1="42.5" y1="42.5" x2="42.5" y2="42.5"/><path class="cls-3" d="M6.06,42.25c0-1.5-.67-1.64-1.71-2.75,1.93-2.19,6.3.33,7.38,2.75C10.65,44.67,6.28,47.19,4.35,45,5.39,43.89,6.06,43.75,6.06,42.25Z"/><path class="cls-3" d="M36.44,42.25c0-1.5.67-1.64,1.71-2.75-1.93-2.19-6.3.33-7.39,2.75,1.09,2.42,5.46,4.94,7.39,2.75C37.11,43.89,36.44,43.75,36.44,42.25Z"/><line class="cls-2" y1="42.5" y2="42.5"/><line class="cls-2" x1="42.5" y1="42.5" x2="42.5" y2="42.5"/><line class="cls-4" x1="21.25" y1="42.44" x2="21.25" y2="42.44"/><line class="cls-2" y1="42.5" y2="42.5"/><path class="cls-3" d="M42.25,36.44c1.5,0,1.64.67,2.75,1.71,2.19-1.93-.33-6.3-2.75-7.38-2.42,1.08-4.94,5.45-2.75,7.38C40.61,37.11,40.75,36.44,42.25,36.44Z"/><path class="cls-3" d="M42.25,6.06c1.5,0,1.64-.66,2.75-1.71,2.19,1.93-.33,6.3-2.75,7.39-2.42-1.09-4.94-5.46-2.75-7.39C40.61,5.4,40.75,6.06,42.25,6.06Z"/><line class="cls-2" x1="42.5" x2="42.5"/><line class="cls-2" x1="42.5" y1="42.5" x2="42.5" y2="42.5"/><line class="cls-4" x1="42.5" y1="21.19" x2="42.5" y2="21.19"/><rect class="cls-5" width="42.5" height="42.5"/><line class="cls-6" x1="3.38" y1="24.61" x2="17.53" y2="38.75"/><line class="cls-6" x1="38.95" y1="24.82" x2="24.81" y2="38.97"/><line class="cls-6" x1="17.67" y1="3.54" x2="3.52" y2="17.68"/><line class="cls-6" x1="24.63" y1="3.36" x2="38.78" y2="17.5"/><path class="cls-3" d="M21.25,14.94c1.5,0,1.64.67,2.75,1.71,2.19-1.93-.33-6.3-2.75-7.38-2.42,1.08-4.94,5.45-2.75,7.38C19.61,15.61,19.75,14.94,21.25,14.94Z"/><path class="cls-3" d="M14.94,21.25c0-1.5.67-1.64,1.71-2.75-1.93-2.19-6.3.33-7.39,2.75,1.09,2.42,5.46,4.94,7.39,2.75C15.61,22.89,14.94,22.75,14.94,21.25Z"/><path class="cls-3" d="M21.25,27.56c-1.5,0-1.64-.66-2.75-1.71-2.19,1.93.33,6.3,2.75,7.39,2.42-1.09,4.94-5.46,2.75-7.39C22.89,26.9,22.75,27.56,21.25,27.56Z"/><path class="cls-3" d="M27.56,21.25c0,1.5-.67,1.64-1.71,2.75,1.93,2.19,6.3-.33,7.39-2.75-1.09-2.42-5.46-4.94-7.39-2.75C26.89,19.61,27.56,19.75,27.56,21.25Z"/><path class="cls-3" d="M-.25,36.44c1.5,0,1.64.67,2.75,1.71,2.19-1.93-.33-6.3-2.75-7.38C-2.67,31.85-5.19,36.22-3,38.15-1.89,37.11-1.75,36.44-.25,36.44Z"/><path class="cls-3" d="M6.06,42.75c0,1.5-.67,1.64-1.71,2.75,1.93,2.19,6.3-.33,7.38-2.75C10.65,40.33,6.28,37.81,4.35,40,5.39,41.11,6.06,41.25,6.06,42.75Z"/><path class="cls-3" d="M-.25,6.06c1.5,0,1.64-.66,2.75-1.71,2.19,1.93-.33,6.3-2.75,7.39C-2.67,10.65-5.19,6.28-3,4.35-1.89,5.4-1.75,6.06-.25,6.06Z"/><path class="cls-3" d="M6.06-.25c0-1.5-.67-1.64-1.71-2.75,1.93-2.19,6.3.33,7.38,2.75C10.65,2.17,6.28,4.69,4.35,2.5,5.39,1.39,6.06,1.25,6.06-.25Z"/><path class="cls-3" d="M42.75,36.44c-1.5,0-1.64.67-2.75,1.71-2.19-1.93.33-6.3,2.75-7.38,2.42,1.08,4.94,5.45,2.75,7.38C44.39,37.11,44.25,36.44,42.75,36.44Z"/><path class="cls-3" d="M36.44,42.75c0,1.5.67,1.64,1.71,2.75-1.93,2.19-6.3-.33-7.39-2.75,1.09-2.42,5.46-4.94,7.39-2.75C37.11,41.11,36.44,41.25,36.44,42.75Z"/><path class="cls-3" d="M42.75,6.06c-1.5,0-1.64-.66-2.75-1.71-2.19,1.93.33,6.3,2.75,7.39,2.42-1.09,4.94-5.46,2.75-7.39C44.39,5.4,44.25,6.06,42.75,6.06Z"/><path class="cls-3" d="M36.44-.25c0-1.5.67-1.64,1.71-2.75-1.93-2.19-6.3.33-7.39,2.75,1.09,2.42,5.46,4.94,7.39,2.75C37.11,1.39,36.44,1.25,36.44-.25Z"/><line class="cls-4" x1="21.25" y1="21.25" x2="21.25" y2="21.25"/><line class="cls-2"/><line class="cls-2" x1="42.5" x2="42.5"/><line class="cls-2" y1="42.5" y2="42.5"/><line class="cls-2" x1="42.5" y1="42.5" x2="42.5" y2="42.5"/><line class="cls-4" x1="21.25" y1="42.44" x2="21.25" y2="42.44"/><line class="cls-4" x1="21.25" y1="-0.06" x2="21.25" y2="-0.06"/><line class="cls-4" y1="21.19" y2="21.19"/><line class="cls-4" x1="42.5" y1="21.19" x2="42.5" y2="21.19"/><path class="cls-3" d="M.25,36.44c-1.5,0-1.64.67-2.75,1.71-2.19-1.93.33-6.3,2.75-7.38C2.67,31.85,5.19,36.22,3,38.15,1.89,37.11,1.75,36.44.25,36.44Z"/><path class="cls-3" d="M.25,6.06c-1.5,0-1.64-.66-2.75-1.71-2.19,1.93.33,6.3,2.75,7.39C2.67,10.65,5.19,6.28,3,4.35,1.89,5.4,1.75,6.06.25,6.06Z"/><line class="cls-2"/><line class="cls-2" y1="42.5" y2="42.5"/><line class="cls-4" y1="21.19" y2="21.19"/><line class="cls-2" x1="42.5" x2="42.5"/><path class="cls-3" d="M6.06.25c0,1.5-.67,1.64-1.71,2.75,1.93,2.19,6.3-.33,7.38-2.75C10.65-2.17,6.28-4.69,4.35-2.5,5.39-1.39,6.06-1.25,6.06.25Z"/><path class="cls-3" d="M36.44.25c0,1.5.67,1.64,1.71,2.75-1.93,2.19-6.3-.33-7.39-2.75,1.09-2.42,5.46-4.94,7.39-2.75C37.11-1.39,36.44-1.25,36.44.25Z"/><line class="cls-2"/><line class="cls-2" x1="42.5" x2="42.5"/><line class="cls-4" x1="21.25" y1="-0.06" x2="21.25" y2="-0.06"/><line class="cls-2"/></pattern><linearGradient id="名称未設定グラデーション_24-8" x1="27.73" y1="73.7" x2="36.32" y2="73.7" xlink:href="#名称未設定グラデーション_24"/><linearGradient id="名称未設定グラデーション_24-9" x1="71.71" y1="36.71" x2="80.98" y2="36.71" xlink:href="#名称未設定グラデーション_24"/><linearGradient id="名称未設定グラデーション_30-7" x1="81.55" y1="32.09" x2="90.17" y2="32.09" xlink:href="#名称未設定グラデーション_30"/><linearGradient id="名称未設定グラデーション_24-10" x1="59.44" y1="46.27" x2="65.74" y2="46.27" xlink:href="#名称未設定グラデーション_24"/><linearGradient id="名称未設定グラデーション_39-7" x1="45.44" y1="53.54" x2="56.32" y2="53.54" xlink:href="#名称未設定グラデーション_39"/><linearGradient id="名称未設定グラデーション_9-6" x1="40.49" y1="62.77" x2="46.41" y2="62.77" xlink:href="#名称未設定グラデーション_9"/><linearGradient id="名称未設定グラデーション_24-11" x1="151.31" y1="33.6" x2="160.44" y2="33.6" xlink:href="#名称未設定グラデーション_24"/><linearGradient id="名称未設定グラデーション_30-8" x1="168.83" y1="43.23" x2="177.77" y2="43.23" xlink:href="#名称未設定グラデーション_30"/><linearGradient id="名称未設定グラデーション_39-8" x1="177.18" y1="48.59" x2="184.22" y2="48.59" xlink:href="#名称未設定グラデーション_39"/><linearGradient id="名称未設定グラデーション_9-7" x1="191.34" y1="62.71" x2="197.58" y2="62.71" xlink:href="#名称未設定グラデーション_9"/><linearGradient id="名称未設定グラデーション_30-9" x1="199.38" y1="70.07" x2="207.05" y2="70.07" xlink:href="#名称未設定グラデーション_30"/><linearGradient id="名称未設定グラデーション_39-9" x1="77.34" y1="115.85" x2="88.62" y2="115.85" xlink:href="#名称未設定グラデーション_39"/><linearGradient id="名称未設定グラデーション_24-12" x1="53.15" y1="108.34" x2="65.74" y2="108.34" xlink:href="#名称未設定グラデーション_24"/><linearGradient id="名称未設定グラデーション_9-8" x1="34.31" y1="101.35" x2="47.61" y2="101.35" xlink:href="#名称未設定グラデーション_9"/><linearGradient id="名称未設定グラデーション_24-13" x1="83.4" y1="73.19" x2="92.27" y2="73.19" xlink:href="#名称未設定グラデーション_24"/><linearGradient id="名称未設定グラデーション_30-10" x1="25.42" y1="88" x2="33.39" y2="88" xlink:href="#名称未設定グラデーション_30"/><linearGradient id="名称未設定グラデーション_39-10" x1="25.42" y1="79.54" x2="32.03" y2="79.54" xlink:href="#名称未設定グラデーション_39"/><linearGradient id="名称未設定グラデーション_9-9" x1="45.46" y1="59.75" x2="55.07" y2="59.75" xlink:href="#名称未設定グラデーション_9"/><linearGradient id="名称未設定グラデーション_9-10" x1="181.26" y1="58.83" x2="190.19" y2="58.83" xlink:href="#名称未設定グラデーション_9"/><linearGradient id="名称未設定グラデーション_39-11" x1="204.23" y1="78.94" x2="210.43" y2="78.94" xlink:href="#名称未設定グラデーション_39"/><linearGradient id="名称未設定グラデーション_30-11" x1="200.98" y1="89.29" x2="209.38" y2="89.29" xlink:href="#名称未設定グラデーション_30"/><linearGradient id="名称未設定グラデーション_30-12" x1="172.54" y1="65.46" x2="184.01" y2="65.46" xlink:href="#名称未設定グラデーション_30"/><linearGradient id="名称未設定グラデーション_39-12" x1="150.07" y1="41.09" x2="159.45" y2="41.09" xlink:href="#名称未設定グラデーション_39"/><linearGradient id="名称未設定グラデーション_24-14" x1="193.16" y1="98.7" x2="202.84" y2="98.7" xlink:href="#名称未設定グラデーション_24"/></defs><title>モンキーマウンテン</title><path class="cls-7" d="M117.73,177.5c-61.47,0-111.49-25.66-111.49-57.2,0-15.31,15.92-38,43.67-62.33C60.16,49,72.16,41.34,80.42,36.5c12-7,22.92-11.71,37.31-11.71,11.28,0,21.35,4.27,31.1,8.4l.89.37c12.36,5.23,22.62,10.33,32.51,18.23,27.67,22.1,47,50.27,47,68.51C229.22,151.84,179.21,177.5,117.73,177.5Z"/><path class="cls-8" d="M117.73,25.29c11.52,0,22,4.6,31.8,8.73,11.64,4.93,22.26,10.07,32.39,18.16,26.63,21.28,46.8,49.7,46.8,68.12,0,31.32-49.69,56.7-111,56.7s-111-25.38-111-56.7c0-17.25,19.7-41.11,43.5-62A204.26,204.26,0,0,1,80.67,36.93c11.53-6.76,22.49-11.64,37.06-11.64m0-1c-14.5,0-25.5,4.71-37.56,11.78-8.28,4.85-20.31,12.52-30.59,21.52C36.87,68.72,26.21,80,18.76,90.07c-8.64,11.74-13,21.9-13,30.23,0,15.54,11.74,30.1,33.05,41C59.9,172.07,87.93,178,117.73,178s57.84-5.93,78.94-16.71c21.31-10.89,33.05-25.45,33.05-41,0-18.38-19.4-46.71-47.17-68.9-9.94-7.94-20.23-13-32.63-18.3l-.89-.38c-9.8-4.14-19.92-8.43-31.3-8.43Z"/><path class="cls-9" d="M117.73,174C56.26,174,6.24,148.93,6.24,118.11c0-15,15.92-37.16,43.68-60.91,10.24-8.76,22.24-16.24,30.51-21,12-6.87,22.92-11.44,37.3-11.44,11.27,0,21.35,4.17,31.1,8.2l.89.37c12.36,5.11,22.62,10.09,32.51,17.81,27.67,21.59,47,49.12,47,66.94C229.22,148.93,179.21,174,117.73,174Z"/><path class="cls-8" d="M117.73,25.29c11.52,0,22,4.49,31.8,8.53,11.64,4.81,22.26,9.84,32.39,17.74,26.63,20.79,46.8,48.55,46.8,66.55,0,30.59-49.69,55.4-111,55.4s-111-24.81-111-55.4c0-16.86,19.7-40.17,43.5-60.53A204,204,0,0,1,80.67,36.66c11.53-6.6,22.49-11.37,37.06-11.37m0-1c-14.49,0-25.49,4.6-37.55,11.5C71.9,40.53,59.87,48,49.59,56.82,36.88,67.7,26.22,78.67,18.77,88.56c-8.64,11.47-13,21.41-13,29.55,0,15.2,11.74,29.42,33.06,40.07,21.1,10.53,49.13,16.33,78.93,16.33s57.83-5.8,78.93-16.33c21.32-10.65,33.06-24.87,33.06-40.07,0-18-19.4-45.66-47.18-67.33C172.6,43,162.31,38,149.91,32.9l-.89-.37c-9.79-4.05-19.92-8.24-31.29-8.24Z"/><g class="cls-10"><path class="cls-8" d="M117.73,19c15.7,0,28.42,4.81,28.42,10.74s-12.72,10.74-28.42,10.74S89.31,35.68,89.31,29.75,102,19,117.73,19m0-13C108.61,6,99.84,7.43,93,10c-14.56,5.5-16.73,14.74-16.73,19.76S78.48,44,93,49.5c6.8,2.57,15.57,4,24.69,4s17.89-1.42,24.69-4C157,44,159.15,34.77,159.15,29.75S157,15.49,142.42,10c-6.8-2.56-15.57-4-24.69-4Z"/><path class="cls-11" d="M93.61,35.42S34.6,80.51,3.44,150.75"/><path class="cls-12" d="M112.83,40.33c.07,0-10.86,69.69-17,143"/><path class="cls-12" d="M135,38.27c-.33.1,40.66,37.45,79,123.86"/><path class="cls-13" d="M144.1,33.75s18.52,6.06,39.09,21.78c22,16.81,41.93,45.8,57.9,61.65"/></g><path class="cls-7" d="M83.94,127.7a10,10,0,0,1-2.3-.28c-5.73-1.39-9.14-7.72-7.59-14.1C75.36,107.92,80,104,85,104a9.83,9.83,0,0,1,2.29.28,10.09,10.09,0,0,1,6.55,5.2,12.5,12.5,0,0,1,1,8.9C93.55,123.78,89,127.7,83.94,127.7Z"/><path class="cls-8" d="M85,104.5a9.62,9.62,0,0,1,2.18.26c5.48,1.33,8.71,7.38,7.22,13.5-1.29,5.31-5.7,8.94-10.43,8.94a9.62,9.62,0,0,1-2.18-.26c-5.48-1.33-8.71-7.38-7.22-13.5,1.29-5.31,5.71-8.94,10.43-8.94m0-1h0c-5.24,0-10,4.08-11.41,9.71a13,13,0,0,0,1.1,9.25,10.62,10.62,0,0,0,6.87,5.45,10.32,10.32,0,0,0,2.41.29c5.24,0,10-4.08,11.41-9.71,1.61-6.64-2-13.24-8-14.7A10.32,10.32,0,0,0,85,103.5Z"/><path class="cls-7" d="M60.72,120.42a7,7,0,0,1-2.37-.4,7.88,7.88,0,0,1-4.78-5.18,12.58,12.58,0,0,1,.21-8.18c1.64-4.67,5.58-7.93,9.58-7.93a7,7,0,0,1,2.36.4c4.56,1.61,6.61,7.6,4.58,13.36C68.65,117.16,64.71,120.42,60.72,120.42Z"/><path class="cls-8" d="M63.36,99.23a6.69,6.69,0,0,1,2.2.37c4.3,1.52,6.21,7.22,4.27,12.72-1.62,4.59-5.41,7.6-9.11,7.6a6.64,6.64,0,0,1-2.2-.37c-4.31-1.52-6.22-7.21-4.27-12.72,1.62-4.59,5.4-7.6,9.11-7.6m0-1h0c-4.2,0-8.34,3.4-10.06,8.26a13.17,13.17,0,0,0-.21,8.51,8.43,8.43,0,0,0,5.09,5.49,7.57,7.57,0,0,0,2.54.43c4.2,0,8.33-3.4,10-8.26,2.12-6-.07-12.3-4.88-14a7.47,7.47,0,0,0-2.53-.43Z"/><path class="cls-7" d="M41.57,113.29a5.26,5.26,0,0,1-2.12-.44c-3.62-1.59-4.7-7.14-2.41-12.36,1.85-4.2,5.31-7,8.62-7a5.23,5.23,0,0,1,2.12.44,6.31,6.31,0,0,1,3.46,4.91,13,13,0,0,1-1.05,7.45C48.35,110.47,44.88,113.29,41.57,113.29Z"/><path class="cls-8" d="M45.66,94a4.69,4.69,0,0,1,1.92.4c3.38,1.48,4.34,6.72,2.16,11.7-1.8,4.08-5.16,6.72-8.17,6.72a4.72,4.72,0,0,1-1.92-.4c-3.37-1.48-4.34-6.72-2.15-11.7C39.3,96.61,42.65,94,45.66,94m0-1h0c-3.5,0-7.15,2.94-9.07,7.32A13.42,13.42,0,0,0,35.51,108a6.8,6.8,0,0,0,3.74,5.28,5.74,5.74,0,0,0,2.32.48c3.51,0,7.16-2.94,9.08-7.32a13.48,13.48,0,0,0,1.08-7.74A6.79,6.79,0,0,0,48,93.45,5.67,5.67,0,0,0,45.66,93Z"/><path class="cls-7" d="M87.09,86.79a7.21,7.21,0,0,1-4.74-1.66c-3.51-3-3.36-8.93.32-13.29A11.24,11.24,0,0,1,91,67.66a7.18,7.18,0,0,1,4.73,1.66c3.51,3,3.37,8.93-.32,13.29A11.22,11.22,0,0,1,87.09,86.79Z"/><path class="cls-8" d="M91,68.16A6.76,6.76,0,0,1,95.4,69.7c3.3,2.8,3.13,8.43-.38,12.58a10.68,10.68,0,0,1-7.93,4,6.77,6.77,0,0,1-4.42-1.54c-3.3-2.79-3.13-8.43.38-12.58a10.7,10.7,0,0,1,7.94-4m0-1h0a11.74,11.74,0,0,0-8.7,4.36c-3.86,4.57-4,10.85-.26,14a7.7,7.7,0,0,0,5.06,1.78,11.73,11.73,0,0,0,8.69-4.36c3.87-4.57,4-10.85.26-14A7.65,7.65,0,0,0,91,67.16Z"/><path class="cls-7" d="M67.32,80.66a4.59,4.59,0,0,1-2.3-.6,5.51,5.51,0,0,1-2.5-4.75,12.45,12.45,0,0,1,1.78-6.65c2-3.45,5.1-5.67,7.94-5.67a4.54,4.54,0,0,1,2.29.59c3,1.75,3.35,6.86.72,11.4C73.26,78.43,70.15,80.66,67.32,80.66Z"/><path class="cls-8" d="M72.24,63.49a4.1,4.1,0,0,1,2,.52c2.79,1.61,3,6.41.54,10.72-1.93,3.35-4.95,5.42-7.5,5.42a4,4,0,0,1-2-.52c-2.79-1.61-3-6.41-.54-10.72,1.94-3.35,5-5.42,7.51-5.42m0-1h0c-3,0-6.3,2.32-8.37,5.92-2.81,4.86-2.42,10.17.9,12.08a5,5,0,0,0,2.55.66c3,0,6.29-2.32,8.37-5.92,2.81-4.86,2.41-10.17-.91-12.08a5,5,0,0,0-2.54-.66Z"/><path class="cls-7" d="M93.79,53.6c-3.8,0-6.57-1.48-7.05-3.77-.31-1.48.39-3,2-4.43a13.36,13.36,0,0,1,6-2.8,14.88,14.88,0,0,1,3.15-.34c3.81,0,6.58,1.48,7.06,3.78.31,1.47-.39,3.05-2,4.43a13.46,13.46,0,0,1-6,2.8A15.56,15.56,0,0,1,93.79,53.6Z"/><path class="cls-8" d="M97.87,42.76c3.43,0,6.14,1.29,6.57,3.38.56,2.68-2.84,5.65-7.59,6.64a15,15,0,0,1-3.06.32c-3.42,0-6.13-1.29-6.56-3.37-.56-2.68,2.84-5.65,7.59-6.65a15.66,15.66,0,0,1,3.05-.32m0-1h0a15.86,15.86,0,0,0-3.26.35A13.86,13.86,0,0,0,88.38,45c-1.72,1.5-2.48,3.25-2.13,4.91.53,2.54,3.49,4.17,7.54,4.17a15.84,15.84,0,0,0,3.26-.34,13.82,13.82,0,0,0,6.24-2.92c1.72-1.5,2.48-3.24,2.13-4.91-.53-2.53-3.49-4.17-7.54-4.17Z"/><path class="cls-7" d="M29.65,98.81a2.57,2.57,0,0,1-1.21-.29c-2.3-1.2-2.21-5.77.21-10.41,2-3.78,4.93-6.43,7.2-6.43a2.57,2.57,0,0,1,1.21.29c1.16.61,1.75,2.06,1.66,4.11a15.62,15.62,0,0,1-1.87,6.3C34.88,96.16,31.92,98.81,29.65,98.81Z"/><path class="cls-8" d="M35.85,82.18a2.17,2.17,0,0,1,1,.23c2,1.06,1.83,5.42-.43,9.74-1.92,3.69-4.72,6.16-6.75,6.16a2.17,2.17,0,0,1-1-.23c-2-1.06-1.83-5.41.43-9.74,1.92-3.68,4.72-6.16,6.75-6.16m0-1h0c-2.48,0-5.55,2.69-7.64,6.7a16.17,16.17,0,0,0-1.93,6.51c-.1,2.25.58,3.87,1.93,4.57a3,3,0,0,0,1.44.35c2.48,0,5.55-2.69,7.64-6.7,2.59-5,2.59-9.73,0-11.08a3.11,3.11,0,0,0-1.45-.35Z"/><path class="cls-7" d="M47.48,67.83a2.4,2.4,0,0,1-2-.81c-1.33-1.68.5-5.18,4.24-8.15,2.4-1.89,5-3.07,6.88-3.07a2.41,2.41,0,0,1,2,.81c1.33,1.67-.5,5.17-4.24,8.14C52,66.65,49.33,67.83,47.48,67.83Z"/><path class="cls-8" d="M56.59,56.3a2,2,0,0,1,1.63.62c1.11,1.41-.75,4.74-4.16,7.44-2.39,1.89-4.9,3-6.58,3a2,2,0,0,1-1.62-.62C44.75,65.3,46.61,62,50,59.27c2.39-1.89,4.9-3,6.57-3m0-1h0c-2,0-4.67,1.19-7.19,3.18a16.17,16.17,0,0,0-4,4.51c-1,1.78-1.1,3.32-.29,4.34a2.87,2.87,0,0,0,2.4,1c2,0,4.68-1.19,7.2-3.19a16,16,0,0,0,4-4.5c1-1.78,1.1-3.32.29-4.34a2.87,2.87,0,0,0-2.41-1Z"/><path class="cls-7" d="M27.09,86.6a1.51,1.51,0,0,1-.9-.28c-.52-.37-1-1.26-.34-3.37a17.93,17.93,0,0,1,2.57-4.88c2.16-3,4.66-5,6.23-5a1.44,1.44,0,0,1,.9.28c.52.37,1,1.26.34,3.37a17.65,17.65,0,0,1-2.57,4.88c-2.16,3-4.66,5-6.23,5Z"/><path class="cls-8" d="M34.65,73.58a1,1,0,0,1,.61.18c1.13.81.08,4.2-2.35,7.55-2.06,2.87-4.46,4.79-5.82,4.79a1,1,0,0,1-.61-.18c-1.12-.82-.07-4.2,2.35-7.55,2.07-2.87,4.46-4.79,5.82-4.79m0-1c-2.13,0-4.9,2.8-6.63,5.2-2.4,3.32-4.08,7.53-2.12,9a2,2,0,0,0,1.19.37c2.13,0,4.9-2.8,6.63-5.2,2.4-3.32,4.08-7.54,2.12-9a2,2,0,0,0-1.19-.37Z"/><path class="cls-7" d="M207.49,86.27c-1.5,0-3.47-2-4.78-4.74a12.11,12.11,0,0,1-1.18-4.33c-.06-1.44.35-2.44,1.15-2.82a1.71,1.71,0,0,1,.71-.15c1.5,0,3.46,2,4.78,4.74a11.77,11.77,0,0,1,1.17,4.33c.06,1.44-.34,2.44-1.15,2.82A1.63,1.63,0,0,1,207.49,86.27Z"/><path class="cls-8" d="M203.39,74.73c1.27,0,3.09,1.82,4.32,4.45,1.41,3,1.53,5.89.27,6.48a1,1,0,0,1-.49.11c-1.27,0-3.09-1.82-4.33-4.45-1.4-3-1.52-5.9-.26-6.49a1.13,1.13,0,0,1,.49-.1m0-1h0a2.17,2.17,0,0,0-.92.2c-.57.27-1.53,1.06-1.44,3.29a12.44,12.44,0,0,0,1.23,4.52c1.17,2.5,3.25,5,5.23,5a2.21,2.21,0,0,0,.92-.2c.57-.27,1.53-1.06,1.43-3.29a12.21,12.21,0,0,0-1.22-4.52c-1.18-2.51-3.25-5-5.23-5Z"/><path class="cls-7" d="M205.28,98.52c-1.9,0-4.52-2.76-6.37-6.71a18.15,18.15,0,0,1-1.74-6c-.15-1.92.3-3.23,1.28-3.69a1.77,1.77,0,0,1,.77-.17c1.9,0,4.52,2.76,6.37,6.71s2.63,8.65.47,9.67A1.85,1.85,0,0,1,205.28,98.52Z"/><path class="cls-8" d="M199.22,82.47c1.65,0,4.15,2.65,5.92,6.42,2,4.23,2.3,8.26.7,9a1.31,1.31,0,0,1-.56.12c-1.65,0-4.15-2.65-5.92-6.42-2-4.23-2.3-8.26-.7-9a1.31,1.31,0,0,1,.56-.12m0-1h0a2.24,2.24,0,0,0-1,.22c-.83.39-1.77,1.43-1.56,4.18A18.51,18.51,0,0,0,198.46,92c1.63,3.48,4.38,7,6.82,7a2.24,2.24,0,0,0,1-.22c.83-.39,1.77-1.43,1.56-4.18A18.46,18.46,0,0,0,206,88.47c-1.63-3.49-4.38-7-6.82-7Z"/><path class="cls-7" d="M197.51,110.09c-3.27,0-6.81-2.6-8.81-6.47-2.64-5.12-1.83-10.81,1.82-12.69a5.56,5.56,0,0,1,2.59-.62c3.27,0,6.81,2.6,8.81,6.47,2.64,5.12,1.82,10.81-1.82,12.69A5.56,5.56,0,0,1,197.51,110.09Z"/><path class="cls-8" d="M193.11,90.81c3,0,6.39,2.38,8.37,6.2,2.51,4.88,1.8,10.26-1.61,12a5.12,5.12,0,0,1-2.36.56c-3,0-6.39-2.38-8.37-6.2-2.52-4.88-1.8-10.26,1.61-12a5.07,5.07,0,0,1,2.36-.56m0-1h0a6,6,0,0,0-2.82.68c-3.89,2-4.8,8-2,13.36,2.09,4,5.81,6.74,9.26,6.74a6.14,6.14,0,0,0,2.82-.67,7.08,7.08,0,0,0,3.56-5.6,13.26,13.26,0,0,0-1.53-7.76c-2.08-4-5.8-6.75-9.25-6.75Z"/><path class="cls-7" d="M179.51,75.77a12.74,12.74,0,0,1-7.93-3.24,13.33,13.33,0,0,1-4.28-6.24,6.15,6.15,0,0,1,.88-5.88,5.85,5.85,0,0,1,4.59-1.91,12.72,12.72,0,0,1,7.93,3.25c4.39,3.71,5.91,9.15,3.4,12.12A5.85,5.85,0,0,1,179.51,75.77Z"/><path class="cls-8" d="M172.77,59a12.26,12.26,0,0,1,7.61,3.13c4.18,3.54,5.68,8.65,3.34,11.42a5.35,5.35,0,0,1-4.21,1.72,12.3,12.3,0,0,1-7.61-3.12c-4.18-3.54-5.68-8.65-3.34-11.42A5.35,5.35,0,0,1,172.77,59m0-1h0a6.34,6.34,0,0,0-5,2.08c-2.74,3.24-1.22,8.88,3.46,12.83a13.21,13.21,0,0,0,8.25,3.36,6.34,6.34,0,0,0,5-2.08,6.62,6.62,0,0,0,1-6.34A13.82,13.82,0,0,0,181,61.36,13.29,13.29,0,0,0,172.77,58Z"/><path class="cls-7" d="M188.35,68c-1.67,0-4.2-1.25-6.59-3.27-2.93-2.48-5.33-6-4-7.56a1.86,1.86,0,0,1,1.53-.61c1.67,0,4.2,1.26,6.59,3.28,2.93,2.48,5.32,6,4,7.56A1.86,1.86,0,0,1,188.35,68Z"/><path class="cls-8" d="M179.31,57.05c1.48,0,3.93,1.19,6.26,3.16,3.13,2.65,4.89,5.72,3.93,6.86a1.43,1.43,0,0,1-1.15.42c-1.48,0-3.93-1.18-6.26-3.16-3.14-2.64-4.89-5.71-3.93-6.85a1.43,1.43,0,0,1,1.15-.43m0-1h0a2.42,2.42,0,0,0-1.92.78c-.53.64-.91,1.85.33,4a17.17,17.17,0,0,0,3.72,4.26c2.48,2.09,5.13,3.39,6.91,3.39a2.35,2.35,0,0,0,1.91-.78c.54-.63.92-1.84-.32-4a17,17,0,0,0-3.72-4.26c-2.48-2.1-5.13-3.4-6.91-3.4Z"/><path class="cls-7" d="M158,49.11a14,14,0,0,1-5.12-1,13,13,0,0,1-5.27-3.65c-1.28-1.56-1.69-3.17-1.16-4.51.64-1.6,2.57-2.55,5.17-2.55a13.94,13.94,0,0,1,5.11,1A13.09,13.09,0,0,1,162,42.05c1.28,1.57,1.69,3.17,1.16,4.51C162.47,48.16,160.54,49.11,158,49.11Z"/><path class="cls-8" d="M151.57,37.85a13.65,13.65,0,0,1,4.93,1c4.35,1.74,7.11,5.1,6.14,7.52-.58,1.46-2.39,2.23-4.69,2.23a13.66,13.66,0,0,1-4.94-1c-4.35-1.74-7.1-5.1-6.14-7.51.58-1.46,2.39-2.24,4.7-2.24m0-1h0c-2.85,0-4.9,1-5.63,2.87-1.19,3,1.76,6.84,6.7,8.81A14.59,14.59,0,0,0,158,49.61c2.85,0,4.9-1,5.62-2.86,1.19-3-1.76-6.84-6.7-8.82a14.54,14.54,0,0,0-5.3-1.08Z"/><path class="cls-14" d="M83.34,124.28a2.57,2.57,0,0,1-1.81-.79c-3.17-3.08-5.28-9.38-4.54-11.83.79-2.65,2.62-4.24,4.89-4.24a6.91,6.91,0,0,1,7.14,6c.52,3-1,7-2.76,9.1A4,4,0,0,1,83.34,124.28Z"/><path class="cls-8" d="M81.88,107.92a6.4,6.4,0,0,1,6.65,5.62c.66,3.93-2.39,10.24-5.19,10.24a2.06,2.06,0,0,1-1.46-.65c-3.06-3-5.08-9.1-4.41-11.33s2.21-3.88,4.41-3.88m0-1c-2.5,0-4.51,1.72-5.37,4.6-.79,2.63,1.33,9.08,4.67,12.32a3.1,3.1,0,0,0,2.16.94,4.52,4.52,0,0,0,3.3-1.89c1.84-2.18,3.41-6.33,2.87-9.52a7.38,7.38,0,0,0-7.63-6.45Z"/><path class="cls-15" d="M61.13,114.83c-1.59,0-3.48-.92-5.47-2.65a6.61,6.61,0,0,1-2.11-4.38,4.52,4.52,0,0,0-.78-2.28.52.52,0,0,1-.11-.4c.31-2.07,2-3.26,4.55-3.26a10.83,10.83,0,0,1,2.71.38c3.14.83,6.32,3.2,6.32,6.13,0,2.78-2.5,5.86-4.06,6.31A3.6,3.6,0,0,1,61.13,114.83Z"/><path class="cls-8" d="M57.21,102.36a10.25,10.25,0,0,1,2.58.36c3.12.82,5.95,3.12,5.95,5.65s-2.28,5.42-3.7,5.83a3.28,3.28,0,0,1-.91.13c-1.34,0-3.08-.73-5.14-2.53-2.56-2.22-1.42-5-2.84-6.6.29-1.93,1.89-2.84,4.06-2.84m0-1h0c-2.81,0-4.7,1.38-5.05,3.69a1,1,0,0,0,.23.8,4.06,4.06,0,0,1,.67,2,7,7,0,0,0,2.27,4.67c2.11,1.83,4.07,2.77,5.8,2.77a4.23,4.23,0,0,0,1.19-.17c1.93-.56,4.42-4,4.42-6.79,0-3.19-3.37-5.74-6.69-6.61a11,11,0,0,0-2.84-.4Z"/><path class="cls-16" d="M44.15,110.64c-3.11,0-8.75-5.5-9.94-9a10.85,10.85,0,0,1,1.27-8.57A2,2,0,0,1,37,92.07a1.41,1.41,0,0,1,.35.05c.89.29,2.09,1.61,3.36,3a13.47,13.47,0,0,0,2.82,2.64l.8.34a7.42,7.42,0,0,0,2.72.8.82.82,0,0,1,.76.55c.77,1.6-.09,8-2,10.44A2,2,0,0,1,44.15,110.64Z"/><path class="cls-8" d="M37,92.57a.58.58,0,0,1,.19,0c1.5.49,4.62,5,6.15,5.63a10.7,10.7,0,0,0,3.71,1.17c1.15,0,.4,7.61-1.66,10.18a1.55,1.55,0,0,1-1.26.56c-2.88,0-8.37-5.41-9.47-8.61-1.24-3.62.85-9,2.34-9m0-1h0a2.48,2.48,0,0,0-2,1.26,11.19,11.19,0,0,0-1.33,9c1.14,3.33,6.83,9.29,10.41,9.29a2.52,2.52,0,0,0,2-.94c2.07-2.58,2.92-9.23,2.1-11a1.33,1.33,0,0,0-1.22-.84,7,7,0,0,1-2.52-.76l-.81-.34a14.44,14.44,0,0,1-2.65-2.52C39.5,93,38.47,92,37.52,91.65a1.69,1.69,0,0,0-.5-.08Z"/><path class="cls-17" d="M88.5,80.34c-1.08,0-4.34,0-5.22-2.93a14.06,14.06,0,0,1,1.23-9.64,3.11,3.11,0,0,1,2-1.63,5,5,0,0,1,1-.1,4.51,4.51,0,0,1,3.44,1.58c1.47,1.67,2.12,4.48,1.74,7.52-.61,4.81-1.19,5.2-4.14,5.2Z"/><path class="cls-8" d="M87.49,66.54c3.52,0,5.24,4.14,4.68,8.54-.6,4.76-1.1,4.76-3.64,4.76h0c-1.08,0-4,0-4.73-2.57-1.09-3.61.42-10.2,2.82-10.64a4.92,4.92,0,0,1,.91-.09m0-1h0a5.93,5.93,0,0,0-1.09.11,3.6,3.6,0,0,0-2.32,1.86,14.39,14.39,0,0,0-1.28,10c.65,2.18,2.57,3.29,5.69,3.29,3.41,0,4.06-.79,4.67-5.64.4-3.17-.29-6.13-1.86-7.91a5,5,0,0,0-3.81-1.75Z"/><path class="cls-18" d="M29.55,93.59a.59.59,0,0,1-.26-.07c-2.11-1.25-4.37-4.26-4.37-6.75,0-2.2,2.06-4.36,3.25-4.36a.9.9,0,0,1,.83.49,18.94,18.94,0,0,0,1.65,2A24.94,24.94,0,0,1,33.83,89a.46.46,0,0,1,.06.23C33.89,92.09,32.39,93.59,29.55,93.59Z"/><path class="cls-8" d="M28.17,82.91a.41.41,0,0,1,.39.22c.49,1,3.91,4.3,4.83,6.12,0,2.31-1,3.84-3.84,3.84-2-1.17-4.13-4-4.13-6.32,0-1.94,1.86-3.86,2.75-3.86m0-1h0c-1.55,0-3.75,2.51-3.75,4.86,0,2.75,2.4,5.87,4.62,7.18a1,1,0,0,0,.51.14c3.12,0,4.84-1.72,4.84-4.84a1,1,0,0,0-.11-.45A25.53,25.53,0,0,0,31,84.59a22,22,0,0,1-1.59-1.92,1.41,1.41,0,0,0-1.27-.76Z"/><path class="cls-19" d="M28.65,79.31c-.53,0-1.42-.28-1.42-2.13,0-5.69,1.67-9.09,4.47-9.09,2.51,0,4.92,3.14,5,3.27a.5.5,0,0,1,0,.61c-.93,1.22-5.73,7.34-8.07,7.34Z"/><path class="cls-8" d="M31.7,68.59c2.29,0,4.62,3.07,4.62,3.07s-5.46,7.15-7.67,7.15c-.57,0-.92-.46-.92-1.63,0-5.73,1.67-8.59,4-8.59m0-1c-3.11,0-5,3.59-5,9.59,0,2.44,1.47,2.63,1.92,2.63,2.51,0,7.12-5.77,8.47-7.54a1,1,0,0,0,0-1.21c-.27-.36-2.71-3.47-5.42-3.47Z"/><path class="cls-20" d="M28.61,84.82c-2,0-3.69-3.06-3.69-5,0-2.13,0-4,2.59-5.21a3.7,3.7,0,0,1,1.58-.38A3.63,3.63,0,0,1,32.53,78c0,2.29-.88,5.18-2.86,6.46a1.94,1.94,0,0,1-1.06.32Z"/><path class="cls-8" d="M29.09,74.75A3.14,3.14,0,0,1,32,78c0,2.17-.83,4.87-2.63,6a1.48,1.48,0,0,1-.79.24c-1.59,0-3.19-2.69-3.19-4.48,0-2.1,0-3.65,2.31-4.76a3.08,3.08,0,0,1,1.36-.33m0-1a4,4,0,0,0-1.79.43c-2.88,1.38-2.88,3.56-2.88,5.66s1.88,5.48,4.19,5.48a2.5,2.5,0,0,0,1.34-.4C32.07,83.54,33,80.47,33,78a4.13,4.13,0,0,0-3.94-4.29Z"/><path class="cls-21" d="M72.7,40.93a1.58,1.58,0,0,1-1.3-.44,1,1,0,0,1-.17-.84c.38-1.68,2.36-3.6,3.8-5,.52-.5,1-.93,1.21-1.22a2.8,2.8,0,0,1,2.25-.95A3.62,3.62,0,0,1,81,33.4c.94,1,.33,4.06.12,5a.5.5,0,0,1-.3.36c-.24.09-5.71,2.19-8.1,2.19Z"/><path class="cls-8" d="M78.49,33a3.11,3.11,0,0,1,2.13.76c.82.86,0,4.52,0,4.52S75,40.43,72.7,40.43c-.68,0-1.08-.18-1-.67.47-2.13,4-4.86,4.9-6A2.39,2.39,0,0,1,78.49,33m0-1a3.3,3.3,0,0,0-2.64,1.13c-.22.27-.68.71-1.17,1.18-1.49,1.44-3.53,3.41-3.93,5.25A1.44,1.44,0,0,0,71,40.8a2.15,2.15,0,0,0,1.69.63c2.44,0,7.69-2,8.28-2.23a1,1,0,0,0,.61-.71c.35-1.56.79-4.35-.25-5.43A4,4,0,0,0,78.49,32Z"/><path class="cls-22" d="M83.4,36.58a.52.52,0,0,1-.32-.11c-.13-.11-3.09-2.63-1.63-5.15s5.07-3.72,7.17-3.72a1.7,1.7,0,0,1,1.3.58c1,1.19.71,3.84.67,4.14a.52.52,0,0,1-.24.37l-6.7,3.83A.57.57,0,0,1,83.4,36.58Z"/><path class="cls-8" d="M88.62,28.1c2,0,1.48,4.15,1.48,4.15l-6.7,3.83s-2.78-2.33-1.52-4.51,4.7-3.47,6.74-3.47m0-1c-2.22,0-6.1,1.38-7.6,4-1.34,2.29.46,4.71,1.74,5.78a1,1,0,0,0,.64.23,1,1,0,0,0,.5-.13l6.69-3.83a1,1,0,0,0,.5-.73c.07-.53.36-3.21-.8-4.53a2.14,2.14,0,0,0-1.67-.76Z"/><path class="cls-23" d="M60.62,50.9a.47.47,0,0,1-.17,0,.49.49,0,0,1-.31-.33,29.82,29.82,0,0,1-1.2-6c.06-1.81,1.54-2.88,4-2.88,2,0,2.86,3.38,3.22,4.82l.09.34a.48.48,0,0,1-.2.54L60.9,50.81A.49.49,0,0,1,60.62,50.9Z"/><path class="cls-8" d="M62.91,42.15c1.79,0,2.59,3.93,2.83,4.79L60.62,50.4a30,30,0,0,1-1.18-5.86c.05-1.73,1.67-2.39,3.47-2.39m0-1c-2.7,0-4.41,1.29-4.46,3.37a28.28,28.28,0,0,0,1.21,6.16,1,1,0,0,0,.62.66,1,1,0,0,0,.34.06,1,1,0,0,0,.56-.17l5.12-3.46a1,1,0,0,0,.4-1.1l-.08-.32c-.43-1.69-1.32-5.2-3.71-5.2Z"/><path class="cls-24" d="M48.48,59.57c-.5,0-3-.31-3.47-1.65-.23-.69.13-1.45,1.07-2.25a9,9,0,0,0,2.28-4.16c.66-2,1.35-4,3.68-4,3.12,0,4.49,3.32,4.77,5.08a.52.52,0,0,1-.17.47l-7.8,6.39a.47.47,0,0,1-.32.12Z"/><path class="cls-8" d="M52,48c3.52,0,4.28,4.66,4.28,4.66l-7.8,6.4s-5.16-.41-2.11-3,2.11-8,5.63-8m0-1c-2.69,0-3.47,2.31-4.16,4.34a8.55,8.55,0,0,1-2.13,3.94c-1.1,1-1.51,1.88-1.22,2.78.53,1.61,3.13,1.93,3.91,2h.08a1,1,0,0,0,.64-.23L57,53.44a1,1,0,0,0,.36-.93c0-.22-1-5.5-5.27-5.5Z"/><path class="cls-25" d="M41,66.31h-.1a.49.49,0,0,1-.37-.31c-.06-.17-1.49-4.08.42-5.91a3.38,3.38,0,0,1,2.42-.86,8.45,8.45,0,0,1,3.22.77.51.51,0,0,1,.28.37.52.52,0,0,1-.14.44l-5.37,5.37A.54.54,0,0,1,41,66.31Z"/><path class="cls-8" d="M43.4,59.72a8.09,8.09,0,0,1,3,.72L41,65.81s-1.4-3.74.3-5.37a2.9,2.9,0,0,1,2.07-.72m0-1a3.85,3.85,0,0,0-2.76,1c-2.12,2-.71,6-.55,6.44a1,1,0,0,0,.73.63.75.75,0,0,0,.21,0,1,1,0,0,0,.71-.29l5.37-5.37a1,1,0,0,0-.27-1.61,9.12,9.12,0,0,0-3.44-.82Z"/><path class="cls-26" d="M50.24,65.56c-1.27,0-3-1.42-4-2.83a4.87,4.87,0,0,1-1.13-4.22c.9-2.83,4.65-4.57,6.94-4.57a3.93,3.93,0,0,1,3.45,2.9,1.58,1.58,0,0,1-.69,1.92c-.52.27-.42,1.35-.33,2.39a5.37,5.37,0,0,1-.18,2.71C53.47,65.56,52,65.56,50.24,65.56Z"/><path class="cls-8" d="M52,54.44c2.13,0,3.94,3.13,2.53,3.88s0,3.89-.73,5.32-1.88,1.42-3.6,1.42-5.49-3.78-4.66-6.4,4.33-4.22,6.46-4.22m0-1c-2.4,0-6.41,1.75-7.41,4.92A5.32,5.32,0,0,0,45.83,63c1.07,1.47,2.91,3,4.41,3,1.82,0,3.54,0,4.5-2a5.71,5.71,0,0,0,.23-3c0-.49-.16-1.79.06-1.91A2.08,2.08,0,0,0,56,56.72,4.46,4.46,0,0,0,52,53.44Z"/><path class="cls-27" d="M159.72,38.77a.45.45,0,0,1-.2,0L151.11,35a.5.5,0,0,1,.19-1,8,8,0,0,0,2.85-.46,10.13,10.13,0,0,0-.65-1.18c-.76-1.24-1.53-2.52-1.05-3.38a1.45,1.45,0,0,1,1.38-.62c3.07,0,7.11,3.35,7.11,5.32a24.81,24.81,0,0,1-.73,4.64.5.5,0,0,1-.27.33A.54.54,0,0,1,159.72,38.77Z"/><path class="cls-8" d="M153.83,28.93c2.81,0,6.61,3.15,6.61,4.82a24.7,24.7,0,0,1-.72,4.52l-8.41-3.7s3.11-.06,3.34-.82-3.63-4.82-.82-4.82m0-1a1.91,1.91,0,0,0-1.82.88c-.62,1.11.23,2.52,1.06,3.88l.38.64a12.23,12.23,0,0,1-2.16.24,1,1,0,0,0-.38,1.91l8.41,3.71a1.1,1.1,0,0,0,.4.08,1,1,0,0,0,1-.76,25.2,25.2,0,0,0,.75-4.76c0-2.39-4.48-5.82-7.61-5.82Z"/><path class="cls-28" d="M176.47,46.77c-2.6,0-7.7-3.3-7.91-3.44a.48.48,0,0,1-.23-.4.49.49,0,0,1,.2-.42c.16-.11,3.85-2.82,6.2-2.82a2.28,2.28,0,0,1,.94.18c1.7.72,2.89,3.72,2.53,5.42A1.68,1.68,0,0,1,176.47,46.77Z"/><path class="cls-8" d="M174.73,40.19a1.79,1.79,0,0,1,.75.14c2,.85,3.47,5.94,1,5.94s-7.64-3.36-7.64-3.36,3.69-2.72,5.9-2.72m0-1h0c-2.47,0-6.09,2.62-6.5,2.92a1,1,0,0,0-.4.83,1,1,0,0,0,.45.81c.56.36,5.49,3.52,8.19,3.52a2.17,2.17,0,0,0,2.22-1.87c.4-1.92-.9-5.17-2.82-6a2.76,2.76,0,0,0-1.14-.22Z"/><path class="cls-29" d="M183.15,53.08c-1.37-.18-5.9-.9-6.41-2.43a1.16,1.16,0,0,1,.37-1.25,2.64,2.64,0,0,0,.71-2.3,2.25,2.25,0,0,1,1-2.41A3.74,3.74,0,0,1,184.14,46c1.45,1.91-.26,6.31-.46,6.81a.49.49,0,0,1-.46.31Z"/><path class="cls-8" d="M180.91,44.59a3.62,3.62,0,0,1,2.83,1.68c1.32,1.74-.52,6.32-.52,6.32s-7.58-1-5.76-2.84-.07-3.64,1.65-4.63a3.67,3.67,0,0,1,1.8-.53m0-1h0a4.61,4.61,0,0,0-2.3.66,2.77,2.77,0,0,0-1.29,2.87,2.16,2.16,0,0,1-.57,1.93,1.69,1.69,0,0,0-.49,1.76c.55,1.61,4,2.39,6.83,2.77h.13a1,1,0,0,0,.93-.63c.34-.85,2-5.21.39-7.29a4.55,4.55,0,0,0-3.63-2.08Z"/><path class="cls-30" d="M186,65.56c-2,0-4.67-4.64-5.18-5.57a.49.49,0,0,1,0-.41c.46-1.25,2.89-7.49,5.26-7.49s4.64,2.87,4.64,5.09c0,1.77-2.29,8.25-4.61,8.38Z"/><path class="cls-8" d="M186.05,52.59c2.15,0,4.14,2.71,4.14,4.59s-2.3,7.78-4.14,7.88H186c-1.84,0-4.74-5.31-4.74-5.31s2.65-7.16,4.79-7.16m0-1c-2.56,0-4.86,5.46-5.73,7.81a1,1,0,0,0,.06.83c1,1.75,3.43,5.83,5.62,5.83h.11c2.73-.15,5.08-6.83,5.08-8.88,0-2.46-2.42-5.59-5.14-5.59Z"/><path class="cls-31" d="M196.49,67.64a.47.47,0,0,1-.39-.2L191,60.75a.51.51,0,0,1-.11-.31c0-.92.47-2.66,2.26-2.66a4.26,4.26,0,0,1,.47,0c2.32.38,3.77,1,4.37,3.37s-.92,6-1,6.14a.5.5,0,0,1-.4.3Z"/><path class="cls-8" d="M193.1,58.29l.39,0c2.15.34,3.43.89,4,3s-1,5.82-1,5.82l-5.15-6.7s0-2.15,1.76-2.15m0-1h0a2.92,2.92,0,0,0-2.76,3.15,1,1,0,0,0,.21.61l5.15,6.7a1,1,0,0,0,.79.39h.14a1,1,0,0,0,.79-.62c.17-.41,1.61-4.08,1-6.44-.74-2.86-2.77-3.42-4.78-3.74a3.56,3.56,0,0,0-.55,0Z"/><path class="cls-32" d="M204.81,75.58a.55.55,0,0,1-.34-.13l-5.43-5a.52.52,0,0,1-.15-.46c.1-.55,1-5.42,3.69-5.42s4.79,3.08,5,5.12-2.22,5.54-2.32,5.69a.53.53,0,0,1-.35.21Z"/><path class="cls-8" d="M202.58,65.06c2.31,0,4.3,2.71,4.46,4.66s-2.23,5.36-2.23,5.36l-5.43-5s.89-5,3.2-5m0-1c-3,0-4,4.86-4.18,5.84a1,1,0,0,0,.3.91l5.43,5a1,1,0,0,0,.68.27h.11a1,1,0,0,0,.71-.42c.27-.38,2.6-3.77,2.41-6-.22-2.52-2.7-5.57-5.46-5.57Z"/><path class="cls-33" d="M208.69,84.1a11.06,11.06,0,0,1-3.32-.72.48.48,0,0,1-.28-.28l-1.32-3.34a.5.5,0,0,1,.46-.68h.12a1.79,1.79,0,0,0,.34,0,1.29,1.29,0,0,0,1.25-.71,4.89,4.89,0,0,0,.19-1.76c0-1.27,0-2.87,1.42-2.87a1.94,1.94,0,0,1,.64.12,3.18,3.18,0,0,1,1.73,1.88c1,2.26,1.27,6,.72,7.33C210.45,83.56,210,84.1,208.69,84.1Z"/><path class="cls-8" d="M207.55,74.28a1.54,1.54,0,0,1,.48.09c2.15.71,2.81,7,2.15,8.54-.22.52-.81.69-1.49.69a10.54,10.54,0,0,1-3.13-.69l-1.33-3.33a2.52,2.52,0,0,0,.47,0,1.78,1.78,0,0,0,1.68-1c.61-1.18-.31-4.35,1.17-4.36m0-1h0c-1.89,0-1.91,2.11-1.92,3.37a5,5,0,0,1-.14,1.53.75.75,0,0,1-.79.44,1.35,1.35,0,0,1-.24,0l-.21,0A1,1,0,0,0,203.3,80l1.33,3.33a1,1,0,0,0,.56.57,11.68,11.68,0,0,0,3.5.75,2.32,2.32,0,0,0,2.41-1.29c.66-1.53.28-5.5-.72-7.73a3.68,3.68,0,0,0-2-2.16,2.7,2.7,0,0,0-.8-.14Z"/><path class="cls-34" d="M205.72,94.71c-1.31,0-3.59-1.95-4.6-3.56a2.68,2.68,0,0,1-.48-2.56,5.14,5.14,0,0,1,3.05-2.36,2.75,2.75,0,0,1,.44-1.85,1.18,1.18,0,0,1,.93-.42,6.09,6.09,0,0,0,.72,0c.29,0,.59,0,.89,0A2.85,2.85,0,0,1,209.1,85a5.32,5.32,0,0,1,0,5.56,8.31,8.31,0,0,0-.72,1.33C207.76,93.2,207.06,94.71,205.72,94.71Z"/><path class="cls-8" d="M206.67,84.36a2.34,2.34,0,0,1,2,.92,4.84,4.84,0,0,1,0,5c-.84,1.11-1.49,4-3,4s-5.45-3.69-4.63-5.4a5,5,0,0,1,3.14-2.21s-.33-2.14.83-2.14c.5,0,1.05-.1,1.61-.1m0-1a8.9,8.9,0,0,0-.93.06c-.24,0-.47,0-.68,0a1.7,1.7,0,0,0-1.31.59,2.86,2.86,0,0,0-.56,1.84,5.38,5.38,0,0,0-3,2.48c-.28.58-.42,1.58.5,3s3.39,3.8,5,3.8,2.47-1.73,3.12-3.12a7.76,7.76,0,0,1,.66-1.25,5.8,5.8,0,0,0,0-6.16,3.35,3.35,0,0,0-2.83-1.32Z"/><path class="cls-35" d="M182.66,72.84a2.75,2.75,0,0,1-1.7-.77c-1.05-.59-8-4.49-8.78-6.84a1.69,1.69,0,0,1,0-1.38,2.72,2.72,0,0,1,1.86-1.09c.9-.26,1.12-.39,1.09-.62s-.1-.56-.15-.82c-.24-1.22-.53-2.73,1.36-3.14a4.45,4.45,0,0,1,1.07-.11c1.72,0,4,.74,4.88,2.11s3,9.92,1.85,11.76A1.77,1.77,0,0,1,182.66,72.84Z"/><path class="cls-8" d="M177.43,58.57c1.67,0,3.74.73,4.46,1.87.86,1.37,2.84,9.7,1.85,11.22a1.27,1.27,0,0,1-1.08.68,2.31,2.31,0,0,1-1.4-.68s-7.8-4.3-8.61-6.6,3.23-1.37,3-3-.9-3,.83-3.41a4.82,4.82,0,0,1,1-.09m0-1a5.48,5.48,0,0,0-1.18.12c-2.37.52-2,2.52-1.74,3.72l.12.64a4.91,4.91,0,0,1-.71.22,3.19,3.19,0,0,0-2.17,1.35,2.2,2.2,0,0,0-.05,1.77c.87,2.46,7.37,6.2,9,7.09a3.19,3.19,0,0,0,2,.86,2.29,2.29,0,0,0,1.92-1.13c1.35-2.08-1-10.94-1.85-12.3-1-1.54-3.4-2.34-5.3-2.34Z"/><path class="cls-36" d="M156.64,46.77a8.47,8.47,0,0,1-5.77-3.23,3.31,3.31,0,0,1-.17-2.5,3.43,3.43,0,0,0,.11-.71c0-.14-.3-.49-.47-.7-.45-.52-1.29-1.5-.34-2.38a6.76,6.76,0,0,1,4-1.84,2.66,2.66,0,0,1,1.07.22c1.3.57,4.88,2.78,4.88,4.86C160,42,158,46.77,156.64,46.77Z"/><path class="cls-8" d="M154,35.91a2.29,2.29,0,0,1,.87.17c1.43.63,4.58,2.75,4.58,4.41s-2,5.78-2.81,5.78a8,8,0,0,1-5.33-3c-.62-1.15,0-2.15,0-3s-1.95-1.81-1-2.71A6.24,6.24,0,0,1,154,35.91m0-1h0a7.28,7.28,0,0,0-4.34,2c-1.3,1.21-.14,2.57.3,3.08.11.14.28.33.35.44a4.77,4.77,0,0,1-.1.53,3.89,3.89,0,0,0,.22,2.85,8.79,8.79,0,0,0,6.21,3.49c1.78,0,3.81-5.13,3.81-6.78,0-2.5-4.15-4.87-5.18-5.32a3.1,3.1,0,0,0-1.27-.26Z"/><path class="cls-37" d="M197.46,106.83c-2,0-4.8-5.49-4.8-7.43a2.67,2.67,0,0,1,1.21-2.14,3.13,3.13,0,0,0,1.28-1.94c.08-.43.15-.84.22-1.24.31-1.88.59-3.51,2.09-3.51a4.88,4.88,0,0,1,4.09,2.32l.14.32c.68,1.48,2.49,5.44,1.18,8.35C201.43,104.76,199.3,106.83,197.46,106.83Z"/><path class="cls-8" d="M197.46,91.07a4.42,4.42,0,0,1,3.63,2c.49,1.12,2.65,5.33,1.33,8.26s-3.31,5-5,5-4.3-5.14-4.3-6.93,2-1.66,2.48-4,.5-4.34,1.82-4.34m0-1c-1.93,0-2.26,2-2.59,3.93-.06.39-.13.8-.21,1.22a2.65,2.65,0,0,1-1.12,1.66,3.17,3.17,0,0,0-1.38,2.52c0,2,2.75,7.93,5.3,7.93,2.07,0,4.32-2.13,5.87-5.57,1.4-3.11-.47-7.22-1.18-8.76-.06-.12-.1-.23-.14-.31-.69-1.57-2.91-2.62-4.55-2.62Z"/><path class="cls-7" d="M117.73,28.6c-1.76,0-5.86-.15-5.86-1.49s4.1-1.49,5.86-1.49,5.86.14,5.86,1.49S119.49,28.6,117.73,28.6Z"/><path class="cls-8" d="M117.73,26.12c3,0,5.36.44,5.36,1s-2.4,1-5.36,1-5.36-.44-5.36-1,2.4-1,5.36-1m0-1c-6.36,0-6.36,1.5-6.36,2s0,2,6.36,2,6.36-1.5,6.36-2,0-2-6.36-2Z"/><path class="cls-8" d="M57.77,75.08a3.11,3.11,0,0,1,1.25.26h0c5.73,2.46,15.4,10.81,11.17,24.91a3.21,3.21,0,0,1-3.06,2.28,3.33,3.33,0,0,1-.93-.14,3.4,3.4,0,0,1-.34-.12,3.19,3.19,0,0,1-1.8-3.86c3.57-11.91-6.44-16.69-7.59-17.2a3.2,3.2,0,0,1,1.28-6.14m0-1h0a4.2,4.2,0,0,0-1.68,8.06c1.07.47,10.35,4.91,7,16a4.21,4.21,0,0,0,2.36,5.07l.46.16a4.12,4.12,0,0,0,1.21.18,4.23,4.23,0,0,0,4-3C75.6,85.77,65.43,77,59.44,74.43a4.14,4.14,0,0,0-1.67-.35Z"/><path class="cls-8" d="M48.84,73.2a3.2,3.2,0,0,1,1,6.23c-2.51.87-6.6,3.06-7.42,5a22.84,22.84,0,0,0-1.37,8A3.2,3.2,0,0,1,38,95.71h-.08a3.09,3.09,0,0,1-1.26-.26,3.16,3.16,0,0,1-1.94-2.85,29.09,29.09,0,0,1,1.88-10.74c2.22-5.15,9.74-8,11.22-8.48a3.22,3.22,0,0,1,1.05-.18m0-1h0a4.24,4.24,0,0,0-1.37.23c-1.56.54-9.44,3.5-11.82,9a30.25,30.25,0,0,0-2,11.15,4.2,4.2,0,0,0,2.54,3.75,4.11,4.11,0,0,0,1.66.34H38a4.21,4.21,0,0,0,4.1-4.3,22.07,22.07,0,0,1,1.29-7.63c.58-1.36,4.09-3.45,6.83-4.41a4.2,4.2,0,0,0-1.37-8.17Z"/><path class="cls-38" d="M78.17,56a3.63,3.63,0,0,1-1.46-.3,3.7,3.7,0,0,1-1.21-6c.38-.4,9.62-9.78,27.86-9.78H104a3.7,3.7,0,0,1,2.61,1.11,3.66,3.66,0,0,1,1,2.63,3.71,3.71,0,0,1-3.7,3.66h-.57c-15,0-22.45,7.43-22.52,7.51A3.7,3.7,0,0,1,78.17,56Z"/><path class="cls-8" d="M103.36,40.49H104a3.2,3.2,0,0,1,0,6.4h-.57c-15.34,0-22.81,7.58-22.88,7.66a3.17,3.17,0,0,1-2.31,1,3.3,3.3,0,0,1-1.27-.25,3.25,3.25,0,0,1-1-.64,3.2,3.2,0,0,1-.09-4.53c.38-.39,9.46-9.62,27.5-9.62m0-1c-18.46,0-27.83,9.52-28.22,9.93a4.2,4.2,0,0,0,1.37,6.77,4.21,4.21,0,0,0,4.69-.95c.07-.07,7.37-7.35,22.16-7.35h.52a4.22,4.22,0,0,0,4.25-4.15A4.2,4.2,0,0,0,104,39.49Z"/><path class="cls-39" d="M38.69,98.73c-1.8,0-4.85-.62-5.54-1.6-.85-1.2.63-4,1.11-4.78a.48.48,0,0,1,.43-.25h.06l6.28.77a.49.49,0,0,1,.44.45c.06.61.29,3.74-.67,4.82A2.77,2.77,0,0,1,38.69,98.73Z"/><path class="cls-8" d="M34.69,92.6l6.28.76s.32,3.48-.55,4.45a2.5,2.5,0,0,1-1.73.42c-1.89,0-4.63-.67-5.13-1.39-.73-1,1.13-4.24,1.13-4.24m0-1a1,1,0,0,0-.87.5c-.65,1.13-2.07,3.92-1.08,5.32s4.37,1.81,5.95,1.81a3.17,3.17,0,0,0,2.48-.75c1.08-1.21.88-4.29.8-5.21a1,1,0,0,0-.87-.9l-6.29-.76Z"/><path class="cls-39" d="M72.64,106.83a21.34,21.34,0,0,1-6.91-1.45,8.19,8.19,0,0,0-.83,0c-1.13,0-2.68-.07-3.3-1.24a.56.56,0,0,1-.06-.31,11,11,0,0,1,2-4.68.5.5,0,0,1,.39-.2H64l6.14.83a4.77,4.77,0,0,1,1.53-.27,3.14,3.14,0,0,1,2.21.85,4.37,4.37,0,0,1,.89,4.73,2.48,2.48,0,0,1-2.13,1.78Z"/><path class="cls-8" d="M63.94,99.4l6.27.86a4.06,4.06,0,0,1,1.47-.29,2.61,2.61,0,0,1,1.86.71c2.06,2,.81,5.65-.89,5.65h0a20.54,20.54,0,0,1-6.76-1.43c-.87-.19-3.18.21-3.85-1.05a10.63,10.63,0,0,1,1.9-4.45m0-1a1,1,0,0,0-.79.39,11.7,11.7,0,0,0-2.1,4.93,1,1,0,0,0,.11.6c.76,1.43,2.55,1.48,3.73,1.51.25,0,.52,0,.69,0a22,22,0,0,0,7.06,1.47,3,3,0,0,0,2.61-2.09,4.88,4.88,0,0,0-1-5.28,3.64,3.64,0,0,0-2.56-1,5.14,5.14,0,0,0-1.58.26l-6-.82Z"/><path class="cls-40" d="M67.37,102a6.3,6.3,0,0,1-4.28-1.85.5.5,0,0,1-.15-.49c2.2-8.39-2.22-13.42-5.23-15.75a8.14,8.14,0,0,1-3.24.6,18.85,18.85,0,0,1-7.08-1.65,4.75,4.75,0,0,0-.81-.07c-1.42,0-2.07.75-3,1.8l-.06.08c-.69.82-1.21,3.86-1.6,6.09-.17,1-.33,1.95-.5,2.69a.5.5,0,0,1-.31.35,7.59,7.59,0,0,1-2.73.55,7,7,0,0,1-4-1.37.51.51,0,0,1-.22-.35c-.3-2.56-.11-8.57,2.81-13,2.62-4,7.74-6.67,10-7.69a14.91,14.91,0,0,1,4.18-5.7.5.5,0,0,1,.29-.09.53.53,0,0,1,.24.06c3.13,1.68,7.34,5.54,12.2,10l.51.46C69,80.84,73.92,88.28,71.67,100a.46.46,0,0,1-.15.26A6,6,0,0,1,67.37,102Z"/><path class="cls-8" d="M51.47,66.63c3.19,1.71,7.64,5.84,12.61,10.4s9.18,12,7.09,22.87a5.53,5.53,0,0,1-3.8,1.63,5.78,5.78,0,0,1-3.94-1.71c2.15-8.25-1.83-13.59-5.66-16.46a7.42,7.42,0,0,1-3.3.68,18.57,18.57,0,0,1-6.94-1.63,4.83,4.83,0,0,0-1-.09c-1.68,0-2.46,1-3.39,2.06-1.09,1.29-1.64,6.48-2.21,9a7.12,7.12,0,0,1-2.55.52,6.48,6.48,0,0,1-3.73-1.28c-.31-2.58-.09-8.38,2.73-12.71,2.61-4,7.74-6.61,10-7.6a14.61,14.61,0,0,1,4.09-5.66m0-1a1,1,0,0,0-.59.19,15.34,15.34,0,0,0-4.26,5.72c-2.79,1.28-7.48,3.89-10,7.8-3,4.59-3.22,10.57-2.89,13.38a1.09,1.09,0,0,0,.43.71,7.6,7.6,0,0,0,4.3,1.45,8.14,8.14,0,0,0,2.91-.58,1,1,0,0,0,.62-.71c.17-.75.33-1.7.51-2.72.35-2,.88-5.13,1.48-5.85L44,85c.93-1.1,1.43-1.63,2.56-1.63a4.11,4.11,0,0,1,.68.05A19.17,19.17,0,0,0,54.47,85a8.85,8.85,0,0,0,3.15-.53,13.8,13.8,0,0,1,4.84,15,1,1,0,0,0,.29,1,6.83,6.83,0,0,0,4.62,2,6.58,6.58,0,0,0,4.5-1.9,1,1,0,0,0,.29-.54c2.3-11.94-2.76-19.53-7.4-23.79l-.51-.47c-4.89-4.49-9.11-8.37-12.31-10.08a1,1,0,0,0-.47-.12Z"/><path class="cls-41" d="M53.1,80.34C49.63,80.34,45.77,78,41,73a.5.5,0,0,1,0-.66c5.88-7.42,23.86-16.89,31-18.18a12.48,12.48,0,0,1,2.29-.23c1.7,0,2.85.5,3.42,1.49,1.14,2-.76,5.26-.85,5.4-.24.41-6,9.92-11.46,15.14.71.59,1.89,1.69,2,2.65a.5.5,0,0,1-.2.46.51.51,0,0,1-.3.1.43.43,0,0,1-.19,0A8.86,8.86,0,0,0,63,78.42a23.34,23.34,0,0,0-6.17,1.17c-.61.17-1.23.35-1.86.51A7.48,7.48,0,0,1,53.1,80.34Z"/><path class="cls-8" d="M74.18,54.44c5.81,0,2.14,6.13,2.14,6.13S70.15,70.87,64.52,76c0,0,2.15,1.58,2.28,2.67A9.35,9.35,0,0,0,63,77.92c-2.66,0-5.3,1-8.16,1.69a6.6,6.6,0,0,1-1.76.23c-3.69,0-7.6-2.83-11.77-7.18C47,65.51,64.67,56,72,54.66a12.83,12.83,0,0,1,2.2-.22m0-1a13.49,13.49,0,0,0-2.38.24C64.63,55,46.48,64.54,40.54,72a1,1,0,0,0,.07,1.31c4.9,5.11,8.87,7.49,12.49,7.49a8,8,0,0,0,2-.26c.64-.16,1.26-.34,1.87-.51a23.08,23.08,0,0,1,6-1.15,8.42,8.42,0,0,1,3.39.68,1.09,1.09,0,0,0,.39.08,1,1,0,0,0,1-1.13A5,5,0,0,0,66,76c5.42-5.34,10.91-14.46,11.15-14.87s2.12-3.66.85-5.9c-.66-1.16-2-1.74-3.85-1.74Z"/><path class="cls-38" d="M84,63.92a17.78,17.78,0,0,1-7.89-2l-1,1.62a.49.49,0,0,1-.42.24h0a.5.5,0,0,1-.42-.23,6.46,6.46,0,0,1-1-3.47,11.47,11.47,0,0,1-4.14-6A15.47,15.47,0,0,1,70.5,42.14,13.46,13.46,0,0,1,79,36a14.61,14.61,0,0,1,3.54-.44A15.57,15.57,0,0,1,97.43,47.35a2.33,2.33,0,0,1,2.56-.18,2.3,2.3,0,0,1,1.12,1.41,2.36,2.36,0,0,1-2.26,3h0a2.39,2.39,0,0,1-.66-.1c.33,3.35-.25,5.94-1.73,7.71-1.8,2.15-5.35,3.69-10.53,4.58A11.77,11.77,0,0,1,84,63.92Z"/><path class="cls-8" d="M82.56,36.08A15.13,15.13,0,0,1,97,47.74c.06.23.11.47.17.71l0-.12a1.85,1.85,0,1,1,1.62,2.75,1.84,1.84,0,0,1-.9-.24,2.66,2.66,0,0,1-.38-.28c.47,3.22.23,6.25-1.5,8.31-2.07,2.48-6.39,3.75-10.23,4.41a10.78,10.78,0,0,1-1.83.14,17.29,17.29,0,0,1-8.07-2.2l-1.25,2a5.76,5.76,0,0,1-.9-3.42,11.19,11.19,0,0,1-4.19-6c-2.06-8.16,1.72-15.4,9.54-17.36a13.94,13.94,0,0,1,3.42-.43m0-1h0a15.11,15.11,0,0,0-3.66.46,13.9,13.9,0,0,0-8.83,6.35,16,16,0,0,0-1.44,12.22,12,12,0,0,0,4.12,6.16,7,7,0,0,0,1.1,3.51,1,1,0,0,0,.84.46h0a1,1,0,0,0,.84-.48l.76-1.23A18.15,18.15,0,0,0,84,64.42a11.66,11.66,0,0,0,2-.16c5.31-.91,8.95-2.51,10.83-4.75,1.48-1.76,2.11-4.26,1.9-7.44h.11a2.85,2.85,0,0,0,1.38-5.35,2.9,2.9,0,0,0-1.38-.36,2.84,2.84,0,0,0-1.12.23A16,16,0,0,0,82.56,35.08Z"/><path class="cls-42" d="M56.19,59.16a16.47,16.47,0,0,1-6.12-1.11.51.51,0,0,1-.33-.5.5.5,0,0,1,.38-.45l.94-.23c2.48-.61,3.61-.88,4.75-1.95l.37-.35a11.44,11.44,0,0,1,5.12-3.28,8.61,8.61,0,0,1,2-.23,11.62,11.62,0,0,1,6.63,2.4.49.49,0,0,1,.21.36.53.53,0,0,1-.14.4A17.46,17.46,0,0,1,59.25,59,29.24,29.24,0,0,1,56.19,59.16Z"/><path class="cls-8" d="M63.26,51.56a11,11,0,0,1,6.34,2.31,17.07,17.07,0,0,1-10.41,4.62,27.82,27.82,0,0,1-3,.17,16,16,0,0,1-5.95-1.08c3.18-.79,4.53-1,5.91-2.3s3-3,5.26-3.5a7.94,7.94,0,0,1,1.85-.22m0-1h0a9.09,9.09,0,0,0-2.08.24,12,12,0,0,0-5.35,3.41l-.36.34c-1,1-2.07,1.23-4.53,1.83l-.94.23a1,1,0,0,0-.76.92,1,1,0,0,0,.66,1,17.18,17.18,0,0,0,6.29,1.14,30,30,0,0,0,3.11-.18,18,18,0,0,0,11-4.91,1,1,0,0,0,.28-.79,1,1,0,0,0-.42-.73,12.13,12.13,0,0,0-6.92-2.49Z"/><path class="cls-8" d="M89.31,51.68a1.22,1.22,0,0,1-.62-.16,1.28,1.28,0,0,1-.5-1.74,1.3,1.3,0,0,1,1.12-.67,1.27,1.27,0,0,1,.63.17,1.28,1.28,0,0,1-.63,2.4Z"/><path class="cls-8" d="M89.31,49.61a.86.86,0,0,1,.38.1.78.78,0,0,1-.38,1.47.75.75,0,0,1-.38-.1.77.77,0,0,1-.3-1.06.78.78,0,0,1,.68-.41m0-1h0a1.8,1.8,0,0,0-1.56.92,1.78,1.78,0,0,0,.7,2.43,1.72,1.72,0,0,0,.86.22,1.79,1.79,0,0,0,0-3.57Z"/><path class="cls-43" d="M91.57,56.05a5.45,5.45,0,0,0,4.94,2.24"/><line class="cls-43" x1="92.17" y1="54.96" x2="90.71" y2="56.7"/><path class="cls-42" d="M74.64,60.94a.42.42,0,0,1-.26-.08c-4-2.56-6.35-5.71-6.84-9.37a15.57,15.57,0,0,1,1.88-9.57,14.26,14.26,0,0,1,11.23-7l.95,0c6.56,0,11.63,2.85,14.67,8.22a.49.49,0,0,1-.16.66C91,47.21,82.45,49.54,80.49,50l.24,6.4a.5.5,0,0,1-.4.51h-.1a.51.51,0,0,1-.47-.32l-1.5-4C78,55,77.21,58.37,75,60.78A.49.49,0,0,1,74.64,60.94Z"/><path class="cls-8" d="M81.6,35.42c6.66,0,11.41,3,14.23,8C90.21,47.16,80,49.66,80,49.66l.26,6.8L77.9,50.35s.14,6.37-3.26,10.09c-2.44-1.54-6-4.37-6.61-9a15.24,15.24,0,0,1,1.82-9.24,13.78,13.78,0,0,1,10.82-6.75l.93,0m0-1h0l-1,0A14.72,14.72,0,0,0,69,41.66a16.08,16.08,0,0,0-2,9.9c.51,3.81,2.89,7.08,7.07,9.73a1,1,0,0,0,.53.15,1,1,0,0,0,.74-.32,14,14,0,0,0,3.07-6.53l.85,2.23a1,1,0,0,0,.93.64.68.68,0,0,0,.2,0,1,1,0,0,0,.8-1l-.23-6c2.55-.68,10.54-3,15.39-6.21a1,1,0,0,0,.32-1.32c-3.13-5.55-8.36-8.48-15.11-8.48Z"/><path class="cls-44" d="M78.82,54.94a2,2,0,0,1-1.44,1.18,2.69,2.69,0,0,1-.91-5.19,2,2,0,0,1,1.63.5"/><path class="cls-38" d="M83.24,78.53c-.83,0-8.28-.35-12.26-2.06s-4.83-6.78-4.82-10.73c0-1.56,4.58-3.53,6.32-3.53a1.31,1.31,0,0,1,1,.37.9.9,0,0,1,.22.74c-.34,2.84,0,5.69.43,6.44,2.18.82,6.87,1.28,9.37,1.38a3.7,3.7,0,0,1-.14,7.4Z"/><path class="cls-8" d="M72.48,62.71c.49,0,.79.16.74.56-.33,2.75,0,6.1.6,6.9,2.18.88,7.06,1.36,9.68,1.46A3.21,3.21,0,0,1,83.38,78h-.12c-.82,0-8.19-.35-12.08-2s-4.53-6.65-4.52-10.26c0-1.07,4.1-3,5.82-3m0-1h0c-1.8,0-6.81,2-6.82,4,0,4.1.87,9.36,5.13,11.19,4,1.74,11.59,2.07,12.43,2.1h.16a4.2,4.2,0,0,0,.16-8.4,41,41,0,0,1-9-1.28,16.48,16.48,0,0,1-.3-6,1.37,1.37,0,0,0-.33-1.13,1.78,1.78,0,0,0-1.4-.54Z"/><path class="cls-45" d="M65.74,64.79a23.74,23.74,0,0,0,.6,4.93c3.48-1.8,5.61-1.44,7.77-1.47a23.67,23.67,0,0,0-.59-7.67,6,6,0,0,0-2.65-3"/><path class="cls-46" d="M36.32,71.66S34,68.59,31.7,68.59s-4,2.86-4,8.59S36.32,71.66,36.32,71.66Z"/><path class="cls-47" d="M80.62,33.75c-.83-.86-3.06-1.15-4,0s-4.43,3.88-4.9,6,8.9-1.49,8.9-1.49S81.44,34.61,80.62,33.75Z"/><path class="cls-48" d="M88.62,28.1c-2,0-5.47,1.29-6.74,3.47s1.52,4.51,1.52,4.51l6.7-3.83S90.65,28.1,88.62,28.1Z"/><path class="cls-49" d="M65.74,46.94c-.24-.86-1-4.79-2.83-4.79s-3.42.66-3.47,2.39a30,30,0,0,0,1.18,5.86Z"/><path class="cls-50" d="M56.32,52.67S55.56,48,52,48s-2.59,5.42-5.63,8,2.11,3,2.11,3Z"/><path class="cls-51" d="M46.41,60.44s-3.39-1.62-5.08,0-.3,5.37-.3,5.37Z"/><path class="cls-52" d="M151.31,34.57s3.11-.06,3.34-.82-3.63-4.82-.82-4.82,6.61,3.15,6.61,4.82a24.7,24.7,0,0,1-.72,4.52Z"/><path class="cls-53" d="M168.83,42.91s4.66-3.44,6.65-2.58,3.47,5.94,1,5.94S168.83,42.91,168.83,42.91Z"/><path class="cls-54" d="M179.11,45.12c1.73-1,3.31-.58,4.63,1.15s-.52,6.32-.52,6.32-7.58-1-5.76-2.84S177.39,46.11,179.11,45.12Z"/><path class="cls-55" d="M193.49,58.32c2.15.34,3.43.89,4,3s-1,5.82-1,5.82l-5.15-6.7S191.34,58,193.49,58.32Z"/><path class="cls-56" d="M202.58,65.06c2.31,0,4.3,2.71,4.46,4.66s-2.23,5.36-2.23,5.36l-5.43-5S200.27,65.06,202.58,65.06Z"/><path class="cls-7" d="M228.72,120.3c0,31.32-49.69,56.7-111,56.7s-111-25.38-111-56.7c0-17.25,19.7-41.11,43.5-62A204.26,204.26,0,0,1,80.67,36.93c11.53-6.76,22.49-11.64,37.06-11.64,11.52,0,22,4.6,31.8,8.73,11.64,4.93,22.26,10.07,32.39,18.16C208.55,73.46,228.72,101.88,228.72,120.3Z"/><path class="cls-9" d="M228.72,118.11c0,30.59-49.69,55.4-111,55.4s-111-24.81-111-55.4c0-16.86,19.7-40.17,43.5-60.53A204,204,0,0,1,80.67,36.66c11.53-6.6,22.49-11.37,37.06-11.37,11.52,0,22,4.49,31.8,8.53,11.64,4.81,22.26,9.84,32.39,17.74C208.55,72.35,228.72,100.11,228.72,118.11Z"/><g class="cls-10"><ellipse class="cls-57" cx="117.73" cy="29.75" rx="28.42" ry="10.74"/><path class="cls-58" d="M93.61,35.42S34.6,80.51,3.44,150.75"/><path class="cls-57" d="M112.83,40.33c.07,0-10.86,69.69-17,143"/><path class="cls-57" d="M135,38.27c-.33.1,40.66,37.45,79,123.86"/><path class="cls-59" d="M144.1,33.75s18.52,6.06,39.09,21.78c22,16.81,41.93,45.8,57.9,61.65"/></g><ellipse class="cls-7" cx="84.46" cy="115.85" rx="11.41" ry="10.21" transform="translate(-48.05 170.58) rotate(-76.35)"/><ellipse class="cls-7" cx="62.04" cy="109.58" rx="10.58" ry="8.26" transform="matrix(0.33, -0.94, 0.94, 0.33, -61.94, 131.61)"/><ellipse class="cls-7" cx="43.62" cy="103.38" rx="9.85" ry="6.68" transform="translate(-68.58 101.69) rotate(-66.26)"/><ellipse class="cls-7" cx="89.04" cy="77.23" rx="9.85" ry="7.83" transform="translate(-27.42 95.35) rotate(-49.78)"/><ellipse class="cls-7" cx="69.78" cy="71.82" rx="9.01" ry="5.83" transform="translate(-27.31 96.34) rotate(-60)"/><ellipse class="cls-7" cx="95.83" cy="47.93" rx="8.79" ry="4.95" transform="translate(-7.77 20.58) rotate(-11.78)"/><ellipse class="cls-7" cx="32.75" cy="90.25" rx="8.83" ry="4.12" transform="translate(-62.41 77.56) rotate(-62.46)"/><ellipse class="cls-7" cx="52.04" cy="61.81" rx="7.88" ry="3.25" transform="translate(-27.13 45.67) rotate(-38.38)"/><ellipse class="cls-7" cx="30.87" cy="79.84" rx="7.5" ry="2.52" transform="translate(-51.93 58.14) rotate(-54.18)"/><ellipse class="cls-7" cx="205.44" cy="80.25" rx="2.51" ry="5.98" transform="translate(-14.63 94.91) rotate(-25.15)"/><ellipse class="cls-7" cx="202.25" cy="90.25" rx="3.19" ry="8.45" transform="translate(-19.18 94.5) rotate(-25.15)"/><ellipse class="cls-7" cx="195.31" cy="100.2" rx="6.94" ry="9.94" transform="translate(-24.2 100.83) rotate(-27.32)"/><ellipse class="cls-7" cx="176.14" cy="67.14" rx="6.56" ry="9.93" transform="translate(11.14 158.29) rotate(-49.78)"/><ellipse class="cls-7" cx="183.83" cy="62.27" rx="2.7" ry="7.43" transform="translate(17.58 162.44) rotate(-49.78)"/><ellipse class="cls-7" cx="154.76" cy="43.23" rx="4.7" ry="8.49" transform="translate(57.29 170.97) rotate(-68.26)"/><path class="cls-60" d="M81.88,123.13c-3.06-3-5.08-9.1-4.41-11.33s2.21-3.88,4.41-3.88a6.4,6.4,0,0,1,6.65,5.62C89.31,118.17,84.94,126.1,81.88,123.13Z"/><path class="cls-61" d="M62,114.2c-1.42.42-3.49-.17-6-2.4s-1.42-5-2.84-6.6c.4-2.63,3.23-3.37,6.64-2.48,3.12.82,5.95,3.12,5.95,5.65S63.46,113.79,62,114.2Z"/><path class="cls-62" d="M45.41,109.58c-2,2.56-9.43-4.28-10.73-8s1-9.42,2.53-8.93,4.62,5,6.15,5.63a10.7,10.7,0,0,0,3.71,1.17C48.22,99.4,47.47,107,45.41,109.58Z"/><path class="cls-63" d="M88.53,79.84c-1.07,0-4,0-4.77-2.57-1.09-3.61.42-10.2,2.82-10.64,4.13-.77,6.19,3.69,5.59,8.45S91.07,79.84,88.53,79.84Z"/><path class="cls-64" d="M33.39,89.25c0,2.31-1,3.84-3.84,3.84-2-1.17-4.13-4-4.13-6.32s2.64-4.58,3.14-3.64S32.47,87.43,33.39,89.25Z"/><path class="cls-65" d="M32,78c0-2.18-2-4.07-4.3-3s-2.31,2.66-2.31,4.76,2.18,5.4,4,4.24S32,80.21,32,78Z"/><path class="cls-66" d="M50.24,65.06c-1.72,0-5.49-3.78-4.66-6.4s4.33-4.22,6.46-4.22,3.94,3.13,2.53,3.88,0,3.89-.73,5.32S52,65.06,50.24,65.06Z"/><path class="cls-67" d="M186.05,52.59c2.15,0,4.14,2.71,4.14,4.59s-2.3,7.78-4.14,7.88-4.79-5.31-4.79-5.31S183.91,52.59,186.05,52.59Z"/><path class="cls-68" d="M208,74.37c2.15.71,2.81,7,2.15,8.54s-4.62,0-4.62,0l-1.33-3.33a2,2,0,0,0,2.15-.94C207.05,77.35,205.89,73.67,208,74.37Z"/><path class="cls-69" d="M205.72,94.21c-1.49,0-5.45-3.69-4.63-5.4a5,5,0,0,1,3.14-2.21s-.33-2.14.83-2.14,2.64-.5,3.64.82a4.84,4.84,0,0,1,0,5C207.86,91.35,207.21,94.21,205.72,94.21Z"/><path class="cls-70" d="M181.26,71.66s-7.8-4.3-8.61-6.6,3.23-1.37,3-3-.9-3,.83-3.41,4.55.41,5.42,1.78,2.84,9.7,1.85,11.22S181.26,71.66,181.26,71.66Z"/><path class="cls-71" d="M156.64,46.27a8,8,0,0,1-5.33-3c-.62-1.15,0-2.15,0-3s-1.95-1.81-1-2.71,3.1-2.17,4.53-1.54,4.58,2.75,4.58,4.41S157.4,46.27,156.64,46.27Z"/><path class="cls-72" d="M197.46,106.33c-1.66,0-4.3-5.14-4.3-6.93s2-1.66,2.48-4,.5-4.34,1.82-4.34a4.42,4.42,0,0,1,3.63,2c.49,1.12,2.65,5.33,1.33,8.26S199.11,106.33,197.46,106.33Z"/><ellipse class="cls-7" cx="117.73" cy="27.11" rx="5.36" ry="0.99"/><path class="cls-43" d="M65.88,102.28a3.19,3.19,0,0,1-1.8-3.86c3.57-11.91-6.44-16.69-7.59-17.2A3.2,3.2,0,0,1,59,75.34h0c5.73,2.46,15.4,10.81,11.17,24.91a3.2,3.2,0,0,1-4,2.14A3.4,3.4,0,0,1,65.88,102.28Z"/><path class="cls-43" d="M36.63,95.45a3.16,3.16,0,0,1-1.94-2.85,29.09,29.09,0,0,1,1.88-10.74c2.22-5.15,9.74-8,11.22-8.48a3.2,3.2,0,1,1,2.09,6.05c-2.51.87-6.6,3.06-7.42,5a22.84,22.84,0,0,0-1.37,8A3.2,3.2,0,0,1,38,95.71,3.14,3.14,0,0,1,36.63,95.45Z"/><path class="cls-44" d="M76.9,55.28a3.25,3.25,0,0,1-1-.64,3.2,3.2,0,0,1-.09-4.53c.39-.4,9.67-9.83,28.11-9.62a3.2,3.2,0,0,1-.07,6.4c-15.71-.17-23.35,7.58-23.42,7.66A3.22,3.22,0,0,1,76.9,55.28Z"/><path class="cls-73" d="M34.69,92.6l6.28.76s.32,3.48-.55,4.45-6.14.06-6.86-1S34.69,92.6,34.69,92.6Z"/><path class="cls-73" d="M63.94,99.4a10.63,10.63,0,0,0-1.9,4.45c.67,1.26,3,.86,3.85,1.05a20.54,20.54,0,0,0,6.76,1.43c1.7,0,3-3.65.89-5.65-1.33-1.29-3.33-.42-3.33-.42Z"/><path class="cls-74" d="M51.47,66.63c3.19,1.71,7.64,5.84,12.61,10.4s9.18,12,7.09,22.87a5.32,5.32,0,0,1-7.74-.08c2.15-8.25-1.83-13.59-5.66-16.46-2.78,1.37-6.94.46-10.24-1-2.38-.42-3.26.68-4.35,2s-1.64,6.48-2.21,9a6.25,6.25,0,0,1-6.28-.76c-.31-2.58-.09-8.38,2.73-12.71,2.61-4,7.74-6.61,10-7.6A14.61,14.61,0,0,1,51.47,66.63Z"/><path class="cls-41" d="M72,54.66c-7.31,1.33-25,10.85-30.65,18,4.84,5,9.33,8,13.53,7s8-2.64,11.94-.93C66.67,77.59,64.52,76,64.52,76c5.63-5.14,11.8-15.44,11.8-15.44S80.82,53.06,72,54.66Z"/><path class="cls-43" d="M72,54.66c-7.31,1.33-25,10.85-30.65,18,4.84,5,9.33,8,13.53,7s8-2.64,11.94-.93C66.67,77.59,64.52,76,64.52,76c5.63-5.14,11.8-15.44,11.8-15.44S80.82,53.06,72,54.66Z"/><path class="cls-44" d="M100.47,50.12a1.85,1.85,0,0,0-3.24-1.79l0,.12c-.06-.24-.11-.48-.17-.71-2-8.16-10-13.19-17.87-11.23s-11.6,9.2-9.54,17.36a11.19,11.19,0,0,0,4.19,6,5.76,5.76,0,0,0,.9,3.42l1.25-2a16.13,16.13,0,0,0,9.9,2.06c3.84-.66,8.16-1.93,10.23-4.41,1.73-2.06,2-5.09,1.5-8.31a2.66,2.66,0,0,0,.38.28A1.85,1.85,0,0,0,100.47,50.12Z"/><path class="cls-75" d="M69.6,53.87a17.07,17.07,0,0,1-10.41,4.62,17.84,17.84,0,0,1-8.95-.91c3.18-.79,4.53-1,5.91-2.3s3-3,5.26-3.5S66.4,51.62,69.6,53.87Z"/><circle class="cls-8" cx="89.31" cy="50.4" r="0.79"/><path class="cls-43" d="M91.57,56.05a5.45,5.45,0,0,0,4.94,2.24"/><line class="cls-43" x1="92.17" y1="54.96" x2="90.71" y2="56.7"/><path class="cls-75" d="M77.9,50.35l2.33,6.11L80,49.66s10.24-2.5,15.86-6.27c-3-5.23-8-8.23-15.16-8a13.78,13.78,0,0,0-10.82,6.75A15.24,15.24,0,0,0,68,51.43c.62,4.64,4.17,7.47,6.61,9C78,56.72,77.9,50.35,77.9,50.35Z"/><path class="cls-44" d="M78.82,54.94a2,2,0,0,1-1.44,1.18,2.69,2.69,0,0,1-.91-5.19,2,2,0,0,1,1.63.5"/><path class="cls-44" d="M71.18,76c-3.81-1.64-4.53-6.65-4.52-10.26,0-1.37,6.77-4.24,6.56-2.48h0c-.33,2.75,0,6.1.6,6.9,2.18.88,7.06,1.36,9.68,1.46a3.2,3.2,0,1,1-.24,6.4C82.44,78,75.07,77.68,71.18,76Z"/><path class="cls-45" d="M65.74,64.79a23.74,23.74,0,0,0,.6,4.93c3.48-1.8,5.61-1.44,7.77-1.47a23.67,23.67,0,0,0-.59-7.67,6,6,0,0,0-2.65-3"/></svg>