<svg id="レイヤー_1" data-name="レイヤー 1" xmlns="http://www.w3.org/2000/svg" xmlns:xlink="http://www.w3.org/1999/xlink" viewBox="0 0 162.45 197"><defs><style>.cls-1{opacity:0.5;}.cls-2{fill:#e3003e;}.cls-12,.cls-3{fill:#f5dcbe;}.cls-10,.cls-12,.cls-14,.cls-3,.cls-4,.cls-5,.cls-6,.cls-7,.cls-8,.cls-9{stroke:#40220f;}.cls-3,.cls-4{stroke-miterlimit:10;}.cls-11,.cls-4{fill:#fff;}.cls-5{fill:#c9caca;}.cls-10,.cls-12,.cls-14,.cls-5,.cls-6,.cls-7,.cls-8,.cls-9{stroke-linecap:round;stroke-linejoin:round;}.cls-6{fill:#036eb8;}.cls-7{fill:#7a6a56;}.cls-8{fill:none;}.cls-9{fill:#d3edf9;}.cls-10{fill:url(#名称未設定グラデーション_5);}.cls-11{font-size:7.64px;font-family:Corporate-Logo-Bold, Corporate Logo-Bold;font-weight:700;}.cls-13{fill:#40220f;}.cls-14{fill:#6a3906;}</style><linearGradient id="名称未設定グラデーション_5" x1="-840.06" y1="-1035.58" x2="-823.69" y2="-1063.94" gradientTransform="translate(-1184.72 574.87) rotate(105.03)" gradientUnits="userSpaceOnUse"><stop offset="0" stop-color="#036eb8"/><stop offset="1" stop-color="#172a88"/></linearGradient></defs><title>08.水分補給3</title><g class="cls-1"><path class="cls-2" d="M82,37.88a52,52,0,1,1-52,52,52.07,52.07,0,0,1,52-52m0-21a73,73,0,1,0,73,73,73,73,0,0,0-73-73Z"/></g><path class="cls-3" d="M79.76,178.59a4.09,4.09,0,0,1-.58-.09,3.87,3.87,0,0,1-3-4.61c4.46-20.49,2.67-40.8,2.66-41a3.88,3.88,0,0,1,7.73-.71,159.35,159.35,0,0,1-2.81,43.36A3.88,3.88,0,0,1,79.76,178.59Z"/><path class="cls-4" d="M79.76,178.59c-.19,0-.38,0-.58-.08a3.46,3.46,0,0,1-3-4,97.78,97.78,0,0,0,2.17-13c3.09,1.84,5.49,2,7.76.5a105.24,105.24,0,0,1-2.34,14A3.76,3.76,0,0,1,79.76,178.59Z"/><path class="cls-5" d="M68.16,178.2c.38,2.18,2.81,4,6.46,4.71s5.5-3.37,7-3.75,2.88.65,4.43-.62.3-4.72-1.12-6.7a5.59,5.59,0,0,1-8.15-.1c-1,1.84-1.69,2.84-2.91,3.12s-3.09-1.45-5-.06C68,175.41,67.9,176.68,68.16,178.2Z"/><path class="cls-3" d="M104.41,181.09a3.75,3.75,0,0,1-.58,0,3.87,3.87,0,0,1-3.7-4c1-21-4.21-40.66-4.26-40.86a3.88,3.88,0,1,1,7.5-2,159.12,159.12,0,0,1,4.51,43.21A3.89,3.89,0,0,1,104.41,181.09Z"/><path class="cls-4" d="M104.41,181.09a3.75,3.75,0,0,1-.58,0,3.87,3.87,0,0,1-3.7-4,128.79,128.79,0,0,0-.26-15.19c2,2.41,7,2.18,7.76-.51a136.84,136.84,0,0,1,.25,16.05A3.89,3.89,0,0,1,104.41,181.09Z"/><path class="cls-5" d="M92.74,183.44c.74,2.09,3.45,3.5,7.16,3.56s4.86-4.24,6.23-4.86,3,.15,4.27-1.36-.51-4.7-2.23-6.41a5.6,5.6,0,0,1-8.06,1.27c-.66,2-1.18,3.08-2.34,3.56s-3.3-.91-5,.79C92.06,180.73,92.23,182,92.74,183.44Z"/><path class="cls-3" d="M83.85,78.83a4,4,0,0,1-1.07-.15C81.73,78.38,57,70.94,51,42a3.88,3.88,0,0,1,7.6-1.57c5,24.28,25.46,30.59,26.33,30.84a3.88,3.88,0,0,1-1.09,7.61Z"/><path class="cls-6" d="M78,63.59a59.78,59.78,0,0,0-7.19,14.52c5.1,3.88,9.69,5.43,15.34,5.43,6.17-1.4,7.15-11.9,7.15-11.9Z"/><path class="cls-7" d="M76.09,114.08s-1,18.51,1.28,27.86c10.65,1.58,22.1.78,31.33-2.85a149,149,0,0,0-8-25.89Z"/><path class="cls-6" d="M102.4,115.2C99,99.53,102.11,81,102.4,66c-3.82.39-11.48,1-14.67,4.34-9.06,9.53-12.22,30.12-12.93,47.69C86.11,119.51,95.35,118.79,102.4,115.2Z"/><line class="cls-8" x1="84.57" y1="134.46" x2="86.11" y2="142.68"/><path class="cls-3" d="M98.37,113.19a3.88,3.88,0,0,1-1.49-7.47c3.34-1.41,8.47-4.76,8.86-7.46.21-1.51-2.1-5.57-5.51-10.08-1.75-2.3,3.44-8.28,5.87-5.12,4,5.15,8,11.68,7.33,16.3-1.17,8.13-12.3,13-13.56,13.53A4,4,0,0,1,98.37,113.19Z"/><path class="cls-6" d="M102,74.66s7.3,6.47,9.88,13.94c-3.18,3.8-5.75,5.32-12.21,6.19C98.37,91.48,93.92,88,93.92,88"/><path class="cls-8" d="M68.07,46.69a10.76,10.76,0,0,0-7.18-6.43C57,39.2,53.64,53.56,57.07,54.48s7.44-1,9.46-2.06l2.91.79L71,47.55Z"/><path class="cls-9" d="M56.08,47.14c-.89,3.57-.86,7.39.85,7.85,3.43.92,7.44-1,9.46-2.05,1.28.34,5.51,1.2,5.51,1.2l.6-2.22a64.27,64.27,0,0,0-6.26-1.5c-1.39-.18-2.65.34-4.26-.23C59.52,49.32,57.37,46.69,56.08,47.14Z"/><path class="cls-10" d="M28.4,45a34.14,34.14,0,0,1,1-5.3,35.7,35.7,0,0,1,1.82-5.07,2,2,0,0,1,2.44-1.41l27.2,7.3L57,54.73l-27.19-7.3A2,2,0,0,1,28.4,45Z"/><rect class="cls-8" x="68.14" y="49.58" width="6.56" height="2.62" transform="translate(139.09 -4.89) rotate(105.03)"/><text class="cls-11" transform="translate(28.96 41.51) rotate(15.03)">SPORTS</text><path class="cls-3" d="M60.19,40a5.17,5.17,0,1,1-9.71-3.58C51.47,33.77,61.18,37.34,60.19,40Z"/><path class="cls-12" d="M111,17.67C94.66,12,78.92,19,73.2,35.3c-.27.77-.54,1.57-.81,2.39a2.74,2.74,0,1,0-1,3.41c-2,7-3.15,14.6.07,19.65C75.57,67.25,84.84,71.07,93,73.93c16.32,5.71,31.47,0,37.19-16.35A31.33,31.33,0,0,0,111,17.67Z"/><circle class="cls-13" cx="83.99" cy="46.49" r="1.87"/><path class="cls-14" d="M111.88,16.15c-12.79-4.74-27.31-.44-36,9.35a93.43,93.43,0,0,1,9.77,0l-2.87,5.17,8.76-1.87-.14,6,8.91-2.59-.86,8.2,6.47-4-3,15.49a18.92,18.92,0,0,1,5-5.42c2,10.08-2.9,21.87-12,28.77a45,45,0,0,1,4.62-1.15l-2.15,1.7,5.49-1.15-2,2.08s15.5.78,22.14-5.82c6.87-6.83,9.92-19.06,9.92-25C133.88,34.17,128.63,22.36,111.88,16.15Z"/><path class="cls-12" d="M107.73,47.53a4,4,0,0,1,3.42-1c2.34.52,3.7,3.34,3,6.29s-3.09,4.91-5.43,4.39a3.82,3.82,0,0,1-2.34-1.7"/></svg>