<svg id="レイヤー_1" data-name="レイヤー 1" xmlns="http://www.w3.org/2000/svg" xmlns:xlink="http://www.w3.org/1999/xlink" viewBox="0 0 218 218"><defs><style>.cls-1{fill:none;}.cls-2,.cls-6,.cls-9{fill:#f5dcbe;}.cls-10,.cls-12,.cls-2,.cls-4,.cls-6{stroke:#42210b;}.cls-10,.cls-12,.cls-13,.cls-14,.cls-2,.cls-3,.cls-4,.cls-6,.cls-9{stroke-linecap:round;stroke-linejoin:round;}.cls-10,.cls-12,.cls-13,.cls-14,.cls-2,.cls-3,.cls-4,.cls-9{stroke-width:2px;}.cls-17,.cls-3{fill:#fff;}.cls-13,.cls-14,.cls-3,.cls-9{stroke:#40210d;}.cls-4{fill:#2c3493;}.cls-5{clip-path:url(#clip-path);}.cls-7{fill:#af3e92;}.cls-7,.cls-8{stroke:#40220f;stroke-miterlimit:10;}.cls-8{fill:#40220f;}.cls-10{fill:#7f4f21;}.cls-11{fill:#42210b;}.cls-12{fill:red;}.cls-13{fill:#fff100;}.cls-14{fill:#40210d;}.cls-15{clip-path:url(#clip-path-2);}.cls-16{fill:#fff1e1;}</style><clipPath id="clip-path"><ellipse class="cls-1" cx="152.58" cy="67.71" rx="27.87" ry="21.1" transform="translate(0.45 136.42) rotate(-48.24)"/></clipPath><clipPath id="clip-path-2"><rect id="SVGID" class="cls-1" x="249.51" y="9" width="200" height="200" rx="10"/></clipPath></defs><title>13-2-4 テニス</title><path class="cls-2" d="M92.64,101.71c-7.7,0-15.49-4.66-16.5-5.29a5,5,0,0,1,5.25-8.51h0c2.66,1.63,9.32,4.66,12.93,3.59,3.91-1.16,7.57-7,8.54-9a5,5,0,0,1,9,4.39c-.58,1.18-5.87,11.6-14.69,14.22A16.06,16.06,0,0,1,92.64,101.71Z"/><path class="cls-2" d="M65.27,141.68a5,5,0,0,0-9.84-1.76L50.22,169,60,171.07Z"/><path class="cls-2" d="M85.5,137.12a5,5,0,0,0-6.79,7.34c.1.1,8.16,7.89,12.68,24.47l9.74-2.38C95.86,146.89,86,137.61,85.5,137.12Z"/><path class="cls-3" d="M50.78,194.3a5.33,5.33,0,0,0,.88.08,5,5,0,0,0,4.92-4.12L60,171.07,50.22,169l-3.48,19.48A5,5,0,0,0,50.78,194.3Z"/><path class="cls-3" d="M99.15,190.44h.34a5,5,0,0,0,4.65-5.32,97.15,97.15,0,0,0-3-18.56l-9.74,2.38a86.07,86.07,0,0,1,2.77,16.85A5,5,0,0,0,99.15,190.44Z"/><polygon class="cls-3" points="74.39 81.73 87.2 89.46 77.67 101.71 66.96 94.3 74.39 81.73"/><path class="cls-4" d="M54.48,131.86a118,118,0,0,0-3.29,17.78c4.45,2.73,15.52,2.73,15.52,2.73a22.85,22.85,0,0,1,5-6.41,35.68,35.68,0,0,1,6.18,5.42s9.74-1.94,17.05-8.13a69.09,69.09,0,0,1-12.81-17C73.06,126.41,54.48,131.86,54.48,131.86Z"/><g class="cls-5"><line class="cls-6" x1="154.29" y1="31.87" x2="188" y2="61.97"/><line class="cls-6" x1="150.42" y1="36.2" x2="184.13" y2="66.3"/><line class="cls-6" x1="146.55" y1="40.53" x2="180.26" y2="70.63"/><line class="cls-6" x1="142.68" y1="44.86" x2="176.39" y2="74.96"/><line class="cls-6" x1="138.82" y1="49.19" x2="172.53" y2="79.29"/><line class="cls-6" x1="134.95" y1="53.52" x2="168.66" y2="83.62"/><line class="cls-6" x1="131.08" y1="57.85" x2="164.79" y2="87.95"/><line class="cls-6" x1="127.22" y1="62.18" x2="160.93" y2="92.29"/><line class="cls-6" x1="123.35" y1="66.52" x2="157.06" y2="96.62"/><line class="cls-6" x1="119.48" y1="70.85" x2="153.19" y2="100.95"/><line class="cls-6" x1="118.45" y1="75.24" x2="158.45" y2="30.8"/><line class="cls-6" x1="122.76" y1="79.13" x2="162.76" y2="34.69"/><line class="cls-6" x1="127.07" y1="83.02" x2="167.07" y2="38.58"/><line class="cls-6" x1="131.38" y1="86.91" x2="171.38" y2="42.47"/><line class="cls-6" x1="135.69" y1="90.8" x2="175.69" y2="46.36"/><line class="cls-6" x1="140" y1="94.69" x2="180" y2="50.25"/><line class="cls-6" x1="144.31" y1="98.58" x2="184.31" y2="54.14"/><line class="cls-6" x1="148.62" y1="102.47" x2="188.62" y2="58.03"/></g><path class="cls-7" d="M150.18,95.41a3.12,3.12,0,0,0,.81-.13,35.67,35.67,0,0,0,19.56-11.52c11.34-12.7,12.5-30.23,2.59-39.08s-27.2-5.72-38.54,7a35.68,35.68,0,0,0-9.24,20.77,3.09,3.09,0,0,0,0,.86,28,28,0,0,0,.11,3.9C125.31,83,124,94,116.49,102.45a3,3,0,0,0,4.48,4c6.85-7.68,17.49-10,23.81-10.72A26,26,0,0,0,150.18,95.41Zm19-46.26c7.45,6.65,6.07,20.38-3.06,30.61A29.9,29.9,0,0,1,150,89.43a47,47,0,0,0-5.72.3A14.3,14.3,0,0,1,136,86.26a14.51,14.51,0,0,1-4.57-8.83,42.5,42.5,0,0,0-.15-4.64,29.93,29.93,0,0,1,7.79-17.14C148.21,45.42,161.7,42.51,169.14,49.15ZM128.43,93.89A47,47,0,0,0,130,88.64a18.85,18.85,0,0,0,2,2.09A19.32,19.32,0,0,0,133.54,92,44.67,44.67,0,0,0,128.43,93.89Z"/><path class="cls-8" d="M92.72,127.41l26.64-29.84c1.47-1.65,7.44,3.68,6,5.33L98.68,132.73C97.21,134.38,91.25,129.05,92.72,127.41Z"/><path class="cls-3" d="M70.84,59.64c-12.8-2.07-24.18,53.61-17.5,74.71,13.37-.78,31.21-4.9,31.21-4.9S77.46,115.21,76,99.32C74.24,81.05,77.68,60.74,70.84,59.64Z"/><path class="cls-2" d="M98.28,131.86a5,5,0,0,1-3.1-1.08L61.63,104.2a5,5,0,0,1,6.21-7.84l33.55,26.58a5,5,0,0,1-3.11,8.92Z"/><path class="cls-3" d="M55.64,101.31a86.05,86.05,0,0,0,7.83,7.43C69.23,105.5,73.06,97,73.06,97L62.41,87.9"/><ellipse class="cls-9" cx="70.84" cy="81.33" rx="3.77" ry="5.01"/><path class="cls-2" d="M97.34,63.52c-2.55,7.67-6.61,15.09-12.16,17.69-6.09,2.86-13.93.39-22.36-2.41C46.72,73.45,36.33,61.12,41.68,45c3-9.06,8.36-17.4,16.7-21,6.49-2.82,15.41-2.35,22.45,0C96.93,29.33,102.69,47.42,97.34,63.52Z"/><path class="cls-10" d="M58.9,41.59s-3.62,3.95-3.74,8.34,1.42,7.32,3.22,10.45c-3.22-1.68-4.77-4-5.42-8.11-1.29,9.79-.13,15.15,1.68,20.11a16.25,16.25,0,0,1-3.74-5.81,19.94,19.94,0,0,0,1.29,9.16c-7.73-4.38-10.31-7.32-13.45-17.65-1.78-5.81.15-15.86,7.74-23.36C52.19,33.41,58.9,41.59,58.9,41.59Z"/><path class="cls-2" d="M58.18,57a4.51,4.51,0,0,1-3.37,1.61c-2.79,0-5.05-2.82-5.05-6.3S52,46,54.81,46a4.6,4.6,0,0,1,3.57,1.85"/><path class="cls-2" d="M84.17,63.49a2.91,2.91,0,0,1,2.08-.87,3,3,0,1,1-2.08,5"/><circle class="cls-11" cx="69.77" cy="54.32" r="2.06"/><circle class="cls-11" cx="92.7" cy="63.51" r="2.06"/><path class="cls-12" d="M75,70.65A22.81,22.81,0,0,0,83.12,73c-1.53,3.23-4.76,4.39-6.69,3.23S74.35,72.71,75,70.65Z"/><path class="cls-12" d="M99.78,56.38s1.66-11.48-2-20.52c-3.14-7.64-11.64-14.31-18.86-16-7.83-1.85-18.09-2-24,1.41C44.06,27.47,42.21,35.32,42.21,40.07c3.22,2.84,10,2.63,10,2.63L75,52.25l12.9,4.13Z"/><path class="cls-12" d="M52.19,42.7c18.32,11.62,33.16,19.36,50.19,19.36s-2.5-11-2.5-11C102.33,58,70.38,50.83,52.19,42.7Z"/><circle class="cls-13" cx="98.69" cy="102.27" r="7.31"/><path class="cls-14" d="M94.57,186.11s-2.31,4.48-1.23,8.12c8.34,1,18.77-3.39,21.91-4.65-.23-3.44-2.25-7.14-6.76-7.37-3.49-.19-4.81,3.34-4.81,3.34S98.33,189.65,94.57,186.11Z"/><path class="cls-14" d="M57.65,197.91c-1.32,4-15.89-.76-14.57-4.79a7.67,7.67,0,1,1,14.57,4.79Z"/><g class="cls-15"><ellipse class="cls-16" cx="370.65" cy="112.02" rx="173.57" ry="160.5"/><path class="cls-17" d="M284.61,91.46c-1.84,1.57-.39,1.29-.5,2-2.05,2-1.37.46-2.36.81-1.24,1.33-1.84,2.74-2.88,3.6-.16,0-.38.11-.25-.2-1.06,1.69-4.27,3.71-5.47,5.72a.59.59,0,0,1-.34,0,1.08,1.08,0,0,1,.92.55c-.81.72-1.22,1.67-1.84,1.57.51-.43.42-.61.56-.93l-.72.9c-1.23.14,1-1.19.68-1.58-1.53,1.62-3.11,3.74-4.53,4.7-.71-.28,2.86-2.77.75-1.75l2.16-1.51c-2.22.49,1.26-1-.89-.65-2.74,2.1-2.7,2.78-5.44,4.89-.34.79.56.25.21,1-3.27,3.72-4,1.23-6.17,4.27-.42,1-.13,1.84-2.37,3.17l.16-1.15c-2.58,2.13-.72,2.08-3.72,4,.28-.64,1.83-1.91,1.39-1.65-2.12,1-.94,1.38-2.26,2.52l-.72-.28c-2.63,2.41-5.28,5.34-8.19,8,0-.3.41-.9-.43-.46a106.31,106.31,0,0,1-12,9.71l-1,1.64c-.33.28-.78.32-.5-.07-1.56,1.05.17.35-.36,1.11-.78.72-1.29.66-.89.09-2.18,2.53-6.43,6.95-9.47,8.75l.4-.58a5.41,5.41,0,0,0-1.21,1.15,6.58,6.58,0,0,0-.38.54l-.54.73a8.86,8.86,0,0,1-2.88,2.77l.4-.49c-2.33,1.9-4.7,4-7,5.91,3.15,0,6.2,0,9,0,1.42,0,2.8.08,4.17.16l.25,0h.15l.32,0,.61.07c.41.06.8.12,1.18.2.85-.85,5.82.38,6.2-.8,3.35.58,2.39.79,7.12,1.18,1.27.06,1.89-.73,3.45-.85l0,.61,2.12-.64,1.12.73,1.47-.16c-.58,0-1.24-.27-1.15-.45,2.29-.28,5.58.43,5.63.75l5.42-.53c-.12.25-1,.34-1.75.49,2.89-.62.53.65,3.17.08-.35-.14.2-.37.26-.49a25.39,25.39,0,0,0,6.54.21l-.42.43c4,.11,8.46-.2,13-.2-1.62-.19-1.25-.93.08-1l.52.65c.86-.4-1.38-.25.37-.74,1.69.08,1.14.74.17,1l2-.22c.12.19-.36.29-.49.54.84-.4,3.53.66,4.75-.05l.11.2c4.51,0,6.55-.22,10.22-.25.07-.57,1.51-.44,2.6-.9,2.7.18,5.69.63,8.94.58,2.28-.28.67-.48,1.69-.81.17.51,3.41.46,1.73.83,3.9-.08,5-.1,9.91-.52-.53-.21-1.13-.3-.82-.47.89-.09,2,.21,1.91.46l-.24.05c5.54-.77,12.78,1.49,17.19.43l-.25.05,4.57-.56c2.1.09-1.26.39.3.7,4.93-.85,7.79.13,11.85-.44,3.14,1.51,11.15-.11,15.4.86l-.25-.36c1.1-.35,1.33.2,2.14.29-.12-.28-1.19-.32-.51-.52,9.29-.43,19.17.52,28.7.84,3.48.1,2-1.84,6.36-1l-1.24.66c7-.79,14.37,0,21.25-.64-.41.15-.42.35-1.09.35a9.7,9.7,0,0,0,3.23.14l2.09-.22c.68-.09,1.07-.19,1-.29,1.46,0,1,.24,1.4.42.05,0,.14-.08.28-.27a15.56,15.56,0,0,0,1-2c.14-.37.29-.73.43-1.1l.18-.61a3.46,3.46,0,0,1,.85-1.77c.12-.09,0,.43-.12.69.2-1,1.95-4,1.06-3.39,1.34-2.22,1.89-4.57,3.06-6.29,0-1.48,2.16-3.87,1.55-4.63.74.55,2.6-3.79,2.91-5.44,0,.61.86-1.17.93-.43.79-1.69,1.37-3.3.81-3.21,2.44-2.64,2.16-6.61,4.24-7.76,1.92-5.22,3.82-10,5.75-14.58.74.55-2.27,5-1.32,5.22,1.68-4.43,2.15-7.22,4.35-11.36.62-1,.05.79,0,1.22,1.68-4.42,4-8.21,5.32-12.22.07,0,0,.5-.16.91.33-.76.94-1.68.53-1.77l-.24.78c-1.1.94.28-3.51.06-3.78.46,1.78,2-3.62,2.43-1,.16-.52.28-1.22,0-1.23.41-.7.67-.86.6,0,1.07-2.78.22-2,1.38-4.44.17.1,0,.62.1,1A12.72,12.72,0,0,1,468.06,79c.05.18.3,0,0,.62,1.61-3.55,1.91-6.45,4.07-10.16.24,1.51.88-1.19,1.65-1.08l.79-2.17-.73.68c.22-.46.4-.91.57-1.36s.28-.84.54-1.51a19,19,0,0,1,1.52-3.35l-.55,1.87,2-4.5h-.48l.39,0-1.43,2.46c.3-1,0-.88-.22-.79s-.38.18,0-.65l-.65,0c.68-.08-2.13,0-3.25-.45h0c-.67.12-1.33.24-1.94.31a7.88,7.88,0,0,1-1.94,0c-.38-.24.31-.83.06-1-1,.63-4.71.18-6,.84.42-.15.44-.55.3-.63l-.82.51c-.94-.16-1.07-.24-.92-.55-2.81-.09.89.95-2.44.54.26,0,.13-.12.68-.2-3.35-.21-6.47.33-9.54.08-.91-.76,2.69-.19,1.65-.82-4.44.13-9.18.9-13.47.72l.8.08c-.6,1.06-3.2-.52-5.37,0,.54-.08.7-.59.56-.47-2.94-.17-6,.26-10.46.59l.55-.27c-1.73-.24-4.56-.14-6.43-.26-.55.27-1.62.23-1,.62-5.77-1.55-11,.83-16.12-.46.61,0,1.46-.24,1-.24l-4.36.25c.35.46.58.28,1.49.64a7.63,7.63,0,0,1-2.86.49c2-.31,0-.74-.86-1,.14.14-.15.3-.08.44-2.28-.82-.38.93-3.49.38l.16-.25a19.63,19.63,0,0,1-3.49.38c-.52-.54,1.24-.25,1.32-.69-1.76,0-3.47,1-5.07.48.75-.15,1.83-.15,2.57-.3a8,8,0,0,0-3.22-.57l.12,0-3-.29.76.17c-2.2,1.4-4.49.26-7.46,1.17,2.89-.86.48-.5.7-1.11-.76-.16-1.91-.35-1.58-.52-1.41.49-2.35-.39-4.33.33-.09-.2-1.5,0-1.18-.51-1.83.15.43.34.27.58-2.81.67-6.61-.81-10.65.11-3.49.37-4.14,1-7.38,1.36-1.09-.31.9-.71.9-.71a14.56,14.56,0,0,0-4.75,0c.33-.17,0-.32-.52-.53-1.33.05-.89.71-2.65.42a4.54,4.54,0,0,1,1.33-.79c-1.57.18-3.12.55-4.75.72-.43-.34,1-.51,1.56-.73-1.83.15-4.74.3-5.3.84l1.17.19c-.67,0-.34-.46.15-.56,1.56-.42,2.26.19,2.34.39l-1.15.12c1.19,1.15,4.65-.18,7-.12l-1,.84,2.39-.69c.51.21.86.68-.29.8,1.67.41,1.48-.29,2.91.16.16.08.09.12-.06.15l1.64-.25c-.32.18.27.59-.74.47,2.94.48,4.73-.63,5.84,0l-.25.06c4.07-.29.39-.62,3.44-1.33l2.06,1.5.4-.61c.42,0,1.25.07,1.09.32,1.57-.42-.26-.27.64-.66,2,.55,5.57-.26,6,.71.72-.47-1.93-.36.22-.68.62,1,2.5-.18,4.34.3-.56.54-2.31.25-.47.73,1.12-.91,3.6.2,5.15,0,.08-.73,3.39-.3,6-.55-.17.25,4.91.4,7.34.67l-.07.12c.47-.74,3-.6,4.8-.75-.07.44-.4.61-1.38.81H397a4.74,4.74,0,0,1,2.05-.45l-.43.55c2.29,0,4.6-.64,7.54-.28.16-.51-2.34-1.42.77-1.77.11.28.23.75-.58.87a4.05,4.05,0,0,1,1.48-.11l-1.24.46c1.34.21.7-.39,1.77-.34,0,.39.79.28.64.59-.27,0-.93-.16-1.34,0a9.24,9.24,0,0,1,3.14.61c-.1-.23,0-.53.89-.59,2.28,0,.78.48,2.11.68.55-.27,2,0,2.05-.58a1.43,1.43,0,0,1,1,.44c1.18-.26,5.52-.07,4.18-.7l-.3,0,.19,0h0c3.88-.59,8,.33,11.89.08v.2c2.29-.23,5.1-.13,6.74-.56.68,0,1.6.36,1.31.6a13.9,13.9,0,0,1,4.49,0c-1.77.35.6.31-1.81.26,2.28.17,2.79.48,5.24-.06-.83.51,1.72.64,2.8.49l-1.6-.36a31.43,31.43,0,0,1,3.37,0l-.59.67c4.67.81,8.41-1.38,12,0,1.23-.46-2.53-.32-1.43-.87,2.15.09,4.38,1,5.05,1,1.43.18,2.34-.06,2.46-.32a2.16,2.16,0,0,1,1.69-.4c.12-.24.21-.86,2.51-1.09l0,0a4.79,4.79,0,0,1-1.46,1.8c-.41.25-.69.21-.68,0a.83.83,0,0,1,.37-.45,1,1,0,0,0,0-.23c-.38.08-.61.18-.63.36l.24-.12.17-.05c-.61.71-1.07,1.74-1.38,1.5,0,.48.27.33.67-.23a5.57,5.57,0,0,0-.51.73s-.2.39-.31.61l-.35.75a35.23,35.23,0,0,1-1.6,3.21c.31-.35.74-.6.54-.2-2,3.63-.37,1.85-1.48,4.44-1,1.29-.54-.89-1.48,1.8-1,1.46-.72.07-.6-.64-.69,2.53-2.34,4.24-3,5.53l.41-1.31a14.73,14.73,0,0,1-.83,2l.76-.5c-.41.69-.7,1.3-.88,1.2-.07.88,1-.23.67,1.43-.67.86-1.15,3-1.87,3.1,1.62-2.93-.74.07.38-2.54a8.15,8.15,0,0,1-.87,1.82c-.11.08-.07-.16,0-.37-1.87,2.65,0,1.63-1.41,4.63-.14-.53-.94.41-1.1.93.57-1.21.8-.33.53.9-1.16,1.81-.81,2.18-1.31,3.18l.66-1.1c.13.54-.36,1.49-.9,2.88-.3,0,.41-1.3.07-.88-.14,1.76-2.17,3.09-2.78,5.35-.67.86-.64-.19-1.19.59-.68,2.52-1.63,2.31-2.45,4.92.77-.5.72-.67.33,1.25l1.6-4.17-.6,2.88c.58-1.21.94-2.69,1.36-3.38-.23,1.39-.28,1.22.36.8-1.44,1.36-1.18,3.48-2.53,5.19l-1-.56c-1.84,2.66-1.88,5.39-3.92,9l.76-1.12c.18.71-1,2.35-1.44,3.64-.3-.28-.79.42-1.26.83.29.07-1.32,2.74-.77,3.42L443,124.13c-1.63,2.93-.62,3.93-2.12,6.79,0-1.06-.85.14-.2-1.94-.47,1-.94,1.81-.7,2-.5.46-.8,2.92-1.56,3.65a2.73,2.73,0,0,1-.27,1.87c-.13.09-.17-.09-.17-.09.17.09-.57,1.83.27,1.06-2.52,2.47-3.87,8.41-6.06,10.56-.88,2.18-2,4.79-2.86,6.73-.05-.18-.17-.09,0-.44a4.91,4.91,0,0,0-.63,1.29,1.6,1.6,0,0,0-.05.79,2.25,2.25,0,0,1-.2,1.63,6.52,6.52,0,0,1-.9-.07c-.74-.32-.37-.4-.06-.44s.73,0,.32-.14a1.29,1.29,0,0,0-.67-.54,1,1,0,0,0-.34,0l-.81.06a10,10,0,0,1-3.82-.09l.55-.07c-1.72-.44-4.2.49-7,.4,0,0,.14-.12,0-.2-1.92.66-5.56.88-8.26,1.07.84-.51,1.22-.27.71-.79-1.21.07.36.83-2.06,1-.79-.27-2.53-.52-2.77-1.07l2.29,0c-1.17-.71-3,0-4.16-.1l.15-.31c-3.49.1-3.54.89-7.3.83l.39.24c-2.05.78-1.72-.44-3.77.14l-.62-.79c-1.36.19-4.75.76-7.18.91a41.15,41.15,0,0,1,6-1.23c-1.34,0-4.56.06-5.26.45a5.26,5.26,0,0,1,1.76-.15,18.66,18.66,0,0,1-6.5.91c.48-1.53-7-.39-8.91-1.57-4.74.56-9.4-.25-14.91-.15,1.95,1.19-1.61,0-1.27,1.25a5.45,5.45,0,0,1-1.89,0l-3.9-.73c-.92-.36,1.22-.27,1.11-.54-2.82-.1-1.18-.52-3.05-.85.39.44-1,.63-2.58.46l2.26.57c-3.93.65-3.4-1-7.36-.39l1.25-.38c-2,.23-7.5,0-9.49,1-.36-.14-.84-.47.06-.56-4.86-.15-10.82,1.05-14.6.44l.37-.3c-.9.09-1.58.56-2.71.26.06-.12.36-.3-.06-.31a12.72,12.72,0,0,1-3.61.35l1-.34c-4.74-.39-7.27.82-11.25,1,0-.88-3.72-1.16-5.58-1.3l.07-.13c-5.52-.11-9.38.73-14.49,1.08-3.17-1-10.75-.4-15.85-.94.78.16-.13.69-1,.77-1.2-.17-3.31.62-3.12-.19h.43c-.91-.79-3.37-.58-5.29-.6l-.31,1.06c-5-1.54-13.16.56-15.9-.82-1.22.27-2.72.27-3.92.53l.07-.57c-3.36-.14-5-.21-9.19-.08l.85-.4c-2.34,0-3,1.63-5.12,1.66l-.65-.84h-.51l-.33-.05a2.75,2.75,0,0,1-.51-.12,1.74,1.74,0,0,0-.84-.12c.11-.13.05-.21-.08-.37.22,0,.66-.09.64,0,.19-.16.68-.39.83-.53a.4.4,0,0,0,.14-.31c.26-.38.31-.66,0-.77.53.55,3.24-2.69,4.7-4.38l.1.64a10.89,10.89,0,0,1,2.71-3.79c.51-.34.7,0,0,.42,1.75-1.12.87-1.45,3-2.85l-.47.88a5.31,5.31,0,0,0,2-2.46c.86-1,3.12-2.51,3.69-2.33a3.79,3.79,0,0,1,1.66-2.19c.25,0,0,.42-.15.61,2.92-2,3.56-3.92,5.75-5.09a.53.53,0,0,0,.53,0c-2.13,1.82-3.86,3.27-3.73,3.1.33.39,2.11-1,1.21.69,1.12-1.48,2.93-4.15,4.76-5.41a1,1,0,0,1,.34-.05l-.14.19a4.69,4.69,0,0,0,1-1A15.68,15.68,0,0,0,248.3,130c.48.15,2.12-1.53,3-2.25-.43-.36.75-1.26-.61-.71.16-.08-.12.19-.67.7a3.39,3.39,0,0,0-.33.36l0-.09-2.1,1.87a5.14,5.14,0,0,1,2.19-2.17,17.86,17.86,0,0,1,.6-1.72c1.68-.42,4.22-2,4.85-2,2.41-2.49,6-5.47,7-7.68.66-.75,1.06-.51,1.44-.62a8.79,8.79,0,0,0-1,1.19c1.31-1.49,4.33-3.88,4.21-4.74,2.09-1.36-.61,1.42,1.88-.89l-.2.47c5.84-3.47,7-8.52,13.61-12.21-.45.26-.68.4-.84.37,6.84-5,12.78-11.84,19.79-16.48,1.94-1.39,1.82-1.91,2.68-3.13l.79.12L306,78.26c2.32-2.67,5.56-2.84,8.3-6.47l-.7.07c1.25-1,3.67-3.48,3.77-3a1.21,1.21,0,0,1,.73-.91l.24.21,2.62-3c2.45-1.81.46,1.26,3.85-1.59,1.17-1.17,2.95-3.76,2.35-3.51-.52.42-1.42,1-1.66.75l1-1.11c-.4-.88-.15-2.36-3.37-.44l-1.58,2.11-.92.2,1.62-1.43a4,4,0,0,0-2,2,1.79,1.79,0,0,0-1.14.32l-1.34,2.33c-.47-.08.39-1.29-1-.33-.62,1.08,1.4-.13.09,1.36-1.21.49-1.16,0-2,1.21-.31-.05-.18-.37.18-.82-.78,1.06-2.5,2.32-2.68,3.12-1.31.45-3.2,3-3.68,2.2a12.48,12.48,0,0,1-2.14,2.8c1-2.21-3.4,2.85-3.7,1.62-.59,1.76-4.1,4.09-5.91,6.34a1.37,1.37,0,0,1,.43-.61,15.88,15.88,0,0,1-2.69,1.6c.36.73-1.41,2.48-2.1,3.72-2,.71.3-1.47-.64-1.62.48.42-2.16,2.7-1.31,2.67-1.44.62-1.13.67-2.13.68.44.91-1,1-1.5,2.3-2,1-1-.34-2.62,1.44C283.23,93.1,284.61,91.46,284.61,91.46Zm-41.7,38.18h0l.86-.78Zm-3.6,3.11c.46-.36,1-.83,1.58-1.33.25,0,.25.31-.12.61C240.88,131.77,240,132.41,239.31,132.75Zm10.16-3.61c-.52.55-.78.63-.94.61.27-.24.57-.52,1-.91,0,0,0-.07,0-.11A.85.85,0,0,1,249.47,129.14Z"/></g></svg>