<svg id="レイヤー_1" data-name="レイヤー 1" xmlns="http://www.w3.org/2000/svg" xmlns:xlink="http://www.w3.org/1999/xlink" viewBox="0 0 218 218"><defs><style>.cls-1,.cls-13,.cls-3{fill:none;}.cls-2{clip-path:url(#clip-path);}.cls-3{stroke:#9b7656;}.cls-10,.cls-11,.cls-12,.cls-13,.cls-15,.cls-16,.cls-17,.cls-18,.cls-19,.cls-20,.cls-21,.cls-23,.cls-24,.cls-25,.cls-3,.cls-9{stroke-linecap:round;stroke-linejoin:round;stroke-width:2px;}.cls-4{clip-path:url(#clip-path-2);}.cls-5{clip-path:url(#clip-path-3);}.cls-6{fill:#9b7656;}.cls-7{clip-path:url(#clip-path-4);}.cls-8{fill:#fff1e1;}.cls-9{fill:#f1d8bc;}.cls-10,.cls-11,.cls-12,.cls-13,.cls-15,.cls-17,.cls-23,.cls-24,.cls-25,.cls-9{stroke:#40210d;}.cls-10,.cls-19{fill:#fff;}.cls-11,.cls-14{fill:#40210d;}.cls-12{fill:#273189;}.cls-15{fill:#d61518;}.cls-16{fill:#f5dcbe;}.cls-16,.cls-18,.cls-19,.cls-20,.cls-21{stroke:#42210b;}.cls-17{fill:#273288;}.cls-18{fill:#e6e6e6;}.cls-20{fill:#603813;}.cls-21{fill:red;}.cls-22{fill:#42210b;}.cls-23{fill:#f4dbbd;}.cls-24{fill:#978474;}.cls-25{fill:#5e3819;}</style><clipPath id="clip-path"><rect id="SVGID" class="cls-1" x="10" y="-232" width="200" height="200" rx="10"/></clipPath><clipPath id="clip-path-2"><rect id="SVGID-2" data-name="SVGID" class="cls-1" x="484" y="-230" width="200" height="200" rx="10"/></clipPath><clipPath id="clip-path-3"><rect id="SVGID-3" data-name="SVGID" class="cls-1" x="182.24" y="-298" width="568.77" height="326.6"/></clipPath><clipPath id="clip-path-4"><rect id="SVGID-4" data-name="SVGID" class="cls-1" x="9" y="9" width="200" height="200" rx="10"/></clipPath></defs><title>5-2  鬼遊び</title><g class="cls-2"><ellipse class="cls-3" cx="18.89" cy="-6.8" rx="15.41" ry="11.32" transform="translate(5.93 8.53) rotate(-30)"/><ellipse class="cls-3" cx="68.64" cy="-3.62" rx="15.41" ry="11.32" transform="translate(11.01 33.84) rotate(-30)"/></g><g class="cls-4"><g class="cls-5"><path class="cls-6" d="M633.61-86l-.5-1.12-1.65.75L439-119.27l-.27,0-380.4,66L56.23-53,219.54,294.32l.85,1.81L717.12-71.68ZM517-102.61l46.95,8-455,145.94L87.41,5.62,517.05-102.21ZM86,2.6,72.05-27,473.8-110l36.14,6.18Zm484.92-96,55.2,9.44L147,132.28,110.33,54.36ZM438.75-116l26.18,4.48L70.61-30.1,61-50.46ZM148.37,135.25,631.9-82.94,709-69.74,221.66,291.11Z"/></g></g><g class="cls-7"><ellipse class="cls-8" cx="115.04" cy="112.02" rx="173.57" ry="160.5"/><path class="cls-9" d="M135.83,120.52a3.9,3.9,0,0,1-3.21-1.68,4,4,0,0,1,.92-5.58l28.71-20.83a3.92,3.92,0,0,1,5.51.93,4.06,4.06,0,0,1-.92,5.59l-28.72,20.83A3.88,3.88,0,0,1,135.83,120.52Z"/><path class="cls-9" d="M215.47,110.11a3.85,3.85,0,0,1-1.1-.16,4,4,0,0,1-2.69-5c0-.06,2.15-8.1-2.63-12.44-5.14-4.65-15-2.77-15.13-2.75a4,4,0,0,1-4.65-3.13A4,4,0,0,1,192.35,82c.56-.12,13.81-2.75,22,4.63,8.52,7.72,5.1,20.11,5,20.64A4,4,0,0,1,215.47,110.11Z"/><path class="cls-9" d="M171.34,129.38a54.11,54.11,0,0,0-16.17,17.76l6.73,4.23a47.16,47.16,0,0,1,13.66-15.22,4,4,0,0,0,1.22-5.52A3.91,3.91,0,0,0,171.34,129.38Z"/><path class="cls-9" d="M196.91,144a5.36,5.36,0,0,1-4.5-.48c-3.14-1.68-1.77-11.48.38-17.61a4,4,0,0,0-2.38-5.12,3.94,3.94,0,0,0-5,2.42c-.77,2.21-7.29,21.72,3.39,27.4a13.78,13.78,0,0,0,6.49,1.69,12.94,12.94,0,0,0,4.19-.71,18.16,18.16,0,0,0,6.8-4.45l-5.8-5.45A9.86,9.86,0,0,1,196.91,144Z"/><path class="cls-10" d="M150.34,159.2a4,4,0,0,0,2.86,4.86,3.6,3.6,0,0,0,1,.13,4,4,0,0,0,3.82-3,39.49,39.49,0,0,1,3.91-9.79l-6.73-4.23A47.93,47.93,0,0,0,150.34,159.2Z"/><path class="cls-10" d="M212.28,138.46a4,4,0,0,0-1.89-5.33,3.91,3.91,0,0,0-5.25,1.93,25,25,0,0,1-4.71,6.59l5.8,5.45A32.59,32.59,0,0,0,212.28,138.46Z"/><path class="cls-11" d="M205.86,134.74s.25-4.47,2.71-6.76c6.84,3,12.85,11.11,14.69,13.5-1.72,2.53-4.93,4.43-8.49,2.56-2.76-1.44-2.13-5.38-2.13-5.38S210.33,133.74,205.86,134.74Z"/><path class="cls-11" d="M157.63,161.77s.65,4.43-1.31,7.18c-7.3-1.55-14.79-8.25-17.07-10.21,1.18-2.82,3.95-5.35,7.8-4.25,3,.85,3.16,4.84,3.16,4.84S153.45,163.66,157.63,161.77Z"/><path class="cls-12" d="M171.26,125.26a50.28,50.28,0,0,0-8.38,8.15c1.92,2.49,6.8,4.22,12.58,4.91l3.74-2.9v3.19a42.25,42.25,0,0,0,16.32-2.33c0-7.18-2.63-16.74-2.63-16.74Z"/><path class="cls-10" d="M153.71,96.57c2.52,5.31,7.65,10.46,7.65,10.46l5-3.79s4.15,20.9,3.19,22.24c8,1.73,19.46-1,23.37-3.93-.81-13.09-6.44-28.83-6.44-28.83a23,23,0,0,1,11.11-1,37,37,0,0,0,0-12.13l-16.7,3.7-14,3.32S159,90.69,153.71,96.57Z"/><line class="cls-13" x1="166.36" y1="103.24" x2="165.49" y2="98.59"/><ellipse class="cls-9" cx="169.78" cy="86.66" rx="3.45" ry="5.03" transform="translate(-17.55 51.4) rotate(-16.38)"/><path class="cls-9" d="M138.38,72.68c1.78-1.15,1.59-4.08,1.59-4.08a3.42,3.42,0,0,1-2.36.61,3.54,3.54,0,0,1-3-4.65,3.49,3.49,0,0,1,3-2.41,7.7,7.7,0,0,1,2.42.24c1.78.49,2.7-3.15,2.83-3.92,2.46-14.2,13.54-24.5,27.92-22.95a27.9,27.9,0,0,1,24.52,30.81c-.71,6.83-3.22,13.33-7.64,16.78-5.54,4.34-13.82,4.67-22.25,3.76S151.1,84,145.65,79.18Z"/><path class="cls-11" d="M170.84,35.83a24.79,24.79,0,0,0-26.21,15.29,34,34,0,0,0-1.5,6.53c1.76.66,11.62,1.54,19.05-1.49a27.37,27.37,0,0,1-5.77,3.5c6.44-.32,11-2.4,16.66-6.12,1.8,8.69,3.25,10.32,6.56,13.45a3.85,3.85,0,0,1,2.88-.45c2.35.61,3.66,3.5,2.92,6.45-.63,2.47-2.48,4.2-4.45,4.34A31.75,31.75,0,0,1,179.6,87a19,19,0,0,0,8.12-3.52c4.42-3.46,6.93-10,7.64-16.78A27.91,27.91,0,0,0,170.84,35.83Z"/><ellipse class="cls-14" cx="160.01" cy="64.85" rx="1.39" ry="2.36" transform="translate(35.15 184.1) rotate(-65.75)"/><ellipse class="cls-11" cx="193.7" cy="84.48" rx="2.54" ry="2.58"/><ellipse class="cls-11" cx="201.28" cy="86.13" rx="2.54" ry="2.58"/><ellipse class="cls-11" cx="208.66" cy="87.91" rx="2.54" ry="2.58"/><polygon class="cls-11" points="214.12 89.61 220.06 88.01 217.01 93.74 214.12 89.61"/><path class="cls-15" d="M167.17,34.47c-10.42,0-20.79,5-22.87,16.74L179.05,67a3.8,3.8,0,0,1,2.84-.76c2.43.35,4,3.11,3.6,6.15l7.2,4.4c3.76-5.64,4.66-9.86,4.66-14.05C197.35,47.14,182.55,34.47,167.17,34.47Z"/><path class="cls-13" d="M144.3,51.21S131.74,46.58,126.86,31"/><path class="cls-15" d="M143,73.56s11.76,1.73,11.84,4.65-4.61,3-6.3.18S143,73.56,143,73.56Z"/><path class="cls-16" d="M73.46,138.55a20.37,20.37,0,0,1-5.52-.77c-12.78-3.61-18.51-18.86-18.75-19.51a4.92,4.92,0,0,1,9.24-3.4c1.17,3.12,5.63,11.61,12.21,13.44,4.2,1.17,9.11-.43,14.58-4.76a4.92,4.92,0,1,1,6.11,7.71C85.21,136.11,79.22,138.55,73.46,138.55Z"/><path class="cls-17" d="M64.77,113.16s3.84,9.6,8.64,13.44c-1.92,6.73-8.64,10.57-8.64,10.57a61.66,61.66,0,0,1-14.53-10.69"/><path class="cls-18" d="M98.49,140.48l2.59-1.43c1.64-.9.44-4.73-1.42-7.5a7.71,7.71,0,0,1-2.57-3.79c-1-3.92-3.92-8.38-4.76-8.62-1.33-.39-3.44,1.9-3.44,1.9Z"/><path class="cls-19" d="M85.44,123c3.63,2.49,6.48,7.66,5.41,10.16a5.91,5.91,0,0,0,8.5,6.9c1.65-.91.45-4.73-1.41-7.51l-7.33-12.41A10.42,10.42,0,0,0,85.44,123Z"/><path class="cls-16" d="M22.12,153.25a5,5,0,0,1-1.61-.27,4.93,4.93,0,0,1-3-6.27c7.91-22.86,29.68-28.91,40.09-28.91a4.93,4.93,0,0,1,0,9.85c-1,0-23.25.45-30.81,22.28A4.92,4.92,0,0,1,22.12,153.25Z"/><path class="cls-18" d="M5.33,145.15l-1.12,2.73c-.71,1.75,2.63,4,5.82,5a7.76,7.76,0,0,1,4.38,1.34c3.27,2.4,8.31,4.06,9.11,3.72,1.28-.54,1.49-3.64,1.49-3.64Z"/><path class="cls-19" d="M26.5,150.61c-4.39.34-9.86-1.9-10.59-4.51a5.91,5.91,0,0,0-10.95,0c-.71,1.74,2.62,4,5.81,5l13.49,5.06A10.41,10.41,0,0,0,26.5,150.61Z"/><path class="cls-17" d="M66.7,119.91c.91-6.37-3.06-10.78-5.45-14.55-2.08,2-12,6.07-20,8.18.59,1.11,1.18,2.15,1.79,3.18a33.53,33.53,0,0,0-10,6.82c.91,7.27,7.27,11.82,7.27,11.82a25.25,25.25,0,0,1,12.37-5.82C52.79,129.62,65.79,126.27,66.7,119.91Z"/><path class="cls-16" d="M-.08,105.12a5.22,5.22,0,0,1-5-3.85,5.23,5.23,0,0,1,3.67-6.42C20.08,89,31.82,78.38,31.94,78.27A5.23,5.23,0,0,1,39,86c-.55.5-13.75,12.43-37.7,19A5.45,5.45,0,0,1-.08,105.12Z"/><path class="cls-19" d="M35.47,72.71s-8.36,8.37-15.68,11.5c3.14,8.37,8.36,11.5,8.36,11.5L42.79,86.3Z"/><path class="cls-19" d="M38.61,66.44c-7.32,2.09-2.09,39.73,3.13,50.18,15.68,2.09,20.91-10.45,20.91-10.45-3.13-4.18-4.18-9.41-6.27-16.73C52.84,77.06,43.12,65.15,38.61,66.44Z"/><path class="cls-16" d="M58.46,77.58a89.19,89.19,0,0,0,28.71,7.7,5.23,5.23,0,0,1-.47,10.43,3.85,3.85,0,0,1-.48,0,99.51,99.51,0,0,1-30.31-7.77"/><path class="cls-16" d="M50.91,73.59a61.82,61.82,0,0,0,6.86,3.67c.22.11.45.22.69.32"/><path class="cls-19" d="M46.45,72.37a11.53,11.53,0,0,1,6.79,1.39A62.76,62.76,0,0,0,63.7,77.94a14,14,0,0,1-4.18,13.59,78.07,78.07,0,0,1-8.37-4.11"/><path class="cls-20" d="M27.41,36.12s-3.14-4.18-9.41,0c-8,5.35-9.41,38.69-8.36,46,3.13,2.09,10.74,2.09,16.73-2.09-6-14.63-5.23-36.59-4.19-37.63s4.19,0,4.19,0Z"/><path class="cls-16" d="M65.79,50.76c0,16.17-13.11,25.09-29.27,25.09-8,0-17.72-1.06-23-5.23S7.24,58.92,7.24,50.76a29.28,29.28,0,0,1,58.55,0Z"/><path class="cls-16" d="M18.13,60.6A2.09,2.09,0,1,1,16.65,57a2.1,2.1,0,0,1,1.4.54"/><path class="cls-21" d="M16.65,65.4a32.93,32.93,0,0,0,13.59,1s-1,4.18-6.27,4.18S16.65,65.4,16.65,65.4Z"/><circle class="cls-22" cx="33.38" cy="55.99" r="1.57"/><circle class="cls-22" cx="11.43" cy="54.94" r="1.57"/><path class="cls-20" d="M12.55,34C17.7,24.62,27.11,19.4,40.7,20.44S62.65,33,65.79,41.35c1.69,4.51,2,14.74-2.09,22C60.17,69.48,52.76,72.88,47,74.81,51.15,66.44,53.24,57,48,46.58S25,30.9,12.55,34Z"/><path class="cls-20" d="M55.33,36.12s3.14-4.18,9.41,0c8,5.35,9.41,38.69,8.37,46C70,84.21,62.37,84.21,56.38,80c6-14.63,5.23-36.59,4.18-37.63s-4.18,0-4.18,0Z"/><path class="cls-21" d="M53.24,36.12a4.61,4.61,0,0,1,3.14-1c0,4.18,0,4.18,2.09,7.32a8.12,8.12,0,0,1-3.14,1S53.24,41.35,53.24,36.12Z"/><path class="cls-16" d="M46.45,52.29a4.34,4.34,0,0,1,3.25-1.53c2.53,0,4.59,2.34,4.59,5.23s-2.06,5.22-4.59,5.22a4.28,4.28,0,0,1-3.07-1.33"/><path class="cls-20" d="M35,38.74S25,48.67,6.72,50.24c-.52-4.71,0-12.55,5.75-18.3s13.59-5.23,24.57.52c5.75-2.61,9.93,2.62,11.5,8.37s1.57,8.88,0,14.63A51.33,51.33,0,0,1,35,38.74Z"/><path class="cls-23" d="M94.5,136.34a7.05,7.05,0,0,0-1.3,1.15,6.63,6.63,0,0,0,.66,9.35c1.94,1.72,6.9,7.35,6.31,12.45-.65,5.5-6.36,10.59-8.51,12.08a6.63,6.63,0,0,0,7.47,10.95l0,0c1.29-.88,12.72-9,14.17-21.47,1.51-12.92-9.51-22.9-10.78-24A6.64,6.64,0,0,0,94.5,136.34Z"/><path class="cls-23" d="M77.82,237.81A6.59,6.59,0,0,0,83,235.32c16.54-20.74,18.77-46.94,18.86-48a6.63,6.63,0,0,0-13.22-1.05h0c0,.23-2,23.34-16,40.82a6.62,6.62,0,0,0,5.18,10.76Z"/><path class="cls-24" d="M66.78,197.56c4.42,7.85,17.07,8.9,24.3,1.35C87.27,190.17,76.6,189,66.78,197.56Z"/><path class="cls-23" d="M77.83,237.81a6.62,6.62,0,0,0,6.58-5.92l3.68-34.36a6.63,6.63,0,1,0-13.18-1.41l-3.68,34.36a6.64,6.64,0,0,0,5.89,7.3Z"/><path class="cls-17" d="M91.08,198.91c-2.7-8.1-15-9.94-24.3-1.35-8.84-12.23-3.05-27.73-3.05-27.73l42.56-1.48s0,21.6-4.41,33.63c-6.63,2.45-14.61,0-14.61,0Z"/><path class="cls-13" d="M91.08,198.91s-1.18-6.75-3-14.85"/><path class="cls-10" d="M84.81,123.57c18.78,0,30.61,27,31.83,35.23a13.68,13.68,0,0,1-9.36,2.68s.24,6.81-1,10.31c-21.48,5.89-43.43,1.07-43.43,1.07S66,123.57,84.81,123.57Z"/><ellipse class="cls-23" cx="89.6" cy="129.58" rx="4.42" ry="7.11"/><path class="cls-13" d="M107.28,161.48a77.35,77.35,0,0,0-2.21-15.71"/><path class="cls-23" d="M87.07,65.53c20.31,0,34,17.18,34,37.5a37.83,37.83,0,0,1-.51,6.22,4.2,4.2,0,0,1,.51,0,4.67,4.67,0,1,1-3.14,8.09c-1.08,2,1.18,4.67,1.18,4.67A43.92,43.92,0,0,1,95,120.34a19.26,19.26,0,0,0,10.83,9.48c-4.52,1.36-13,1.23-18.73,1.23-20.32,0-35.26-7.71-35.26-28S66.75,65.53,87.07,65.53Z"/><circle class="cls-14" cx="98.93" cy="104.29" r="2.21"/><path class="cls-13" d="M120.53,96.43a53.36,53.36,0,0,0,32.4-7.11"/><path class="cls-25" d="M75.73,98.29s-4.57,17.25,2.63,31.85c-29.5-4.18-26-26.61-26-33.71C59.17,89.32,75.73,98.29,75.73,98.29Z"/><path class="cls-10" d="M120.53,96.43c-34.08,5.65-68.19,0-68.19,0C49.6,85.89,59.17,62.89,84.45,62.89,115.38,62.89,121.76,77.76,120.53,96.43Z"/><path class="cls-25" d="M62.36,98.94S49.84,90,41.5,91.53,26,99.38,26,106.5s12.52,8.1,12.28,11.42-8.59,5.75-8.59,5.75,16-.45,17.91-4.51-5.15-6.54-3.43-12.66S62.36,98.94,62.36,98.94Z"/><path class="cls-23" d="M81.27,99.18a5.07,5.07,0,0,0-3.54-2.69c-3-.52-6,2-6.61,5.72s1.27,7.09,4.28,7.62a4.94,4.94,0,0,0,3.78-1"/><path class="cls-23" d="M56.91,152.76l8.15-16.82a8,8,0,0,1-1.24-4.27,8.1,8.1,0,1,1,10.65,7.67l-8.35,17.23a5.07,5.07,0,0,1-4.61,2.76,5.33,5.33,0,0,1-2.06-.41A4.53,4.53,0,0,1,56.91,152.76Z"/></g></svg>