<svg id="レイヤー_1" data-name="レイヤー 1" xmlns="http://www.w3.org/2000/svg" viewBox="0 0 130.97 105.12"><defs><style>.cls-1{fill:#f5dcbe;}.cls-1,.cls-10,.cls-11,.cls-12,.cls-13,.cls-14,.cls-15,.cls-2,.cls-3,.cls-4,.cls-5,.cls-6,.cls-7,.cls-8{stroke:#40220f;stroke-linecap:round;stroke-linejoin:round;}.cls-2{fill:#fff;}.cls-3{fill:#c9caca;}.cls-4{fill:#e79eb0;}.cls-5{fill:#b9dde7;}.cls-6{fill:#d71618;}.cls-7{fill:#67391b;}.cls-8{fill:none;}.cls-15,.cls-9{fill:#40220f;}.cls-10{fill:#e60012;}.cls-11{fill:#f2c41c;}.cls-12{fill:#0a73ba;}.cls-13{fill:#4d3718;}.cls-14{fill:#0363a6;}</style></defs><title>乳幼児期</title><path class="cls-1" d="M71.2,74.3a3.54,3.54,0,0,1-1.41-6.78c8.86-3.86,16.59-12.69,16.67-12.78a3.54,3.54,0,1,1,5.34,4.64c-.36.41-8.87,10.13-19.19,14.62A3.54,3.54,0,0,1,71.2,74.3Z"/><path class="cls-1" d="M86.73,96.79a3.54,3.54,0,0,1-2.13-6.36A34.12,34.12,0,0,0,95.8,75.29a3.54,3.54,0,0,1,6.75,2.12A41.15,41.15,0,0,1,88.87,96.07,3.49,3.49,0,0,1,86.73,96.79Z"/><path class="cls-2" d="M89.46,85.89a10.74,10.74,0,0,0,5.1,4.91c-3.15,3.17-7.82,7.59-7.82,7.59L82,93.1Z"/><path class="cls-3" d="M83.54,91.31s-.69,5,4.79,5.24c1,0,4.3.75,4.76,2.26s.65,1.61,0,2.69-1.93,2.68-3.76,2.68-9.37-4-9.37-8.69A14.68,14.68,0,0,1,83.54,91.31Z"/><path class="cls-4" d="M84.6,90.43s-.69,4.95,4.79,5.23c1,.06,4-.51,4.76,2.26.43,1.52.65,1.61,0,2.7s-1.93,2.68-3.76,2.68S81,99.33,81,94.6A14.52,14.52,0,0,1,84.6,90.43Z"/><path class="cls-4" d="M90.73,95.87s-2.4.68-2.06,2"/><path class="cls-1" d="M111.87,75.9a3.53,3.53,0,0,1-3.28-2.23A34.08,34.08,0,0,0,96,57.94a3.54,3.54,0,1,1,3.6-6.1A41.21,41.21,0,0,1,115.16,71a3.54,3.54,0,0,1-2,4.6A3.45,3.45,0,0,1,111.87,75.9Z"/><path class="cls-1" d="M101.44,99a3.54,3.54,0,0,1-2.67-1.22C93.33,91.47,89.07,83,87.4,79.44a3.54,3.54,0,0,1,1.73-6.63h.75A3.56,3.56,0,0,1,93.13,75c.05.11,4.79,11,11,18.15A3.54,3.54,0,0,1,101.44,99Z"/><path class="cls-5" d="M107.71,71.67a11.4,11.4,0,0,0,6.21-3.41c0-.56.93-2.32,0-4S110.42,61,108.48,59c-3.34-3.44-6.84-7.37-11.68-9.85-5.14.15-8.07,5.89-3.08,8.34,4.18,2,8,8.16,11.11,12.44C106.05,71.67,107.36,70.87,107.71,71.67Z"/><path class="cls-6" d="M78.3,82.4s20,1.83,30.42-.11c-.87-4.22-2.46-9.93-2.46-9.93h-26Z"/><path class="cls-5" d="M72.87,66l3.06,6.39A4.81,4.81,0,0,0,78.66,72l1.5-1a25.53,25.53,0,0,0-1,4.79c1.36.21,2.78-1.48,4.6-1.48s1.74,1.85,2.86,2.4,2.13-1.54,3.77-1.37,1.93,1.91,3.8,1.91,1.82-1.83,4.3-2,4.33,2,6.49,2a5.07,5.07,0,0,0,3.61-1.91s-2.46-30.67-13.31-30.67c-4.18,0-6.28,3.76-8.58,7.06-1.62,2.33-3.34,5.33-5.36,7.11-2.66,2.33-5.6,3.24-7.12,4.54A6.3,6.3,0,0,0,72.87,66Z"/><path class="cls-2" d="M94.56,92.19s4.71.12,6.09-3.63c2,2.75,6.09,8.23,6.09,8.23l-6.09,3.42Z"/><path class="cls-3" d="M98.76,98.29s5.28,1.53,6.15-3.69a18.39,18.39,0,0,1,4.47,4.83l-7.93,4.82A14.13,14.13,0,0,1,98.76,98.29Z"/><path class="cls-3" d="M103.08,100.92a4.69,4.69,0,0,1,2.42-3.68c1.43-.78,5.61.36,5.61.36s.33.65.79,1.51c1.26,2.28-7,6.81-8.26,4.53l-2.19.61"/><path class="cls-4" d="M98,96.79s5.28,1.52,6.14-3.69a18.16,18.16,0,0,1,4.48,4.83l-7.94,4.82A14.05,14.05,0,0,1,98,96.79Z"/><path class="cls-4" d="M102.28,99.42a4.72,4.72,0,0,1,8.83-1.82c1.25,2.28-7,6.82-8.27,4.54l-2.19.61"/><circle class="cls-1" cx="97.05" cy="47.41" r="5.25"/><path class="cls-7" d="M104.85,32.27c3.85-1.74,6.7.67,8.28,2.88,2.58,3.6.11,6.09,1.26,9.05a13.86,13.86,0,0,0,5.42,6.29s-8.67.16-14.83-5.66C101.32,41.38,99.36,34.76,104.85,32.27Z"/><path class="cls-1" d="M72.07,38.5c1.64,5.93,6.26,9.39,10.78,11.54a19.91,19.91,0,0,0,15,1.34c7.21-2,14.66-4.64,17.31-10.3,1.72-3.69-.43-9.32-1.73-14C110.14,15.15,98.89,8.78,87,12.07S68.78,26.59,72.07,38.5Z"/><path class="cls-8" d="M103.54,33.24a1.73,1.73,0,1,0,.39-3.18,1.77,1.77,0,0,0-1,.81"/><circle class="cls-9" cx="109.61" cy="29.88" r="1.02"/><circle class="cls-9" cx="91.41" cy="36.19" r="1.02"/><path class="cls-7" d="M113.14,26c1.35-.28-.44-4.46-3.53-7.87a25.14,25.14,0,0,0-11.38-7.07c-7.77-2.08-17.78.87-21.7,5.65s-8.08,10-5,22.9c1.59,6.72,10.54,11.82,16.82,12.74a31.3,31.3,0,0,1-7.27-15.12L81,35.91s3.27-1.49,5.12,2.64c-.49-2.12-1.72-9.69-1.72-9.69s1.31,3.31,3.16,2.87c1.53-.36,4.89-9.49,4.89-9.49s-.82,6.4.93,6.62c1.94.25,4.8-8,4.8-8s6.27,4.91,8,4.45c1.27-.34,0-5.3,0-5.3S111.8,26.05,113.14,26Z"/><path class="cls-1" d="M83.23,36.51a2.44,2.44,0,0,0-2.26-.6,3,3,0,0,0-1.67,3.8c.48,1.72,2,2.79,3.38,2.41a2.51,2.51,0,0,0,1.69-1.84"/><path class="cls-10" d="M96.78,42.2c6.11-1.18,12-4.65,15.75-7,1.06,4.3-1,8-5.13,9.84C103,47,96.78,47.18,96.78,42.2Z"/><path class="cls-11" d="M69.27,35.18c-3.66-7.23-1.55-18.76,8.9-24.8s24.42-4.46,30.42,5.35C93.5,17,82.62,25.05,69.27,35.18Z"/><path class="cls-11" d="M117.43,14.65c.88,1.7-1.41,4.89-4.62,8.09a47.5,47.5,0,0,0-3.67-5.1S96.06,20.44,89,24.07c-6,3.08-18,13.14-18,13.14a13.16,13.16,0,0,0,2.55,6.63C67.93,45.12,63.4,45,62.39,43c-2-3.93,8.66-13.46,23.86-21.28S115.41,10.72,117.43,14.65Z"/><path class="cls-7" d="M79.77,46.33c-3.88-1.67-6.68.79-8.22,3-2.51,3.64,0,6.09-1.09,9.07a13.89,13.89,0,0,1-5.3,6.39s8.67,0,14.72-5.93C83.47,55.37,85.31,48.71,79.77,46.33Z"/><path class="cls-5" d="M80.16,71a47.3,47.3,0,0,0,9.52-9"/><path class="cls-1" d="M15.62,74.06a3.54,3.54,0,0,1-1.41-6.79C23.07,63.41,30.8,54.59,30.88,54.5a3.54,3.54,0,0,1,5.34,4.64c-.36.41-8.87,10.13-19.18,14.62A3.59,3.59,0,0,1,15.62,74.06Z"/><path class="cls-1" d="M31.16,96.55A3.54,3.54,0,0,1,29,90.19a34.12,34.12,0,0,0,11.2-15.14A3.54,3.54,0,0,1,47,77.17,41.15,41.15,0,0,1,33.29,95.83,3.55,3.55,0,0,1,31.16,96.55Z"/><path class="cls-2" d="M33.88,85.65A10.74,10.74,0,0,0,39,90.56c-3.15,3.17-7.82,7.59-7.82,7.59l-4.7-5.29Z"/><path class="cls-3" d="M28,91.07s-.69,5,4.79,5.24c1,0,4.31.75,4.76,2.26s.65,1.61,0,2.69-1.93,2.68-3.76,2.68-9.37-4-9.37-8.69A14.68,14.68,0,0,1,28,91.07Z"/><path class="cls-12" d="M29,90.19s-.69,5,4.8,5.23c1,0,4-.51,4.75,2.26.43,1.52.66,1.61,0,2.69s-1.93,2.68-3.76,2.68-9.37-4-9.37-8.69A14.52,14.52,0,0,1,29,90.19Z"/><path class="cls-8" d="M35.15,95.63s-2.4.68-2.06,2.05"/><path class="cls-1" d="M56.29,75.66A3.53,3.53,0,0,1,53,73.43,34.08,34.08,0,0,0,40.4,57.7,3.54,3.54,0,1,1,44,51.6,41.21,41.21,0,0,1,59.58,70.8a3.54,3.54,0,0,1-2,4.6A3.41,3.41,0,0,1,56.29,75.66Z"/><path class="cls-1" d="M45.86,98.72a3.54,3.54,0,0,1-2.67-1.22c-5.44-6.27-9.7-14.73-11.37-18.3a3.54,3.54,0,0,1,1.73-6.63h.75a3.53,3.53,0,0,1,3.25,2.14c.05.11,4.79,11,11,18.15a3.54,3.54,0,0,1-2.67,5.86Z"/><path class="cls-5" d="M52.13,71.43A11.4,11.4,0,0,0,58.34,68c0-.56.93-2.32,0-4s-3.5-3.25-5.44-5.25c-3.34-3.44-6.84-7.37-11.68-9.85-5.13.15-8.07,5.88-3.08,8.34,4.18,2,8,8.16,11.11,12.44C50.47,71.43,51.78,70.63,52.13,71.43Z"/><path class="cls-13" d="M32.52,87.11s5.7-.89,9.59-3.51l1.32,2.06c3.49-3.79,6.57-7.74,7.73-11.6C52.4,69.91,30,68.32,25.44,72.57,26.73,79.42,32.52,87.11,32.52,87.11Z"/><polyline class="cls-8" points="42.11 83.6 43.18 82.94 40.51 77.91"/><path class="cls-5" d="M17.29,65.72l3.07,6.39a4.78,4.78,0,0,0,2.72-.39l1.51-1a25.31,25.31,0,0,0-1,4.79c1.36.21,2.78-1.48,4.6-1.48s1.75,1.85,2.86,2.4,2.13-1.54,3.77-1.37S36.75,77,38.62,77s1.81-1.83,4.29-2,4.33,2,6.49,2A5.07,5.07,0,0,0,53,75.09s-2.46-30.67-13.3-30.67c-4.19,0-6.29,3.76-8.59,7.06-1.62,2.33-3.34,5.33-5.36,7.11-2.66,2.33-5.59,3.23-7.12,4.54A6.37,6.37,0,0,0,17.29,65.72Z"/><path class="cls-2" d="M39,92s4.71.12,6.09-3.63c2,2.75,6.09,8.23,6.09,8.23L45.07,100Z"/><path class="cls-3" d="M43.18,98.05s5.28,1.53,6.15-3.69a18.52,18.52,0,0,1,4.48,4.83L45.87,104A14.13,14.13,0,0,1,43.18,98.05Z"/><path class="cls-3" d="M47.5,100.68A4.69,4.69,0,0,1,49.92,97c1.43-.79,5.61.36,5.61.36s.33.65.79,1.5c1.26,2.29-7,6.82-8.26,4.54l-2.19.61"/><path class="cls-14" d="M42.39,96.55s5.28,1.52,6.14-3.69A18.16,18.16,0,0,1,53,97.69l-7.94,4.82A14.05,14.05,0,0,1,42.39,96.55Z"/><path class="cls-14" d="M46.7,99.18a4.72,4.72,0,0,1,8.83-1.82c1.25,2.28-7,6.82-8.27,4.54l-2.19.61"/><circle class="cls-1" cx="41.47" cy="47.17" r="5.25"/><path class="cls-1" d="M16.49,38.26c1.64,5.93,6.26,9.39,10.78,11.54a19.91,19.91,0,0,0,15,1.34c7.21-2,14.66-4.64,17.31-10.3,1.72-3.69-.43-9.32-1.73-14-3.29-11.91-14.54-18.28-26.45-15S13.2,26.35,16.49,38.26Z"/><path class="cls-8" d="M48,33a1.77,1.77,0,0,0,1.32.16,1.73,1.73,0,1,0-2-2.53"/><circle class="cls-9" cx="54.03" cy="29.64" r="1.02"/><circle class="cls-9" cx="35.83" cy="35.95" r="1.02"/><path class="cls-15" d="M57.56,25.75c1.35-.27-.44-4.46-3.53-7.86a25.14,25.14,0,0,0-11.38-7.07c-7.77-2.08-17.78.87-21.7,5.65s-8.08,10-5,22.9c1.6,6.72,10.54,11.82,16.82,12.74A31.3,31.3,0,0,1,25.49,37l-.1-1.32s3.27-1.49,5.12,2.64c-.49-2.12-1.72-9.69-1.72-9.69S30.1,31.93,32,31.49c1.53-.36,4.9-9.49,4.9-9.49s-.83,6.4.92,6.62c1.94.25,4.8-8,4.8-8s6.27,4.91,8,4.45c1.27-.34,0-5.31,0-5.31S56.22,25.81,57.56,25.75Z"/><path class="cls-1" d="M27.66,36.27a2.45,2.45,0,0,0-2.27-.6c-1.39.38-2.14,2.09-1.67,3.8s2,2.79,3.38,2.41A2.51,2.51,0,0,0,28.79,40"/><path class="cls-10" d="M41.2,42c6.12-1.18,12-4.65,15.75-7,1.06,4.3-1,8-5.13,9.84C47.44,46.78,41.2,46.94,41.2,42Z"/><path class="cls-11" d="M13.69,34.94c-3.66-7.23-1.55-18.76,8.9-24.8S47,5.68,53,15.49C37.92,16.75,27,24.81,13.69,34.94Z"/><path class="cls-11" d="M61.86,14.41c.87,1.7-1.42,4.89-4.63,8.09a47.5,47.5,0,0,0-3.67-5.1s-13.08,2.8-20.12,6.43c-6,3.08-18,13.14-18,13.14A13.12,13.12,0,0,0,18,43.6c-5.65,1.28-10.18,1.11-11.19-.86-2-3.93,8.66-13.46,23.86-21.28S59.83,10.48,61.86,14.41Z"/><path class="cls-5" d="M24.59,70.75a47.79,47.79,0,0,0,9.51-9"/></svg>