<svg id="レイヤー_1" data-name="レイヤー 1" xmlns="http://www.w3.org/2000/svg" xmlns:xlink="http://www.w3.org/1999/xlink" viewBox="0 0 218 218"><defs><style>.cls-1,.cls-4{fill:none;}.cls-2{clip-path:url(#clip-path);}.cls-3{fill:#fff1e1;}.cls-4{stroke:#fff;stroke-width:4px;}.cls-10,.cls-12,.cls-13,.cls-14,.cls-4,.cls-5,.cls-6,.cls-7,.cls-8,.cls-9{stroke-linecap:round;stroke-linejoin:round;}.cls-5{fill:#ccc;}.cls-10,.cls-12,.cls-13,.cls-14,.cls-5,.cls-6,.cls-7,.cls-8,.cls-9{stroke:#42210b;stroke-width:2px;}.cls-6{fill:#9dcd82;}.cls-7{fill:#f5dcbe;}.cls-8{fill:#bdccd4;}.cls-9{fill:#2c3493;}.cls-10{fill:#fff;}.cls-11{fill:#42210b;}.cls-12{fill:#e60012;}.cls-13{fill:#736357;}.cls-14{fill:#fffef0;}</style><clipPath id="clip-path"><rect id="SVGID" class="cls-1" x="8.02" y="9.55" width="200" height="200" rx="10"/></clipPath></defs><title>3-2-2 ケンパー跳び</title><g class="cls-2"><ellipse class="cls-3" cx="105.03" cy="109" rx="173.57" ry="160.5"/><ellipse class="cls-4" cx="198.84" cy="111.11" rx="13.61" ry="10" transform="translate(-28.91 114.31) rotate(-30)"/><ellipse class="cls-4" cx="167.1" cy="127.14" rx="13.61" ry="10" transform="translate(-41.18 100.59) rotate(-30)"/><ellipse class="cls-4" cx="103.72" cy="162.69" rx="13.61" ry="10" transform="translate(-67.45 73.66) rotate(-30)"/><ellipse class="cls-4" cx="73.39" cy="179.45" rx="13.61" ry="10" transform="translate(-79.89 60.74) rotate(-30)"/><ellipse class="cls-4" cx="31.39" cy="178.45" rx="13.61" ry="10" transform="translate(-85.02 39.6) rotate(-30)"/><ellipse class="cls-4" cx="8.6" cy="213.77" rx="13.61" ry="10" transform="translate(-105.73 32.94) rotate(-30)"/><ellipse class="cls-4" cx="52.56" cy="216.58" rx="13.61" ry="10" transform="translate(-101.25 55.29) rotate(-30)"/><ellipse class="cls-4" cx="124.12" cy="124.74" rx="13.61" ry="10" transform="translate(-45.74 78.77) rotate(-30)"/><ellipse class="cls-4" cx="145.99" cy="164.84" rx="13.61" ry="10" transform="translate(-62.86 95.08) rotate(-30)"/><path class="cls-5" d="M100.07,157.7c-1.18.17-3.56-1.53-3.57-.35a7.52,7.52,0,0,0,3.29,6.5,9.21,9.21,0,0,0,8.3,0c2.43-1.37,1.65-3.75,2.32-4.59s2.58-1.27,4.37-3.82c1.2-1.73.23-4.3.23-4.3s-5.49-3.75-8-2.14-1.07,4.79-2.51,5.78S102.61,157.35,100.07,157.7Z"/><path class="cls-6" d="M99.45,155.8c-2.49.34-1.88,4.35-.28,6.14s5.86,1.37,8.3,0,1.66-3.75,2.32-4.59,2.71-1.17,4.37-3.82.74-4.42-1.42-6.09-3.84-2-6.3-.35-2.4,2.08-2.68,4.09C103.52,152.91,102,155.45,99.45,155.8Z"/><path class="cls-6" d="M99.17,161.94s-4.67-3.88-1.66-6.78,6.53,2.6,6.53,2.6"/><path class="cls-5" d="M107.08,138c-1,.5-3.57-.25-3.22.79a7,7,0,0,0,4.86,4.65,8.49,8.49,0,0,0,7.23-2.54c1.7-1.94.3-3.78.62-4.71s1.87-1.9,2.63-4.67c.53-1.88-1.11-3.82-1.11-3.82s-5.93-1.59-7.58.57.53,4.5-.42,5.81S109.19,136.9,107.08,138Z"/><path class="cls-6" d="M106,136.51c-2.07,1.06-.31,4.37,1.64,5.44s5.53-.61,7.23-2.55.29-3.77.61-4.71,2-1.85,2.64-4.67-.71-4.07-3.1-4.87-4-.54-5.6,1.62-1.46,2.55-1.08,4.39A5.14,5.14,0,0,1,106,136.51Z"/><path class="cls-6" d="M107.6,142s-5.27-1.95-3.53-5.4,6.49.26,6.49.26"/><path class="cls-7" d="M109.88,133.58a4.84,4.84,0,0,1-1.66-.29c-1.39-.5-13.71-5.13-18.12-14.16-5.43-11.11,11.09-21,14.45-22.93a4.93,4.93,0,1,1,4.82,8.61h0c-6.5,3.66-11,8.74-10.4,10,2.26,4.64,10,8.29,12.58,9.2a4.93,4.93,0,0,1-1.67,9.58Z"/><path class="cls-7" d="M109.7,154.05a8.11,8.11,0,0,1-3-.59c-2.42-1.27-1.11-4.34-.75-5.2,10.78-25.32,9.25-42.79,9.24-43a4.94,4.94,0,0,1,4.86-5h.08a4.93,4.93,0,0,1,4.93,4.86c0,1,2.15,19.35-11.8,45.92C112.37,152.69,111.48,154.05,109.7,154.05Z"/><path class="cls-8" d="M94.17,70.49c1.09,4.57,8.12,6.54,12.13,4.57l-3.36-9Z"/><path class="cls-7" d="M86.86,97.77a4.93,4.93,0,0,1-2.85-9c11.38-8.07,14.77-26.15,14.81-26.33a4.93,4.93,0,0,1,9.71,1.76c-.17.91-4.19,22.25-18.82,32.62A5,5,0,0,1,86.86,97.77Z"/><path class="cls-8" d="M97.05,93.24c-1.79,5.21,35.35,4.53,35.35,4.53L105.54,87.08A95.43,95.43,0,0,0,97.05,93.24Z"/><path class="cls-9" d="M95.09,97.8a44.51,44.51,0,0,1,8.4-7.38s31.11-14.34,28.78,2.19a183.25,183.25,0,0,1-4.69,21.12l-14.22-1.88c0-2.69-.5-4.51-1.65-4.9-2.06-.71-4.52,0-6.69,1.23Z"/><path class="cls-10" d="M97.05,93.24c6-6.85,25.66,10.48,35.35,4.53C136,78.1,130.76,50.89,108.61,48.7,109.24,75.52,103.21,86,97.05,93.24Z"/><path class="cls-10" d="M94.17,70.49c7-2.33,12.13,4.57,12.13,4.57l5.41-19.78S100.75,55.28,94.17,70.49Z"/><path class="cls-8" d="M129.53,68.3c5.76.82,10.28-4.94,8.22-9.87l-12.3-.36Z"/><path class="cls-7" d="M148.26,99.55A4.94,4.94,0,0,1,143.34,95C141.1,66.56,119.25,61.29,119,61.24a4.94,4.94,0,0,1,2.18-9.63c.29.07,29.16,7,32,42.62a4.92,4.92,0,0,1-4.53,5.3Z"/><path class="cls-10" d="M123.77,64.46a13.88,13.88,0,0,1,5.76,3.84c-1.37-4.25,2.87-10.83,8.22-9.87-7.26-7.68-22.51-8.17-22.51-8.17l-1,12.33"/><path class="cls-7" d="M136,31c5,14-3.21,27-17.19,31.92-7.34,2.6-15.21,3.79-21,.76-5.24-2.74-8.65-9.22-11-15.86-5-14,.93-28.22,14.91-33.17A26.86,26.86,0,0,1,136,31Z"/><path class="cls-7" d="M100.5,57.41a2.4,2.4,0,1,1-1-2.68"/><circle class="cls-11" cx="113.36" cy="50.7" r="1.44"/><ellipse class="cls-11" cx="92.29" cy="53.58" rx="1.24" ry="1.44" transform="translate(-11.05 26.96) rotate(-15.69)"/><path class="cls-12" d="M102.76,60.7c1.82,0,3.84-.25,7.49-2.1,0,2.1.82,4.3-1.46,5S104.22,62.65,102.76,60.7Z"/><path class="cls-13" d="M136,31a26.86,26.86,0,0,0-34.29-16.35c-14,4.95-19.86,19.18-14.91,33.17.29.81.59,1.61.91,2.41-.07-2.9,0-7.67,1.15-10.74,5.18,4.57,12.22,5.9,18.61,6.68-2.29-1.19-4.75-3.57-8-6.88,8.86,4.32,15.81,6.33,26.68,8.06a16.25,16.25,0,0,1-3-6.12s4.11.79,5.75,3.36a15.88,15.88,0,0,1,2.34,10.21A23,23,0,0,0,136,31Z"/><path class="cls-7" d="M124.12,43.62a3.43,3.43,0,0,1,1.41-2.86c1.69-1.14,4.22-.34,5.65,1.78s1.23,4.77-.46,5.91a3.33,3.33,0,0,1-2.91.33"/><path class="cls-14" d="M121,154.58c2.71-6,9.33-8.56,9.33-8.56s-3.87-5.89,0-7.51,6.63.8,7.25,5c1.88-3.65,7.59-2.76,8.25,0s-1.08,5.05-4.16,5.05c2.16,2,1.58,4.8-1,6a6.7,6.7,0,0,1-8.28-2.84C129.72,150.61,125.41,150.61,121,154.58Z"/></g></svg>