<svg id="レイヤー_1" data-name="レイヤー 1" xmlns="http://www.w3.org/2000/svg" xmlns:xlink="http://www.w3.org/1999/xlink" viewBox="0 0 218 218"><defs><style>.cls-1,.cls-9{fill:none;}.cls-2{clip-path:url(#clip-path);}.cls-3{clip-path:url(#clip-path-2);}.cls-4{fill:#9b7656;}.cls-5{clip-path:url(#clip-path-3);}.cls-12,.cls-6{fill:#f5dcbe;}.cls-13,.cls-6,.cls-7,.cls-8,.cls-9{stroke:#42210b;}.cls-11,.cls-12,.cls-13,.cls-14,.cls-16,.cls-6,.cls-7,.cls-8,.cls-9{stroke-linecap:round;stroke-linejoin:round;}.cls-11,.cls-12,.cls-13,.cls-14,.cls-16,.cls-17,.cls-6,.cls-7,.cls-8,.cls-9{stroke-width:2px;}.cls-7{fill:#ccc;}.cls-8{fill:#fff;}.cls-10{clip-path:url(#clip-path-4);}.cls-11{fill:#998675;}.cls-11,.cls-12,.cls-14,.cls-16,.cls-17{stroke:#40220f;}.cls-13{fill:#2c3493;}.cls-14{fill:#e60012;}.cls-15{fill:#40220f;}.cls-16{fill:#6a3906;}.cls-17{fill:#ed811b;stroke-miterlimit:10;}</style><clipPath id="clip-path"><rect id="SVGID" class="cls-1" x="-231" y="-230" width="200" height="200" rx="10"/></clipPath><clipPath id="clip-path-2"><rect id="SVGID-2" data-name="SVGID" class="cls-1" x="-532.76" y="-298" width="568.77" height="326.6"/></clipPath><clipPath id="clip-path-3"><rect id="SVGID-3" data-name="SVGID" class="cls-1" x="9" y="-230" width="200" height="200" rx="10"/></clipPath><clipPath id="clip-path-4"><rect id="SVGID-4" data-name="SVGID" class="cls-1" x="11.39" y="9" width="200" height="200" rx="10"/></clipPath></defs><title>2-1-3 登り棒を使う</title><g class="cls-2"><g class="cls-3"><path class="cls-4" d="M-81.39-86l-.5-1.12-1.65.75L-276-119.27l-.27,0-380.4,66-2.12.37,163.31,347.28.85,1.81L2.12-71.68ZM-198-102.61l47,8-455,145.94L-627.59,5.62l429.64-107.83ZM-629,2.6-642.95-27-241.2-110l36.14,6.18Zm484.92-96,55.2,9.44L-568,132.28l-36.64-77.92ZM-276.25-116l26.18,4.48L-644.39-30.1-654-50.46ZM-566.63,135.25-83.1-82.94-6-69.74-493.34,291.11Z"/></g></g><g class="cls-5"><path class="cls-6" d="M91.26,3.58a7,7,0,0,1-5.34-2.46,7,7,0,0,1,.77-9.9C103.32-23,103.9-57.26,103.9-57.6a7,7,0,0,1,7.1-6.95,7,7,0,0,1,7,7.09c0,1.66-.63,41-22.13,59.36A7,7,0,0,1,91.26,3.58Z"/><path class="cls-7" d="M92.86,5.55a17.16,17.16,0,0,1,3-4.84c-5-1.56-9.41-4.68-9.22-9.6,0,0-2.78,1.7-4.48,2.45-3.36,1.47-4,8.23.07,11.13-2.53,4.09,0,11.12,3.49,12.91a7,7,0,0,0,7.12-12Z"/><path class="cls-8" d="M95.14,4.84a17.38,17.38,0,0,1,3-4.85c-5-1.55-9.43-5.71-9.24-10.63L84.45-7.16c-2.88,2.26-4,8.23.07,11.13C82,8.06,84.58,15.09,88,16.89a7,7,0,0,0,7.12-12Z"/><path class="cls-9" d="M95.14,4.84s-3-2.52-6-.4"/><path class="cls-7" d="M93.19-12.8a17.25,17.25,0,0,1,.92-5.63c-5.21.48-10.48-.7-12.19-5.32a49.59,49.59,0,0,1-3.21,4c-2.53,2.65-.49,9.12,4.35,10.25C82.29-4.77,87.38.73,91.25,1.06a7,7,0,0,0,7.6-6.39A7,7,0,0,0,93.19-12.8Z"/><path class="cls-8" d="M95-14.33A17.64,17.64,0,0,1,95.93-20c-5.21.49-10.9-1.65-12.62-6.26,0,0-1,1.74-2.77,4.93S80-12.18,84.88-11C84.12-6.3,89.21-.81,93.07-.47a7,7,0,0,0,7.61-6.4A7,7,0,0,0,95-14.33Z"/></g><g class="cls-10"><path class="cls-11" d="M100.21,152.28c-2.5,4.75-16.66-1.5-17.66-7.41-.59-4.34,2-4.73,5-5.34C93.38,138.37,102.72,147.53,100.21,152.28Z"/><path class="cls-12" d="M99.63,187.7a5,5,0,0,1-3.94-8.08,26.3,26.3,0,0,0,3.25-5.41c-1.06-.47-2.53-1-3.71-1.5-6.72-2.6-16.86-6.53-21.4-15a9.2,9.2,0,0,1-.2-8.85c4-7.6,19.18-9.94,23.75-10.48a5,5,0,0,1,5.55,4.38c.32,2.75-1.23,6.85-4,7.17h0c-6.75.8-14.48,1.46-16.22,3.24,2.88,5.07,10.51,8,16.1,10.19,4.89,1.9,8.13,3.15,9.6,6.08,2.68,5.36-1.9,12.53-4.87,16.32A5,5,0,0,1,99.63,187.7Z"/><path class="cls-12" d="M122.46,101a5,5,0,0,1-4.22-2.32c-.67-1.06-16.6-26.59-19-69.73a5,5,0,0,1,10-.56c2.22,40.36,17.29,64.7,17.44,64.94a5,5,0,0,1-1.56,6.89A4.93,4.93,0,0,1,122.46,101Z"/><path class="cls-8" d="M137.8,85.62c-2.94-.77-6.43,1.14-10.14,4.62A47.68,47.68,0,0,1,122,75.59c-5.82,1.57-10.29,3.72-14.09,7.7,1.72,5.73,4.16,12.23,6.4,15.75a10.07,10.07,0,0,0,3.34,3.17c-8.25,11.62-16.08,26.07-20,32.24-7.25,11.52,8.17,9.92,8.17,9.92s20.5,19.33,26.33,4.41S149.63,88.7,137.8,85.62Z"/><path class="cls-12" d="M170.57,72.24a3.25,3.25,0,0,1,2.55-1.38c2,0,3.61,2.12,3.61,4.73s-1.62,4.72-3.61,4.72a3.49,3.49,0,0,1-3-2.12"/><path class="cls-13" d="M115.8,137.7a69.33,69.33,0,0,1,12.08,11.08c1.16,1.35,2.92.92,4.33,0-1.08,3.75-4.91,8.34-11.91,8.67s-13-1.92-20.09-5.17c.84-7.83-3.58-13.25-12.66-12.75,5.5-2.25,8.25-3.2,10.16-5.08,2.58,3.5,7.84,6.08,7.84,6.08Z"/><path class="cls-12" d="M173.22,70.75c0,8.14-1.28,16.88-6.17,21.57-5.37,5.16-14.74,5.88-23.67,5.88-17.07,0-32-10.37-32-27.45a30.92,30.92,0,1,1,61.83,0Z"/><path class="cls-12" d="M156.39,78.92a2.88,2.88,0,1,1-.37,3.61"/><path class="cls-14" d="M158.66,89.57c-3.56,0-6.24,1.5-7.11,3.25s3.55,0,3.55,0S154.3,90.45,158.66,89.57Z"/><circle class="cls-15" cx="141.17" cy="80.2" r="1.44"/><circle class="cls-15" cx="168.67" cy="76.64" r="1.44"/><path class="cls-16" d="M142.31,38.46a32.37,32.37,0,0,0-32.37,32.37c0,12.65,7.83,21.79,18.74,26.05-1.46-4.38-4.34-15-2.13-25.31,1.44,5.07,2.87,10.07,2.87,10.07a23.26,23.26,0,0,1,3.63-9.94c16.23,1.59,26.65.86,41.43-4.38A32.37,32.37,0,0,0,142.31,38.46Z"/><line class="cls-17" x1="102.63" y1="-18.97" x2="106.3" y2="267.37"/><path class="cls-17" d="M106.3,272.37a5,5,0,0,1-5-4.94L97.63-18.9A5,5,0,0,1,102.57-24h.06a5,5,0,0,1,5,4.94L111.3,267.3a5,5,0,0,1-4.94,5.07Z"/><path class="cls-12" d="M127,77.61a3.22,3.22,0,0,0-2.55-1.39c-2,0-3.61,2.12-3.61,4.73s1.62,4.73,3.61,4.73a3.5,3.5,0,0,0,3-2.13"/><path class="cls-12" d="M105.63,189.64h0a5,5,0,0,1-5-5c0-.18,0-4.25.9-12.57A69,69,0,0,1,97.94,154c-1-13.19,1.55-15.37,2.77-16.42,2.29-2,10.62-2.21,17.29,4,2,1.87,1.29,6.22-.81,8s-7.31,3.41-8.68.09h0c-.25-.29-.52-.58-.8-.87,0,5.74,1.07,14.93,3.52,20.64a4.94,4.94,0,0,1,.37,2.52c-.95,8.53-1,12.69-1,12.73A5,5,0,0,1,105.63,189.64Z"/><path class="cls-12" d="M139.29,110.37a5,5,0,0,1-3.14-1.12c-1.2-1-29.37-24-35.37-48.35a5,5,0,0,1,9.71-2.4c5.2,21.13,31.69,42.76,32,43a5,5,0,0,1-3.15,8.89Z"/><path class="cls-8" d="M145.38,110.37c2.33-3.42,2.51-9.11-2-12.17A47.69,47.69,0,0,1,131.55,87c-4.61,3.89-7.75,7.74-9.5,13,4,4.46,9,9.31,12.47,11.55C137.7,113.47,143.05,113.78,145.38,110.37Z"/></g></svg>