<svg id="レイヤー_1" data-name="レイヤー 1" xmlns="http://www.w3.org/2000/svg" xmlns:xlink="http://www.w3.org/1999/xlink" viewBox="0 0 218 218"><defs><style>.cls-1,.cls-17,.cls-18,.cls-7{fill:none;}.cls-2{clip-path:url(#clip-path);}.cls-3{fill:#00a0e9;}.cls-18,.cls-3,.cls-6,.cls-8,.cls-9{stroke:#42210b;}.cls-10,.cls-11,.cls-12,.cls-13,.cls-15,.cls-16,.cls-17,.cls-18,.cls-3,.cls-5,.cls-6,.cls-7,.cls-8,.cls-9{stroke-linecap:round;stroke-linejoin:round;}.cls-10,.cls-11,.cls-12,.cls-13,.cls-15,.cls-16,.cls-18,.cls-3,.cls-5,.cls-6,.cls-7,.cls-8,.cls-9{stroke-width:2px;}.cls-4{clip-path:url(#clip-path-2);}.cls-5{fill:#f5dcbe;}.cls-10,.cls-15,.cls-16,.cls-5{stroke:#40220f;}.cls-6{fill:#2c3493;}.cls-11,.cls-12,.cls-13,.cls-7{stroke:#40210d;}.cls-12,.cls-16,.cls-8{fill:#fff;}.cls-9{fill:#999;}.cls-10{fill:#998675;}.cls-11{fill:#f1d8bc;}.cls-13{fill:#40210d;}.cls-14{fill:#40220f;}.cls-15{fill:#333;}.cls-17{stroke:#fff;stroke-width:5px;}.cls-19{clip-path:url(#clip-path-3);}.cls-20{fill:#fff1e1;}</style><clipPath id="clip-path"><rect id="SVGID" class="cls-1" x="9" y="-241.49" width="200" height="200" rx="10"/></clipPath><clipPath id="clip-path-2"><rect id="SVGID-2" data-name="SVGID" class="cls-1" x="9" y="9" width="200" height="200" rx="10"/></clipPath><clipPath id="clip-path-3"><rect id="SVGID-3" data-name="SVGID" class="cls-1" x="-229.98" y="9.55" width="200" height="200" rx="10"/></clipPath></defs><title>2-3-4 まわる</title><g class="cls-2"><path class="cls-3" d="M166.24,65.85a5.49,5.49,0,0,1-5.5-5.49L160.6-168a5.5,5.5,0,0,1,5.49-5.5h0a5.5,5.5,0,0,1,5.5,5.5l.14,228.33a5.5,5.5,0,0,1-5.5,5.5Z"/></g><g class="cls-4"><path class="cls-5" d="M86.9,123.53a4.58,4.58,0,0,1-1.16-9c12.89-3.38,30.05-16.18,30.22-16.31a4.58,4.58,0,1,1,5.49,7.32c-.76.57-18.75,14-33.39,17.84A4.62,4.62,0,0,1,86.9,123.53Z"/><path class="cls-6" d="M132.1,145.76c0,4.05-4,12.76-12.91,14.06s-14.78-1.87-20.33-5.13c-8-4.67-11.89-11-16.53-21.1a5,5,0,0,1,1.42-6.24c1.5-1,3.64-2.44,6.13-2.21a48.91,48.91,0,0,0,16.9-1.61S132.1,141.71,132.1,145.76Z"/><path class="cls-7" d="M112.91,134.81s-10.36-2.91-14.17-1.3-4.43,5.84-2.94,10.08c1.26,3.57,6.09,8,6.09,8"/><path class="cls-8" d="M108.65,100.36a29.07,29.07,0,0,0,9.63,10.06c6.83.61,22.9-9.76,15.48-13.11S115.4,97.34,108.65,100.36Z"/><path class="cls-8" d="M102.81,123.53a50,50,0,0,0,28.4,26.28c7.39-3.64,17.94-29.43,17.69-46.63-.09-5.51-5.32-10.15-6.87-12.89C135.67,79,118.71,120.8,102.81,123.53Z"/><path class="cls-5" d="M135.18,153.72a4.57,4.57,0,0,1-3.08-8C143.9,135,144.32,111.21,144.32,111a4.58,4.58,0,0,1,9.15.1c0,1.14-.5,28.07-15.22,41.45A4.6,4.6,0,0,1,135.18,153.72Z"/><path class="cls-9" d="M210.63,199.51a3.61,3.61,0,0,1-1.89-.53L-.87,70.24a3.62,3.62,0,1,1,3.79-6.18L212.53,192.8a3.62,3.62,0,0,1-1.9,6.71Z"/><path class="cls-8" d="M142,106.45a39.36,39.36,0,0,1-2.59,9.76c3.8,5.06,12.2,5.24,15.86,3.84.73-9,.52-16.87-4.58-26.1"/><path class="cls-5" d="M140.57,152.83c-1.76,3.08-4.81,1.76-7.9,0s-5-3.29-3.27-6.37a6.43,6.43,0,1,1,11.17,6.37Z"/><path class="cls-5" d="M87.82,121.68c-1.76,3.09-4.81,1.76-7.89,0s-5-3.28-3.28-6.37a6.43,6.43,0,1,1,11.17,6.37Z"/><path class="cls-10" d="M97.33,135.63c-1.91,2.82-8.16,6.06-12.51,3.11a7.34,7.34,0,0,1-2.26-10.43c1.91-2.82,8.89-3.91,13.24-1S99.24,132.82,97.33,135.63Z"/><path class="cls-10" d="M109.56,145c-1.91,2.82-7.85,2.95-12.2,0s-1.94-6.55,0-9.37,6.54-3.52,10.89-.57S111.47,142.19,109.56,145Z"/><path class="cls-11" d="M97.48,134.63a4.8,4.8,0,0,0,.25-6.76,4.85,4.85,0,0,0-6.77-.25c-5.77,5-7.11,10.25-10.15,17.42a33.78,33.78,0,0,0,9.11,3.09C92.56,142.08,91.42,140.26,97.48,134.63Z"/><path class="cls-12" d="M80,166.05l.27,0a4.78,4.78,0,0,0,5.22-4,67.57,67.57,0,0,1,4.42-14A33.78,33.78,0,0,1,80.81,145a73.3,73.3,0,0,0-4.75,15.53A4.79,4.79,0,0,0,80,166.05Z"/><path class="cls-13" d="M86.35,158c1.66,3.83,1.73,7.37.31,8.26a26.24,26.24,0,0,1-5.21,1.8s-.61,4.36-6.15,3.78c-2.45-.26-6.65-.83-8.73-2.55-2.64-2.18-1.7-6.82,2-7.09,5.74-.42,7.21-2.11,7.21-2.11S81.49,165.93,86.35,158Z"/><path class="cls-11" d="M105.4,139.51a4.78,4.78,0,1,0-6.51-7c-4.88,4.55-7.12,10.25-10.15,17.42a33.57,33.57,0,0,0,9.1,3.09C100.48,147,101.43,143.15,105.4,139.51Z"/><path class="cls-12" d="M87.93,170.92l.27,0a4.78,4.78,0,0,0,5.22-4,67.57,67.57,0,0,1,4.42-14,33.57,33.57,0,0,1-9.1-3.09A73,73,0,0,0,84,165.45,4.77,4.77,0,0,0,87.93,170.92Z"/><path class="cls-13" d="M94.27,162.91c1.67,3.83,1.73,7.37.31,8.25A25.8,25.8,0,0,1,89.37,173s-.61,4.36-6.15,3.78c-2.45-.26-6.65-.83-8.73-2.55-2.64-2.18-1.7-6.82,2-7.09,5.74-.42,7.21-2.11,7.21-2.11S89.41,170.81,94.27,162.91Z"/><path class="cls-5" d="M177.47,76.38c-4.42,19.94-23.48,29.41-43.42,25-7.4-1.64-15.54-4.47-19.91-8.88-7.42-7.48-8.07-18.77-5.29-31.31,4.41-19.94,20.56-33.33,40.51-28.91A37,37,0,0,1,177.47,76.38Z"/><path class="cls-5" d="M125.05,92.55a3.2,3.2,0,1,1,.68-4.4"/><circle class="cls-14" cx="143.77" cy="93.2" r="1.34"/><circle class="cls-14" cx="116.01" cy="83.26" r="1.34"/><path class="cls-15" d="M162,76.92c-2.6,7.86-5.4,20.5-5.4,20.5l-3.06-14.63-4.91,6.32-8.36-7.36,16.88-10.9S179.34,59,178.32,69.78,174.11,93,162.09,97.72C163.51,90,165.3,83.78,162,76.92Z"/><path class="cls-5" d="M161.94,82.24a3.46,3.46,0,0,1,3.15-1c2,.45,3.2,2.94,2.62,5.57s-2.7,4.4-4.73,4a3.38,3.38,0,0,1-2.25-1.89"/><path class="cls-16" d="M165.2,78.81c-11.42,7.3-24.14,8.25-37.47,6.86S96.1,73.64,93,65.22s9.12-9.86,15.09-8.54C114.14,66.83,152.66,73.75,165.2,78.81Z"/><path class="cls-16" d="M178.32,69.78c-7.83,8.5-15.43,11-26.61,10.88s-36.22-9.82-45-18.36c3.55-19.92,18.51-33.31,35.74-32.42,8.41.43,20.13,4.75,27.35,11.91A31.09,31.09,0,0,1,178.32,69.78Z"/><path class="cls-17" d="M80.06,48.09s-48,12-43,76"/><path class="cls-18" d="M80.06,48.09s-48,12-43,76"/><path class="cls-17" d="M48.06,123.5s-7-49.41,32-64.41"/><path class="cls-18" d="M48.06,123.5s-7-49.41,32-64.41"/></g><g class="cls-19"><ellipse class="cls-20" cx="-132.97" cy="109" rx="173.57" ry="160.5"/></g></svg>