<svg id="レイヤー_1" data-name="レイヤー 1" xmlns="http://www.w3.org/2000/svg" xmlns:xlink="http://www.w3.org/1999/xlink" viewBox="0 0 218 218"><defs><style>.cls-1,.cls-4{fill:none;}.cls-2{clip-path:url(#clip-path);}.cls-3{fill:#f7f7f7;}.cls-14,.cls-15,.cls-3,.cls-4{stroke:#40210d;}.cls-14,.cls-15,.cls-16,.cls-17,.cls-3,.cls-4{stroke-linecap:round;stroke-linejoin:round;}.cls-5{fill:#94c035;}.cls-6{fill:#ed801b;}.cls-14,.cls-7{fill:#40210d;}.cls-8{fill:#f29600;}.cls-9{fill:#ffe700;}.cls-10{fill:#0068b1;}.cls-11{fill:#e50012;}.cls-12{fill:#591a85;}.cls-13{fill:#009844;}.cls-14,.cls-15,.cls-16,.cls-17{stroke-width:2px;}.cls-15{fill:#f1d8bc;}.cls-16{fill:#2c3493;stroke:#42210b;}.cls-17{fill:#fff;stroke:#40210f;}</style><clipPath id="clip-path"><rect id="SVGID" class="cls-1" x="9" y="9" width="200" height="200" rx="10"/></clipPath></defs><title>25-6-1 クライミング</title><g class="cls-2"><rect class="cls-3" x="-7.07" y="-31.43" width="363.53" height="242.35" transform="translate(349.38 179.5) rotate(-180)"/><polygon class="cls-4" points="-7.07 210.92 355.02 210.92 374.04 265.65 -25.86 265.65 -7.07 210.92"/><polygon class="cls-5" points="173.71 265.65 72.71 265.65 82.18 210.92 173.71 210.92 173.71 265.05 173.71 265.65"/><polygon class="cls-6" points="-25.86 265.65 -7.07 210.92 82.18 210.92 72.71 265.65 -25.86 265.65"/><polygon class="cls-6" points="173.71 265.65 173.71 265.05 173.71 210.92 263.94 210.92 273.46 265.65 173.71 265.65"/><polygon class="cls-4" points="-25.86 265.65 -7.07 210.92 355.02 210.92 374.04 265.65 374.04 289.1 -26.62 289.1 -26.62 265.65 -25.86 265.65"/><circle class="cls-7" cx="215.73" cy="3.75" r="3.91"/><circle class="cls-7" cx="190.33" cy="38.93" r="3.91"/><circle class="cls-7" cx="219.64" cy="81.93" r="3.91"/><circle class="cls-7" cx="209.87" cy="31.11" r="3.91"/><circle class="cls-7" cx="192.28" cy="68.25" r="3.91"/><circle class="cls-7" cx="194.23" cy="105.38" r="3.91"/><circle class="cls-7" cx="188.37" cy="126.88" r="3.91"/><circle class="cls-7" cx="217.69" cy="169.88" r="3.91"/><circle class="cls-7" cx="219.64" cy="117.11" r="3.91"/><circle class="cls-7" cx="190.33" cy="156.2" r="3.91"/><circle class="cls-7" cx="192.28" cy="193.33" r="3.91"/><circle class="cls-7" cx="123.87" cy="3.75" r="3.91"/><circle class="cls-7" cx="143.42" cy="15.48" r="3.91"/><circle class="cls-7" cx="98.47" cy="38.93" r="3.91"/><circle class="cls-7" cx="153.19" cy="42.84" r="3.91"/><circle class="cls-7" cx="127.78" cy="81.93" r="3.91"/><circle class="cls-7" cx="118.01" cy="31.11" r="3.91"/><circle class="cls-7" cx="100.42" cy="68.25" r="3.91"/><circle class="cls-7" cx="155.15" cy="89.75" r="3.91"/><circle class="cls-7" cx="102.38" cy="105.38" r="3.91"/><circle class="cls-7" cx="96.51" cy="126.88" r="3.91"/><circle class="cls-7" cx="151.24" cy="130.79" r="3.91"/><circle class="cls-7" cx="125.83" cy="169.88" r="3.91"/><circle class="cls-7" cx="127.78" cy="117.11" r="3.91"/><circle class="cls-7" cx="98.47" cy="156.2" r="3.91"/><circle class="cls-7" cx="153.19" cy="177.7" r="3.91"/><circle class="cls-7" cx="100.42" cy="193.33" r="3.91"/><circle class="cls-7" cx="33.97" cy="3.75" r="3.91"/><circle class="cls-7" cx="53.51" cy="15.48" r="3.91"/><circle class="cls-7" cx="8.56" cy="38.93" r="3.91"/><circle class="cls-7" cx="63.29" cy="42.84" r="3.91"/><circle class="cls-7" cx="37.88" cy="81.93" r="3.91"/><circle class="cls-7" cx="28.11" cy="31.11" r="3.91"/><circle class="cls-7" cx="10.52" cy="68.25" r="3.91"/><circle class="cls-7" cx="65.24" cy="89.75" r="3.91"/><circle class="cls-7" cx="12.47" cy="105.38" r="3.91"/><circle class="cls-7" cx="6.61" cy="126.88" r="3.91"/><circle class="cls-7" cx="61.33" cy="130.79" r="3.91"/><circle class="cls-7" cx="35.92" cy="169.88" r="3.91"/><circle class="cls-7" cx="37.88" cy="117.11" r="3.91"/><circle class="cls-7" cx="8.56" cy="156.2" r="3.91"/><circle class="cls-7" cx="63.29" cy="177.7" r="3.91"/><circle class="cls-7" cx="10.52" cy="193.33" r="3.91"/><path class="cls-8" d="M198.14,68.25c2,3.91,3.91,7.82,2,9.77-1,1-4.89-2.93-7.82-3.91s-4.89,1-5.86,0c-2-2,0-7.82-2-9.77S196.19,64.34,198.14,68.25Z"/><path class="cls-8" d="M202.05,193.33c2,3.91,3.91,7.82,2,9.78-1,1-4.89-2.94-7.82-3.91s-4.89,1-5.86,0c-2-2,0-7.82-2-9.78S200.1,189.42,202.05,193.33Z"/><path class="cls-8" d="M157.1,130.79c2,3.91,3.91,7.82,2,9.77-1,1-4.88-2.93-7.81-3.91s-4.89,1-5.87,0c-2-2,0-7.81-2-9.77S155.15,126.88,157.1,130.79Z"/><path class="cls-8" d="M14.43,126.88c1.95,3.91,3.9,7.82,1.95,9.77-1,1-4.89-2.93-7.82-3.9s-4.88,1-5.86,0c-2-2,0-7.82-2-9.78S12.47,123,14.43,126.88Z"/><path class="cls-8" d="M106.28,38.93c2,3.91,3.91,7.82,2,9.77-1,1-4.89-2.93-7.82-3.9s-4.88,1-5.86,0c-2-2,0-7.82-2-9.78S104.33,35,106.28,38.93Z"/><path class="cls-8" d="M69.15,87.79c1.95,3.91,3.91,7.82,1.95,9.78-1,1-4.88-2.94-7.81-3.91s-4.89,1-5.87,0c-2-2,0-7.82-2-9.78S67.2,83.88,69.15,87.79Z"/><path class="cls-9" d="M137.56,78s0,5.86-2,7.82-9.77,3.91-11.73,2,2-11.72,2-11.72A42,42,0,0,0,137.56,78Z"/><path class="cls-9" d="M104.33,148.38s0,5.86-2,7.82-9.78,3.91-11.73,2,1.95-11.72,1.95-11.72A42,42,0,0,0,104.33,148.38Z"/><path class="cls-9" d="M71.1,126.88s0,5.87-1.95,7.82-9.77,3.91-11.73,2,2-11.72,2-11.72A41.91,41.91,0,0,0,71.1,126.88Z"/><path class="cls-9" d="M18.33,62.39s0,5.86-1.95,7.81-9.77,3.91-11.73,2,2-11.73,2-11.73A41.71,41.71,0,0,0,18.33,62.39Z"/><path class="cls-9" d="M61.33,13.52s0,5.87-1.95,7.82-9.77,3.91-11.73,2,2-11.73,2-11.73A41.91,41.91,0,0,0,61.33,13.52Z"/><path class="cls-10" d="M65.45,172.32c1.81,2.93,3.61,8.79,1.81,8.79-1.16,0-5.49-1-6.85,2.07-.38.85-2.18-2.07-2.18-2.07a5.88,5.88,0,0,1,0-5.86C61.84,172.32,63.65,169.39,65.45,172.32Z"/><path class="cls-10" d="M16.59,100c1.81,2.93,3.61,8.78,1.81,8.78-1.17,0-5.49-1-6.85,2.08-.38.85-2.18-2.08-2.18-2.08a5.86,5.86,0,0,1,0-5.85C13,100,14.78,97.08,16.59,100Z"/><path class="cls-10" d="M10.73,37.47c1.8,2.92,3.61,8.78,1.8,8.78-1.16,0-5.48-1-6.85,2.08-.37.85-2.18-2.08-2.18-2.08a5.91,5.91,0,0,1,0-5.86C7.11,37.47,8.92,34.54,10.73,37.47Z"/><path class="cls-10" d="M126-1.62c1.81,2.93,3.61,8.78,1.81,8.78-1.17,0-5.49-1-6.85,2.08-.38.85-2.19-2.08-2.19-2.08a5.89,5.89,0,0,1,0-5.85C122.43-1.62,124.23-4.55,126-1.62Z"/><path class="cls-10" d="M219.85,166.46c1.81,2.93,3.61,8.78,1.81,8.78-1.16,0-5.49-1-6.85,2.08-.38.85-2.18-2.08-2.18-2.08a5.86,5.86,0,0,1,0-5.85C216.24,166.46,218.05,163.53,219.85,166.46Z"/><path class="cls-10" d="M155.36,39.42c1.8,2.93,3.61,8.78,1.8,8.78-1.16,0-5.48-1-6.85,2.08-.37.85-2.18-2.08-2.18-2.08a5.86,5.86,0,0,1,0-5.85C151.74,39.42,153.55,36.49,155.36,39.42Z"/><path class="cls-10" d="M157.31,86.33c1.81,2.93,3.61,8.78,1.81,8.78-1.17,0-5.49-1-6.85,2.08-.38.85-2.18-2.08-2.18-2.08a5.86,5.86,0,0,1,0-5.85C153.7,86.33,155.5,83.4,157.31,86.33Z"/><path class="cls-10" d="M128,166.46c1.81,2.93,3.62,8.78,1.81,8.78-1.16,0-5.48-1-6.85,2.08-.38.85-2.18-2.08-2.18-2.08a5.86,5.86,0,0,1,0-5.85C124.38,166.46,126.19,163.53,128,166.46Z"/><path class="cls-10" d="M198.35,102c1.81,2.93,3.62,8.79,1.81,8.79-1.16,0-5.48-1-6.85,2.07-.38.85-2.18-2.07-2.18-2.07a5.88,5.88,0,0,1,0-5.86C194.74,102,196.55,99,198.35,102Z"/><path class="cls-10" d="M217.9.33c1.8,2.93,3.61,8.79,1.8,8.79-1.16,0-5.48-1-6.84,2.07-.38.85-2.19-2.07-2.19-2.07a5.91,5.91,0,0,1,0-5.86C214.29.33,216.09-2.6,217.9.33Z"/><path class="cls-11" d="M180.55,128.84c0,2.7,2,3.91,6.84,3.91s8.8-3.17,8.8-5.87-4.92-5.86-9.77-5.86S180.55,126.14,180.55,128.84Z"/><path class="cls-11" d="M92.6,70.2c0,2.7,2,3.91,6.84,3.91s8.8-3.16,8.8-5.86-4.92-5.86-9.77-5.86S92.6,67.5,92.6,70.2Z"/><path class="cls-11" d="M120,119.06c0,2.7,2,3.91,6.84,3.91s8.79-3.16,8.79-5.86-4.91-5.86-9.77-5.86S120,116.37,120,119.06Z"/><path class="cls-11" d="M30.06,119.06c0,2.7,2,3.91,6.84,3.91s8.8-3.16,8.8-5.86-4.92-5.86-9.78-5.86S30.06,116.37,30.06,119.06Z"/><path class="cls-12" d="M233.32,78l-35.18-3.91s19.55,13.68,27.37,11.73S233.32,78,233.32,78Z"/><path class="cls-12" d="M252.87,126.88,217.69,123s19.54,13.68,27.36,11.73S252.87,126.88,252.87,126.88Z"/><path class="cls-12" d="M116.06,101.47l-35.18-3.9s19.54,13.68,27.36,11.72S116.06,101.47,116.06,101.47Z"/><path class="cls-12" d="M157.1,13.52l-35.18-3.9s19.54,13.68,27.36,11.72S157.1,13.52,157.1,13.52Z"/><path class="cls-12" d="M51.56,80,16.38,76.07S35.92,89.75,43.74,87.79,51.56,80,51.56,80Z"/><path class="cls-12" d="M49.61,167.93,14.43,164S34,177.7,41.79,175.74,49.61,167.93,49.61,167.93Z"/><path class="cls-13" d="M188.37,31.11l-3.91,11.73s9.77,3.91,11.73,0S188.37,31.11,188.37,31.11Z"/><path class="cls-13" d="M116.06,21.34l-3.91,11.73s9.77,3.91,11.72,0S116.06,21.34,116.06,21.34Z"/><path class="cls-13" d="M98.47,183.56l-3.91,11.73s9.77,3.91,11.72,0S98.47,183.56,98.47,183.56Z"/><path class="cls-13" d="M61.33,37,57.42,48.7s9.78,3.91,11.73,0S61.33,37,61.33,37Z"/><path class="cls-13" d="M32-6,28.11,5.71s9.77,3.91,11.72,0S32-6,32-6Z"/><path class="cls-13" d="M8.56,183.56,4.65,195.29s9.78,3.91,11.73,0S8.56,183.56,8.56,183.56Z"/><path class="cls-14" d="M95.35,167.6s.81,6.13,4.12,6.83c1.34.28,4.93-.59,8.81-1.1,5.71-.76,12-1.57,12.77-3.72,1.2-3.61-4.49-8.63-8.12-8.63s-7.63,3.44-7.63,3.44Z"/><path class="cls-15" d="M105.59,166.4l-.36-2.43,1.28-20.25a4.82,4.82,0,0,0-9.62-.61L95.35,167.6C95.18,170.26,105.43,169,105.59,166.4Z"/><path class="cls-15" d="M60.13,180.93A4.83,4.83,0,0,0,64.87,177l4.51-24.28a4.82,4.82,0,0,0-9.47-1.77l-4.52,24.29a4.82,4.82,0,0,0,3.86,5.62A5.33,5.33,0,0,0,60.13,180.93Z"/><path class="cls-15" d="M96.84,97a186.64,186.64,0,0,0,26.5-16.25,7.38,7.38,0,0,1-.68-3.2c0-2.91,4.81-4.64,8.63-3.53,4.47,1.29,7.64,4.57,7.64,7.48,0,2.07-2.73,3.72-5.89,4a195.76,195.76,0,0,1-31.93,20.12A4.81,4.81,0,1,1,96.84,97Z"/><path class="cls-15" d="M53,48.77c-1.37-2.57,2.07-6.36,6-7.18,4.56-1,8.89.45,10.26,3,1.16,2.16-1.36,5.63-4.92,7.15-.54,5.86,5.43,30.56,7.45,43.31a4.83,4.83,0,0,1-4,5.51,5,5,0,0,1-.76.06c-2.33,0-3.45-2-4.75-4.07C51.56,80,54.12,57.38,54.73,50.94A7.33,7.33,0,0,1,53,48.77Z"/><path class="cls-14" d="M65.33,174.48c.62,5.17-1.29,7.38-1.29,7.38s-22.28-1.51-23.48-2.71-1.11-10.84,6-10.84,9.19,4.91,9.19,4.91S61.2,177.15,65.33,174.48Z"/><path class="cls-16" d="M65.46,133.88s18.26,2.81,26.08-1.7c6,1.2,10.56,2.61,15,6.92C101.35,145,96,148.87,91.46,149.64c.66-1.35-4.93-6.72-11.16-5.32-8.62,1.94-8,5.21-8.11,5.92-5-.19-9,.12-14.25-2.83A47.73,47.73,0,0,1,65.46,133.88Z"/><path class="cls-17" d="M91.74,109.79s-.4,12.85-.2,22.39c-5.62,4.21-19.75,4.11-26.08,1.7a169.28,169.28,0,0,1,1.39-28.3,16.76,16.76,0,0,1-7-9.73,29.55,29.55,0,0,0,9.35-6.1L80.8,99.41l15.75-6.07s.12,7.8,6.74,12.22C96.46,110,91.74,109.79,91.74,109.79Z"/><path class="cls-15" d="M80.68,99.24a5.42,5.42,0,0,1,0-9.19c3.56,3.78,5.3,4.11,12.74,4.54-8-4.86-11-9.94-11.66-19.5L87.37,71l-3.78-2L88,63.58l-4.54-2.16L88,56.34l-5.14-3c.38,0,.76,0,1.15,0,14.67,0,26.25,13.61,29.5,28.2,1.8,8.11-4,14.89-12.15,19,0,0-4.28,2.64-6,2.38-2.65-.4-3.52-4-6.55-6C85.65,100.06,83.16,100.53,80.68,99.24Z"/><path class="cls-14" d="M58.1,77.79c0-13.25,10.67-23.87,24.78-24.42l5.14,3-4.54,5.08L88,63.58,83.59,69l3.78,2-5.61,4.11c.64,9.56,3.7,14.64,11.66,19.5-7.44-.43-9.18-.76-12.74-4.54a5.42,5.42,0,0,0,0,9.19c2.48,1.29,5,.82,8.12-2.38,5,3.33,8.64,5.36,6.55,6a38.45,38.45,0,0,1-11,1.68C69.67,104.53,58.1,91.39,58.1,77.79Z"/><path class="cls-15" d="M111.61,75.09a4.39,4.39,0,1,0-6.53-3.84"/><circle class="cls-7" cx="99.37" cy="82.38" r="1.57"/><path class="cls-15" d="M89.86,78s-2.38,2.27,0,4.43"/></g></svg>