<svg id="レイヤー_1" data-name="レイヤー 1" xmlns="http://www.w3.org/2000/svg" xmlns:xlink="http://www.w3.org/1999/xlink" viewBox="0 0 218 218"><defs><style>.cls-1,.cls-8{fill:none;}.cls-2{clip-path:url(#clip-path);}.cls-3,.cls-6{fill:#42210b;}.cls-4{fill:#015123;}.cls-5{fill:#00a148;}.cls-10,.cls-11,.cls-6,.cls-7,.cls-8,.cls-9{stroke:#42210b;stroke-linecap:round;stroke-linejoin:round;stroke-width:2px;}.cls-7{fill:#f5dcbe;}.cls-9{fill:#7a6a56;}.cls-10{fill:#2c3493;}.cls-11{fill:#fff;}</style><clipPath id="clip-path"><rect id="SVGID" class="cls-1" x="9" y="9" width="200" height="200" rx="10"/></clipPath></defs><title>10-1-4 はね起き</title><g class="cls-2"><path class="cls-3" d="M84.79,37.17a13.91,13.91,0,0,1,4,.52l126,108.08c3,1,3.65,2.55,1.42,3.54L134,190.83a20.32,20.32,0,0,1-8,1.67,10.48,10.48,0,0,1-6.32-1.67L3.13,55.85c-.62-.5-.5-1-.45-1.74l.26-4L80.72,37.69a14.51,14.51,0,0,1,4.07-.52m0-2a16.71,16.71,0,0,0-4.52.57L2.62,48.15A2,2,0,0,0,.94,50L.68,54v.21a3.37,3.37,0,0,0,1,3.09L118.15,192.13a2.13,2.13,0,0,0,.26.26A12.3,12.3,0,0,0,126,194.5a22.19,22.19,0,0,0,8.81-1.85l.09,0,82.18-41.5c2.31-1.05,2.48-2.7,2.45-3.36-.06-1.14-.77-2.69-3.74-3.75L90.11,36.17a2,2,0,0,0-.69-.38,15.82,15.82,0,0,0-4.63-.62Z"/><path class="cls-3" d="M82,34.8a13.63,13.63,0,0,1,3.93.51L210,142.57c2.9.92,3.51,2.45,1.3,3.4l-79.08,37.5a20.29,20.29,0,0,1-7.78,1.57,10.32,10.32,0,0,1-6.12-1.57L3.52,51.08c-1.73-1.35.45-3.51,4.77-4.82L77.94,35.31a14.58,14.58,0,0,1,4-.51m0-2a16.67,16.67,0,0,0-4.46.56L8,44.29a1.31,1.31,0,0,0-.27.06C5.42,45,1.51,46.62,1,49.43a3.25,3.25,0,0,0,1.14,3.09l114.7,132.26a1.44,1.44,0,0,0,.28.27,12.17,12.17,0,0,0,7.35,2,22.2,22.2,0,0,0,8.57-1.73l.07,0,79-37.48c2.36-1,2.54-2.67,2.51-3.33-.06-1.12-.74-2.63-3.62-3.66L87.2,33.8a1.86,1.86,0,0,0-.7-.39A15.59,15.59,0,0,0,82,32.8Z"/><path class="cls-4" d="M88.81,37.69l126,108.08c3,1,3.65,2.55,1.42,3.54L134,190.83c-5,2.23-11.53,2.23-14.32,0L3.13,55.85c-.62-.5-.5-1-.45-1.74l.26-4L80.72,37.69A15.84,15.84,0,0,1,88.81,37.69Z"/><path class="cls-5" d="M85.89,35.31,210,142.57c2.9.92,3.51,2.45,1.3,3.4l-79.08,37.5c-4.9,2.1-11.21,2.1-13.9,0L3.52,51.08c-1.73-1.34.45-3.51,4.77-4.82L77.94,35.31A15.74,15.74,0,0,1,85.89,35.31Z"/><path class="cls-6" d="M74.54,37.78a23.75,23.75,0,0,0,1-11.7c4,2.42,3.7,10.75,3.7,10.75a62.33,62.33,0,0,0,5.3-10.75,15.34,15.34,0,0,1-3.16,11.09Z"/><path class="cls-7" d="M123.57,74.16a5,5,0,0,1-3.39-8.67,7.71,7.71,0,0,0,2.11-5.87c-.27-3-2.54-7.92-11.83-14.13A5,5,0,1,1,116,37.18C126.25,44,131.72,51.38,132.27,59a17.59,17.59,0,0,1-5.35,13.85A5,5,0,0,1,123.57,74.16Z"/><path class="cls-7" d="M114.8,45c5.68,7.06,8.76,15.57,6.92,22.67-1.89,7.26-8.83,13.09-16,18.89C91.41,98,76,99.69,64.55,85.42s-9.25-32.78,5-44.26c8.47-6.81,18.77-9.21,28.15-7A30.57,30.57,0,0,1,114.8,45Z"/><path class="cls-7" d="M89.62,47.17a3.45,3.45,0,0,0,2.63-5.8,3.46,3.46,0,0,0-4.88-.16,3.41,3.41,0,0,0-1.08,2.41"/><circle class="cls-3" cx="75.57" cy="52.83" r="2"/><circle class="cls-3" cx="99.32" cy="40.38" r="2"/><path class="cls-8" d="M91.57,54.83s6.5,1.25,9.75-3.25"/><path class="cls-6" d="M65.35,72.21s10.47,13.44,36,17.53c-15,15.84-39.21,6.84-44.1-11.16s.35-32.41,13.85-40.2C71.57,45.31,65.35,72.21,65.35,72.21Z"/><circle class="cls-6" cx="72.07" cy="97.93" r="3"/><circle class="cls-6" cx="66.57" cy="105.91" r="3"/><circle class="cls-6" cx="56.95" cy="107.66" r="3"/><polygon class="cls-6" points="50.32 106.19 46.94 100.16 44.76 107.05 50.32 106.19"/><path class="cls-7" d="M73.34,96a85.07,85.07,0,0,1-23.47-3.5,5,5,0,1,1,2.74-9.61c30.52,8.72,45.78-3.5,46.41-4a5,5,0,0,1,6.47,7.63C104.9,87,94.05,96,73.34,96Z"/><path class="cls-7" d="M146.07,165.17a5,5,0,0,1-4.75-3.47l-3.5-10.83a4.91,4.91,0,0,1-.23-1.14c-1.07-13.45-11.63-33-11.74-33.17a5,5,0,1,1,8.78-4.79c.47.87,11.4,21.09,12.87,36.56l3.33,10.3a5,5,0,0,1-3.22,6.29A4.87,4.87,0,0,1,146.07,165.17Z"/><path class="cls-9" d="M147.91,82.33a5.57,5.57,0,0,1,1,6.45c-1.88,3.72-8.07-5.69-8.07-5.69Z"/><path class="cls-7" d="M168.24,154.67a5,5,0,0,1-4.23-2.34l-5.67-9a5,5,0,0,1,0-5.27c8.84-14.5-10.59-31.16-10.79-31.33A5,5,0,0,1,154,99.09c1,.87,24,20.61,14.39,41.36l4.12,6.55a5,5,0,0,1-4.23,7.67Z"/><path class="cls-7" d="M140.88,80.83c6,3.17,7.36,5.57,10.19,9.84-9.5,10.26-29.38,30.49-28.1,15.24S134.85,77.67,140.88,80.83Z"/><line class="cls-8" x1="138.16" y1="89.65" x2="143.07" y2="90.67"/><line class="cls-8" x1="141.57" y1="88.17" x2="139.41" y2="92.17"/><path class="cls-10" d="M115.41,105.91s4.33,15.59,9.83,25.26c5.67,1.16,17.83-4.88,17.83-4.88s-2.16-9.12,1.5-10.46,5.5,2.48,5.83,5.31c5.91-1.68,11.67-5.31,14.67-10.48-3.16-8.66-8.66-15.73-15.33-22.49C135.91,99.17,115.41,105.91,115.41,105.91Z"/><path class="cls-11" d="M104.24,90.5s6.94,12.8,10.5,18.66c7.07-1.5,9.86-3.82,11.6-7.53s4.95-12.27,10.08-16.13a15.52,15.52,0,0,1,11.49-3.17c-8.34-5-14-7.66-18.84-9.33a14.82,14.82,0,0,0,3.25-3.5c-2.91-4.33-8-6.83-12-7.67a92.77,92.77,0,0,0-8.71,7.84c3.84,4.49-2.41,7.33-7.33,4.49,0,0-3.87,1.34-5.83,1.84a18.22,18.22,0,0,1-5.23,4.17,10.57,10.57,0,0,1,6.14,11.48C101.32,92.17,104.24,90.5,104.24,90.5Z"/><path class="cls-7" d="M71.17,73.91a4,4,0,0,1-1.87,2.9c-2.07,1.22-5,.15-6.46-2.39s-1-5.59,1.06-6.81a4,4,0,0,1,3.45-.21"/><line class="cls-9" x1="178.32" y1="97.56" x2="147.94" y2="62.35"/><line class="cls-9" x1="200.82" y1="100.41" x2="156.38" y2="53.3"/></g></svg>