<svg id="レイヤー_1" data-name="レイヤー 1" xmlns="http://www.w3.org/2000/svg" viewBox="0 0 242 143.77"><defs><style>.cls-1{fill:#e8f0c5;}.cls-2{fill:#95c036;}.cls-2,.cls-3,.cls-4,.cls-5,.cls-6,.cls-7{stroke:#40220f;}.cls-2,.cls-5,.cls-6,.cls-7{stroke-linecap:round;stroke-linejoin:round;}.cls-3,.cls-7{fill:#f5dcbe;}.cls-3,.cls-4{stroke-miterlimit:10;}.cls-4{fill:#e60012;}.cls-5{fill:none;}.cls-6{fill:#40220f;}</style></defs><title>04.睡眠</title><path class="cls-1" d="M220.8,117c-33.05,0-33.05-2.66-66.1-2.66s-33,16.36-66.1,16.36S55.55,124,22.5,124c-5.5,0-12.08-5.3-12.08-10.8,24.8-31.91,26.66-30.38,51.46-62.29,0-5.5,7.31-6.07,12.81-6.07,36.52.48,36.6-4.94,73.12-4.42s36.46,4.47,73,4.95c5.5,0,3.72,4.3,3.72,9.8,0,29.82,5.17,29.82,5.17,59.64C229.68,120.31,226.3,117,220.8,117Z"/><path class="cls-2" d="M72.65,99.43c-6.34,4.79-20.28,7.94-32.17,4.45-7.26-2.14-15.54-8-17-15.95-3.83-21,40.45-67,40.45-67L94.31,34.75S82.58,91.93,72.65,99.43Z"/><path class="cls-3" d="M82,21.17c7.83,3.72,14.25,9.09,16.11,15.9C100.32,45,97,54.69,92.65,63.79,88.73,72,84.29,80.47,77.73,84.1c-6.94,3.84-16.13,2.51-24.83-1.63A33.94,33.94,0,0,1,82,21.17Z"/><path class="cls-3" d="M58.9,54.79a2.47,2.47,0,0,1-2.15.48A3.3,3.3,0,0,1,58.39,49a2.58,2.58,0,0,1,1.75,1.75"/><path class="cls-2" d="M31.81,78.59S40.48,72,48.65,73.85c5.89,1.32,14,4.24,18.56,9.24,3.06,3.36,3.34,8.54,4.77,11.5"/><ellipse class="cls-4" cx="75.99" cy="60.02" rx="2" ry="4.25" transform="translate(-10.85 102.88) rotate(-64.57)"/><path class="cls-5" d="M60.65,36.76s3.49,2.25,5,1.48,2.33-3.49.53-7.15"/><path class="cls-5" d="M51.83,60s2.85,2.93,2.49,4.56-1.92,1.83-5.67.85"/><path class="cls-3" d="M112.65,83.43c0,3-25.66,2.95-28.67,2.95a5.45,5.45,0,0,1,0-10.9C87,75.48,112.65,80.42,112.65,83.43Z"/><path class="cls-6" d="M74.77,22.72a22.08,22.08,0,0,1,3.76,9c-8.88-5.67-10-6.67-16.72-10.67-14.66,6.92-25.16,24.5-26,43.05-4.56-10-2.73-28.54,7.45-38a35.37,35.37,0,0,1,18.85-9A42.71,42.71,0,0,1,76,17.87C81.58,21.93,74.77,22.72,74.77,22.72Z"/><path class="cls-2" d="M89.15,20.93a59,59,0,0,1,3.19,22.8c-1.12,16.82-7,37.89-5.19,46.2.21,2.42,30.27,11.79,62.83,11.5,19.54-.18,39-6.15,56.17-12.67,25.8-9.82,12.5-6.33,10-7.83s-2.6-16.05-14.5-23.5c-5.65-3.54-20.5-8.84-32.17-13.84s-18.67-10.66-31.17-17.5S89.15,20.93,89.15,20.93Z"/><path class="cls-7" d="M76.23,24.41a5.69,5.69,0,0,1,.13-4.74c1.52-3,5.54-4,9-2.21s5,5.59,3.47,8.57a5.59,5.59,0,0,1-3.54,2.81"/><path class="cls-7" d="M76.33,24.41a5.69,5.69,0,0,1,.13-4.74c1.52-3,5.54-4,9-2.21s5,5.59,3.47,8.57a5.59,5.59,0,0,1-3.54,2.81"/><path class="cls-7" d="M76.43,24.41a5.69,5.69,0,0,1,.13-4.74c1.52-3,5.54-4,9-2.21s5,5.59,3.47,8.57a5.59,5.59,0,0,1-3.54,2.81"/><path class="cls-7" d="M76.53,24.41a5.69,5.69,0,0,1,.13-4.74c1.52-3,5.54-4,9-2.21s5,5.59,3.47,8.57a5.59,5.59,0,0,1-3.54,2.81"/><path class="cls-7" d="M76.63,24.41a5.69,5.69,0,0,1,.13-4.74c1.52-3,5.54-4,9-2.21s5,5.59,3.47,8.57a5.59,5.59,0,0,1-3.54,2.81"/><path class="cls-7" d="M76.73,24.41a5.69,5.69,0,0,1,.13-4.74c1.52-3,5.54-4,9-2.21s5,5.59,3.47,8.57a5.59,5.59,0,0,1-3.54,2.81"/><path class="cls-7" d="M76.83,24.41A5.69,5.69,0,0,1,77,19.67c1.52-3,5.54-4,9-2.21s5,5.59,3.47,8.57a5.59,5.59,0,0,1-3.54,2.81"/><path class="cls-7" d="M76.93,24.41a5.69,5.69,0,0,1,.13-4.74c1.52-3,5.54-4,9-2.21S91,23.05,89.5,26A5.59,5.59,0,0,1,86,28.84"/></svg>