<svg id="レイヤー_1" data-name="レイヤー 1" xmlns="http://www.w3.org/2000/svg" viewBox="0 0 213.37 174.97"><defs><style>.cls-1{fill:#daeffb;}.cls-2{fill:#0d73ba;}.cls-11,.cls-3,.cls-4,.cls-5{fill:none;}.cls-3,.cls-4{stroke:#0d73ba;}.cls-3,.cls-4,.cls-5{stroke-width:2px;}.cls-4{stroke-dasharray:6.06 6.06;}.cls-10,.cls-11,.cls-12,.cls-13,.cls-14,.cls-15,.cls-17,.cls-18,.cls-5{stroke:#40220f;stroke-linecap:round;stroke-linejoin:round;}.cls-6{fill:#b28e3c;}.cls-7{fill:#a57e2c;}.cls-8{fill:#deba72;}.cls-9{fill:#c9aa50;}.cls-10{fill:#3f220e;}.cls-12{fill:#f5dcbe;}.cls-13{fill:#099795;}.cls-14{fill:#e79eb0;}.cls-15{fill:#604c3f;}.cls-16{fill:#40220f;}.cls-17{fill:#735032;}.cls-18{fill:#727171;}.cls-19{fill:#7c4e22;}.cls-20{fill:#e2d19c;}.cls-21{fill:#a17328;}.cls-22{fill:#d0af75;}.cls-23{fill:#cba354;}.cls-24{fill:#e2cc9c;}.cls-25{fill:#8f6025;}.cls-26{font-size:11px;font-family:YuGothic-Bold, YuGothic Bold;font-weight:700;}.cls-26,.cls-28{fill:#0363a6;}.cls-27{letter-spacing:0.25em;}</style></defs><title>モルック説明1</title><circle class="cls-1" cx="161.64" cy="120.96" r="46.26"/><polygon class="cls-1" points="155.03 77.71 124.42 42.57 141.39 82.72 155.03 77.71"/><polygon class="cls-2" points="117.87 47.49 90.67 39.7 92.56 37.65 119.78 45.44 117.87 47.49"/><line class="cls-3" x1="101.7" y1="45.03" x2="100.05" y2="47.54"/><line class="cls-4" x1="96.73" y1="52.6" x2="45.14" y2="131.04"/><line class="cls-3" x1="43.47" y1="133.57" x2="41.82" y2="136.08"/><polygon class="cls-5" points="52.06 148.76 39.61 143.26 39.61 139.11 52.5 144.19 52.06 148.76"/><polygon class="cls-5" points="52.06 148.76 39.61 143.26 39.61 139.11 52.5 144.19 52.06 148.76"/><polygon class="cls-5" points="39.61 143.26 26.72 137.91 26.72 134.15 39.61 139.11 39.61 143.26"/><polygon class="cls-5" points="39.61 143.26 26.72 137.91 26.72 134.15 39.61 139.11 39.61 143.26"/><polygon class="cls-5" points="52.5 144.19 52.06 148.76 56.86 157.38 56.86 152.07 52.5 144.19"/><polygon class="cls-5" points="52.5 144.19 52.06 148.76 56.86 157.38 56.86 152.07 52.5 144.19"/><polygon class="cls-5" points="26.72 137.91 17.67 139.51 17.67 136.08 26.72 134.15 26.72 137.91"/><polygon class="cls-5" points="26.72 137.91 17.67 139.51 17.67 136.08 26.72 134.15 26.72 137.91"/><polygon class="cls-5" points="56.86 157.38 57.84 156.92 57.84 151.56 56.86 152.07 56.86 157.38"/><polygon class="cls-5" points="56.86 157.38 57.84 156.92 57.84 151.56 56.86 152.07 56.86 157.38"/><polygon class="cls-5" points="52.5 144.19 52.5 143.03 57.84 151.56 56.86 152.07 52.5 144.19"/><polygon class="cls-5" points="52.5 144.19 52.5 143.03 57.84 151.56 56.86 152.07 52.5 144.19"/><polygon class="cls-5" points="52.5 143.03 39.34 138.07 39.61 139.11 52.5 144.19 52.5 143.03"/><polygon class="cls-5" points="52.5 143.03 39.34 138.07 39.61 139.11 52.5 144.19 52.5 143.03"/><polygon class="cls-5" points="39.34 138.07 26.43 133.34 26.72 134.15 39.61 139.11 39.34 138.07"/><polygon class="cls-5" points="39.34 138.07 26.43 133.34 26.72 134.15 39.61 139.11 39.34 138.07"/><polygon class="cls-5" points="26.43 133.34 17.67 135.13 17.67 136.08 26.72 134.15 26.43 133.34"/><polygon class="cls-5" points="26.43 133.34 17.67 135.13 17.67 136.08 26.72 134.15 26.43 133.34"/><polygon class="cls-6" points="52.06 148.76 39.61 143.26 39.61 139.11 52.5 144.19 52.06 148.76"/><polygon class="cls-6" points="39.61 143.26 26.72 137.91 26.72 134.15 39.61 139.11 39.61 143.26"/><polygon class="cls-7" points="52.5 144.19 52.06 148.76 56.86 157.38 56.86 152.07 52.5 144.19"/><polygon class="cls-6" points="26.72 137.91 17.67 139.51 17.67 136.08 26.72 134.15 26.72 137.91"/><polygon class="cls-8" points="56.86 157.38 57.84 156.92 57.84 151.56 56.86 152.07 56.86 157.38"/><polygon class="cls-9" points="52.5 144.19 52.5 143.03 57.84 151.56 56.86 152.07 52.5 144.19"/><polygon class="cls-9" points="52.5 143.03 39.34 138.07 39.61 139.11 52.5 144.19 52.5 143.03"/><polygon class="cls-9" points="39.34 138.07 26.43 133.34 26.72 134.15 39.61 139.11 39.34 138.07"/><polygon class="cls-9" points="26.43 133.34 17.67 135.13 17.67 136.08 26.72 134.15 26.43 133.34"/><path class="cls-10" d="M28,138.89a9.79,9.79,0,0,1-1.7,1.56,2.41,2.41,0,0,0-1.37,2.32c.5,2.5,2.93,3.53,5,3.49.76,2.14,3.65,3.44,5.08,3.38,1.26-.5,1.23-.33,1.79-1.31s.91-2.25-.69-4.79S28,138.89,28,138.89Z"/><line class="cls-11" x1="23.82" y1="124.33" x2="23.6" y2="127.32"/><circle class="cls-12" cx="16.28" cy="110.19" r="3.44"/><path class="cls-13" d="M27.2,140.91s1.25-2.81,2.81-6.28c1-2.22,2.51-5.58,2-6.53-.58-.65-2.95-.22-5.82,0-2.23.16-10.28-7.54-8.24-7.89,3.9-.66,16.92-2.31,20.59,4.25,2.37,4.24.31,8.82-1.68,13.25a54.15,54.15,0,0,1-3,5.62C27.91,143.84,27.2,140.91,27.2,140.91Z"/><path class="cls-14" d="M32.36,81.25c-21.25,8.37-20,22.85-18.78,27.46a9.6,9.6,0,0,0,5.9,0S53.6,72.88,32.36,81.25Z"/><path class="cls-12" d="M68.29,89.17s8.64-4.61,10.25-1.27-8.84,5.52-8.84,5.52Z"/><path class="cls-13" d="M28.66,109.5a10.61,10.61,0,0,0-12.81,7.81c-1.38,5.69,2.54,9.69,8.23,11.07l.33.07c-1.15,6.77-3.55,16.27-9.44,24.42-1.22,1.67,5.33,5.39,6.06,4.38,8.26-11.42,15.16-33.79,15.44-34.94A10.6,10.6,0,0,0,28.66,109.5Z"/><path class="cls-14" d="M15.52,119.26c7,2.11,8.73,4.65,21.26.79-1.1-16,3.7-21.85,7.48-23.46C49.78,98,56.92,99.06,71.84,94c-1.29-2.79-1.93-3.86-1.93-6.11C57.62,90,51,89.24,46.84,88.08c-3.54-1-2-5.33-2-5.33S45,68.32,34.93,77.6C25.6,86.18,16,97.19,15.52,119.26Z"/><path class="cls-12" d="M57.84,72.14c0,5.3-1.05,10.94-4,14.07s-9.09,3.08-14.54,3.08c-10.75,0-18.58-6.58-18.58-17.33a19.75,19.75,0,0,1,5.17-13.69,19.76,19.76,0,0,1,14.3-5.78C50.9,52.49,57.84,61.39,57.84,72.14Z"/><path class="cls-15" d="M57.84,67.52c0,1.06-.09,2.65-1.92,5.58a29.66,29.66,0,0,0,0-4.43S53.28,78.34,49,83.51a20.55,20.55,0,0,0-1-8s-2.47,4.7-2.87,13.67C25.47,91.61,16.7,77.34,21.8,62.89c2.61-7.36,14.64-13.59,23.32-10.4C53.08,55.42,55.92,59.23,57.84,67.52Z"/><path class="cls-12" d="M48.21,82.07c-1.1,0-2-1.38-2-3.09s.89-3.08,2-3.08S49.31,82.07,48.21,82.07Z"/><circle class="cls-16" cx="55.24" cy="77.73" r="0.87"/><path class="cls-15" d="M29.42,70.55c-3.09-1.78-6.85-1.2-10,1.78s-4.24,9.25-3.18,13.4,4.47,7.51,2.12,15.13c1.64-.49,5.5-4,6.36-6.94s-.38-10,1.26-12.53,3.85-2.89,4.91-4.53S32.5,72.32,29.42,70.55Z"/><line class="cls-17" x1="24.41" y1="128.45" x2="24.41" y2="125.82"/><path class="cls-10" d="M10,165.24c.32-.73,9.05-14.7,9.05-14.7a5.2,5.2,0,0,1,3.1,2.1c1,1.65-1.86,5.76-1.86,5.76a3.46,3.46,0,0,0-2,1.93c-.64,1.49-.59,4-1.63,5.39C15.25,167.5,12.61,167.67,10,165.24Z"/><path class="cls-18" d="M19,150.54c2.56,1.88.64,6.15-1,7.57-.38,2.26-4.07,10.73-8.09,7.13S13,156.09,13,156.09,16.45,148.66,19,150.54Z"/><path class="cls-5" d="M92.81,68.82c-.29-.18-1.07.59-1.74,1.71s-1,2.17-.68,2.34l11.71,7,2.43-4.06Z"/><path class="cls-5" d="M92.81,68.82c-.29-.18-1.07.59-1.74,1.71s-1,2.17-.68,2.34l11.71,7,2.43-4.06Z"/><ellipse class="cls-5" cx="103.31" cy="77.84" rx="2.36" ry="0.61" transform="translate(-16.49 126.63) rotate(-59.16)"/><ellipse class="cls-5" cx="103.31" cy="77.84" rx="2.36" ry="0.61" transform="translate(-16.49 126.63) rotate(-59.16)"/><path class="cls-19" d="M92.81,68.82c-.29-.18-1.07.59-1.74,1.71s-1,2.17-.68,2.34l11.71,7,2.43-4.06Z"/><ellipse class="cls-20" cx="103.31" cy="77.84" rx="2.36" ry="0.61" transform="translate(-16.49 126.63) rotate(-59.16)"/><path class="cls-11" d="M81.49,85.2s3-8,10.73-7.47"/><path class="cls-5" d="M102.48,14.64v7.63a2.33,2.33,0,0,0,3.65,0V15.13Z"/><path class="cls-5" d="M102.48,14.64v7.63a2.33,2.33,0,0,0,3.65,0V15.13Z"/><ellipse class="cls-5" cx="104.31" cy="14.89" rx="2.79" ry="1.84" transform="translate(74.81 116.04) rotate(-81.87)"/><ellipse class="cls-5" cx="104.31" cy="14.89" rx="2.79" ry="1.84" transform="translate(74.81 116.04) rotate(-81.87)"/><path class="cls-5" d="M99.7,19.51v7.63a2.33,2.33,0,0,0,3.65,0V20Z"/><path class="cls-5" d="M99.7,19.51v7.63a2.33,2.33,0,0,0,3.65,0V20Z"/><ellipse class="cls-5" cx="101.52" cy="19.76" rx="2.79" ry="1.84" transform="translate(67.6 117.46) rotate(-81.87)"/><ellipse class="cls-5" cx="101.52" cy="19.76" rx="2.79" ry="1.84" transform="translate(67.6 117.46) rotate(-81.87)"/><path class="cls-5" d="M107.15,15v7.63a2.32,2.32,0,0,0,3.65,0V15.49Z"/><path class="cls-5" d="M107.15,15v7.63a2.32,2.32,0,0,0,3.65,0V15.49Z"/><ellipse class="cls-5" cx="108.98" cy="15.24" rx="2.79" ry="1.84" transform="matrix(0.14, -0.99, 0.99, 0.14, 78.47, 120.96)"/><ellipse class="cls-5" cx="108.98" cy="15.24" rx="2.79" ry="1.84" transform="matrix(0.14, -0.99, 0.99, 0.14, 78.47, 120.96)"/><path class="cls-5" d="M110.84,15.51v7.63a2.33,2.33,0,0,0,3.65,0V16Z"/><path class="cls-5" d="M110.84,15.51v7.63a2.33,2.33,0,0,0,3.65,0V16Z"/><ellipse class="cls-5" cx="112.66" cy="15.76" rx="2.79" ry="1.84" transform="translate(81.13 125.06) rotate(-81.87)"/><ellipse class="cls-5" cx="112.66" cy="15.76" rx="2.79" ry="1.84" transform="translate(81.13 125.06) rotate(-81.87)"/><path class="cls-5" d="M103.83,19v7.63a2.33,2.33,0,0,0,3.65,0V19.47Z"/><path class="cls-5" d="M103.83,19v7.63a2.33,2.33,0,0,0,3.65,0V19.47Z"/><ellipse class="cls-5" cx="105.65" cy="19.23" rx="2.79" ry="1.84" transform="matrix(0.14, -0.99, 0.99, 0.14, 71.68, 121.1)"/><ellipse class="cls-5" cx="105.65" cy="19.23" rx="2.79" ry="1.84" transform="matrix(0.14, -0.99, 0.99, 0.14, 71.68, 121.1)"/><path class="cls-5" d="M108.2,19.51v7.63A2.09,2.09,0,0,0,110,28a2.07,2.07,0,0,0,1.82-.88V20Z"/><path class="cls-5" d="M108.2,19.51v7.63A2.09,2.09,0,0,0,110,28a2.07,2.07,0,0,0,1.82-.88V20Z"/><ellipse class="cls-5" cx="110.03" cy="19.76" rx="2.79" ry="1.84" transform="translate(74.9 125.88) rotate(-81.87)"/><ellipse class="cls-5" cx="110.03" cy="19.76" rx="2.79" ry="1.84" transform="translate(74.9 125.88) rotate(-81.87)"/><path class="cls-5" d="M113.15,20.25v9.57a2.32,2.32,0,0,0,3.65,0V20.74Z"/><path class="cls-5" d="M113.15,20.25v9.57a2.32,2.32,0,0,0,3.65,0V20.74Z"/><ellipse class="cls-5" cx="114.98" cy="20.41" rx="2.79" ry="1.84" transform="matrix(0.14, -0.99, 0.99, 0.14, 78.51, 131.34)"/><ellipse class="cls-5" cx="114.98" cy="20.41" rx="2.79" ry="1.84" transform="matrix(0.14, -0.99, 0.99, 0.14, 78.51, 131.34)"/><path class="cls-5" d="M101.17,24.1v9.58a2.33,2.33,0,0,0,3.65,0V24.59Z"/><path class="cls-5" d="M101.17,24.1v9.58a2.33,2.33,0,0,0,3.65,0V24.59Z"/><ellipse class="cls-5" cx="102.99" cy="24.26" rx="2.79" ry="1.84" transform="translate(64.41 122.79) rotate(-81.87)"/><ellipse class="cls-5" cx="102.99" cy="24.26" rx="2.79" ry="1.84" transform="translate(64.41 122.79) rotate(-81.87)"/><path class="cls-5" d="M105.29,24.1v9.58a2.33,2.33,0,0,0,3.65,0V24.59Z"/><path class="cls-5" d="M105.29,24.1v9.58a2.33,2.33,0,0,0,3.65,0V24.59Z"/><ellipse class="cls-5" cx="107.11" cy="24.26" rx="2.79" ry="1.84" transform="translate(67.95 126.86) rotate(-81.87)"/><ellipse class="cls-5" cx="107.11" cy="24.26" rx="2.79" ry="1.84" transform="translate(67.95 126.86) rotate(-81.87)"/><path class="cls-5" d="M110,24.82V34.4a2.31,2.31,0,0,0,3.64,0V25.32Z"/><path class="cls-5" d="M110,24.82V34.4a2.31,2.31,0,0,0,3.64,0V25.32Z"/><ellipse class="cls-5" cx="111.85" cy="24.98" rx="2.79" ry="1.84" transform="translate(71.3 132.18) rotate(-81.87)"/><ellipse class="cls-5" cx="111.85" cy="24.98" rx="2.79" ry="1.84" transform="translate(71.3 132.18) rotate(-81.87)"/><path class="cls-5" d="M102.48,29v8.85a2.46,2.46,0,0,0,3.65,0V29.43Z"/><path class="cls-5" d="M102.48,29v8.85a2.46,2.46,0,0,0,3.65,0V29.43Z"/><ellipse class="cls-5" cx="104.31" cy="29.13" rx="2.79" ry="1.84" transform="translate(60.72 128.26) rotate(-81.87)"/><ellipse class="cls-5" cx="104.31" cy="29.13" rx="2.79" ry="1.84" transform="translate(60.72 128.26) rotate(-81.87)"/><path class="cls-5" d="M107.18,29.59v8.28a2.57,2.57,0,0,0,3.65,0V30Z"/><path class="cls-5" d="M107.18,29.59v8.28a2.57,2.57,0,0,0,3.65,0V30Z"/><ellipse class="cls-5" cx="109.01" cy="29.75" rx="2.79" ry="1.84" transform="translate(64.14 133.45) rotate(-81.87)"/><ellipse class="cls-5" cx="109.01" cy="29.75" rx="2.79" ry="1.84" transform="translate(64.14 133.45) rotate(-81.87)"/><path class="cls-21" d="M102.48,14.64v7.63a2.33,2.33,0,0,0,3.65,0V15.13Z"/><ellipse class="cls-22" cx="104.31" cy="14.89" rx="2.79" ry="1.84" transform="translate(74.81 116.04) rotate(-81.87)"/><path class="cls-23" d="M99.7,19.51v7.63a2.33,2.33,0,0,0,3.65,0V20Z"/><ellipse class="cls-24" cx="101.52" cy="19.76" rx="2.79" ry="1.84" transform="translate(67.6 117.46) rotate(-81.87)"/><path class="cls-23" d="M107.15,15v7.63a2.32,2.32,0,0,0,3.65,0V15.49Z"/><ellipse class="cls-24" cx="108.98" cy="15.24" rx="2.79" ry="1.84" transform="matrix(0.14, -0.99, 0.99, 0.14, 78.47, 120.96)"/><path class="cls-21" d="M110.84,15.51v7.63a2.33,2.33,0,0,0,3.65,0V16Z"/><ellipse class="cls-22" cx="112.66" cy="15.76" rx="2.79" ry="1.84" transform="translate(81.13 125.06) rotate(-81.87)"/><path class="cls-25" d="M103.83,19v7.63a2.33,2.33,0,0,0,3.65,0V19.47Z"/><ellipse class="cls-22" cx="105.65" cy="19.23" rx="2.79" ry="1.84" transform="matrix(0.14, -0.99, 0.99, 0.14, 71.68, 121.1)"/><path class="cls-23" d="M108.2,19.51v7.63A2.09,2.09,0,0,0,110,28a2.07,2.07,0,0,0,1.82-.88V20Z"/><ellipse class="cls-24" cx="110.03" cy="19.76" rx="2.79" ry="1.84" transform="translate(74.9 125.88) rotate(-81.87)"/><path class="cls-25" d="M113.15,20.25v9.57a2.32,2.32,0,0,0,3.65,0V20.74Z"/><ellipse class="cls-22" cx="114.98" cy="20.41" rx="2.79" ry="1.84" transform="matrix(0.14, -0.99, 0.99, 0.14, 78.51, 131.34)"/><path class="cls-25" d="M101.17,24.1v9.58a2.33,2.33,0,0,0,3.65,0V24.59Z"/><ellipse class="cls-22" cx="102.99" cy="24.26" rx="2.79" ry="1.84" transform="translate(64.41 122.79) rotate(-81.87)"/><path class="cls-21" d="M105.29,24.1v9.58a2.33,2.33,0,0,0,3.65,0V24.59Z"/><ellipse class="cls-22" cx="107.11" cy="24.26" rx="2.79" ry="1.84" transform="translate(67.95 126.86) rotate(-81.87)"/><path class="cls-21" d="M110,24.82V34.4a2.31,2.31,0,0,0,3.64,0V25.32Z"/><ellipse class="cls-24" cx="111.85" cy="24.98" rx="2.79" ry="1.84" transform="translate(71.3 132.18) rotate(-81.87)"/><path class="cls-23" d="M102.48,29v8.85a2.46,2.46,0,0,0,3.65,0V29.43Z"/><ellipse class="cls-24" cx="104.31" cy="29.13" rx="2.79" ry="1.84" transform="translate(60.72 128.26) rotate(-81.87)"/><path class="cls-23" d="M107.18,29.59v8.28a2.57,2.57,0,0,0,3.65,0V30Z"/><ellipse class="cls-24" cx="109.01" cy="29.75" rx="2.79" ry="1.84" transform="translate(64.14 133.45) rotate(-81.87)"/><text class="cls-26" transform="translate(60.93 132.08)"><tspan class="cls-27">3～</tspan><tspan x="22.56" y="0">4m </tspan><tspan x="4.06" y="10">あける</tspan></text><path class="cls-28" d="M149.29,88.17v1.11a17,17,0,0,0-1.88,4.18,20,20,0,0,0-.7,4.23H145A17.27,17.27,0,0,1,146,93a20.44,20.44,0,0,1,1.78-3.52h-4.27V88.17Z"/><path class="cls-28" d="M160.65,95.39c.17.61.5.91,1,.91a1.38,1.38,0,0,0,1.3-.87,6.62,6.62,0,0,0,.43-2.52A2.05,2.05,0,0,1,161.43,94a2.26,2.26,0,0,1-1.9-.94A3.41,3.41,0,0,1,158.9,91a3.48,3.48,0,0,1,.89-2.54,2.89,2.89,0,0,1,4.34.45,6.23,6.23,0,0,1,.73,3.33,7.25,7.25,0,0,1-1,4.24,2.69,2.69,0,0,1-2.28,1A2.4,2.4,0,0,1,159.11,96Zm2.65-3.74c0-1.87-.5-2.81-1.47-2.81s-1.35.7-1.35,2.1a2.31,2.31,0,0,0,.41,1.46,1.07,1.07,0,0,0,.9.44A1.66,1.66,0,0,0,163.3,91.65Z"/><path class="cls-28" d="M179.62,91.79A3.56,3.56,0,0,1,181.14,93a2.64,2.64,0,0,1,.37,1.46,2.39,2.39,0,0,1-.95,2,3.33,3.33,0,0,1-2.12.64,3.28,3.28,0,0,1-2.35-.79,2.34,2.34,0,0,1-.73-1.81,2.07,2.07,0,0,1,.51-1.43,4.16,4.16,0,0,1,1.34-.94A3.1,3.1,0,0,1,175.9,91a2.53,2.53,0,0,1-.32-1.3,2.24,2.24,0,0,1,.89-1.83,3.08,3.08,0,0,1,2-.62,3,3,0,0,1,2.16.76,2.15,2.15,0,0,1,.71,1.64A2.29,2.29,0,0,1,179.62,91.79Zm-1.46.78a2.86,2.86,0,0,0-1,.85,1.62,1.62,0,0,0-.28,1,1.5,1.5,0,0,0,.48,1.17,1.6,1.6,0,0,0,1.1.38,1.64,1.64,0,0,0,1.22-.44,1.55,1.55,0,0,0,0-2,4.07,4.07,0,0,0-1.14-.73Zm.54-1.23a2.17,2.17,0,0,0,.91-.77,1.72,1.72,0,0,0,.21-.89,1.25,1.25,0,0,0-.45-1,1.58,1.58,0,0,0-2,.08,1.26,1.26,0,0,0-.33.91,1.29,1.29,0,0,0,.32.88,3.18,3.18,0,0,0,1,.64Z"/><path class="cls-28" d="M187.66,108.27l-1.52.57c-.13-.63-.46-.94-1-.94-1.1,0-1.67,1.12-1.72,3.37a2.1,2.1,0,0,1,1.94-1.12,2.2,2.2,0,0,1,1.88.93,3.56,3.56,0,0,1,.6,2.15,3.45,3.45,0,0,1-.92,2.56,2.68,2.68,0,0,1-2,.78,2.57,2.57,0,0,1-2.32-1.23,6.24,6.24,0,0,1-.74-3.34q0-5.28,3.3-5.28A2.44,2.44,0,0,1,187.66,108.27Zm-4.22,4.28q0,2.82,1.5,2.82c.89,0,1.34-.7,1.34-2.09s-.43-1.93-1.28-1.93A1.78,1.78,0,0,0,183.44,112.55Z"/><path class="cls-28" d="M167.79,105.43v8.36h1.78V115h-5.13v-1.22h1.87V107a7,7,0,0,1-1.76.85l-.25-1.31a7.26,7.26,0,0,0,2.22-1.12Z"/><path class="cls-28" d="M169.87,108a2.92,2.92,0,0,1,1.07-2,3,3,0,0,1,1.87-.59,2.91,2.91,0,0,1,2.15.75,2.43,2.43,0,0,1,.69,1.81,3,3,0,0,1-.47,1.6,9.1,9.1,0,0,1-1.45,1.62,10.32,10.32,0,0,0-2.32,2.65h4.28V115h-5.9V113.9a12.63,12.63,0,0,1,2.72-3.54,7.15,7.15,0,0,0,1.27-1.47,2,2,0,0,0,.25-1,1.35,1.35,0,0,0-.38-1,1.24,1.24,0,0,0-.87-.3c-.82,0-1.27.57-1.35,1.72Z"/><path class="cls-28" d="M150.8,105.43v8.36h1.77V115h-5.13v-1.22h1.87V107a7,7,0,0,1-1.76.85l-.25-1.31a7.26,7.26,0,0,0,2.22-1.12Z"/><path class="cls-28" d="M156.7,105.43v8.36h1.77V115h-5.13v-1.22h1.87V107a7,7,0,0,1-1.76.85l-.25-1.31a7.26,7.26,0,0,0,2.22-1.12Z"/><path class="cls-28" d="M141,108.87v1.25h-3.76l-.08,1.92a7.17,7.17,0,0,1-.07.9,1.83,1.83,0,0,1,1.63-.82,2.46,2.46,0,0,1,2,1,3.43,3.43,0,0,1,.66,2.16,3.35,3.35,0,0,1-1,2.53,2.9,2.9,0,0,1-2.09.8,3.15,3.15,0,0,1-2-.58,2.57,2.57,0,0,1-.91-1.49L137,116c.17.88.62,1.32,1.36,1.32a1.23,1.23,0,0,0,1.11-.63,2.65,2.65,0,0,0,.35-1.47,2.36,2.36,0,0,0-.41-1.49,1.21,1.21,0,0,0-1-.44,1.32,1.32,0,0,0-1.34,1.07l-1.3-.18.19-5.35Z"/><path class="cls-28" d="M143.56,127a2.63,2.63,0,0,1,1.13-1.6,3.25,3.25,0,0,1,1.75-.45,3,3,0,0,1,2.17.76,2.15,2.15,0,0,1,.68,1.63,2.12,2.12,0,0,1-.54,1.49,2.22,2.22,0,0,1-1.28.65v.09a2.51,2.51,0,0,1,1.56.91,2.42,2.42,0,0,1,.45,1.49,2.62,2.62,0,0,1-.95,2.14,3.13,3.13,0,0,1-2.09.69,2.81,2.81,0,0,1-3-2.11l1.53-.45a1.74,1.74,0,0,0,.57,1.07,1.37,1.37,0,0,0,.92.28,1.35,1.35,0,0,0,1.11-.48,1.75,1.75,0,0,0,.35-1.13c0-1.15-.62-1.72-1.85-1.72h-.72V129H146c1.16,0,1.74-.5,1.74-1.49a1.29,1.29,0,0,0-.4-1,1.33,1.33,0,0,0-.91-.3,1.16,1.16,0,0,0-.9.37,1.67,1.67,0,0,0-.42.94Z"/><path class="cls-28" d="M159.85,126v8.37h1.77v1.21h-5.13v-1.21h1.87v-6.79a7,7,0,0,1-1.76.85l-.25-1.31a7,7,0,0,0,2.22-1.12Z"/><path class="cls-28" d="M164.84,125.94a2.45,2.45,0,0,1,2.31,1.29,7.53,7.53,0,0,1,.68,3.6,6.82,6.82,0,0,1-.88,4,2.5,2.5,0,0,1-2.14,1,2.45,2.45,0,0,1-2.32-1.31,7.83,7.83,0,0,1-.66-3.63,6.76,6.76,0,0,1,.89-3.94A2.49,2.49,0,0,1,164.84,125.94Zm0,1.23a1.13,1.13,0,0,0-1.11.9,9.46,9.46,0,0,0-.29,2.77,8.49,8.49,0,0,0,.36,3,1,1,0,0,0,1,.7,1.15,1.15,0,0,0,1.13-.93,9.75,9.75,0,0,0,.28-2.79,8.26,8.26,0,0,0-.36-3A1.06,1.06,0,0,0,164.84,127.17Z"/><path class="cls-28" d="M180.56,125.07v6.25h1.19v1.18h-1.19v2.15h-1.44V132.5h-3.63v-1.1l3.09-6.33Zm-1.44,6.25v-2.09c0-.67,0-1.64.07-2.92H179c-.28.75-.63,1.58-1.06,2.49l-1.17,2.52Z"/><path class="cls-28" d="M155,145v8.37h1.77v1.21H151.6v-1.21h1.87v-6.79a7,7,0,0,1-1.76.85l-.25-1.31a7,7,0,0,0,2.22-1.12Z"/><path class="cls-28" d="M165.45,147.56a2.92,2.92,0,0,1,1.07-2,3,3,0,0,1,1.87-.59,2.92,2.92,0,0,1,2.16.76,2.44,2.44,0,0,1,.68,1.8,2.93,2.93,0,0,1-.47,1.61,9.85,9.85,0,0,1-1.45,1.62,10.15,10.15,0,0,0-2.32,2.64h4.28v1.25h-5.9V153.5a12.65,12.65,0,0,1,2.72-3.53,7.4,7.4,0,0,0,1.27-1.48,2,2,0,0,0,.25-1,1.31,1.31,0,0,0-.38-1,1.24,1.24,0,0,0-.87-.3c-.82,0-1.27.58-1.35,1.72Z"/><path class="cls-28" d="M146.45,101.57c-3.78,0-6.86-4.23-6.86-9.43s3.08-9.42,6.86-9.42,6.85,4.22,6.85,9.42S150.23,101.57,146.45,101.57Zm0-18c-3.32,0-6,3.85-6,8.59s2.7,8.6,6,8.6,6-3.86,6-8.6S149.77,83.55,146.45,83.55Z"/><path class="cls-28" d="M161.88,101.57c-3.78,0-6.85-4.23-6.85-9.43s3.07-9.42,6.85-9.42,6.86,4.22,6.86,9.42S165.66,101.57,161.88,101.57Zm0-18c-3.32,0-6,3.85-6,8.59s2.7,8.6,6,8.6,6-3.86,6-8.6S165.2,83.55,161.88,83.55Z"/><path class="cls-28" d="M178.44,101.57c-3.78,0-6.86-4.23-6.86-9.43s3.08-9.42,6.86-9.42,6.85,4.22,6.85,9.42S182.21,101.57,178.44,101.57Zm0-18c-3.32,0-6,3.85-6,8.59s2.71,8.6,6,8.6,6-3.86,6-8.6S181.76,83.55,178.44,83.55Z"/><path class="cls-28" d="M138.42,123.15c-3.78,0-6.86-4.23-6.86-9.43s3.08-9.43,6.86-9.43,6.85,4.23,6.85,9.43S142.2,123.15,138.42,123.15Zm0-18c-3.32,0-6,3.85-6,8.59s2.7,8.6,6,8.6,6-3.86,6-8.6S141.74,105.13,138.42,105.13Z"/><path class="cls-28" d="M146.45,139.4c-3.78,0-6.86-4.23-6.86-9.43s3.08-9.43,6.86-9.43,6.85,4.23,6.85,9.43S150.23,139.4,146.45,139.4Zm0-18c-3.32,0-6,3.86-6,8.6s2.7,8.59,6,8.59,6-3.85,6-8.59S149.77,121.37,146.45,121.37Z"/><path class="cls-28" d="M154.09,159.2c-3.77,0-6.85-4.23-6.85-9.43s3.08-9.43,6.85-9.43,6.86,4.23,6.86,9.43S157.87,159.2,154.09,159.2Zm0-18c-3.32,0-6,3.86-6,8.6s2.7,8.6,6,8.6,6-3.86,6-8.6S157.41,141.17,154.09,141.17Z"/><path class="cls-28" d="M168.32,159.2c-3.78,0-6.85-4.23-6.85-9.43s3.07-9.43,6.85-9.43,6.85,4.23,6.85,9.43S172.1,159.2,168.32,159.2Zm0-18c-3.32,0-6,3.86-6,8.6s2.7,8.6,6,8.6,6-3.86,6-8.6S171.64,141.17,168.32,141.17Z"/><path class="cls-28" d="M161.88,139.4c-3.78,0-6.85-4.23-6.85-9.43s3.07-9.43,6.85-9.43,6.86,4.23,6.86,9.43S165.66,139.4,161.88,139.4Zm0-18c-3.32,0-6,3.86-6,8.6s2.7,8.59,6,8.59,6-3.85,6-8.59S165.2,121.37,161.88,121.37Z"/><path class="cls-28" d="M178.44,139.4c-3.78,0-6.86-4.23-6.86-9.43s3.08-9.43,6.86-9.43,6.85,4.23,6.85,9.43S182.21,139.4,178.44,139.4Zm0-18c-3.32,0-6,3.86-6,8.6s2.71,8.59,6,8.59,6-3.85,6-8.59S181.76,121.37,178.44,121.37Z"/><path class="cls-28" d="M152.88,119.59c-3.77,0-6.85-4.22-6.85-9.42s3.08-9.43,6.85-9.43,6.86,4.23,6.86,9.43S156.66,119.59,152.88,119.59Zm0-18c-3.32,0-6,3.86-6,8.6s2.7,8.59,6,8.59,6-3.85,6-8.59S156.2,101.57,152.88,101.57Z"/><path class="cls-28" d="M169.84,119.59c-3.77,0-6.85-4.22-6.85-9.42s3.08-9.43,6.85-9.43,6.86,4.23,6.86,9.43S173.62,119.59,169.84,119.59Zm0-18c-3.32,0-6,3.86-6,8.6s2.7,8.59,6,8.59,6-3.85,6-8.59S173.16,101.57,169.84,101.57Z"/><path class="cls-28" d="M184.87,121.37c-3.78,0-6.85-4.23-6.85-9.43s3.07-9.42,6.85-9.42,6.86,4.23,6.86,9.42S188.65,121.37,184.87,121.37Zm0-18c-3.32,0-6,3.85-6,8.59s2.7,8.6,6,8.6,6-3.86,6-8.6S188.19,103.35,184.87,103.35Z"/></svg>