<svg id="レイヤー_1" data-name="レイヤー 1" xmlns="http://www.w3.org/2000/svg" xmlns:xlink="http://www.w3.org/1999/xlink" viewBox="0 0 218 218"><defs><style>.cls-1,.cls-10,.cls-12,.cls-16,.cls-6{fill:none;}.cls-2{fill:#ed811b;}.cls-11,.cls-2,.cls-6,.cls-9{stroke:#42210b;}.cls-10,.cls-11,.cls-12,.cls-13,.cls-15,.cls-16,.cls-2,.cls-6,.cls-7,.cls-8,.cls-9{stroke-linecap:round;stroke-linejoin:round;}.cls-10,.cls-11,.cls-12,.cls-13,.cls-15,.cls-2,.cls-6,.cls-7,.cls-8,.cls-9{stroke-width:2px;}.cls-13,.cls-3{fill:#fff;}.cls-4{fill:#efefef;}.cls-5{fill:#c9caca;}.cls-7{fill:#f5dcbe;}.cls-12,.cls-13,.cls-15,.cls-7,.cls-8{stroke:#40220f;}.cls-8{fill:#7a6a56;}.cls-9{fill:#42210b;}.cls-10,.cls-16{stroke:#fff;}.cls-11{fill:#2c3493;}.cls-14{fill:#40220f;}.cls-15{fill:#333;}.cls-16{stroke-width:5px;}.cls-17{clip-path:url(#clip-path);}.cls-18{fill:#fff1e1;}</style><clipPath id="clip-path"><rect id="SVGID" class="cls-1" x="246.02" y="9.55" width="200" height="200" rx="10"/></clipPath></defs><title>2-4-3 跳び下りる</title><polygon class="cls-1" points="163.98 104.18 117.71 83.82 117.71 72.31 163.98 91.7 163.98 104.18"/><polygon class="cls-2" points="160.2 128.95 113.7 106.66 117.71 83.82 164.22 104.28 160.2 128.95"/><polygon class="cls-2" points="158.24 141.2 112.33 117.83 114.27 106.67 160.17 128.93 158.24 141.2"/><polygon class="cls-2" points="160.33 128.95 201 115.06 195.52 94.47 164.22 104.28 160.33 128.95"/><polygon class="cls-2" points="160.33 128.95 158.24 141.2 204.32 124.83 201 115.06 160.33 128.95"/><polygon class="cls-3" points="155.64 86.51 164.19 103.71 170.64 85.83 155.64 86.51"/><polygon class="cls-3" points="148.7 63.83 195.73 81.82 164.2 91.23 117.92 71.84 148.7 63.83"/><path class="cls-4" d="M164.19,103.71,117.92,83.35c-.42-9.54,1.89-10.54,1.89-10.54l37.91,15.7a10.57,10.57,0,0,1,6.47,9.74Z"/><path class="cls-5" d="M164.43,103.82,195.73,94,194,82.34l-23.7,7.07a8.21,8.21,0,0,0-5.86,7.87Z"/><path class="cls-3" d="M148.28,63.83l47,18-29.54,8.81a5.84,5.84,0,0,1-3.91-.2L120.74,73.2A1.18,1.18,0,0,1,120.9,71Z"/><path class="cls-6" d="M142.47,65.34l-18.79,4.9a8.25,8.25,0,0,0-6.18,8v5.13l46.27,20.36.24.11L195.31,94V88.07a9.09,9.09,0,0,0-5.83-8.48L153.88,66A18.78,18.78,0,0,0,142.47,65.34Z"/><path class="cls-7" d="M15,113.21a4,4,0,0,1-.9-.11,3.78,3.78,0,0,1-2.8-4.56c.23-1,5.94-23.53,35.57-32.16A3.8,3.8,0,0,1,49,83.68C23.81,91,18.92,109.53,18.73,110.32A3.82,3.82,0,0,1,15,113.21Z"/><path class="cls-8" d="M78.5,136.9c-.51,5-14.45,5.47-18,0-1.39,6-16.43,1-13.93-3.8a49.24,49.24,0,0,1,5.2-7l28.11,3.54S79.06,131.31,78.5,136.9Z"/><path class="cls-7" d="M76.18,134.15a3.8,3.8,0,1,0-7.6,0V151l7.6.24Z"/><path class="cls-7" d="M57.41,134.06a3.8,3.8,0,1,0-6.54-3.86c-4.83,8.17-5.34,15.31-3.81,21.08l7.13-2.89C53.46,144.59,54,139.82,57.41,134.06Z"/><path class="cls-9" d="M74,166.83a9.17,9.17,0,0,0-7,3.93c-1.52,2.41-1.52,3.8-.89,5.19a3.85,3.85,0,0,0-.33,6.17c2.74,1.94,9.07,2.7,11.86.67s1.47-5.19,1.14-8.23c.48-1.9.7-4-.63-5.43S76.24,166.83,74,166.83Z"/><path class="cls-9" d="M52.12,177.73c3.47,2,5.57,1.26,8,0a8.07,8.07,0,0,0,4-5.45c2-2.54,2.93-3.55,3.69-5.45s-1.43-5.7-3.37-6.33-3.6-1.14-5.62,0-2.54,3.77-3.24,6.33c-2.34.64-4.62.89-6.14,2.92S48.64,175.7,52.12,177.73Z"/><path class="cls-10" d="M52.12,169.4s5.05-2.57,7.09,2.25"/><path class="cls-11" d="M85.72,116.38c-.27,8.66-2,15.08-7.22,20.52-1.27-6.46-16.49-6.46-18,0-1.39-6.46-6.27-8-13.93-3.8,6.89-8.06,9.24-19.89,9.24-19.89S80.9,112.58,85.72,116.38Z"/><path class="cls-12" d="M60.51,136.9A94.77,94.77,0,0,0,63.8,125"/><path class="cls-13" d="M57.34,77.5c18.37-3.68,32.18,19.38,28.15,42.55-9.53,2.29-22.4,2.16-32-3C62,102.58,50,79,57.34,77.5Z"/><path class="cls-7" d="M79.64,62.17c0,15.39-12.47,25.46-27.86,25.46-5.72,0-12.16-.76-16.1-3.29-6.67-4.29-9-12.49-9-22.17,0-15.39,9.7-27.87,25.09-27.87A27.86,27.86,0,0,1,79.64,62.17Z"/><path class="cls-7" d="M73.08,99.29c-2.15,7-8.55,23.42-23.06,32.7a3.8,3.8,0,0,1-4.09-6.4C58.29,117.68,64,103,65.82,97"/><path class="cls-7" d="M43.72,82.61a2.41,2.41,0,1,1-1.83-4,2.38,2.38,0,0,1,1.61.62"/><circle class="cls-14" cx="57.6" cy="80.03" r="1.01"/><circle class="cls-14" cx="35.56" cy="77.24" r="1.01"/><path class="cls-15" d="M68.36,65.08c-.63,6.21-.63,16-.63,16L63.09,70.78l-2.58,5.45-7.34-4L63.8,61.41s14.39-12.34,15.39-4.24.7,17.79-7.39,23.2C71.59,74.46,71.9,69.6,68.36,65.08Z"/><path class="cls-7" d="M69.17,69a2.63,2.63,0,0,1,2.15-1.28c1.57,0,2.84,1.64,2.84,3.67s-1.27,3.68-2.84,3.68a2.54,2.54,0,0,1-2-1"/><path class="cls-13" d="M71,66C63.8,73.19,54.6,76,44.57,77.11s-25.23-3.69-28.9-9.38S20.77,59,25.37,59C31.51,65.46,61,64.28,71,66Z"/><path class="cls-13" d="M79.19,57.17C74.82,64.7,69.62,67.74,61.4,69.52s-28.25-1.33-36.11-6.17c-.63-15.24,8.19-27.53,21-29.68,6.26-1.05,15.58.22,22.06,4.31A23.4,23.4,0,0,1,79.19,57.17Z"/><path class="cls-13" d="M72.38,174.56a3.8,3.8,0,0,0,3.8-3.8V151.27l-7.6-.24v19.73A3.8,3.8,0,0,0,72.38,174.56Z"/><path class="cls-13" d="M76.28,91.43s.48,7-1.46,11.72c-3.23,1.52-8.67.53-12.81-1.9,1.79-4,1.79-9.82,1.79-9.82"/><path class="cls-10" d="M74.91,176.46a4.48,4.48,0,0,0-5.44,0"/><path class="cls-13" d="M58.34,167.66a3.8,3.8,0,0,0,4-6.45c-.91-.58-6.87-6.12-8.16-12.82l-7.13,2.89C48.92,158.34,54.46,165.27,58.34,167.66Z"/><path class="cls-12" d="M100.76,173.78s12-10.21,28.88-11.34"/><path class="cls-16" d="M132.23,165.64c8.75,12.73,18.73-1.9,6.81-5,11.11,2.36,10.73-13.24-1.14-8.05,2.71-2.91,5.28-8.75,1-11.53-3-1.94-9.29-3.37-12.08,7"/><path class="cls-12" d="M132.23,165.64c8.75,12.73,18.73-1.9,6.81-5,11.11,2.36,10.73-13.24-1.14-8.05,2.71-2.91,5.28-8.75,1-11.53-3-1.94-9.29-3.37-12.08,7"/><path class="cls-12" d="M145.92,40.2s-36-13.4-56.5,15.6"/><path class="cls-12" d="M144.44,49.06S111.55,36.37,91.05,65.37"/><path class="cls-12" d="M143.52,58.16s-29.68-13-50.18,16"/><g class="cls-17"><ellipse class="cls-18" cx="343.03" cy="109" rx="173.57" ry="160.5"/></g></svg>