<svg id="レイヤー_1" data-name="レイヤー 1" xmlns="http://www.w3.org/2000/svg" xmlns:xlink="http://www.w3.org/1999/xlink" viewBox="0 0 444 286.67"><defs><style>.cls-1{fill:#ee762b;}.cls-2{fill:url(#名称未設定グラデーション_4);}.cls-3{fill:#feed00;}.cls-4{fill:#b74221;}.cls-5{fill:#40220f;}.cls-6{fill:#572d15;}.cls-7{fill:#27140a;}.cls-20,.cls-8{fill:none;}.cls-10,.cls-11,.cls-12,.cls-13,.cls-14,.cls-15,.cls-16,.cls-17,.cls-19,.cls-8,.cls-9{stroke:#40220f;}.cls-13,.cls-14,.cls-15,.cls-17,.cls-20,.cls-8{stroke-linecap:round;stroke-linejoin:round;}.cls-9{fill:#fff100;}.cls-10,.cls-11,.cls-12,.cls-16,.cls-19,.cls-9{stroke-miterlimit:10;}.cls-10{fill:#f5dcbe;}.cls-11{fill:#fff;}.cls-12,.cls-13{fill:#3e3a39;}.cls-14{fill:#f8cbd9;}.cls-15{fill:#fce9f2;}.cls-16{fill:#a5b3ca;}.cls-17{fill:#604c3f;}.cls-18{fill:url(#名称未設定グラデーション_4-2);}.cls-19{fill:#e60012;}.cls-20{stroke:#ef94ae;stroke-width:2px;}.cls-21{fill:#ef94ae;}.cls-22{fill:url(#名称未設定グラデーション_4-4);}.cls-23{fill:url(#名称未設定グラデーション_4-5);}</style><linearGradient id="名称未設定グラデーション_4" x1="296.19" y1="132.5" x2="329.88" y2="132.5" gradientTransform="translate(6.66 1.39) rotate(-2.04)" gradientUnits="userSpaceOnUse"><stop offset="0" stop-color="#ee762b"/><stop offset="1" stop-color="#ea5504"/></linearGradient><linearGradient id="名称未設定グラデーション_4-2" x1="372.55" y1="204.63" x2="413.76" y2="204.63" gradientTransform="matrix(1, 0, 0, 1, 0, 0)" xlink:href="#名称未設定グラデーション_4"/><linearGradient id="名称未設定グラデーション_4-4" x1="-263.65" y1="145.62" x2="-229.96" y2="145.62" gradientTransform="matrix(-0.99, 0.11, 0.11, 0.99, -157.58, 0.9)" xlink:href="#名称未設定グラデーション_4"/><linearGradient id="名称未設定グラデーション_4-5" x1="-186.47" y1="237.68" x2="-145.26" y2="237.68" gradientTransform="matrix(-0.99, 0.14, 0.14, 0.99, -151.19, -1.43)" xlink:href="#名称未設定グラデーション_4"/></defs><title>ポジション</title><path class="cls-1" d="M300.45,150.85l34.94-13.2,17.17,18.65a1.79,1.79,0,0,1-.69,2.89L317,172.38a3.82,3.82,0,0,1-4.37-1.24l-13.09-17A2.15,2.15,0,0,1,300.45,150.85Z"/><path class="cls-2" d="M342.06,152.68h0l-.12-.37c0-.12-.07-.25-.11-.37L320.3,81.49a13.22,13.22,0,0,1-8.25.29l-.22-.13-3.18,73.75a5,5,0,0,0-.06,1.4c.56,5,8.53,8.19,17.79,7.14S342.7,158,342.13,153C342.12,152.91,342.08,152.8,342.06,152.68Z"/><path class="cls-3" d="M320.3,81.49l-3.5-11.41a2.3,2.3,0,0,0-4.49.52l-.48,11.05.22.13A13.22,13.22,0,0,0,320.3,81.49Z"/><ellipse class="cls-4" cx="321.87" cy="103.82" rx="2.56" ry="2.22" transform="translate(79.26 339.44) rotate(-62.04)"/><ellipse class="cls-4" cx="325.01" cy="123.36" rx="2.56" ry="2.13" transform="translate(20.24 290.58) rotate(-49.54)"/><ellipse class="cls-4" cx="328.56" cy="142.39" rx="2.56" ry="2.15" transform="translate(39.18 353.31) rotate(-59.52)"/><polygon class="cls-5" points="297.68 16.85 311.62 16.26 312.06 116.38 297.68 16.85"/><polygon class="cls-6" points="294.05 14.96 298.34 17.2 313.3 125.37 308.49 120.97 294.05 14.96"/><polygon class="cls-5" points="303.35 80.83 297.3 81.83 297.34 82.9 301.28 85.5 307.99 84.93 307.95 83.94 303.35 80.83"/><polygon class="cls-5" points="304.65 91.41 298.6 92.41 298.64 93.48 302.58 96.08 309.29 95.51 309.25 94.52 304.65 91.41"/><polygon class="cls-5" points="305.71 101.54 299.66 102.54 299.7 103.61 303.64 106.21 310.35 105.64 310.31 104.65 305.71 101.54"/><polygon class="cls-5" points="307.47 111.64 301.43 112.64 301.47 113.71 305.41 116.31 312.11 115.75 312.07 114.75 307.47 111.64"/><polygon class="cls-5" points="308.67 121.31 302.62 122.31 302.66 123.38 306.6 125.98 313.31 125.41 313.27 124.42 308.67 121.31"/><polygon class="cls-5" points="297.68 16.85 311.62 16.26 312.06 116.38 297.68 16.85"/><polygon class="cls-6" points="294.05 14.96 298.34 17.2 313.3 125.37 308.49 120.97 294.05 14.96"/><polygon class="cls-5" points="303.35 80.83 297.3 81.83 297.34 82.9 301.28 85.5 307.99 84.93 307.95 83.94 303.35 80.83"/><polygon class="cls-5" points="304.65 91.41 298.6 92.41 298.64 93.48 302.58 96.08 309.29 95.51 309.25 94.52 304.65 91.41"/><polygon class="cls-5" points="305.71 101.54 299.66 102.54 299.7 103.61 303.64 106.21 310.35 105.64 310.31 104.65 305.71 101.54"/><polygon class="cls-5" points="308.67 121.31 302.62 122.31 302.66 123.38 306.6 125.98 313.31 125.41 313.27 124.42 308.67 121.31"/><polygon class="cls-7" points="298.34 17.2 311.62 16.26 294.05 14.96 298.34 17.2"/><polygon class="cls-5" points="296.38 27.33 290.33 28.33 290.38 29.4 294.31 32 301.02 31.43 300.98 30.44 296.38 27.33"/><polygon class="cls-5" points="297.62 38.37 291.58 39.38 291.62 40.45 295.55 43.04 302.26 42.48 302.22 41.48 297.62 38.37"/><polygon class="cls-5" points="298.64 49.42 292.6 50.43 292.64 51.49 296.58 54.09 303.28 53.53 303.24 52.53 298.64 49.42"/><polygon class="cls-5" points="300.18 60.15 294.13 61.15 294.18 62.22 298.11 64.82 304.82 64.25 304.78 63.26 300.18 60.15"/><polygon class="cls-5" points="302.07 70.86 296.03 71.86 296.07 72.93 300.01 75.53 306.71 74.96 306.67 73.97 302.07 70.86"/><path class="cls-8" d="M352.56,156.3l-14-15.23L320.3,81.49l-3.5-11.41a2.3,2.3,0,0,0-4.49.52l-.41,9.48-.28-63.82L294.05,15l.18,1.31-.13-.09-6.05,1,0,1.07,3.94,2.6,2.79-.24.93,6.83-5.42.89,0,1.07,3.94,2.6,2-.17.9,6.61-5.67.94,0,1.06,3.93,2.6,2.3-.19.9,6.65-.11-.08-6,1,0,1.06,3.94,2.6,2.77-.23.86,6.31,0,0-6.05,1,.05,1.07,3.93,2.6,2.7-.23.86,6.34-5.64.93,0,1.07,3.94,2.6,2.26-.19.76,5.54-5.73,1,0,1.07,3.94,2.6,2.35-.2.83,6.14-5.86,1,0,1.07,3.94,2.6,2.49-.21.78,5.77-.14-.1-6,1,0,1.07,3.94,2.6,2.8-.24.78,5.71-5.79,1,0,1.07,3.94,2.6,2.41-.2.67,4.86.9.83-.72-.49-6.05,1,0,1.07,3.94,2.6,3.33-.28L309,147.62l-8.54,3.23a2.15,2.15,0,0,0-.95,3.31l13.09,17a3.82,3.82,0,0,0,4.37,1.24l34.91-13.19A1.79,1.79,0,0,0,352.56,156.3Z"/><path class="cls-9" d="M356.24,179.26l-68.89-78.92a3.32,3.32,0,0,1,.22-4.56,3,3,0,0,1,4.37.21l69.59,79.72"/><polygon class="cls-5" points="307.47 111.64 301.43 112.64 301.47 113.71 305.41 116.31 312.11 115.75 312.07 114.75 307.47 111.64"/><path class="cls-10" d="M290.5,158.32a4.5,4.5,0,0,1-2.84-8c1.09-.88,27-21.57,54.06-23.66a4.5,4.5,0,1,1,.69,9c-24.32,1.88-48.84,21.49-49.09,21.69A4.48,4.48,0,0,1,290.5,158.32Z"/><path class="cls-10" d="M369.73,171.65a4.56,4.56,0,0,1-2.32-.64c-8-4.81-12.84-11-14.36-18.52-2.54-12.47,5.37-23.52,5.71-24a4.5,4.5,0,0,1,7.29,5.28c-.11.15-5.94,8.45-4.17,17,1,4.88,4.43,9.1,10.17,12.54a4.5,4.5,0,0,1-2.32,8.36Z"/><path class="cls-11" d="M293.85,145.79s2.72,5,6.84,6.27c-3.72,2.37-7.37,5.26-7.37,5.26l-7.66-5.77Z"/><path class="cls-11" d="M359.22,164.42a10,10,0,0,0,6.62-6.1,39.62,39.62,0,0,0,7.47,6.1s-1.87,9.33-5.9,6.59A85.93,85.93,0,0,1,359.22,164.42Z"/><path class="cls-10" d="M345.73,108.32a4.51,4.51,0,0,1-4.08-2.6c-2.31-5-5.16-7.88-8.48-8.71-5-1.26-10,2.37-10.07,2.41a4.5,4.5,0,1,1-5.4-7.2c.34-.26,8.46-6.24,17.66-3.94,6.07,1.52,10.94,6.1,14.45,13.63a4.49,4.49,0,0,1-2.18,6A4.42,4.42,0,0,1,345.73,108.32Z"/><path class="cls-12" d="M370.9,162.57c5.5-.92,9.25.58,10.08,2.25s-2.92,12.91-6.75,15.83-10.84,5.17-13.33,1.67c-2.42-4.25.16-6.25,1.66-6.75s3.09.08,3.67-.84-.17-3.41-.88-5C368.65,169,370.85,166.49,370.9,162.57Z"/><path class="cls-13" d="M297,154.43c-5.17,1-7.33.08-9.25-4.42-2.13.22-5.79,1.19-6.5-.92a5,5,0,0,0-6-3.16c-3.17.75-3.5,3.12-4,5.83,5.75,6.33,9.74,6.83,15.75,7.42a7.31,7.31,0,0,0,6,4A14.16,14.16,0,0,0,297,154.43Z"/><path class="cls-14" d="M363.39,119c4,3.17,6.12,6.71,6,12-.14,6.75-4.26,15.68-4.17,21-7,.67-17.61-2.88-23.33-6.19s-14.64-9.14-18.67-17.14c9.17-3.83,14.83-4.34,19.67-3C347.15,123.48,355.67,112.88,363.39,119Z"/><line class="cls-8" x1="341.9" y1="145.79" x2="346.32" y2="135.98"/><path class="cls-15" d="M366.05,146.44c1.35,1.13-.6,2.87,0,6.21-1.65,1.82-16.82.17-26.15-4.33,1-3.1,4.48-5.84,3.49-5.84S359.54,149.06,366.05,146.44Z"/><path class="cls-15" d="M324.34,128.19c-1.65-.5-4.9.71-5.4,1.75,3.46,7.18,8.32,12.54,18.12,18.63,1.25-.13,4.16-2.78,3.68-3.46C331.16,138.32,329,136.35,324.34,128.19Z"/><path class="cls-16" d="M314.08,94s10-8.35,20.61-7.29C330.94,90.82,330.81,98,330.81,98Z"/><path class="cls-16" d="M333.06,127.93c-1.1-9.13-23.83-12.11-26.71-17.44-2.15-4,2.52-15.69,9.1-16.94,5-.94,21.23,2.42,34,9.77,8.47,4.87,14.46,12.85,18.12,17.62C362.06,134.59,341.93,132.19,333.06,127.93Z"/><path class="cls-10" d="M337.07,156a4.17,4.17,0,0,1-1-.11,4.5,4.5,0,0,1-3.41-5.38c3.68-16.33-9.63-27.47-17.83-32.63-3.19-2,3.69-8.5,7-6.21,11.5,8,23.82,22.21,19.63,40.82A4.49,4.49,0,0,1,337.07,156Z"/><path class="cls-16" d="M305.82,108.82c0,4.12,7.33,12.2,13.12,16.12,4.29-4.12,8.32-6.87,10.93-10.5-2.61-3.5-10.93-7.37-10.93-7.37"/><path class="cls-10" d="M313.25,70.12c6.63,15-.7,32.76-16.36,39.68-6.61,2.92-13.79,6-20.22,4.54-8.79-2-14.45-11-18.27-19.69-6.63-15-1.16-32.23,14.5-39.15S306.63,55.12,313.25,70.12Z"/><path class="cls-17" d="M282.4,51.82c-2.52-.7-10.08,1.25-15.84,5.5-5.29,3.9-8.82,9.92-10.93,14-4.4,8.5-4.4,14.66-4.4,21,2.22-3.15,3-4,3.33-7.34,1.07,9.17,3.34,15,6,18,.34-5.66.84-11.5.84-11.5s4,11.84,8.33,15.59a69.85,69.85,0,0,0-.92-10.92s11.65,2,14.25,14.33c1.23-.79,1-2.83,1-2.83s2.63,3.32,5,4c1.43-.45,1.43-2.67,1.43-2.67a13.69,13.69,0,0,0,3.17,2.23c5.85-1.15,16.58-7.72,20.42-17.23,4.14-10.25,1-23.66-2.85-29.66C303.73,52.74,285.66,49.65,282.4,51.82Z"/><path class="cls-10" d="M270,99.92a4.33,4.33,0,0,1,.79-3.69c1.82-2.18,5.81-1.85,8.93.75s4.16,6.46,2.35,8.65a4.5,4.5,0,0,1-3.79,1.43"/><path class="cls-8" d="M277.23,47.82s3.83.66,5.17,4c1.24-3.17,5.33-4,5.33-4"/><path class="cls-1" d="M362.86,238.07l43.31-14.62L426.35,247a2.19,2.19,0,0,1-1,3.5l-43.28,14.61a4.67,4.67,0,0,1-5.28-1.71l-15.27-21.33A2.63,2.63,0,0,1,362.86,238.07Z"/><path class="cls-18" d="M413.67,242.12h0l-.12-.47-.12-.45-23.31-87.08a16.23,16.23,0,0,1-10.1,0l-.26-.18L372.69,244a6.63,6.63,0,0,0-.13,1.72c.47,6.12,10.07,10.38,21.44,9.5s20.21-6.54,19.74-12.66C413.73,242.4,413.69,242.26,413.67,242.12Z"/><path class="cls-3" d="M390.16,154.12,386.38,140a2.81,2.81,0,0,0-5.52.45l-1.06,13.48.26.18A16.23,16.23,0,0,0,390.16,154.12Z"/><ellipse class="cls-4" cx="391.11" cy="181.49" rx="3.13" ry="2.72" transform="matrix(0.5, -0.87, 0.87, 0.5, 38.38, 429.45)"/><ellipse class="cls-4" cx="394.1" cy="205.52" rx="3.13" ry="2.61" transform="translate(-23.69 357.2) rotate(-47.5)"/><ellipse class="cls-4" cx="397.6" cy="228.95" rx="3.13" ry="2.63" transform="translate(-9.21 441.11) rotate(-57.48)"/><polygon class="cls-5" points="366.62 82.51 382.39 82.45 378.47 191.56 366.62 82.51"/><polygon class="cls-6" points="362.6 80.29 367.35 82.91 379.48 201.41 374.23 196.41 362.6 80.29"/><polygon class="cls-5" points="370.19 152.45 363.32 153.29 363.32 154.45 367.65 157.45 375.25 157.12 375.25 156.04 370.19 152.45"/><polygon class="cls-5" points="371.19 164.04 364.32 164.87 364.32 166.04 368.65 169.04 376.25 168.7 376.25 167.62 371.19 164.04"/><polygon class="cls-5" points="371.95 175.12 365.07 175.95 365.07 177.12 369.4 180.12 377.01 179.79 377.01 178.7 371.95 175.12"/><polygon class="cls-5" points="373.5 186.2 366.62 187.04 366.62 188.2 370.95 191.2 378.56 190.87 378.56 189.79 373.5 186.2"/><polygon class="cls-5" points="374.42 196.79 367.54 197.62 367.54 198.79 371.87 201.79 379.48 201.45 379.48 200.37 374.42 196.79"/><path class="cls-1" d="M362.86,238.07l43.31-14.62L426.35,247a2.19,2.19,0,0,1-1,3.5l-43.28,14.61a4.67,4.67,0,0,1-5.28-1.71l-15.27-21.33A2.63,2.63,0,0,1,362.86,238.07Z"/><path class="cls-18" d="M413.67,242.12h0l-.12-.47-.12-.45-23.31-87.08a16.23,16.23,0,0,1-10.1,0l-.26-.18L372.69,244a6.63,6.63,0,0,0-.13,1.72c.47,6.12,10.07,10.38,21.44,9.5s20.21-6.54,19.74-12.66C413.73,242.4,413.69,242.26,413.67,242.12Z"/><path class="cls-3" d="M390.16,154.12,386.38,140a2.81,2.81,0,0,0-5.52.45l-1.06,13.48.26.18A16.23,16.23,0,0,0,390.16,154.12Z"/><ellipse class="cls-4" cx="391.11" cy="181.49" rx="3.13" ry="2.72" transform="matrix(0.5, -0.87, 0.87, 0.5, 38.38, 429.45)"/><ellipse class="cls-4" cx="394.1" cy="205.52" rx="3.13" ry="2.61" transform="translate(-23.69 357.2) rotate(-47.5)"/><ellipse class="cls-4" cx="397.6" cy="228.95" rx="3.13" ry="2.63" transform="translate(-9.21 441.11) rotate(-57.48)"/><polygon class="cls-5" points="366.62 82.51 382.39 82.45 378.47 191.56 366.62 82.51"/><polygon class="cls-6" points="362.6 80.29 367.35 82.91 379.48 201.41 374.23 196.41 362.6 80.29"/><polygon class="cls-5" points="370.19 152.45 363.32 153.29 363.32 154.45 367.65 157.45 375.25 157.12 375.25 156.04 370.19 152.45"/><polygon class="cls-5" points="371.19 164.04 364.32 164.87 364.32 166.04 368.65 169.04 376.25 168.7 376.25 167.62 371.19 164.04"/><polygon class="cls-5" points="371.95 175.12 365.07 175.95 365.07 177.12 369.4 180.12 377.01 179.79 377.01 178.7 371.95 175.12"/><polygon class="cls-5" points="374.42 196.79 367.54 197.62 367.54 198.79 371.87 201.79 379.48 201.45 379.48 200.37 374.42 196.79"/><polygon class="cls-7" points="367.35 82.91 382.39 82.45 362.6 80.29 367.35 82.91"/><polygon class="cls-5" points="364.68 93.87 357.81 94.7 357.81 95.87 362.14 98.87 369.74 98.54 369.74 97.45 364.68 93.87"/><polygon class="cls-5" points="365.6 105.95 358.73 106.79 358.73 107.95 363.06 110.95 370.66 110.62 370.66 109.54 365.6 105.95"/><polygon class="cls-5" points="366.27 118.04 359.39 118.87 359.39 120.04 363.73 123.04 371.33 122.7 371.33 121.62 366.27 118.04"/><polygon class="cls-5" points="367.53 129.79 360.65 130.62 360.65 131.79 364.99 134.79 372.59 134.45 372.59 133.37 367.53 129.79"/><polygon class="cls-5" points="369.19 141.54 362.32 142.37 362.32 143.54 366.65 146.54 374.25 146.2 374.25 145.12 369.19 141.54"/><path class="cls-8" d="M426.35,247l-16.48-19.24-19.71-73.65L386.38,140a2.81,2.81,0,0,0-5.52.45l-1,12.93,2.55-70.94L362.6,80.29l.14,1.43-.14-.1-6.87.83v1.17l4.33,3,3.16-.14L364,94l-6.16.74v1.17l4.33,3,2.31-.1.73,7.23-6.45.79V108l4.33,3,2.6-.11.73,7.28-.12-.08-6.88.83V120l4.34,3,3.14-.14.69,6.91,0,0-6.88.83v1.17l4.34,3,3.05-.14.7,6.94-6.42.78v1.17l4.33,3,2.57-.12.61,6.08-6.51.79v1.16l4.33,3,2.66-.11.68,6.72-6.67.81V166l4.33,3,2.82-.13.64,6.32-.16-.11-6.88.83v1.17l4.33,3,3.18-.14.63,6.26-6.59.8v1.16l4.33,3,2.74-.12.54,5.33,1,.94-.79-.56-6.88.83v1.17l4.33,3,4.17-.19-2.6,32.89-10.58,3.58a2.63,2.63,0,0,0-1.3,4l15.27,21.33a4.67,4.67,0,0,0,5.28,1.71l43.28-14.61A2.19,2.19,0,0,0,426.35,247Z"/><path class="cls-19" d="M381.39,113.19a3,3,0,0,1-2.14-.87L282.66,16.91a3,3,0,0,1,4.22-4.27l96.58,95.41a3,3,0,0,1-2.07,5.14Z"/><path class="cls-9" d="M361.53,175.71,386,203.79a3.32,3.32,0,0,1-.22,4.55,3,3,0,0,1-2.21.84,3,3,0,0,1-2.16-1l-25.21-28.88"/><polygon class="cls-5" points="373.5 186.2 366.62 187.04 366.62 188.2 370.95 191.2 378.56 190.87 378.56 189.79 373.5 186.2"/><path class="cls-20" d="M282.48,180.09s-62-25.77-133.21-3.91"/><path class="cls-21" d="M137.85,180.09c4.71-3.81,10.24-9.47,13.17-14.47l-.23,10.11,6.29,7.92C151.73,181.43,143.9,180.27,137.85,180.09Z"/><path class="cls-20" d="M271.05,210.93c-22.62,6.68-75.9,17.72-133.2-3.87"/><path class="cls-21" d="M282.48,207.06c-6.05-.2-13.88-1.38-19.23-3.61l6.28,7.93-.25,10.11C272.22,216.5,277.76,210.85,282.48,207.06Z"/><path class="cls-5" d="M117.94,7.75V9.08l.12-.11,6.12.12.12,1.06-3.52,3.14-2.8.17.07,6.89,5.49.1.11,1.07-3.52,3.14-2,.12.07,6.67,5.75.11.11,1.06-3.52,3.14-2.3.14.07,6.71.1-.09,6.12.12.12,1.06-3.52,3.15-2.78.16.06,6.37,0,0,6.12.11.12,1.07-3.52,3.14-2.7.16.06,6.4,5.72.11.11,1.06-3.52,3.14-2.27.14.06,5.59,5.8.11.11,1.07L121,78.6l-2.35.14.06,6.2,5.94.11.12,1.07-3.52,3.14-2.5.15.06,5.82.13-.12,6.13.12.11,1.06-3.52,3.14-2.81.17.06,5.77,5.87.11.11,1.07-3.52,3.14-2.42.14,0,4.91-.77,1,.64-.59,6.13.12.11,1.06-3.52,3.14-3.34.21,4.11,21.55,8.92,2a2.15,2.15,0,0,1,1.41,3.15L122.17,165a3.81,3.81,0,0,1-3.32,1.94,3.88,3.88,0,0,1-.82-.09l-36.46-8a1.79,1.79,0,0,1-1.09-2.76L92.15,139l9.44-61.59,1.8-11.8a2.3,2.3,0,0,1,4.53-.12l1.77,9.31-9-63.19,17.2-3.83m0-1a.78.78,0,0,0-.22,0l-17.19,3.83a1,1,0,0,0-.78,1.11L107,62.9a3.4,3.4,0,0,0-1.33-.27,3.24,3.24,0,0,0-3.26,2.8l-1.81,11.8L91.19,138.6,79.65,155.51a2.79,2.79,0,0,0,1.71,4.3l36.46,8a5.07,5.07,0,0,0,1,.11,4.81,4.81,0,0,0,4.19-2.45l10.5-18.69a3.15,3.15,0,0,0-2.07-4.62l-8.27-1.81-3.77-19.79,2.2-.14a1,1,0,0,0,.61-.25l3.52-3.14a1,1,0,0,0,.33-.85l-.12-1.07a1,1,0,0,0-1-.89l-5-.1,0-3.35,1.47-.08a1.05,1.05,0,0,0,.61-.26l3.52-3.14a1,1,0,0,0,.33-.85l-.12-1.06a1,1,0,0,0-1-.9l-4.9-.09,0-3.84,1.86-.12a1,1,0,0,0,.61-.25L125.83,97a1,1,0,0,0,.33-.85L126,95.12a1,1,0,0,0-1-.89l-5.29-.1,0-3.78,1.55-.09a1.05,1.05,0,0,0,.6-.26l3.52-3.14a1,1,0,0,0,.33-.85L125.63,85a1,1,0,0,0-1-.9l-5-.09,0-4.28,1.4-.08a1,1,0,0,0,.61-.25l3.52-3.15a1,1,0,0,0,.33-.85l-.12-1.06a1,1,0,0,0-1-.9l-4.83-.09,0-3.67,1.32-.08a1,1,0,0,0,.61-.25L125,66.16a1,1,0,0,0,.33-.86l-.12-1.06a1,1,0,0,0-1-.89l-4.75-.09,0-4.48,1.75-.1a1.08,1.08,0,0,0,.6-.25l3.52-3.15a1,1,0,0,0,.33-.85l-.11-1.06a1,1,0,0,0-1-.9l-5.18-.09,0-4.43,1.83-.11a1,1,0,0,0,.6-.25l3.52-3.14a1,1,0,0,0,.33-.85l-.11-1.07a1,1,0,0,0-1-.89l-5.25-.1,0-4.7,1.35-.08a1,1,0,0,0,.61-.25l3.52-3.14a1,1,0,0,0,.32-.85l-.11-1.07a1,1,0,0,0-1-.89l-4.78-.09,0-4.75,1.09-.06a1.05,1.05,0,0,0,.61-.26l3.52-3.14a1,1,0,0,0,.33-.85l-.12-1.06a1,1,0,0,0-1-.9l-4.52-.08,0-5,1.85-.11a1,1,0,0,0,.6-.25L125,10.9a1,1,0,0,0,.33-.85L125.19,9a1,1,0,0,0-1-.89L118.94,8V7.74a1,1,0,0,0-1-1Z"/><path class="cls-1" d="M131.26,143.14l-36.49-8L80.48,156.07a1.79,1.79,0,0,0,1.09,2.76l36.46,8a3.81,3.81,0,0,0,4.14-1.85l10.5-18.69A2.15,2.15,0,0,0,131.26,143.14Z"/><path class="cls-22" d="M90.34,151h0l.06-.39c0-.12,0-.25,0-.37l11.17-72.83a13.18,13.18,0,0,0,8.2-.9l.19-.17,13.81,72.52a5,5,0,0,1,.27,1.38c.16,5-7.26,9.33-16.57,9.64s-17-3.51-17.17-8.53C90.32,151.2,90.34,151.09,90.34,151Z"/><path class="cls-3" d="M101.59,77.38l1.8-11.8a2.3,2.3,0,0,1,4.53-.12L110,76.31l-.19.17A13.18,13.18,0,0,1,101.59,77.38Z"/><ellipse class="cls-4" cx="103.26" cy="99.7" rx="2.22" ry="2.56" transform="translate(-38.98 80.41) rotate(-36.27)"/><ellipse class="cls-4" cx="102.97" cy="119.49" rx="2.13" ry="2.56" transform="translate(-54.76 118.2) rotate(-48.78)"/><ellipse class="cls-4" cx="102.22" cy="138.84" rx="2.15" ry="2.56" transform="translate(-64.44 94.67) rotate(-38.79)"/><polygon class="cls-5" points="114.62 10.16 100.74 11.58 114.78 110.72 114.62 10.16"/><polygon class="cls-6" points="117.94 7.75 114.02 10.59 114.85 119.79 118.98 114.74 117.94 7.75"/><polygon class="cls-5" points="118.26 74.28 124.39 74.39 124.5 75.46 120.98 78.6 114.26 79.01 114.16 78.02 118.26 74.28"/><polygon class="cls-5" points="118.51 84.94 124.63 85.05 124.75 86.12 121.23 89.26 114.51 89.66 114.4 88.68 118.51 84.94"/><polygon class="cls-5" points="118.92 95.11 125.05 95.23 125.16 96.29 121.64 99.44 114.92 99.84 114.82 98.85 118.92 95.11"/><polygon class="cls-5" points="118.63 105.36 124.76 105.48 124.87 106.55 121.35 109.69 114.64 110.09 114.53 109.11 118.63 105.36"/><polygon class="cls-5" points="118.85 115.1 124.98 115.22 125.09 116.28 121.57 119.42 114.85 119.83 114.75 118.84 118.85 115.1"/><polygon class="cls-5" points="114.62 10.16 100.74 11.58 114.78 110.72 114.62 10.16"/><polygon class="cls-6" points="117.94 7.75 114.02 10.59 114.85 119.79 118.98 114.74 117.94 7.75"/><polygon class="cls-5" points="118.26 74.28 124.39 74.39 124.5 75.46 120.98 78.6 114.26 79.01 114.16 78.02 118.26 74.28"/><polygon class="cls-5" points="118.51 84.94 124.63 85.05 124.75 86.12 121.23 89.26 114.51 89.66 114.4 88.68 118.51 84.94"/><polygon class="cls-5" points="118.92 95.11 125.05 95.23 125.16 96.29 121.64 99.44 114.92 99.84 114.82 98.85 118.92 95.11"/><polygon class="cls-5" points="118.63 105.36 124.76 105.48 124.87 106.55 121.35 109.69 114.64 110.09 114.53 109.11 118.63 105.36"/><polygon class="cls-5" points="118.85 115.1 124.98 115.22 125.09 116.28 121.57 119.42 114.85 119.83 114.75 118.84 118.85 115.1"/><polygon class="cls-7" points="114.02 10.59 100.74 11.58 117.94 7.75 114.02 10.59"/><polygon class="cls-5" points="118.07 8.97 124.19 9.09 124.31 10.15 120.79 13.29 114.07 13.7 113.97 12.71 118.07 8.97"/><polygon class="cls-5" points="117.42 20.34 123.55 20.45 123.66 21.52 120.14 24.66 113.43 25.07 113.32 24.08 117.42 20.34"/><polygon class="cls-5" points="117.79 31.44 123.92 31.56 124.03 32.62 120.51 35.76 113.79 36.17 113.69 35.18 117.79 31.44"/><polygon class="cls-5" points="118.38 42.52 124.5 42.64 124.61 43.7 121.1 46.85 114.38 47.25 114.27 46.27 118.38 42.52"/><polygon class="cls-5" points="118.41 53.36 124.53 53.47 124.65 54.54 121.13 57.68 114.41 58.09 114.31 57.1 118.41 53.36"/><polygon class="cls-5" points="118.08 64.23 124.21 64.34 124.32 65.41 120.8 68.55 114.08 68.96 113.98 67.97 118.08 64.23"/><path class="cls-1" d="M82.11,238.47l-45-8.21L20.58,256.49A2.19,2.19,0,0,0,22,259.82L67,268a4.68,4.68,0,0,0,5-2.45l12-23.32A2.62,2.62,0,0,0,82.11,238.47Z"/><path class="cls-23" d="M32.42,249.83h-.05l.06-.48c0-.16,0-.31,0-.46L43,159.35a16.16,16.16,0,0,0,10-1.46l.24-.21,20,88.07a6.11,6.11,0,0,1,.38,1.68c.43,6.13-8.46,11.73-19.84,12.51s-20.94-3.55-21.36-9.68C32.4,250.11,32.42,250,32.42,249.83Z"/><path class="cls-3" d="M43,159.35l1.7-14.51a2.81,2.81,0,0,1,5.52-.35l3,13.19-.24.21A16.16,16.16,0,0,1,43,159.35Z"/><ellipse class="cls-4" cx="45.98" cy="186.57" rx="2.72" ry="3.13" transform="matrix(0.78, -0.62, 0.62, 0.78, -105.76, 68.68)"/><ellipse class="cls-4" cx="46.49" cy="210.78" rx="2.61" ry="3.13" transform="translate(-146.27 113.65) rotate(-50.82)"/><ellipse class="cls-4" cx="46.41" cy="234.47" rx="2.63" ry="3.13" transform="matrix(0.76, -0.65, 0.65, 0.76, -142.02, 87.42)"/><polygon class="cls-5" points="55.9 85.09 40.28 87.31 59.94 194.71 55.9 85.09"/><polygon class="cls-6" points="59.55 82.31 55.23 85.59 60.37 204.6 64.84 198.89 59.55 82.31"/><polygon class="cls-5" points="62.47 154.81 69.39 154.65 69.56 155.8 65.71 159.39 58.14 160.16 57.98 159.09 62.47 154.81"/><polygon class="cls-5" points="63.16 166.42 70.08 166.25 70.25 167.41 66.39 171 58.83 171.77 58.67 170.7 63.16 166.42"/><polygon class="cls-5" points="64.02 177.5 70.94 177.33 71.11 178.48 67.25 182.08 59.68 182.84 59.53 181.77 64.02 177.5"/><polygon class="cls-5" points="64.08 188.69 71.01 188.52 71.18 189.67 67.32 193.27 59.75 194.04 59.6 192.96 64.08 188.69"/><polygon class="cls-5" points="64.7 199.29 71.63 199.12 71.8 200.28 67.94 203.87 60.37 204.64 60.22 203.57 64.7 199.29"/><path class="cls-1" d="M82.11,238.47l-45-8.21L20.58,256.49A2.19,2.19,0,0,0,22,259.82L67,268a4.68,4.68,0,0,0,5-2.45l12-23.32A2.62,2.62,0,0,0,82.11,238.47Z"/><path class="cls-23" d="M32.42,249.83h-.05l.06-.48c0-.16,0-.31,0-.46L43,159.35a16.16,16.16,0,0,0,10-1.46l.24-.21,20,88.07a6.11,6.11,0,0,1,.38,1.68c.43,6.13-8.46,11.73-19.84,12.51s-20.94-3.55-21.36-9.68C32.4,250.11,32.42,250,32.42,249.83Z"/><path class="cls-3" d="M43,159.35l1.7-14.51a2.81,2.81,0,0,1,5.52-.35l3,13.19-.24.21A16.16,16.16,0,0,1,43,159.35Z"/><ellipse class="cls-4" cx="45.98" cy="186.57" rx="2.72" ry="3.13" transform="matrix(0.78, -0.62, 0.62, 0.78, -105.76, 68.68)"/><ellipse class="cls-4" cx="46.49" cy="210.78" rx="2.61" ry="3.13" transform="translate(-146.27 113.65) rotate(-50.82)"/><ellipse class="cls-4" cx="46.41" cy="234.47" rx="2.63" ry="3.13" transform="matrix(0.76, -0.65, 0.65, 0.76, -142.02, 87.42)"/><polygon class="cls-5" points="55.9 85.09 40.28 87.31 59.94 194.71 55.9 85.09"/><polygon class="cls-6" points="59.55 82.31 55.23 85.59 60.37 204.6 64.84 198.89 59.55 82.31"/><polygon class="cls-5" points="62.47 154.81 69.39 154.65 69.56 155.8 65.71 159.39 58.14 160.16 57.98 159.09 62.47 154.81"/><polygon class="cls-5" points="63.16 166.42 70.08 166.25 70.25 167.41 66.39 171 58.83 171.77 58.67 170.7 63.16 166.42"/><polygon class="cls-5" points="64.02 177.5 70.94 177.33 71.11 178.48 67.25 182.08 59.68 182.84 59.53 181.77 64.02 177.5"/><polygon class="cls-5" points="64.08 188.69 71.01 188.52 71.18 189.67 67.32 193.27 59.75 194.04 59.6 192.96 64.08 188.69"/><polygon class="cls-5" points="64.7 199.29 71.63 199.12 71.8 200.28 67.94 203.87 60.37 204.64 60.22 203.57 64.7 199.29"/><polygon class="cls-7" points="55.23 85.59 40.28 87.31 59.55 82.31 55.23 85.59"/><polygon class="cls-5" points="59.45 96.05 66.38 95.88 66.55 97.03 62.69 100.63 55.12 101.4 54.97 100.33 59.45 96.05"/><polygon class="cls-5" points="60.3 108.14 67.22 107.97 67.39 109.12 63.53 112.72 55.96 113.49 55.81 112.42 60.3 108.14"/><polygon class="cls-5" points="61.38 120.19 68.31 120.02 68.47 121.18 64.62 124.77 57.05 125.54 56.89 124.47 61.38 120.19"/><polygon class="cls-5" points="61.83 132 68.76 131.83 68.92 132.99 65.07 136.58 57.5 137.35 57.34 136.28 61.83 132"/><polygon class="cls-5" points="61.88 143.87 68.81 143.7 68.97 144.85 65.12 148.45 57.55 149.22 57.39 148.15 61.88 143.87"/><path class="cls-8" d="M20.58,256.49,34.1,235.08,43,159.35l1.7-14.51a2.81,2.81,0,0,1,5.52-.35l2.88,12.64L40.28,87.31l19.27-5,.07,1.44.13-.12,6.92-.17.17,1.15L63,88.21l-3.15.32.34,7.5,6.21-.15L66.55,97l-3.86,3.6-2.3.23.33,7.27,6.5-.16.17,1.15-3.86,3.6-2.59.26.33,7.31.11-.1,6.93-.17.16,1.16-3.85,3.59-3.13.32.32,6.94,0,0,6.93-.17.17,1.16-3.86,3.59-3,.31.31,7,6.47-.16.16,1.15-3.85,3.6-2.56.26.28,6.1,6.56-.16.16,1.15-3.85,3.59-2.65.27.31,6.76,6.71-.17.17,1.16L66.39,171l-2.8.29.28,6.34.15-.13,6.92-.17.17,1.15-3.86,3.6-3.16.32.29,6.28,6.63-.16.17,1.15-3.86,3.6-2.72.27.24,5.35L64,200l.71-.67,6.92-.17.17,1.16-3.86,3.59-4.14.42,7.32,32.17,11,2A2.62,2.62,0,0,1,84,242.25L72,265.57A4.68,4.68,0,0,1,67,268L22,259.82A2.19,2.19,0,0,1,20.58,256.49Z"/><path class="cls-19" d="M43.87,119.71a3,3,0,0,0,2-1.17L127.45,10a3,3,0,1,0-4.79-3.61L41.07,114.94a3,3,0,0,0,.6,4.2A3,3,0,0,0,43.87,119.71Z"/><path class="cls-9" d="M78,184.23l56.6-88.15a3.32,3.32,0,0,0-.88-4.47,3,3,0,0,0-4.3.84L72.28,181.5"/><path class="cls-9" d="M72.28,181.5,52.14,212.86a3.32,3.32,0,0,0,.88,4.47,3,3,0,0,0,2.31.51,3,3,0,0,0,2-1.35L78,184.23"/><polygon class="cls-5" points="59.74 83.63 66.67 83.46 66.84 84.61 62.98 88.21 55.41 88.98 55.26 87.91 59.74 83.63"/><polygon class="cls-5" points="118.07 8.97 124.19 9.09 124.31 10.15 120.79 13.29 114.07 13.7 113.97 12.71 118.07 8.97"/><polygon class="cls-5" points="118.63 105.36 124.76 105.48 124.87 106.55 121.35 109.69 114.64 110.09 114.53 109.11 118.63 105.36"/><polygon class="cls-5" points="64.08 188.69 71.01 188.52 71.18 189.67 67.32 193.27 59.75 194.04 59.6 192.96 64.08 188.69"/><polygon class="cls-5" points="362.6 81.62 355.73 82.45 355.73 83.62 360.06 86.62 367.66 86.29 367.66 85.2 362.6 81.62"/><polygon class="cls-5" points="294.1 16.18 288.05 17.18 288.1 18.25 292.03 20.85 298.74 20.28 298.7 19.29 294.1 16.18"/></svg>