<svg id="レイヤー_1" data-name="レイヤー 1" xmlns="http://www.w3.org/2000/svg" xmlns:xlink="http://www.w3.org/1999/xlink" viewBox="0 0 218 218"><defs><style>.cls-1,.cls-20{fill:none;}.cls-2{clip-path:url(#clip-path);}.cls-3{clip-path:url(#clip-path-2);}.cls-4{fill:#9b7656;}.cls-5{clip-path:url(#clip-path-3);}.cls-6{fill:#fff1e1;}.cls-7{clip-path:url(#clip-path-4);}.cls-8{fill:#40220f;}.cls-9{fill:#036eb7;}.cls-10{fill:#f29600;}.cls-11{fill:#03632c;}.cls-12{fill:#00a148;}.cls-13,.cls-14{fill:#42210b;}.cls-14,.cls-15,.cls-16,.cls-17,.cls-18,.cls-19,.cls-20{stroke:#42210b;stroke-linecap:round;stroke-linejoin:round;stroke-width:2px;}.cls-15{fill:#f5dcbe;}.cls-16{fill:#fff;}.cls-17{fill:#2c3493;}.cls-18{fill:#534741;}.cls-19{fill:#e60012;}.cls-21{clip-path:url(#clip-path-5);}.cls-22{fill:#015123;}.cls-23{clip-path:url(#clip-path-6);}</style><clipPath id="clip-path"><rect id="SVGID" class="cls-1" x="246" y="-469" width="200" height="200" rx="10"/></clipPath><clipPath id="clip-path-2"><rect id="SVGID-2" data-name="SVGID" class="cls-1" x="-55.76" y="-537" width="568.77" height="326.6"/></clipPath><clipPath id="clip-path-3"><rect id="SVGID-3" data-name="SVGID" class="cls-1" x="-229" y="-230" width="200" height="200" rx="10"/></clipPath><clipPath id="clip-path-4"><rect id="SVGID-4" data-name="SVGID" class="cls-1" x="248.06" y="-228.56" width="200" height="200" rx="10"/></clipPath><clipPath id="clip-path-5"><rect id="SVGID-5" data-name="SVGID" class="cls-1" x="-229" y="9" width="200" height="200" rx="10"/></clipPath><clipPath id="clip-path-6"><rect id="SVGID-6" data-name="SVGID" class="cls-1" x="8.02" y="260.04" width="200" height="200" rx="10"/></clipPath></defs><title>2-2-2 まわる</title><g class="cls-2"><g class="cls-3"><path class="cls-4" d="M395.61-325l-.5-1.12-1.65.75L201-358.27l-.27-.05-380.4,66-2.12.37L-18.46,55.32l.85,1.81L479.12-310.68ZM279-341.61l46.95,8-455,145.94-21.51-45.75L279.05-341.21ZM-152-236.4-165.95-266,235.8-349l36.14,6.18Zm484.92-96,55.2,9.44L-91-106.72l-36.64-77.92ZM200.75-355l26.18,4.48L-167.39-269.1-177-289.46ZM-89.63-103.75,393.9-321.94,471-308.74-16.34,52.11Z"/></g></g><g class="cls-5"><ellipse class="cls-6" cx="-122.96" cy="-126.98" rx="173.57" ry="160.5"/></g><g class="cls-7"><path class="cls-8" d="M225.79-129h.06a3.49,3.49,0,0,1,3.42,3.58l-3,131.53a3.49,3.49,0,0,1-3.49,3.42h-.08a3.49,3.49,0,0,1-3.42-3.58l3-131.53a3.51,3.51,0,0,1,3.52-3.42m0-2h0a5.48,5.48,0,0,0-5.52,5.37l-3,131.54a5.5,5.5,0,0,0,5.37,5.62h.13a5.52,5.52,0,0,0,5.49-5.37l3-131.54a5.48,5.48,0,0,0-1.52-3.92,5.44,5.44,0,0,0-3.85-1.7Z"/><path class="cls-9" d="M345.55,30.19a4.45,4.45,0,0,1-1.09-.13L181.53-10.62a4.45,4.45,0,0,1-2.76-2.05,4.48,4.48,0,0,1-.51-3.41,4.49,4.49,0,0,1,4.36-3.41,4.4,4.4,0,0,1,1.09.14L346.64,21.33a4.49,4.49,0,0,1,2.77,2.05,4.41,4.41,0,0,1,.5,3.4A4.48,4.48,0,0,1,345.55,30.19Z"/><path class="cls-8" d="M182.62-18.49a3.54,3.54,0,0,1,.85.11L346.4,22.3a3.5,3.5,0,0,1-.85,6.89,3.58,3.58,0,0,1-.85-.1L181.78-11.59a3.5,3.5,0,0,1-2.55-4.24,3.52,3.52,0,0,1,3.39-2.66m0-2h0a5.49,5.49,0,0,0-5.33,4.17,5.44,5.44,0,0,0,.62,4.17,5.46,5.46,0,0,0,3.38,2.5L344.22,31a5.38,5.38,0,0,0,1.33.16,5.5,5.5,0,0,0,4.71-8.33,5.4,5.4,0,0,0-3.38-2.5L184-20.32a5.53,5.53,0,0,0-1.34-.17Z"/><path class="cls-10" d="M344.16,86.87a4.51,4.51,0,0,1-4.39-4.6L343.25-72.1,189.13-104.34,186,35.82a4.49,4.49,0,0,1-4.43,4.4h-.19a4.51,4.51,0,0,1-4.38-4.6l3.27-145.57a4.48,4.48,0,0,1,1.7-3.42,4.54,4.54,0,0,1,2.8-1,4.7,4.7,0,0,1,.92.09L348.75-80.14a4.51,4.51,0,0,1,3.58,4.51l-3.56,158.1a4.52,4.52,0,0,1-4.49,4.4Z"/><path class="cls-8" d="M184.75-113.35a3.51,3.51,0,0,1,.72.07L348.55-79.16a3.5,3.5,0,0,1,2.78,3.51l-3.56,158.1a3.5,3.5,0,0,1-3.49,3.42h-.09a3.51,3.51,0,0,1-3.42-3.58l3.5-155.19L188.16-105.56,185,35.8a3.47,3.47,0,0,1-3.43,3.42h-.15A3.5,3.5,0,0,1,178,35.64l3.27-145.57a3.51,3.51,0,0,1,1.33-2.66,3.46,3.46,0,0,1,2.17-.76m0-2h0a5.53,5.53,0,0,0-3.42,1.19,5.52,5.52,0,0,0-2.08,4.19L176,35.6a5.52,5.52,0,0,0,5.38,5.62h.19A5.5,5.5,0,0,0,187,35.85l3.12-139L342.23-71.29,338.77,82.24a5.52,5.52,0,0,0,5.38,5.63h.13a5.52,5.52,0,0,0,5.49-5.38l3.56-158.1A5.51,5.51,0,0,0,349-81.12L185.88-115.23a5.35,5.35,0,0,0-1.13-.12Z"/><path class="cls-9" d="M345.55,29.19a3.58,3.58,0,0,1-.85-.1L181.78-11.59a3.5,3.5,0,0,1-2.55-4.24,3.5,3.5,0,0,1,4.24-2.55L346.4,22.3a3.5,3.5,0,0,1-.85,6.89Z"/><path class="cls-10" d="M344.28,85.87h-.09a3.51,3.51,0,0,1-3.42-3.58l3.5-155.19L188.16-105.56,185,35.8a3.5,3.5,0,0,1-7-.16l3.27-145.57a3.51,3.51,0,0,1,1.33-2.66,3.49,3.49,0,0,1,2.89-.69L348.55-79.16a3.5,3.5,0,0,1,2.78,3.51l-3.56,158.1A3.5,3.5,0,0,1,344.28,85.87Z"/></g><path class="cls-11" d="M205.68,92.93,73.05,199.66a12.67,12.67,0,0,1-17.78-1.92L13.53,145.87A12.49,12.49,0,0,1,11,140.42a26.22,26.22,0,0,1-.18-8.52L148.07,21.36a12.69,12.69,0,0,1,17.79,1.92l44.52,55.13a21.82,21.82,0,0,1-.8,9.1A12.64,12.64,0,0,1,205.68,92.93Z"/><rect class="cls-12" x="12.8" y="59.76" width="195.53" height="91.87" rx="11.82" transform="translate(-41.84 92.67) rotate(-38.83)"/><path class="cls-13" d="M156,13.76a12.65,12.65,0,0,1,9.87,4.7L207.6,70.33a12.56,12.56,0,0,1,2.78,8.08,21.81,21.81,0,0,1-.8,9.1,12.64,12.64,0,0,1-3.9,5.42L73.05,199.66a12.5,12.5,0,0,1-7.91,2.78,12.65,12.65,0,0,1-9.87-4.7L13.53,145.87A12.49,12.49,0,0,1,11,140.42a26.22,26.22,0,0,1-.18-8.52h0a12.64,12.64,0,0,1,4.64-8.63L148.07,16.54A12.61,12.61,0,0,1,156,13.76m0-2A14.65,14.65,0,0,0,146.82,15L14.2,121.72a14.46,14.46,0,0,0-5.36,9.86A28,28,0,0,0,9,140.81a14.76,14.76,0,0,0,3,6.32L53.71,199a14.69,14.69,0,0,0,20.6,2.23L206.93,94.49a14.64,14.64,0,0,0,4.53-6.28,23.43,23.43,0,0,0,.92-9.92,14.65,14.65,0,0,0-3.22-9.21L167.42,17.21A14.62,14.62,0,0,0,156,11.76Z"/><path class="cls-14" d="M148.06,150.86a6.23,6.23,0,0,1,3.65,2.39L140,167.44s-5.85-3.5-4-7.63,7.5-4.63,7.5-4.63S145.44,150.16,148.06,150.86Z"/><path class="cls-15" d="M113.68,121a3.92,3.92,0,0,0-.11,5.53L135,148.19l5.28-5-21-22A3.91,3.91,0,0,0,113.68,121Z"/><path class="cls-16" d="M142.59,155.91c.35,1.8,3.21,1.48,4.81,0,1.82-1.67,1.88-4.34.35-4.91l-7.51-7.86-5.28,5Z"/><path class="cls-14" d="M154.15,148.1a6.23,6.23,0,0,1,3.65,2.39L146,164.68s-5.85-3.5-4-7.63,7.5-4.63,7.5-4.63S151.53,147.41,154.15,148.1Z"/><path class="cls-15" d="M119.77,118.26a3.91,3.91,0,0,0-.11,5.53l21.39,21.64,5.28-5-21-22A3.91,3.91,0,0,0,119.77,118.26Z"/><path class="cls-16" d="M148.68,153.15c.35,1.8,3.21,1.48,4.8,0,1.83-1.67,1.89-4.34.36-4.91l-7.51-7.86-5.28,5Z"/><path class="cls-15" d="M89.15,105.1a3.86,3.86,0,0,1-1.87-.48C74.17,97.49,43,60.73,41.69,59.17a3.93,3.93,0,1,1,6-5.07C56.42,64.42,81.22,92.38,91,97.73a3.92,3.92,0,0,1-1.89,7.37Z"/><path class="cls-17" d="M107.4,122.87,122,137.79l4.36-4.25,1.25,1.15s6.9-4.53,10.58-10.68c-5.54-5.08-7.85-12-15.4-14.77Z"/><line class="cls-15" x1="126.36" y1="133.54" x2="118.19" y2="124.46"/><path class="cls-16" d="M78.71,102.87a27.25,27.25,0,0,0,17.35,3.57c10-1.34,1.61-10.83,1.61-10.83l-16-4.36Z"/><path class="cls-16" d="M86.41,94.49s12.55,20.9,21.09,30c9.44-5.71,16.94-15,16.94-15s-17.18-18.26-30-24.81Z"/><ellipse class="cls-15" cx="92.63" cy="96.36" rx="3.09" ry="3.93" transform="translate(-39.95 79.37) rotate(-38.83)"/><path class="cls-15" d="M103.74,65.64c3.05,5.45,4.58,11.62,3.07,16.55C104.92,88.36,98.85,93,92,96.86s-14.35,6.22-20.64,4.56c-4.94-1.3-8-5.7-11.06-11.09C53.44,78.05,56.76,62.76,69,55.88A25.48,25.48,0,0,1,103.74,65.64Z"/><path class="cls-18" d="M96.64,71.39a3.47,3.47,0,0,1,1.74-1.49c2.09-.81,4.59.63,5.59,3.21s.12,5.34-2,6.15a10.64,10.64,0,0,1,2.9,6.94,28.37,28.37,0,0,0,1.91-4c1.51-4.93,0-11.1-3.07-16.55A25.48,25.48,0,0,0,69,55.88C59,61.54,53,74.15,57.33,85l5,1.58,2.81-7.3,5.76,2.49,2.64-6.44,6.26,2.37,1.31-5.86,6.15,2.24,2.09-4.38Z"/><path class="cls-16" d="M96.64,71.39a3.47,3.47,0,0,1,1.74-1.49c2.09-.81,4.59.63,5.59,3.21l3,.71c1.27-1.57.31-7.85-1.35-10.81C98.69,50.74,80.19,45.93,67.92,52.82,57.83,58.47,52.82,71.6,55.6,80.09Z"/><path class="cls-15" d="M67.47,84.67a16,16,0,0,0,2.67,6.53c-1.88-.47-4.79,2.77-2.07,5.11,3.29,2.81,5.71-1.67,5.71-1.67"/><path class="cls-19" d="M81.91,93.58s1.11,3.69-1.48,5.14-5.16-1.41-5.16-1.41Z"/><ellipse class="cls-13" cx="63.84" cy="89.23" rx="2.18" ry="1.27" transform="translate(-44.91 74.72) rotate(-46.82)"/><ellipse class="cls-13" cx="84.54" cy="79.2" rx="2.18" ry="1.27" transform="translate(-14.35 18.87) rotate(-11.75)"/><path class="cls-20" d="M55.6,80.09S43.16,81.6,33.78,74.34"/><path class="cls-15" d="M101.06,90.87a3.93,3.93,0,0,1-3.69-2.58c-9.53-26-29.33-42.87-29.53-43a3.93,3.93,0,0,1,5.06-6c.87.74,21.61,18.4,31.85,46.35a3.93,3.93,0,0,1-2.34,5A4,4,0,0,1,101.06,90.87Z"/><path class="cls-16" d="M97.11,94.22l-5.51-15S96.18,76,104.33,76c4.23,8.65,4,19.59,4,19.59"/><path class="cls-20" d="M181,55.44c-14.36,1-25.66,6.93-28.33,15.71-.31,1-2.37,7.82,1.67,12.14,3.5,3.74,10.49,5.32,14,1.9,3.7-3.55,2.28-11.16-1.43-14.28-6.6-5.56-20.66,3-23.32,4.76A42.25,42.25,0,0,0,128,95"/><g class="cls-21"><path class="cls-13" d="M-41.79,74.62a13.89,13.89,0,0,1,4,.53l72,23.08c3,1,3.65,2.55,1.42,3.53L-152.6,185.28a20.15,20.15,0,0,1-8,1.68,10.41,10.41,0,0,1-6.32-1.68l-62.53-50c-.62-.5-.5-1-.45-1.75l.26-4L-45.86,75.15a14.5,14.5,0,0,1,4.07-.53m0-2a16.23,16.23,0,0,0-4.66.62l-183.76,54.42a2,2,0,0,0-1.43,1.79l-.26,4v.21a3.36,3.36,0,0,0,1.21,3.23l62.53,50A12.24,12.24,0,0,0-160.6,189a22.19,22.19,0,0,0,8.81-1.85L36.42,103.59c2.37-1,2.54-2.71,2.51-3.38-.07-1.19-.84-2.83-4.13-3.89l-72-23.08a15.82,15.82,0,0,0-4.63-.62Z"/><path class="cls-13" d="M-44.62,72.26a13.63,13.63,0,0,1,3.93.51L29.42,95c2.91.92,3.51,2.45,1.31,3.4l-185.08,79.49a20.11,20.11,0,0,1-7.78,1.58,10.22,10.22,0,0,1-6.12-1.58l-60.81-47.38c-1.73-1.35.45-3.52,4.77-4.82L-48.64,72.77a14.53,14.53,0,0,1,4-.51m0-2a16.68,16.68,0,0,0-4.6.59l-175.65,53c-2.29.69-6.2,2.26-6.73,5.08a3.27,3.27,0,0,0,1.31,3.23l60.81,47.38a12.1,12.1,0,0,0,7.35,2,22.2,22.2,0,0,0,8.57-1.74l185.08-79.5c2.39-1,2.57-2.68,2.53-3.34,0-1.17-.8-2.78-4-3.8L-40.08,70.86a15.61,15.61,0,0,0-4.54-.6Z"/><path class="cls-22" d="M-37.77,75.15l72,23.08c3,1,3.65,2.55,1.42,3.53L-152.6,185.28c-5,2.23-11.53,2.23-14.32,0l-62.53-50c-.62-.5-.5-1-.45-1.75l.26-4L-45.86,75.15A15.84,15.84,0,0,1-37.77,75.15Z"/><path class="cls-12" d="M-40.69,72.77,29.42,95c2.91.92,3.51,2.45,1.31,3.4l-185.08,79.49c-4.9,2.11-11.21,2.11-13.9,0l-60.81-47.38c-1.73-1.35.45-3.52,4.77-4.82L-48.64,72.77A15.74,15.74,0,0,1-40.69,72.77Z"/></g><g class="cls-23"><ellipse class="cls-6" cx="105.03" cy="359.49" rx="173.57" ry="160.5"/></g></svg>