<svg id="レイヤー_1" data-name="レイヤー 1" xmlns="http://www.w3.org/2000/svg" xmlns:xlink="http://www.w3.org/1999/xlink" viewBox="0 0 218 218"><defs><style>.cls-1,.cls-7{fill:none;}.cls-2{fill:#f5dcbe;}.cls-2,.cls-3,.cls-4,.cls-5,.cls-6,.cls-7{stroke:#42210b;stroke-linecap:round;stroke-linejoin:round;stroke-width:2px;}.cls-3{fill:#2c3493;}.cls-4{fill:#fff;}.cls-5{fill:#faee00;}.cls-6{fill:#534741;}.cls-8{fill:#42210b;}.cls-9{clip-path:url(#clip-path);}.cls-10{fill:#fff1e1;}</style><clipPath id="clip-path"><rect id="SVGID" class="cls-1" x="249.51" y="-227.9" width="200" height="200" rx="10"/></clipPath></defs><title>10-1-5 倒立</title><line class="cls-2" x1="26.13" y1="194.44" x2="198.41" y2="194.44"/><path class="cls-2" d="M124.83,31.7,119.4,78.55l-7.13-2L116,31.7a19.88,19.88,0,0,1-1.8-8.46c0-5,.55-10.29,6.23-9.48s6.88,4.88,5.83,10.56C125.41,29,124.83,31.7,124.83,31.7Z"/><path class="cls-2" d="M87.55,31.7,93,78.55l7.13-2L96.38,31.7a20,20,0,0,0,1.79-8.46c0-5-.54-10.29-6.23-9.48s-6.88,4.88-5.82,10.56C87,29,87.55,31.7,87.55,31.7Z"/><path class="cls-3" d="M120.73,106.53c-.93-.25,6.6-31.17,6.6-31.17a40.65,40.65,0,0,0-17.28.68l-2.4,9.19L105.43,76c-3.56-1.77-17.57.11-17.57.11l6.6,29.65Z"/><polyline class="cls-4" points="121.21 128.04 124.26 91.92 90.98 92.62 95.62 129.06"/><path class="cls-5" d="M96.76,139.59a22,22,0,0,0,11.87,3.27c4.58,0,8.6-1.59,12.33-3.19"/><path class="cls-2" d="M98.33,142.81l-10.71-2.05-9.07,48.81c-4,1.23-6.6,4.7-6.08,8.35.59,4.13,5,6.92,9.8,6.23s8.27-4.58,7.69-8.71a6.78,6.78,0,0,0-1.93-3.8Z"/><path class="cls-5" d="M98.52,148l.11,11.23a34.5,34.5,0,0,1-17.74-.06s4.3-23.95,6-27.34"/><path class="cls-2" d="M119.54,142.58l10.74-1.87,8.21,49c3.94,1.3,6.51,4.81,5.93,8.45-.66,4.12-5.1,6.83-9.91,6.06s-8.19-4.73-7.53-8.84a6.71,6.71,0,0,1,2-3.77Z"/><path class="cls-5" d="M119.26,147.72,119,159a34.56,34.56,0,0,0,17.74.25s-3.88-24-5.47-27.44"/><ellipse class="cls-2" cx="143.92" cy="145.53" rx="5.42" ry="6.71" transform="translate(-26.98 32.9) rotate(-11.93)"/><ellipse class="cls-2" cx="78.08" cy="145.53" rx="6.71" ry="5.42" transform="translate(-80.45 191.83) rotate(-78.07)"/><path class="cls-2" d="M76.88,155.74c0-8.35,2.24-16.53,7.23-21.29,6.24-6,16.36-7.44,26.82-7.44s20.78,2.13,27,8.18c4.9,4.74,7,12.28,7,20.55a34,34,0,1,1-68.1,0Z"/><path class="cls-6" d="M76.88,155.74c0-1,.26-4.88.26-4.88L87,163.21l4.46-7.75,5.61,7.1,6.38-8.45,7.07,7.5,8.27-8.88L124.8,160l6.52-8.08,4.69,7.53,8.56-9.75s.41,5.71.41,6.05a34,34,0,1,1-68.1,0Z"/><line class="cls-7" x1="110.93" y1="147.59" x2="110.93" y2="141.53"/><ellipse class="cls-8" cx="92.93" cy="147.92" rx="1.69" ry="2.91" transform="translate(-76.11 191.96) rotate(-72.46)"/><ellipse class="cls-8" cx="129.52" cy="147.92" rx="2.91" ry="1.69" transform="translate(-38.55 45.9) rotate(-17.54)"/><polyline class="cls-7" points="115.28 132.98 110.06 135.42 103.81 132.98"/><g class="cls-9"><ellipse class="cls-10" cx="370.65" cy="-124.88" rx="173.57" ry="160.5"/></g></svg>