<svg id="レイヤー_1" data-name="レイヤー 1" xmlns="http://www.w3.org/2000/svg" xmlns:xlink="http://www.w3.org/1999/xlink" viewBox="0 0 218 218"><defs><style>.cls-1,.cls-8{fill:none;}.cls-2,.cls-7{fill:#f5dcbe;stroke:#40220f;}.cls-2,.cls-3{stroke-miterlimit:10;}.cls-10,.cls-11,.cls-12,.cls-2,.cls-3,.cls-4,.cls-5,.cls-6,.cls-7,.cls-8{stroke-width:2px;}.cls-3,.cls-5{fill:#fff;}.cls-10,.cls-11,.cls-12,.cls-3,.cls-4,.cls-5,.cls-6,.cls-8{stroke:#42210b;}.cls-4{fill:#2c3493;}.cls-10,.cls-11,.cls-12,.cls-4,.cls-5,.cls-6,.cls-7,.cls-8{stroke-linecap:round;stroke-linejoin:round;}.cls-6{fill:#40220f;}.cls-12,.cls-9{fill:#42210b;}.cls-10{fill:#e3003e;}.cls-11{fill:#604c3f;}.cls-13{clip-path:url(#clip-path);}.cls-14{clip-path:url(#clip-path-2);}.cls-15{fill:#fff1e1;}</style><clipPath id="clip-path"><rect id="SVGID" class="cls-1" x="248" y="8" width="200" height="200" rx="10"/></clipPath><clipPath id="clip-path-2"><rect id="SVGID-2" data-name="SVGID" class="cls-1" x="247" y="249" width="200" height="200" rx="10"/></clipPath></defs><title>1-1 体ほぐし運動</title><path class="cls-2" d="M90,120.14a19.31,19.31,0,0,1-2.68-.19c-15.44-2.21-20-18.49-20.29-26.79a5,5,0,0,1,10-.33c0,.65.73,15.65,11.71,17.22,9.06,1.3,12.36-13.88,12.39-14a5,5,0,0,1,9.8,2C109.31,106,102.94,120.14,90,120.14Z"/><path class="cls-2" d="M127,120.14a19.31,19.31,0,0,0,2.68-.19c15.44-2.21,20-18.49,20.29-26.79a5,5,0,0,0-10-.33c0,.65-.73,15.65-11.71,17.22-9.06,1.3-12.36-13.88-12.39-14a5,5,0,1,0-9.8,2C107.7,106,114.06,120.14,127,120.14Z"/><path class="cls-2" d="M55.69,75.8a4.66,4.66,0,0,1-4.64-4.17c-.09-.77-1.86-19,11-32.32,9.65-10,24.62-14.42,44.49-13.07a4.68,4.68,0,1,1-.63,9.33C89,34.42,76.5,37.84,68.85,45.73,59,55.88,60.34,70.51,60.35,70.65a4.69,4.69,0,0,1-4.17,5.13Z"/><path class="cls-2" d="M85.44,152.35,66.36,127.6A4.68,4.68,0,1,0,59,133.31l18.74,24.31A18.8,18.8,0,0,0,85.44,152.35Z"/><path class="cls-2" d="M28,161.73a10.16,10.16,0,0,1-.16-3.35c.49-5.21,7.35-13.95,11.55-18.24a4.68,4.68,0,0,0-6.67-6.56c-1.35,1.38-13.23,13.72-14.2,23.91a20.37,20.37,0,0,0,.12,5.08A43.37,43.37,0,0,0,28,161.73Z"/><path class="cls-3" d="M92.54,174.93a4.68,4.68,0,0,0,4.55-7.46L85.44,152.35a18.8,18.8,0,0,1-7.75,5.27l12,15.56A4.71,4.71,0,0,0,92.54,174.93Z"/><path class="cls-3" d="M28.81,176.17a4.74,4.74,0,0,0,2.5-1,4.68,4.68,0,0,0,.62-6.59c-2.39-2.9-3.51-4.93-3.94-6.8a43.37,43.37,0,0,1-9.36.84c.61,3.94,2.52,7.59,6.09,11.92A4.71,4.71,0,0,0,28.81,176.17Z"/><path class="cls-4" d="M34.18,120.58a60.79,60.79,0,0,1-2.81,9.36A44.32,44.32,0,0,0,22,139.29c4.68,5.62,12.16,8.42,20.58,8.42,6.55-8.42,11.23-8.42,20.58.94,8.42-1.87,9.36-3.74,15-8.42a107.24,107.24,0,0,0-14-17.78S35.12,115.91,34.18,120.58Z"/><path class="cls-5" d="M70,81c-7.46-6.51-7.75-18.29-7.75-18.29a39.37,39.37,0,0,1-14,.94,25.59,25.59,0,0,0,1.87,15,66.29,66.29,0,0,0-15.9,43.78c10.14,3.3,21.52,3.74,32.74,1.87A168.54,168.54,0,0,1,68,105.6a17.44,17.44,0,0,0,4,6.4,33.51,33.51,0,0,0,10-8s-3-6-3-11C79,87,72.84,83.48,70,81Z"/><path class="cls-6" d="M103.21,173.1c0,4.13-15,4.13-15,0a7.48,7.48,0,1,1,15,0Z"/><path class="cls-6" d="M33.84,175c0,4.13-15,4.2-15,.07a7.49,7.49,0,1,1,15-.07Z"/><circle class="cls-2" cx="68.79" cy="80.49" r="6.55"/><path class="cls-7" d="M103.67,86.62c-6.57,5.31-14.31,8.77-21.25,7.55-7.09-1.25-13.36-7.32-18.62-13.82-10.39-12.86-11-29.56,2.25-40.3s32.49-9,42.88,3.84S117,75.88,103.67,86.62Z"/><path class="cls-8" d="M85.63,67.39a2.81,2.81,0,1,1-2.8,2.81"/><circle class="cls-9" cx="73.47" cy="55.23" r="1.87"/><circle class="cls-9" cx="97.79" cy="80.49" r="1.87"/><ellipse class="cls-10" cx="75.34" cy="78.61" rx="7.48" ry="3.74" transform="translate(-31.3 56.59) rotate(-34.55)"/><path class="cls-11" d="M103.41,59c-1.87,7.48-7.49,13.1-7.49,13.1s6.55,9.35,11.48,13c11.91-11.16,12.85-30.81,1.62-43.91S81,29,67.86,36.52,54.76,54.29,57.57,69.26c2.8-18.71,5.61-24.32,5.61-24.32l7.49-2.81A25.39,25.39,0,0,0,66,52.42a17.93,17.93,0,0,1,6.55-6.55l9.35,10.29s6.55-3.74,13.1-1.87c-1.87.94-3.74,2.81-5.61,6.55C94.05,58,98.73,58,103.41,59Z"/><path class="cls-7" d="M62.38,49.63a4.05,4.05,0,0,1-2.91-1.34c-1.64-1.89-1.08-5.07,1.25-7.11s5.57-2.16,7.22-.27a4.09,4.09,0,0,1,.92,3.1"/><path class="cls-2" d="M163,75.8a4.66,4.66,0,0,0,4.64-4.17c.09-.77,1.86-19-11-32.32C147,29.29,132,24.89,112.11,26.24a4.68,4.68,0,1,0,.63,9.33c16.93-1.15,29.4,2.27,37.05,10.16,9.84,10.15,8.51,24.78,8.5,24.92a4.69,4.69,0,0,0,4.17,5.13Z"/><path class="cls-2" d="M133.2,152.36l19.05-24.78a4.68,4.68,0,0,1,7.42,5.71L141,157.62A18.71,18.71,0,0,1,133.2,152.36Z"/><path class="cls-2" d="M190.37,161.78a10.18,10.18,0,0,0,.24-3.35c-.37-5.22-7-14.12-11.13-18.51a4.68,4.68,0,0,1,6.82-6.4c1.32,1.41,12.91,14,13.64,24.24a20.62,20.62,0,0,1-.23,5.07A42.9,42.9,0,0,1,190.37,161.78Z"/><path class="cls-3" d="M126.13,175a4.69,4.69,0,0,1-4.56-7.46l11.63-15.13a18.71,18.71,0,0,0,7.76,5.26L129,173.2A4.76,4.76,0,0,1,126.13,175Z"/><path class="cls-3" d="M189.21,176.19a4.69,4.69,0,0,1-3-7.71c2.47-2.84,3.63-4.85,4.11-6.7a42.9,42.9,0,0,0,9.34,1.05c-.7,3.92-2.7,7.53-6.38,11.78A4.65,4.65,0,0,1,189.21,176.19Z"/><path class="cls-4" d="M184.46,120.58a60.79,60.79,0,0,0,2.81,9.36,44.32,44.32,0,0,1,9.35,9.35c-4.68,5.62-12.16,8.42-20.58,8.42-6.55-8.42-11.23-8.42-20.58.94-8.42-1.87-9-3.74-14.63-8.42a115.56,115.56,0,0,1,13.69-17.78S183.52,115.91,184.46,120.58Z"/><path class="cls-5" d="M148,108a56.58,56.58,0,0,1-12-6c4-8,3.45-27,7.18-29.93,6.55-5.19,13.21-9.36,13.21-9.36a39.37,39.37,0,0,0,14,.94,25.59,25.59,0,0,1-1.87,15,66.29,66.29,0,0,1,15.9,43.78c-10.14,3.3-21.52,3.74-32.74,1.87a185.21,185.21,0,0,0-1.57-22.62C150,104,148,108,148,108Z"/><path class="cls-6" d="M113.43,173.1c0,4.13,15,4.13,15,0a7.48,7.48,0,0,0-15,0Z"/><path class="cls-6" d="M182.59,177c0,4.13,15,4.13,15,0a7.49,7.49,0,0,0-15,0Z"/><circle class="cls-2" cx="149.85" cy="80.49" r="6.55"/><path class="cls-7" d="M115,86.62c6.57,5.31,14.31,8.77,21.25,7.55,7.09-1.25,13.36-7.32,18.62-13.82,10.39-12.86,11-29.56-2.25-40.3s-32.49-9-42.88,3.84S101.67,75.88,115,86.62Z"/><path class="cls-8" d="M133,67.39a2.81,2.81,0,1,0,2.8,2.81"/><circle class="cls-9" cx="145.17" cy="55.23" r="1.87"/><circle class="cls-9" cx="120.85" cy="80.49" r="1.87"/><ellipse class="cls-10" cx="143.3" cy="78.61" rx="3.74" ry="7.48" transform="translate(-2.72 152.06) rotate(-55.45)"/><path class="cls-12" d="M110,83.29c24.32-15.9,33.67-38.35,33.67-38.35s14.3,5.92,18.38,21.67c4.08-21.67-10.89-38.51-34.28-34.77S95,69.26,110,83.29Z"/><circle class="cls-12" cx="169.83" cy="62.71" r="4.68"/><circle class="cls-12" cx="177.31" cy="72.07" r="4.68"/><circle class="cls-12" cx="179.18" cy="83.29" r="4.68"/><path class="cls-12" d="M182,95.45c0,1.09-1.11,3.21-1.87,4.68a16.51,16.51,0,0,0-1.87,7.49,26.07,26.07,0,0,1-3.74-5.62,19.44,19.44,0,0,1-1.88-6.55,4.68,4.68,0,0,1,9.36,0Z"/><g class="cls-14"><ellipse class="cls-15" cx="353.04" cy="352.02" rx="173.57" ry="160.5"/></g></svg>