<svg id="レイヤー_1" data-name="レイヤー 1" xmlns="http://www.w3.org/2000/svg" xmlns:xlink="http://www.w3.org/1999/xlink" viewBox="0 0 218 218"><defs><style>.cls-1,.cls-12,.cls-20,.cls-25{fill:none;}.cls-2{clip-path:url(#clip-path);}.cls-3{fill:#fff1e1;}.cls-10,.cls-4,.cls-8{fill:#fff;}.cls-5{fill:#998675;}.cls-16,.cls-17,.cls-18,.cls-19,.cls-20,.cls-22,.cls-23,.cls-24,.cls-26,.cls-27,.cls-28,.cls-29,.cls-30,.cls-31,.cls-5,.cls-6,.cls-8,.cls-9{stroke:#42210b;}.cls-10,.cls-11,.cls-12,.cls-14,.cls-15,.cls-16,.cls-17,.cls-18,.cls-19,.cls-20,.cls-22,.cls-23,.cls-24,.cls-25,.cls-26,.cls-27,.cls-28,.cls-29,.cls-30,.cls-31,.cls-5,.cls-6,.cls-7,.cls-8,.cls-9{stroke-linecap:round;stroke-linejoin:round;}.cls-10,.cls-11,.cls-12,.cls-14,.cls-15,.cls-16,.cls-17,.cls-18,.cls-19,.cls-20,.cls-22,.cls-23,.cls-24,.cls-26,.cls-27,.cls-28,.cls-29,.cls-30,.cls-31,.cls-5,.cls-6,.cls-7,.cls-8,.cls-9{stroke-width:2px;}.cls-6{fill:#f5dcbe;}.cls-7{fill:#f1d8bc;}.cls-10,.cls-11,.cls-12,.cls-14,.cls-15,.cls-7{stroke:#40210d;}.cls-9{fill:#534741;}.cls-11{fill:#273288;}.cls-13{fill:#40210d;}.cls-14{fill:#6a3906;}.cls-15{fill:#e50012;}.cls-16{fill:#e6e6e6;}.cls-17{fill:#87c9a1;}.cls-18{fill:#c7b299;}.cls-19{fill:#2c3493;}.cls-21,.cls-28{fill:#42210b;}.cls-22{fill:#603813;}.cls-23{fill:#ffe800;}.cls-24{fill:#fff100;}.cls-25{stroke:#fff;stroke-width:4px;}.cls-26{fill:#4e3819;}.cls-27{fill:#e60012;}.cls-29{fill:#fafcfc;}.cls-30{fill:#40220f;}.cls-31{fill:#c60022;}</style><clipPath id="clip-path"><rect id="SVGID" class="cls-1" x="11.51" y="9" width="200" height="200" rx="10"/></clipPath></defs><title>13-2-5 天大中小</title><g class="cls-2"><ellipse class="cls-3" cx="132.65" cy="112.02" rx="173.57" ry="160.5"/><path class="cls-4" d="M88.63,58.12c-.33.17-.14.56.77.49l.65-.67Z"/><path class="cls-4" d="M94.76,59.35c1.07-.32,2.3-.89,1.61-1.5-1.06.64-1.32.37-2.46,1.13-.91.08-1.59-.21-1.43-.45-.33.17-1.42-.15-1.91.27a6.57,6.57,0,0,0,4.25.11C95.16,59.05,94.84,59.22,94.76,59.35Z"/><path class="cls-4" d="M183.76,60.38l-.58-.08A3,3,0,0,0,183.76,60.38Z"/><path class="cls-4" d="M183.76,60.38l1.47.21C185.33,60.37,184.48,60.43,183.76,60.38Z"/><path class="cls-4" d="M107,57.75a3.52,3.52,0,0,0-.8.17l.75-.07Z"/><path class="cls-4" d="M159.45,60.92H159a1.84,1.84,0,0,0-.37.27Z"/><path class="cls-4" d="M140.79,61c.43,0,.57-.54.73-.79a1.44,1.44,0,0,1-.92.39A.65.65,0,0,0,140.79,61Z"/><path class="cls-4" d="M111.21,60l-.52.08Z"/><path class="cls-4" d="M172.8,61a.47.47,0,0,0,.17.2C173,61.17,172.9,61.1,172.8,61Z"/><path class="cls-4" d="M70.53,71.57s0,.05.07.08C70.64,71.53,70.64,71.48,70.53,71.57Z"/><path class="cls-4" d="M88.73,59.56l-.21.22a1.28,1.28,0,0,0,.16.28Z"/><path class="cls-4" d="M114.38,156.22c1.79.5-2.92.65-.22,1.21C113.91,157.21,116.61,156.55,114.38,156.22Z"/><path class="cls-4" d="M107.51,57.82h.77A4.83,4.83,0,0,0,107.51,57.82Z"/><path class="cls-4" d="M114.16,157.43h0l.28,0Z"/><path class="cls-4" d="M206.61,119.52a1.09,1.09,0,0,0,.4-.26C207,119.25,206.85,119.3,206.61,119.52Z"/><path class="cls-4" d="M200.77,133.75a3,3,0,0,0-.5.95.49.49,0,0,0,.13-.12A1.65,1.65,0,0,1,200.77,133.75Z"/><path class="cls-4" d="M193.94,148.2c.08-.06.15-.15.23-.22l.19-.47Z"/><path class="cls-4" d="M33.91,103.49a2.32,2.32,0,0,1,.89-.1C34.35,103.25,36,101.61,33.91,103.49Z"/><path class="cls-4" d="M107,58.07a.56.56,0,0,1,.47-.25l-.53,0C106.94,57.94,106.93,58,107,58.07Z"/><path class="cls-4" d="M204.5,136.23l-1.16,2.26C203.69,137.87,204.11,137.05,204.5,136.23Z"/><path class="cls-4" d="M6.75,160.84l-.58.06A1.31,1.31,0,0,0,6.75,160.84Z"/><path class="cls-4" d="M200.2,145.34a5.27,5.27,0,0,0-1,1.13,1.12,1.12,0,0,0,0,.32Z"/><path class="cls-4" d="M34.81,103.39h0Z"/><path class="cls-4" d="M46.61,91.46c-1.84,1.57-.39,1.29-.5,2-2,2-1.37.46-2.36.81-1.24,1.33-1.84,2.74-2.88,3.6-.16,0-.38.11-.25-.2-1.06,1.69-4.27,3.71-5.47,5.72a.59.59,0,0,1-.34,0,1.08,1.08,0,0,1,.92.55c-.81.72-1.22,1.67-1.84,1.57.51-.43.42-.61.56-.93l-.72.9c-1.23.14,1-1.19.68-1.58-1.53,1.62-3.11,3.74-4.53,4.7-.71-.28,2.86-2.77.75-1.75l2.16-1.51c-2.22.49,1.26-1-.89-.65-2.74,2.1-2.7,2.78-5.44,4.89-.34.79.56.25.21,1-3.27,3.72-4,1.23-6.17,4.27-.42,1-.13,1.84-2.37,3.17l.16-1.15c-2.58,2.13-.72,2.08-3.72,4,.28-.64,1.83-1.91,1.39-1.65-2.12,1-.94,1.38-2.26,2.52l-.72-.28c-2.63,2.41-5.28,5.34-8.19,8,0-.3.41-.9-.43-.46a106.31,106.31,0,0,1-12,9.71l-1,1.64c-.33.28-.78.32-.5-.07-1.56,1.05.17.35-.36,1.11-.78.72-1.29.66-.89.09-2.18,2.53-6.43,6.95-9.47,8.75l.4-.58a5.41,5.41,0,0,0-1.21,1.15,6.58,6.58,0,0,0-.38.54l-.54.73a8.86,8.86,0,0,1-2.88,2.77l.4-.49c-2.33,1.9-4.7,4-7,5.91,3.15,0,6.2,0,9,0,1.42,0,2.8.08,4.17.16l.25,0h.15l.32,0,.61.07c.41.06.8.12,1.18.2.85-.85,5.82.38,6.2-.8,3.35.58,2.39.79,7.12,1.18,1.27.06,1.89-.73,3.45-.85l0,.61,2.12-.64,1.12.73,1.47-.16c-.58,0-1.24-.27-1.15-.45,2.29-.28,5.58.43,5.63.75l5.42-.53c-.12.25-1,.34-1.75.49,2.89-.62.53.65,3.17.08-.35-.14.2-.37.26-.49a25.39,25.39,0,0,0,6.54.21l-.42.43c4,.11,8.46-.2,13-.2-1.62-.19-1.25-.93.08-1l.52.65c.86-.4-1.38-.25.37-.74,1.69.08,1.14.74.17,1l2.05-.22c.12.19-.36.29-.49.54.84-.4,3.53.66,4.75-.05l.11.2c4.51,0,6.55-.22,10.22-.25.07-.57,1.51-.44,2.6-.9,2.7.18,5.69.63,8.94.58,2.28-.28.67-.48,1.69-.81.17.51,3.41.46,1.73.83,3.9-.08,5-.1,9.91-.52-.53-.21-1.13-.3-.82-.47.89-.09,2,.21,1.91.46l-.24.05c5.54-.77,12.78,1.49,17.19.43l-.25.05,4.57-.56c2.1.09-1.26.39.3.7,4.93-.85,7.79.13,11.85-.44,3.14,1.51,11.15-.11,15.4.86l-.25-.36c1.1-.35,1.33.2,2.14.29-.12-.28-1.19-.32-.51-.52,9.29-.43,19.17.52,28.7.84,3.48.1,2-1.84,6.36-1l-1.24.66c7-.79,14.37,0,21.25-.64-.41.15-.42.35-1.09.35a9.7,9.7,0,0,0,3.23.14l2.09-.22c.68-.09,1.07-.19,1-.29,1.46,0,1,.24,1.4.42.05,0,.14-.08.28-.27a15.56,15.56,0,0,0,1-2c.14-.37.29-.73.43-1.1l.18-.61a3.46,3.46,0,0,1,.85-1.77c.12-.09,0,.43-.12.69.2-1,1.95-4,1.06-3.39,1.34-2.22,1.89-4.57,3.06-6.29,0-1.48,2.16-3.87,1.55-4.63.74.55,2.6-3.79,2.91-5.44,0,.61.86-1.17.93-.43.79-1.69,1.37-3.3.81-3.21,2.44-2.64,2.16-6.61,4.24-7.76,1.92-5.22,3.82-10,5.75-14.58.74.55-2.27,5-1.32,5.22,1.68-4.43,2.15-7.22,4.35-11.36.62-1,.05.79,0,1.22,1.68-4.42,4-8.21,5.32-12.22.07,0,0,.5-.16.91.33-.76.94-1.68.53-1.77l-.24.78c-1.1.94.28-3.51.06-3.78.46,1.78,2-3.62,2.43-1,.16-.52.28-1.22,0-1.23.41-.7.67-.86.6,0,1.07-2.78.22-2,1.38-4.44.17.1,0,.62.1,1A12.72,12.72,0,0,1,230.06,79c.05.18.3,0,0,.62,1.61-3.55,1.91-6.45,4.07-10.16.24,1.51.88-1.19,1.65-1.08l.79-2.17-.73.68c.22-.46.4-.91.57-1.36s.28-.84.54-1.51a19,19,0,0,1,1.52-3.35l-.55,1.87,2-4.5h-.48l.39,0-1.43,2.46c.3-1,0-.88-.22-.79s-.38.18,0-.65l-.65,0c.68-.08-2.13,0-3.25-.45h0c-.67.12-1.33.24-1.94.31a7.88,7.88,0,0,1-1.94,0c-.38-.24.31-.83.06-1-1,.63-4.71.18-6,.84.42-.15.44-.55.3-.63l-.82.51c-.94-.16-1.07-.24-.92-.55-2.81-.09.89.95-2.44.54.26,0,.13-.12.68-.2-3.35-.21-6.47.33-9.54.08-.91-.76,2.69-.19,1.65-.82-4.44.13-9.18.9-13.47.72l.8.08c-.6,1.06-3.2-.52-5.37,0,.54-.08.7-.59.56-.47-2.94-.17-6,.26-10.46.59l.55-.27c-1.73-.24-4.56-.14-6.43-.26-.55.27-1.62.23-1,.62-5.77-1.55-11,.83-16.12-.46.61,0,1.46-.24,1-.24l-4.36.25c.35.46.58.28,1.49.64a7.63,7.63,0,0,1-2.86.49c2-.31,0-.74-.86-1,.14.14-.15.3-.08.44-2.28-.82-.38.93-3.49.38l.16-.25a19.63,19.63,0,0,1-3.49.38c-.52-.54,1.24-.25,1.32-.69-1.76,0-3.47,1-5.07.48.75-.15,1.83-.15,2.57-.3a8,8,0,0,0-3.22-.57l.12,0-3-.29.76.17c-2.2,1.4-4.49.26-7.46,1.17,2.89-.86.48-.5.7-1.11-.76-.16-1.91-.35-1.58-.52-1.41.49-2.35-.39-4.33.33-.09-.2-1.5,0-1.18-.51-1.83.15.43.34.27.58-2.81.67-6.61-.81-10.65.11-3.49.37-4.14,1-7.38,1.36-1.09-.31.9-.71.9-.71a14.56,14.56,0,0,0-4.75,0c.33-.17,0-.32-.52-.53-1.33.05-.89.71-2.65.42a4.54,4.54,0,0,1,1.33-.79c-1.57.18-3.12.55-4.75.72-.43-.34,1-.51,1.56-.73-1.83.15-4.74.3-5.3.84l1.17.19c-.67,0-.34-.46.15-.56,1.56-.42,2.26.19,2.34.39l-1.15.12c1.19,1.15,4.65-.18,7-.12l-1,.84,2.39-.69c.51.21.86.68-.29.8,1.67.41,1.48-.29,2.91.16.16.08.09.12-.06.15l1.64-.25c-.32.18.27.59-.74.47,2.94.48,4.73-.63,5.84,0l-.25.06c4.07-.29.39-.62,3.44-1.33l2.06,1.5.4-.61c.42,0,1.25.07,1.09.32,1.57-.42-.26-.27.64-.66,2,.55,5.57-.26,6,.71.72-.47-1.93-.36.22-.68.62,1,2.5-.18,4.34.3-.56.54-2.31.25-.47.73,1.12-.91,3.6.2,5.15,0,.08-.73,3.39-.3,6-.55-.17.25,4.91.4,7.34.67l-.07.12c.47-.74,3-.6,4.8-.75-.07.44-.4.61-1.38.81H159a4.74,4.74,0,0,1,2.05-.45l-.43.55c2.29,0,4.6-.64,7.54-.28.16-.51-2.34-1.42.77-1.77.11.28.23.75-.58.87a4.05,4.05,0,0,1,1.48-.11l-1.24.46c1.34.21.7-.39,1.77-.34,0,.39.79.28.64.59-.27,0-.93-.16-1.34,0a9.24,9.24,0,0,1,3.14.61c-.1-.23,0-.53.89-.59,2.28,0,.78.48,2.11.68.55-.27,2,0,2-.58a1.43,1.43,0,0,1,1.05.44c1.18-.26,5.52-.07,4.18-.7l-.3,0,.19,0h0c3.88-.59,8.05.33,11.89.08v.2c2.29-.23,5.1-.13,6.74-.56.68,0,1.6.36,1.31.6a13.9,13.9,0,0,1,4.49,0c-1.77.35.6.31-1.81.26,2.28.17,2.79.48,5.24-.06-.83.51,1.72.64,2.8.49l-1.6-.36a31.43,31.43,0,0,1,3.37,0l-.59.67c4.67.81,8.41-1.38,12,0,1.23-.46-2.53-.32-1.43-.87,2.15.09,4.38,1,5,1,1.43.18,2.34-.06,2.46-.32a2.16,2.16,0,0,1,1.69-.4c.12-.24.21-.86,2.51-1.09l0,0a4.79,4.79,0,0,1-1.46,1.8c-.41.25-.69.21-.68,0a.83.83,0,0,1,.37-.45,1,1,0,0,0,0-.23c-.38.08-.61.18-.63.36l.24-.12.17-.05c-.61.71-1.07,1.74-1.38,1.5,0,.48.27.33.67-.23a5.57,5.57,0,0,0-.51.73s-.2.39-.31.61l-.35.75a35.23,35.23,0,0,1-1.6,3.21c.31-.35.74-.6.54-.2-2,3.63-.37,1.85-1.48,4.44-1,1.29-.54-.89-1.48,1.8-1,1.46-.72.07-.6-.64-.69,2.53-2.34,4.24-3,5.53l.41-1.31a14.73,14.73,0,0,1-.83,2l.76-.5c-.41.69-.7,1.3-.88,1.2-.07.88,1-.23.67,1.43-.67.86-1.15,3-1.87,3.1,1.62-2.93-.74.07.38-2.54a8.15,8.15,0,0,1-.87,1.82c-.11.08-.07-.16,0-.37-1.87,2.65,0,1.63-1.41,4.63-.14-.53-.94.41-1.1.93.57-1.21.8-.33.53.9-1.16,1.81-.81,2.18-1.31,3.18l.66-1.1c.13.54-.36,1.49-.9,2.88-.3,0,.41-1.3.07-.88-.14,1.76-2.17,3.09-2.78,5.35-.67.86-.64-.19-1.19.59-.68,2.52-1.63,2.31-2.45,4.92.77-.5.72-.67.33,1.25l1.6-4.17-.6,2.88c.58-1.21.94-2.69,1.36-3.38-.23,1.39-.28,1.22.36.8-1.44,1.36-1.18,3.48-2.53,5.19l-1-.56c-1.84,2.66-1.88,5.39-3.92,9l.76-1.12c.18.71-1,2.35-1.44,3.64-.3-.28-.79.42-1.26.83.29.07-1.32,2.74-.77,3.42L205,124.13c-1.63,2.93-.62,3.93-2.12,6.79,0-1.06-.85.14-.2-1.94-.47,1-.94,1.81-.7,2-.5.46-.8,2.92-1.56,3.65a2.73,2.73,0,0,1-.27,1.87c-.13.09-.17-.09-.17-.09.17.09-.57,1.83.27,1.06-2.52,2.47-3.87,8.41-6.06,10.56-.88,2.18-2,4.79-2.86,6.73-.05-.18-.17-.09,0-.44a4.91,4.91,0,0,0-.63,1.29,1.6,1.6,0,0,0-.05.79,2.25,2.25,0,0,1-.2,1.63,6.52,6.52,0,0,1-.9-.07c-.74-.32-.37-.4-.06-.44s.73,0,.32-.14a1.29,1.29,0,0,0-.67-.54,1,1,0,0,0-.34,0l-.81.06a10,10,0,0,1-3.82-.09l.55-.07c-1.72-.44-4.2.49-7,.4,0,0,.14-.12,0-.2-1.92.66-5.56.88-8.26,1.07.84-.51,1.22-.27.71-.79-1.21.07.36.83-2.06,1-.79-.27-2.53-.52-2.77-1.07l2.29,0c-1.17-.71-3,0-4.16-.1l.15-.31c-3.49.1-3.54.89-7.3.83l.39.24c-2.05.78-1.72-.44-3.77.14l-.62-.79c-1.36.19-4.75.76-7.18.91a41.15,41.15,0,0,1,6-1.23c-1.34,0-4.56.06-5.26.45a5.26,5.26,0,0,1,1.76-.15,18.66,18.66,0,0,1-6.5.91c.48-1.53-7-.39-8.91-1.57-4.74.56-9.4-.25-14.91-.15,2,1.19-1.61,0-1.27,1.25a5.45,5.45,0,0,1-1.89,0l-3.9-.73c-.92-.36,1.22-.27,1.11-.54-2.82-.1-1.18-.52-3-.85.39.44-1,.63-2.58.46l2.26.57c-3.93.65-3.4-1-7.36-.39l1.25-.38c-2,.23-7.5,0-9.49,1-.36-.14-.84-.47.06-.56-4.86-.15-10.82,1.05-14.6.44l.37-.3c-.9.09-1.58.56-2.71.26.06-.12.36-.3-.06-.31a12.72,12.72,0,0,1-3.61.35l1-.34c-4.74-.39-7.27.82-11.25,1,0-.88-3.72-1.16-5.58-1.3l.07-.13c-5.52-.11-9.38.73-14.49,1.08-3.17-1-10.75-.4-15.85-.94.78.16-.13.69-1,.77-1.2-.17-3.31.62-3.12-.19h.43c-.91-.79-3.37-.58-5.29-.6l-.31,1.06c-5-1.54-13.16.56-15.9-.82-1.22.27-2.72.27-3.92.53l.07-.57c-3.36-.14-5-.21-9.19-.08l.85-.4c-2.34,0-3,1.63-5.12,1.66l-.65-.84h-.51l-.33-.05a2.75,2.75,0,0,1-.51-.12,1.74,1.74,0,0,0-.84-.12c.11-.13,0-.21-.08-.37.22,0,.66-.09.64,0,.19-.16.68-.39.83-.53a.4.4,0,0,0,.14-.31c.26-.38.31-.66,0-.77.53.55,3.24-2.69,4.7-4.38l.1.64a10.89,10.89,0,0,1,2.71-3.79c.51-.34.7,0,0,.42,1.75-1.12.87-1.45,3-2.85l-.47.88a5.31,5.31,0,0,0,2-2.46c.86-1,3.12-2.51,3.69-2.33A3.79,3.79,0,0,1-.76,138c.25,0,0,.42-.15.61,2.92-2,3.56-3.92,5.75-5.09a.53.53,0,0,0,.53,0c-2.13,1.82-3.86,3.27-3.73,3.1.33.39,2.11-1,1.21.69,1.12-1.48,2.93-4.15,4.76-5.41a1,1,0,0,1,.34-.05l-.14.19a4.69,4.69,0,0,0,1-1A15.68,15.68,0,0,0,10.3,130c.48.15,2.12-1.53,3-2.25-.43-.36.75-1.26-.61-.71.16-.08-.12.19-.67.7a3.39,3.39,0,0,0-.33.36l0-.09-2.1,1.87a5.14,5.14,0,0,1,2.19-2.17,17.86,17.86,0,0,1,.6-1.72c1.68-.42,4.22-2,4.85-2,2.41-2.49,6-5.47,7-7.68.66-.75,1.06-.51,1.44-.62a8.79,8.79,0,0,0-1,1.19C26,115.4,29,113,28.86,112.15c2.09-1.36-.61,1.42,1.88-.89l-.2.47c5.84-3.47,7-8.52,13.61-12.21-.45.26-.68.4-.84.37,6.84-5,12.78-11.84,19.79-16.48C65,82,64.92,81.5,65.78,80.28l.79.12L68,78.26c2.32-2.67,5.56-2.84,8.3-6.47l-.7.07c1.25-1,3.67-3.48,3.77-3a1.21,1.21,0,0,1,.73-.91l.24.21,2.62-3c2.45-1.81.46,1.26,3.85-1.59,1.17-1.17,3-3.76,2.35-3.51-.52.42-1.42,1-1.66.75l1-1.11c-.4-.88-.15-2.36-3.37-.44l-1.58,2.11-.92.2,1.62-1.43a4,4,0,0,0-2,2,1.79,1.79,0,0,0-1.14.32l-1.34,2.33c-.47-.08.39-1.29-1-.33-.62,1.08,1.4-.13.09,1.36-1.21.49-1.16,0-2,1.21-.31-.05-.18-.37.18-.82-.78,1.06-2.5,2.32-2.68,3.12-1.31.45-3.2,3-3.68,2.2a12.48,12.48,0,0,1-2.14,2.8c1-2.21-3.4,2.85-3.7,1.62-.59,1.76-4.1,4.09-5.91,6.34a1.37,1.37,0,0,1,.43-.61,15.88,15.88,0,0,1-2.69,1.6c.36.73-1.41,2.48-2.1,3.72-2,.71.3-1.47-.64-1.62.48.42-2.16,2.7-1.31,2.67-1.44.62-1.13.67-2.13.68.44.91-.95,1-1.5,2.3-1.95,1-1-.34-2.62,1.44C45.23,93.1,46.61,91.46,46.61,91.46ZM4.91,129.64h0l.86-.78Zm-3.6,3.11c.46-.36,1-.83,1.58-1.33.25,0,.25.31-.12.61C2.88,131.77,2,132.41,1.31,132.75Zm10.16-3.61c-.52.55-.78.63-.94.61.27-.24.57-.52,1-.91,0,0,0-.07,0-.11A.85.85,0,0,1,11.47,129.14Z"/><path class="cls-4" d="M12,127.7a1.41,1.41,0,0,1,.21-.23,2.71,2.71,0,0,0-.42.2l-.09.3Z"/><path class="cls-4" d="M183.08,60.29h.1a.58.58,0,0,1-.21-.08C183,60.25,183,60.27,183.08,60.29Z"/><polygon class="cls-4" points="1.46 161.11 1.46 160.97 1.04 161.1 1.46 161.11"/><path class="cls-4" d="M156.93,58.36a.77.77,0,0,0-.35-.15A1,1,0,0,0,156.93,58.36Z"/><path class="cls-4" d="M145.63,58.23,144,58A15.6,15.6,0,0,0,145.63,58.23Z"/><path class="cls-4" d="M136.94,58a.66.66,0,0,0-.17.24h0Z"/><path class="cls-4" d="M204.63,136h0l-.12.26Z"/><path class="cls-4" d="M99.28,57.7l-.41,0a.14.14,0,0,1-.05.1Z"/><path class="cls-4" d="M98.82,57.77l-.47.06A.92.92,0,0,0,98.82,57.77Z"/><path class="cls-4" d="M97.37,58l1-.14A1.9,1.9,0,0,0,97.37,58Z"/><path class="cls-4" d="M110.79,58l.13-.21A.28.28,0,0,0,110.79,58Z"/><path class="cls-4" d="M114.28,57.9a16.83,16.83,0,0,0-3.25-.31l-.11.16C111.46,57.45,113.49,58.24,114.28,57.9Z"/><path class="cls-4" d="M128.87,60.42l-2.93-.16c.51.21,1.18.51-.15.56C129.48,61.47,125,60.33,128.87,60.42Z"/><path class="cls-4" d="M138,60.73c-1.57.11,0,.32-.07.44C138.88,61,139.12,60.92,138,60.73Z"/><path class="cls-4" d="M203.57,60.74l-.16.51C204.63,61.17,203.43,61.05,203.57,60.74Z"/><polygon class="cls-4" points="216.12 58.09 214.94 57.77 214.38 58.24 216.12 58.09"/><path class="cls-4" d="M194.71,145.42l.72-.07C195.68,144.56,195.12,144.11,194.71,145.42Z"/><path class="cls-4" d="M156.78,157.09a3.8,3.8,0,0,0-2.68-.21C155.17,156.92,156.23,157.17,156.78,157.09Z"/><polygon class="cls-4" points="14.08 156.06 15.04 155.85 13.23 156.03 14.08 156.06"/><path class="cls-4" d="M216.72,103.52c.09-.18,0-.57-.22-.49l-.18.66Z"/><path class="cls-4" d="M215,102.29a1.52,1.52,0,0,0-.46,1.49c.3-.63.37-.37.7-1.13.25-.07.45.22.4.46.09-.17.4.15.54-.27-.33-.51-.76-.53-1.2-.11C214.87,102.58,215,102.41,215,102.29Z"/><path class="cls-4" d="M189.79,101.26l.16.08A.25.25,0,0,0,189.79,101.26Z"/><path class="cls-4" d="M174.18,100.89a.18.18,0,0,0,.18-.14C174.25,100.8,174.15,100.84,174.18,100.89Z"/><path class="cls-4" d="M171.52,100.16a.88.88,0,0,0,.15,0C171.61,100.15,171.55,100.11,171.52,100.16Z"/><path class="cls-4" d="M189.79,101.26l-.42-.21C189.35,101.27,189.59,101.21,189.79,101.26Z"/><path class="cls-4" d="M211.51,103.89a.66.66,0,0,0,.23-.18l-.21.07S211.52,103.85,211.51,103.89Z"/><path class="cls-4" d="M196.67,100.72h.13c0-.08.07-.17.11-.27Z"/><path class="cls-4" d="M202,100.62c-.11,0-.16.54-.2.78.07-.23.15-.34.26-.38A1.68,1.68,0,0,0,202,100.62Z"/><path class="cls-4" d="M210.33,101.61l.15-.08Z"/><path class="cls-4" d="M192.89,100.6a.77.77,0,0,0,0-.2A.45.45,0,0,0,192.89,100.6Z"/><path class="cls-4" d="M45.18,104.82v-.1C45.15,104.78,45.14,104.82,45.18,104.82Z"/><path class="cls-4" d="M39.06,102l.08,0c0-.11,0-.21,0-.32Z"/><path class="cls-4" d="M166.64,99.44l0,0C166.79,99.39,166.72,99.4,166.64,99.44Z"/><path class="cls-4" d="M121.86,99.86c.51.5-.83.64-.06,1.2C121.73,100.84,122.49,100.19,121.86,99.86Z"/><path class="cls-4" d="M211.38,103.81h-.22A.39.39,0,0,0,211.38,103.81Z"/><path class="cls-4" d="M121.8,101.06h0l.08.05Z"/><path class="cls-4" d="M155.4,99.78a.82.82,0,0,0,.11.25A.49.49,0,0,0,155.4,99.78Z"/><path class="cls-4" d="M163.77,100.58l-.21-.07A.43.43,0,0,0,163.77,100.58Z"/><path class="cls-4" d="M151.05,100.58c-.11,0-.15-.12-.3,0a.43.43,0,0,0,0,.07C150.85,100.52,150.92,100.49,151.05,100.58Z"/><path class="cls-4" d="M146.53,100.58a.76.76,0,0,0,.08.11l.14,0Z"/><path class="cls-4" d="M58.93,104.55a1.83,1.83,0,0,1-.21-.5C58.79,104.45,58.13,104.59,58.93,104.55Z"/><path class="cls-4" d="M211.51,103.57c0,.14-.06.21-.13.24a.8.8,0,0,0,.15,0A.35.35,0,0,0,211.51,103.57Z"/><path class="cls-4" d="M150.87,105l-.72-.08A3.11,3.11,0,0,0,150.87,105Z"/><path class="cls-4" d="M91.39,104.47l-.16.07A.14.14,0,0,0,91.39,104.47Z"/><path class="cls-4" d="M148,105a1.14,1.14,0,0,0-.41-.39.53.53,0,0,0-.08.15Z"/><path class="cls-4" d="M58.72,104h0Z"/><path class="cls-4" d="M54,105.38c.69,0,.33-.73.47-1.15.82-.21.38.54.66.92.51-.19.9-.87,1.28-.84,0,.12.1.16,0,.32.54-.59,1.6,0,2.23-.77a.55.55,0,0,1,.08.18,3.13,3.13,0,0,1-.1-1c.31,0,.57-.47.69,0-.19,0-.21.19-.29.34l.32-.21c.29.69-.44.24-.44.75.63-.23,1.36-.8,1.84-.6.1.68-1.13.22-.48.83l-.75-.26c.57,1.07-.45-.08.07,1.07,1,.2,1.1-.35,2.07-.15.22-.37-.07-.56.15-.93,1.39-.68,1.09,1.7,2.11.8.27-.45.37-1.31,1.1-.86l-.25.77c.95.08.54-1.1,1.53-.59-.17.3-.74.26-.6.35.64.61.46-.44,1-.44l.1.68c1-.1,2.12-.59,3.24-.72-.06.2-.25.42,0,.62a8.84,8.84,0,0,1,4.37.49l.52-.59a.24.24,0,0,1,.09.38c.53.23,0-.37.28-.6a.29.29,0,0,1,.21.51c.94-.49,2.66-1.07,3.65-.44l-.19.17c.76.24.86-1.2,1.57-.65l-.13.1c1.66.26,3.5-.28,4.77.61.24-.85,1.65.37,1.76-.81,1,.59.68.8,2,1.19.35.06.53-.74,1-.86v.62l.6-.65.32.74.42-.16a.49.49,0,0,1-.33-.45,1.43,1.43,0,0,1,1.6.74l1.53-.52c0,.25-.29.33-.5.49.82-.63.15.65.9.07-.1-.14.06-.36.07-.49a2.2,2.2,0,0,0,1.86.22l-.12.43c1.13.1,2.39-.21,3.67-.2a.56.56,0,0,1,0-1l.15.66c.24-.41-.39-.25.1-.74.48.07.33.74,0,1l.58-.23c0,.2-.1.3-.14.55.24-.41,1,.65,1.35-.05l0,.19c1.27,0,1.85-.21,2.89-.25,0-.56.43-.43.74-.89a8.68,8.68,0,0,0,2.53.57c.65-.28.19-.47.48-.81,0,.52,1,.47.49.84a10.3,10.3,0,0,0,2.8-.52c-.15-.21-.32-.3-.23-.48a.47.47,0,0,1,.54.46l-.07.06c1.57-.77,3.62,1.49,4.87.42l-.07,0,1.29-.55c.6.09-.35.38.09.7,1.39-.85,2.2.12,3.35-.45.89,1.52,3.16-.1,4.36.86l-.07-.35c.31-.35.38.2.61.28,0-.27-.34-.32-.15-.51,2.63-.43,5.43.52,8.13.84,1,.1.56-1.84,1.8-1l-.35.66c2-.79,4.07,0,6-.65-.11.16-.12.35-.31.35.42.48,1.53,0,1.53-.37.31,0,.07.36.26.56.41.28,1-.62,1.25-.14,0,.08-.11.16-.19.2.27-.24,1.26,0,1-.5.73.26,1.4-.25,2,.08.38-.62,1.25.3,1.37-.58,0,.91,1.29.73,1.75.31-.16.27.4.28.22.66.53,0,1-.18.92-.64,1,1.08,1.95-.88,2.5.51a31.77,31.77,0,0,1,4.43-1c-.06.91-1.56.09-1.5,1,1.34-.37,2.11-1.14,3.43-.93.35.13-.19.39-.31.55,1.34-.37,2.59.08,3.77-.41,0,.08-.13.17-.25.24.24,0,.55.14.52-.27l-.23.11c-.37-.6.93-1.25,1-1.56-.39,1.17,1.18.3.55,1.78a.56.56,0,0,0,.31-.55c.23.08.3.24.07.56.84-.23.54-.66,1.3-.65,0,.2-.16.27-.23.51.38-.39.77-.78,1.41-.61,0,.12,0,.27-.16.27,1.11-.06,1.88-1,3.1-.66-.36.87.41.29.47,1l.65-.22-.26-.36c.57,0,1.08-.53,1.57-.29l-.43.31,1.07-.14-.6-.28c.57-.39-.07-.95.69-.74-.15.07.57,0,.87.45h0c.28-.24.57-.49,1-.3.11.24-.09.82,0,1,.27-.62,1.33-.17,1.68-.84a1,1,0,0,0-.08.63l.23-.5c.27.16.31.24.26.55.8.09-.25-1,.69-.54-.07,0,0,.12-.19.19.95.22,1.83-.32,2.7-.07.26.75-.76.18-.47.82,1.26-.14,2.6-.9,3.82-.72l-.23-.09c.17-1.06.91.53,1.52,0-.15.07-.2.58-.16.47.83.17,1.7-.26,3-.6l-.15.27a8.42,8.42,0,0,0,1.82.27c.15-.27.46-.23.27-.62,1.64,1.55,3.12-.84,4.57.46-.18,0-.42.23-.28.23l1.23-.25c-.09-.46-.16-.28-.42-.64a1,1,0,0,1,.81-.48c-.55.3,0,.74.25,1,0-.14,0-.3,0-.44.64.82.11-.93,1-.38l-.05.24c.33-.12.63-.44,1-.37.15.53-.35.25-.37.69.49,0,1-1,1.43-.48-.21.15-.52.15-.73.3.49.62.55.46.92.56h0l.85.28-.22-.17c.62-1.39,1.27-.25,2.11-1.16-.82.86-.13.5-.2,1.1.22.17.55.36.45.53.4-.49.67.38,1.23-.33,0,.19.42,0,.33.51.52-.15-.12-.34-.08-.59.8-.66,1.88.81,3-.1,1-.38,1.17-1,2.09-1.36.31.31-.26.71-.26.71a1.31,1.31,0,0,0,1.35,0c-.1.17,0,.31.15.53.37,0,.25-.71.75-.42a3.11,3.11,0,0,1-.38.78c.44-.18.88-.54,1.34-.72.13.34-.27.52-.44.74.52-.15,1.34-.31,1.5-.85l-.33-.19c.19,0,.1.46,0,.56-.44.42-.64-.18-.66-.38l.32-.12c-.33-1.15-1.31.18-2,.11l.27-.83-.68.69c-.14-.22-.24-.68.09-.8-.48-.42-.42.29-.83-.17,0-.07,0-.11,0-.14l-.46.25c.09-.18-.08-.59.2-.47-.83-.48-1.33.62-1.65,0l.07,0c-1.15.28-.11.61-1,1.33l-.58-1.51-.12.61c-.12,0-.35-.07-.31-.31-.44.42.08.27-.18.66-.57-.56-1.58.26-1.7-.71-.21.46.54.36-.07.68-.17-1-.7.18-1.23-.3.16-.54.66-.26.14-.74-.32.92-1-.2-1.46,0,0,.72-1,.3-1.7.54.05-.24-1.39-.4-2.08-.66l0-.12c-.13.73-.84.59-1.36.75a.85.85,0,0,1,.4-.81h-.49a.76.76,0,0,1-.58.44l.12-.55c-.65,0-1.3.65-2.13.28-.05.52.66,1.43-.22,1.77,0-.27-.07-.75.16-.86-.07,0-.26.23-.42.11l.36-.47c-.38-.2-.2.39-.51.35,0-.39-.22-.28-.18-.6.08,0,.27.17.38,0a1.33,1.33,0,0,1-.89-.6c0,.22,0,.53-.25.58-.64,0-.22-.47-.59-.68-.16.28-.57,0-.58.58-.19,0-.23-.27-.3-.43-.34.26-1.56.07-1.19.7l.09,0-.06,0h0c-1.09.58-2.27-.34-3.36-.09v-.19c-.65.22-1.45.13-1.91.55a.53.53,0,0,1-.37-.59c-.5.15-.55.37-1.27,0,.5-.34-.17-.3.51-.25-.64-.17-.79-.49-1.48,0,.23-.5-.49-.63-.79-.48l.45.36a2.8,2.8,0,0,1-1,0l.17-.67c-1.32-.81-2.38,1.38-3.38,0-.35.47.71.33.4.88-.61-.09-1.24-1.05-1.43-1.05-.83-.37-.78,1-1.65.72a.76.76,0,0,1-.43,1.09c-.61-.09-.75-1-.36-1.18.14,0,.21,0,.21.13.19-.08.45-.19.21-.44l-.08.23c-.3-.24-1.14-.21-.94-.6-.46.22-.2.39.14.51-.78-.34-1.21,0-2-.24.13.13.25.41.12.41-1.18-.3-.52.45-1.31.55-.46-.36.16-.86-.64-.56-.49-.24-.11-.63.09-.82-.73.45-1.37-.3-1.79-.39l.39-.19a1.28,1.28,0,0,1-.61.11l.22.47c-.23-.08-.42-.08-.42-.28-.23.31.18.79-.28,1.22-.3-.24-.92.26-1-.37,1,.21-.11-.64.69-.74a.71.71,0,0,1-.57,0c0-.07,0-.13.1-.17-.91-.56-.42.72-1.36.7.12-.35-.22-.67-.37-.6.38,0,.18.6-.17.87-.6-.28-.65.2-1,.17l.36.13c-.12.36-.42.31-.84.42,0-.27.38-.19.23-.31-.47.62-1.05-.65-1.7-.23-.31-.24,0-.66-.3-.83-.73.47-.79-.48-1.56-.1.23.48.26.36-.28.82l1.26-.33-.8.69c.38,0,.8-.3,1-.22-.39.39-.35.27-.17.67-.52-.72-1,.42-1.63-.07l0-1.18c-.91-.52-1.61.61-2.78.31l.37.21c-.15.47-.72.06-1.1.25,0-.39-.2-.54-.37-.78,0,.29-.86,0-1,.76l-.53-.52c-.94-.21-1.08,1.13-2,1,.27-.43-.14-.71.47-1-.3,0-.58-.07-.58.2-.18-.25-.85.53-1.13.16-.12.17-.17.59-.51.55a.28.28,0,0,1,0-.19c0,.19-.53.26-.23.7-.94-1.23-2.62.09-3.44-1a15.82,15.82,0,0,1-2.07.29c0-.12,0-.2.12-.16-.83-.36-.51,1.14-1.46.73-.48-.64.5-.35.2-.59-.13-1.3-1.14.18-1.78-.58l.16-.08c-.49-.44-1.19.5-2,.4a.33.33,0,0,0,0-.19,4.27,4.27,0,0,1-2.34,1.06c.24-.51.35-.27.2-.78-.34.07.1.83-.58,1-.22-.28-.72-.52-.78-1.07l.64,0c-.33-.71-.83,0-1.17-.1l0-.31c-1,.1-1,.88-2.07.83l.11.23c-.58.78-.49-.43-1.07.15l-.17-.79a10.05,10.05,0,0,1-2,.91,5.71,5.71,0,0,1,1.69-1.24c-.38,0-1.29.06-1.49.45.15-.07.35-.27.5-.15a2.14,2.14,0,0,1-1.84.92c.13-1.53-2-.39-2.53-1.58-1.34.57-2.65-.24-4.22-.15.56,1.19-.45,0-.36,1.26-.36.08-.5.06-.53,0l-1.1-.73c-.26-.36.34-.27.31-.55-.8-.09-.33-.52-.86-.84.11.44-.28.63-.73.46l.64.56c-1.12.65-1-1-2.09-.38l.36-.38c-.58.22-2.13,0-2.69,1-.1-.14-.24-.47,0-.56-1.38-.15-3.07,1-4.13.44l.1-.3c-.26.08-.45.56-.77.26,0-.12.1-.3,0-.32s-.69.53-1,.35l.29-.33c-1.34-.4-2,.82-3.18,1,0-.88-1.05-1.17-1.58-1.31l0-.12c-1.56-.11-2.66.73-4.1,1.07-.9-.95-3-.4-4.49-.93.22.16,0,.68-.29.77-.34-.18-.94.61-.88-.2l.12,0c-.26-.79-1-.58-1.5-.6l-.09,1c-1.42-1.53-3.72.57-4.5-.81-.34.27-.77.26-1.11.53l0-.57a7.89,7.89,0,0,0-2.6-.08l.24-.41c-.66,0-.84,1.64-1.45,1.67l-.18-.84c-1.16,0-2.33-.73-3.47,0,0-.12,0-.37.24-.4-.55,0-2.11-.57-1.91.59,0-.76-1.19-.08-1.82.26l.1-.56c-.53.71-.54.91-1.28,1.1-.18-.07-.15-.44.08-.3-.58-.29-.46.53-1.16.23l.26-.35c-.6,0-.55.14-.88.56a1,1,0,0,1-1.22-.65c-.08.31-.41.72-.76.58a.37.37,0,0,1,.14-.37c-1-.38-1.48.65-2.17.1a.45.45,0,0,0-.12-.33,6.29,6.29,0,0,1,1.38.08c0-.51-.64-.6-.13-1.31-.52.39-1.4,1.23-2,1a1,1,0,0,1-.09-.18l.07-.06a.44.44,0,0,0-.4.08,1.46,1.46,0,0,0-.52-.15c-.07-.42-.73-.23-1-.25,0,.56-.39.47,0,.94,0,0,.06-.07.27-.09a.45.45,0,0,0,.14-.06.08.08,0,0,0,0,.05l.79,0c-.25.28-.52.53-.87.21a8.55,8.55,0,0,1-.45.91c-.43-.78-1.28-1.21-1.4-1.69-1,.31-2.3.21-2.91,1.26-.28.14-.32-.3-.43-.47.17-.1.36-.09.44-.24-.55.27-1.64.11-1.78.85-.7-.34.4-.68-.56-.56l.13-.23c-1.9-1.18-3.08,1.89-5.18.37.15.09.22.14.25.26-2.39-.67-4.93.63-7.29-.43-.67-.21-.74.26-1.15.61l-.15-.6-.7.7c-1,.51-1.72-1.48-3-.52l.17.41c-.45-.08-1.43.24-1.36-.23,0,.07-.15.42-.32.21l0-.32-1.1.55c-.86-.23.13-1.26-1.12-1.32-.47.12-1.33.92-1.16,1.13a.58.58,0,0,1,.5.51l-.43.17c-.08.93-.4,1.88.64,2.53l.73-.56.24.45-.62,0c.35.42.57,0,.82-.21a.74.74,0,0,0,.31.49l.71-.89c.09.37-.32.73.16.93.34-.41-.32-.82.23-1.09.35.42.25.77.66.41a.41.41,0,0,1-.19.49c.36-.28,1-.12,1.15-.61.37.52,1.23-.14,1.2.74a1.81,1.81,0,0,1,1-.72c-.61,1,1.26.06,1.1,1.19.45-1,1.63-.42,2.43-1,0,.08-.13.23-.2.18.45.08.58.37.87.54.06-.78.76-1,1.14-1.44.56.75-.33.92-.16,1.64,0-.63,1-.63.77-1.16.43.47.37.23.59.88.07-1,.39-.17.74-.77.61.48.16.92.83.62C54.58,105,54,105.38,54,105.38Zm16-1.7h0l-.33,0Zm1.35,0a5.34,5.34,0,0,0-.59,0c0-.19,0-.39.14-.38C70.81,103.4,71.13,103.51,71.33,103.67Zm-2.85-3.89c.22-.08.29,0,.32.14a2.63,2.63,0,0,0-.38.07.19.19,0,0,1,0,.07A.93.93,0,0,1,68.48,99.78Z"/><path class="cls-4" d="M68.1,100.52l-.09,0,.13.12c0-.06,0-.12.08-.17Z"/><path class="cls-4" d="M190,101.35h0a.12.12,0,0,1,.06.08A.36.36,0,0,1,190,101.35Z"/><polygon class="cls-4" points="89.89 104.75 89.89 104.61 89.77 104.73 89.89 104.75"/><path class="cls-4" d="M197.39,103.28a.24.24,0,0,0,.09.14A.29.29,0,0,0,197.39,103.28Z"/><path class="cls-4" d="M200.59,103.4l.45.2A2.87,2.87,0,0,0,200.59,103.4Z"/><path class="cls-4" d="M203.05,103.68a.8.8,0,0,0,0-.24h0Z"/><path class="cls-4" d="M163.94,104.34a.32.32,0,0,0-.09,0C163.62,104.48,163.78,104.44,163.94,104.34Z"/><path class="cls-4" d="M175.58,103a2.4,2.4,0,0,1-.38.27C175.41,103.34,175.57,103.35,175.58,103Z"/><path class="cls-4" d="M151,105h0Z"/><path class="cls-4" d="M174.66,103.29a.57.57,0,0,0,.54,0A.77.77,0,0,0,174.66,103.29Z"/><path class="cls-4" d="M213.71,103.94l.11,0a.2.2,0,0,1,0-.09Z"/><path class="cls-4" d="M213.84,103.87l.13-.07C213.91,103.8,213.86,103.81,213.84,103.87Z"/><path class="cls-4" d="M214.25,103.66l-.28.14A.23.23,0,0,0,214.25,103.66Z"/><path class="cls-4" d="M210.45,103.68l0,.2A.46.46,0,0,0,210.45,103.68Z"/><path class="cls-4" d="M209.46,103.74c.24,0,.59.43.92.3l0-.16C210.26,104.19,209.68,103.39,209.46,103.74Z"/><path class="cls-4" d="M205.33,101.22l.83.16c-.15-.22-.34-.51,0-.56C205.16,100.17,206.42,101.3,205.33,101.22Z"/><path class="cls-4" d="M202.76,100.9c.45-.1,0-.31,0-.44C202.5,100.66,202.43,100.71,202.76,100.9Z"/><path class="cls-4" d="M184.18,100.9l0-.51C183.88,100.46,184.22,100.59,184.18,100.9Z"/><polygon class="cls-4" points="180.63 103.54 180.97 103.86 181.12 103.39 180.63 103.54"/><polygon class="cls-4" points="178.53 99.9 178.68 99.83 178.11 100.01 178.53 99.9"/><path class="cls-4" d="M147.33,100.08l.11.63C147.67,100.6,147.72,99.89,147.33,100.08Z"/><path class="cls-4" d="M133.86,100.72c-.14-.31-.52-.51-.76-.2C133.41,100.56,133.71,100.8,133.86,100.72Z"/><polygon class="cls-4" points="93.47 99.7 93.74 99.49 93.23 99.66 93.47 99.7"/><path class="cls-4" d="M92.54,157.85c.11.14.46.32.48.13l-.5-.45Z"/><path class="cls-4" d="M94.18,157.53a2.16,2.16,0,0,0-1.11-1.05c.43.51.18.41.71,1,0,.18-.33.14-.52,0,.11.14-.27.15,0,.45.55.08.72-.15.51-.62A.9.9,0,0,1,94.18,157.53Z"/><path class="cls-4" d="M103.78,144l-.12,0A.22.22,0,0,0,103.78,144Z"/><path class="cls-4" d="M109.5,135.5a.13.13,0,0,0,.06.17C109.56,135.59,109.56,135.52,109.5,135.5Z"/><path class="cls-4" d="M111,134.4l-.09.06C111,134.46,111.07,134.45,111,134.4Z"/><path class="cls-4" d="M103.78,144l.32-.13C103.93,143.76,103.89,143.93,103.78,144Z"/><path class="cls-4" d="M94,154.75a.52.52,0,0,0,.07.21.77.77,0,0,1,0-.15Z"/><path class="cls-4" d="M101.85,148.14l0,.07.19.2Z"/><path class="cls-4" d="M100.11,151.14c.06-.06-.4-.38-.59-.53.17.16.23.27.23.35A3,3,0,0,0,100.11,151.14Z"/><path class="cls-4" d="M96.37,155.29v.12A.53.53,0,0,0,96.37,155.29Z"/><path class="cls-4" d="M103.27,146.09a.71.71,0,0,0,.19.08Z"/><path class="cls-4" d="M150.85,61.47l.09.06C150.9,61.48,150.87,61.45,150.85,61.47Z"/><path class="cls-4" d="M155.34,59.53v.06l.27.18Z"/><path class="cls-4" d="M113.34,132.06h0C113.34,132.17,113.35,132.12,113.34,132.06Z"/><path class="cls-4" d="M128.5,106.86c-.6,0-.26-.8-1-.66C127.72,106.27,128,107,128.5,106.86Z"/><path class="cls-4" d="M94.13,154.71l.07-.13A.24.24,0,0,0,94.13,154.71Z"/><path class="cls-4" d="M127.5,106.2h0l-.07,0Z"/><path class="cls-4" d="M117,125.61a.82.82,0,0,0-.25-.06A.74.74,0,0,0,117,125.61Z"/><path class="cls-4" d="M113.37,129.86l.14-.08A.26.26,0,0,0,113.37,129.86Z"/><path class="cls-4" d="M117.78,122.77c.08,0,.16,0,.15-.15h-.08C117.9,122.68,117.9,122.74,117.78,122.77Z"/><path class="cls-4" d="M119.35,120.24h-.13a.36.36,0,0,1,0,.1Z"/><path class="cls-4" d="M146.32,69.29a1.8,1.8,0,0,1,.5.15C146.46,69.26,146.56,68.82,146.32,69.29Z"/><path class="cls-4" d="M94.29,154.91c-.11-.09-.15-.15-.16-.2a.3.3,0,0,0,0,.1A.47.47,0,0,0,94.29,154.91Z"/><path class="cls-4" d="M114.08,120.33l.32-.36A1.13,1.13,0,0,0,114.08,120.33Z"/><path class="cls-4" d="M135.14,87.44v-.13S135.1,87.38,135.14,87.44Z"/><path class="cls-4" d="M115.07,118.74a1,1,0,0,0,.47,0l-.1-.12Z"/><path class="cls-4" d="M146.82,69.44Z"/><path class="cls-4" d="M147.33,66.09c-.25.38.5.56.81.87-.1.57-.59-.08-1-.12,0,.39.43,1,.28,1.16-.12,0-.18,0-.28-.16.31.61-.53.91-.12,1.65l-.19,0a4.94,4.94,0,0,1,.9.48c-.1.18.2.56-.25.37.08-.09-.08-.21-.18-.33l.06.29c-.69-.21,0-.38-.48-.65,0,.47.21,1.18-.13,1.35-.61-.3.2-.75-.54-.71l.48-.28c-1.11-.25.22-.21-.93-.52-.51.44-.09.79-.6,1.23.25.32.5.25.75.58.09,1.13-1.83-.3-1.42.75.3.39,1,.9.35,1.06l-.56-.54c-.4.49.75.88,0,1.16-.19-.25.05-.55-.08-.51-.74,0,.21.48,0,.76l-.61-.31c-.26.62-.23,1.5-.51,2.19-.15-.14-.27-.36-.53-.32a4,4,0,0,1-1.93,2.18l.32.6c-.05.06-.3,0-.36-.15-.37.18.31.21.42.47-.07.19-.43,0-.51-.15.1.78,0,2-.89,2.27l-.08-.2c-.47.3.72,1.12,0,1.22l0-.13c-.79.8-1,2.11-2.17,2.35.64.58-.89.72.08,1.4-.83.22-.91,0-1.71.5-.17.17.44.69.39,1l-.53-.32.35.67-.74-.21v.32a.49.49,0,0,1,.5.06c0,.5-.91.65-1.19.49L134.37,89c-.2-.15-.19-.34-.25-.53.25.79-.6-.26-.37.46.15,0,.29.22.39.3-.45,0-.74.48-.83.92l-.32-.29a19.56,19.56,0,0,0-1.1,2.15c.32-.15.91.29.84.54l-.6-.26c.26.35.34-.09.59.45-.23.22-.74-.21-.83-.48v.44c-.17-.08-.21-.21-.41-.36.26.35-.9.21-.43.77l-.17-.08a19.11,19.11,0,0,0-.79,1.75c.47.3.22.47.5.88-.41.33-1.08.57-1.36,1.11,0,.51.34.35.52.69-.45-.24-.73.3-.87-.16a4.41,4.41,0,0,0-.54,1.83c.23,0,.37,0,.49.13s-.38.2-.58,0l0-.06c.11,1.28-2.52,1.23-2,2.49l0-.07,0,1c-.28.28-.2-.41-.62-.33.24,1.23-.87,1.17-.78,2.11-1.6-.3-1,1.82-2.24,2l.32.15c.19.35-.3.1-.45.18.25.13.39,0,.49.19-.55,1.7-2.33,2.76-3.53,4.09-.43.5,1.37,1.28.22,1.53l-.44-.55c0,1.53-1.44,2.26-1.54,3.7-.09-.14-.26-.25-.19-.36-.55,0-.55.84-.22,1-.14.15-.32-.15-.55-.15-.39.08.16.9-.32.77-.08,0-.1-.14-.1-.2.1.27-.49.66.07.81-.47.27-.27.91-.75,1.06.39.54-.69.55,0,1.07-.75-.5-1.06.33-.86.82-.18-.23-.38.07-.64-.23a.54.54,0,0,0,.23.85c-1.26,0,.06,1.55-1.3,1.13a14.71,14.71,0,0,1-.66,3c-.75-.51.46-.92-.37-1.38-.14.94.25,1.78-.4,2.4-.22.13-.26-.31-.35-.46-.15.94-1,1.4-1,2.32a.4.4,0,0,1-.12-.27c-.06.15-.3.24,0,.44v-.19c.63.11.73,1.17,1,1.36-.86-.84-.65.5-1.7-.63a.66.66,0,0,0,.36.46c-.15.09-.31,0-.49-.25-.11.58.37.65.1,1.07-.17-.11-.18-.24-.35-.4.19.42.39.84,0,1.11-.09-.09-.25-.13-.18-.24-.33.65.23,1.6-.51,2.08-.61-.66-.38.08-1-.28l0,.48.4,0c-.21.31.08.88-.3,1l-.11-.4-.25.67.45-.19c.13.53.82.47.38.78,0-.13-.2.31-.68.25h0c.1.29.22.58-.09.72-.24-.07-.67-.49-.83-.53.44.48-.31.84.13,1.38a1.47,1.47,0,0,0-.5-.38l.35.4c-.23.06-.31,0-.56-.14-.36.39.89.35.21.66,0-.06-.08-.08-.09-.2-.51.41-.36,1.19-.88,1.54-.73-.25.11-.52-.53-.69-.32.77-.14,1.92-.71,2.51l.15-.09c.84.66-.76.23-.54.84,0-.13-.44-.42-.35-.34-.43.38-.37,1.09-.52,2l-.18-.23c-.37.14-.56.64-.85.87.17.23,0,.38.43.49-1.88.09-.37,2.17-2,2.3.06-.1-.06-.36-.11-.28l-.21.82c.42.19.29.06.69.1a.72.72,0,0,1,.13.71c-.07-.47-.63-.39-.94-.39.14.05.24.18.37.24-.92-.07.75.55,0,.75l-.19-.15c0,.25.16.59,0,.75-.51-.2-.09-.33-.46-.57-.15.29.52,1.08-.09,1,0-.2,0-.37,0-.56-.71-.06-.59.05-.8.21l0,0-.53.32.22,0c1,1.09-.23.85.26,1.8-.45-.91-.38-.34-.87-.7-.22,0-.49.12-.6,0,.27.48-.56.16-.15.85-.17-.09-.16.23-.55-.08,0,.37.33.11.53.27.29.79-1.34.61-1,1.74,0,.74.47,1.19.43,1.88-.37,0-.51-.52-.51-.52-.42.13-.5.37-.48.75-.11-.15-.26-.17-.5-.2-.09.23.52.51.1.64a3.72,3.72,0,0,1-.54-.63c0,.35.16.78.15,1.13-.33-.11-.34-.42-.47-.63,0,.37-.21.91.19,1.28l.28-.08c0,.12-.42-.19-.46-.32-.2-.47.38-.26.56-.17v.25c1.09.41.3-.83.58-1.17l.62.6-.36-.75c.24,0,.67.23.66.48.51-.05-.11-.39.42-.38a.12.12,0,0,1,.12.09l-.05-.39c.12.14.53.27.32.36.7-.21-.06-1.07.58-.92l0,.07c.16-.79-.48-.39-.79-1.25l1.48.48-.48-.39a.26.26,0,0,1,.38,0c-.21-.47-.26-.1-.5-.45.67,0,.32-1,1.19-.57-.32-.36-.49.11-.55-.4,1,.46.09-.49.68-.52.4.37,0,.5.58.46-.67-.66.52-.46.52-.8-.61-.4.08-.7.13-1.24.19.16.82-.56,1.28-.81l.1.08c-.58-.46-.22-.79-.17-1.15.37.24.49.38.56.64l.16-.27a.61.61,0,0,1-.17-.56l.42.36c.2-.38-.1-1.07.5-1.34-.42-.29-1.44-.38-1.42-1,.24.13.66.36.67.55,0-.07-.1-.28,0-.3l.28.44c.3-.1-.27-.31-.12-.46.33.21.31,0,.56.22,0,.06-.23.06-.13.2a1,1,0,0,1,.82-.18c-.2-.1-.45-.28-.41-.44.2-.38.48.12.78,0-.18-.23.21-.31-.29-.63.07-.1.31,0,.48.07-.11-.33.47-.91-.19-1l-.07,0s0,0,0,0h0c-.12-.92,1.07-1.1,1.24-1.84l.16.11c0-.48.39-.88.19-1.36.07-.11.46-.06.64.11,0-.36-.13-.51.4-.74.12.47.32.07,0,.42.37-.27.69-.18.47-.85.35.4.71.06.69-.19l-.46.06a1.1,1.1,0,0,1,.34-.52l.51.44c1.14-.31-.35-2,1.15-1.9-.27-.44-.53.23-.88-.23.29-.29,1.32-.14,1.38-.25.61-.27-.55-.94,0-1.3-.24-.06-.81-.33-.78-.81.29-.3,1.11.1,1.14.42,0,.09-.12.09-.19,0,0,.16,0,.36.3.36l-.17-.17c.31,0,.58-.52.84-.21,0-.37-.26-.31-.48-.19.56-.25.43-.67.9-1-.16,0-.43-.08-.39-.14.66-.51-.2-.53,0-1,.46-.06.68.55.7-.06.37-.15.57.27.66.48-.13-.65.73-.6,1-.79l0,.32a.53.53,0,0,1,.12-.4l-.48-.13c.15-.08.21-.19.38-.08-.18-.3-.73-.32-.93-.8.31,0,.09-.65.67-.38-.51.42.57.28.38.78a.33.33,0,0,1,.21-.31.16.16,0,0,1,.1.14c.8-.21-.46-.61-.12-1.13.26.26.65.24.64.11-.14.21-.57-.21-.68-.55.44-.19,0-.47.19-.63l-.24.13c-.25-.25-.11-.4-.06-.69.25.13,0,.31.19.29-.37-.59.91-.24.78-.83.31,0,.57.34.8.28-.13-.65.69-.19.63-.82-.48-.12-.39,0-.6-.59l-.15.88-.31-.81c-.14.2,0,.6-.17.69-.2-.43-.11-.34-.51-.45.79.09,0-.79.62-.87l1,.63c.76-.23,0-1.22.7-1.71l-.31.1c-.34-.34.2-.44.17-.75a1.42,1.42,0,0,0,.79.21c-.25-.15.32-.47-.31-.94l.62,0c.51-.42-.58-1.2-.15-1.64.27.38.65.3.7.8.11-.17.27-.28,0-.43.27,0-.16-.75.25-.71-.1-.16-.44-.4-.29-.58a.55.55,0,0,1,.16.11c-.16-.11,0-.44-.51-.5,1.37.12.83-1.51,2-1.41a7.33,7.33,0,0,1,.47-1.3c.09.08.17.1.1.14.6-.27-.79-.88-.11-1.19.71.06.12.46.42.42,1.15.61.25-.73,1.11-.69l0,.13c.54,0,0-.92.34-1.32a.68.68,0,0,0,.17.11,2.55,2.55,0,0,1-.1-1.87c.35.4.11.34.6.53.06-.23-.74-.38-.62-.84a2.15,2.15,0,0,1,1.18.13l-.2.37c.72.2.27-.47.49-.6l.25.19c.26-.61-.4-1,0-1.59l-.24-.06c-.46-.74.54-.05.25-.67l.74.31a5.88,5.88,0,0,1-.08-1.61,4.38,4.38,0,0,1,.47,1.59c.13-.2.39-.75.13-1.06,0,.12.11.33-.05.35a1.32,1.32,0,0,1-.13-1.5c1.25.88,1-.9,2.21-.58,0-1.05,1.12-1.36,1.59-2.28-1.2-.31.13-.27-.94-.86.06-.24.12-.31.2-.29l1-.23c.39.05.11.34.36.47.35-.4.55.08,1,0-.41-.17-.44-.49-.14-.65l-.7.06c-.16-1,1.21,0,1.05-1l.2.4c0-.44.74-1.18.11-2,.15,0,.48.11.47.3.6-.69.17-2.26,1.06-2.53l.21.21c0-.19-.32-.54.05-.56.1.07.22.21.27.15s-.21-.65.06-.75l.18.34c.8-.54,0-1.58.24-2.32a1.38,1.38,0,0,0,1.66-.19l.1.08c.63-.82.3-1.87.5-2.86,1.13,0,1.4-1.48,2.35-2-.21,0-.57-.38-.55-.57.27-.09-.2-.84.47-.39l-.06.06c.77.28.83-.22,1-.51l-.86-.61c1.8,0,.81-2.38,2.25-2.08-.11-.33,0-.57-.06-.9l.47.31a3.4,3.4,0,0,0,1-1.41l.26.35c.26-.35-1.1-1.33-.91-1.69l.78.35c.39-.66,1.42-.92,1.17-2,.1.08.29.23.26.35.2-.29,1.21-.87.16-1.38.65.39.47-.62.41-1.15l.44.35c-.42-.67-.58-.78-.5-1.3.13,0,.44.15.23.21.45-.17-.29-.53.21-.77l.21.34c.24-.32.07-.39-.17-.79-.06-.33.51-.56,1-.34-.23-.21-.47-.61-.22-.73a.5.5,0,0,1,.26.27c.66-.35,0-1.17.66-1.26a.71.71,0,0,0,.33.11,3.16,3.16,0,0,1-.55.72c.44.27.73,0,1.16.62-.15-.49-.56-1.43-.14-1.65a.83.83,0,0,1,.18,0l0,.07a.21.21,0,0,0,.06-.27c.14-.07.24-.1.31-.21.39.19.45-.29.58-.45-.48-.29-.26-.47-.79-.5,0,0,0,.07,0,.2a.41.41,0,0,0,0,.11l0,0c-.06.13-.15.29-.25.46-.15-.29-.26-.56.12-.59-.25-.29-.5-.58-.61-.73.82.17,1.47-.08,1.92.11.07-.71.62-1.39-.06-2.29,0-.23.36,0,.54,0s0,.24.05.37c0-.45.49-1-.1-1.44.53-.21.45.58.68,0l.14.19c1.66-.43-.53-2.71,1.48-3.08a.39.39,0,0,1-.3,0c1.39-1,1.17-3.08,2.89-3.84.41-.26,0-.55-.13-1l.57.23-.35-.75c-.09-.83,1.85-.18,1.47-1.39l-.4-.13c.22-.21.29-.92.66-.63-.05-.07-.31-.31-.07-.29l.28.16-.08-.91c.49-.36,1,.74,1.51.07.05-.32-.33-1.22-.57-1.24a.48.48,0,0,1-.6,0v-.33c-.76-.53-1.46-1.22-2.37-1l.23.71-.47-.11.19-.36c-.48,0-.24.3-.1.57a.87.87,0,0,0-.53-.09l.51.87c-.34-.15-.51-.56-.84-.4.23.4.8.25.84.7-.48,0-.74-.26-.57.15a.51.51,0,0,1-.36-.37c.12.36-.23.61.12,1-.57-.07-.31.76-1,.28a1.46,1.46,0,0,1,.28.93c-.69-.9-.49.66-1.39,0,.64.75-.21,1.13,0,1.85,0-.06-.15-.19-.09-.2-.22.21-.51.13-.76.2.65.44.55.93.83,1.4-.83-.1-.66-.68-1.34-1,.55.32.21.87.72,1a1.6,1.6,0,0,1-1-.14c.81.56,0,.31.4.82-.62.09-.84-.39-.82.14C147.42,66.61,147.33,66.09,147.33,66.09Zm-4.1,9.82h0c0-.09.07-.16.09-.21A1.94,1.94,0,0,0,143.23,75.91Zm-.46.76a2.21,2.21,0,0,0,.22-.32c.18.08.33.21.28.28C143.18,76.52,143,76.64,142.77,76.67Zm4.29.47c0,.16-.12.14-.23.09a.87.87,0,0,0,.07-.24l-.05,0A1,1,0,0,1,147.06,77.14Z"/><path class="cls-4" d="M146.57,76.53a.16.16,0,0,1,0-.07h-.16a1.59,1.59,0,0,1,.13.13Z"/><path class="cls-4" d="M103.64,144.08h-.07Z"/><polygon class="cls-4" points="135.42 86.45 135.54 86.53 135.48 86.4 135.42 86.45"/><path class="cls-4" d="M99.43,147.19a.25.25,0,0,0-.15,0Z"/><path class="cls-4" d="M98.22,148.91l-.33.14A1.38,1.38,0,0,0,98.22,148.91Z"/><path class="cls-4" d="M97.13,150.13a1.12,1.12,0,0,0,.19.15h0Z"/><path class="cls-4" d="M110.12,128a.15.15,0,0,0,0-.07C110.11,127.72,110.1,127.83,110.12,128Z"/><path class="cls-4" d="M107.2,135.15a1.81,1.81,0,0,1-.1-.34C107,134.9,106.93,135,107.2,135.15Z"/><path class="cls-4" d="M114,120.37h0l0,0Z"/><path class="cls-4" d="M107.3,134.51a.26.26,0,0,0-.2.3C107.2,134.73,107.31,134.65,107.3,134.51Z"/><path class="cls-4" d="M93.22,155.94l-.06.06a.13.13,0,0,1,.07.05Z"/><path class="cls-4" d="M93.23,156.05v.11A.07.07,0,0,0,93.23,156.05Z"/><path class="cls-4" d="M93.27,156.39l0-.23C93.21,156.21,93.15,156.27,93.27,156.39Z"/><path class="cls-4" d="M94.57,154.26l-.16-.13A.58.58,0,0,0,94.57,154.26Z"/><path class="cls-4" d="M94.86,153.68c-.12.11-.57.1-.58.35l.13.1C94.21,153.89,95.08,154,94.86,153.68Z"/><path class="cls-4" d="M98.43,152.71l-.42.37c.23,0,.55.08.46.32C99.38,153.16,98,153.27,98.43,152.71Z"/><path class="cls-4" d="M99.59,151.44c-.07.3.27.16.37.24C99.89,151.42,99.87,151.35,99.59,151.44Z"/><path class="cls-4" d="M106,141.08l.42.29C106.51,141.14,106.28,141.27,106,141.08Z"/><polygon class="cls-4" points="105.01 137.7 104.63 137.72 104.97 138.06 105.01 137.7"/><polygon class="cls-4" points="108.84 138.45 108.85 138.58 108.89 138.16 108.84 138.45"/><path class="cls-4" d="M119.49,121l-.57-.27C118.93,120.87,119.52,121.27,119.49,121Z"/><path class="cls-4" d="M123.61,113.1c.32.09.62,0,.44-.31C123.91,112.94,123.6,113,123.61,113.1Z"/><polygon class="cls-4" points="138.48 91.11 138.56 91.38 138.59 91 138.48 91.11"/><path class="cls-5" d="M179.56,41.11c-2.69-1.66-2.49-6.42,0-7.25L184.74,38Z"/><path class="cls-6" d="M187.72,42.67a2.5,2.5,0,0,1-.71-.11c-10.18-3-23-10-23.55-10.24A2.49,2.49,0,1,1,165.83,28c.13.07,12.91,7,22.59,9.85a2.49,2.49,0,0,1-.7,4.87Z"/><path class="cls-7" d="M109.64,40.13l2.81,15.31a1.92,1.92,0,0,1-1.55,2.24,2,2,0,0,1-1.39-.27,1.93,1.93,0,0,1-.85-1.28L106,41.32"/><path class="cls-6" d="M106.69,57.71a2.13,2.13,0,0,0-2.07,2.19L105,72.59a6.26,6.26,0,0,0,4.25-.49l-.34-12.32A2.13,2.13,0,0,0,106.69,57.71Z"/><path class="cls-8" d="M105.18,80.54a2.13,2.13,0,0,0,2.19,2.07,2.08,2.08,0,0,0,1-.28,2.11,2.11,0,0,0,1.07-1.9l-.23-8.33a6.26,6.26,0,0,1-4.25.49Z"/><path class="cls-9" d="M105.7,82.72a5.11,5.11,0,0,1-.57-4c2.89,2,4.48-.5,4.48-.5l1.59,4Z"/><path class="cls-9" d="M105.27,83.86c.15,1.69,6.27,1.16,6.13-.53a3.08,3.08,0,0,0-6.13.53Z"/><path class="cls-9" d="M105.07,82.81c.14,1.69,6.27,1.17,6.12-.53a3.07,3.07,0,0,0-6.12.53Z"/><path class="cls-6" d="M101.1,59.13A2.12,2.12,0,0,0,99,61.31L99.38,74a6.31,6.31,0,0,0,4.25-.48l-.34-12.32A2.13,2.13,0,0,0,101.1,59.13Z"/><path class="cls-8" d="M99.6,82A2.12,2.12,0,0,0,101.78,84a2.19,2.19,0,0,0,1-.27,2.15,2.15,0,0,0,1.08-1.91l-.23-8.32a6.31,6.31,0,0,1-4.25.48Z"/><path class="cls-9" d="M100.11,84.13a5.07,5.07,0,0,1-.56-4c2.88,1.95,4.48-.51,4.48-.51l1.58,4Z"/><path class="cls-9" d="M99.69,85.27c.14,1.69,6.27,1.16,6.12-.53a3.07,3.07,0,1,0-6.12.53Z"/><path class="cls-9" d="M99.48,84.22c.15,1.7,6.27,1.17,6.12-.52a3.07,3.07,0,0,0-6.12.52Z"/><path class="cls-10" d="M105.09,43.88a20.06,20.06,0,0,0,6-2.26,30.76,30.76,0,0,0-3.84-7.31Z"/><path class="cls-11" d="M110,55.3a13.6,13.6,0,0,1-.93,8.39,6.44,6.44,0,0,1-3.62.12,23.85,23.85,0,0,1-8.19.26s-1.86-3.23-.72-9.39C101,53.45,110,55.3,110,55.3Z"/><line class="cls-12" x1="105.43" y1="63.81" x2="104.31" y2="60.68"/><path class="cls-10" d="M104.16,28.05c-4.27,1-8.18,20.53-8.6,29.13a24,24,0,0,0,14.91,0c-.56-7.76-1.79-17.44-3.47-23.37C106,30.15,105.78,27.66,104.16,28.05Z"/><path class="cls-7" d="M96.28,41,93.47,56.31A1.93,1.93,0,0,0,95,58.55a2,2,0,0,0,1.39-.27A1.93,1.93,0,0,0,97.26,57L100,42.19"/><path class="cls-10" d="M101.77,41a5.77,5.77,0,0,1-.69,3,15.85,15.85,0,0,1-6.15-1.35,11.6,11.6,0,0,1,1.78-6.07,4.78,4.78,0,0,1,2.84-2.19"/><ellipse class="cls-7" cx="103.93" cy="35.69" rx="1.5" ry="2.17"/><path class="cls-7" d="M113.28,22.46a2.09,2.09,0,0,1,1.71-.81,2.44,2.44,0,0,1,2.12,2.68,2.44,2.44,0,0,1-2.33,2.49,2.07,2.07,0,0,1-1.49-.76"/><path class="cls-7" d="M87.27,22.72c0,7.58,6.14,12.73,13.72,12.73,3.51,0,8.17-.72,10.59-2.89,2.82-2.51,3.13-5.76,3.13-9.84a13.72,13.72,0,0,0-27.44,0Z"/><path class="cls-13" d="M109.9,12.64l-3.79-1.2-4.64,1.62.83,3.78a20.27,20.27,0,0,1,7.26-.25C111.83,15.41,109.9,12.64,109.9,12.64Z"/><path class="cls-14" d="M87.27,22.72a13.72,13.72,0,0,1,27.44,0V23a8.37,8.37,0,0,0-6-6.73V12.52l-1.57,3.37-1.2-3.37L105.44,16l-2-3.13v3.79S91,17.85,94.17,33.89A12.26,12.26,0,0,1,87.27,22.72Z"/><path class="cls-7" d="M95.07,25.49a2.08,2.08,0,0,0-1.46-1.2,2.41,2.41,0,0,0-2.7,2.07,2.42,2.42,0,0,0,1.64,3A2.07,2.07,0,0,0,94.18,29"/><path class="cls-7" d="M106.46,28.1a1.81,1.81,0,0,0,1.28.54,1.82,1.82,0,1,0,0-3.63,1.8,1.8,0,0,0-1.28.53"/><path class="cls-15" d="M107.85,30.87a8.4,8.4,0,0,1-4.45,0s1.19,2.75,2.44,2.52S107.85,30.87,107.85,30.87Z"/><circle class="cls-13" cx="111.83" cy="24.68" r="0.84"/><circle class="cls-13" cx="98.89" cy="25.52" r="0.84"/><path class="cls-8" d="M191.26,37.69l-11.7-3.83c2.74,1.79,2.07,5.7,0,7.25A29.27,29.27,0,0,0,188,44Z"/><path class="cls-6" d="M74.74,111.71a2.41,2.41,0,0,1-1.13-.27L53.09,101a2.48,2.48,0,0,1,2.26-4.41L75.87,107a2.47,2.47,0,0,1-1.13,4.68Z"/><path class="cls-16" d="M39.44,139.12a6,6,0,0,0,.81,2.78c.71.89,3.23.79,4.83-1.5,3.31-1.5,6.74-4.86,3.93-7.46-1.54-1.41-3.79.18-3.94,1.79l-.33,1.47a5.48,5.48,0,0,1-2.13,3.23A2.87,2.87,0,0,1,39.44,139.12Z"/><path class="cls-17" d="M39.37,138a6,6,0,0,0,.81,2.78c.71.88,3.23.79,4.83-1.5,3.3-1.51,5.93-4.31,4-6.33s-6.12-.68-6.27.92l.69,1.24s.76,2.22-.89,3.19A2.86,2.86,0,0,1,39.37,138Z"/><path class="cls-6" d="M49.45,140.05a2.49,2.49,0,0,1-2.17-1.28L36.58,119.4a2.48,2.48,0,1,1,4.33-2.4l10.7,19.37a2.48,2.48,0,0,1-2.16,3.68Z"/><path class="cls-6" d="M41.4,139.07a2.49,2.49,0,0,1-2.19-1.31L26.83,114.41a2.47,2.47,0,1,1,4.37-2.32l12.39,23.35a2.47,2.47,0,0,1-1,3.34A2.43,2.43,0,0,1,41.4,139.07Z"/><path class="cls-18" d="M25,117.58a15.8,15.8,0,0,0,10.17-.88c4.95-2.39,11,0,11,0a58.34,58.34,0,0,1-12.29-2.92C28.75,111.71,25,117.58,25,117.58Z"/><path class="cls-16" d="M47.35,139.9a6,6,0,0,0,.81,2.78c.71.89,3.23.79,4.84-1.5,3.3-1.51,6.73-4.86,3.92-7.46-1.53-1.41-3.79.18-3.94,1.79L52.65,137a5.44,5.44,0,0,1-2.13,3.22A2.86,2.86,0,0,1,47.35,139.9Z"/><path class="cls-17" d="M47.28,138.77a6.07,6.07,0,0,0,.81,2.78c.71.88,3.23.79,4.84-1.5,3.3-1.51,5.93-4.31,4-6.33s-6.11-.68-6.26.92l.68,1.24s.76,2.22-.89,3.19A2.86,2.86,0,0,1,47.28,138.77Z"/><path class="cls-19" d="M28.13,107.85c6.46,1.15,12.13,2.86,15.21,9.55a13.51,13.51,0,0,0,1.56,5c-1.68,1.56-7.33,1.92-8.66-.73-1,.77-3.48,1.17-6.55.08-4.87-8.76-3.24-3.24-3.77-7.13S26.27,109.62,28.13,107.85Z"/><path class="cls-4" d="M46.14,93a79.57,79.57,0,0,0-9.21,3c-1.35,2-.93,4.84,2,7.33,6.84-1.6,9.94-4.08,9.94-4.08Z"/><path class="cls-20" d="M46.14,93a79.57,79.57,0,0,0-9.21,3c-1.35,2-.93,4.84,2,7.33,6.84-1.6,9.94-4.08,9.94-4.08Z"/><line class="cls-20" x1="36.24" y1="121.71" x2="34.89" y2="119.08"/><path class="cls-4" d="M61.56,98.91a8.08,8.08,0,0,1-3.36,6.9,21.07,21.07,0,0,1-7.2-3.19c-3.61,3.72-5.18,12-4.83,14.08s-7.42,2-11,0a8.69,8.69,0,0,0-10.17.88c-1.15-2.73-1-5,.73-8.75S37.15,94.41,50.42,92.64c7.3-1,5.48,3.1,5.48,3.1S55.29,95.19,61.56,98.91Z"/><path class="cls-20" d="M61.56,98.91a8.08,8.08,0,0,1-3.36,6.9,21.07,21.07,0,0,1-7.2-3.19c-3.61,3.72-5.18,12-4.83,14.08s-7.42,2-11,0a8.69,8.69,0,0,0-10.17.88c-1.15-2.73-1-5,.73-8.75S37.15,94.41,50.42,92.64c7.3-1,5.48,3.1,5.48,3.1S55.29,95.19,61.56,98.91Z"/><path class="cls-6" d="M68.47,81.1c0,4.62-.93,9.82-4,12.16S56.43,95,51.92,95c-9.13,0-16.54-4.8-16.54-13.93a16.55,16.55,0,1,1,33.09,0Z"/><ellipse class="cls-21" cx="65.9" cy="83" rx="0.62" ry="1.15"/><path class="cls-22" d="M58.2,85.12c2.48-2.74,7.78-7.38,6.28-14.78A16.53,16.53,0,0,0,35.38,81.1C35.38,90.23,42.79,95,51.92,95c2.22,0,4.57.12,6.74,0A17.88,17.88,0,0,0,58.2,85.12Z"/><circle class="cls-22" cx="45.44" cy="97.56" r="1.91"/><circle class="cls-22" cx="50.05" cy="95.65" r="1.91"/><circle class="cls-22" cx="40.67" cy="98.12" r="1.91"/><circle class="cls-22" cx="36.27" cy="96.27" r="1.91"/><circle class="cls-22" cx="37.29" cy="92.02" r="1.91"/><circle class="cls-22" cx="32.29" cy="92.39" r="1.91"/><circle class="cls-22" cx="27.4" cy="91.26" r="1.91"/><circle class="cls-22" cx="24.29" cy="87.56" r="1.91"/><polygon class="cls-22" points="35.1 93.72 31.23 91.55 36.27 90.32 35.1 93.72"/><polygon class="cls-22" points="24.04 84.59 20.56 81.81 25.73 81.41 24.04 84.59"/><path class="cls-6" d="M60.22,88.1a2.42,2.42,0,0,1-1.79.83,3.34,3.34,0,0,1,0-6.55,2.63,2.63,0,0,1,2.25,1.45"/><circle class="cls-23" cx="161.68" cy="33.76" r="9.44"/><polyline class="cls-24" points="152 87.71 158.22 86.11 156.84 89.78 161.68 92.76 155.63 93.45 156.84 97.93 152 95.42"/><path class="cls-25" d="M84,81.41S121.65,72.33,146.31,92c-.73-24.2,8.4-41.11,8.4-41.11"/><path class="cls-20" d="M84,81.41S121.65,72.33,146.31,92c-.73-24.2,8.4-41.11,8.4-41.11"/><path class="cls-6" d="M195.08,86.61a2.28,2.28,0,0,1-2.25-1.9c-1-5.88-.76-17.84-.75-18.34a2.29,2.29,0,1,1,4.58.1c0,.12-.27,12,.68,17.45a2.29,2.29,0,0,1-1.86,2.66A2.6,2.6,0,0,1,195.08,86.61Z"/><path class="cls-6" d="M181.77,85.75A2.27,2.27,0,0,1,180,84.9c-6.67-8.21,2.19-19.44,2.57-19.92a2.29,2.29,0,0,1,3.58,2.87c-.09.1-6.93,8.82-2.59,14.16a2.29,2.29,0,0,1-1.78,3.74Z"/><path class="cls-19" d="M198.38,62.46a16.26,16.26,0,0,1-.15,8.68,22.62,22.62,0,0,1-8.75-.64s.19-1.67.21-2.89a35.38,35.38,0,0,0-2.21,3c-3-.26-6.94-1.72-7.94-2.85,1.64-3.58,3.37-5.42,4-6.88C186.64,59.69,198.38,62.46,198.38,62.46Z"/><path class="cls-8" d="M185.3,35c5.62,2.95,8.23,3.36,10.22,7.55,3.34,7,2.29,13.55,2.86,20a40,40,0,0,1-15.87-1.05S186,47.37,185.3,35Z"/><path class="cls-16" d="M198.38,87.47c-.72.76-5.62.86-6.34,0-.24-.28-.11-1-.11-1s1.66-2.22,3.28-2.22,3.27,2.24,3.27,2.24S198.61,87.22,198.38,87.47Z"/><path class="cls-26" d="M198.38,86.61c-.72.76-5.62.86-6.34,0s.76-3.25,3.17-3.25S199.1,85.85,198.38,86.61Z"/><path class="cls-16" d="M183.37,82.17A5.19,5.19,0,0,1,185,86.94c-.31,1.25-7.23,1.67-8.71.64-.85-.59-.55-2.77,1-3.6a4.19,4.19,0,0,1,4.29.36C182.65,84.34,183.42,83.53,183.37,82.17Z"/><path class="cls-26" d="M183.37,81.19A5.2,5.2,0,0,1,185,86c-.31,1.25-7.23,1.67-8.71.64-.85-.59-.55-2.77,1-3.6a4.19,4.19,0,0,1,4.29.35C182.65,83.36,183.42,82.56,183.37,81.19Z"/><path class="cls-20" d="M181.6,83.36a2.49,2.49,0,0,1,.86,1.65"/><path class="cls-6" d="M203.85,31.67c-1,7.08-7.07,10.29-14.14,9.28-3.66-.52-7.53-1.34-9.64-3.7-2-2.19-2.32-5.81-1.83-9.23a12.93,12.93,0,1,1,25.61,3.65Z"/><path class="cls-5" d="M186.16,35.85c-3,0-4.94,4.18-3,6.38l7.26.28Z"/><path class="cls-6" d="M186.75,42.79a117.58,117.58,0,0,1-14.87-12.56A2.29,2.29,0,1,1,175.13,27,118,118,0,0,0,189,38.79"/><path class="cls-8" d="M190,46.23a37.66,37.66,0,0,1-6.8-4,4.85,4.85,0,0,0,3-6.38c4.28,2.93,7.88,5.61,7.88,5.61"/><path class="cls-6" d="M185.55,28.66a1.35,1.35,0,0,1-.88.29,1.29,1.29,0,0,1,.12-2.58,1.31,1.31,0,0,1,.79.33"/><circle class="cls-21" cx="193.18" cy="26.8" r="0.86"/><circle class="cls-21" cx="180.4" cy="27.66" r="0.86"/><path class="cls-27" d="M182.51,31.19a7.92,7.92,0,0,0,6.52-.52c0,2.45,0,4.68-2.32,5S182.87,33.48,182.51,31.19Z"/><path class="cls-28" d="M194,20.21a36,36,0,0,0-8.74,4.35A9.66,9.66,0,0,1,189,20c-3,.62-7.77,4.91-7.77,4.91a16.77,16.77,0,0,1,3-4.72c-1.79,1.14-5.5,5.5-5.5,5.5s.89-4,3.35-6.17c4-3.44,11.65-4.11,16.25-.91,1.79,1.25,5.92,5.66,6,9.64.24,7.49-2.91,11-8.83,12.81a26.92,26.92,0,0,0,4.51-13.86s0-.38-.59-.38a5.92,5.92,0,0,1-1.72,2.57,18.43,18.43,0,0,0-.91-5.81,9.44,9.44,0,0,1-.38,3.24A24,24,0,0,0,194,20.21Z"/><path class="cls-6" d="M199.69,27.5a1.57,1.57,0,0,1,1.22,0,2.09,2.09,0,0,1-1.65,3.76,1.54,1.54,0,0,1-.86-1"/><path class="cls-6" d="M194.68,116.57a3.09,3.09,0,0,1-2.15-.87,42.15,42.15,0,0,1-10.24-17.3,3.07,3.07,0,1,1,5.93-1.59,36.42,36.42,0,0,0,8.61,14.5,3.07,3.07,0,0,1,0,4.34A3,3,0,0,1,194.68,116.57Z"/><path class="cls-29" d="M175.48,145.67a2.2,2.2,0,0,0,.43,2.08c1,.87,3.14,1.33,5.06,1.61,2.2.32,6,.81,7.52.15v-2.3c0-1.79-3.62-2.7-6.83-3.16S175.68,144.31,175.48,145.67Z"/><path class="cls-6" d="M181.65,145.65V123.84a3.07,3.07,0,1,1,6.14,0v21.81C187.79,147.35,181.65,147.35,181.65,145.65Z"/><path class="cls-29" d="M171.62,147.52a2.23,2.23,0,0,0,.48,2.07c1,.85,3.17,1.25,5.09,1.49,2.21.27,6,.67,7.53,0,0,0-.05-1.86-.06-2.29,0-1.79-3.68-2.61-6.9-3S171.79,146.15,171.62,147.52Z"/><polygon class="cls-8" points="187.2 92.15 191.94 100.99 187.2 102.87 187.2 92.15"/><path class="cls-6" d="M178.68,146.87l-1.12-22.24a3.07,3.07,0,0,1,6.14,0v22.24C183.7,148.57,178.68,148.57,178.68,146.87Z"/><path class="cls-19" d="M176.12,118.35a73.06,73.06,0,0,0-.42,8c1.68,1.22,6.25,1.45,9-.34a8.61,8.61,0,0,0,5.75-2.17,64.26,64.26,0,0,0-.55-11.87Z"/><path class="cls-8" d="M183,85.9c4.78-.52,6.4,18.9,6.9,26.07s-11.2,7.67-13.8,6.38a76.83,76.83,0,0,1,1.67-25.88C178.79,88.23,181.54,86.06,183,85.9Z"/><path class="cls-6" d="M167.61,120.05a3,3,0,0,1-2.13-.87,3.07,3.07,0,0,1-.07-4.34A38.83,38.83,0,0,0,174.34,100a26.14,26.14,0,0,0,.78-2.9c.29-1.67,5.76,2.63,5,4.81a45,45,0,0,1-10.35,17.23A3.06,3.06,0,0,1,167.61,120.05Z"/><path class="cls-6" d="M167.3,74.37c0,1.63-.3,3.88-1.89,4.28-.09,2.11,1.61,5.21,2.69,6.58,2.76,3.52,8.37,4.23,13.2,4.23,4.46,0,9.23-1.15,11.8-4.23a17.92,17.92,0,0,0,3.59-10.86,15.36,15.36,0,0,0-15.39-15.1C173,59.27,167.3,66,167.3,74.37Z"/><path class="cls-8" d="M178.81,89.7c-1.75,1.9-4.62,8.6-6.2,11.82,1.48,1.11,5.72,2.84,7,3.69,1.7-3.48,1.6-4.74,1.6-4.74"/><path class="cls-30" d="M194.3,81.79c-.42,3.09-.56,7.4,1.27,10.16,2.7,4.08,8.16,6,10.83,5.6-2.54-2.09-2.24-5.76-4.78-9.48A18.39,18.39,0,0,0,194.3,81.79Z"/><path class="cls-30" d="M177.56,85.08h-1.44V81.79l-2.07-.9,1.27-.6a3.49,3.49,0,0,0,3.21-3.13,4.22,4.22,0,0,0-1.94-4.49,3.74,3.74,0,0,0-2.46.38,9.64,9.64,0,0,1-1.2-11,13.48,13.48,0,0,1,8.37-2.79,15.36,15.36,0,0,1,15.39,15.1,17.92,17.92,0,0,1-3.59,10.86c-2.57,3.08-7.34,4.23-11.8,4.23l-1.43,0-2.53-1.89Z"/><path class="cls-20" d="M175.32,80.29a1.27,1.27,0,0,1-1.34-.52"/><circle class="cls-21" cx="170.36" cy="75.16" r="0.79"/><line class="cls-31" x1="184.72" y1="126.01" x2="184.72" y2="121.83"/></g></svg>