<svg id="レイヤー_1" data-name="レイヤー 1" xmlns="http://www.w3.org/2000/svg" viewBox="0 0 250 223"><defs><style>.cls-1{fill:#231815;}.cls-2{fill:#fff;}.cls-3{fill:#0068b2;}.cls-4{fill:#e60012;}</style></defs><title>アートボード 2</title><path class="cls-1" d="M141.93,167.36c-.67,0-1.31,0-1.94,0a.37.37,0,0,1-.36-.39.36.36,0,0,1,.38-.36c.65,0,1.29,0,1.94,0a.39.39,0,0,1,.4.37.36.36,0,0,1-.35.38V167l0,.38Zm2.07,0a.38.38,0,0,1,0-.75q1,0,2-.12a.36.36,0,0,1,.4.34.37.37,0,0,1-.34.41q-1,.08-2,.12Zm-6-.11h0c-.67-.06-1.34-.12-2-.2a.37.37,0,1,1,.08-.74c.66.07,1.32.14,2,.19a.37.37,0,0,1,.35.4A.38.38,0,0,1,138,167.21Zm10-.21a.37.37,0,0,1-.37-.33.39.39,0,0,1,.33-.42c.66-.07,1.31-.16,2-.27a.37.37,0,1,1,.11.74c-.66.11-1.32.2-2,.28Zm-14-.25H134c-.67-.1-1.33-.22-2-.35a.38.38,0,0,1-.29-.44.37.37,0,0,1,.44-.29c.65.12,1.3.24,2,.34a.38.38,0,0,1,.32.43A.38.38,0,0,1,134,166.75Zm17.92-.37a.38.38,0,0,1-.37-.3.39.39,0,0,1,.29-.45c.65-.13,1.3-.27,1.94-.42a.38.38,0,1,1,.18.73c-.65.16-1.31.3-2,.43ZM130.1,166H130c-.65-.15-1.3-.32-1.95-.5a.37.37,0,0,1-.26-.46.37.37,0,0,1,.46-.26c.64.17,1.28.34,1.93.49a.38.38,0,0,1,.27.46A.36.36,0,0,1,130.1,166Zm25.74-.53a.36.36,0,0,1-.36-.27.37.37,0,0,1,.26-.46c.63-.18,1.27-.38,1.9-.58a.38.38,0,0,1,.47.24.37.37,0,0,1-.24.47c-.64.21-1.28.41-1.93.59Zm-29.59-.55h-.12c-.64-.21-1.28-.43-1.91-.67a.37.37,0,0,1-.22-.48.37.37,0,0,1,.48-.22c.62.23,1.25.45,1.88.65a.37.37,0,0,1-.11.73Zm33.39-.69a.37.37,0,0,1-.13-.72c.62-.23,1.24-.47,1.85-.73a.38.38,0,1,1,.28.7c-.61.25-1.24.5-1.87.73A.27.27,0,0,1,159.64,164.2Zm-37.16-.69a.32.32,0,0,1-.14,0c-.63-.26-1.24-.53-1.86-.81a.38.38,0,0,1-.18-.5.39.39,0,0,1,.5-.18c.6.28,1.21.54,1.82.8a.37.37,0,0,1-.14.72Zm40.85-.84a.38.38,0,0,1-.34-.21.37.37,0,0,1,.18-.5c.6-.28,1.2-.57,1.78-.87a.38.38,0,0,1,.51.16.39.39,0,0,1-.16.51c-.6.3-1.2.6-1.81.88A.45.45,0,0,1,163.33,162.67Zm-44.49-.84a.33.33,0,0,1-.17,0c-.6-.3-1.2-.62-1.78-.95a.37.37,0,0,1-.15-.51.38.38,0,0,1,.51-.15c.58.33,1.16.64,1.76.94a.39.39,0,0,1,.16.51A.38.38,0,0,1,118.84,161.83Zm48-1a.36.36,0,0,1-.33-.2.37.37,0,0,1,.14-.51c.58-.32,1.15-.66,1.71-1a.37.37,0,1,1,.39.64c-.57.35-1.14.69-1.73,1A.41.41,0,0,1,166.89,160.86Zm-51.55-1a.35.35,0,0,1-.2-.05c-.57-.35-1.14-.72-1.7-1.09a.37.37,0,0,1,.42-.62l1.67,1.07a.38.38,0,0,1,.13.52A.39.39,0,0,1,115.34,159.87Zm54.95-1.11a.38.38,0,0,1-.31-.16.37.37,0,0,1,.1-.52c.55-.37,1.09-.75,1.63-1.14a.38.38,0,0,1,.52.08.37.37,0,0,1-.08.53c-.54.39-1.09.78-1.65,1.15A.39.39,0,0,1,170.29,158.76ZM112,157.65a.41.41,0,0,1-.22-.07c-.55-.4-1.08-.81-1.61-1.22a.37.37,0,0,1-.06-.53.37.37,0,0,1,.52-.06q.78.61,1.59,1.2a.37.37,0,0,1,.08.52A.38.38,0,0,1,112,157.65Zm61.51-1.24a.37.37,0,0,1-.29-.14.38.38,0,0,1,.06-.53c.52-.41,1-.83,1.54-1.26a.37.37,0,0,1,.48.57c-.51.44-1,.86-1.55,1.28A.41.41,0,0,1,173.52,156.41Zm-64.66-1.24a.36.36,0,0,1-.24-.09c-.51-.44-1-.88-1.51-1.34a.38.38,0,0,1,.51-.55c.48.45,1,.89,1.48,1.32a.38.38,0,0,1,.05.53A.41.41,0,0,1,108.86,155.17Zm67.7-1.36a.36.36,0,0,1-.27-.12.38.38,0,0,1,0-.53c.49-.45,1-.91,1.43-1.38a.39.39,0,0,1,.53,0,.37.37,0,0,1,0,.53c-.47.48-1,.94-1.45,1.4A.35.35,0,0,1,176.56,153.81Zm-70.64-1.36a.33.33,0,0,1-.26-.11c-.48-.47-1-1-1.4-1.45a.37.37,0,0,1,0-.53.38.38,0,0,1,.53,0c.45.49.91,1,1.38,1.43a.39.39,0,0,1,0,.53A.36.36,0,0,1,105.92,152.45ZM179.4,151a.35.35,0,0,1-.26-.1.38.38,0,0,1,0-.53c.45-.48.89-1,1.32-1.48a.38.38,0,0,1,.53-.05.37.37,0,0,1,0,.53c-.44.51-.88,1-1.34,1.51A.36.36,0,0,1,179.4,151Zm-76.2-1.46a.37.37,0,0,1-.28-.13q-.66-.76-1.29-1.56a.37.37,0,0,1,.07-.52.36.36,0,0,1,.52.06q.61.78,1.26,1.53a.37.37,0,0,1,0,.53A.36.36,0,0,1,103.2,149.52Zm78.8-1.58a.43.43,0,0,1-.24-.08.38.38,0,0,1-.06-.53c.41-.52.81-1.05,1.2-1.58a.38.38,0,1,1,.61.44c-.39.54-.8,1.08-1.22,1.6A.35.35,0,0,1,182,147.94Zm-81.28-1.56a.36.36,0,0,1-.3-.15c-.4-.54-.79-1.09-1.16-1.65a.37.37,0,1,1,.62-.42c.37.55.75,1.09,1.14,1.63a.37.37,0,0,1-.08.52A.36.36,0,0,1,100.72,146.38Zm83.63-1.68a.31.31,0,0,1-.2-.07.37.37,0,0,1-.11-.52c.37-.55.73-1.1,1.08-1.67a.37.37,0,0,1,.64.39c-.36.58-.72,1.14-1.09,1.7A.39.39,0,0,1,184.35,144.7Zm-85.86-1.64a.37.37,0,0,1-.32-.18c-.35-.57-.69-1.14-1-1.73a.37.37,0,1,1,.65-.37c.33.58.66,1.15,1,1.71a.38.38,0,0,1-.12.52A.46.46,0,0,1,98.49,143.06Zm88-1.77a.41.41,0,0,1-.18,0,.37.37,0,0,1-.14-.51c.32-.58.63-1.17.94-1.76a.37.37,0,1,1,.66.34c-.3.6-.62,1.2-.95,1.78A.38.38,0,0,1,186.45,141.29Zm-89.92-1.71a.35.35,0,0,1-.33-.2c-.31-.6-.6-1.2-.89-1.81a.39.39,0,0,1,.19-.5.37.37,0,0,1,.5.18c.27.6.56,1.2.86,1.78a.37.37,0,0,1-.16.51A.33.33,0,0,1,96.53,139.58Zm91.75-1.87a.41.41,0,0,1-.16,0,.37.37,0,0,1-.18-.5c.27-.6.54-1.21.79-1.82a.39.39,0,0,1,.49-.21.37.37,0,0,1,.21.49c-.26.63-.53,1.24-.81,1.86A.39.39,0,0,1,188.28,137.71ZM94.85,136a.37.37,0,0,1-.34-.23c-.26-.62-.51-1.24-.74-1.87a.39.39,0,0,1,.22-.49.37.37,0,0,1,.48.22c.23.63.47,1.24.73,1.85a.37.37,0,0,1-.2.49Zm95-2-.13,0a.37.37,0,0,1-.22-.48c.23-.62.45-1.25.65-1.88a.38.38,0,0,1,.72.23c-.21.64-.43,1.28-.67,1.91A.37.37,0,0,1,189.81,134Zm-96.35-1.8a.38.38,0,0,1-.36-.26c-.2-.64-.4-1.28-.58-1.93a.37.37,0,1,1,.72-.2c.18.64.37,1.27.58,1.9a.38.38,0,0,1-.24.47A.25.25,0,0,1,93.46,132.21Zm97.59-2-.1,0a.37.37,0,0,1-.26-.46c.18-.64.34-1.28.5-1.92a.37.37,0,0,1,.45-.28.38.38,0,0,1,.28.45c-.16.65-.33,1.31-.51,1.95A.38.38,0,0,1,191.05,130.2Zm-98.68-1.84a.38.38,0,0,1-.37-.29c-.15-.65-.3-1.3-.43-2a.37.37,0,0,1,.3-.44.38.38,0,0,1,.44.3c.13.65.27,1.3.42,1.94a.37.37,0,0,1-.27.45ZM192,126.3h-.07a.37.37,0,0,1-.3-.44c.13-.64.25-1.3.35-1.95a.36.36,0,0,1,.43-.31.37.37,0,0,1,.31.42c-.11.67-.22,1.33-.35,2A.37.37,0,0,1,192,126.3Zm-100.4-1.86a.38.38,0,0,1-.37-.32c-.1-.66-.19-1.33-.27-2a.36.36,0,0,1,.32-.41.37.37,0,0,1,.42.32c.08.66.17,1.32.27,2a.36.36,0,0,1-.31.43Zm101-2.09h0a.37.37,0,0,1-.33-.42c.07-.66.14-1.31.19-2a.36.36,0,0,1,.4-.34.37.37,0,0,1,.35.4c0,.67-.12,1.34-.2,2A.37.37,0,0,1,192.6,122.35ZM91.11,120.46a.37.37,0,0,1-.37-.34c-.06-.67-.1-1.34-.12-2a.38.38,0,0,1,.36-.39.42.42,0,0,1,.39.36c0,.67.06,1.33.12,2a.38.38,0,0,1-.35.4Zm101.8-2.1h0a.37.37,0,0,1-.36-.39c0-.66,0-1.32,0-2v-.2a.38.38,0,0,1,.38-.38h0a.37.37,0,0,1,.37.37V116c0,.68,0,1.35,0,2A.37.37,0,0,1,192.91,118.36Zm-102-1.9a.38.38,0,0,1-.38-.37V116c0-.64,0-1.27,0-1.91a.39.39,0,0,1,.39-.36.38.38,0,0,1,.36.39c0,.62,0,1.25,0,1.88v.11A.37.37,0,0,1,91,116.46Zm102-2.31a.37.37,0,0,1-.37-.36c0-.67-.07-1.33-.13-2a.38.38,0,0,1,.35-.4.38.38,0,0,1,.4.34c.06.67.1,1.34.13,2a.39.39,0,0,1-.36.39ZM91.1,112.46h0a.37.37,0,0,1-.35-.4c0-.67.12-1.34.19-2a.4.4,0,0,1,.42-.33.39.39,0,0,1,.33.42c-.08.65-.14,1.31-.19,2A.38.38,0,0,1,91.1,112.46Zm101.47-2.3a.38.38,0,0,1-.37-.33c-.08-.66-.17-1.32-.27-2a.37.37,0,0,1,.31-.43.39.39,0,0,1,.43.31c.1.66.2,1.33.28,2a.38.38,0,0,1-.33.42Zm-101-1.67h-.06a.38.38,0,0,1-.31-.43c.1-.66.22-1.32.35-2a.38.38,0,0,1,.44-.3.39.39,0,0,1,.3.44c-.13.65-.25,1.3-.35,2A.38.38,0,0,1,91.55,108.49Zm100.39-2.28a.38.38,0,0,1-.37-.3c-.13-.66-.27-1.3-.43-1.94a.38.38,0,1,1,.73-.18c.16.65.3,1.31.44,2a.37.37,0,0,1-.3.44Zm-99.62-1.65h-.09a.37.37,0,0,1-.27-.45c.15-.66.32-1.31.5-1.95a.37.37,0,1,1,.72.2c-.18.63-.34,1.27-.5,1.92A.37.37,0,0,1,92.32,104.56ZM191,102.32a.38.38,0,0,1-.36-.27c-.18-.64-.38-1.27-.58-1.9a.37.37,0,1,1,.71-.24c.21.64.41,1.28.59,1.93a.37.37,0,0,1-.26.46ZM93.4,100.71l-.12,0a.38.38,0,0,1-.24-.48c.21-.64.43-1.28.66-1.91a.37.37,0,0,1,.48-.22.38.38,0,0,1,.22.48c-.23.62-.44,1.25-.65,1.89A.39.39,0,0,1,93.4,100.71Zm96.34-2.19a.39.39,0,0,1-.35-.25c-.23-.62-.48-1.23-.73-1.84a.37.37,0,0,1,.69-.29c.26.62.51,1.24.74,1.87a.37.37,0,0,1-.22.48A.31.31,0,0,1,189.74,98.52Zm-95-1.58a.4.4,0,0,1-.15,0,.37.37,0,0,1-.2-.49c.26-.63.53-1.24.81-1.85a.37.37,0,0,1,.49-.19.39.39,0,0,1,.19.5c-.28.6-.54,1.21-.8,1.82A.37.37,0,0,1,94.78,96.94Zm93.42-2.1a.37.37,0,0,1-.34-.22c-.28-.6-.57-1.2-.87-1.78a.37.37,0,1,1,.66-.34c.31.59.6,1.19.89,1.8a.39.39,0,0,1-.18.5A.34.34,0,0,1,188.2,94.84ZM96.45,93.29a.35.35,0,0,1-.17,0,.37.37,0,0,1-.16-.5c.3-.6.62-1.2.95-1.79a.37.37,0,0,1,.65.37c-.32.58-.63,1.16-.94,1.76A.35.35,0,0,1,96.45,93.29Zm89.92-2a.38.38,0,0,1-.33-.2c-.32-.57-.66-1.14-1-1.7a.38.38,0,0,1,.64-.4c.35.57.7,1.15,1,1.74a.38.38,0,0,1-.15.51A.37.37,0,0,1,186.37,91.29Zm-88-1.5a.45.45,0,0,1-.19-.05.37.37,0,0,1-.12-.52c.35-.57.71-1.14,1.08-1.7a.37.37,0,0,1,.52-.1.38.38,0,0,1,.11.52c-.37.55-.73,1.11-1.08,1.67A.36.36,0,0,1,98.4,89.79Zm85.87-1.9a.37.37,0,0,1-.31-.17c-.37-.55-.76-1.09-1.15-1.62a.38.38,0,0,1,.09-.53.37.37,0,0,1,.52.08c.4.54.78,1.09,1.16,1.65a.38.38,0,0,1-.1.52A.35.35,0,0,1,184.27,87.89Zm-83.64-1.43a.41.41,0,0,1-.22-.07.38.38,0,0,1-.09-.53c.4-.54.8-1.08,1.22-1.61a.38.38,0,1,1,.59.47c-.41.52-.81,1-1.2,1.58A.38.38,0,0,1,100.63,86.46Zm81.27-1.8a.37.37,0,0,1-.29-.14c-.41-.52-.83-1-1.27-1.53a.38.38,0,0,1,0-.53.36.36,0,0,1,.52,0c.44.51.87,1,1.29,1.55a.38.38,0,0,1-.06.53A.41.41,0,0,1,181.9,84.66Zm-78.8-1.35a.38.38,0,0,1-.24-.09.37.37,0,0,1,0-.53c.43-.51.88-1,1.33-1.51a.38.38,0,0,1,.53,0,.37.37,0,0,1,0,.53c-.45.49-.89,1-1.32,1.49A.37.37,0,0,1,103.1,83.31Zm76.19-1.68a.36.36,0,0,1-.27-.12c-.45-.49-.91-1-1.38-1.43a.37.37,0,1,1,.53-.53c.47.47.94,1,1.4,1.45a.38.38,0,0,1,0,.53A.4.4,0,0,1,179.29,81.63Zm-73.47-1.26a.39.39,0,0,1-.27-.11.37.37,0,0,1,0-.53c.47-.48,1-1,1.45-1.4a.37.37,0,0,1,.53,0,.38.38,0,0,1,0,.53l-1.43,1.38A.35.35,0,0,1,105.82,80.37Zm70.64-1.57a.41.41,0,0,1-.26-.09c-.49-.45-1-.89-1.49-1.32a.38.38,0,1,1,.49-.57c.51.43,1,.88,1.51,1.33a.38.38,0,0,1,0,.53A.36.36,0,0,1,176.46,78.8Zm-67.71-1.16a.37.37,0,0,1-.29-.13.39.39,0,0,1,0-.53c.51-.43,1-.86,1.56-1.28a.37.37,0,1,1,.46.59c-.51.41-1,.83-1.53,1.26A.36.36,0,0,1,108.75,77.64Zm64.66-1.43a.35.35,0,0,1-.24-.08c-.52-.41-1-.81-1.58-1.2a.37.37,0,0,1-.09-.52.38.38,0,0,1,.53-.08c.54.39,1.08.8,1.61,1.21a.38.38,0,0,1,.06.53A.37.37,0,0,1,173.41,76.21Zm-61.53-1a.35.35,0,0,1-.3-.16.37.37,0,0,1,.08-.52c.54-.4,1.09-.78,1.65-1.16a.38.38,0,0,1,.42.63c-.55.37-1.09.75-1.63,1.14A.41.41,0,0,1,111.88,75.16Zm58.28-1.3a.42.42,0,0,1-.21-.06c-.55-.36-1.11-.72-1.68-1.07a.37.37,0,0,1-.12-.51.37.37,0,0,1,.51-.13c.58.35,1.15.71,1.71,1.09a.37.37,0,0,1,.1.52A.36.36,0,0,1,170.16,73.86Zm-55-.93a.38.38,0,0,1-.2-.7q.85-.53,1.74-1a.37.37,0,1,1,.36.65c-.57.33-1.14.66-1.7,1A.36.36,0,0,1,115.2,72.93Zm51.54-1.15a.37.37,0,0,1-.18,0c-.58-.32-1.17-.63-1.76-.94a.37.37,0,0,1-.17-.5.38.38,0,0,1,.51-.16c.6.3,1.19.62,1.78,1a.37.37,0,0,1,.15.5A.38.38,0,0,1,166.74,71.78ZM118.68,71a.35.35,0,0,1-.33-.2.37.37,0,0,1,.16-.51c.59-.3,1.2-.6,1.81-.88a.36.36,0,0,1,.49.18.37.37,0,0,1-.18.5c-.6.28-1.19.57-1.78.87A.33.33,0,0,1,118.68,71Zm44.48-1a.4.4,0,0,1-.15,0c-.61-.28-1.22-.54-1.83-.79a.39.39,0,0,1-.21-.49.38.38,0,0,1,.49-.21q.94.39,1.86.81a.37.37,0,0,1,.18.5A.38.38,0,0,1,163.16,70Zm-40.86-.68a.38.38,0,0,1-.35-.23.37.37,0,0,1,.21-.49c.61-.26,1.24-.5,1.86-.74a.39.39,0,0,1,.49.22.38.38,0,0,1-.22.48c-.62.23-1.24.48-1.85.73A.32.32,0,0,1,122.3,69.28Zm37.15-.84-.13,0c-.62-.23-1.25-.45-1.88-.65a.36.36,0,0,1-.24-.47.37.37,0,0,1,.47-.24c.64.2,1.28.42,1.91.65a.39.39,0,0,1,.22.49A.37.37,0,0,1,159.45,68.44Zm-33.4-.55a.38.38,0,0,1-.12-.74l1.93-.59a.38.38,0,0,1,.2.73c-.64.18-1.27.37-1.9.58Zm29.58-.68h-.1c-.63-.18-1.27-.34-1.92-.49a.38.38,0,0,1-.28-.45.37.37,0,0,1,.45-.28c.66.15,1.31.32,1.95.5a.38.38,0,0,1,.27.46A.38.38,0,0,1,155.63,67.21Zm-25.74-.42a.38.38,0,0,1-.36-.29.38.38,0,0,1,.28-.45c.65-.16,1.3-.3,2-.43a.37.37,0,0,1,.44.29.37.37,0,0,1-.3.44c-.65.13-1.3.27-1.94.43Zm21.85-.49h-.07c-.65-.13-1.3-.24-2-.34a.38.38,0,0,1-.31-.43.37.37,0,0,1,.42-.31c.67.1,1.33.21,2,.34a.38.38,0,0,1,.3.44A.39.39,0,0,1,151.74,66.3ZM133.82,66a.38.38,0,0,1-.37-.31.37.37,0,0,1,.31-.43c.66-.11,1.33-.2,2-.28a.36.36,0,0,1,.41.33.36.36,0,0,1-.32.41c-.66.08-1.32.17-2,.28Zm14-.31h0c-.66-.08-1.31-.14-2-.19a.38.38,0,0,1,.06-.75c.67,0,1.34.11,2,.19a.38.38,0,0,1,.33.42A.39.39,0,0,1,147.78,65.69Zm-10-.17a.37.37,0,0,1,0-.74c.67-.06,1.34-.1,2-.13a.38.38,0,0,1,.38.36.37.37,0,0,1-.35.39c-.67,0-1.33.07-2,.12Zm6-.13h0q-.92,0-1.83,0h-.16a.38.38,0,0,1,0-.75H142q.93,0,1.86,0a.38.38,0,0,1,0,.75Z"/><path class="cls-2" d="M151,116a10.91,10.91,0,0,1-3.63,8.15c-.17.15-.59-.11-.77,0s-.06.65-.23.77a10.9,10.9,0,0,1-6.32,2,11.3,11.3,0,0,1-2.74-.34c-.17,0-.08-.48-.25-.54s-.69.25-.89.17a10.94,10.94,0,0,1-7-9c-.05-.42.32-.54.32-1s-.38-1.07-.34-1.45a11,11,0,0,1,9.18-9.68c.23,0,.6.38.83.35s.54-.48.88-.48a11,11,0,0,1,10.4,7.51c.1.29-.4.68-.33,1s.7.44.74.7A11.4,11.4,0,0,1,151,116Z"/><path class="cls-1" d="M140,127.46a11.52,11.52,0,0,1-2.87-.36.62.62,0,0,1-.45-.44,1.14,1.14,0,0,1-.75.06,11.44,11.44,0,0,1-7.33-9.38,1.22,1.22,0,0,1,.23-.85c.07-.11.09-.15.09-.2a2.5,2.5,0,0,0-.14-.51,2.61,2.61,0,0,1-.2-1,11.49,11.49,0,0,1,9.62-10.15,1.21,1.21,0,0,1,.79.25l.11.07.1-.09a1.25,1.25,0,0,1,.8-.37,11.47,11.47,0,0,1,10.9,7.87,1.1,1.1,0,0,1-.21.94l0,.06.07,0a1.11,1.11,0,0,1,.61.72,11.32,11.32,0,0,1,.15,1.84,11.48,11.48,0,0,1-3.81,8.54.84.84,0,0,1-.72.17.89.89,0,0,1-.32.67A11.47,11.47,0,0,1,140,127.46Zm-2.36-1.32a10.54,10.54,0,0,0,8.27-1.57.28.28,0,0,1,0-.09,1,1,0,0,1,.31-.73,1,1,0,0,1,.8-.12h0a10.44,10.44,0,0,0,3.35-7.66,11.72,11.72,0,0,0-.11-1.57l-.16-.1a1.19,1.19,0,0,1-.59-.67,1.15,1.15,0,0,1,.23-.88l.08-.14a10.4,10.4,0,0,0-9.87-7.06s-.06.07-.11.11a1.27,1.27,0,0,1-.72.37,1.2,1.2,0,0,1-.74-.25l-.14-.09a10.42,10.42,0,0,0-8.66,9.19,2.72,2.72,0,0,0,.15.55,2.73,2.73,0,0,1,.19.85,1.36,1.36,0,0,1-.25.76c-.07.13-.07.13-.07.16a10.39,10.39,0,0,0,6.57,8.49l.17-.06a1.3,1.3,0,0,1,.78-.09A.7.7,0,0,1,137.66,126.14Zm-1.46-.43Zm2.19-20Z"/><path class="cls-1" d="M135.62,115a.4.4,0,0,1-.15,0,.39.39,0,0,1-.21-.52,11.55,11.55,0,0,1,3.16-3.67.39.39,0,1,1,.48.62,11.21,11.21,0,0,0-2.91,3.36A.4.4,0,0,1,135.62,115Z"/><path class="cls-1" d="M138.17,120.78a.38.38,0,0,1-.24-.09,16.28,16.28,0,0,1-2.65-3.36.39.39,0,0,1,.14-.54.38.38,0,0,1,.54.13,16.49,16.49,0,0,0,2.46,3.15.4.4,0,0,1,.06.56A.39.39,0,0,1,138.17,120.78Z"/><path class="cls-1" d="M140.05,121.17a.4.4,0,0,1,0-.79,12.38,12.38,0,0,0,3.63-.86.39.39,0,0,1,.54.12.4.4,0,0,1-.12.55,13,13,0,0,1-4,1Z"/><path class="cls-1" d="M145.3,119.15a.35.35,0,0,1-.14,0,.38.38,0,0,1-.23-.5,24.81,24.81,0,0,0,.9-3.58.41.41,0,0,1,.46-.33.4.4,0,0,1,.32.46,22.75,22.75,0,0,1-.94,3.72A.4.4,0,0,1,145.3,119.15Z"/><path class="cls-1" d="M145.3,113a.39.39,0,0,1-.28-.12,12.68,12.68,0,0,0-3.89-2.54.4.4,0,0,1,.26-.75,13.29,13.29,0,0,1,4.19,2.73.4.4,0,0,1,0,.56A.39.39,0,0,1,145.3,113Z"/><path class="cls-1" d="M139.49,109.56a.4.4,0,0,1-.39-.34l-.31-2.24a.4.4,0,0,1,.34-.45.39.39,0,0,1,.45.34l.31,2.24a.4.4,0,0,1-.34.45Z"/><path class="cls-1" d="M133.78,117.08h-2.16a.4.4,0,0,1,0-.79h2.16a.4.4,0,0,1,0,.79Z"/><path class="cls-1" d="M138,124.6a.45.45,0,0,1-.16,0,.39.39,0,0,1-.19-.53l.88-1.89A.38.38,0,0,1,139,122a.39.39,0,0,1,.19.52l-.88,1.89A.38.38,0,0,1,138,124.6Z"/><path class="cls-1" d="M146.22,123.28a.39.39,0,0,1-.35-.22l-.93-1.89a.4.4,0,0,1,.19-.53.38.38,0,0,1,.52.18l.93,1.89a.4.4,0,0,1-.18.53A.39.39,0,0,1,146.22,123.28Z"/><path class="cls-1" d="M148.86,114.18h-1.71a.4.4,0,0,1-.4-.4.39.39,0,0,1,.4-.39h1.71a.39.39,0,0,1,.4.39A.4.4,0,0,1,148.86,114.18Z"/><path class="cls-3" d="M106.42,70.92a10.26,10.26,0,0,1-.67,8.35c-.1.18-.55.09-.66.26s.14.6,0,.75a10.23,10.23,0,0,1-5,3.76,10.93,10.93,0,0,1-2.53.55c-.17,0-.22-.4-.39-.39s-.53.43-.74.43a10.27,10.27,0,0,1-9-5.73c-.18-.36.11-.58,0-1s-.67-.83-.75-1.18a10.27,10.27,0,0,1,5.09-11.43c.19-.1.64.14.84.05s.33-.6.63-.71a10.29,10.29,0,0,1,11.55,3.39c.18.23-.14.72,0,1s.75.17.87.39A10.85,10.85,0,0,1,106.42,70.92Z"/><path class="cls-1" d="M86.29,77l0-.1a10.77,10.77,0,0,1,5.33-12,1.08,1.08,0,0,1,.77,0l.12,0,.06-.1a1.17,1.17,0,0,1,.6-.58,10.74,10.74,0,0,1,12.1,3.54,1.06,1.06,0,0,1,.11.9.15.15,0,0,0,0,.07h.07a1.08,1.08,0,0,1,.77.45,12.39,12.39,0,0,1,.7,1.59,10.79,10.79,0,0,1-.69,8.75.76.76,0,0,1-.58.36.88.88,0,0,1-.08.7,10.76,10.76,0,0,1-5.2,3.93,10.64,10.64,0,0,1-2.66.58.63.63,0,0,1-.54-.24,1,1,0,0,1-.64.28,10.74,10.74,0,0,1-9.42-6A1.15,1.15,0,0,1,87,78.3a.42.42,0,0,0,0-.21h0a1.74,1.74,0,0,0-.28-.4A2.78,2.78,0,0,1,86.29,77ZM92,65.79a9.79,9.79,0,0,0-4.77,10.85,2.66,2.66,0,0,0,.3.44,3,3,0,0,1,.44.68h0a1.41,1.41,0,0,1,0,.76c0,.13,0,.14,0,.16a9.73,9.73,0,0,0,8.47,5.45l.14-.11a1.18,1.18,0,0,1,.65-.32.65.65,0,0,1,.6.37,9.75,9.75,0,0,0,6.82-4s0-.06,0-.08a.94.94,0,0,1,0-.75.89.89,0,0,1,.68-.36h0a9.78,9.78,0,0,0,.57-7.82h0a11,11,0,0,0-.6-1.36l-.16,0a1.12,1.12,0,0,1-.74-.4,1.07,1.07,0,0,1-.07-.85l0-.15a9.77,9.77,0,0,0-10.94-3.16s0,.08-.07.14a1.17,1.17,0,0,1-.52.55,1.14,1.14,0,0,1-.73,0Zm12.67,14.38Zm.66-1.14Zm.08-9.28Z"/><path class="cls-1" d="M92.06,74.65a.77.77,0,0,1,0-.15,11,11,0,0,1,1.64-4.24.38.38,0,0,1,.52-.11.37.37,0,0,1,.11.51,10.22,10.22,0,0,0-1.52,3.88.37.37,0,0,1-.4.35A.39.39,0,0,1,92.06,74.65Z"/><path class="cls-1" d="M92.85,76.87a.41.41,0,0,1,.06-.37.39.39,0,0,1,.53,0,14.17,14.17,0,0,0,3.16,2,.38.38,0,0,1,.23.47.37.37,0,0,1-.48.23A16,16,0,0,1,93,77,.42.42,0,0,1,92.85,76.87Z"/><path class="cls-1" d="M97.91,78.71a.36.36,0,0,1,.19-.46,11.4,11.4,0,0,0,2.93-1.9.39.39,0,0,1,.53-.07.37.37,0,0,1,.06.52,12.52,12.52,0,0,1-3.2,2.12.37.37,0,0,1-.5-.18S97.91,78.72,97.91,78.71Z"/><path class="cls-1" d="M101.92,75.27a.17.17,0,0,1,0-.12,22.17,22.17,0,0,0-.33-3.46.36.36,0,0,1,.31-.42.37.37,0,0,1,.43.3,23.3,23.3,0,0,1,.33,3.58.37.37,0,0,1-.38.37A.35.35,0,0,1,101.92,75.27Z"/><path class="cls-1" d="M95.58,68.72a.27.27,0,0,1,0-.13.37.37,0,0,1,.37-.37,12.29,12.29,0,0,1,4.55,1.11.37.37,0,1,1-.31.67,11.8,11.8,0,0,0-4.24-1A.38.38,0,0,1,95.58,68.72Z"/><path class="cls-1" d="M92.81,66.72a.36.36,0,0,1,.18-.45.37.37,0,0,1,.5.16l1,1.89a.37.37,0,1,1-.66.34l-1-1.89S92.81,66.74,92.81,66.72Z"/><path class="cls-1" d="M89.17,77.73h0a.37.37,0,0,1,.23-.48l1.9-.67a.35.35,0,0,1,.48.23.36.36,0,0,1-.23.47l-1.9.67A.37.37,0,0,1,89.17,77.73Z"/><path class="cls-1" d="M97.13,82.4a.3.3,0,0,1,0-.16l.19-1.95a.36.36,0,0,1,.4-.34.37.37,0,0,1,.33.41l-.18,2a.37.37,0,0,1-.41.33A.36.36,0,0,1,97.13,82.4Z"/><path class="cls-1" d="M102.62,77.26a.37.37,0,0,1,.61-.39l1.41,1.38a.37.37,0,0,1,0,.53.37.37,0,0,1-.52,0l-1.41-1.38A.42.42,0,0,1,102.62,77.26Z"/><path class="cls-1" d="M102,70.3h0a.39.39,0,0,1,.23-.48l1.52-.53a.37.37,0,0,1,.47.22h0A.37.37,0,0,1,104,70l-1.51.53A.38.38,0,0,1,102,70.3Z"/><path class="cls-4" d="M176.56,91.32a10,10,0,0,1-.46,3c-.07.24-.57.16-.66.39s.25.71.16.91a10.16,10.16,0,0,1-6,5.32c-.3.1-.81-.2-1.12-.13s-.41.5-.73.54a9.07,9.07,0,0,1-1.28.09,10.14,10.14,0,0,1-7.24-3c-.4-.42-.21-1.15-.54-1.63s-1-.4-1.2-.77a10,10,0,0,1-1.15-4.7,10.21,10.21,0,0,1,.49-3.14c.11-.33.69-.39.83-.71s-.22-.75-.09-1a10.12,10.12,0,0,1,8.9-5.29c.27,0,.33.42.59.45s.86-.35,1.18-.3a10.17,10.17,0,0,1,6.25,3.79c.36.48.88.7,1.16,1.23a14.06,14.06,0,0,1,.34,1.49A10.21,10.21,0,0,1,176.56,91.32Z"/><path class="cls-1" d="M166.43,102a10.56,10.56,0,0,1-7.6-3.19,1.85,1.85,0,0,1-.45-1.14,1.8,1.8,0,0,0-.15-.56,2.06,2.06,0,0,0-.36-.17,1.63,1.63,0,0,1-.88-.65A10.71,10.71,0,0,1,156.3,88a1.28,1.28,0,0,1,.66-.66l.15-.09a.74.74,0,0,0,0-.14,1.22,1.22,0,0,1,0-.9,10.67,10.67,0,0,1,9.36-5.55.88.88,0,0,1,.71.42l.26-.09a1.6,1.6,0,0,1,.89-.17,10.64,10.64,0,0,1,6.57,4,3,3,0,0,0,.44.43,3,3,0,0,1,.77.87,3.19,3.19,0,0,1,.25,1,3.13,3.13,0,0,0,.11.55,10.56,10.56,0,0,1,.65,3.65,10.67,10.67,0,0,1-.49,3.18A.78.78,0,0,1,176,95h0a1.09,1.09,0,0,1,.06.85,10.68,10.68,0,0,1-6.34,5.59,1.5,1.5,0,0,1-.87,0,1.48,1.48,0,0,0-.31-.07s0,.06-.06.1a1.1,1.1,0,0,1-.7.46A12.22,12.22,0,0,1,166.43,102ZM158,86.66l0,.18a1.21,1.21,0,0,1,0,.84,1.29,1.29,0,0,1-.63.58,1,1,0,0,0-.2.13,9.71,9.71,0,0,0-.45,2.93,9.56,9.56,0,0,0,1.1,4.46,2.35,2.35,0,0,0,.36.18,1.73,1.73,0,0,1,.81.54,2.3,2.3,0,0,1,.32,1,1.11,1.11,0,0,0,.16.57,9.62,9.62,0,0,0,8.09,2.8s0,0,0-.09a1.12,1.12,0,0,1,.63-.45,1.62,1.62,0,0,1,.79.08l.3.07a9.67,9.67,0,0,0,5.67-5s0-.11-.06-.16a1.18,1.18,0,0,1-.07-.81.91.91,0,0,1,.68-.5h0a9.93,9.93,0,0,0,.38-2.72,9.42,9.42,0,0,0-.58-3.29,4.78,4.78,0,0,1-.16-.77,2.15,2.15,0,0,0-.15-.66,1.82,1.82,0,0,0-.52-.56,4.69,4.69,0,0,1-.59-.59,9.6,9.6,0,0,0-5.93-3.6l-.34.12a1.79,1.79,0,0,1-.79.18.91.91,0,0,1-.66-.43h0A9.62,9.62,0,0,0,158,86.66Zm0,0Z"/><path class="cls-2" d="M168.44,91.12s2.23.35,2.75,1.12"/><path class="cls-1" d="M171.19,92.63a.36.36,0,0,1-.32-.18,4.92,4.92,0,0,0-2.49-.94.39.39,0,0,1-.32-.44.39.39,0,0,1,.44-.33c.4.06,2.43.41,3,1.29a.38.38,0,0,1-.11.53A.4.4,0,0,1,171.19,92.63Z"/><path class="cls-2" d="M163.8,94.73a11.62,11.62,0,0,0,2.19-3"/><path class="cls-1" d="M163.8,95.12a.36.36,0,0,1-.27-.12.39.39,0,0,1,0-.55,10.86,10.86,0,0,0,2.11-2.93.39.39,0,0,1,.71.32A12.07,12.07,0,0,1,164.07,95,.39.39,0,0,1,163.8,95.12Z"/><path class="cls-2" d="M164.9,87A2.91,2.91,0,0,1,166,89.32"/><path class="cls-1" d="M166,89.71h-.06a.39.39,0,0,1-.32-.44c.17-1-1-2-1-2a.39.39,0,0,1,.49-.6,3.29,3.29,0,0,1,1.23,2.72A.39.39,0,0,1,166,89.71Z"/><path class="cls-2" d="M161.61,86.06a5.62,5.62,0,0,0-1.67,1.16"/><path class="cls-1" d="M159.94,87.6a.39.39,0,0,1-.27-.11.38.38,0,0,1,0-.55,6.18,6.18,0,0,1,1.8-1.24.38.38,0,0,1,.29.71,5.64,5.64,0,0,0-1.55,1.08A.35.35,0,0,1,159.94,87.6Z"/><path class="cls-2" d="M165.69,85.11a8.77,8.77,0,0,0,1-1.67"/><path class="cls-1" d="M165.69,85.5a.4.4,0,0,1-.23-.08.4.4,0,0,1-.07-.55,8.37,8.37,0,0,0,.93-1.58.39.39,0,0,1,.51-.21.38.38,0,0,1,.2.51,9.2,9.2,0,0,1-1,1.76A.39.39,0,0,1,165.69,85.5Z"/><polyline class="cls-2" points="173.08 90.22 174.45 88.14 174.15 86.96"/><path class="cls-1" d="M173.08,90.61a.43.43,0,0,1-.22-.06.41.41,0,0,1-.11-.54L174,88.07l-.25-1a.39.39,0,0,1,.27-.47.39.39,0,0,1,.47.28l.3,1.18a.37.37,0,0,1,0,.31l-1.37,2.08A.38.38,0,0,1,173.08,90.61Z"/><path class="cls-1" d="M175.09,88.53h-.64a.39.39,0,0,1,0-.78h.64a.39.39,0,1,1,0,.78Z"/><path class="cls-2" d="M172.48,94a3.29,3.29,0,0,1,0,2"/><path class="cls-1" d="M172.48,96.4h-.12a.38.38,0,0,1-.25-.49,2.75,2.75,0,0,0,0-1.72.39.39,0,0,1,.73-.28,3.76,3.76,0,0,1,0,2.24A.38.38,0,0,1,172.48,96.4Z"/><path class="cls-2" d="M171.53,97.86a6.22,6.22,0,0,1-1.29,1.72"/><path class="cls-1" d="M170.24,100a.39.39,0,0,1-.26-.67,5.65,5.65,0,0,0,1.2-1.6.38.38,0,0,1,.7.32,6.36,6.36,0,0,1-1.37,1.84A.4.4,0,0,1,170.24,100Z"/><path class="cls-2" d="M164.9,97.69A4,4,0,0,0,167,99.84"/><path class="cls-1" d="M167,100.22a.45.45,0,0,1-.16,0,4.34,4.34,0,0,1-2.33-2.38.39.39,0,1,1,.74-.23h0a3.57,3.57,0,0,0,1.92,1.91.38.38,0,0,1,.18.51A.37.37,0,0,1,167,100.22Z"/><path class="cls-2" d="M161.23,96a3,3,0,0,1-1.46.51"/><path class="cls-1" d="M159.77,96.92a.39.39,0,0,1,0-.77,2.78,2.78,0,0,0,1.26-.44.39.39,0,0,1,.54.07.38.38,0,0,1-.07.54,3.44,3.44,0,0,1-1.66.6Z"/><path class="cls-4" d="M119.08,110.73a10.31,10.31,0,0,1-2.54,1.71c-.22.1-.51-.32-.73-.23s-.36.67-.57.73a10.14,10.14,0,0,1-8-.84c-.27-.15-.39-.73-.66-.91s-.65,0-.89-.17a9.72,9.72,0,0,1-.93-.89,10.07,10.07,0,0,1-2.66-7.38c0-.58.7-.93.83-1.5.09-.4-.39-1-.25-1.4a10.23,10.23,0,0,1,5.33-5.8c.31-.14.75.24,1.08.13s.4-.67.66-.74a10.14,10.14,0,0,1,9.92,3c.19.2-.09.53.08.74s.84.4,1,.67A10.15,10.15,0,0,1,122.2,105a9.43,9.43,0,0,1-.11,1.68c-.15.41-.67.86-.87,1.26A10.39,10.39,0,0,1,119.08,110.73Z"/><path class="cls-1" d="M112.22,113.92a10.58,10.58,0,0,1-5.23-1.37,1.5,1.5,0,0,1-.55-.68,1.92,1.92,0,0,0-.16-.27s-.06,0-.11,0a1.1,1.1,0,0,1-.81-.21,9.69,9.69,0,0,1-1-.94,10.61,10.61,0,0,1-2.8-7.75,1.94,1.94,0,0,1,.54-1.11,1.6,1.6,0,0,0,.31-.48,1.81,1.81,0,0,0-.12-.39,1.6,1.6,0,0,1-.12-1.08A10.61,10.61,0,0,1,105,95.44a10.46,10.46,0,0,1,2.78-1.85,1.2,1.2,0,0,1,.94,0l.16.05.08-.13a1.17,1.17,0,0,1,.66-.61,10.66,10.66,0,0,1,10.42,3.12.87.87,0,0,1,.17.82l.25.13a1.64,1.64,0,0,1,.72.53,10.61,10.61,0,0,1,1.52,7.53,4.19,4.19,0,0,0,0,.62,2.79,2.79,0,0,1-.12,1.15,3.15,3.15,0,0,1-.56.87,3.14,3.14,0,0,0-.33.45,10.45,10.45,0,0,1-2.26,3,10.62,10.62,0,0,1-2.66,1.79.8.8,0,0,1-.77-.08h0a1.19,1.19,0,0,1-.59.62A10.8,10.8,0,0,1,112.22,113.92Zm-6-3.32a1.06,1.06,0,0,1,.61.16,1.74,1.74,0,0,1,.48.64,1.28,1.28,0,0,0,.16.27,9.67,9.67,0,0,0,7.47.81l.09-.15a1.13,1.13,0,0,1,.54-.6,1,1,0,0,1,.83.16h0a9.36,9.36,0,0,0,2.26-1.55h0a9.55,9.55,0,0,0,2-2.66,4.53,4.53,0,0,1,.45-.63,2.52,2.52,0,0,0,.39-.57,1.71,1.71,0,0,0,.06-.76,3.41,3.41,0,0,1,0-.83,9.61,9.61,0,0,0-1.38-6.8,1.94,1.94,0,0,0-.31-.17,2,2,0,0,1-.67-.46.94.94,0,0,1-.13-.78h0A9.62,9.62,0,0,0,110,93.92l-.11.16a1.15,1.15,0,0,1-.6.59,1.26,1.26,0,0,1-.85-.07,2,2,0,0,0-.23-.06,9.82,9.82,0,0,0-2.46,1.65,9.6,9.6,0,0,0-2.55,3.83,3,3,0,0,0,.12.38,1.67,1.67,0,0,1,.15,1,2.08,2.08,0,0,1-.52.91,1.28,1.28,0,0,0-.3.51,9.56,9.56,0,0,0,2.53,7,8.83,8.83,0,0,0,.88.85s0,0,.11,0ZM110,93.89Z"/><path class="cls-2" d="M113.73,104.62s1.25,1.87,1,2.78"/><path class="cls-1" d="M114.76,107.78h-.09a.39.39,0,0,1-.28-.47,5,5,0,0,0-1-2.47.38.38,0,0,1,.1-.53.4.4,0,0,1,.54.1c.22.34,1.34,2.07,1.09,3.09A.39.39,0,0,1,114.76,107.78Z"/><path class="cls-2" d="M107.93,103.65a11.63,11.63,0,0,0,3.73-.46"/><path class="cls-1" d="M108.4,104h-.49a.38.38,0,0,1-.36-.41.37.37,0,0,1,.4-.36,11.51,11.51,0,0,0,3.59-.43.37.37,0,0,1,.48.24.39.39,0,0,1-.24.49A11.26,11.26,0,0,1,108.4,104Z"/><path class="cls-2" d="M114.39,99.19a3,3,0,0,1-1,2.41"/><path class="cls-1" d="M113.4,102a.39.39,0,0,1-.22-.71c.89-.57.83-2,.83-2.06a.38.38,0,0,1,.36-.4.37.37,0,0,1,.41.36,3.33,3.33,0,0,1-1.17,2.75A.42.42,0,0,1,113.4,102Z"/><path class="cls-2" d="M112.83,96.16a5.66,5.66,0,0,0-2-.44"/><path class="cls-1" d="M112.83,96.55a.45.45,0,0,1-.16,0,5.36,5.36,0,0,0-1.84-.42.39.39,0,0,1-.37-.4.4.4,0,0,1,.4-.37,6.47,6.47,0,0,1,2.14.48.39.39,0,0,1,.18.52A.37.37,0,0,1,112.83,96.55Z"/><path class="cls-2" d="M116.29,98.53a8.46,8.46,0,0,0,1.9-.41"/><path class="cls-1" d="M116.29,98.91a.39.39,0,0,1-.39-.35.4.4,0,0,1,.36-.42,8.32,8.32,0,0,0,1.8-.38.38.38,0,1,1,.26.72,8.8,8.8,0,0,1-2,.43Z"/><polyline class="cls-2" points="117.53 107.42 119.99 107.02 120.66 106"/><path class="cls-1" d="M117.53,107.81a.39.39,0,0,1-.38-.33.38.38,0,0,1,.32-.44l2.29-.37.57-.88a.39.39,0,0,1,.54-.11.37.37,0,0,1,.11.53l-.67,1a.36.36,0,0,1-.26.17l-2.46.4Z"/><line class="cls-2" x1="119.99" y1="107.02" x2="120.43" y2="107.5"/><path class="cls-1" d="M120.43,107.88a.4.4,0,0,1-.29-.12l-.43-.48a.37.37,0,0,1,0-.54.38.38,0,0,1,.55,0l.43.47a.38.38,0,0,1,0,.55A.39.39,0,0,1,120.43,107.88Z"/><path class="cls-2" d="M114.31,109.56a3.22,3.22,0,0,1-1.45,1.34"/><path class="cls-1" d="M112.86,111.29a.37.37,0,0,1-.35-.23.38.38,0,0,1,.18-.51,2.85,2.85,0,0,0,1.27-1.16.39.39,0,1,1,.69.35,3.59,3.59,0,0,1-1.63,1.51A.32.32,0,0,1,112.86,111.29Z"/><path class="cls-2" d="M110.86,111.46a6.33,6.33,0,0,1-2.14.21"/><path class="cls-1" d="M109.16,112.07h-.46a.38.38,0,0,1-.36-.41.37.37,0,0,1,.41-.36,6.07,6.07,0,0,0,2-.2.38.38,0,0,1,.24.73A6.32,6.32,0,0,1,109.16,112.07Z"/><path class="cls-2" d="M106.49,106.46a4,4,0,0,0-.14,3"/><path class="cls-1" d="M106.35,109.86a.38.38,0,0,1-.37-.27,4.37,4.37,0,0,1,.18-3.33.39.39,0,1,1,.67.39,3.55,3.55,0,0,0-.11,2.71.38.38,0,0,1-.25.48A.25.25,0,0,1,106.35,109.86Z"/><path class="cls-2" d="M105.24,102.62a3.1,3.1,0,0,1-1.37-.72"/><path class="cls-1" d="M105.24,103h-.07a3.29,3.29,0,0,1-1.55-.81.39.39,0,0,1,.51-.58,2.63,2.63,0,0,0,1.18.63.39.39,0,0,1-.07.77Z"/></svg>