<svg id="レイヤー_1" data-name="レイヤー 1" xmlns="http://www.w3.org/2000/svg" viewBox="0 0 484.01 255.85"><defs><style>.cls-1{fill:#0863a7;}.cls-1,.cls-2{stroke:#41210d;stroke-linecap:round;stroke-linejoin:round;}.cls-2{fill:#f1c41e;}</style></defs><title>リンク能力例</title><polygon class="cls-1" points="242.56 36.9 108.25 164.5 129.68 164.5 264 36.9 242.56 36.9"/><polygon class="cls-2" points="139.5 198.53 273.82 70.93 264.39 36.9 130.07 164.5 139.5 198.53"/><polygon class="cls-2" points="108.25 164.5 101.11 198.53 139.11 198.53 129.68 164.5 108.25 164.5"/><polyline class="cls-2" points="388.06 215.62 90.47 215.62 95.21 177.45 390.09 177.45"/><polyline class="cls-2" points="390.06 177.48 398.81 168.8 407.26 197.29 388.06 215.62"/><polygon class="cls-1" points="95.18 177.48 390.06 177.48 398.95 168.8 104.5 168.8 95.18 177.48"/><line class="cls-2" x1="388.24" y1="212.09" x2="389.85" y2="181.49"/></svg>