<svg id="レイヤー_1" data-name="レイヤー 1" xmlns="http://www.w3.org/2000/svg" xmlns:xlink="http://www.w3.org/1999/xlink" viewBox="0 0 218 218"><defs><style>.cls-1,.cls-10{fill:none;}.cls-2{clip-path:url(#clip-path);}.cls-3{fill:#00a148;}.cls-10,.cls-11,.cls-13,.cls-14,.cls-16,.cls-3,.cls-4,.cls-6,.cls-7,.cls-8,.cls-9{stroke:#42210b;}.cls-10,.cls-11,.cls-13,.cls-14,.cls-16,.cls-3,.cls-4,.cls-5,.cls-6,.cls-7,.cls-8,.cls-9{stroke-linecap:round;stroke-linejoin:round;stroke-width:2px;}.cls-4{fill:#fffbc4;}.cls-5{fill:#998675;stroke:#40220f;}.cls-6{fill:#865a1e;}.cls-7{fill:#f5dcbe;}.cls-8{fill:#ccc;}.cls-9{fill:#fff;}.cls-11{fill:#2c3493;}.cls-12{fill:#42210b;}.cls-13{fill:red;}.cls-14{fill:#ffe800;}.cls-15{fill:#efa2b5;}.cls-16{fill:#9dcd82;}.cls-17{clip-path:url(#clip-path-2);}.cls-18{fill:#fff1e1;}</style><clipPath id="clip-path"><rect id="SVGID" class="cls-1" x="9" y="-232.84" width="200" height="200" rx="10"/></clipPath><clipPath id="clip-path-2"><rect id="SVGID-2" data-name="SVGID" class="cls-1" x="-226.49" y="251.71" width="200" height="200" rx="10"/></clipPath></defs><title>13-1-1 ハンドボール</title><g class="cls-2"><polygon class="cls-3" points="181.85 35.63 181.85 -10.7 -17.8 -140.59 -13.23 -18.12 181.85 35.63"/><line class="cls-4" x1="188.73" y1="-255.02" x2="188.73" y2="35.63"/><rect class="cls-4" x="182.73" y="-255.02" width="12" height="290.65"/><rect class="cls-4" x="176.82" y="-255.02" width="6" height="290.65"/></g><path class="cls-5" d="M98.46,135.58a16.19,16.19,0,0,0,9.66,6.71c6.6,1.54,8.23-1,8.23-1v-8L101.88,130Z"/><path class="cls-6" d="M119.25,43.08c.44,4.61-6.12,4.24-14,1.75-5.1-1.61-8.38-4.63-18.4-5.37-14.4-1.08-19.38-6.76-21.1-10.76,10,3.13,12.83,1.24,26.12-1.12S118,30.08,119.25,43.08Z"/><path class="cls-7" d="M142.64,109.09a4.7,4.7,0,0,1-4.28-3.51c-.65-2.85-6.15-7.09-9.66-9.07a4.24,4.24,0,0,1-1.66-6A4.93,4.93,0,0,1,133.53,89c2.05,1.15,12.36,7.24,14.11,14.85A4.34,4.34,0,0,1,144,109,4.8,4.8,0,0,1,142.64,109.09Z"/><path class="cls-7" d="M108.11,100.7a20.33,20.33,0,0,1-11.26-3.33c-7-4.71-13.07-21.48-14.21-24.8a5,5,0,0,1,9.46-3.24c2.77,8,7.56,17.89,10.3,19.71a10.32,10.32,0,0,0,7.95,1.4A5,5,0,1,1,113.4,100,18,18,0,0,1,108.11,100.7Z"/><path class="cls-7" d="M106.88,180.45a5,5,0,0,1-3.25-8.8c11.83-10.11,12.24-34.5,12.24-34.75a5,5,0,0,1,10,.1c0,1.19-.44,29.18-15.75,42.26A5,5,0,0,1,106.88,180.45Z"/><path class="cls-7" d="M104.37,169a5,5,0,0,1-4.46-7.26c3.35-6.62,7-15.47,7-18.25s-3-7.41-4.33-9a5,5,0,0,1,7.67-6.43c.68.82,6.66,8.17,6.66,15.46,0,6.39-6.15,19-8,22.76A5,5,0,0,1,104.37,169Z"/><path class="cls-8" d="M108,181.86a12.17,12.17,0,0,1,2.14-3.45c-3.56-1.11-6.69-3.33-6.56-6.83a35.74,35.74,0,0,1-3.19,1.74c-2.39,1.05-2.82,5.86,0,7.92-1.8,2.91,0,7.92,2.49,9.19a5,5,0,0,0,5.07-8.57Z"/><path class="cls-9" d="M109.64,181.35a12.34,12.34,0,0,1,2.14-3.45c-3.56-1.11-6.71-4.07-6.58-7.57L102,172.81c-2,1.61-2.82,5.86,0,7.92-1.8,2.92,0,7.92,2.49,9.2a5,5,0,0,0,5.07-8.58Z"/><path class="cls-10" d="M109.64,181.35a3.67,3.67,0,0,0-4.3-.28"/><path class="cls-8" d="M108.25,168.79a12.34,12.34,0,0,1,.65-4c-3.71.35-7.45-.5-8.67-3.78A36.25,36.25,0,0,1,98,163.83c-1.81,1.89-.36,6.5,3.09,7.3-.55,3.38,3.07,7.29,5.83,7.53a5,5,0,0,0,1.38-9.87Z"/><path class="cls-9" d="M109.55,167.7a12.34,12.34,0,0,1,.65-4c-3.71.35-7.76-1.17-9-4.46l-2,3.51c-1.28,2.27-.35,6.49,3.1,7.3-.55,3.38,3.07,7.29,5.83,7.53a5,5,0,0,0,1.38-9.87Z"/><path class="cls-10" d="M109.55,167.7s-2.68-.83-4.08,1.39"/><path class="cls-9" d="M128.37,85.45s9,4.36,12.25,7.88a14.78,14.78,0,0,0-7.75,10c-3.87-2.63-9.25-5.5-9.25-5.5Z"/><path class="cls-9" d="M122.12,71.45c13,11.88,14.75,30.88,8.25,58.5-10.75-.87-22.25-5-27-9.37,3.13-7.92,13.45-17.45,10.51-32.5C111.75,77.2,116.49,66.31,122.12,71.45Z"/><path class="cls-9" d="M115.12,88.2s-7.61,1.25-10.76.75c-1.74,4.38-.22,10.59,3.15,12.48a52.5,52.5,0,0,0,8.36-.73"/><path class="cls-11" d="M104.73,117.73s-8,8.68-6.27,17.85c6.9-1.28,11.83-2.12,16.73,1.42,1,.74,1.69,3.09,1.69,4.38a11,11,0,0,1,9,5.07,53.5,53.5,0,0,0,5.34-20.25C131.16,126.83,104.73,117.73,104.73,117.73Z"/><circle class="cls-7" cx="128.09" cy="90.2" r="4.19"/><path class="cls-7" d="M152.25,66c0,7.17-2,14.65-6.63,18.88-4.79,4.37-12.34,5.37-19.74,5.37C111.31,90.2,99.5,80.52,99.5,66a26.38,26.38,0,0,1,52.75,0Z"/><path class="cls-7" d="M134.5,66a3,3,0,0,1,2.12-.88,3,3,0,0,1,0,6,3,3,0,0,1-2.12-.88"/><circle class="cls-12" cx="122" cy="65.95" r="1.37"/><circle class="cls-12" cx="145.75" cy="65.95" r="1.37"/><ellipse class="cls-13" cx="135.77" cy="81.17" rx="6.25" ry="3.25" transform="translate(26 195.07) rotate(-76.93)"/><path class="cls-6" d="M110.42,67.33a26.36,26.36,0,0,0,10.2-13.88c11.86,6.87,31.39,9.49,31.45,9.5A26.37,26.37,0,0,0,99.5,66a23.06,23.06,0,0,0,11.39,20.27A78.5,78.5,0,0,1,110.42,67.33Z"/><circle class="cls-14" cx="86" cy="55.33" r="16.63"/><path class="cls-7" d="M112.23,74.6a3.77,3.77,0,0,1-3.07,1.84c-2.27,0-4.14-2.3-4.18-5.2s1.78-5.27,4-5.3a3.7,3.7,0,0,1,2.89,1.47"/><ellipse class="cls-7" cx="143.47" cy="107.32" rx="7" ry="4.57"/><path class="cls-15" d="M146.32,63.44A1.88,1.88,0,0,1,145,62.8a2,2,0,0,1-.53-1.43l.32-8.18a2,2,0,0,1,2-1.92h.12a2,2,0,0,1,1.37.64,2,2,0,0,1,.53,1.43l-.33,8.18a2,2,0,0,1-1.9,1.92h-.2Z"/><path class="cls-12" d="M146.73,52.27h.06a1,1,0,0,1,1,1l-.33,8.18a1,1,0,0,1-.95,1h-.09a1,1,0,0,1-.95-1l.32-8.18a1,1,0,0,1,1-1m0-2h0a3,3,0,0,0-3,2.88l-.32,8.18a3,3,0,0,0,.79,2.15,3,3,0,0,0,2.09,1h.26a3,3,0,0,0,2.85-2.87l.33-8.18a3,3,0,0,0-2.88-3.11Z"/><path class="cls-15" d="M142.71,62.53a2,2,0,0,1-1.34-.69,2,2,0,0,1-.47-1.46l.64-7.92a2,2,0,0,1,2-1.84h.18a2,2,0,0,1,1.35.69,2,2,0,0,1,.47,1.46l-.63,7.92a2,2,0,0,1-1.82,1.83h-.36Z"/><path class="cls-12" d="M143.52,51.62h.09a1,1,0,0,1,.92,1.08l-.64,7.92a1,1,0,0,1-.91.91h-.16a1,1,0,0,1-.92-1.07l.63-7.92a1,1,0,0,1,1-.92m0-2h0a3,3,0,0,0-3,2.76l-.63,7.92a2.94,2.94,0,0,0,.7,2.18,3,3,0,0,0,2,1.05h.49a3,3,0,0,0,2.74-2.75l.63-7.92a3,3,0,0,0-.71-2.19,3,3,0,0,0-2-1Z"/><line class="cls-16" x1="116.88" y1="141.38" x2="115.87" y2="131.96"/><g class="cls-17"><ellipse class="cls-18" cx="-105.35" cy="354.73" rx="173.57" ry="160.5"/></g></svg>