<svg id="レイヤー_1" data-name="レイヤー 1" xmlns="http://www.w3.org/2000/svg" xmlns:xlink="http://www.w3.org/1999/xlink" viewBox="0 0 218 218"><defs><style>.cls-1,.cls-2{fill:none;}.cls-11,.cls-13,.cls-2,.cls-4{stroke:#42210b;}.cls-10,.cls-11,.cls-13,.cls-2,.cls-4,.cls-5,.cls-6,.cls-7,.cls-9{stroke-linecap:round;stroke-linejoin:round;stroke-width:2px;}.cls-3{clip-path:url(#clip-path);}.cls-4{fill:#f5dcbe;}.cls-5{fill:#f1d8bc;}.cls-10,.cls-5,.cls-6,.cls-7,.cls-9{stroke:#40210d;}.cls-6{fill:#273189;}.cls-7,.cls-8{fill:#40210d;}.cls-9{fill:#fff100;}.cls-10{fill:#d61518;}.cls-11{fill:red;}.cls-12{fill:#42210b;}.cls-13{fill:#603813;}.cls-14{fill:url(#名称未設定グラデーション_63);}.cls-15{fill:#009fde;}.cls-16{clip-path:url(#clip-path-2);}.cls-17{fill:url(#名称未設定グラデーション_54);}</style><clipPath id="clip-path"><rect id="SVGID" class="cls-1" x="10.89" y="9" width="200" height="200" rx="10"/></clipPath><linearGradient id="名称未設定グラデーション_63" x1="101" y1="226.86" x2="101" y2="95.12" gradientUnits="userSpaceOnUse"><stop offset="0" stop-color="#84c8f0"/><stop offset="0.14" stop-color="#82c7f0" stop-opacity="0.98"/><stop offset="0.29" stop-color="#7cc4f1" stop-opacity="0.92"/><stop offset="0.46" stop-color="#72c0f1" stop-opacity="0.82"/><stop offset="0.64" stop-color="#65baf2" stop-opacity="0.69"/><stop offset="0.82" stop-color="#54b2f4" stop-opacity="0.51"/><stop offset="1" stop-color="#3fa9f5" stop-opacity="0.3"/></linearGradient><clipPath id="clip-path-2"><rect id="SVGID-2" data-name="SVGID" class="cls-1" x="247" y="9" width="200" height="200" rx="10"/></clipPath><linearGradient id="名称未設定グラデーション_54" x1="337.13" y1="238.25" x2="337.13" y2="106.51" gradientUnits="userSpaceOnUse"><stop offset="0" stop-color="#bce2ec"/><stop offset="0.43" stop-color="#bae1ec"/><stop offset="0.58" stop-color="#b3deed"/><stop offset="0.7" stop-color="#a8d8ed"/><stop offset="0.78" stop-color="#97d1ef"/><stop offset="0.85" stop-color="#84c8f0"/><stop offset="0.87" stop-color="#7fc6f0" stop-opacity="0.95"/><stop offset="0.9" stop-color="#72c0f1" stop-opacity="0.82"/><stop offset="0.94" stop-color="#5eb7f3" stop-opacity="0.61"/><stop offset="1" stop-color="#41aaf5" stop-opacity="0.32"/><stop offset="1" stop-color="#3fa9f5" stop-opacity="0.3"/></linearGradient></defs><title>4-1-2 方向や速さを変える</title><path class="cls-2" d="M110.89,154.19s4.78,12.34-5.89,17.34"/><path class="cls-2" d="M116,155.86a18.15,18.15,0,0,1-7,18"/><g class="cls-3"><path class="cls-4" d="M205.91,141.46c-1.81,1.68-2.42,4.53-2.62,5.93a4.18,4.18,0,0,0-.81,1.15,24.74,24.74,0,0,1-4.71,6.59,9.91,9.91,0,0,1-3.51,2.31,5.38,5.38,0,0,1-4.51-.48c-3.14-1.68-1.76-11.48.39-17.61a4,4,0,0,0-2.39-5.12,3.92,3.92,0,0,0-5,2.42c-.78,2.21-7.29,21.71,3.38,27.4a13.78,13.78,0,0,0,6.49,1.69,12.94,12.94,0,0,0,4.19-.71,18,18,0,0,0,6.81-4.46,32.56,32.56,0,0,0,6-8.63,1.66,1.66,0,0,0,.1-.29c.18.3.27.49.27.49s-.63,3.93,2.12,5.38c3.56,1.87,6.77,0,8.49-2.56C218.76,152.57,212.76,144.47,205.91,141.46Z"/><ellipse class="cls-5" cx="167.12" cy="100.14" rx="3.45" ry="5.03" transform="translate(-21.46 51.2) rotate(-16.38)"/><path class="cls-4" d="M123.24,106.28a4.5,4.5,0,0,1-1.1-8.87c11.56-2.93,39.32-9,47.36-2.07a7.83,7.83,0,0,1,2.72,6.89,4.5,4.5,0,0,1-9-.31c-3.89-2.06-21.57-.17-38.9,4.22A4.75,4.75,0,0,1,123.24,106.28Z"/><path class="cls-4" d="M174.13,144.11a3.91,3.91,0,0,0-5.44-1.25,54,54,0,0,0-16.17,17.76,47.94,47.94,0,0,0-4.84,12.06,2,2,0,0,0,0,.24l-.1-.11s-.17-4-3.15-4.84c-3.86-1.1-6.63,1.42-7.81,4.25,2.28,2,9.77,8.66,17.08,10.2,1.69-2.36,1.43-6,1.33-6.93a3.66,3.66,0,0,0,.33-.85,39.88,39.88,0,0,1,3.91-9.79,47.16,47.16,0,0,1,13.66-15.22A4,4,0,0,0,174.13,144.11Z"/><path class="cls-6" d="M184.33,117.86c-.12-.25-.23-.51-.35-.76a2.8,2.8,0,0,1-.65.32c-2.81.82-6.56-3.53-8.38-9.73-1.4-4.74-1.25-9.19.16-11.38A29.68,29.68,0,0,0,172.56,93c-2.12,2.45-8.91,7-10.2,14.23-2.26,12.75,2,30.31,3.47,33.81a16.42,16.42,0,0,0,8.9,9.27c3,1.23,6.24,3.51,13.78-1.77C193.42,145.08,192.05,133.46,184.33,117.86Z"/><path class="cls-4" d="M216.75,91.52c-26.44-2.21-37.67,4.41-40.56,6.56q-.51-.89-1.08-1.77A10,10,0,0,0,174,101.7a4.76,4.76,0,0,0,0,1,23.71,23.71,0,0,0,.92,5c1.82,6.2,5.57,10.55,8.38,9.73a2.8,2.8,0,0,0,.65-.32c-1.67-3.55-2.82-7.19-4.12-10.79a4.6,4.6,0,0,0,1.57-.9c.08-.07,8.92-7.06,34.57-4.92a4.5,4.5,0,1,0,.75-9Z"/><path class="cls-5" d="M135.3,88.32c1.77-1.15,1.59-4.08,1.59-4.08a3.43,3.43,0,0,1-2.37.61,3.54,3.54,0,0,1-2.94-4.65,3.48,3.48,0,0,1,3-2.41A7.7,7.7,0,0,1,137,78c1.78.49,2.69-3.15,2.83-3.91,2.46-14.21,13.54-24.51,27.92-23A27.9,27.9,0,0,1,192.31,82c-.71,6.83-3.22,13.33-7.64,16.78-5.54,4.34-13.82,4.67-22.25,3.76s-14.4-2.85-19.85-7.69Z"/><path class="cls-7" d="M167.75,51.47a24.79,24.79,0,0,0-26.2,15.29,34,34,0,0,0-1.5,6.53c1.76.66,11.61,1.54,19-1.48a27.68,27.68,0,0,1-5.76,3.49c6.44-.32,11-2.4,16.66-6.11,1.79,8.68,3.24,10.31,6.56,13.44a3.8,3.8,0,0,1,2.88-.44c2.35.6,3.66,3.49,2.91,6.44-.62,2.47-2.47,4.2-4.44,4.34a31.65,31.65,0,0,1-1.39,9.63,19.06,19.06,0,0,0,8.12-3.53c4.43-3.46,6.93-10,7.65-16.78A27.91,27.91,0,0,0,167.75,51.47Z"/><ellipse class="cls-8" cx="156.93" cy="80.49" rx="1.39" ry="2.36" transform="translate(19.08 190.51) rotate(-65.75)"/><ellipse class="cls-7" cx="190.62" cy="100.12" rx="2.54" ry="2.58"/><ellipse class="cls-7" cx="198.19" cy="101.78" rx="2.54" ry="2.58"/><ellipse class="cls-7" cx="206.25" cy="100.97" rx="2.54" ry="2.58"/><polygon class="cls-7" points="210.47 98.02 212.97 92.41 215.5 98.39 210.47 98.02"/><path class="cls-9" d="M164.09,50.11c-10.42,0-20.79,5-22.87,16.74L176,82.66a3.88,3.88,0,0,1,2.85-.76c2.42.35,4,3.11,3.6,6.15l7.2,4.4c3.76-5.64,4.66-9.86,4.66-14C194.27,62.78,179.47,50.11,164.09,50.11Z"/><path class="cls-10" d="M140,89.2s11.76,1.73,11.84,4.65-4.61,3-6.31.18S140,89.2,140,89.2Z"/><path class="cls-4" d="M100.4,152.26c-1-3.92-4.33-7.62-5.16-7.86s-6.27,3.21-6.16,3.29c-.18.11-10.93,6.29-15.12,5.12-6.59-1.83-11-10.32-12.21-13.44a4.92,4.92,0,0,0-9.24,3.4c.24.65,6,15.9,18.75,19.51a20.26,20.26,0,0,0,5.52.77c5.67,0,17.58-5.91,17.39-5.44a5.89,5.89,0,0,0,7.6,7.29l0,.08,2.18-1.2C105.63,162.87,101,154.6,100.4,152.26Z"/><path class="cls-4" d="M60.87,142.3c-10.4,0-32.17,6-40.09,28.91-.14.41-1.38,0-1.56-.61a5.89,5.89,0,0,0-10.49-.91l-.08,0-.38.91h0c-.28.7,7.5,6.69,9.45,8.12,3.27,2.4,8.31,4.06,9.11,3.72s3.17-7.73,3.25-8c7.56-21.83,29.82-22.27,30.81-22.28a4.93,4.93,0,0,0,0-9.85Z"/><path class="cls-4" d="M3.24,129.62a5.23,5.23,0,0,1-1.38-10.27c21.53-5.87,33.28-16.47,33.39-16.58a5.23,5.23,0,0,1,7.07,7.71c-.55.5-13.76,12.43-37.71,19A5.43,5.43,0,0,1,3.24,129.62Z"/><path class="cls-6" d="M66,130.67c-3.13-4.18-4.18-9.41-6.27-16.73-3.54-12.38-13.26-24.29-17.77-23-7.32,2.09-3.5,35,1.15,50.75C44,146.94,48,155.58,56,154c.08.08,13.07-3.27,14-9.63C70.8,138.9,66,130.67,66,130.67Z"/><path class="cls-4" d="M69.1,75.26c0,16.17-13.1,25.09-29.27,25.09-8,0-17.72-1.06-23-5.23s-6.27-11.7-6.27-19.86a29.27,29.27,0,1,1,58.54,0Z"/><path class="cls-4" d="M21.44,85.1a2.05,2.05,0,0,1-1.47.61,2.09,2.09,0,1,1,0-4.18,2.12,2.12,0,0,1,1.4.54"/><path class="cls-11" d="M20,89.9a32.9,32.9,0,0,0,13.59,1s-1.05,4.18-6.28,4.18S20,89.9,20,89.9Z"/><circle class="cls-12" cx="36.69" cy="80.49" r="1.57"/><circle class="cls-12" cx="14.74" cy="79.44" r="1.57"/><path class="cls-13" d="M15.86,58.46C21,49.12,30.42,43.9,44,44.94S66,57.49,69.1,65.85c1.69,4.51,2,14.74-2.09,22C63.48,94,56.07,97.38,50.28,99.31c4.18-8.37,6.28-17.78,1-28.23S28.33,55.4,15.86,58.46Z"/><path class="cls-4" d="M49.76,76.79A4.34,4.34,0,0,1,53,75.26c2.53,0,4.59,2.34,4.59,5.23S55.54,85.71,53,85.71a4.28,4.28,0,0,1-3.07-1.33"/><path class="cls-13" d="M38.26,63.24S28.33,73.17,10,74.74c-.52-4.71,0-12.55,5.75-18.3s13.59-5.23,24.57.52c5.75-2.61,9.93,2.62,11.5,8.37s1.57,8.88,0,14.63A51.49,51.49,0,0,1,38.26,63.24Z"/><path class="cls-9" d="M13.17,59.71c10.5.48,30.22,7.19,39.86,13.46A43.51,43.51,0,0,1,67,87.81c8.32-8.37,10-35.43-13.33-44.94-7.52-3.07-18-3.46-24.35-1.31C18.83,45.13,13.75,56.12,13.17,59.71Z"/><path class="cls-4" d="M90.48,109.78a89.19,89.19,0,0,1-28.71-7.7,26.23,26.23,0,0,1-3.85-1.73c-1.6-1.52-1.75-3.45-3-3.1-2,.59-2.45,5.08-1,10s4.25,8.48,6.25,7.89a2.4,2.4,0,0,0,1.45-1.72,99.21,99.21,0,0,0,27.86,6.75,3.85,3.85,0,0,0,.48,0,5.23,5.23,0,0,0,.46-10.43Z"/><path class="cls-14" d="M-28.33,117.19s38.89-16.84,68.16-16.84S79,115.51,104.34,115.51,134,95.12,158.67,95.12s31,13.88,50.66,13.88,21-2.84,21-2.84l-1.66,120.7-239.67-2Z"/></g><path class="cls-15" d="M90.3,54.85c1.15-3.67,3.51-6,5.28-6.29,2.24-.33,4.25,1.5,3.2,3.64C97.55,54.7,94,53,90.3,54.85Z"/><path class="cls-15" d="M94.1,58.68c2.62-2.3,5.56-3,7.05-2.4,1.9.8,2.6,3.16.78,4.32C99.8,62,97.81,59,94.1,58.68Z"/><path class="cls-15" d="M88.34,94.3c1.15-3.66,3.51-6,5.28-6.29,2.24-.32,4.25,1.5,3.2,3.64C95.59,94.15,92,92.46,88.34,94.3Z"/><path class="cls-15" d="M92.14,98.13c2.62-2.3,5.56-3,7-2.4,1.9.8,2.6,3.16.78,4.33C97.84,101.42,95.85,98.43,92.14,98.13Z"/><path class="cls-15" d="M194.35,51.79c1.16-3.66,3.51-6,5.28-6.29,2.25-.32,4.26,1.5,3.21,3.64C201.61,51.64,198,50,194.35,51.79Z"/><path class="cls-15" d="M198.16,55.62c2.61-2.3,5.55-3,7.05-2.4,1.89.8,2.59,3.16.77,4.33C203.85,58.91,201.86,55.92,198.16,55.62Z"/><g class="cls-16"><path class="cls-17" d="M207.79,128.58s38.89-16.84,68.16-16.84,39.18,15.16,64.51,15.16,29.67-20.39,54.33-20.39,31,13.88,50.67,13.88,21-2.84,21-2.84l-1.67,120.7-239.66-2Z"/></g></svg>