<svg id="レイヤー_1" data-name="レイヤー 1" xmlns="http://www.w3.org/2000/svg" xmlns:xlink="http://www.w3.org/1999/xlink" viewBox="0 0 218 218"><defs><style>.cls-1{fill:none;}.cls-2{clip-path:url(#clip-path);}.cls-3{fill:#5e3819;stroke:#40210d;}.cls-10,.cls-11,.cls-13,.cls-14,.cls-16,.cls-3,.cls-7,.cls-8,.cls-9{stroke-linecap:round;stroke-linejoin:round;}.cls-10,.cls-11,.cls-13,.cls-14,.cls-16,.cls-18,.cls-3,.cls-7,.cls-8,.cls-9{stroke-width:2px;}.cls-4{clip-path:url(#clip-path-2);}.cls-5{fill:#9b7656;}.cls-6{clip-path:url(#clip-path-3);}.cls-7{fill:#865a1e;}.cls-10,.cls-11,.cls-13,.cls-14,.cls-16,.cls-7,.cls-8,.cls-9{stroke:#42210b;}.cls-8{fill:#f5dcbe;}.cls-9{fill:#ccc;}.cls-10,.cls-15{fill:#fff;}.cls-11{fill:#2c3493;}.cls-12{fill:#42210b;}.cls-13{fill:red;}.cls-14{fill:#ffe800;}.cls-16{fill:#efa2b5;}.cls-17{clip-path:url(#clip-path-4);}.cls-18{fill:#ed811b;stroke:#40220f;stroke-miterlimit:10;}</style><clipPath id="clip-path"><rect id="SVGID" class="cls-1" x="-231" y="10" width="200" height="200" rx="10"/></clipPath><clipPath id="clip-path-2"><rect id="SVGID-2" data-name="SVGID" class="cls-1" x="-532.76" y="-58" width="568.77" height="326.6"/></clipPath><clipPath id="clip-path-3"><rect id="SVGID-3" data-name="SVGID" class="cls-1" x="9" y="10" width="200" height="200" rx="10"/></clipPath><clipPath id="clip-path-4"><rect id="SVGID-4" data-name="SVGID" class="cls-1" x="11.39" y="249" width="200" height="200" rx="10"/></clipPath></defs><title>3-3 投</title><g class="cls-2"><path class="cls-3" d="M-15.35,56.21s9-6.42,15.07-5.35,11.16,5.67,11.16,10.81-9,5.85-8.86,8.25,6.2,4.15,6.2,4.15S-3.3,73.75-4.72,70.81-1,66.09-2.23,61.67-15.35,56.21-15.35,56.21Z"/><g class="cls-4"><path class="cls-5" d="M-81.39,154l-.5-1.12-1.65.75L-276,120.73l-.27,0-380.4,66-2.12.37,163.31,347.28.85,1.81L2.12,168.32ZM-198,137.39l47,8-455,145.94-21.51-45.75,429.64-107.83ZM-629,242.6-642.95,213l401.75-83,36.14,6.18Zm484.92-96,55.2,9.44L-568,372.28l-36.64-77.92ZM-276.25,124l26.18,4.48L-644.39,209.9-654,189.54ZM-566.63,375.25-83.1,157.06-6,170.26-493.34,531.11Z"/></g></g><g class="cls-6"><path class="cls-7" d="M108.64,50.59c.63,6.48-8.59,6-19.67,2.46-7.16-2.26-11.76-6.5-25.84-7.55C42.89,44,35.91,36,33.48,30.4c14.05,4.39,18,1.73,36.71-1.58C89.05,25.47,106.89,32.33,108.64,50.59Z"/><path class="cls-8" d="M141.51,143.33a6.63,6.63,0,0,1-6-4.94c-.92-4-8.64-10-13.57-12.73a6,6,0,0,1-2.33-8.48,6.92,6.92,0,0,1,9.12-2.07c2.88,1.61,17.36,10.17,19.82,20.85a6.11,6.11,0,0,1-5.12,7.27A7.18,7.18,0,0,1,141.51,143.33Z"/><path class="cls-8" d="M93,131.54a28.36,28.36,0,0,1-15.81-4.69c-9.91-6.6-18.37-30.17-20-34.82a7,7,0,1,1,13.29-4.55C74.39,98.78,81.12,112.6,85,115.17a14.53,14.53,0,0,0,11.17,2,7,7,0,0,1,4.28,13.38A25.35,25.35,0,0,1,93,131.54Z"/><path class="cls-8" d="M91.26,243.58a7,7,0,0,1-4.57-12.36C103.32,217,103.9,182.74,103.9,182.4a7,7,0,0,1,14,.14c0,1.66-.63,41-22.13,59.36A7,7,0,0,1,91.26,243.58Z"/><path class="cls-8" d="M87.74,227.43a7,7,0,0,1-6.26-10.2c4.7-9.29,9.78-21.73,9.78-25.63,0-4.07-4.18-10.42-6.09-12.69a7,7,0,0,1,10.77-9c1,1.14,9.37,11.47,9.37,21.72,0,9-8.65,26.74-11.3,32A7,7,0,0,1,87.74,227.43Z"/><path class="cls-9" d="M93.19,227.2a17.25,17.25,0,0,1,.92-5.63c-5.21.48-10.48-.7-12.19-5.32a49.59,49.59,0,0,1-3.21,4c-2.53,2.65-.49,9.12,4.35,10.25-.77,4.75,4.32,10.25,8.19,10.58a7,7,0,0,0,1.94-13.86Z"/><path class="cls-10" d="M95,225.67a17.64,17.64,0,0,1,.92-5.64c-5.21.49-10.9-1.65-12.62-6.26,0,0-1,1.74-2.77,4.93S80,227.82,84.88,229c-.76,4.75,4.33,10.24,8.19,10.58A7,7,0,0,0,95,225.67Z"/><path class="cls-10" d="M121.46,110.12s12.6,6.12,17.21,11.07a20.75,20.75,0,0,0-10.89,14c-5.44-3.69-13-7.72-13-7.72Z"/><path class="cls-10" d="M112.68,90.46c18.26,16.68,20.72,43.37,11.59,82.18-15.1-1.23-31.26-7-37.93-13.17,4.39-11.12,18.88-24.52,14.75-45.66C98.11,98.53,104.77,83.22,112.68,90.46Z"/><path class="cls-10" d="M102.85,114s-10.7,1.75-15.13,1.05c-2.43,6.15-.3,14.87,4.43,17.53a73.54,73.54,0,0,0,11.75-1"/><path class="cls-11" d="M88.25,155.47S81.92,162.14,81,169c-.55,4.12,1,11,3,16,7-3,17-3,21,0,1,1,1,4,1,4,6,1,12,6.82,12,6.82s6.23-11.24,7.5-28.45C125.38,168.25,88.25,155.47,88.25,155.47Z"/><circle class="cls-8" cx="121.06" cy="116.79" r="5.89"/><path class="cls-8" d="M155,82.73c0,10.06-2.79,20.57-9.3,26.51-6.73,6.15-17.35,7.55-27.75,7.55-20.46,0-37-13.6-37-34.06a37,37,0,1,1,74.1,0Z"/><path class="cls-8" d="M130.07,82.73a4.22,4.22,0,1,1,0,6"/><circle class="cls-12" cx="112.51" cy="82.73" r="1.93"/><circle class="cls-12" cx="145.87" cy="82.73" r="1.93"/><ellipse class="cls-13" cx="131.85" cy="104.11" rx="8.78" ry="4.57" transform="translate(0.63 209.01) rotate(-76.93)"/><path class="cls-7" d="M96.24,84.66a37.06,37.06,0,0,0,14.33-19.49c16.66,9.65,44.09,13.32,44.19,13.33A37.05,37.05,0,0,0,80.9,82.73a32.38,32.38,0,0,0,16,28.47C94.72,98.48,96.24,84.66,96.24,84.66Z"/><circle class="cls-14" cx="61.93" cy="67.8" r="23.36"/><path class="cls-8" d="M98.78,94.88a5.33,5.33,0,0,1-4.32,2.58c-3.19,0-5.81-3.23-5.86-7.31s2.5-7.4,5.69-7.44a5.2,5.2,0,0,1,4.06,2.06"/><ellipse class="cls-8" cx="142.67" cy="140.83" rx="9.83" ry="6.42"/><line class="cls-15" x1="137.27" y1="63.59" x2="135.44" y2="74.6"/><path class="cls-16" d="M143.62,78.51h-.24A1.41,1.41,0,0,1,142.09,77L143,65.88a1.4,1.4,0,1,1,2.8.22l-.88,11.13A1.4,1.4,0,0,1,143.62,78.51Z"/><line class="cls-15" x1="141.69" y1="76.09" x2="142.67" y2="64.64"/><path class="cls-16" d="M148.52,79.79h-.12a1.4,1.4,0,0,1-1.35-1.46l.45-11.48a1.41,1.41,0,0,1,2.81.11l-.46,11.49A1.39,1.39,0,0,1,148.52,79.79Z"/><path class="cls-11" d="M105,185s-1-5-2-9"/></g><g class="cls-17"><path class="cls-18" d="M106.3,512.37a5,5,0,0,1-5-4.94L97.63,221.1a5,5,0,0,1,4.94-5.07h.06a5,5,0,0,1,5,4.94L111.3,507.3a5,5,0,0,1-4.94,5.07Z"/></g></svg>