<svg id="レイヤー_1" data-name="レイヤー 1" xmlns="http://www.w3.org/2000/svg" viewBox="0 0 506.32 323.61"><defs><style>.cls-1{fill:#faf7c3;}.cls-2{font-size:15px;fill:#231815;font-family:YuGothic-Regular, YuGothic Regular;}.cls-3{letter-spacing:-0.5em;}.cls-4{fill:#ea5514;}.cls-4,.cls-5,.cls-6,.cls-7,.cls-8{stroke:#fff;stroke-miterlimit:10;}.cls-5{fill:#e83828;}.cls-6{fill:#f39800;}.cls-7{fill:#f8b62d;}.cls-8{fill:#c30d23;}.cls-9{font-size:17px;fill:#fff;font-family:YuGothic-Bold, YuGothic Bold;font-weight:700;}.cls-10{letter-spacing:0.03em;}.cls-11{letter-spacing:-0.07em;}.cls-12{letter-spacing:0.09em;}.cls-13{letter-spacing:0.25em;}.cls-14{letter-spacing:0.05em;}</style></defs><title>子どもの発達段階</title><rect class="cls-1" x="44.58" y="89.81" width="189.22" height="61.24"/><rect class="cls-1" x="259.04" y="89.81" width="189.22" height="61.24"/><text class="cls-2" transform="translate(148.33 32.9)">出展：子どもの発達段階ごとの<tspan x="0" y="18">特徴と重視すべき課題（文科省</tspan><tspan class="cls-3" x="210" y="18">）</tspan></text><rect class="cls-4" x="228.87" y="252.39" width="102.05" height="45.29"/><rect class="cls-5" x="330.92" y="252.39" width="102.05" height="45.29"/><rect class="cls-6" x="128.23" y="252.39" width="100.65" height="45.29"/><rect class="cls-7" x="26.81" y="252.39" width="101.03" height="45.29"/><polygon class="cls-8" points="487.55 275.03 450.66 240.94 450.66 252.39 432.96 252.39 432.96 297.68 450.66 297.68 450.66 309.13 487.55 275.03"/><text class="cls-9" transform="translate(345.78 272.13)">1<tspan class="cls-10" x="9.37" y="0">5</tspan><tspan class="cls-11" x="19.24" y="0">～</tspan><tspan x="35.05" y="0">1</tspan><tspan class="cls-12" x="44.42" y="0">8</tspan><tspan x="55.32" y="0">歳</tspan><tspan x="2.16" y="18">青年中期</tspan></text><text class="cls-9" transform="translate(246.79 272.13)">1<tspan class="cls-10" x="9.37" y="0">2</tspan><tspan class="cls-11" x="19.24" y="0">～</tspan><tspan x="35.05" y="0">1</tspan><tspan class="cls-12" x="44.42" y="0">5</tspan><tspan x="55.32" y="0">歳</tspan><tspan x="2.16" y="18">青年前期</tspan></text><text class="cls-9" transform="translate(145.54 272.13)"><tspan class="cls-13">6</tspan><tspan class="cls-11" x="13.62" y="0">～</tspan><tspan x="29.43" y="0">1</tspan><tspan class="cls-14" x="38.79" y="0">2</tspan><tspan x="49.01" y="0">歳</tspan><tspan x="7.51" y="18">学童期</tspan></text><text class="cls-9" transform="translate(47.3 272.13)"><tspan class="cls-13">0</tspan><tspan class="cls-11" x="13.62" y="0">～</tspan><tspan class="cls-13" x="29.43" y="0">6</tspan><tspan x="43.04" y="0">歳</tspan><tspan x="-3.98" y="18">乳幼児期</tspan></text><text class="cls-2" transform="translate(55.86 116.9)">・愛着の形成<tspan x="0" y="18">・道徳</tspan><tspan class="cls-13" x="45" y="18">性/</tspan><tspan x="73.21" y="18">社会性の原点</tspan></text><text class="cls-2" transform="translate(270.08 116.9)">・規範意識の形成<tspan x="0" y="18">・道徳</tspan><tspan class="cls-13" x="45" y="18">性/</tspan><tspan x="73.21" y="18">社会性の原点</tspan></text><polygon class="cls-1" points="64.26 145.55 82.06 145.55 73.16 257.81 64.26 145.55"/><polygon class="cls-1" points="282.95 145.55 186.58 257.81 302.21 145.55 282.95 145.55"/></svg>