<svg id="レイヤー_1" data-name="レイヤー 1" xmlns="http://www.w3.org/2000/svg" viewBox="0 0 117.21 153.12"><defs><style>.cls-1{fill:#67391b;}.cls-1,.cls-10,.cls-11,.cls-12,.cls-2,.cls-3,.cls-4,.cls-5,.cls-6,.cls-7,.cls-9{stroke:#40220f;stroke-linecap:round;stroke-linejoin:round;}.cls-2{fill:#f5dcbe;}.cls-3{fill:#727171;}.cls-4{fill:#3f220e;}.cls-5{fill:#3e3a39;}.cls-6{fill:#fff;}.cls-7{fill:#f5e928;}.cls-12,.cls-8{fill:#40220f;}.cls-9{fill:none;}.cls-10{fill:#d71618;}.cls-11{fill:#0363a6;}</style></defs><title>青年期</title><path class="cls-1" d="M64.8,34.44c-1.23,11.49-.18,22.14,11.84,26.92a30.44,30.44,0,0,1-2.33-7s2.42,5.41,6.59,7a8.23,8.23,0,0,1-1-5.33s3.16,6.45,8.69,6.45S97.73,56,97.73,56a6.52,6.52,0,0,1-1.16,4c5-.92,7-6,7-6a8.68,8.68,0,0,1,0,4.09c7.65-4,9.12-8.93,9.84-22.67Z"/><path class="cls-2" d="M95.2,150.85c2,0,3.65-2.8,3.65-6.25V103.75c0-3.44-1.64-6.24-3.65-6.24s-3.65,2.8-3.65,6.24V144.6C91.55,148.05,93.19,150.85,95.2,150.85Z"/><path class="cls-3" d="M98.85,128.12a8.77,8.77,0,0,1-7.3,0V144.6h7.3Z"/><path class="cls-2" d="M82.81,150.85c2,0,3.69-2.8,3.69-6.25V103.75c0-3.44-1.66-6.24-3.69-6.24s-3.69,2.8-3.69,6.24V144.6C79.12,148.05,80.77,150.85,82.81,150.85Z"/><path class="cls-3" d="M86.5,128.12a9,9,0,0,1-7.38,0V144.6H86.5Z"/><path class="cls-4" d="M87.53,150.36c0,2.87-10.41,2.87-10.41,0a5.21,5.21,0,0,1,10.41,0Z"/><path class="cls-4" d="M90.52,150.36c0,2.87,10.4,2.87,10.4,0a5.2,5.2,0,1,0-10.4,0Z"/><path class="cls-4" d="M87.53,148.66c0,2.87-10.41,2.87-10.41,0a5.21,5.21,0,0,1,10.41,0Z"/><path class="cls-4" d="M90.52,148.66c0,2.87,10.4,2.87,10.4,0a5.2,5.2,0,0,0-10.4,0Z"/><path class="cls-5" d="M78.06,95.29l-5.52,18.48c8.13,3.87,26.81,3.87,34,0L98.19,95.29Z"/><path class="cls-2" d="M64.93,102.35c-.13-1.06,1.85-1.34,3.29-2.23,1.13-.69,1.69-2,2.32-2.61a57,57,0,0,0,1-6.19c1-7.35,1.76-19.53,8.65-34.23a3.5,3.5,0,0,1,6.34,3,105.72,105.72,0,0,0-9,32.34c-.69,5-1.07,7.78-2.82,9.49C71.41,105.08,65.13,104.13,64.93,102.35Z"/><path class="cls-5" d="M85.32,50.64C73.54,53.29,69.38,96.25,69.38,96.25a12.28,12.28,0,0,0,8,2.71c1.42-4.38,1.33-12.15,4.71-23.61C86,62,91.65,49.22,85.32,50.64Z"/><path class="cls-2" d="M112.66,102.35c.12-1.06-1.85-1.34-3.29-2.23-1.14-.69-1.69-2-2.32-2.61a54.62,54.62,0,0,1-1-6.19c-1-7.35-1.77-19.53-8.65-34.23a3.5,3.5,0,0,0-6.34,3,106,106,0,0,1,9,32.34c.68,5,1.06,7.78,2.82,9.49C106.17,105.08,112.45,104.13,112.66,102.35Z"/><path class="cls-5" d="M92.27,50.64c11.78,2.65,15.94,45.61,15.94,45.61a12.31,12.31,0,0,1-8,2.71c-1.42-4.38-1.33-12.15-4.71-23.61C91.61,62,85.93,49.22,92.27,50.64Z"/><path class="cls-6" d="M88.62,49.22c-11.5,0-11.31,44.42-9.56,46.07H99.19C100.83,94.61,100.12,49.22,88.62,49.22Z"/><path class="cls-5" d="M86.6,72.25,95.08,54c5.65,13.74,7.09,50,7.09,50H86.6Z"/><polygon class="cls-5" points="86.6 72.25 96.09 64.8 94.39 62.09 98.63 57.99 95.78 52.66 86.6 72.25"/><path class="cls-5" d="M91.05,72.25,82.57,54c-5.66,13.74-7.1,50-7.1,50H91.05Z"/><polygon class="cls-5" points="91.05 72.25 81.56 64.8 83.26 62.09 79.23 57.8 82.08 52.48 91.05 72.25"/><circle class="cls-7" cx="88.1" cy="85.61" r="1.33"/><circle class="cls-2" cx="88.62" cy="52.07" r="4.09"/><path class="cls-2" d="M113.22,31.92a2.54,2.54,0,0,0-.29,0c0-.44,0-.88,0-1.32C113,17.2,103.1,7.26,89.66,7.26S66.28,17.2,66.28,30.64c0,.46,0,.94,0,1.41a2.48,2.48,0,0,0-.72-.13c-1.56,0-2.82,1.57-2.82,3.51s1.26,3.5,2.82,3.5a2.46,2.46,0,0,0,1.68-.71,19.61,19.61,0,0,0,3.57,7.66c4.41,5.16,10.67,5.74,18.81,5.74,6.75,0,13.56-.72,17.71-4.31a16.19,16.19,0,0,0,4.73-8.67,2.28,2.28,0,0,0,1.12.29c1.57,0,2.84-1.57,2.84-3.5S114.79,31.92,113.22,31.92Z"/><path class="cls-2" d="M87.71,35.77a1.88,1.88,0,1,1-1.33-3.21,1.84,1.84,0,0,1,1.32.54"/><circle class="cls-8" cx="74.77" cy="32.56" r="1.11"/><circle class="cls-8" cx="100.89" cy="32.56" r="1.11"/><path class="cls-9" d="M91.45,42.41a4,4,0,0,1-4.13,3.12A4.32,4.32,0,0,1,83,42.41"/><path class="cls-1" d="M65.12,32.5c-1.78-10,3.68-24.38,21-25.56s28.77,12.75,27.12,25c-5.53-.16-11.66-4.27-11.66-4.27s2.72,2.71,2.54,3.6-11.39-7.87-11.39-7.87.77,4-1.26,4-4.24-6.88-4.24-6.88S84.65,26.26,83,26.26s-1.65-2.74-1.65-2.74-5.44,6.37-6.55,6.37-.82-2.5-.82-2.5a17.49,17.49,0,0,1-4.29,4.12C67.74,32.6,65.77,32,65.12,32.5Z"/><polygon class="cls-10" points="88.8 57.45 85.63 61.33 83.71 59.39 88.8 57.45"/><polygon class="cls-10" points="89.04 57.45 92.21 61.33 94.13 59.39 89.04 57.45"/><path class="cls-10" d="M88.86,57.51l4.76-2.65a.7.7,0,0,1,1,.61v3.87a.76.76,0,0,1-1.12.67Z"/><path class="cls-10" d="M87.75,56.86l-3.54-2a.73.73,0,0,0-1.09.63v3.87A.74.74,0,0,0,84.2,60l3.54-1.9A.73.73,0,0,0,87.75,56.86Z"/><rect class="cls-10" x="87.3" y="55.95" width="2.99" height="2.99" rx="0.59"/><path class="cls-2" d="M10.47,88.84l-.79,8.73a2.91,2.91,0,0,0-2,2.57c-.2,2.07,1.4,3,3.48,3.25s3.83-.46,4-2.53l1.3-10.21Z"/><path class="cls-2" d="M47.38,88.84l.79,8.73a2.91,2.91,0,0,1,2,2.57c.2,2.07-1.4,3-3.48,3.25s-3.83-.46-4-2.53l-1.3-10.21Z"/><path class="cls-5" d="M25.51,50.64C13.73,53.29,9.57,96.25,9.57,96.25a12.31,12.31,0,0,0,8,2.71c1.42-4.38,1.33-12.15,4.71-23.61C26.17,62,31.85,49.22,25.51,50.64Z"/><path class="cls-5" d="M32.46,50.64C44.24,53.29,48.4,96.25,48.4,96.25a12.28,12.28,0,0,1-8,2.71C39,94.58,39.1,86.81,35.72,75.35,31.8,62,26.13,49.22,32.46,50.64Z"/><path class="cls-6" d="M28.82,49.22c-11.51,0-11.31,44.42-9.57,46.07H39.38C41,94.61,40.32,49.22,28.82,49.22Z"/><circle class="cls-2" cx="28.82" cy="52.07" r="4.09"/><path class="cls-11" d="M27.08,55.08h3.53a.68.68,0,0,1,.65.91l-.71,2.06a.69.69,0,0,1-.65.46h-2a.7.7,0,0,1-.64-.42L26.44,56A.69.69,0,0,1,27.08,55.08Z"/><polygon class="cls-11" points="30.39 58.51 27.47 58.51 26.41 69.15 32.12 69.15 30.39 58.51"/><polyline class="cls-5" points="18.37 64.8 18.37 103.99 31.25 103.99 31.25 72.25 20.89 55.08"/><polygon class="cls-5" points="31.25 72.25 21.75 64.8 23.46 62.09 19.43 57.8 22.28 52.48 31.25 72.25"/><polyline class="cls-5" points="39.82 64.8 39.82 103.99 26.94 103.99 26.94 72.25 37.3 55.08"/><polygon class="cls-5" points="26.94 72.25 36.44 64.8 34.73 62.09 38.77 57.8 35.91 52.48 26.94 72.25"/><circle class="cls-7" cx="29.62" cy="85.61" r="1.33"/><path class="cls-2" d="M53.34,31.24c-.1,0-.2,0-.3,0,0-.45,0-.9,0-1.36C53.06,16,42.87,5.71,29,5.71S4.76,16,4.76,29.91c0,.48,0,1,0,1.46a2.36,2.36,0,0,0-.75-.13c-1.61,0-2.91,1.62-2.91,3.62s1.3,3.63,2.91,3.63a2.54,2.54,0,0,0,1.74-.74,20.35,20.35,0,0,0,3.69,7.93c4.57,5.34,11,5.94,19.47,5.94,7,0,14-.74,18.32-4.46a16.65,16.65,0,0,0,4.9-9,2.44,2.44,0,0,0,1.16.3c1.63,0,2.94-1.63,2.94-3.63S55,31.24,53.34,31.24Z"/><path class="cls-2" d="M26.94,35.22a1.95,1.95,0,1,1-1.37-3.33,2,2,0,0,1,1.37.56"/><circle class="cls-8" cx="13.55" cy="31.89" r="1.15"/><circle class="cls-8" cx="40.58" cy="31.89" r="1.15"/><path class="cls-10" d="M21,42.29h12s-.76,5.1-5.83,5.1S21,42.29,21,42.29Z"/><path class="cls-12" d="M3.57,31.84C1.72,21.46,7.38,6.61,25.28,5.39S55.05,18.58,53.34,31.24c-1.1,0-1.33,4.55-2.46,4.55C50,35.79,49,32.57,47,30.54a18.65,18.65,0,0,0-5.77-3.72s2.82,2.8,2.63,3.72S32.12,22.4,32.12,22.4s.8,4.15-1.3,4.15-4.39-7.12-4.39-7.12S23.78,25.38,22,25.38s-1.71-2.84-1.71-2.84-5.63,6.59-6.78,6.59-.84-2.58-.84-2.58a22.88,22.88,0,0,0-3.85,4.26c-1.73,2.62-1,5-2.06,5S4.24,31.34,3.57,31.84Z"/><path class="cls-5" d="M18.37,104v42.29a26.5,26.5,0,0,0,9.35,0c.64-18.16,0-38.63,1.49-38.63S31,146.28,31,146.28H40L39.82,104Z"/><path class="cls-4" d="M27.72,150.36c0,2.87-10.4,2.87-10.4,0a5.2,5.2,0,1,1,10.4,0Z"/><path class="cls-4" d="M30.71,150.36c0,2.87,10.41,2.87,10.41,0a5.21,5.21,0,0,0-10.41,0Z"/><path class="cls-4" d="M27.72,148.66c0,2.87-10.4,2.87-10.4,0a5.2,5.2,0,0,1,10.4,0Z"/><path class="cls-4" d="M30.71,148.66c0,2.87,10.41,2.87,10.41,0a5.21,5.21,0,0,0-10.41,0Z"/></svg>