<svg id="レイヤー_1" data-name="レイヤー 1" xmlns="http://www.w3.org/2000/svg" viewBox="0 0 604.47 211.3"><defs><style>.cls-1{fill:#f1c41e;}.cls-1,.cls-2,.cls-3,.cls-4,.cls-5{stroke:#41210d;stroke-linecap:round;stroke-linejoin:round;}.cls-2{fill:#0863a7;}.cls-3{fill:#f2e634;}.cls-4{fill:#de5511;}.cls-5{fill:#943423;}</style></defs><title>バランス能力例_1</title><polyline class="cls-1" points="461.56 152.68 167.18 152.68 168.71 114.51 463.59 114.51"/><polyline class="cls-1" points="463.56 114.54 472.31 105.86 480.76 134.35 461.56 152.68"/><polygon class="cls-2" points="168.68 114.54 463.56 114.54 472.45 105.86 178 105.86 168.68 114.54"/><line class="cls-1" x1="461.74" y1="149.15" x2="463.35" y2="118.55"/><polygon class="cls-3" points="59.45 170.18 45.23 169.82 110.4 108.5 125.36 108.16 59.45 170.18"/><path class="cls-4" d="M581.36,145.42l-31-3.1a15,15,0,0,0-10.71,3.1l-9.4,7.33a2.68,2.68,0,0,0,1.39,4.78l31,3.1a14.93,14.93,0,0,0,10.71-3.1l9.39-7.33A2.68,2.68,0,0,0,581.36,145.42Z"/><path class="cls-4" d="M572.83,150.64l-13.69-64a2.69,2.69,0,0,0-5.27,0l-13.68,64a2.22,2.22,0,0,0-.18.84c0,3.31,7.38,6,16.5,6s16.5-2.69,16.5-6A2.43,2.43,0,0,0,572.83,150.64Z"/><circle class="cls-5" cx="551.23" cy="144.19" r="2.54"/><circle class="cls-5" cx="552.71" cy="125.69" r="2.54"/><circle class="cls-5" cx="554.18" cy="107.19" r="2.54"/></svg>