<svg id="レイヤー_1" data-name="レイヤー 1" xmlns="http://www.w3.org/2000/svg" xmlns:xlink="http://www.w3.org/1999/xlink" viewBox="0 0 218 218"><defs><style>.cls-1,.cls-18{fill:none;}.cls-2{clip-path:url(#clip-path);}.cls-3{clip-path:url(#clip-path-2);}.cls-4{fill:#9b7656;}.cls-5{clip-path:url(#clip-path-3);}.cls-6{fill:#fff1e1;}.cls-7{fill:#40210d;stroke:#40210d;}.cls-12,.cls-15,.cls-16,.cls-17,.cls-18,.cls-19,.cls-7{stroke-linecap:round;stroke-linejoin:round;stroke-width:2px;}.cls-8{clip-path:url(#clip-path-4);}.cls-12,.cls-9{fill:#42210b;}.cls-10{fill:#015123;}.cls-11{fill:#00a148;}.cls-12,.cls-15,.cls-16,.cls-17,.cls-18,.cls-19{stroke:#42210b;}.cls-13,.cls-16{fill:#f5dcbe;}.cls-14,.cls-15{fill:#fff;}.cls-17{fill:#e60012;}.cls-19{fill:#2c3493;}.cls-20{clip-path:url(#clip-path-5);}</style><clipPath id="clip-path"><rect id="SVGID" class="cls-1" x="484" y="-469" width="200" height="200" rx="10"/></clipPath><clipPath id="clip-path-2"><rect id="SVGID-2" data-name="SVGID" class="cls-1" x="182.24" y="-537" width="568.77" height="326.6"/></clipPath><clipPath id="clip-path-3"><rect id="SVGID-3" data-name="SVGID" class="cls-1" x="9" y="-230" width="200" height="200" rx="10"/></clipPath><clipPath id="clip-path-4"><rect id="SVGID-4" data-name="SVGID" class="cls-1" x="9" y="9" width="200" height="200" rx="10"/></clipPath><clipPath id="clip-path-5"><rect id="SVGID-5" data-name="SVGID" class="cls-1" x="246.02" y="260.04" width="200" height="200" rx="10"/></clipPath></defs><title>2-2-1 はう</title><g class="cls-2"><g class="cls-3"><path class="cls-4" d="M633.61-325l-.5-1.12-1.65.75L439-358.27l-.27-.05-380.4,66-2.12.37L219.54,55.32l.85,1.81L717.12-310.68ZM517-341.61l46.95,8-455,145.94L87.41-233.38,517.05-341.21ZM86-236.4,72.05-266,473.8-349l36.14,6.18Zm484.92-96,55.2,9.44L147-106.72l-36.64-77.92ZM438.75-355l26.18,4.48L70.61-269.1,61-289.46ZM148.37-103.75,631.9-321.94,709-308.74,221.66,52.11Z"/></g></g><g class="cls-5"><ellipse class="cls-6" cx="115.04" cy="-126.98" rx="173.57" ry="160.5"/><path class="cls-7" d="M85.54-13.7a12.44,12.44,0,0,1-15.25,0,45.92,45.92,0,0,1-2.68,8C66-2.46,65.09-.07,67,1.91c5.53,5.92,15.4,5.28,20.9,0A70.35,70.35,0,0,0,87-5.67C86-10,85.54-13.7,85.54-13.7Z"/></g><g class="cls-8"><path class="cls-9" d="M196.21,74.62a13.89,13.89,0,0,1,4,.53l72,23.08c3,1,3.65,2.55,1.42,3.53L85.4,185.28a20.15,20.15,0,0,1-8,1.68,10.41,10.41,0,0,1-6.32-1.68l-62.53-50c-.62-.5-.5-1-.45-1.75l.26-4L192.14,75.15a14.5,14.5,0,0,1,4.07-.53m0-2a16.23,16.23,0,0,0-4.66.62L7.79,127.66a2,2,0,0,0-1.43,1.79l-.26,4v.21a3.36,3.36,0,0,0,1.21,3.23l62.53,50A12.24,12.24,0,0,0,77.4,189a22.19,22.19,0,0,0,8.81-1.85l188.21-83.52c2.37-1,2.54-2.71,2.51-3.38-.07-1.19-.84-2.83-4.13-3.89l-72-23.08a15.82,15.82,0,0,0-4.63-.62Z"/><path class="cls-9" d="M193.38,72.26a13.63,13.63,0,0,1,3.93.51L267.42,95c2.91.92,3.51,2.45,1.31,3.4L83.65,177.92a20.11,20.11,0,0,1-7.78,1.58,10.22,10.22,0,0,1-6.12-1.58L8.94,130.54c-1.73-1.35.45-3.52,4.77-4.82L189.36,72.77a14.53,14.53,0,0,1,4-.51m0-2a16.68,16.68,0,0,0-4.6.59l-175.65,53c-2.29.69-6.2,2.26-6.73,5.08a3.27,3.27,0,0,0,1.31,3.23L68.52,179.5a12.1,12.1,0,0,0,7.35,2,22.2,22.2,0,0,0,8.57-1.74l185.08-79.5c2.39-1,2.57-2.68,2.53-3.34-.05-1.17-.8-2.78-4-3.8L197.92,70.86a15.61,15.61,0,0,0-4.54-.6Z"/><path class="cls-10" d="M200.23,75.15l72,23.08c3,1,3.65,2.55,1.42,3.53L85.4,185.28c-5,2.23-11.53,2.23-14.32,0l-62.53-50c-.62-.5-.5-1-.45-1.75l.26-4L192.14,75.15A15.84,15.84,0,0,1,200.23,75.15Z"/><path class="cls-11" d="M197.31,72.77,267.42,95c2.91.92,3.51,2.45,1.31,3.4L83.65,177.92c-4.9,2.11-11.21,2.11-13.9,0L8.94,130.54c-1.73-1.35.45-3.52,4.77-4.82L189.36,72.77A15.74,15.74,0,0,1,197.31,72.77Z"/></g><circle class="cls-12" cx="70.66" cy="109.01" r="2.37"/><circle class="cls-12" cx="66.26" cy="114.74" r="2.37"/><circle class="cls-12" cx="62.06" cy="120.45" r="2.37"/><polygon class="cls-12" points="59.19 124.94 54.02 127.4 59.6 129.58 59.19 124.94"/><path class="cls-13" d="M139.76,134.38a4.13,4.13,0,0,1-1.09-.14,4.23,4.23,0,0,1-3-5.17l1.34-5A95.48,95.48,0,0,1,112,104.85a4.22,4.22,0,0,1,6.34-5.58h0A88.43,88.43,0,0,0,143.79,118a4.22,4.22,0,0,1,2.28,4.91l-2.23,8.33A4.21,4.21,0,0,1,139.76,134.38Z"/><path class="cls-9" d="M139.76,135.38a5.67,5.67,0,0,1-1.35-.17,5.23,5.23,0,0,1-3.69-6.4l1.13-4.23a96.49,96.49,0,0,1-24.65-19.07,5.22,5.22,0,0,1,7.84-6.9,87.35,87.35,0,0,0,25.18,18.49,5.24,5.24,0,0,1,2.82,6.08l-2.23,8.33A5.23,5.23,0,0,1,139.76,135.38ZM115.12,98.84a3.22,3.22,0,0,0-2.41,5.35,94.34,94.34,0,0,0,24.77,19,1,1,0,0,1,.51,1.14l-1.34,5a3.21,3.21,0,0,0,2.28,3.94,3.26,3.26,0,0,0,3.95-2.28l2.22-8.33a3.21,3.21,0,0,0-1.74-3.75,89,89,0,0,1-25.82-19A3.2,3.2,0,0,0,115.12,98.84Z"/><path class="cls-13" d="M59.4,125.55a16.11,16.11,0,0,1-5.69-1,4.28,4.28,0,0,1-1.77-1.25c-4.44-5.3-5.93-8.31-6.08-8.63a4.22,4.22,0,0,1,7.6-3.67,39,39,0,0,0,4.17,5.92c8.37,1.86,17.08-11.59,19.56-16.66a4.22,4.22,0,0,1,7.59,3.71C84.3,104.9,74,125.55,59.4,125.55Z"/><path class="cls-9" d="M59.4,126.55a17.28,17.28,0,0,1-6-1.11,5.3,5.3,0,0,1-2.19-1.55c-4.52-5.4-6.06-8.5-6.22-8.84a5.24,5.24,0,0,1,2.46-7,5.24,5.24,0,0,1,7,2.43A36.52,36.52,0,0,0,58.18,116c7.13,1.18,15.25-10.33,18.12-16.19a5.14,5.14,0,0,1,3-2.65,5.23,5.23,0,0,1,6.39,7.24C85.24,105.26,74.66,126.55,59.4,126.55Zm-9.74-17a3.27,3.27,0,0,0-1.39.31,3.21,3.21,0,0,0-1.51,4.3c.15.31,1.58,3.21,6,8.42a3.17,3.17,0,0,0,1.34,1,15.28,15.28,0,0,0,5.35,1c14,0,24.06-20.21,24.48-21.07a3.22,3.22,0,0,0-1.48-4.31,3.21,3.21,0,0,0-4.31,1.48c-2.67,5.46-11.6,19.21-20.68,17.2a1,1,0,0,1-.56-.35,40,40,0,0,1-4.28-6.1A3.24,3.24,0,0,0,49.66,109.58Z"/><path class="cls-13" d="M147.5,106.53c-.78-2.28,1.51-11.78,4.86-20.11a4.22,4.22,0,1,0-7.83-3.16c-1.84,4.55-7.59,19.9-4.79,26.6,1.39,3.35,5.22,5.34,9.58,6.53l1.79-8.27A8.21,8.21,0,0,1,147.5,106.53Zm0,.08h0Z"/><path class="cls-9" d="M149.32,117.39l-.26,0c-5.45-1.49-8.9-3.88-10.25-7.11-2.86-6.86,2.4-21.42,4.79-27.36a5.22,5.22,0,1,1,9.69,3.9c-3.32,8.26-5.32,17-4.9,19.21a9.18,9.18,0,0,0,3,1.15,1,1,0,0,1,.72,1.18l-1.79,8.27a1,1,0,0,1-.46.65A1.07,1.07,0,0,1,149.32,117.39Zm-.87-35.77a3.24,3.24,0,0,0-3,2c-3.69,9.19-6.9,20.8-4.79,25.85,1,2.44,3.68,4.34,7.91,5.65l1.37-6.31a8.18,8.18,0,0,1-2.9-1.34,1.05,1.05,0,0,1-.46-.56l0-.07c-1-2.8,1.75-13,4.88-20.81a3.21,3.21,0,0,0-3-4.42Z"/><path class="cls-14" d="M164.17,109.63a56.23,56.23,0,0,1-13.06-1.51l-1.79,8.27a60.45,60.45,0,0,0,14.84,1.69C166.49,118.08,166.5,109.63,164.17,109.63Z"/><path class="cls-9" d="M164.16,119.08a62,62,0,0,1-15.1-1.72,1,1,0,0,1-.71-1.18l1.79-8.27a1,1,0,0,1,.45-.64,1,1,0,0,1,.78-.12,56.06,56.06,0,0,0,12.8,1.48c2,0,2.74,2.82,2.74,5.23S166.19,119.08,164.16,119.08Zm-13.66-3.42a61.59,61.59,0,0,0,13.66,1.42c.21-.11.75-1.19.75-3.23s-.53-3.09-.76-3.22a59.38,59.38,0,0,1-12.28-1.3Zm13.66-5h0Z"/><path class="cls-12" d="M160.64,109.52c2.47,5.22-1.17,8.41-1.17,8.41s-.44,4-5.84,6.29c-2.67,1.15-2.78,5.35,0,6.88s8.45,2.11,10.21.47c6.1-8.75,3.87-22,3.87-22A10.66,10.66,0,0,0,160.64,109.52Z"/><path class="cls-15" d="M124.6,62.74c-13.7,2-28.55,13.58-46,33.61s29.24,7.78,29.24,7.78a68.2,68.2,0,0,0,12.06,11.11c5.63-2.87,8.62-9.6,8.62-9.6L120,97.31a95.46,95.46,0,0,1,28.05-12.43S137.51,62.74,124.6,62.74Z"/><circle class="cls-12" cx="109.31" cy="109.42" r="2.37"/><circle class="cls-12" cx="113.59" cy="115.24" r="2.37"/><circle class="cls-12" cx="117.67" cy="121.04" r="2.37"/><polygon class="cls-12" points="120.45 125.58 125.57 128.16 119.94 130.22 120.45 125.58"/><path class="cls-16" d="M111.83,90c-.07,6.31-1.83,12.48-5.63,16-4.78,4.46-12.44,5.5-20.35,5.41s-15.7-1.77-20.37-6.39c-3.67-3.63-4.17-9-4.1-15.29.15-14.22,10.75-25.94,25-25.79A25.75,25.75,0,0,1,111.83,90Z"/><path class="cls-12" d="M102.72,91.48A3.56,3.56,0,0,1,105,91c2.23.35,3.7,2.87,3.28,5.64s-2.59,4.73-4.83,4.39a10.72,10.72,0,0,1-1,7.53,29.34,29.34,0,0,0,3.7-2.55c3.8-3.55,5.56-9.72,5.63-16A25.75,25.75,0,0,0,86.36,64c-11.69-.12-23.26,7.92-24.92,19.6a12,12,0,0,0,0,4.29c3.36.2,13.57-.69,23.08-3.71-1.72,1.16-3.12,2.55-4.1,3.13a29.07,29.07,0,0,0,13.21-6.76C97.4,90.1,102.72,91.48,102.72,91.48Z"/><path class="cls-16" d="M73.78,90.59a11.84,11.84,0,0,0-.55,5.81c-1.4-1.35-5.59,0-4.38,3.43,1.46,4.12,5.84,1.42,5.84,1.42"/><ellipse class="cls-9" cx="66.26" cy="93.31" rx="2.2" ry="1.28" transform="translate(-24.3 23.34) rotate(-16.93)"/><ellipse class="cls-9" cx="92.84" cy="94.17" rx="1.28" ry="2.2" transform="translate(-25.57 153.07) rotate(-71.86)"/><polygon class="cls-17" points="76.03 104.2 75.59 107.72 80.5 108.16 76.03 104.2"/><path class="cls-17" d="M102.86,92.35a3.61,3.61,0,0,1,2.28-.43c2.24.34,3.72,2.84,3.29,5.57l2.24,2.08c1.91-.72,4.24-6.64,4.27-10,.15-14.06-13.68-27.42-28-27.57-11.73-.13-22.77,8.74-24.61,17.48Z"/><path class="cls-18" d="M62.37,79.46s-11.7-4.89-16.28-15.84"/><path class="cls-19" d="M124.6,62.74A26.44,26.44,0,0,1,137,62c11.08,2,14.6,7.87,16.89,16.09s-2.32,23.05-2.32,23.05A30.07,30.07,0,0,1,139,98.5c0-9.17,3.83-14.62,3.83-14.62S142.72,71,124.6,62.74Z"/><path class="cls-18" d="M168.08,64s19.4,6.52,16.07,30.77"/><path class="cls-18" d="M175.72,59.8s19.4,6.52,16.07,30.76"/><g class="cls-20"><ellipse class="cls-6" cx="343.03" cy="359.49" rx="173.57" ry="160.5"/></g></svg>