<svg id="レイヤー_1" data-name="レイヤー 1" xmlns="http://www.w3.org/2000/svg" xmlns:xlink="http://www.w3.org/1999/xlink" viewBox="0 0 727 605.83"><defs><style>.cls-1{fill:#fffbc4;}.cls-2,.cls-60{fill:#094;}.cls-3{fill:url(#名称未設定グラデーション_14);}.cls-4{fill:#2ea7e0;}.cls-17,.cls-5{fill:#f5dcbe;}.cls-10,.cls-11,.cls-24,.cls-49,.cls-5,.cls-50,.cls-51,.cls-52,.cls-53,.cls-55,.cls-56,.cls-57,.cls-58,.cls-59,.cls-6,.cls-60,.cls-7,.cls-8,.cls-9{stroke:#231815;}.cls-10,.cls-11,.cls-24,.cls-49,.cls-5,.cls-50,.cls-51,.cls-52,.cls-53,.cls-54,.cls-55,.cls-56,.cls-57,.cls-58,.cls-59,.cls-6,.cls-60,.cls-7,.cls-8,.cls-9{stroke-linecap:round;stroke-linejoin:round;}.cls-19,.cls-6{fill:#fafcfc;}.cls-7{fill:#956134;}.cls-8{fill:#fce9f2;}.cls-22,.cls-9{fill:#3e3a39;}.cls-10,.cls-20{fill:#0068b2;}.cls-11,.cls-54{fill:none;}.cls-12,.cls-52{fill:#231815;}.cls-13{fill:#b8d200;}.cls-14,.cls-24{fill:#fff;}.cls-15{fill:#00984b;}.cls-16{fill:#9fa0a0;}.cls-18{fill:#00a0df;}.cls-21{fill:#c9caca;}.cls-23,.cls-51{fill:#e60012;}.cls-25{fill:url(#名称未設定グラデーション_17);}.cls-26{fill:url(#名称未設定グラデーション_17-2);}.cls-27{fill:url(#名称未設定グラデーション_17-3);}.cls-28{fill:url(#名称未設定グラデーション_17-4);}.cls-29{fill:url(#名称未設定グラデーション_17-5);}.cls-30{fill:url(#名称未設定グラデーション_17-6);}.cls-31{fill:url(#名称未設定グラデーション_17-7);}.cls-32{fill:url(#名称未設定グラデーション_17-8);}.cls-33{fill:url(#名称未設定グラデーション_17-9);}.cls-34{fill:url(#名称未設定グラデーション_17-10);}.cls-35{fill:url(#名称未設定グラデーション_17-11);}.cls-36{fill:url(#名称未設定グラデーション_17-12);}.cls-37{fill:url(#名称未設定グラデーション_5);}.cls-38{fill:url(#名称未設定グラデーション_5-2);}.cls-39{fill:url(#名称未設定グラデーション_5-3);}.cls-40{fill:url(#名称未設定グラデーション_5-4);}.cls-41{fill:url(#名称未設定グラデーション_5-5);}.cls-42{fill:url(#名称未設定グラデーション_5-6);}.cls-43{fill:url(#名称未設定グラデーション_5-7);}.cls-44{fill:url(#名称未設定グラデーション_5-8);}.cls-45{fill:url(#名称未設定グラデーション_5-9);}.cls-46{fill:url(#名称未設定グラデーション_5-10);}.cls-47{fill:url(#名称未設定グラデーション_5-11);}.cls-48{fill:url(#名称未設定グラデーション_5-12);}.cls-49{fill:#595757;}.cls-50{fill:#b062a3;}.cls-53{fill:#c60022;}.cls-54{stroke:#fff;stroke-width:2px;}.cls-55{fill:#40220f;}.cls-56{fill:#f8cbd9;}.cls-57{fill:#007bc7;}.cls-58{fill:#1d2088;}.cls-59{fill:#c9a063;}</style><linearGradient id="名称未設定グラデーション_14" x1="371.87" y1="214.44" x2="425.88" y2="214.44" gradientUnits="userSpaceOnUse"><stop offset="0" stop-color="#fff" stop-opacity="0"/><stop offset="0.02" stop-color="#e7f6fd" stop-opacity="0.1"/><stop offset="0.09" stop-color="#aadff8" stop-opacity="0.33"/><stop offset="0.16" stop-color="#76ccf3" stop-opacity="0.54"/><stop offset="0.23" stop-color="#4cbcf0" stop-opacity="0.7"/><stop offset="0.29" stop-color="#2bb0ed" stop-opacity="0.83"/><stop offset="0.35" stop-color="#13a7eb" stop-opacity="0.93"/><stop offset="0.42" stop-color="#05a2e9" stop-opacity="0.98"/><stop offset="0.47" stop-color="#00a0e9"/><stop offset="0.54" stop-color="#05a2e9" stop-opacity="0.98"/><stop offset="0.6" stop-color="#13a7eb" stop-opacity="0.93"/><stop offset="0.67" stop-color="#2ab0ed" stop-opacity="0.83"/><stop offset="0.75" stop-color="#4bbcef" stop-opacity="0.71"/><stop offset="0.82" stop-color="#75ccf3" stop-opacity="0.54"/><stop offset="0.89" stop-color="#a9dff8" stop-opacity="0.34"/><stop offset="0.96" stop-color="#e5f5fd" stop-opacity="0.1"/><stop offset="0.99" stop-color="#fff" stop-opacity="0"/></linearGradient><linearGradient id="名称未設定グラデーション_17" x1="-406.78" y1="-4215.07" x2="-398.19" y2="-4215.07" gradientTransform="matrix(-0.62, -0.78, 0.78, -0.62, 3214.01, -2724.17)" gradientUnits="userSpaceOnUse"><stop offset="0" stop-color="#e84422"/><stop offset="1" stop-color="#e95513"/></linearGradient><linearGradient id="名称未設定グラデーション_17-2" x1="-398.26" y1="-4215.58" x2="-389.62" y2="-4215.58" xlink:href="#名称未設定グラデーション_17"/><linearGradient id="名称未設定グラデーション_17-3" x1="-397.72" y1="-4208.05" x2="-389.08" y2="-4208.05" xlink:href="#名称未設定グラデーション_17"/><linearGradient id="名称未設定グラデーション_17-4" x1="-338.92" y1="321.71" x2="-325.78" y2="321.71" gradientTransform="matrix(0.78, -0.62, 0.62, 0.78, 232.15, -241.12)" xlink:href="#名称未設定グラデーション_17"/><linearGradient id="名称未設定グラデーション_17-5" x1="-405.96" y1="-4201.38" x2="-397.38" y2="-4201.38" xlink:href="#名称未設定グラデーション_17"/><linearGradient id="名称未設定グラデーション_17-6" x1="-396.99" y1="-4194.49" x2="-388.36" y2="-4194.49" xlink:href="#名称未設定グラデーション_17"/><linearGradient id="名称未設定グラデーション_17-7" x1="-324.97" y1="303.49" x2="-311.82" y2="303.49" gradientTransform="matrix(0.78, -0.62, 0.62, 0.78, 232.15, -241.12)" xlink:href="#名称未設定グラデーション_17"/><linearGradient id="名称未設定グラデーション_17-8" x1="-408.16" y1="-4236.11" x2="-399.55" y2="-4236.11" xlink:href="#名称未設定グラデーション_17"/><linearGradient id="名称未設定グラデーション_17-9" x1="-399.07" y1="-4229.1" x2="-390.42" y2="-4229.1" xlink:href="#名称未設定グラデーション_17"/><linearGradient id="名称未設定グラデーション_17-10" x1="-359.95" y1="323.05" x2="-346.86" y2="323.05" gradientTransform="matrix(0.78, -0.62, 0.62, 0.78, 232.15, -241.12)" xlink:href="#名称未設定グラデーション_17"/><linearGradient id="名称未設定グラデーション_17-11" x1="-407.25" y1="-4222.47" x2="-398.66" y2="-4222.47" xlink:href="#名称未設定グラデーション_17"/><linearGradient id="名称未設定グラデーション_17-12" x1="-346.02" y1="304.78" x2="-332.92" y2="304.78" gradientTransform="matrix(0.78, -0.62, 0.62, 0.78, 232.15, -241.12)" xlink:href="#名称未設定グラデーション_17"/><linearGradient id="名称未設定グラデーション_5" x1="-404.6" y1="-4176.62" x2="-396.04" y2="-4176.62" gradientTransform="matrix(-0.62, -0.78, 0.78, -0.62, 3214.01, -2724.17)" gradientUnits="userSpaceOnUse"><stop offset="0" stop-color="#dadf00"/><stop offset="1" stop-color="#fff000"/></linearGradient><linearGradient id="名称未設定グラデーション_5-2" x1="-404.22" y1="-4169.21" x2="-395.67" y2="-4169.21" xlink:href="#名称未設定グラデーション_5"/><linearGradient id="名称未設定グラデーション_5-3" x1="-395.2" y1="-4162.23" x2="-386.6" y2="-4162.23" xlink:href="#名称未設定グラデーション_5"/><linearGradient id="名称未設定グラデーション_5-4" x1="-395.53" y1="-4169.62" x2="-386.93" y2="-4169.62" xlink:href="#名称未設定グラデーション_5"/><linearGradient id="名称未設定グラデーション_5-5" x1="4131.48" y1="-4162.93" x2="4144.72" y2="-4162.93" gradientTransform="matrix(-0.78, 0.62, -0.62, -0.78, 850.82, -5647.29)" xlink:href="#名称未設定グラデーション_5"/><linearGradient id="名称未設定グラデーション_5-6" x1="4117.55" y1="-4144.9" x2="4130.8" y2="-4144.9" gradientTransform="matrix(-0.78, 0.62, -0.62, -0.78, 850.82, -5647.29)" xlink:href="#名称未設定グラデーション_5"/><linearGradient id="名称未設定グラデーション_5-7" x1="-403.57" y1="-4155.36" x2="-395.02" y2="-4155.36" xlink:href="#名称未設定グラデーション_5"/><linearGradient id="名称未設定グラデーション_5-8" x1="2827.08" y1="-128.88" x2="2835.67" y2="-128.88" gradientTransform="matrix(0.62, 0.78, -0.78, 0.62, -1652.69, -1969.25)" xlink:href="#名称未設定グラデーション_5"/><linearGradient id="名称未設定グラデーション_5-9" x1="-405.33" y1="-4190.41" x2="-396.76" y2="-4190.41" xlink:href="#名称未設定グラデーション_5"/><linearGradient id="名称未設定グラデーション_5-10" x1="-396.29" y1="-4183.45" x2="-387.68" y2="-4183.45" xlink:href="#名称未設定グラデーション_5"/><linearGradient id="名称未設定グラデーション_5-11" x1="4152.73" y1="-4164.01" x2="4165.92" y2="-4164.01" gradientTransform="matrix(-0.78, 0.62, -0.62, -0.78, 850.82, -5647.29)" xlink:href="#名称未設定グラデーション_5"/><linearGradient id="名称未設定グラデーション_5-12" x1="4138.82" y1="-4145.93" x2="4152.02" y2="-4145.93" gradientTransform="matrix(-0.78, 0.62, -0.62, -0.78, 850.82, -5647.29)" xlink:href="#名称未設定グラデーション_5"/></defs><title>ボッチャ説明イラスト02</title><polygon class="cls-1" points="426.46 67.82 675.93 215.12 317.38 578.7 43.62 389.73 426.46 67.82"/><path class="cls-2" d="M317.63,581.3l-1.38-.95L40.32,389.88,426.25,65.38,679.16,214.7ZM46.91,389.57,317.14,576.1,672.71,215.54l-246-145.28Z"/><polyline class="cls-1" points="244.35 220.86 447.51 238.12 509.53 383.86"/><polygon class="cls-2" points="508.15 384.44 446.48 239.53 244.23 222.35 244.48 219.36 448.54 236.7 510.91 383.27 508.15 384.44"/><line class="cls-1" x1="353.35" y1="129.29" x2="606.04" y2="285.99"/><rect class="cls-2" x="478.2" y="58.97" width="3" height="297.34" transform="translate(50.42 505.88) rotate(-58.2)"/><line class="cls-1" x1="477.39" y1="206.63" x2="545.51" y2="140.12"/><rect class="cls-2" x="463.85" y="171.87" width="95.21" height="3" transform="translate(24.38 406.61) rotate(-44.31)"/><line class="cls-1" x1="332.9" y1="330.99" x2="348.71" y2="340.69"/><rect class="cls-2" x="339.31" y="326.56" width="3" height="18.55" transform="translate(-123.68 450.66) rotate(-58.47)"/><line class="cls-1" x1="347.81" y1="328.47" x2="333.98" y2="343.02"/><rect class="cls-2" x="330.86" y="334.25" width="20.08" height="3" transform="translate(-137.32 351.39) rotate(-46.44)"/><path class="cls-3" d="M374.05,259l-2.18-2.07L398,229.52c-5.91-43.68,26.31-59.43,26.63-59.59l1.29,2.72c-1.27.6-30.9,15.19-24.85,57.17l.1.72Z"/><path class="cls-4" d="M393.08,215.1h0a.5.5,0,0,1-.49-.51,63.47,63.47,0,0,1,4.54-23.4.49.49,0,1,1,.9.41,62.78,62.78,0,0,0-4.44,23A.5.5,0,0,1,393.08,215.1Z"/><path class="cls-4" d="M376.94,245.26a.5.5,0,0,1-.34-.86l7.15-6.83a.5.5,0,1,1,.69.73l-7.15,6.82A.47.47,0,0,1,376.94,245.26Z"/><path class="cls-5" d="M446.91,137.92a3.5,3.5,0,0,1-3.28-2.26,58.79,58.79,0,0,1-3.44-18.48c0-10,13.32-22.74,14.84-24.17a3.51,3.51,0,0,1,4.79,5.12c-4.88,4.58-12.62,13.79-12.62,19.05a52,52,0,0,0,3,16,3.5,3.5,0,0,1-2,4.52A3.62,3.62,0,0,1,446.91,137.92Z"/><path class="cls-5" d="M462.39,143.47a3.52,3.52,0,0,1-3.32-2.36c-.21-.62-5.21-15.5-.13-42.11a3.51,3.51,0,0,1,6.89,1.32c-4.74,24.78-.18,38.36-.13,38.49a3.53,3.53,0,0,1-3.31,4.66Z"/><ellipse class="cls-6" cx="462.37" cy="144.23" rx="7.3" ry="3.19" transform="translate(106.28 472.54) rotate(-60)"/><ellipse class="cls-6" cx="446.11" cy="137.92" rx="7.3" ry="3.19" transform="translate(53.63 390.9) rotate(-49.98)"/><path class="cls-7" d="M471.91,98.86c.21,7.55-3.94,10.4-5.8,15.44-2.33,6.28,1.53,27.49,1.53,27.49-3.11,3-7.88,3.5-9.31-.33-3.83-13.91-3.83-23.77-1.75-38.22-4.05,6.46-6.24,8.1-7.23,12.92s2.19,14.68,2.3,20.7c-3.8,3.1-8.89,2-9.63-3.29s-4.13-12.15-2.74-19.38S445,99.52,450.21,91.41Z"/><path class="cls-8" d="M448.28,71.51c1.74-1.31,3.52-2.83,5.19-4.36a138.16,138.16,0,0,0-3.26,24.26c0,5,16.1,12,21.7,7.45,1.86-9.2,1.32-48-8.65-48a4.7,4.7,0,0,0-3,1.17,9.66,9.66,0,0,0-1.38-1.17l-14.34,13.8"/><path class="cls-9" d="M447.86,31.36c-1.06-1.68-5.46-1.18-7,1s-.18,5.87,1,6.53c-1.07.13-3.71,2.91-3.13,4.79s4.38,2.84,5.76,2.61c-.66,1-.07,4.25,1.73,4.93s5.15-1.12,5.15-1.12l-2.15-8.89Z"/><circle class="cls-10" cx="460.86" cy="78.77" r="5.57"/><path class="cls-5" d="M466.26,83.52a40.2,40.2,0,0,1-4.27-.23,3.51,3.51,0,1,1,.79-7c5.38.6,10.77-.38,11.23-1.58.84-2.15-1.77-6.33-3.8-8.49a3.51,3.51,0,0,1,5.09-4.82c.82.87,8,8.72,5.25,15.85C478.49,82.57,471.19,83.52,466.26,83.52Z"/><path class="cls-8" d="M465.23,51.45a17,17,0,0,1,6.14,3.82c5.41,5.3,11.95,14.89,10.3,21.47-2,7.92-16,7-16,7a13.31,13.31,0,0,1-.73-7.67s8.85.37,8.39-1.53c-2-8.34-7-11.37-7-11.37"/><path class="cls-5" d="M486.39,37.22A18.85,18.85,0,0,1,467.33,56.3c-7.87,0-15.34-4-18.69-10-1.41-2.52-1.57-5.48-1.57-8.51,0-7.87,3.6-16.11,11.18-19.39,2.27-1,6.51-1.33,9.08-1.33,7.25,0,14.08,3.81,17.31,9.52C486.39,29.7,486.39,33.62,486.39,37.22Z"/><path class="cls-9" d="M490.22,48.6c.16-2.71-3-5.83-4.84-5.17h0a19.27,19.27,0,0,0,1-6.22c0-3.6,0-7.52-1.75-10.63-3.23-5.71-10.06-9.52-17.31-9.52-2.57,0-6.81.35-9.08,1.33-5.14,2.22-8.44,6.73-10,11.85.1-.06,8.75-5.41,14.16-4.86,0,4.38,8.69,14,14.5,16.1,1.39-1.65,4.59.54,4.15,3.39s-2,4.16-3.32,4.16-1.5-1-1.5-1-1.86,5-5.25,7.91c0,0,1.36,3.44,3.35,4.08,1.83.58,4.3-1.59,4.42-2.79.93,1,4.51,2.64,6.13,1.53s1.28-4.93.53-5.7C486.71,53.31,490.07,51.16,490.22,48.6Z"/><path class="cls-11" d="M456.82,45.26a2.46,2.46,0,1,1,1.56-4.37"/><path class="cls-11" d="M454.1,48.28s1.85,4.7,6.28,2.51"/><path class="cls-11" d="M462.37,47.62a6.61,6.61,0,0,1,1.68,6.79"/><circle class="cls-12" cx="450.8" cy="35.57" r="1.37"/><circle class="cls-12" cx="470.59" cy="42.8" r="1.37"/><path class="cls-8" d="M453.47,67.15a32.65,32.65,0,0,1,2-6.81"/><circle class="cls-10" cx="443.26" cy="59.24" r="5.57"/><line class="cls-5" x1="440.53" y1="70.05" x2="443.73" y2="62.75"/><path class="cls-5" d="M440.52,73.55a3.33,3.33,0,0,1-1.4-.3,3.49,3.49,0,0,1-1.8-4.61l3.2-7.3a3.51,3.51,0,1,1,6.42,2.82l-3.21,7.29A3.49,3.49,0,0,1,440.52,73.55Z"/><path class="cls-8" d="M448.28,71.51a32.15,32.15,0,0,1-3.64,2.38c-2.81,1.53-5.62,1.45-6.78.55-3.4-2.63-1.38-7.78.54-10.3,3.4,2.52,8.51,2.26,8.51,2.26"/><line class="cls-8" x1="446.98" y1="66.4" x2="445.23" y2="70.53"/><path class="cls-4" d="M359,274.54a.5.5,0,0,1-.5-.48c-.16-3.9-4.16-5.24-4.33-5.29a.5.5,0,0,1,.31-.95c.05,0,4.83,1.59,5,6.2a.5.5,0,0,1-.48.52Z"/><path class="cls-4" d="M362.72,269.69a.5.5,0,0,1-.49-.39,4,4,0,0,0-2.6-2.86.51.51,0,0,1-.33-.63.5.5,0,0,1,.62-.33,5,5,0,0,1,3.29,3.61.49.49,0,0,1-.38.59Z"/><path class="cls-4" d="M365.41,265.56a.5.5,0,0,1-.49-.43,2,2,0,0,0-1-1.42.51.51,0,0,1-.22-.67.49.49,0,0,1,.67-.22,3,3,0,0,1,1.53,2.17.51.51,0,0,1-.42.57Z"/><polygon class="cls-13" points="452.62 134.88 452.62 163.48 472.23 148.12 472.23 122.8 452.62 134.88"/><path class="cls-12" d="M452.62,164.05a.57.57,0,0,1-.25-.06.55.55,0,0,1-.32-.51v-28.6a.58.58,0,0,1,.27-.5l19.61-12.07a.59.59,0,0,1,.59,0,.57.57,0,0,1,.29.5v25.32a.58.58,0,0,1-.22.45L453,163.93A.6.6,0,0,1,452.62,164.05Zm.58-28.85v27.09l18.46-14.46v-24Z"/><ellipse class="cls-12" cx="452.62" cy="168.65" rx="3.84" ry="5.34"/><path class="cls-12" d="M452.62,174.57c-2.43,0-4.41-2.66-4.41-5.92s2-5.92,4.41-5.92,4.41,2.66,4.41,5.92S455.06,174.57,452.62,174.57Zm0-10.69c-1.8,0-3.26,2.14-3.26,4.77s1.46,4.77,3.26,4.77,3.26-2.14,3.26-4.77S454.42,163.88,452.62,163.88Z"/><ellipse class="cls-14" cx="452.62" cy="168.65" rx="1.63" ry="2.1"/><path class="cls-12" d="M452.62,171.33a2.72,2.72,0,1,1,2.21-2.68A2.48,2.48,0,0,1,452.62,171.33Zm0-4.2c-.57,0-1.05.69-1.05,1.52s.48,1.52,1.05,1.52,1.06-.69,1.06-1.52S453.19,167.13,452.62,167.13Z"/><polygon class="cls-15" points="452.62 163.48 480.78 175.87 501.23 157.56 475.08 146.65 452.62 163.48"/><path class="cls-12" d="M480.78,176.44a.59.59,0,0,1-.23,0L452.39,164a.55.55,0,0,1-.34-.46.56.56,0,0,1,.23-.52l22.46-16.83a.58.58,0,0,1,.57-.07L501.45,157a.57.57,0,0,1,.34.44.54.54,0,0,1-.18.52L481.16,176.3A.57.57,0,0,1,480.78,176.44Zm-27-13.09,26.91,11.84,19.49-17.45-25-10.43Z"/><polygon class="cls-16" points="453.56 162.52 446.83 168.04 474.41 181.5 480.78 175.87 453.56 162.52"/><path class="cls-12" d="M474.41,182.07a.54.54,0,0,1-.25-.06l-27.58-13.46a.55.55,0,0,1-.32-.45.6.6,0,0,1,.21-.51l6.72-5.51a.57.57,0,0,1,.62-.08L481,175.35a.58.58,0,0,1,.13,1l-6.37,5.63A.59.59,0,0,1,474.41,182.07Zm-26.52-14.16,26.43,12.9,5.43-4.8L453.64,163.2Z"/><path class="cls-16" d="M452.62,163.86a1.56,1.56,0,0,1-1.65-1.4l-.64-24.63a7.18,7.18,0,0,1,3.65-6.26l11.34-6.95a1.83,1.83,0,0,1,2.31.34,1.31,1.31,0,0,1-.4,2l-11.34,6.94a4.43,4.43,0,0,0-2.25,3.86l.64,24.63a1.56,1.56,0,0,1-1.62,1.47Z"/><path class="cls-12" d="M452.62,164.43a2.12,2.12,0,0,1-2.23-2l-.63-24.63a7.74,7.74,0,0,1,3.91-6.76l11.35-7a2.38,2.38,0,0,1,3.05.47,1.82,1.82,0,0,1,.41,1.49,2,2,0,0,1-1,1.36l-11.34,6.94a3.85,3.85,0,0,0-2,3.36l.63,24.63a1.87,1.87,0,0,1-.54,1.35,2.29,2.29,0,0,1-1.64.7Zm13.66-39.5a1.28,1.28,0,0,0-.66.18l-11.35,7a6.63,6.63,0,0,0-3.36,5.75l.63,24.63a1,1,0,0,0,1.08.84v.58l0-.58a1.19,1.19,0,0,0,.84-.34.75.75,0,0,0,.22-.53l-.63-24.63a5,5,0,0,1,2.52-4.37l11.34-7a.85.85,0,0,0,.42-.56.72.72,0,0,0-.17-.57A1.15,1.15,0,0,0,466.28,124.93Z"/><polygon class="cls-13" points="500.44 111.78 501 150.17 472.23 145.47 472.23 112.33 500.44 111.78"/><path class="cls-12" d="M501,150.74h-.1L472.14,146a.56.56,0,0,1-.48-.56V112.33a.58.58,0,0,1,.56-.58l28.21-.55a.63.63,0,0,1,.42.16.58.58,0,0,1,.17.41l.55,38.39a.58.58,0,0,1-.57.58ZM472.81,145l27.6,4.51-.53-37.13-27.07.53Z"/><path class="cls-17" d="M445.91,142.31a3,3,0,0,1-1.56-5.72c14.56-5.61,18.19-16.37,18.34-16.83a3,3,0,0,1,5.68,1.79c-.17.56-4.51,13.91-21.89,20.6A4,4,0,0,1,445.91,142.31Z"/><path class="cls-12" d="M445.42,142.92a3.55,3.55,0,0,1-1.28-6.87c14.32-5.51,17.86-16,18-16.47a3.55,3.55,0,0,1,6.78,2.14c-.18.57-4.58,14.18-22.23,21a4.43,4.43,0,0,1-.69.19h0A3.77,3.77,0,0,1,445.42,142.92Zm20.11-24.65a2.42,2.42,0,0,0-2.29,1.67c-.15.46-3.86,11.48-18.69,17.19a2.4,2.4,0,0,0,1.26,4.61h0a2.75,2.75,0,0,0,.47-.13c17.13-6.59,21.37-19.68,21.54-20.23a2.4,2.4,0,0,0-1.57-3A2.25,2.25,0,0,0,465.53,118.27Z"/><path class="cls-18" d="M463.67,116.23s-4.09,8.82-7.41,11.52c0,0,2.8,2.54,6.05,5.65a27.88,27.88,0,0,0,6.91-8.08l1.26-8.5Z"/><path class="cls-12" d="M462.31,134a.55.55,0,0,1-.4-.16c-3.2-3.06-6-5.61-6-5.63a.56.56,0,0,1-.19-.45.58.58,0,0,1,.21-.43c3.18-2.58,7.21-11.22,7.25-11.31a.56.56,0,0,1,.57-.33l6.81.58a.64.64,0,0,1,.41.22.58.58,0,0,1,.11.44l-1.26,8.5a.48.48,0,0,1-.06.18,28.1,28.1,0,0,1-7.07,8.27A.57.57,0,0,1,462.31,134Zm-5.19-6.22c.89.82,2.93,2.69,5.22,4.88a27.49,27.49,0,0,0,6.32-7.5l1.16-7.79-5.8-.5C463.24,118.47,460,125,457.12,127.75Z"/><path class="cls-19" d="M466.65,166.86c.52,1.66-1.78,3.86-5.14,4.92s-7.46.23-8-1.43a3.31,3.31,0,0,1,.82-3.31c1.07-.95,3.18-1.35,4.86-1.88C462.57,164.11,466.13,165.21,466.65,166.86Z"/><path class="cls-12" d="M458.31,172.83c-2.59,0-4.88-.87-5.33-2.3a3.84,3.84,0,0,1,1-3.91,10,10,0,0,1,3.88-1.66l1.19-.35c3.44-1.08,7.48-.05,8.16,2.08.32,1-.13,2.18-1.27,3.27a11,11,0,0,1-4.24,2.37A11.58,11.58,0,0,1,458.31,172.83Zm3.62-7.51a8.64,8.64,0,0,0-2.55.39c-.39.13-.8.24-1.22.36a9.3,9.3,0,0,0-3.42,1.4,2.71,2.71,0,0,0-.66,2.71c.36,1.14,3.9,2.11,7.26,1a9.94,9.94,0,0,0,3.8-2.1c.79-.76,1.14-1.52,1-2.09C465.81,166.14,464.07,165.32,461.93,165.32Z"/><path class="cls-20" d="M469,169a13.28,13.28,0,0,1-11.33-4.82c.09-4.47-.4-11.43,1.87-15.13,1.85-3,7-6.26,15.4-9.67l7.57,9.25-3.07,1.78a53.57,53.57,0,0,0-9.77,5C469.18,157.09,469,169,469,169Z"/><path class="cls-12" d="M468.17,169.61a13.62,13.62,0,0,1-11-5.08.6.6,0,0,1-.11-.34c0-.78,0-1.63,0-2.53,0-4.32,0-9.7,1.95-12.89s7.19-6.44,15.67-9.9a.59.59,0,0,1,.67.16l7.56,9.26a.55.55,0,0,1,.12.46.58.58,0,0,1-.28.4l-3.06,1.78a55.93,55.93,0,0,0-9.55,4.87c-.33,1.56-.54,8.65-.6,13.23a.58.58,0,0,1-.55.56C468.74,169.61,468.45,169.61,468.17,169.61ZM469,169h0Zm-10.75-5a12.67,12.67,0,0,0,10.18,4.45c.05-2.55.23-11.66.69-13.16a.54.54,0,0,1,.19-.28,52.68,52.68,0,0,1,9.92-5.12l2.4-1.41-6.87-8.4c-8,3.31-13,6.43-14.73,9.28s-1.78,8.11-1.77,12.29C458.27,162.49,458.27,163.28,458.26,164Z"/><path class="cls-19" d="M477,171.28c.52,1.65-1.78,3.85-5.13,4.91s-7.47.23-8-1.42a3.31,3.31,0,0,1,.82-3.31c1.07-1,3.18-1.36,4.86-1.88C472.92,168.52,476.48,169.62,477,171.28Z"/><path class="cls-12" d="M468.68,177.24a10.8,10.8,0,0,1-2-.18c-1.82-.34-3.05-1.11-3.37-2.12a3.85,3.85,0,0,1,1-3.91,10,10,0,0,1,3.88-1.66c.4-.11.81-.22,1.19-.34,3.44-1.09,7.48-.06,8.16,2.07.32,1-.13,2.19-1.27,3.27a11,11,0,0,1-4.24,2.37A11.34,11.34,0,0,1,468.68,177.24Zm3.6-7.5a8.33,8.33,0,0,0-2.55.39c-.39.12-.8.24-1.22.35a9.3,9.3,0,0,0-3.42,1.41,2.69,2.69,0,0,0-.66,2.7c.17.57,1.15,1.09,2.48,1.34a10.3,10.3,0,0,0,4.78-.29,9.81,9.81,0,0,0,3.8-2.1c.79-.76,1.14-1.52,1-2.09C476.16,170.55,474.42,169.74,472.28,169.74Z"/><path class="cls-20" d="M478.35,173.35A13.31,13.31,0,0,1,467,168.53c.1-4.47-.39-11.43,1.88-15.13,1.85-3,7-6.26,15.4-9.67l4.5,11-2.25-5.52,2.25,5.52a53.23,53.23,0,0,0-9.77,5C478.52,161.42,478.35,173.35,478.35,173.35Z"/><path class="cls-12" d="M477.51,173.94a13.62,13.62,0,0,1-11-5.08.52.52,0,0,1-.1-.34c0-.78,0-1.63,0-2.53,0-4.32,0-9.7,1.95-12.89s7.18-6.44,15.67-9.9a.58.58,0,0,1,.75.31l4.5,11a.58.58,0,0,1-.31.75,55.55,55.55,0,0,0-9.48,4.84c-.33,1.56-.54,8.65-.61,13.23a.56.56,0,0,1-.54.56C478.08,173.94,477.79,173.94,477.51,173.94Zm.84-.59h0Zm-10.76-5a12.84,12.84,0,0,0,10.19,4.45c0-2.55.22-11.66.69-13.17a.56.56,0,0,1,.19-.27,50.66,50.66,0,0,1,9.38-4.9l-2-5v0l-2-5c-7.94,3.29-12.85,6.39-14.59,9.22s-1.78,8.11-1.78,12.29C467.6,166.82,467.6,167.61,467.59,168.34Z"/><path class="cls-19" d="M466.14,117.73c-.6,2.85-1.86,7.66-.39,12.36a30.44,30.44,0,0,0,6.4,10.59,28.24,28.24,0,0,0,12.24,7.11l10.18-6.28c-.9-6.52-7.1-12.29-11.14-17.15C475.57,114.9,467.75,110,466.14,117.73Z"/><path class="cls-12" d="M484.39,148.37a.57.57,0,0,1-.18,0l-.5-.16a28.26,28.26,0,0,1-12-7.09,30.83,30.83,0,0,1-6.55-10.83c-1.39-4.44-.43-8.92.21-11.89l.16-.75h0c.5-2.36,1.57-3.76,3.19-4.16,4.75-1.19,12.15,7,15.11,10.53.75.89,1.57,1.82,2.41,2.78,3.8,4.3,8.11,9.17,8.86,14.66a.58.58,0,0,1-.27.57l-10.17,6.28A.59.59,0,0,1,484.39,148.37ZM466.7,117.85l-.16.77c-.62,2.84-1.54,7.14-.24,11.3a29.62,29.62,0,0,0,6.28,10.37,27.18,27.18,0,0,0,11.48,6.79l.26.08,9.62-5.94c-.85-5-4.92-9.61-8.52-13.69-.85-1-1.68-1.9-2.43-2.81-5.88-7.06-11.1-10.86-13.95-10.15-1.16.29-2,1.4-2.34,3.28Z"/><polygon class="cls-13" points="481.49 145.31 481.49 175.32 501.11 157.56 500.56 131.74 481.49 145.31"/><path class="cls-12" d="M481.49,175.89a.5.5,0,0,1-.23,0,.56.56,0,0,1-.34-.52v-30a.59.59,0,0,1,.24-.47l19.06-13.57a.57.57,0,0,1,.59,0,.58.58,0,0,1,.32.5l.55,25.81a.53.53,0,0,1-.19.44l-19.61,17.76A.58.58,0,0,1,481.49,175.89Zm.58-30.28V174l18.45-16.71L500,132.84Z"/><path class="cls-16" d="M481.49,178.82a1.66,1.66,0,0,1-1.65-1.62l-.63-28.48a8.58,8.58,0,0,1,3.64-7.23l11.34-8a1.66,1.66,0,1,1,1.92,2.7l-11.35,8a5.32,5.32,0,0,0-2.24,4.46l.63,28.48a1.66,1.66,0,0,1-1.62,1.69Z"/><path class="cls-12" d="M481.49,179.4a2.25,2.25,0,0,1-2.23-2.18l-.63-28.48a9.18,9.18,0,0,1,3.88-7.72l11.35-8a2.15,2.15,0,0,1,1.66-.38,2.23,2.23,0,0,1,1.83,2.57,2.26,2.26,0,0,1-.91,1.45l-11.35,8a4.75,4.75,0,0,0-2,4l.63,28.48a2.19,2.19,0,0,1-.61,1.59,2.27,2.27,0,0,1-1.57.69Zm13.66-45.67a1.06,1.06,0,0,0-.62.19l-11.35,8a8,8,0,0,0-3.4,6.75l.64,28.48a1.07,1.07,0,0,0,1.07,1.05v.58l0-.58a1.07,1.07,0,0,0,1.06-1.1l-.63-28.48a5.89,5.89,0,0,1,2.49-4.94l11.34-8a1.08,1.08,0,0,0,.44-.7,1.06,1.06,0,0,0-.18-.81,1.12,1.12,0,0,0-.7-.44Z"/><ellipse class="cls-12" cx="481.49" cy="184.36" rx="3.84" ry="6.18"/><path class="cls-12" d="M481.49,191.12c-2.47,0-4.41-3-4.41-6.76s1.94-6.75,4.41-6.75,4.42,3,4.42,6.75S484,191.12,481.49,191.12Zm0-12.36c-1.76,0-3.26,2.57-3.26,5.6s1.5,5.6,3.26,5.6,3.27-2.56,3.27-5.6S483.26,178.76,481.49,178.76Z"/><ellipse class="cls-14" cx="481.49" cy="184.36" rx="1.63" ry="2.43"/><path class="cls-12" d="M481.49,187.37c-1.23,0-2.2-1.32-2.2-3s1-3,2.2-3,2.21,1.32,2.21,3S482.73,187.37,481.49,187.37Zm0-4.86c-.5,0-1.05.76-1.05,1.85s.55,1.85,1.05,1.85,1.06-.76,1.06-1.85S482,182.51,481.49,182.51Z"/><ellipse class="cls-12" cx="499.82" cy="157.56" rx="10.43" ry="19.97"/><path class="cls-12" d="M499.82,178.1c-6.07,0-11-9.22-11-20.54s4.94-20.55,11-20.55,11,9.22,11,20.55S505.89,178.1,499.82,178.1Zm0-39.94c-5.44,0-9.86,8.7-9.86,19.4S494.38,177,499.82,177s9.85-8.7,9.85-19.39S505.25,138.16,499.82,138.16Z"/><ellipse class="cls-21" cx="499.83" cy="158.03" rx="5.25" ry="12.63"/><path class="cls-12" d="M499.83,171.24c-3.27,0-5.84-5.8-5.84-13.21s2.57-13.2,5.84-13.2,5.83,5.8,5.83,13.2S503.09,171.24,499.83,171.24Zm0-25.26c-2.26,0-4.68,4.84-4.68,12.05s2.42,12.06,4.68,12.06,4.67-4.84,4.67-12.06S502.08,146,499.83,146Z"/><path class="cls-16" d="M499.82,171.28c-3.64,0-6.49-6-6.49-13.72s2.85-13.73,6.49-13.73,6.49,6,6.49,13.73S503.46,171.28,499.82,171.28Zm0-25.6c-2.67,0-4.92,5.44-4.92,11.88s2.25,11.87,4.92,11.87,4.91-5.44,4.91-11.87S502.48,145.68,499.82,145.68Z"/><path class="cls-12" d="M499.82,171.86c-4,0-7.07-6.15-7.07-14.3s3-14.31,7.07-14.31,7.06,6.15,7.06,14.31S503.84,171.86,499.82,171.86Zm0-27.46c-3.26,0-5.92,5.9-5.92,13.16s2.66,13.15,5.92,13.15,5.91-5.9,5.91-13.15S503.08,144.4,499.82,144.4Zm0,25.61c-3,0-5.49-5.59-5.49-12.45s2.46-12.46,5.49-12.46,5.49,5.59,5.49,12.46S502.84,170,499.82,170Zm0-23.75c-2.05,0-4.34,4.83-4.34,11.3s2.29,11.3,4.34,11.3,4.33-4.84,4.33-11.3S501.86,146.26,499.82,146.26Z"/><ellipse class="cls-14" cx="499.82" cy="157.56" rx="1.41" ry="2.61"/><path class="cls-12" d="M499.82,160.75c-1.14,0-2-1.38-2-3.19s.85-3.19,2-3.19,2,1.37,2,3.19S501,160.75,499.82,160.75Zm0-5.23c-.34,0-.84.81-.84,2s.5,2,.84,2,.83-.81.83-2S500.15,155.52,499.82,155.52Z"/><path class="cls-12" d="M496.27,132.87a.58.58,0,0,1-.58-.56L495.25,119a.57.57,0,0,1,.56-.59h0a.57.57,0,0,1,.57.55l.44,13.3a.58.58,0,0,1-.55.59Z"/><path class="cls-22" d="M498.14,115.59a2.3,2.3,0,0,1-2.31-2.31v-2.55a5.76,5.76,0,0,1,3.8-5.41l7.27-2.61a2.32,2.32,0,0,1,1.56,4.37l-7.26,2.6a1.12,1.12,0,0,0-.74,1v2.55A2.31,2.31,0,0,1,498.14,115.59Z"/><path class="cls-12" d="M498.14,116.17a2.9,2.9,0,0,1-2.89-2.89v-2.55a6.32,6.32,0,0,1,4.19-6l7.27-2.61a2.89,2.89,0,0,1,2,5.45l-7.27,2.6a.55.55,0,0,0-.36.51v2.55A2.89,2.89,0,0,1,498.14,116.17Zm9.54-13a1.76,1.76,0,0,0-.59.11l-7.26,2.6a5.18,5.18,0,0,0-3.43,4.87v2.55a1.74,1.74,0,0,0,3.48,0v-2.55a1.69,1.69,0,0,1,1.12-1.59l7.27-2.61a1.74,1.74,0,0,0-.59-3.38Z"/><path class="cls-17" d="M482.13,144a3,3,0,0,1-1.14-5.73c3.48-1.45,8.94-4.72,9.6-7.12a1,1,0,0,0-.26-1c-1-1.19-7.16-4.34-12.3-6.54a3,3,0,0,1,2.35-5.48c3.72,1.6,12.62,5.61,14.74,8.47a7,7,0,0,1,1.21,6.18c-1.66,6-11.17,10.25-13.05,11A3,3,0,0,1,482.13,144Z"/><path class="cls-12" d="M482.13,144.56a3.55,3.55,0,0,1-1.36-6.83c3.51-1.47,8.69-4.62,9.27-6.74,0-.13.06-.23-.18-.55-.8-1-6.55-4-12.05-6.35a3.56,3.56,0,0,1,2.79-6.54c4.69,2,12.86,5.8,15,8.66a7.53,7.53,0,0,1,1.31,6.68c-1.74,6.28-11.46,10.6-13.39,11.4A3.6,3.6,0,0,1,482.13,144.56Zm-2.92-26.14a2.4,2.4,0,0,0-.95,4.61c4.34,1.86,11.32,5.27,12.51,6.7a1.65,1.65,0,0,1,.38,1.57c-.79,2.85-7,6.28-9.94,7.49a2.42,2.42,0,0,0-1.3,3.14,2.44,2.44,0,0,0,3.14,1.3c1.85-.77,11.13-4.88,12.73-10.65a6.38,6.38,0,0,0-1.13-5.68c-1.4-1.91-6.83-5-14.5-8.29A2.43,2.43,0,0,0,479.21,118.42Z"/><path class="cls-18" d="M485.33,130.09c-3.81-1.78-8.84-5.11-10.5-8.49-1-2.07-.33-4.89,1.4-5.27,4.55-1,16.27,6.37,16.27,6.37S490.48,128.76,485.33,130.09Z"/><path class="cls-12" d="M485.33,130.67a.5.5,0,0,1-.24-.06c-3.89-1.82-9-5.2-10.78-8.76a5.3,5.3,0,0,1-.07-4.47,2.73,2.73,0,0,1,1.86-1.61c4.74-1.06,16.22,6.13,16.71,6.44a.59.59,0,0,1,.24.67c-.09.26-2.19,6.37-7.57,7.77Zm-8.14-13.86a3.69,3.69,0,0,0-.84.08,1.65,1.65,0,0,0-1.07,1,4.17,4.17,0,0,0,.07,3.47c1.48,3,6.07,6.25,10,8.14,3.89-1.13,5.86-5.21,6.41-6.54C488.55,120.94,481,116.81,477.19,116.81Z"/><path class="cls-17" d="M488.9,103.22c0,10-7.84,15.78-18.65,17.39a24.63,24.63,0,0,1-15.78-3c-4.52-2.82-6.12-9.26-6.12-14.41,0-10,10.55-18.1,21.23-18.1S488.9,93.22,488.9,103.22Z"/><path class="cls-12" d="M466.8,121.44a24.61,24.61,0,0,1-12.63-3.33c-4.72-2.94-6.4-9.62-6.4-14.89,0-10,10.19-18.68,21.81-18.68,11,0,19.9,8.38,19.9,18.68,0,9.6-7,16.15-19.15,18A24.24,24.24,0,0,1,466.8,121.44Zm2.78-35.75c-10.81,0-20.66,8.35-20.66,17.53,0,5,1.54,11.22,5.86,13.92a24,24,0,0,0,15.38,2.9c11.55-1.72,18.17-7.85,18.17-16.82C488.33,93.55,479.92,85.69,469.58,85.69Z"/><path class="cls-12" d="M457.15,93.36s3.34,6.7,8.91,10.81a19.94,19.94,0,0,1-1.14-9.38l8.28,8.2a12.32,12.32,0,0,1,0-6.87,40.08,40.08,0,0,0,4,12.35s-.38-5.71,1.55-6.78,4.35.93,4.77,2.53a6.56,6.56,0,0,1-1.41,4.8,3.27,3.27,0,0,1-2.62.88,7.71,7.71,0,0,1,0,5.19,25.84,25.84,0,0,0,2.95-3.86,17.61,17.61,0,0,1-2.95,8.82,18.94,18.94,0,0,0,5.93-4.71,13.21,13.21,0,0,1-.62,2.29c4.49-5.23,5.7-11,5.7-18.32s-5.41-12.57-10.26-15.44c-2.5-1.47-10.77-3-17.22-1.32a20.78,20.78,0,0,0-11.47,8c-3.11,5.45-3.86,11.6-3.62,12.93a32.58,32.58,0,0,1,4.26-9.14,13,13,0,0,0-.64,8.12C452.93,97.55,457.15,93.36,457.15,93.36Z"/><path class="cls-12" d="M479.51,120.63a.57.57,0,0,1-.44-.2.59.59,0,0,1,0-.71,16.33,16.33,0,0,0,2.56-6.22,19.2,19.2,0,0,1-1.69,2,.57.57,0,0,1-.93-.64,7.08,7.08,0,0,0,0-4.75.56.56,0,0,1,.06-.53.58.58,0,0,1,.48-.25,2.74,2.74,0,0,0,2.23-.73,6.13,6.13,0,0,0,1.24-4.23,3.76,3.76,0,0,0-2.06-2.19,2.08,2.08,0,0,0-1.87,0c-1.18.65-1.4,4.18-1.26,6.24a.58.58,0,0,1-1.07.33,38.42,38.42,0,0,1-3.44-9.3,12.24,12.24,0,0,0,.46,3.35.56.56,0,0,1-.24.67.57.57,0,0,1-.71-.08l-7.41-7.34A20.37,20.37,0,0,0,466.6,104a.57.57,0,0,1-.88.66A33.9,33.9,0,0,1,457,94.34a22.58,22.58,0,0,0-4.89,8.33.52.52,0,0,1-.56.42.59.59,0,0,1-.56-.43,13.08,13.08,0,0,1-.34-4.47,38.14,38.14,0,0,0-2.17,5.51.57.57,0,0,1-.59.41.58.58,0,0,1-.53-.48c-.25-1.44.5-7.72,3.69-13.32A21.49,21.49,0,0,1,462.89,82c6.41-1.65,14.87-.26,17.66,1.38,3.17,1.88,10.54,7.18,10.54,15.94,0,8.46-1.69,13.87-5.84,18.69a.58.58,0,0,1-1-.56v0a18.59,18.59,0,0,1-4.52,3.17A.57.57,0,0,1,479.51,120.63Zm2.95-10a.51.51,0,0,1,.17,0,.57.57,0,0,1,.41.56,18.7,18.7,0,0,1-1.89,7.19A18.42,18.42,0,0,0,485,115a.57.57,0,0,1,1,.17c2.79-4.1,4-8.9,4-15.85,0-8.17-7-13.17-10-14.94-2.32-1.38-10.45-2.9-16.78-1.27a20.19,20.19,0,0,0-11.11,7.78A29.43,29.43,0,0,0,449,99.07a26.88,26.88,0,0,1,2.76-5,.57.57,0,0,1,1,.59,12.73,12.73,0,0,0-.94,5.55A26.07,26.07,0,0,1,456.74,93a.57.57,0,0,1,.5-.16.56.56,0,0,1,.42.31,35.54,35.54,0,0,0,7.27,9.42,19.64,19.64,0,0,1-.57-7.83.56.56,0,0,1,.39-.45.59.59,0,0,1,.58.14l6.91,6.85a12.42,12.42,0,0,1,.41-5.29.6.6,0,0,1,.59-.4.57.57,0,0,1,.52.48,43,43,0,0,0,2.89,9.94c.12-1.83.54-4,1.84-4.78a3.2,3.2,0,0,1,2.88-.06,5,5,0,0,1,2.73,3,7,7,0,0,1-1.58,5.37,3.51,3.51,0,0,1-2.25,1,8.45,8.45,0,0,1,.27,2.53c.81-1.06,1.42-2,1.43-2.06A.59.59,0,0,1,482.46,110.65Z"/><path class="cls-12" d="M459.46,112.63a2.78,2.78,0,0,1-.68-5.48,12.42,12.42,0,0,1,.18-5,.58.58,0,0,1,.7-.42.59.59,0,0,1,.42.7,11.4,11.4,0,0,0-.06,5.07.6.6,0,0,1-.1.5.58.58,0,0,1-.46.22,1.63,1.63,0,1,0,0,3.26,1.7,1.7,0,0,0,.88-.25.57.57,0,0,1,.79.17.58.58,0,0,1-.18.8A2.78,2.78,0,0,1,459.46,112.63Z"/><circle class="cls-12" cx="452.73" cy="104.89" r="1.27"/><circle class="cls-12" cx="472.53" cy="105.11" r="1.27"/><path class="cls-23" d="M459,114.37a12.11,12.11,0,0,0,9.61,0c.07,2.82-.38,5.13-4.15,5.13S459.38,117.57,459,114.37Z"/><path class="cls-12" d="M464.41,120.12c-4.67,0-5.68-3-6-5.67a.58.58,0,0,1,.24-.55.59.59,0,0,1,.6,0,11.6,11.6,0,0,0,9.11,0,.57.57,0,0,1,.54,0,.59.59,0,0,1,.27.47c0,1.69-.08,3.4-1.19,4.53A4.71,4.71,0,0,1,464.41,120.12Zm-4.71-4.8c.59,2.61,2,3.65,4.71,3.65a3.69,3.69,0,0,0,2.72-.84,4.22,4.22,0,0,0,.86-2.87A13.12,13.12,0,0,1,459.7,115.32Z"/><line class="cls-22" x1="322.31" y1="589.48" x2="335.7" y2="600.47"/><path class="cls-12" d="M335.7,601a.54.54,0,0,1-.32-.11l-13.39-11a.5.5,0,0,1,.63-.78l13.4,11a.5.5,0,0,1-.32.89Z"/><line class="cls-22" x1="311.46" y1="587.56" x2="296.02" y2="603.13"/><path class="cls-12" d="M296,603.63a.5.5,0,0,1-.36-.14.51.51,0,0,1,0-.71l15.45-15.57a.5.5,0,0,1,.71,0,.51.51,0,0,1,0,.71l-15.45,15.57A.54.54,0,0,1,296,603.63Z"/><line class="cls-22" x1="37.22" y1="395.12" x2="20.88" y2="409.13"/><path class="cls-12" d="M20.88,409.63a.46.46,0,0,1-.38-.18.49.49,0,0,1,.05-.7l16.35-14a.49.49,0,0,1,.7.05.51.51,0,0,1-.05.71l-16.35,14A.49.49,0,0,1,20.88,409.63Z"/><line class="cls-22" x1="687.5" y1="219.79" x2="705.11" y2="230.03"/><path class="cls-12" d="M705.11,230.53a.48.48,0,0,1-.26-.07l-17.6-10.24a.5.5,0,0,1,.5-.86l17.61,10.24a.5.5,0,0,1-.25.93Z"/><line class="cls-22" x1="27.16" y1="406.97" x2="297.69" y2="594.98"/><path class="cls-12" d="M296.21,594.44a.52.52,0,0,1-.29-.09L28.36,408.42a.51.51,0,0,1-.12-.7.49.49,0,0,1,.69-.12L296.49,593.53a.5.5,0,0,1-.28.91Z"/><path class="cls-12" d="M27.16,407a9,9,0,0,1,1.29,2.64l.39-1.47,1.24-.88A8.85,8.85,0,0,1,27.16,407Z"/><path class="cls-12" d="M297.69,595a9.11,9.11,0,0,0-2.92-.3l1.24-.87.39-1.47A9.11,9.11,0,0,0,297.69,595Z"/><path d="M162.78,490.92a2.66,2.66,0,0,1,2.32.39c1.29.89,1.55,2.51.45,4.08a3.18,3.18,0,0,1-4.49,1.05c-1.69-1.18-1.72-3.27-.34-5.25a6.37,6.37,0,0,1,3.8-2.72,5.41,5.41,0,0,1,4.07,1l-.67,1a3.72,3.72,0,0,0-5.16.46Zm1.49,3.69c.72-1,.67-2.11-.16-2.69a1.8,1.8,0,0,0-2.38.41c-.85,1.27-1,2.54,0,3.19S163.53,495.66,164.27,494.61Z"/><path d="M172.84,504.48l-1.21-.84,2.33-3.35c.68-1,.81-1.84.07-2.36a1.51,1.51,0,0,0-2.08.57l-2.52,3.6-1.21-.84,2.46-3.52c.57-.82.7-1.66,0-2.16a1.58,1.58,0,0,0-2.17.6L166,499.73l-1.21-.85,2.93-4.2c.46-.66.78-1.16,1.11-1.67l1.06.74-.53.9,0,0a2.34,2.34,0,0,1,2.39.21,1.93,1.93,0,0,1,.81,2.15l0,0a2.45,2.45,0,0,1,2.55.18c.87.61,1.41,1.87.12,3.71Z"/><path d="M498.87,425l-6.15-5.68,0,0-.44,1.82-1-.5.63-2.41.86-.94,7.15,6.62Z"/><path d="M506,417.33l-4,4.35-.68-.62-.09-1.48c-.15-2.94-.37-4.7-1.44-5.69a1.59,1.59,0,0,0-2.45,0,3.14,3.14,0,0,0-.71,1.9l-1.1-.4a4.24,4.24,0,0,1,1.12-2.54,2.67,2.67,0,0,1,4-.19c1.31,1.21,1.58,3.11,1.68,5.51l.06,1.15h0l2.66-2.88Z"/><path d="M506.37,415.63a1,1,0,0,1-.1-1.41,1,1,0,0,1,1.5,1.4A.94.94,0,0,1,506.37,415.63Z"/><path d="M505.7,403.3l.91.84-2.32,2.51,1.49,1.81a6.16,6.16,0,0,1,.41-.5,3,3,0,0,1,4.46-.37,3.34,3.34,0,0,1,0,4.88,4.7,4.7,0,0,1-1.95,1.3l-.61-1a4.08,4.08,0,0,0,1.65-1.05,2,2,0,0,0-.07-2.9c-.92-.85-2.08-.76-3.26.51a7.61,7.61,0,0,0-.74.92l-3-3.65Z"/><path d="M520.88,401.23l-1,1.08-3-2.76c-.88-.81-1.72-1.06-2.33-.4a1.51,1.51,0,0,0,.27,2.14l3.23,3-1,1.08-3.16-2.92c-.73-.67-1.54-.91-2.13-.28a1.58,1.58,0,0,0,.3,2.24l3.17,2.93-1,1.08-3.76-3.48c-.59-.54-1-.92-1.51-1.32l.88-.95.82.65,0,0a2.32,2.32,0,0,1,.53-2.35,1.92,1.92,0,0,1,2.24-.5l0,0a2.45,2.45,0,0,1,.53-2.5c.72-.78,2-1.15,3.7.38Z"/><line class="cls-22" x1="698.28" y1="230.03" x2="335.7" y2="595.35"/><path class="cls-12" d="M337,594.56a.49.49,0,0,1-.35-.14.5.5,0,0,1,0-.71L696.65,231a.5.5,0,0,1,.71.71l-360,362.75A.54.54,0,0,1,337,594.56Z"/><path class="cls-12" d="M698.28,230a9.37,9.37,0,0,1-2.82.82l1.38.63.65,1.38A8.82,8.82,0,0,1,698.28,230Z"/><path class="cls-12" d="M335.7,595.35a8.82,8.82,0,0,0,.79-2.83l.65,1.38,1.38.63A9.28,9.28,0,0,0,335.7,595.35Z"/><polygon class="cls-12" points="144.86 204.57 219.27 141.28 218.48 185.45 145.43 246.91 144.86 204.57"/><path class="cls-14" d="M145.4,250.11a2,2,0,0,1-.83-.18,2,2,0,0,1-1.17-1.79l-.57-42.33a2,2,0,0,1,.7-1.55L218,141a2,2,0,0,1,3.29,1.56l-.79,44.18a2,2,0,0,1-.71,1.49l-73.05,61.45A2,2,0,0,1,145.4,250.11Zm1.94-6.25,69.13-58.15.69-38.83-70.32,59.81Z"/><path class="cls-12" d="M219.24,141a1.43,1.43,0,0,1,.64.15,1.5,1.5,0,0,1,.86,1.38L220,186.69a1.48,1.48,0,0,1-.53,1.12l-73,61.45a1.52,1.52,0,0,1-1,.35,1.5,1.5,0,0,1-.62-.13,1.52,1.52,0,0,1-.88-1.35l-.57-42.33a1.45,1.45,0,0,1,.53-1.16l74.41-63.3a1.53,1.53,0,0,1,1-.36m-1.56,4.8-71.34,60.69.52,38.46L217,186l.71-40.17m1.56-5.8h0a2.53,2.53,0,0,0-1.62.6l-74.41,63.3a2.48,2.48,0,0,0-.88,1.93l.57,42.34a2.5,2.5,0,0,0,1.46,2.23,2.35,2.35,0,0,0,1,.23A2.5,2.5,0,0,0,147,250l73.05-61.45a2.45,2.45,0,0,0,.89-1.87l.79-44.17a2.5,2.5,0,0,0-1.43-2.31,2.61,2.61,0,0,0-1.07-.24Zm-71.9,66.94L216.64,148l-.67,37.5L147.83,242.8l-.49-35.88Z"/><path class="cls-24" d="M231,200.52l-6.18-4.26a2.68,2.68,0,0,0,.13-.75V187h0l.57-45.74a10.17,10.17,0,0,0-16.71-7.92l-59.59,50.11a30.14,30.14,0,0,0-10.78,23.45l.43,55-4.81-3.32a2.5,2.5,0,1,0-2.84,4.12l16.16,11.15a2.48,2.48,0,0,0,1.42.44,2.49,2.49,0,0,0,1.42-4.55l-6.35-4.45,0-9L215.62,196l12.55,8.67a2.48,2.48,0,0,0,1.42.44,2.5,2.5,0,0,0,1.42-4.56Zm-11-7.63-.37-.25.37-.31Zm0-7.11-76.12,64-.4-42.95a25.2,25.2,0,0,1,9-19.58L212,137.16a5.17,5.17,0,0,1,8.49,4Z"/><line class="cls-24" x1="219.59" y1="192.64" x2="215.62" y2="195.97"/><line class="cls-24" x1="219.96" y1="192.89" x2="219.96" y2="195.3"/><line class="cls-24" x1="138.88" y1="261.87" x2="138.88" y2="264.15"/><path class="cls-25" d="M168.71,211a.87.87,0,0,1,.56.86l.1,5.67a4.59,4.59,0,0,1-.43,1.65l-1,2.13c-.24.5-.67.84-1,.77l-.92-.23a1,1,0,0,1-.54-.89l-.09-5.6a4.41,4.41,0,0,1,.42-1.66l1-2.06c.24-.49.68-.85,1-.8Z"/><path class="cls-26" d="M163,204.6a.87.87,0,0,1,.57.85l.13,5.68a4.61,4.61,0,0,1-.42,1.66l-1,2.13c-.23.5-.67.84-1,.77l-.92-.23a.93.93,0,0,1-.54-.89l-.13-5.62a4.37,4.37,0,0,1,.42-1.65l1-2.07c.24-.49.69-.85,1-.8Z"/><path class="cls-27" d="M168.53,199.48a.87.87,0,0,1,.56.86l.13,5.68a4.37,4.37,0,0,1-.42,1.65l-1,2.14c-.24.49-.67.83-1,.76l-.93-.23a.93.93,0,0,1-.54-.89l-.13-5.61a4.41,4.41,0,0,1,.42-1.66l1-2.06c.25-.5.69-.86,1-.8Z"/><path class="cls-28" d="M176.24,216a5.55,5.55,0,0,1-1.12,1.52l-5,4.5a1.71,1.71,0,0,1-1.22.5l-.9-.2c-.3-.06-.34-.52-.09-1l1.08-2.19a6.14,6.14,0,0,1,1.13-1.52l4.93-4.44a1.64,1.64,0,0,1,1.22-.48l.86.22c.29.08.33.55.09,1Z"/><path class="cls-29" d="M178.92,201.81a.86.86,0,0,1,.56.85l.09,5.67a4.17,4.17,0,0,1-.43,1.65l-1,2.13c-.24.5-.67.84-1,.77l-.93-.24a.93.93,0,0,1-.54-.89l-.09-5.59a4.47,4.47,0,0,1,.44-1.66l1-2.06c.24-.49.69-.85,1-.79Z"/><path class="cls-30" d="M178.69,190.47a.87.87,0,0,1,.57.86l.12,5.67a4.41,4.41,0,0,1-.42,1.66l-1,2.13c-.24.49-.67.83-1,.76l-.93-.24a.93.93,0,0,1-.54-.89l-.12-5.6a4.26,4.26,0,0,1,.43-1.66l1-2.06c.25-.49.69-.85,1-.8Z"/><path class="cls-31" d="M175.83,193a5.52,5.52,0,0,1-1.11,1.52l-5,4.5a1.78,1.78,0,0,1-1.23.5l-.91-.21c-.3-.06-.35-.52-.11-1l1.07-2.19a6,6,0,0,1,1.13-1.52l5-4.44a1.7,1.7,0,0,1,1.23-.48l.87.23c.29.08.34.55.11,1Z"/><path class="cls-32" d="M153.09,225.14a.86.86,0,0,1,.56.85l.1,5.68a4.37,4.37,0,0,1-.42,1.65l-1,2.14c-.24.49-.66.84-.95.76l-.91-.23a.92.92,0,0,1-.54-.88l-.11-5.61a4.37,4.37,0,0,1,.42-1.65l1-2.07c.24-.5.68-.86,1-.8Z"/><path class="cls-33" d="M152.88,213.64a.88.88,0,0,1,.57.86l.13,5.68a4.63,4.63,0,0,1-.41,1.66l-1,2.13c-.24.5-.67.84-1,.77l-.91-.23a1,1,0,0,1-.55-.89L149.6,218a4.34,4.34,0,0,1,.41-1.65l1-2.07c.24-.5.68-.86,1-.8Z"/><path class="cls-34" d="M160.58,230.13a6,6,0,0,1-1.11,1.52l-5,4.52a1.68,1.68,0,0,1-1.21.5l-.89-.2c-.29-.06-.33-.52-.09-1l1.06-2.2a6.2,6.2,0,0,1,1.13-1.52l4.89-4.46a1.62,1.62,0,0,1,1.21-.48l.85.22c.29.07.33.54.1,1Z"/><path class="cls-35" d="M163.21,215.94a.87.87,0,0,1,.56.86l.1,5.67a4.59,4.59,0,0,1-.43,1.65l-1,2.14c-.24.49-.67.84-1,.76l-.92-.23a.93.93,0,0,1-.54-.89l-.1-5.6a4.4,4.4,0,0,1,.43-1.65l1-2.07c.24-.49.68-.85,1-.8Z"/><path class="cls-36" d="M160.13,207.17A6,6,0,0,1,159,208.7l-5,4.5a1.7,1.7,0,0,1-1.22.51l-.9-.21c-.3-.06-.34-.52-.11-1l1.06-2.19a5.81,5.81,0,0,1,1.12-1.53l4.91-4.45a1.61,1.61,0,0,1,1.21-.48l.87.22c.29.08.34.55.11,1Z"/><path class="cls-37" d="M197.48,185.33a.88.88,0,0,1,.56.86l.08,5.66a4.38,4.38,0,0,1-.44,1.65l-1.05,2.13c-.25.49-.69.83-1,.76l-.93-.24a.93.93,0,0,1-.54-.89l-.08-5.59a4.2,4.2,0,0,1,.44-1.65l1-2.06c.25-.49.7-.85,1-.79Z"/><path class="cls-38" d="M203.05,180.43a.88.88,0,0,1,.57.86l.07,5.66a4.47,4.47,0,0,1-.44,1.65l-1.06,2.12c-.24.49-.68.83-1,.76l-.93-.24a.91.91,0,0,1-.54-.89l-.08-5.59a4.62,4.62,0,0,1,.44-1.65l1-2.06c.25-.49.71-.84,1-.79Z"/><path class="cls-39" d="M202.85,169a.87.87,0,0,1,.57.86l.11,5.67a4.38,4.38,0,0,1-.44,1.65L202,179.31c-.24.49-.69.83-1,.76l-.94-.24a1,1,0,0,1-.55-.89l-.1-5.61a4.44,4.44,0,0,1,.43-1.65l1-2.05c.24-.5.7-.85,1-.8Z"/><path class="cls-40" d="M197.27,173.86a.87.87,0,0,1,.57.86l.11,5.67a4.54,4.54,0,0,1-.43,1.65l-1.05,2.13c-.25.49-.69.83-1,.76l-.94-.24a1,1,0,0,1-.55-.89l-.1-5.6a4.26,4.26,0,0,1,.43-1.66l1-2c.25-.5.7-.85,1-.8Z"/><path class="cls-41" d="M203.23,188.62a5.72,5.72,0,0,1,1.14-1.51l5.09-4.47a1.76,1.76,0,0,1,1.25-.49l.91.21c.3.06.34.52.09,1l-1.11,2.18a6,6,0,0,1-1.16,1.51l-5,4.41a1.66,1.66,0,0,1-1.23.48l-.87-.23c-.29-.07-.33-.54-.09-1Z"/><path class="cls-42" d="M202.86,165.83a5.53,5.53,0,0,1,1.13-1.51l5.11-4.47a1.81,1.81,0,0,1,1.26-.49l.92.21c.31.07.35.53.1,1l-1.1,2.19a6,6,0,0,1-1.16,1.51l-5,4.4a1.67,1.67,0,0,1-1.24.48l-.88-.23c-.29-.08-.34-.55-.1-1Z"/><path class="cls-43" d="M213.49,171.3a.86.86,0,0,1,.56.86l.07,5.66a4.2,4.2,0,0,1-.44,1.64l-1.06,2.12c-.25.5-.7.84-1,.76l-.94-.24a.91.91,0,0,1-.54-.89l-.07-5.59a4.41,4.41,0,0,1,.45-1.64l1-2.06c.25-.49.71-.85,1-.79Z"/><path class="cls-44" d="M210.57,170.8a.86.86,0,0,1-.57-.86l-.1-5.67a4.4,4.4,0,0,1,.43-1.65l1.06-2.12c.24-.5.69-.84,1-.76l.94.24a1,1,0,0,1,.56.9l.09,5.6a4.2,4.2,0,0,1-.44,1.64l-1.05,2.06c-.25.49-.7.84-1,.79Z"/><path class="cls-45" d="M187.13,194.5a.86.86,0,0,1,.56.85l.08,5.67a4.26,4.26,0,0,1-.43,1.65l-1,2.12c-.25.5-.68.84-1,.77l-.92-.24a.91.91,0,0,1-.54-.89l-.09-5.59a4.38,4.38,0,0,1,.44-1.65l1-2.06c.24-.5.69-.86,1-.8Z"/><path class="cls-46" d="M186.91,183.06a.88.88,0,0,1,.57.86l.11,5.67a4.26,4.26,0,0,1-.43,1.66l-1,2.12c-.24.5-.68.84-1,.77l-.93-.24a.94.94,0,0,1-.55-.89l-.11-5.61a4.21,4.21,0,0,1,.43-1.65l1-2.06c.24-.49.69-.85,1-.8Z"/><path class="cls-47" d="M187.32,202.69a5.69,5.69,0,0,1,1.13-1.51l5.05-4.49a1.76,1.76,0,0,1,1.23-.49l.91.2c.3.07.34.53.09,1l-1.1,2.18a5.8,5.8,0,0,1-1.15,1.52l-5,4.42a1.64,1.64,0,0,1-1.22.48l-.86-.22c-.29-.08-.34-.54-.1-1Z"/><path class="cls-48" d="M186.91,179.89a5.55,5.55,0,0,1,1.12-1.52l5.07-4.48a1.72,1.72,0,0,1,1.24-.49l.92.21c.31.06.35.52.1,1l-1.09,2.18a5.82,5.82,0,0,1-1.14,1.52l-5,4.42a1.7,1.7,0,0,1-1.23.48L186,183c-.3-.08-.35-.55-.11-1Z"/><ellipse class="cls-6" cx="590.88" cy="208.48" rx="7.3" ry="3.19" transform="translate(-35.58 195.97) rotate(-18.29)"/><ellipse class="cls-6" cx="569.63" cy="199.28" rx="7.3" ry="3.19" transform="translate(-33.76 188.83) rotate(-18.29)"/><path class="cls-49" d="M589.17,174.08c-2.44,9.42-1.18,23.41.65,30.81,2.27,2.88,8.11,4.33,9.57,3.59-1-5.27-1.64-27.13,4.82-41.92-6.35-.22-18.84-6.86-18.84-6.86s-15.77,23.8-17.3,35.55c2.63,4,4.06,4.56,7.69,4C582.38,182.77,583.4,179.45,589.17,174.08Z"/><line class="cls-11" x1="589.17" y1="174.08" x2="589.9" y2="170.72"/><path class="cls-50" d="M600.26,123.08a5.71,5.71,0,0,0-2.1.14,4.34,4.34,0,0,0-7.52-.36s-2.82,4-10.42,6.86A50.65,50.65,0,0,1,569.51,132a4.38,4.38,0,0,0,.41,8.74l.42,0a59.17,59.17,0,0,0,13-2.83,42.34,42.34,0,0,0,5.31-2.42c-3,7.74-4.56,17.46-4.11,24.2,4.16,5.33,11.61,7.19,20.36,7.3C608.92,151.12,609.9,124.4,600.26,123.08Z"/><path class="cls-50" d="M588.61,135.5a11.47,11.47,0,0,1,2.46-4.81"/><circle class="cls-51" cx="585.49" cy="138.63" r="5.57"/><path class="cls-5" d="M604.64,150.24c-7.23,0-16.14-4.21-19.34-5.86a3.5,3.5,0,1,1,3.21-6.23c6.87,3.52,16.21,6.29,18.63,4.61a3.5,3.5,0,0,1,4,5.76A11.19,11.19,0,0,1,604.64,150.24Z"/><path class="cls-50" d="M604.21,124.73a21.09,21.09,0,0,1,8.76,8.65c2.85,5.78,4.16,10.4,0,14.51a12.47,12.47,0,0,1-8.76,3c-5-.05-11.12-2-16.43-4.6a11.21,11.21,0,0,1,3.61-7.35s12.93,5.84,15.66,3.37-3.75-9.49-3.75-9.49"/><path class="cls-52" d="M583.64,106.36s-2.76,4.35-6,4.35a16.82,16.82,0,0,0,9.3,9.13Z"/><path class="cls-5" d="M620.48,117.76a19.42,19.42,0,0,0,2.47-9.52c0-3.6,0-7.51-1.75-10.62-3.22-5.72-10.05-9.53-17.3-9.53-2.57,0-6.82.36-9.08,1.34-7.59,3.28-11.18,11.52-11.18,19.39,0,3,.16,6,1.57,8.51,3.35,6,10.81,10,18.69,10a18.91,18.91,0,0,0,12.38-4.45"/><path class="cls-52" d="M599.94,102.14a19.29,19.29,0,0,1-16.3-.61S586.71,91.07,596.76,88a23,23,0,0,1,18.86,2.41c5.67,3.45,11.46,13,9.39,20.71s-2.62,10.17-3.28,13.57a10.46,10.46,0,0,0,.55,6s-7.56.5-16.87-3.88a18.3,18.3,0,0,0,15.07-9S599.83,111.16,599.94,102.14Z"/><path class="cls-5" d="M592.05,117.5a2.53,2.53,0,0,1,0-5,2.48,2.48,0,0,1,1.78.74"/><path class="cls-11" d="M589.53,109.29s1-1.91-.7-2.72a2.1,2.1,0,0,0-2.69,1"/><path class="cls-11" d="M608.25,117.92s1-1.91-.71-2.72a2.11,2.11,0,0,0-2.69,1"/><path class="cls-51" d="M591.07,118.92a20.16,20.16,0,0,0,8.32,3c-1.37,1.8-3.4,2.85-5.56,2S591.07,118.92,591.07,118.92Z"/><path class="cls-5" d="M615.49,122.88a3.31,3.31,0,1,0,4.2-5.12"/><circle class="cls-51" cx="568.24" cy="131.39" r="5.57"/><ellipse class="cls-5" cx="566.92" cy="136.17" rx="3.74" ry="4.88" transform="translate(240.57 619.33) rotate(-69.47)"/><path class="cls-6" d="M254.21,370.54c.12.8.35,2.19-.62,3-1.44,1.28-4.61,2-7.42,2.36-3.22.47-8.82,1.19-11,.22v-3.36c0-2.63,5.3-4,10-4.64S253.92,368.54,254.21,370.54Z"/><path class="cls-6" d="M259.87,373.25c.1.81.29,2.2-.7,3-1.46,1.24-4.65,1.84-7.47,2.18-3.23.39-8.85,1-11,0,0,0,.06-2.72.07-3.36.06-2.62,5.4-3.83,10.12-4.4S259.62,371.25,259.87,373.25Z"/><path class="cls-5" d="M223.78,328.49a3.5,3.5,0,0,1-2.77-5.64,140.85,140.85,0,0,0,12.24-19.92,3.51,3.51,0,1,1,6.26,3.16,144.24,144.24,0,0,1-12.95,21A3.51,3.51,0,0,1,223.78,328.49Z"/><path class="cls-53" d="M253.27,330.5c-1.72,18.62-2.43,26.85-3.67,46.09-3.8.85-7.64.21-9.14-1.83-1.89.39-3.82.39-5.43-1.33-1.28-17.45-2-52.27-2-52.27Z"/><path class="cls-53" d="M236.38,297.5s-8.11,15.66-14,23.11a9.63,9.63,0,0,0,6.13,4.38,66.44,66.44,0,0,0,6.14-9.53C238,309.26,236.38,297.5,236.38,297.5Z"/><line class="cls-54" x1="246.67" y1="375.17" x2="249.26" y2="328.44"/><line class="cls-11" x1="240.46" y1="374.76" x2="239.66" y2="337.91"/><path class="cls-53" d="M243.17,282.94c-7-.77-9.38,27.7-10.11,38.22s16.41,11.23,20.21,9.34a112,112,0,0,0-2.44-37.92C249.36,286.36,245.34,283.18,243.17,282.94Z"/><path class="cls-5" d="M266.2,266c0,2.4.44,5.7,2.78,6.29.13,3.08-2.37,7.62-4,9.63-4,5.17-12.27,6.21-19.34,6.21-6.55,0-13.53-1.69-17.31-6.21-3.27-3.91-5.25-10.24-5.25-15.92,0-12.21,10.34-22.12,22.56-22.12S266.2,253.82,266.2,266Z"/><path class="cls-5" d="M267.59,333.86a3.49,3.49,0,0,1-2.53-1.08c-10.44-10.9-15.92-25-16.15-25.56a3.5,3.5,0,1,1,6.54-2.51h0c.05.13,5.23,13.37,14.67,23.22a3.5,3.5,0,0,1-2.53,5.93Z"/><path class="cls-53" d="M251.32,294.71c2.8,7.62,8.35,20.49,17,31.05-2.74,4.05-6.14,4.6-6.14,4.6C250.4,315.24,246.67,303,246.67,303"/><path class="cls-55" d="M226.63,276.91c.62,4.54.82,10.85-1.86,14.9-4,6-12,8.8-15.88,8.21,3.72-3.06,3.29-8.44,7-13.91A27.12,27.12,0,0,1,226.63,276.91Z"/><path class="cls-54" d="M265.38,326.84s-13.28-14.9-19.78-39.21"/><path class="cls-55" d="M251.16,281.73h2.11v-4.82l3-1.31-1.86-.88a5.12,5.12,0,0,1-4.71-4.59c-.48-2.83.86-5.71,2.85-6.58,1.16-.51,3,.31,3.61.55A14.1,14.1,0,0,0,258,248a19.72,19.72,0,0,0-12.26-4.09c-12.22,0-22.56,9.91-22.56,22.12,0,5.68,2,12,5.25,15.92,3.78,4.52,10.76,6.21,17.31,6.21.68,0,1.38,0,2.09,0l3.71-2.77Z"/><path class="cls-11" d="M254.45,274.72a1.88,1.88,0,0,0,2-.76"/><circle class="cls-52" cx="261.71" cy="267.2" r="1.17"/><path class="cls-49" d="M407.59,123.46c0,4.05,6.35,7.17,10.61,4.34-.31,4.53,8.23,6.94,12.61,5.41l2.08-5.48-19.82-7.44Z"/><path class="cls-5" d="M414.34,150.44a3.53,3.53,0,0,1-2.18-1.12c-3.76-4.1-5.48-8.66-5.13-13.57.69-9.49,9.19-16.54,9.55-16.84a3.51,3.51,0,0,1,4.44,5.43c-.11.09-6.55,5.51-7,11.95-.2,2.93.88,5.65,3.31,8.3a3.51,3.51,0,0,1-3,5.85Z"/><path class="cls-5" d="M424.59,150.65a3.53,3.53,0,0,1-1.65-1c-3.64-4-8.13-14.75.93-26.68a3.5,3.5,0,1,1,5.58,4.24c-7.84,10.32-1.59,17.43-1.32,17.72a3.5,3.5,0,0,1-3.54,5.73Z"/><path class="cls-52" d="M407,149.63l7.48.85a4,4,0,0,0,3.94-2l1.19-2.17a4.3,4.3,0,0,0-2.27-1.69,3.67,3.67,0,0,1-2.11,2.59s-1.69-3.59-5-3.59S404,149.29,407,149.63Z"/><path class="cls-52" d="M429.56,149.31c0,2.48-9,2.48-9,0a4.49,4.49,0,0,1,9,0Z"/><path class="cls-52" d="M400.5,77.58s2.2,14.64,13.38,25.15L426,99.28,423.2,85.65Z"/><path class="cls-5" d="M398.67,113.71a3.57,3.57,0,0,1-1.35-.27,3.5,3.5,0,0,1-1.88-4.57,37.45,37.45,0,0,1,23.5-19.76,3.5,3.5,0,1,1,2,6.73,30.3,30.3,0,0,0-19,15.74A3.52,3.52,0,0,1,398.67,113.71Z"/><path class="cls-56" d="M422.83,85.79S411.05,90.17,406,93.9c.21,5.15,4.86,8.1,4.86,8.1l12.56-6Z"/><path class="cls-57" d="M430.81,133.21c6.61-5.37,7.12-9.25,6.13-15.09s-23.13-19-22.29-10.54-3.22,11-7.06,15.88c7.06-1.31,9.21,1.22,10.61,4.34C419.6,126.42,428.73,127,430.81,133.21Z"/><path class="cls-56" d="M441.6,98.49c-3.88-4.92-14.09-12.24-14.09-12.24l-.65,1.93c-1.93-2.2-3.81-3.71-5.3-4.21-9.08.48-9.61,21.24-7.78,31.62,2.23,6.7,16.65,5.37,23.15,1.72a32,32,0,0,0-1.24-12.64A10.63,10.63,0,0,0,441.6,98.49Z"/><path class="cls-5" d="M439.56,64c2.78,6.33,1.36,14.71-2.32,20a13.62,13.62,0,0,1-9.52,5.72c-11.64,1.16-21.41,2.56-26.1-8.15-1.61-3.66-1.56-8-1.08-11.74.93-7.12,4.07-13.65,11.12-16.74A21.17,21.17,0,0,1,439.56,64Z"/><path class="cls-52" d="M414.85,65.12l1.43,4.75s9.26,1.09,16.23-1l1.11,5.25s2.07-2.1,3.73-1,1,3.45.59,4.88-1.86,2.05-3.53,1c.53,1.6-2,5.85-7.62,15.75H441c3-11.29,4.76-25.28-1.39-33.58s-16.72-13.6-27.25-9C400,57.55,400.64,63,399.82,67.65a22.91,22.91,0,0,0,13.24,1.84Z"/><path class="cls-11" d="M411.67,82.73A2.58,2.58,0,1,1,409.6,78a2.53,2.53,0,0,1,1.37-.2,5.35,5.35,0,0,1-.42-5.17"/><path class="cls-11" d="M412.7,85.08s3,5.72,7.42-.87"/><circle class="cls-12" cx="404.68" cy="74.36" r="1.27"/><circle class="cls-12" cx="425.52" cy="75.27" r="1.27"/><circle class="cls-10" cx="433.56" cy="97.41" r="5.57"/><circle class="cls-10" cx="398.25" cy="113.71" r="5.57"/><line class="cls-49" x1="418.2" y1="127.8" x2="422.31" y2="122.91"/><path class="cls-5" d="M441.82,107.8a3.43,3.43,0,0,1-2.21-.79l-8.32-6.13a3.5,3.5,0,1,1,4.42-5.43l8.33,6.13a3.5,3.5,0,0,1-2.22,6.22Z"/><path class="cls-5" d="M531.51,192.33A3.59,3.59,0,0,1,530,192a3.5,3.5,0,0,1-1.63-4.68L536.24,171a3.5,3.5,0,1,1,6.31,3l-7.88,16.28A3.52,3.52,0,0,1,531.51,192.33Z"/><path class="cls-5" d="M542.76,216.43a3.47,3.47,0,0,1-2.37-.92c-.94-.86-5.59-5.41-4.74-10.59a26.8,26.8,0,0,1,3.57-8.78,3.51,3.51,0,0,1,5.91,3.78,19.81,19.81,0,0,0-2.57,6.13c-.16,1,1.43,3.26,2.56,4.29a3.5,3.5,0,0,1,.22,4.95A3.46,3.46,0,0,1,542.76,216.43Z"/><path class="cls-5" d="M558.82,217.6a3.55,3.55,0,0,1-2.17-.75c-.49-.39-4.87-3.92-6.63-8.32-1.69-4.22-1.45-11.7-1.42-12.54a3.5,3.5,0,0,1,7,.28c-.1,2.6.07,7.52.92,9.66s3.59,4.73,4.46,5.41a3.5,3.5,0,0,1-2.16,6.26Z"/><path class="cls-55" d="M540.46,190.3s-3.51,7.7-5,9.34a9,9,0,0,0,8.93,1.56c1.87,2.44,14.14,1.62,16,.63a21.85,21.85,0,0,0,1.9-12.27Z"/><path class="cls-58" d="M531.57,177.3c.92,2,5.64,4.38,8,4.38L546.26,167s1-3.35-3.36-3.35S534.46,169.74,531.57,177.3Z"/><line class="cls-11" x1="544.39" y1="201.2" x2="546.81" y2="194.87"/><path class="cls-24" d="M544.39,163.23c-6.74.64-7.18,15.35-3.93,27.07,4.63,2.33,18.11,2.33,21.86-.74,1.1-3-.61-11.59-4.52-17.52S547.76,162.91,544.39,163.23Z"/><circle class="cls-51" cx="556.64" cy="181.68" r="5.57"/><path class="cls-5" d="M559.47,182.34a3.51,3.51,0,0,1-2.63-5.82l1.73-2-5.4-2.36a3.5,3.5,0,1,1,2.81-6.42l9.79,4.28a3.5,3.5,0,0,1,1.23,5.52l-4.9,5.58A3.52,3.52,0,0,1,559.47,182.34Z"/><line class="cls-11" x1="558.57" y1="174.55" x2="560.42" y2="172.04"/><path class="cls-58" d="M563.49,168.19c-4.92-2.19-9.9-5.11-14.5-3.91-2.73,7.76,8.51,10.27,8.51,10.27A11.81,11.81,0,0,1,563.49,168.19Z"/><path class="cls-59" d="M545.12,210.34c3.45.25,3.45,2.59,3.45,2.59a13.63,13.63,0,0,1-2.31,4.14c-2.46,3-6.31,5.94-7.29,5.06-1.62-1.47-1.72-6.22,1.42-6.62S544.65,213.16,545.12,210.34Z"/><path class="cls-59" d="M555.45,215.82c-1,3.61-.39,8,3.12,8s4.92-7.53,3.51-11A5.8,5.8,0,0,1,555.45,215.82Z"/><path class="cls-5" d="M566.42,149.84c0,11.08-8.54,17.85-19.61,17.85-5.54,0-10.81-1-14.27-4s-5.11-8.27-5.11-13.81c0-11.07,7.87-20.05,18.94-20.05A20,20,0,0,1,566.42,149.84Z"/><path class="cls-11" d="M527.78,145.83c1.18-3.13,1.89-5.67,1.9-5.72A20.92,20.92,0,0,0,527.78,145.83Z"/><path class="cls-9" d="M546.37,129.79a18.24,18.24,0,0,0-13.77,6.05l.06-.07a25.52,25.52,0,0,1-7,5.17,8.58,8.58,0,0,0,4-.84h0s-.72,2.59-1.9,5.72a45.34,45.34,0,0,1-3.57,7.6,26.61,26.61,0,0,0,3.29-1.65,48.11,48.11,0,0,0,7.66-5.73,18.32,18.32,0,0,1-2.33,7.38,30,30,0,0,0,9-7.16s2,6.23,5.62,8.37a28.6,28.6,0,0,1,2.48-7s4.7,7.88,8.66,9.42a4.3,4.3,0,0,1,3-2.4s-.29,6.7-3.55,10.19a16.72,16.72,0,0,0,8.38-15A20,20,0,0,0,546.37,129.79Z"/><path class="cls-11" d="M540.24,162.74a2.74,2.74,0,1,1-1.54-5"/><circle class="cls-12" cx="531.33" cy="155.4" r="1.08"/><circle class="cls-12" cx="553.23" cy="156.82" r="1.08"/><path class="cls-5" d="M559.47,161.34c1.46.59,3.23-.4,3.95-2.21s.11-3.74-1.35-4.32a2.46,2.46,0,0,0-1.42-.11,2.29,2.29,0,0,0-1.18.83"/><path class="cls-52" d="M602.33,247s-8.76,3.5-7.59,6.72,15-1.9,16.21-2.19,0-3.8,0-3.8Z"/><path class="cls-60" d="M604.67,229.79A144.76,144.76,0,0,1,599.41,247s7.17,4.38,12.06,2.77c7.22-15.62,9.85-37.71,9.85-37.71l-21.91-8.28c-4.7,2.64-8.79,9.86-6.86,15.81C594,224.19,600.42,227.7,604.67,229.79Z"/><path class="cls-24" d="M608.08,175.47s-17.57,3-19.91,6.47,1.17,11,1.17,11c2.72-3,8.17-1.68,8.17-1.68s-2.33-6-1.6-7,12.17-4.42,12.17-4.42"/><path class="cls-11" d="M604.67,229.79a77.61,77.61,0,0,0,3.41-13"/><path class="cls-24" d="M599.41,203.8c2.49,6.67,17.09,11,21.91,8.28,4.67-10.85-1.17-45.08-8.91-42.34S600.29,193.21,599.41,203.8Z"/><path class="cls-5" d="M635.58,168.37a3.4,3.4,0,0,1-1.33-.51,3.52,3.52,0,0,1-1-4.84,13.4,13.4,0,0,0,2.18-9.07,3.51,3.51,0,0,1,6.86-1.47,20.45,20.45,0,0,1-3.14,14.33A3.51,3.51,0,0,1,635.58,168.37Z"/><path class="cls-24" d="M619.42,185.38s19.71-7.07,24.24-28.78c-3.51,1.41-7.6,0-9.79-1.5-2.55,19-16.5,23.44-16.5,23.44"/><path class="cls-5" d="M628.76,158.61c0,11-7.85,19.56-18.82,19.56-6.16,0-12.73-1.46-16.37-5.69-2.84-3.3-3.49-8.75-3.49-13.56a19.86,19.86,0,0,1,19.86-19.86C620.91,139.06,628.76,147.65,628.76,158.61Z"/><path class="cls-55" d="M615.79,177.29a21.17,21.17,0,0,0,11.8-10.21c4.18-8,4.09-19.2-7.73-26.51-13.19-8.14-26.14,2.78-33.73,3.36,2.48,2,7,1.76,7,1.76a17.78,17.78,0,0,1-8.61,5.84c6.72,3.57,20.15-.44,20.15-.44a17,17,0,0,1-6.13,4c7.93,2.91,18.83,0,18.83,0s-.73,7.68-1.75,12.93c1.84-3,1.75-5.26,2.92-6s2.28,0,3,.9a3,3,0,0,1,0,3.64,6.68,6.68,0,0,1-3.43,3C618.25,172.11,615.79,177.29,615.79,177.29Z"/><path class="cls-11" d="M596.35,165.36a2.3,2.3,0,0,1,0-4.6,2.26,2.26,0,0,1,1.37.46"/><circle class="cls-51" cx="638.22" cy="148.61" r="5.57"/><circle class="cls-12" cx="592.06" cy="158.01" r="1.24"/><circle class="cls-12" cx="610.82" cy="163.06" r="1.24"/><path class="cls-51" d="M597.3,168s3.05,2.94,8.9,2.29c-.36,3.26-3.36,6.57-6.13,5.23S597.3,168,597.3,168Z"/><circle class="cls-51" cx="595.88" cy="191.61" r="5.57"/><path class="cls-5" d="M590.31,187.74c0-2.36,6.77-3,9.1-2.36s-1.69,4.57-3.53,4.57S590.31,190.1,590.31,187.74Z"/><circle class="cls-51" cx="400.25" cy="277.99" r="5.57"/><circle class="cls-10" cx="347.81" cy="277.99" r="5.57"/><circle class="cls-24" cx="346.38" cy="296.89" r="5.57"/></svg>