<svg id="レイヤー_1" data-name="レイヤー 1" xmlns="http://www.w3.org/2000/svg" xmlns:xlink="http://www.w3.org/1999/xlink" viewBox="0 0 978.89 248"><defs><style>.cls-1,.cls-13,.cls-24,.cls-8{fill:none;}.cls-2,.cls-23{fill:#f5e929;}.cls-10,.cls-11,.cls-14,.cls-15,.cls-16,.cls-17,.cls-18,.cls-2,.cls-21,.cls-22,.cls-26,.cls-27,.cls-28,.cls-29,.cls-3,.cls-30,.cls-4,.cls-5,.cls-6,.cls-7,.cls-8,.cls-9{stroke:#41210d;}.cls-10,.cls-11,.cls-13,.cls-14,.cls-15,.cls-16,.cls-17,.cls-18,.cls-2,.cls-21,.cls-22,.cls-26,.cls-27,.cls-28,.cls-29,.cls-3,.cls-30,.cls-4,.cls-5,.cls-6,.cls-7,.cls-8,.cls-9{stroke-linecap:round;stroke-linejoin:round;}.cls-3{fill:#f2e634;}.cls-4{fill:#de5511;}.cls-5{fill:#943423;}.cls-6{fill:#f2d9bd;}.cls-7{fill:#b4b3b3;}.cls-9{fill:#e6e6e5;}.cls-10{fill:#1b96ce;}.cls-11{fill:#ccc;}.cls-12{clip-path:url(#clip-path);}.cls-13,.cls-24{stroke:#e7211a;}.cls-13{stroke-width:2px;}.cls-14,.cls-25{fill:#e7211a;}.cls-15{fill:#fccb00;}.cls-16{fill:#5f3819;}.cls-17{fill:#fff;}.cls-18{fill:#bfd78c;}.cls-19{clip-path:url(#clip-path-3);}.cls-20,.cls-21{fill:#41210d;}.cls-22{fill:#534741;}.cls-24{stroke-miterlimit:10;stroke-width:6px;}.cls-26{fill:#1b9a47;}.cls-27{fill:#d71718;}.cls-28{fill:#0863a7;}.cls-29{fill:#f4e028;}.cls-30{fill:#ef94ae;}</style><clipPath id="clip-path"><path id="SVGID" class="cls-1" d="M303,100c1.47,2.41,7.35,7.92,7.34,10s-7.39,7.83-7.77,10.4,2.66,6.49,5,7.18c4.13,1.21,13.94-13.64,13.4-17.85a22,22,0,0,0-3-8,16.24,16.24,0,0,0,3.6-10c0-2.78-19.24-2.19-19.83,0A12.17,12.17,0,0,0,303,100Z"/></clipPath><clipPath id="clip-path-3"><path id="SVGID-3" data-name="SVGID" class="cls-1" d="M207,154.19c-3.25,1.25-.18,9.19-2.42,14.77-1.23,3.06-6.29,5-10.61,4.74-3.55-.2-6.6-2.14-6.6-3.79a8.07,8.07,0,0,1,4.68-7.19,3.47,3.47,0,0,1,3.49.51c.56-2.63-2.69-8.68-4.38-14.23s-.09-8.68-.09-8.68,15.07-10.46,21.38-2.86c3.16,3.8,7.91,12.47,11.46,20.09,2.39,5.15,3.85,9.4,4.11,12.36a6.67,6.67,0,0,1-.54,3.4c-1.59,1.82-6,1.65-8.71.13a5.67,5.67,0,0,1-2.29-3.05c-.6-2.12-.38-5-1.43-7.34C212.58,157.6,208.85,153.48,207,154.19Z"/></clipPath></defs><title>コミュニケーション</title><line class="cls-2" x1="516.56" y1="183.22" x2="520.81" y2="183.22"/><polygon class="cls-3" points="23.57 240.39 10.36 240.78 221.63 125.04 224.51 130.3 23.57 240.39"/><path class="cls-4" d="M492.5,220.42l-7.9,4.35a1.37,1.37,0,0,0,.66,2.57h25.18A15.72,15.72,0,0,0,518,225.4l7.9-4.35a1.37,1.37,0,0,0-.66-2.57H500.06A15.61,15.61,0,0,0,492.5,220.42Z"/><path class="cls-4" d="M517.72,221.26l-10.46-48.93a2.05,2.05,0,0,0-4,0l-10.46,48.93a1.78,1.78,0,0,0-.13.64c0,2.53,5.64,4.58,12.6,4.58s12.6-2,12.6-4.58A1.78,1.78,0,0,0,517.72,221.26Z"/><circle class="cls-5" cx="501.22" cy="216.34" r="1.94"/><circle class="cls-5" cx="502.35" cy="202.2" r="1.94"/><circle class="cls-5" cx="503.48" cy="188.07" r="1.94"/><path class="cls-4" d="M559.51,182.44l-7.91,4.35a1.37,1.37,0,0,0,.67,2.57h25.18a15.57,15.57,0,0,0,7.55-1.94l7.9-4.35a1.37,1.37,0,0,0-.66-2.57H567.06A15.68,15.68,0,0,0,559.51,182.44Z"/><path class="cls-4" d="M584.72,183.41l-10.45-48.93a2.06,2.06,0,0,0-4,0l-10.45,48.93a1.61,1.61,0,0,0-.14.64c0,2.53,5.64,4.58,12.6,4.58s12.61-2,12.61-4.58A1.8,1.8,0,0,0,584.72,183.41Z"/><circle class="cls-5" cx="568.22" cy="178.48" r="1.94"/><circle class="cls-5" cx="569.35" cy="164.35" r="1.94"/><circle class="cls-5" cx="570.48" cy="150.22" r="1.94"/><path class="cls-6" d="M284.73,98.35A4.3,4.3,0,0,1,283.6,90c16-5.63,19.36-21.2,19.39-21.35a4.3,4.3,0,1,1,8.42,1.72c-.17.83-4.41,20.5-25,27.73A4.17,4.17,0,0,1,284.73,98.35Z"/><path class="cls-7" d="M308.64,62a9.37,9.37,0,0,0-5.55,4.39c-1.9,3.28-2.92,8.16-5.28,11.54-4.44,6.34-10.2,9.76-12.53,10.65a15.76,15.76,0,0,0,3.58,9.21c7.25-1.2,17.36-12.88,20.76-19.5S316.26,60.09,308.64,62Z"/><path class="cls-8" d="M294.68,124.8a4.3,4.3,0,0,1-2-8.1c11.77-6.19,17.52-20.86,17.58-21a4.3,4.3,0,0,1,8,3.06c-.28.73-6.92,17.83-21.61,25.56A4.37,4.37,0,0,1,294.68,124.8Z"/><path class="cls-8" d="M294.13,116.84s-2.68-.8-4.16.12c-.87.55-.4,4.34.71,7.32.55,1.48.28,2.6,1.38,5.27.46,1.12,1.57,1,2.27,1s1.69-1.37,1.34-2.09-.9-.34-1.12-1.18,1.1-3.9,1.1-3.9Z"/><path class="cls-9" d="M293.61,115.86a10.9,10.9,0,0,0-5,0,2.23,2.23,0,0,0-1.62,2.37c0,1.06,1.17,3.32,1.76,5.84s.21,5.09,1.12,6.52,2.32,1.08,3.38.87a3.19,3.19,0,0,0,2.11-2.44,1.48,1.48,0,0,0-.77-1.5c-.29-.13-.6,0-1-.36-.58-.5.61-3.74.61-3.74S289.94,120.68,293.61,115.86Z"/><path class="cls-10" d="M295,115.86a10.91,10.91,0,0,0-5,0,2.23,2.23,0,0,0-1.61,2.37c0,1.06,1.17,3.32,1.75,5.84s.21,5.09,1.13,6.52,2.32,1.08,3.38.87A3.21,3.21,0,0,0,296.8,129a1.48,1.48,0,0,0-.78-1.5c-.28-.13-.6,0-1-.36-.58-.5.61-3.74.61-3.74S291.38,120.68,295,115.86Z"/><path class="cls-9" d="M306.27,139.55l-2.06,1.1c-1.3.69-3.31-1.75-4.34-4.17a6.08,6.08,0,0,0-1.39-3.32c-2.14-2.38-3.84-6.19-3.64-6.85.32-1,2.74-1.45,2.74-1.45Z"/><path class="cls-10" d="M300.32,123.4c.08,3.47,2.27,7.57,4.37,7.94a4.65,4.65,0,0,1,.89,8.58c-1.3.69-3.31-1.74-4.34-4.16l-5-10.18A8.22,8.22,0,0,1,300.32,123.4Z"/><path class="cls-11" d="M293.73,115.88l3.41-2.12c0,5.83,3.87,7.85,3.87,7.85l-3.65,2.32A12,12,0,0,1,293.73,115.88Z"/><path class="cls-11" d="M299.51,123.22s.1,3.53,4.88,7.11l3.19-2.73c-3.51-2.22-5-7.18-5-7.18Z"/><path class="cls-7" d="M319.46,96.42c0,6.08-13.15,26.39-18.45,25.19-3.2-1.19-4.43-5-3.87-7.85.76-3.74,4-5,7.33-9.29a35.68,35.68,0,0,0,5.7-10.66C312,87.56,319.46,90.33,319.46,96.42Z"/><g class="cls-12"><path class="cls-13" d="M305.15,94.94s8.39,11.6,8.39,14.83-10.4,12.12-10.4,12.12"/></g><path class="cls-7" d="M303,100c1.47,2.41,7.35,7.92,7.34,10s-7.39,7.83-7.77,10.4,2.66,6.49,5,7.18c4.13,1.21,13.94-13.64,13.4-17.85a22,22,0,0,0-3-8,16.24,16.24,0,0,0,3.6-10c0-2.78-19.24-2.19-19.83,0A12.17,12.17,0,0,0,303,100Z"/><g class="cls-12"><path class="cls-13" d="M305.15,94.94s8.39,11.6,8.39,14.83-10.4,12.12-10.4,12.12"/></g><path class="cls-8" d="M303,100c1.47,2.41,7.35,7.92,7.34,10s-7.39,7.83-7.77,10.4,2.66,6.49,5,7.18c4.13,1.21,13.94-13.64,13.4-17.85a22,22,0,0,0-3-8,16.24,16.24,0,0,0,3.6-10c0-2.78-19.24-2.19-19.83,0A12.17,12.17,0,0,0,303,100Z"/><path class="cls-7" d="M305.86,67.78c-3.19,8.91-4.37,21.49-4.37,27,8.57,2.59,13.32,2.06,19.71,0,1.45-12.08,3.72-36.15-6.39-36.78-2.21-.13-4.09,1.11-5.68,3.23"/><path class="cls-6" d="M317.94,101.7A6.15,6.15,0,0,0,315.7,99"/><path class="cls-14" d="M205.39,138.83a1,1,0,0,1-.5-1.87l80.62-44.52a1,1,0,0,1,1.36.39,1,1,0,0,1-.4,1.36l-80.62,44.52A.93.93,0,0,1,205.39,138.83Z"/><circle class="cls-15" cx="253.92" cy="113.76" r="11.26"/><path class="cls-14" d="M224.89,143.7a1,1,0,0,1-.89-.52,1,1,0,0,1,.39-1.36L305,97.3a1,1,0,1,1,1,1.75l-80.62,44.53A.93.93,0,0,1,224.89,143.7Z"/><path class="cls-16" d="M223.87,114.38c-20.54,2.14-42.09-3.42-42.09-3.42l45.81-42.23S237.51,94.42,223.87,114.38Z"/><path class="cls-6" d="M210.11,124.3a18.3,18.3,0,0,0,3.9,9.12c2.32,2.61,5.53,3.93,9.83,4a4.3,4.3,0,0,1-.11,8.59h-.11c-6.74-.18-12.14-2.52-16.07-7-3.67-4.16-5.3-9.44-6-13.87"/><path class="cls-8" d="M219.34,177.43c-.85,2.56-2.1,5.16-.85,5.91,3.36,2,10,.09,12.14-1.88s4-3.29,2.82-3.93S225.86,182,219.34,177.43Z"/><path class="cls-8" d="M187.33,157.77a3.12,3.12,0,0,1,1.22,2.33s-2.35,7.58-5.88,6.26-10.22-4.92-9.25-7.51c.51-1.37,1.63-.08,5.62-.49C182.58,158,186.76,157.34,187.33,157.77Z"/><path class="cls-8" d="M173.42,158.85c0,.59,3.31,1.1,6.42,1.29a12.9,12.9,0,0,0,4.16,0c2.72-.58,3.56-2,3.33-2.37s-3.53-.19-6-.14C177.31,157.71,173.46,158,173.42,158.85Z"/><path class="cls-8" d="M226.07,166.51c-4-15-12.23-23.79-12.66-24.23a4.29,4.29,0,0,0-6.22,5.92,52,52,0,0,1,10.38,19.86A12.89,12.89,0,0,0,226.07,166.51Z"/><path class="cls-8" d="M223.72,182.56l.34,0a4.29,4.29,0,0,0,3.95-4.61,63.91,63.91,0,0,0-1.94-11.42,12.89,12.89,0,0,1-8.5,1.55,55.21,55.21,0,0,1,1.88,10.53A4.29,4.29,0,0,0,223.72,182.56Z"/><path class="cls-8" d="M200.22,146.33a4.3,4.3,0,0,0-7.74,3.73c2.67,5.55,4.45,12.27,3.78,14.15a4,4,0,0,1-2.29-.5c-1,1.26-2.14,3.82-1.22,8.63a12.38,12.38,0,0,0,3.3.49,8.92,8.92,0,0,0,5.62-1.92C208.5,165.6,202.93,152,200.22,146.33Z"/><path class="cls-17" d="M194,163.71a20.57,20.57,0,0,1-5.42-3.61,4.29,4.29,0,1,0-5.88,6.26c.73.68,5.08,4.61,10.08,6C191.83,167.53,192.94,165,194,163.71Z"/><path class="cls-17" d="M219.34,179s5.79,3.89,8.67.5a52.36,52.36,0,0,0,7.22-1.91,12.88,12.88,0,0,1,.41,2.51c0,1-1.84,3.29-5.31,4.51-1.1.38-4.24,0-5.63.42-3,1-6.31.38-6.74-.9C217.35,182.29,219.34,179,219.34,179Z"/><path class="cls-18" d="M219.34,177.43s5.79,3.89,8.67.5c3.14-.5,1.8-2.15,4.71-2.15a2.69,2.69,0,0,1,2.55,2.15c0,1-1.47,3.89-4.94,5.11-1.1.38-4.24,0-5.63.42-3,1-6.31.38-6.74-.9C217.35,180.68,219.34,177.43,219.34,177.43Z"/><path class="cls-18" d="M189.47,160.9s.17-2.84-1.51-4.31-15.17-.71-16.79.67-1.4,2.89-.52,3.89,6.15,3.85,10.29,5.11C182.75,160,189.47,160.9,189.47,160.9Z"/><path class="cls-17" d="M187.91,156.58c-.09-.06-.17-.13-.27-.19-.6-.41-6.65-.73-10.91-.09l-6.42.62.05,1.27c-1.25,2.62,18.75,1.07,18.75.22l0-1.34Z"/><path class="cls-11" d="M170.31,156.92c-1.26,2.62,18.76,1,18.76.15s-.58-1.42-1.47-2S171.56,154.3,170.31,156.92Z"/><path class="cls-7" d="M207,154.19c-3.25,1.25-.18,9.19-2.42,14.77-1.23,3.06-6.29,5-10.61,4.74-3.55-.2-6.6-2.14-6.6-3.79a8.07,8.07,0,0,1,4.68-7.19,3.47,3.47,0,0,1,3.49.51c.56-2.63-2.69-8.68-4.38-14.23s-.09-8.68-.09-8.68,15.07-10.46,21.38-2.86c3.16,3.8,7.91,12.47,11.46,20.09,2.39,5.15,3.85,9.4,4.11,12.36a6.67,6.67,0,0,1-.54,3.4c-1.59,1.82-6,1.65-8.71.13a5.67,5.67,0,0,1-2.29-3.05c-.6-2.12-.38-5-1.43-7.34C212.58,157.6,208.85,153.48,207,154.19Z"/><g class="cls-19"><path class="cls-13" d="M194,141.89s6.54,21,4.53,24.37-11.13.25-11.13.25"/></g><path class="cls-8" d="M207,154.19c-3.25,1.25-.18,9.19-2.42,14.77-1.23,3.06-6.29,5-10.61,4.74-3.55-.2-6.6-2.14-6.6-3.79a8.07,8.07,0,0,1,4.68-7.19,3.47,3.47,0,0,1,3.49.51c.56-2.63-2.69-8.68-4.38-14.23s-.09-8.68-.09-8.68,15.07-10.46,21.38-2.86c3.16,3.8,7.91,12.47,11.46,20.09,2.39,5.15,3.85,9.4,4.11,12.36a6.67,6.67,0,0,1-.54,3.4c-1.59,1.82-6,1.65-8.71.13a5.67,5.67,0,0,1-2.29-3.05c-.6-2.12-.38-5-1.43-7.34C212.58,157.6,208.85,153.48,207,154.19Z"/><path class="cls-11" d="M189.11,160.6l2.94,2.12a11.7,11.7,0,0,0-4.68,7.19l-3.27-2.4A10.18,10.18,0,0,1,189.11,160.6Z"/><path class="cls-11" d="M218.77,173.44l.57,4s4.73,2,8.63,0l-.49-4.12C223.37,175.37,218.77,173.44,218.77,173.44Z"/><path class="cls-7" d="M210.75,97C201.94,96.39,190,133.61,190,143.9c12,1.55,22-.35,23.89-4.54C208.07,128.78,219.57,97.64,210.75,97Z"/><path class="cls-7" d="M210.58,118.22s-1.08,16.11,12,18.61a10.2,10.2,0,0,1-.45,9.67c-23.62-1.43-21.83-28.28-21.83-28.28"/><path class="cls-6" d="M234.91,84.43c.55,6.25-.31,11.29-3.65,15.53-4.31,5.46-12.13,9.33-20.16,10-14.27,1.25-26.64-6.76-27.89-21a25.95,25.95,0,1,1,51.7-4.53Z"/><path class="cls-6" d="M221.58,92.77a2.59,2.59,0,1,1,0,3.3"/><circle class="cls-20" cx="229.84" cy="85.43" r="1.39"/><circle class="cls-20" cx="210.34" cy="93.55" r="1.39"/><path class="cls-8" d="M216,101.9s5.4,6.62,9.15-.63"/><path class="cls-21" d="M220.69,73.58A73.89,73.89,0,0,0,217,90.31c-1-11.1-.54-15.75-.54-15.75A84.51,84.51,0,0,0,203.42,92.9a97.7,97.7,0,0,1,7-16.64L200.25,86.43s-.59,11.3,2.45,28.44c-17.46-.72-32.79-6.74-41.07-14.09,12.44-2.6,20.76-22.91,26.13-30.78s16.55-10.89,24.43-10,17.27,6.35,20.22,15.7c-3-2.64-5.73-2.46-5.73-2.46s3.58,2.41,3.76,5.46A29.56,29.56,0,0,0,220.69,73.58Z"/><path class="cls-6" d="M322.81,73.31a46.22,46.22,0,0,1-16.33,27.27,4.29,4.29,0,1,1-5.35-6.72,37.5,37.5,0,0,0,13-21.2"/><path class="cls-7" d="M318.88,60.13s5.68,3.45,5.68,8.73c0,2.69-1.42,10.13-4.65,16.73-3.12,6.37-6.61,10.74-12.44,14.34a12.27,12.27,0,0,1-5.55-7.36c5.83-5.61,11.37-13.33,12.26-24.42"/><path class="cls-22" d="M313.24,13.65c-4.11-.26-7.08,1.47-9.59,3.55C299.33,20.79,297,30.85,292,36.1s-12.71,5.95-17.32,9.32A25.19,25.19,0,0,0,266.49,56,77.26,77.26,0,0,1,278,51.06c5.64-1.93,12.81-3.15,18.81-7.08,10.93-7.17,18.19-19.7,19.57-21.2C319.37,19.47,317.86,14,313.24,13.65Z"/><path class="cls-6" d="M332.61,42.29c0,13-11,21.44-23.95,21.44-5.82,0-11.78-.28-15.78-3.33-4.92-3.75-7.25-11-7.25-18.11a23.49,23.49,0,0,1,47,0Z"/><path class="cls-6" d="M300.42,54.32a2.15,2.15,0,1,1,0-3.07"/><path class="cls-14" d="M298.59,57.32a15.4,15.4,0,0,0,8.52.7c.18,2.11-1.07,3.74-2.86,3.74S300,60.81,298.59,57.32Z"/><circle class="cls-20" cx="290.29" cy="49" r="1.34"/><circle class="cls-20" cx="310.87" cy="51.06" r="1.34"/><path class="cls-22" d="M332.61,42.29a23.49,23.49,0,0,0-46.95-1.07c.39-.67,5.61-9.18,14.76-3.59,14.1-7.43,22.07,5.37,23.69,10s2.06,6.88,1.21,10.36A20.1,20.1,0,0,0,332.61,42.29Z"/><path class="cls-6" d="M321.31,45.92a3.26,3.26,0,0,1,1.67-1.7c1.81-.77,4,.35,4.91,2.48s.19,4.49-1.61,5.26a3.37,3.37,0,0,1-3.06-.3"/><path class="cls-4" d="M510.3,178.54c0-.08-.07-.15-.19-.22l.09.38A.22.22,0,0,0,510.3,178.54Z"/><path class="cls-23" d="M505.25,177.69a6.48,6.48,0,0,1-3.27-.61.48.48,0,0,1-.16-.48l.93-4.37a2.55,2.55,0,0,1,5,0l.93,4.37a.48.48,0,0,1-.16.48A6.48,6.48,0,0,1,505.25,177.69Z"/><path class="cls-20" d="M505.25,170.7a2,2,0,0,1,2,1.63l.85,4,.09.38a9.13,9.13,0,0,1-5.9,0l.09-.38.85-4a2,2,0,0,1,2-1.63m0-1a3,3,0,0,0-3,2.42l-.85,4-.08.37a1,1,0,0,0,.33,1c.78.65,2.77.72,3.59.72s2.81-.07,3.59-.72a1,1,0,0,0,.33-1l-.08-.38-.85-4a3,3,0,0,0-3-2.42Z"/><path class="cls-23" d="M572.25,139.84a6.44,6.44,0,0,1-3.26-.61.49.49,0,0,1-.17-.49l.93-4.37a2.56,2.56,0,0,1,5,0l.94,4.37a.51.51,0,0,1-.17.49A6.45,6.45,0,0,1,572.25,139.84Z"/><path class="cls-20" d="M572.25,132.85a2,2,0,0,1,2,1.63l.85,4,.08.38a9.1,9.1,0,0,1-5.89,0l.08-.38.85-4a2,2,0,0,1,2-1.63m0-1a3,3,0,0,0-3,2.42l-.85,4-.08.38a1,1,0,0,0,.34,1c.78.66,2.77.73,3.58.73s2.81-.07,3.59-.73a1,1,0,0,0,.34-1l-.08-.38-.86-4a3,3,0,0,0-3-2.42Z"/><line class="cls-2" x1="587.96" y1="131.29" x2="583.71" y2="131.29"/><line class="cls-2" x1="587.96" y1="136.37" x2="583.71" y2="136.37"/><line class="cls-2" x1="587.96" y1="141.46" x2="583.71" y2="141.46"/><line class="cls-2" x1="587.96" y1="151.64" x2="583.71" y2="151.64"/><line class="cls-2" x1="587.96" y1="156.73" x2="583.71" y2="156.73"/><line class="cls-2" x1="587.96" y1="161.82" x2="583.71" y2="161.82"/><line class="cls-2" x1="587.96" y1="166.91" x2="583.71" y2="166.91"/><line class="cls-2" x1="587.96" y1="172" x2="583.71" y2="172"/><line class="cls-2" x1="587.96" y1="177.08" x2="583.71" y2="177.08"/><line class="cls-2" x1="587.96" y1="182.17" x2="583.71" y2="182.17"/><polygon class="cls-21" points="575.46 133.5 583.71 131.28 583.71 182.92 575.46 133.5"/><line class="cls-2" x1="521.05" y1="167.92" x2="516.8" y2="167.92"/><line class="cls-2" x1="521.05" y1="173.01" x2="516.8" y2="173.01"/><line class="cls-2" x1="521.05" y1="178.1" x2="516.8" y2="178.1"/><line class="cls-2" x1="521.05" y1="188.28" x2="516.8" y2="188.28"/><line class="cls-2" x1="521.05" y1="193.37" x2="516.8" y2="193.37"/><line class="cls-2" x1="521.05" y1="198.46" x2="516.8" y2="198.46"/><line class="cls-2" x1="521.05" y1="203.54" x2="516.8" y2="203.54"/><line class="cls-2" x1="521.05" y1="208.63" x2="516.8" y2="208.63"/><line class="cls-2" x1="521.05" y1="213.72" x2="516.8" y2="213.72"/><line class="cls-2" x1="521.05" y1="218.81" x2="516.8" y2="218.81"/><polygon class="cls-21" points="508.55 170.13 516.8 167.92 516.8 219.55 508.55 170.13"/><path class="cls-14" d="M510.57,199.76a1,1,0,0,1-.89-.52,1,1,0,0,1,.39-1.36l80.67-44.43a1,1,0,1,1,1,1.75L511,199.63A1.14,1.14,0,0,1,510.57,199.76Z"/><line class="cls-2" x1="584.09" y1="146.09" x2="588.34" y2="146.09"/><path class="cls-24" d="M265.81,137.91s20.33,3.58,33.48,15.26,19.15,31.48,21,45.42c3.68,27.89,79.77,18.21,84.58,2,2.53-8.53,10.23-14.23,16.93-17.71"/><polygon class="cls-25" points="422.81 191.79 432.99 178.48 416.38 176.32 422.81 191.79"/><path class="cls-26" d="M932.79,212.08c-16.82,0-30-6-30-13.61s13.18-13.61,30-13.61,30,6,30,13.61S949.62,212.08,932.79,212.08Zm0-24.66c-16.53,0-27.64,5.72-27.64,11.05s11.11,11.05,27.64,11.05,27.64-5.72,27.64-11.05S949.33,187.42,932.79,187.42Z"/><path class="cls-27" d="M932.79,209.67c-16.82,0-30-6-30-13.62s13.18-13.61,30-13.61,30,6,30,13.61S949.62,209.67,932.79,209.67Zm0-24.66c-16.53,0-27.64,5.71-27.64,11s11.11,11,27.64,11,27.64-5.71,27.64-11S949.33,185,932.79,185Z"/><path class="cls-28" d="M932.79,207.25c-16.82,0-30-6-30-13.61S916,180,932.79,180s30,6,30,13.62S949.62,207.25,932.79,207.25Zm0-24.66c-16.53,0-27.64,5.71-27.64,11s11.11,11,27.64,11,27.64-5.71,27.64-11S949.33,182.59,932.79,182.59Z"/><path class="cls-29" d="M932.79,204.83c-16.82,0-30-6-30-13.61s13.18-13.61,30-13.61,30,6,30,13.61S949.62,204.83,932.79,204.83Zm0-24.66c-16.53,0-27.64,5.72-27.64,11.05s11.11,11.05,27.64,11.05,27.64-5.72,27.64-11.05S949.33,180.17,932.79,180.17Z"/><path class="cls-26" d="M932.79,202.42c-16.82,0-30-6-30-13.62s13.18-13.61,30-13.61,30,6,30,13.61S949.62,202.42,932.79,202.42Zm0-24.66c-16.53,0-27.64,5.71-27.64,11s11.11,11,27.64,11,27.64-5.71,27.64-11S949.33,177.76,932.79,177.76Z"/><path class="cls-27" d="M932.79,200c-16.82,0-30-6-30-13.61s13.18-13.62,30-13.62,30,6,30,13.62S949.62,200,932.79,200Zm0-24.66c-16.53,0-27.64,5.71-27.64,11s11.11,11,27.64,11,27.64-5.71,27.64-11S949.33,175.34,932.79,175.34Z"/><path class="cls-28" d="M932.79,197.58c-16.82,0-30-6-30-13.61s13.18-13.61,30-13.61,30,6,30,13.61S949.62,197.58,932.79,197.58Zm0-24.66c-16.53,0-27.64,5.71-27.64,11.05S916.26,195,932.79,195s27.64-5.72,27.64-11.05S949.33,172.92,932.79,172.92Z"/><path class="cls-29" d="M932.79,195.17c-16.82,0-30-6-30-13.62s13.18-13.61,30-13.61,30,6,30,13.61S949.62,195.17,932.79,195.17Zm0-24.66c-16.53,0-27.64,5.71-27.64,11s11.11,11,27.64,11,27.64-5.71,27.64-11S949.33,170.51,932.79,170.51Z"/><ellipse class="cls-30" cx="270.82" cy="198.59" rx="16.17" ry="6.48"/><ellipse class="cls-30" cx="364.49" cy="198.59" rx="16.17" ry="6.48"/><ellipse class="cls-30" cx="454.86" cy="198.59" rx="16.17" ry="6.48"/><ellipse class="cls-30" cx="635.61" cy="198.59" rx="16.17" ry="6.48"/><ellipse class="cls-30" cx="725.98" cy="198.59" rx="16.17" ry="6.48"/><ellipse class="cls-30" cx="816.35" cy="198.59" rx="16.17" ry="6.48"/></svg>