<svg id="レイヤー_1" data-name="レイヤー 1" xmlns="http://www.w3.org/2000/svg" viewBox="0 0 219 172.78"><defs><style>.cls-1,.cls-6{fill:#f5dcbe;}.cls-1,.cls-10,.cls-11,.cls-2,.cls-3,.cls-4,.cls-5,.cls-6,.cls-7,.cls-9{stroke:#40220f;}.cls-1,.cls-2{stroke-miterlimit:10;}.cls-12,.cls-2{fill:#fff;}.cls-3{fill:#c9caca;}.cls-10,.cls-11,.cls-3,.cls-4,.cls-5,.cls-6,.cls-7,.cls-9{stroke-linecap:round;stroke-linejoin:round;}.cls-4{fill:#7a6a56;}.cls-5{fill:#036eb8;}.cls-7{fill:#e60012;}.cls-8{fill:#40220f;}.cls-9{fill:none;}.cls-10{fill:#d3edf9;}.cls-11{fill:#6a3906;}.cls-13{fill:#2f1f1b;}</style></defs><title>06.水分補給1</title><path class="cls-1" d="M199.34,96.94h-.16C179.85,79.23,153,78.18,151.82,78.14a3.93,3.93,0,0,0-.25,7.86c.25,0,24.75,1,41.88,16.37a5.24,5.24,0,1,0,5.89-5.43Z"/><path class="cls-1" d="M158.43,134.91a4,4,0,0,1-1.13-.17L96.05,116.38a3.94,3.94,0,0,1,2.26-7.54l61.24,18.36a3.94,3.94,0,0,1-1.12,7.71Z"/><path class="cls-1" d="M182.13,154.75a6.8,6.8,0,0,1-2.15-.31c-12.76-4.34-17.78-23.48-18-24.29a3.93,3.93,0,1,1,7.62-2c1.13,4.36,5.59,16.15,12.74,18.74h.05c2.22,0,10.08-3.49,17.09-7.61a3.94,3.94,0,0,1,4,6.79C196.48,150.22,187.54,154.75,182.13,154.75Z"/><path class="cls-2" d="M98.31,108.84a3.94,3.94,0,0,0-2.26,7.54l18.17,5.44,1.8-7.67Z"/><path class="cls-2" d="M204.87,140.73a3.93,3.93,0,0,0-5.38-1.4,92.37,92.37,0,0,1-13.79,6.75l2.52,7.44a88.24,88.24,0,0,0,15.25-7.4A3.94,3.94,0,0,0,204.87,140.73Z"/><path class="cls-3" d="M99.51,117.41a16.33,16.33,0,0,1-7.81-.58l-3-19.39s5.93-1.1,7.5,1.69c2.06,3.65,0,4.92.17,6.27a5.89,5.89,0,0,0,1.89,3.44C96.62,111.21,97.84,115.25,99.51,117.41Z"/><path class="cls-3" d="M199,139.07a16.36,16.36,0,0,1,7.82.34l3.54,19.29s-5.89,1.28-7.54-1.45c-2.17-3.59-.15-4.93-.37-6.26a5.88,5.88,0,0,0-2-3.39C202.1,145.18,200.76,141.18,199,139.07Z"/><path class="cls-4" d="M151.26,135.54s9.55,11.33,16.29,16c6.19-3.36,9.28-6.16,15.17-11.79a100.16,100.16,0,0,0-10.95-17Z"/><path class="cls-4" d="M125.56,133.57c9.79,3.26,16.1,4.22,25.7,5.2,9.08.93,17.62-.31,20.51-3,5.68-5.2,6.13-13.06,3.3-24.43-13.2,0-31.25,6.87-31.25,6.87l-14.33-1.82A89.62,89.62,0,0,1,125.56,133.57Z"/><path class="cls-5" d="M116.9,89.66s11.18,1.35,21-1.17S135.39,75,135.39,75l-20.23,1.41Z"/><path class="cls-5" d="M131.6,72.61c4.21,24.51,8.28,39.29,11.28,46.59,1.51,2.09,17.17,4.12,33.85-.09-1.07-5.66-3.35-17.54-9.74-27.11C158.78,79.69,145,70.24,131.6,72.61Z"/><path class="cls-5" d="M145.81,74.18s21.74.58,30,5.88c-3.93,6.88-5,9-6.5,15.89a85,85,0,0,0-15.18-3.67"/><path class="cls-6" d="M131.91,17.9a32.31,32.31,0,0,0-31.63,33c0,1.29.09,2.58.2,3.84a3.37,3.37,0,1,0-2.31,5.82A3.35,3.35,0,0,0,101,59c1,6.11,3.33,11.47,7.63,14.7,5.67,4.28,15.11,4.61,23.69,4.43,17.84-.37,32.92-10.72,32.55-28.56A32.32,32.32,0,0,0,131.91,17.9Z"/><path class="cls-7" d="M108.42,66.57s12.07-.16,12.08,4.64c0,3.63-7,3.74-7,.44S108.42,66.57,108.42,66.57Z"/><circle class="cls-8" cx="112.93" cy="52.81" r="2.23"/><line class="cls-9" x1="109.26" y1="46.07" x2="116.71" y2="42.7"/><path class="cls-10" d="M134.67,66.44a2.14,2.14,0,0,1-4,1.4c-.38-1.12-1.11-6.16,0-6.54S134.28,65.32,134.67,66.44Z"/><path class="cls-10" d="M194.92,47a3.05,3.05,0,0,1-.57,3.5,2.61,2.61,0,0,1-3.38,0c-1.31-1.36-.56-3.33-4.78-7C189.28,43.28,193.08,43.87,194.92,47Z"/><path class="cls-10" d="M190.3,31.16a3,3,0,0,1,.82,3.45A2.6,2.6,0,0,1,188,35.89c-1.74-.75-1.81-2.85-7.1-4.57C183.67,29.91,187.39,29,190.3,31.16Z"/><path class="cls-10" d="M125.14,50a2.14,2.14,0,0,1-4,1.4c-.38-1.12-1.11-6.16,0-6.54S124.75,48.85,125.14,50Z"/><path class="cls-11" d="M142.41,17.9c-2.22-.86-12.31-2.59-20.51,0-10,3.15-18.49,11.54-23.73,20.86A16.25,16.25,0,0,0,104.64,34l.13,6.2,4.49-4.78,4.64,3.09,4.35-4.63,4.92,6.32,2.39-5.34,7.25,16.71A43.55,43.55,0,0,1,134,44.38C140.73,55,143,75,143,75l2.83-4.7,1.38,3.93,2.53-3.93,1.42,4.7s8.15-4.14,12.34-11.71C167,57,166.8,47.68,165.59,42a38.62,38.62,0,0,0-8.43-16.43C153.57,21.27,147.05,17.9,142.41,17.9Z"/><circle class="cls-1" cx="115.16" cy="83.15" r="6.74"/><path class="cls-6" d="M134.56,46.75a4.65,4.65,0,0,1,3-2.87c2.68-.75,5.6,1.31,6.54,4.62s-.48,6.6-3.16,7.36a4.53,4.53,0,0,1-3.67-.62"/><path class="cls-12" d="M32.4,27l3,7.65,9.49,2.44,5.89-4.77h0l-1.72-9,0-.05a21.45,21.45,0,0,0-10.48-3h0Z"/><path class="cls-13" d="M45,37.38l-9.77-2.52-3.14-7.95,6.19-6.73-.17-.27h.54a21.77,21.77,0,0,1,10.62,3l.23.14-.1.2,1.68,8.79.26.14-.34.28Zm-9.34-3,9.2,2.37,5.64-4.57-1.67-8.8A21.24,21.24,0,0,0,38.75,20.5l-6,6.53Z"/><path class="cls-12" d="M34.77,57l1.64-6.52h0l-6.25-7.56h0l-7.58.52,0,0-3,8.68h0a21.36,21.36,0,0,0,6.36,7L34.77,57Z"/><path class="cls-13" d="M34.94,57.48l-.25-.19-8.84,2.13-.11-.08a21.45,21.45,0,0,1-6.44-7.09L19.17,52l.16-.09,3-8.45-.2-.31,8.63-.59-.2.31,6,7.23.33-.13-.14.55ZM26,58.8l8.56-2.07,1.56-6.21L30,43.18l-7.21.5-2.95,8.41A20.84,20.84,0,0,0,26,58.8Z"/><path class="cls-12" d="M51.12,50.51h0l-5.63-3.65-9.08,3.59L34.77,57,42,62.64a21.59,21.59,0,0,0,4-1.16,22.06,22.06,0,0,0,3.69-1.88h0Z"/><path class="cls-13" d="M46.14,61.75a21.69,21.69,0,0,1-4.09,1.17l-.13,0-7.48-5.87,1.73-6.84,9.36-3.7,6.15,4-.3.17L50.05,59.3h.67l-.84.54A21.94,21.94,0,0,1,46.14,61.75Zm-4.07.58a21.4,21.4,0,0,0,7.38-2.9l1.36-8.78-5.35-3.47-8.81,3.48-1.56,6.2Z"/><path class="cls-12" d="M22.59,43.4l7.58-.52,5.25-8.26L32.4,27l-9.16-.68a21.35,21.35,0,0,0-5.61,9.37h.06Z"/><path class="cls-13" d="M30.33,43.16l-7.89.54L17.53,36h-.28l.11-.38A21.75,21.75,0,0,1,23,26.08l.1-.09,9.47.71,3.15,8Zm-7.59-.06L30,42.6l5.1-8-2.9-7.34-8.85-.66a21.06,21.06,0,0,0-5.38,9Z"/><path class="cls-12" d="M50.8,32.29l-5.89,4.77h0l.61,9.79h0l5.63,3.65,8-4.53A21.41,21.41,0,0,0,59,36.53h0Z"/><path class="cls-13" d="M51.11,50.85,44.87,46.8l.35-.14-.58-9.37-.36-.09,6.49-5.26,8.12,4.24.23-.22.12.5A21.37,21.37,0,0,1,59.39,46l0,.12Zm-5.3-4.13,5.32,3.45,7.73-4.38a20.93,20.93,0,0,0-.15-9l-7.87-4.11-5.63,4.55Z"/><polygon class="cls-13" points="44.92 37.06 44.91 37.06 44.67 37.25 44.91 37.06 35.42 34.62 35.52 34.87 35.42 34.62 30.17 42.88 30.47 42.86 30.17 42.88 30.16 42.89 36.41 50.45 36.41 50.45 36.44 50.32 36.41 50.45 45.49 46.86 45.39 46.79 45.49 46.86 45.53 46.85 44.92 37.06"/><path class="cls-13" d="M32.32,26.78l.08.19,6.22-6.76h0a21.36,21.36,0,0,0-15.38,6.08L32.4,27Z"/><path class="cls-13" d="M32.3,27.51l-.1-.26-9.62-.72.45-.45a21.79,21.79,0,0,1,15.6-6.16h.15l.21.32-.15.16L32.74,27l.1.26-.32,0Zm-8.39-1.46,8.37.62L38,20.49a21.16,21.16,0,0,0-14.06,5.56Z"/><path class="cls-13" d="M34.74,57.07l0-.1h0l-8.86,2.14A21.4,21.4,0,0,0,42,62.64L34.77,57Z"/><path class="cls-13" d="M42.68,62.81l-.63.11a21.66,21.66,0,0,1-16.31-3.58L25.22,59l9.31-2.25.07-.26ZM26.61,59.24a21.12,21.12,0,0,0,7,2.95,20.84,20.84,0,0,0,7.71.27l-6.6-5.17Z"/><path class="cls-13" d="M59.11,46l-8,4.53.15.09-.15-.09h0l-1.4,9.09h0A21.42,21.42,0,0,0,59.11,46Z"/><path class="cls-13" d="M49.81,59.88h-.43l1.43-9.24-.24-.16.56-.32h0l8.4-4.76-.14.63a21.85,21.85,0,0,1-3.32,7.8,21.45,21.45,0,0,1-6.19,6Zm1.57-9.19L50.1,59a20.92,20.92,0,0,0,5.49-5.49,21.35,21.35,0,0,0,3.1-7Z"/><path class="cls-13" d="M50.8,32.28h0l.42-.34-.42.34L59,36.54h0a22,22,0,0,0-.89-2.79,21.23,21.23,0,0,0-9-10.53l0,.05Z"/><path class="cls-13" d="M59,36.89l-8.16-4.26h0l-.56-.29.2-.17-1.7-9,.2-.41.27.16a21.62,21.62,0,0,1,9.09,10.67,23.27,23.27,0,0,1,.9,2.83l0,.16Zm-7.67-4.66L58.52,36a20.09,20.09,0,0,0-.72-2.15,21.11,21.11,0,0,0-8.33-10.07l1.52,8,0,0,.37.45Z"/><path class="cls-13" d="M22.61,43.42l0,0-.2,0,.2,0-4.9-7.74h-.06a21.28,21.28,0,0,0,.66,13.79,22.28,22.28,0,0,0,1.26,2.65h0Z"/><path class="cls-13" d="M19.45,52.51l-.15-.26A23.67,23.67,0,0,1,18,49.56a21.81,21.81,0,0,1-1.5-7.06,21.31,21.31,0,0,1,.84-6.92l.06-.21h.43l5.25,8.29-.28,0-3,8.61ZM17.76,36.3a20.72,20.72,0,0,0-.66,6.17,21,21,0,0,0,1.46,6.88,22.46,22.46,0,0,0,.94,2.06l2.79-7.95Z"/></svg>