<svg xmlns="http://www.w3.org/2000/svg" viewBox="0 0 267.85 650.07"><defs><style>.cls-1{fill:#fff;}.cls-2{fill:#a57c52;opacity:0.5;}.cls-3{fill:#603813;}.cls-4{fill:#ff1d25;}</style></defs><title>index_ic03</title><g id="レイヤー_2" data-name="レイヤー 2"><g id="レイヤー_1-2" data-name="レイヤー 1"><path class="cls-1" d="M214.47,232.29h0a91.17,91.17,0,0,0,25-17c19.53-19.2,26.16-49.45,26.16-82.5A132.8,132.8,0,0,0,0,132.8c0,33.78,13,63.2,34.21,82.5,18.21,16.55,42.51,26.1,69.74,30h0C66.4,287.73,10.06,436.63,38.23,448.7s40.24-56.34,60.36-128.78C82.5,396.38,70.42,538.31,86.52,621.74c3.78,19.59,34.12,27.41,40.24,28.17,14.08,1.76,6.77-27.4,8-68.41,1.65-52.78,10.56-120.73,24.15-120.73,18.11,0-4.47,110.67,4,165,2.83,18.11,13.08,22.14,24.15,24.15,29.61,5.39,43-124.8,40.24-229.38-1.37-51.72-10.77-91.4-16.1-116.7,20.12,8.05,40.24,8.05,52.32-8.05S214.47,232.29,214.47,232.29Z"/><path class="cls-2" d="M232.45,288.28c-6.93-5.39-17-14.54-22.26-23.72-16.1-28.17-25.31-60.95-7.59-70.58,23.71-12.9,72.89,71.88,52.76,92"/><path class="cls-1" d="M263.59,295.78c20.12-20.12-36.22-112.68-60.37-100.61-12.89,6.45-4,44.27,12.08,72.44a76.07,76.07,0,0,0,18.95,22.14"/><circle class="cls-3" cx="82.5" cy="110.67" r="4.02"/><circle class="cls-3" cx="227.37" cy="106.64" r="4.02"/><polygon class="cls-4" points="171.03 146.88 158.96 179.08 183.1 179.08 171.03 146.88"/><path class="cls-2" d="M159.07,101c0-6.67,4.51-11.2,11-12.67,4.28-1,10.56.8,13,3.31s3.72,7.69,3.14,11c-1.17,6.55-7.16,12.07-13.83,12.07"/><path class="cls-1" d="M159,102.62A12.07,12.07,0,1,1,171,114.69"/></g></g></svg>