<svg xmlns="http://www.w3.org/2000/svg" viewBox="0 0 289.41 336.85"><defs><style>.cls-1,.cls-3{fill:#b2b2b2;}.cls-2{fill:#fff;}.cls-3{stroke:#fff;stroke-linecap:round;stroke-linejoin:round;}.cls-4{fill:#754c24;}</style></defs><title>index_ic01</title><g id="レイヤー_2" data-name="レイヤー 2"><g id="レイヤー_1-2" data-name="レイヤー 1"><path class="cls-1" d="M79.41,216.93a46.45,46.45,0,0,1-7,2.33c-2.53.49-3.52-.34-3.89.78s.23,2.73,2.57,2.46c2.51-.28,6.77-2.46,6.77-2.46Z"/><path class="cls-1" d="M165.05,160.87c-9,3-19.9,16.48-33.48,30.36-12.25,12.53-27.35,24.67-32.7,42.05-5.63,18.28-2.57,37.82,0,54.5,2,12.76,10.52,28.67,12.46,35.81.9,3.32-.87,3.27,0,4.68,3.22,5.19,16.37,4.31,17.13-6.23.23-3.3-2.94-6.71-4.67-10.9A149.39,149.39,0,0,1,116,286.22c-4.15-19.35-1.29-37.69,1.56-37.37,3.35.37,14,23.87,31.14,45.16,10.29,12.8,24.43,28,34.26,35.81,7.94,6.31,12.44,6.72,14.79,5.45s2.21-8.69-3.89-14.79c-9.34-9.34-20.24-20.24-31.14-34.26-13.09-16.82-20.25-34.26-20.25-38.93,0-10.9,9.35-26.47,12.46-31.14,3.67,3.67,13.41,2.14,17.13-7.79,4.18-11.15,2-31.42-.3-37.79C167.39,158.53,200.09,149.19,165.05,160.87Z"/><path class="cls-1" d="M71.51,232.83a4.11,4.11,0,0,1-4.28-4.22c0-1.05.93-1.8,2.34-2.93a35,35,0,0,0,4-3.64,19.82,19.82,0,0,0,2.51-4.11,23.17,23.17,0,0,1,2.14-3.65,27.61,27.61,0,0,1,6.16-5.12c.65-.44,1.24-.84,1.71-1.2,1.37-1,5.24-2.68,10.6-5,8.7-3.74,20.62-8.86,31.49-15.28a162,162,0,0,0,18.17-13c5.37-4.26,9.25-7.33,11.37-7.33a1.7,1.7,0,0,1,.4,0,9.14,9.14,0,0,1,7.34,7.52c.74,4.57-1.94,9.09-7.19,12.09a351,351,0,0,1-35.87,17.15c-5.26,2.17-10.69,4.06-15.94,5.89-4.84,1.69-9.42,3.29-13.65,5a10.19,10.19,0,0,0-2.38,1.59A12.6,12.6,0,0,1,88.59,218c1.24,3.73,2.33,7.19,1.2,8.76a2.1,2.1,0,0,1-1.82.82c-3.19,0-3.41-3.38-3.56-5.62-.06-.93-.15-2.34-.5-2.34a.89.89,0,0,0-.39.12c-.39.26-1.12,2.58-1.56,4a22.82,22.82,0,0,1-1.34,3.61,8,8,0,0,1-5,4.29,13.24,13.24,0,0,0-1.44.59A6,6,0,0,1,71.51,232.83Z"/><path class="cls-2" d="M157.74,167.85a1.39,1.39,0,0,1,.3,0c7.79,1.55,10.9,12.45,0,18.68a345.76,345.76,0,0,1-35.81,17.13c-10,4.13-20.7,7.28-29.59,10.9-1.68.69-3.25,2.57-4.67,3.12,1.56,4.67,3.12,9.34,0,9.34-4.54,0-2-8-4.06-8a1.38,1.38,0,0,0-.61.17c-1,.48-2.16,6.09-3.12,7.79-2.15,3.83-4.07,3.59-6.22,4.67a5.47,5.47,0,0,1-2.45.61,3.6,3.6,0,0,1-3.78-3.72c0-1.46,2.68-2.44,6.23-6.23,1.72-1.84,3.1-5.81,4.67-7.79,2.1-2.66,5.88-4.8,7.78-6.23,3.43-2.57,24.36-9.8,42.05-20.24,14-8.3,25.45-20.27,29.28-20.27m0-1c-2.19,0-5.51,2.55-11.68,7.44a165.06,165.06,0,0,1-18.11,13c-10.85,6.4-22.75,11.52-31.44,15.25-5.59,2.41-9.29,4-10.7,5.05-.45.35-1,.75-1.69,1.18A28.1,28.1,0,0,0,77.84,214a24.68,24.68,0,0,0-2.19,3.73,20,20,0,0,1-2.42,4,35.89,35.89,0,0,1-4,3.59c-1.53,1.22-2.53,2-2.53,3.32a4.6,4.6,0,0,0,4.78,4.72,6.48,6.48,0,0,0,2.89-.71,11.93,11.93,0,0,1,1.39-.57,8.47,8.47,0,0,0,5.27-4.51,23,23,0,0,0,1.37-3.71,27,27,0,0,1,1.3-3.57,12.14,12.14,0,0,1,.18,1.71c.15,2.27.4,6.08,4.06,6.08a2.59,2.59,0,0,0,2.23-1c1.23-1.71.26-5-1-8.82A18.62,18.62,0,0,0,90.77,217,10.14,10.14,0,0,1,93,215.52c4.22-1.72,8.79-3.32,13.63-5,5.25-1.84,10.68-3.74,16-5.9a350.77,350.77,0,0,0,35.93-17.19c5.43-3.1,8.21-7.81,7.43-12.6a9.63,9.63,0,0,0-7.73-7.93,2.07,2.07,0,0,0-.5-.05Z"/><path class="cls-1" d="M195.25,336.35c-3.23,0-7.47-2.06-12.6-6.13-10.49-8.33-24.8-24-34.34-35.9-9.18-11.42-16.5-23.47-21.85-32.26-4.1-6.74-7.64-12.57-9-12.71h0a.73.73,0,0,0-.45.32c-2.27,2.81-4.26,19.2-.56,36.45A150.46,150.46,0,0,0,124.25,311a36.18,36.18,0,0,0,2.18,4.2c1.38,2.4,2.69,4.66,2.53,6.92-.49,6.73-5.94,9.79-10.79,9.79-3.21,0-6-1.28-7.27-3.33a1.8,1.8,0,0,1-.1-1.89,3.86,3.86,0,0,0,0-2.91,104.16,104.16,0,0,0-4-10.44c-3.21-7.65-7.2-17.18-8.47-25.43l0-.28c-2.61-16.95-5.57-36.16.06-54.45,4.44-14.43,15.48-25.21,26.15-35.63,2.22-2.16,4.52-4.41,6.67-6.62,3-3.09,5.92-6.15,8.71-9.11,9.6-10.21,17.9-19,25-21.37,4.07-1.36,7.22-2.43,9.62-3.25,5-1.69,6.31-2.14,6.82-2.14a.58.58,0,0,1,.59.39c.15.46-.17.69-1.51,1.68-3.08,2.25-10.29,7.52-8.18,13.32,2.19,6,4.58,26.71.3,38.14-2.75,7.33-8.5,9.93-12.59,9.93h0a7.75,7.75,0,0,1-4.91-1.56c-2,3.05-12.06,19.17-12.06,30.38,0,4.45,6.92,21.63,20.14,38.63,10.88,14,21.62,24.73,31.1,34.21,4.39,4.38,5.88,9.54,5.41,12.71a3.66,3.66,0,0,1-1.63,2.87A5.66,5.66,0,0,1,195.25,336.35Z"/><path class="cls-2" d="M181.34,155.51c1.47,0-12.54,6.92-9.58,15.06,2.31,6.37,4.48,26.64.3,37.79-2.52,6.74-7.83,9.61-12.12,9.61a7,7,0,0,1-5-1.82c-3.11,4.67-12.46,20.24-12.46,31.14,0,4.67,7.16,22.11,20.25,38.93,10.9,14,21.8,24.92,31.14,34.26,6.1,6.1,6.35,13.47,3.89,14.79a5.13,5.13,0,0,1-2.5.58c-2.63,0-6.57-1.48-12.29-6-9.83-7.8-24-23-34.26-35.81-17.1-21.29-27.79-44.79-31.14-45.16h-.08c-2.81,0-5.6,18.18-1.48,37.37a149.39,149.39,0,0,0,7.79,24.92c1.73,4.19,4.9,7.6,4.67,10.9-.47,6.49-5.64,9.32-10.29,9.32-2.91,0-5.61-1.1-6.84-3.09-.87-1.41.9-1.36,0-4.68-1.94-7.14-10.49-23-12.46-35.81-2.57-16.68-5.63-36.22,0-54.5,5.35-17.38,20.45-29.52,32.7-42.05,13.58-13.88,24.53-27.38,33.48-30.36,11.33-3.78,15.58-5.36,16.29-5.36m0-1c-.6,0-1.74.38-7,2.17-2.4.82-5.55,1.89-9.61,3.24-7.2,2.4-15.53,11.25-25.19,21.5-2.79,3-5.67,6-8.69,9.12-2.16,2.2-4.45,4.44-6.67,6.61-10.72,10.46-21.8,21.28-26.27,35.83-5.67,18.41-2.7,37.68-.08,54.68l0,.27c1.28,8.31,5.29,17.87,8.51,25.56a97.94,97.94,0,0,1,4,10.37,3.43,3.43,0,0,1,0,2.6,2.24,2.24,0,0,0,.14,2.33c1.36,2.2,4.31,3.57,7.69,3.57,5.08,0,10.78-3.21,11.28-10.25.18-2.42-1.16-4.74-2.59-7.21a35.3,35.3,0,0,1-2.15-4.15A149.72,149.72,0,0,1,117,286a92.88,92.88,0,0,1-1.91-24.69c.48-7.51,1.83-10.89,2.46-11.44,1.3.6,5,6.62,8.5,12.44,5.36,8.81,12.69,20.87,21.89,32.31,9.56,11.9,23.9,27.63,34.42,36,5.22,4.14,9.56,6.24,12.91,6.24a6.13,6.13,0,0,0,3-.7,4.17,4.17,0,0,0,1.89-3.23c.45-3.06-.74-8.33-5.55-13.15-9.47-9.46-20.2-20.2-31.07-34.16a137,137,0,0,1-14.91-23.85c-3.54-7.27-5.12-12.5-5.12-14.47,0-9.18,7.08-22.53,11.69-29.66a8.48,8.48,0,0,0,4.78,1.34c4.25,0,10.22-2.69,13.06-10.26,4.24-11.32,2.18-31.64-.3-38.48-2-5.45,5-10.57,8-12.75,1.43-1,2-1.43,1.69-2.24a1.08,1.08,0,0,0-1-.73Z"/><path class="cls-1" d="M189.43,138.35c1.41,8.34,1.84,16.65-2.51,22.54-4.94,6.68-15.34,10.48-24.81,12.08-9.64,1.63-20.49,1.62-27.4-3.27-5.84-4.14-8.39-12.3-9.77-20.46a32.7,32.7,0,0,1,64.49-10.89Z"/><path class="cls-3" d="M154.93,216.15c-7.48-5.15-3.64-41.47-4.9-42.52s-1.23-6.28-2.58-6.78c-3.46-1.45-13.24-4.57-12.24-7.06s13,3,13.77,1.93-11.76-15-8.44-17.18,11.65,13.87,13.41,13.27-4.52-20-.45-20.6,4.82,19.09,6.48,19.24,3.82-19.14,7-18.13c2.06.65-.26,11.05-.7,18.48-.24,4,1.42,5.81,1.86,6.13s1.48-1.51,3.26-3.22a24.21,24.21,0,0,1,3.32-2.61,4.36,4.36,0,0,1,4.1,0,2.15,2.15,0,0,1,.5,3.12c-.56.89-2.07.76-3.6,2-4.79,3.91-4.42,7.73-9.24,11.7s.45,31.95.45,31.95"/><path class="cls-4" d="M3.85,48.05,0,40.19,30.1,25.43l3.54,7.22a37.35,37.35,0,0,1,3.83,13.53,33.51,33.51,0,0,1-.95,11.09,27.45,27.45,0,0,1-3.77,8.34,39.19,39.19,0,0,1-4.95,5.93,34.82,34.82,0,0,1-4.28,3.62,13.88,13.88,0,0,1-1.83,1.17l-3.86-7.85a37,37,0,0,0,6-5,22.88,22.88,0,0,0,4.05-6.34,19.88,19.88,0,0,0,1.52-8.76,31.51,31.51,0,0,0-3-11.35Z"/><path class="cls-4" d="M87,49.08,54.2,59.46,42.12,21.3,74.91,10.91ZM69,21.8l-15.74,5,6.9,21.79,15.74-5Z"/><path class="cls-4" d="M88.51,15.87,87.39,7.41l16.92-2.23,1.11,8.45Zm36.14-4.11a49.93,49.93,0,0,1-5.13,17.11,41.09,41.09,0,0,1-8.19,10.88,36.35,36.35,0,0,1-8.67,6,34,34,0,0,1-7,2.6,28.8,28.8,0,0,1-2.83.57L91.71,40.1a17,17,0,0,0,2.21-.37,27.3,27.3,0,0,0,5.41-1.85A23.19,23.19,0,0,0,106,33.2a33.93,33.93,0,0,0,6-7.93A41.72,41.72,0,0,0,116,12.9Z"/><path class="cls-4" d="M134.12,45.75,136.83,0l8.62.51-.87,14.74,22.93,1.36L167,25.18l-22.93-1.36-1.33,22.44Z"/><path class="cls-4" d="M178.53,15.15l2.2-8.3,32.73,8.68-2.21,8.3-11.89-3.16-5.86,22.1,13,3.45-2.2,8.3-34.79-9.23,2.2-8.29,13.17,3.49,5.86-22.1Z"/><path class="cls-4" d="M254.25,43.8a49.66,49.66,0,0,1-13.77,11.38,40.83,40.83,0,0,1-12.85,4.49,36.4,36.4,0,0,1-10.56.2,35.24,35.24,0,0,1-7.23-1.71,24.45,24.45,0,0,1-2.66-1.1l3.94-8a16.72,16.72,0,0,0,2,.92,27.68,27.68,0,0,0,5.53,1.47,23,23,0,0,0,8.12-.21A34.24,34.24,0,0,0,236.19,48a41.72,41.72,0,0,0,10.26-8ZM221.92,27.14l3.77-7.65L241,27l-3.77,7.65Z"/><path class="cls-4" d="M243.4,77.5l27-37,7,5.08-8.69,11.94L287.23,71l-5.05,6.94L263.61,64.42,250.38,82.59ZM277,55.12l4.63-6.36L284.63,51,280,57.34Zm4.77,3.48,4.64-6.37,3.05,2.22-4.64,6.37Z"/><path class="cls-4" d="M39.71,92.19,37,84.05,69,73.19l2.75,8.14L60.12,85.27l7.33,21.65,12.74-4.31L83,110.74,48.86,122.29l-2.75-8.14L59,109.78,51.67,88.13Z"/><path class="cls-4" d="M81.73,78.07l-1.35-8.43,16.85-2.7,1.35,8.43Zm36-5.11a49.84,49.84,0,0,1-4.66,17.25,40.93,40.93,0,0,1-7.89,11.09,36.27,36.27,0,0,1-8.49,6.27,35.08,35.08,0,0,1-6.89,2.79A26.49,26.49,0,0,1,87,111l-1.41-8.8a16.47,16.47,0,0,0,2.2-.43,27.31,27.31,0,0,0,5.36-2,23.13,23.13,0,0,0,6.51-4.86,34.06,34.06,0,0,0,5.76-8.1,41.5,41.5,0,0,0,3.73-12.48Z"/><path class="cls-4" d="M164.26,73.64a49.7,49.7,0,0,1-7.91,16A41.13,41.13,0,0,1,146.46,99a36.19,36.19,0,0,1-9.55,4.5,34.48,34.48,0,0,1-7.3,1.4,25.86,25.86,0,0,1-2.88.09l.33-8.91a16.14,16.14,0,0,0,2.24,0,27.05,27.05,0,0,0,5.64-.92,22.93,22.93,0,0,0,7.32-3.51,33.67,33.67,0,0,0,7.23-6.82,41.69,41.69,0,0,0,6.08-11.52Zm-36.78,10.7.31-8.58,16,.58-.32,8.58ZM128,71.06l.31-8.58,16,.58L144,71.64Zm27.2.11.28-7.87,3.77.14-.28,7.87Zm5.9.22.28-7.87,3.78.13-.29,7.87Z"/><path class="cls-4" d="M168.62,97.25l33.68,8.26-2.05,8.34-33.67-8.26Zm6.46-22,2-8.34,31.55,7.74-2,8.34Z"/><path class="cls-4" d="M206.29,109.42a9.18,9.18,0,0,0,1.79.38,10.73,10.73,0,0,0,4.29-.28,13.6,13.6,0,0,0,5.43-3A21.85,21.85,0,0,0,223.2,99l2.14-4.56,7.48,3.51-2.28,4.85a28.56,28.56,0,0,1-6.77,9.3,26.55,26.55,0,0,1-7.57,4.73,23,23,0,0,1-6.86,1.61,32.31,32.31,0,0,1-7.06-.44ZM217.74,85l3.55-7.58,33.47,15.7-3.55,7.58a30,30,0,0,1-8.16,7.61,23.16,23.16,0,0,1-7.69,3.26,42,42,0,0,1-5.17.65,9,9,0,0,1-1.91,0l4-8.51a6.51,6.51,0,0,0,1.61-.15A12.76,12.76,0,0,0,238,102a17.49,17.49,0,0,0,5.17-5Z"/></g></g></svg>