<svg xmlns="http://www.w3.org/2000/svg" viewBox="0 0 42.25 40.3"><defs><style>.cls-1{fill:#754c24;}.cls-2{fill:#7f4f21;}</style></defs><title>index_logo01</title><g id="レイヤー_2" data-name="レイヤー 2"><g id="レイヤー_1-2" data-name="レイヤー 1"><path class="cls-1" d="M42.24,21.87A42.5,42.5,0,0,1,41.83,30a10.46,10.46,0,0,1-4.59,6.83,22.36,22.36,0,0,1-7.82,2.82,39,39,0,0,1-8.21.66,37.08,37.08,0,0,1-8.14-1.23,28.58,28.58,0,0,1-7.58-3.14A10.83,10.83,0,0,1,2.4,33.16,10.34,10.34,0,0,1,.7,29.38,39.32,39.32,0,0,1,0,21.23,20.89,20.89,0,0,1,6.31,6.16a21.51,21.51,0,0,1,7-4.62,21.08,21.08,0,0,1,16.54.3,19.94,19.94,0,0,1,6.73,5A22.52,22.52,0,0,1,42.24,21.87Zm-.2,0a18.78,18.78,0,0,0-1.71-7.79,19.83,19.83,0,0,0-4.65-6.35,21.09,21.09,0,0,0-14.06-5.6,20.26,20.26,0,0,0-14,5.39A20.56,20.56,0,0,0,1.1,21.26C1,22.58,1,24,1,25.28a19.29,19.29,0,0,0,.36,3.95A9,9,0,0,0,2.9,32.8a9.66,9.66,0,0,0,2.93,2.57A23.75,23.75,0,0,0,13.32,38a38.2,38.2,0,0,0,7.9.65,57.86,57.86,0,0,0,7.89-.73,27.14,27.14,0,0,0,7.5-2.18,9.51,9.51,0,0,0,4.72-5.86A30,30,0,0,0,42,21.87Z"/><circle class="cls-2" cx="4.93" cy="17.3" r="1.02"/><circle class="cls-2" cx="38.64" cy="17.3" r="1.02"/><path class="cls-2" d="M4.63,28.24C6.49,32.05,11.9,33.77,19,32.6A2.44,2.44,0,0,0,21.34,35c1.19,0,2.14-1.29,2.31-2.39,9.73,2.12,12.87-.24,14.48-3.54-3.07,3.33-5.92,5-14.89,2.54-.48,2-1.13,2.39-1.86,2.37s-1.52-.42-1.52-2.37C11.82,33.48,7.76,31.41,4.63,28.24Z"/><path class="cls-2" d="M20.22,28.12a4,4,0,0,1,.38,1.37A3.69,3.69,0,0,1,19.37,27,4,4,0,0,1,20.22,28.12Z"/><path class="cls-2" d="M22.82,28.09a4,4,0,0,0-.54,1.32,4.16,4.16,0,0,0,1-1,4,4,0,0,0,.54-1.32A4,4,0,0,0,22.82,28.09Z"/></g></g></svg>